<?xml version="1.0" standalone="no"?>
<!DOCTYPE svg PUBLIC "-//W3C//DTD SVG 20010904//EN"
 "http://www.w3.org/TR/2001/REC-SVG-20010904/DTD/svg10.dtd">
<svg version="1.0" xmlns="http://www.w3.org/2000/svg"
 width="400.000000pt" height="400.000000pt" viewBox="0 0 400.000000 400.000000"
 preserveAspectRatio="xMidYMid meet">
<metadata>
Created by potrace 1.14, written by Peter Selinger 2001-2017
</metadata>
<g transform="translate(0.000000,400.000000) scale(0.100000,-0.100000)"
fill="#000000" stroke="none">
<path d="M2839 3856 c-2 -2 -31 -7 -64 -10 -33 -4 -76 -8 -95 -11 -19 -3 -55
-7 -80 -10 -45 -5 -92 -11 -160 -20 -19 -2 -60 -7 -90 -10 -30 -3 -86 -10
-125 -15 -63 -9 -114 -15 -212 -25 -17 -2 -49 -6 -70 -9 -21 -3 -99 -13 -173
-21 -74 -9 -153 -18 -175 -21 -22 -3 -58 -7 -80 -9 -22 -2 -56 -7 -75 -9 -19
-3 -60 -8 -90 -12 -153 -16 -273 -35 -290 -44 -10 -5 -22 -20 -26 -32 -10 -30
-11 -840 -2 -877 12 -43 54 -59 130 -50 35 4 88 10 119 13 31 4 65 8 75 10 11
2 48 7 84 11 113 12 146 16 250 30 19 3 53 7 75 9 22 3 76 10 120 15 44 6 105
13 135 16 30 3 62 8 70 10 8 2 46 6 83 10 37 3 76 8 85 9 9 2 42 6 72 10 30 4
71 9 90 11 19 3 55 7 80 10 25 3 79 10 120 15 41 5 98 12 125 15 177 20 193
24 215 52 19 25 20 40 20 457 0 498 3 477 -87 482 -28 2 -52 2 -54 0z"/>
<path d="M2847 2593 c-2 -1 -30 -4 -63 -8 -32 -3 -69 -7 -81 -9 -12 -3 -49 -7
-82 -11 -33 -3 -70 -8 -82 -10 -12 -3 -47 -7 -78 -10 -31 -2 -74 -7 -96 -11
-73 -10 -90 -13 -145 -19 -30 -3 -89 -10 -130 -15 -110 -14 -149 -19 -210 -25
-30 -3 -64 -8 -76 -10 -11 -2 -45 -7 -75 -10 -30 -4 -106 -13 -169 -21 -150
-19 -175 -22 -235 -29 -27 -3 -66 -8 -85 -11 -19 -2 -55 -7 -80 -9 -77 -8 -98
-15 -116 -43 -16 -24 -18 -64 -18 -439 -1 -227 2 -426 7 -443 4 -17 19 -36 35
-44 28 -14 41 -14 147 -1 33 4 71 8 85 10 24 2 109 13 160 20 14 2 48 6 75 10
28 3 86 10 130 16 44 5 96 12 115 14 19 2 60 7 90 10 30 4 66 8 80 10 14 2 50
6 80 10 30 4 66 8 80 10 14 2 52 7 85 10 33 4 67 8 75 10 8 2 44 7 80 10 36 4
76 8 90 10 28 4 83 12 150 20 25 3 61 7 80 10 19 3 53 7 75 9 188 22 186 21
213 51 l22 26 0 424 c0 298 -3 432 -11 449 -12 27 -58 47 -97 44 -13 -1 -24
-3 -25 -5z"/>
<path d="M2817 1324 c-1 -1 -27 -5 -57 -9 -55 -6 -195 -22 -260 -30 -19 -3
-60 -7 -90 -11 -30 -3 -66 -7 -80 -9 -54 -8 -107 -15 -150 -19 -25 -3 -85 -10
-135 -16 -49 -5 -99 -12 -110 -14 -11 -2 -51 -7 -90 -10 -38 -4 -81 -9 -95
-11 -14 -2 -70 -9 -125 -15 -55 -6 -113 -13 -130 -15 -120 -16 -202 -27 -229
-29 -17 -2 -56 -7 -86 -10 -128 -17 -133 -19 -147 -64 -5 -15 -8 -217 -8 -450
l1 -423 25 -24 c33 -33 38 -33 219 -10 14 1 50 6 80 10 51 6 239 29 320 40 19
2 59 7 89 10 30 4 61 8 70 10 9 1 48 6 86 10 39 4 79 9 89 11 11 2 44 6 75 9
54 5 107 12 161 20 14 2 50 6 80 10 30 3 71 7 90 10 19 2 53 7 75 9 76 9 150
18 165 21 8 2 44 6 80 10 175 18 221 30 240 65 6 12 10 175 10 450 l0 431 -25
25 c-21 21 -33 25 -80 23 -30 -1 -56 -4 -58 -5z"/>
</g>
</svg>
