<svg width="17" height="16" viewBox="0 0 17 16" fill="none" xmlns="http://www.w3.org/2000/svg">
<path d="M11.939 2.63595V1.81064C11.939 0.812112 11.1266 0 10.1281 0H6.55111C5.55282 0 4.74071 0.812112 4.74071 1.81064V2.63595H0V16H16.6797V2.63595H11.939ZM5.22335 1.81064C5.22335 1.07842 5.81901 0.482649 6.55111 0.482649H10.1281C10.8604 0.482649 11.4563 1.07842 11.4563 1.81064V2.63595H5.22335V1.81064ZM16.197 15.5174H0.482649V6.40853L2.18853 8.60826H14.4431L16.197 6.34655V15.5174ZM16.197 5.55895L14.2067 8.12561H2.42491L0.482649 5.62093V3.1186H16.197V5.55895Z" fill="#EFEFF1"/>
<path d="M10.0824 6.35974H6.54922V6.84239H10.0824V6.35974Z" fill="#EFEFF1"/>
<path d="M2.78632 12.0657H13.8931V10.4236H2.78632V12.0657ZM3.26896 10.9062H13.4105V11.5831H3.26896V10.9062Z" fill="#EFEFF1"/>
<path d="M2.76251 14.2355H13.8691V12.5931H2.76251V14.2355ZM3.24516 13.0758H13.3864V13.7529H3.24516V13.0758Z" fill="#EFEFF1"/>
</svg>
