<svg width="13" height="25" viewBox="0 0 13 25" fill="none" xmlns="http://www.w3.org/2000/svg">
<path d="M12.3498 23.4822L0.648034 24.8934C0.324619 24.9228 0.00120354 24.6582 0.00120354 24.3348V19.072C0.00120354 18.778 0.207013 18.5427 0.501027 18.5133L12.2028 17.1021C12.5556 17.0433 12.8496 17.3079 12.8496 17.6607V22.9236C12.8496 23.2176 12.6438 23.4528 12.3498 23.4822Z" fill="#EFEFF1"/>
<path d="M12.8496 9.3697V14.6325C12.8496 14.9266 12.6438 15.1618 12.3498 15.1912L0.648034 16.6024C0.324619 16.6318 0.00120354 16.3672 0.00120354 16.0438V10.8104C0.00120354 10.5164 0.207013 10.2811 0.501027 10.2517L12.2028 8.81107C12.5556 8.78167 12.8496 9.04628 12.8496 9.3697Z" fill="#EFEFF1"/>
<path d="M0.529451 1.96073L12.2018 0.549464C12.5546 0.490662 12.8486 0.755274 12.8486 1.10809V6.37094C12.8486 6.66495 12.6428 6.90016 12.3488 6.92957L0.647058 8.34083C0.323643 8.37023 0.000226974 8.10562 0.000226974 7.78221V2.51936C0.0296288 2.22534 0.235437 1.99013 0.529451 1.96073Z" fill="#EFEFF1"/>
</svg>
