<?xml version="1.0" encoding="utf-8"?>
<!-- Generator: Adobe Illustrator 25.3.1, SVG Export Plug-In . SVG Version: 6.00 Build 0)  -->
<svg version="1.1" id="Layer_1" xmlns="http://www.w3.org/2000/svg" xmlns:xlink="http://www.w3.org/1999/xlink" x="0px" y="0px"
	 viewBox="0 0 736.4 143.2" style="enable-background:new 0 0 736.4 143.2;" xml:space="preserve">
<style type="text/css">
	.st0{fill:#057ADD;}
	.st1{fill:#FFFFFF;}
</style>
<g>
	<path class="st0" d="M44.6,81.8L4.8,86.6c-1.1,0.1-2-0.6-2.1-1.7c0-0.1,0-0.2,0-0.2V66.8c0-1,0.7-1.8,1.7-1.9L44.1,60
		c1.1-0.1,2,0.6,2.1,1.7c0,0.1,0,0.2,0,0.2v17.9C46.3,80.8,45.6,81.7,44.6,81.8z"/>
	<path class="st0" d="M46.3,33.8v17.9c0,1-0.7,1.8-1.7,1.9L4.8,58.5c-1.1,0.1-2-0.6-2.1-1.7c0-0.1,0-0.1,0-0.2V38.6
		c0-1,0.7-1.8,1.7-1.9l39.8-4.8c1.1-0.1,2,0.7,2.1,1.7C46.3,33.7,46.3,33.7,46.3,33.8z"/>
	<path class="st0" d="M4.4,8.6l39.8-4.8c1.1-0.1,2,0.6,2.1,1.7c0,0.1,0,0.2,0,0.2v17.9c0,1-0.7,1.8-1.7,1.9L4.8,30.3
		c-1.1,0.1-2-0.6-2.1-1.7c0-0.1,0-0.1,0-0.2V10.5C2.7,9.5,3.4,8.7,4.4,8.6z"/>
	<path class="st1" d="M73.2,4h16.8v107.6H73.2V4z"/>
	<path class="st1" d="M101.4,33.2h15.8v13.5c4.8-9.4,14-14.9,26.7-14.9c17.8,0,26.8,10.5,26.8,28v51.8h-16.5V62.4
		c0-10.8-6.5-16.1-15.7-16.1c-11.7,0-20.8,8.5-20.8,23.2v42.1h-16.4V33.2z"/>
	<path class="st1" d="M178.1,87.3h16.6c1.7,9.2,9.8,12.9,20.1,12.9c9.4,0,15.1-2.9,15.1-9.5s-6-8.8-14.3-10.3L205,78.5
		c-12.5-2.3-25.1-6.9-25.1-23.1c0-15.7,12.3-23.7,31-23.7c19.4,0,31.8,8.5,33.4,24.9h-16.4c-0.9-8.4-7.7-12.1-17.5-12.1
		c-9.5,0-14.6,3.5-14.6,9.7c0,6.9,5.8,9.1,14,10.6l10.9,2c12.6,2.3,25.2,6.3,25.2,22c0,16.6-14.1,24.4-31.7,24.4
		S180,105.6,178.1,87.3z"/>
	<path class="st1" d="M254.7,33.2h15.8v14.9c3.9-9.7,13.1-16.3,26.4-16.3c19.1,0,34.9,12.8,34.9,39.8c0,27.5-16.1,40-35.5,40
		c-13.4,0-21.1-6-25.2-12.9v42.4h-16.4V33.2z M293.3,96.5c12.3,0,21.8-7.5,21.8-24.9c0-17.1-9.4-24.5-21.8-24.5
		c-12.3,0-22.3,7.2-22.3,24.5S281.1,96.5,293.3,96.5L293.3,96.5z"/>
	<path class="st1" d="M340,2.1h17.5v18H340V2.1z M340.6,33.2h16.5v78.4h-16.5V33.2z"/>
	<path class="st1" d="M371.2,33.2H387v14.4c3.1-9.4,10.2-15.4,21.2-15.4h6.4v16h-6.2c-15.5,0-20.9,9.8-20.9,25.1v38.3h-16.4V33.2z"
		/>
	<path class="st1" d="M418.7,90.2c0-16.6,12.9-21.8,25.1-23.5l17.4-2.3c5.7-0.8,10.5-2.1,10.5-8.6c0-7.1-5.1-10.9-15.5-10.9
		c-11.8,0-17.8,4.6-19.4,12.4h-16.3c2.5-17.4,15.8-25.5,36.3-25.5c21.1,0,31.4,8.3,31.4,26v53.8h-15.3V97.4
		c-5.1,9.7-14.5,15.8-28,15.8C429.8,113.2,418.7,105.3,418.7,90.2z M448.7,99.4c12.9,0,22.9-8.3,22.9-21.1v-4.9
		c-2.9,1.2-6.3,2-12.1,2.9l-10.3,1.4c-6,0.8-13.8,2.6-13.8,11.2C435.3,96,440.7,99.4,448.7,99.4z"/>
	<path class="st1" d="M507.9,90.2V47.6h-14.6V33.2h14.6V13.6L524.3,9v24.1h17.1v14.4h-17.1v40.1c0,6.4,2.2,9.4,8.8,9.4h10v14.5
		h-13.9C515.1,111.6,507.9,104.5,507.9,90.2z"/>
	<path class="st1" d="M552,2.1h17.5v18H552V2.1z M552.6,33.2h16.5v78.4h-16.5V33.2z"/>
	<path class="st1" d="M577.8,72.5c0-25.4,15.5-40.7,38.6-40.7S655,47.1,655,72.5s-15.5,40.7-38.6,40.7S577.8,97.9,577.8,72.5z
		 M616.4,97.9c12.9,0,21.8-8.6,21.8-25.4c0-16.9-8.9-25.4-21.8-25.4s-21.8,8.5-21.8,25.4C594.6,89.3,603.5,97.9,616.4,97.9z"/>
	<path class="st1" d="M664.4,33.2h15.8v13.5c4.8-9.4,14-14.9,26.7-14.9c17.8,0,26.8,10.5,26.8,28v51.8h-16.5V62.4
		c0-10.8-6.5-16.1-15.7-16.1c-11.7,0-20.8,8.5-20.8,23.2v42.1h-16.5V33.2z"/>
</g>
</svg>
