<svg xmlns="http://www.w3.org/2000/svg" viewBox="0 0 963.28 311.58"><path d="M166.89,174.21l-39.76,4.84a1.92,1.92,0,0,1-2.16-1.91V159.22a1.93,1.93,0,0,1,1.69-1.91l39.77-4.84a1.92,1.92,0,0,1,2.15,1.91V172.3A1.92,1.92,0,0,1,166.89,174.21Z" fill="#057add"/><path d="M168.58,126.22v17.92a1.91,1.91,0,0,1-1.69,1.91l-39.76,4.84A1.92,1.92,0,0,1,125,149V131.07a1.92,1.92,0,0,1,1.69-1.91l39.77-4.84A1.92,1.92,0,0,1,168.58,126.22Z" fill="#057add"/><path d="M126.66,101l39.77-4.84a1.92,1.92,0,0,1,2.15,1.91V116a1.92,1.92,0,0,1-1.69,1.91l-39.76,4.84a1.93,1.93,0,0,1-2.16-1.91V102.91A1.93,1.93,0,0,1,126.66,101Z" fill="#057add"/><path d="M195.46,96.38h16.75V204H195.46Z" fill="#fff"/><path d="M223.74,125.59h15.84v13.52c4.76-9.37,14-14.91,26.74-14.91,17.83,0,26.75,10.46,26.75,28V204H276.62V154.79c0-10.76-6.45-16.14-15.68-16.14-11.68,0-20.75,8.46-20.75,23.21V204H223.74Z" fill="#fff"/><path d="M300.45,179.69h16.6c1.69,9.23,9.84,12.92,20.14,12.92,9.37,0,15.06-2.92,15.06-9.53s-6-8.77-14.29-10.3l-10.61-1.85c-12.45-2.3-25.06-6.91-25.06-23.05,0-15.68,12.3-23.68,31-23.68,19.37,0,31.82,8.46,33.36,24.9H350.25c-.92-8.45-7.68-12.14-17.52-12.14-9.53,0-14.6,3.54-14.6,9.69,0,6.91,5.84,9.06,14,10.6l10.92,2c12.6,2.31,25.21,6.3,25.21,22,0,16.6-14.14,24.44-31.67,24.44S302.29,198,300.45,179.69Z" fill="#fff"/><path d="M377,125.59h15.83V140.5c3.85-9.69,13.07-16.3,26.44-16.3,19.06,0,34.9,12.76,34.9,39.82,0,27.51-16.14,40-35.51,40-13.37,0-21.06-6-25.21-12.91V233.5H377Zm38.58,63.33c12.3,0,21.83-7.53,21.83-24.9,0-17.07-9.37-24.45-21.83-24.45-12.29,0-22.28,7.23-22.28,24.45S403.44,188.92,415.58,188.92Z" fill="#fff"/><path d="M462.32,94.54h17.52v18H462.32Zm.61,31.05h16.45V204H462.93Z" fill="#fff"/><path d="M493.52,125.59h15.83V140c3.08-9.38,10.15-15.38,21.22-15.38H537v16h-6.15c-15.52,0-20.9,9.84-20.9,25.06V204H493.52Z" fill="#fff"/><path d="M541,182.62c0-16.61,12.91-21.83,25.06-23.52l17.37-2.31c5.68-.77,10.45-2.15,10.45-8.61,0-7.07-5.07-10.91-15.53-10.91-11.83,0-17.83,4.61-19.36,12.45h-16.3c2.46-17.37,15.84-25.52,36.28-25.52,21.06,0,31.36,8.3,31.36,26V204H595V189.84c-5.08,9.68-14.45,15.83-28,15.83C552.09,205.67,541,197.68,541,182.62Zm30,9.22c12.91,0,22.9-8.3,22.9-21.06v-4.92c-2.92,1.23-6.3,2-12.14,2.92l-10.3,1.38c-6,.77-13.84,2.62-13.84,11.23C557.62,188.46,563,191.84,571,191.84Z" fill="#fff"/><path d="M630.18,182.62V140H615.57V125.59h14.61V106.06l16.44-4.61v24.14h17.07V140H646.62v40.12c0,6.45,2.16,9.37,8.77,9.37h10V204H651.54C637.4,204,630.18,196.91,630.18,182.62Z" fill="#fff"/><path d="M674.29,94.54h17.53v18H674.29Zm.62,31.05h16.45V204H674.91Z" fill="#fff"/><path d="M700.12,164.94c0-25.37,15.52-40.74,38.58-40.74s38.58,15.37,38.58,40.74-15.52,40.73-38.58,40.73S700.12,190.3,700.12,164.94ZM738.7,190.3c12.91,0,21.83-8.61,21.83-25.36,0-16.91-8.92-25.37-21.83-25.37s-21.83,8.46-21.83,25.37C716.87,181.69,725.79,190.3,738.7,190.3Z" fill="#fff"/><path d="M786.66,125.59H802.5v13.52c4.76-9.37,14-14.91,26.74-14.91,17.83,0,26.75,10.46,26.75,28V204H839.54V154.79c0-10.76-6.45-16.14-15.68-16.14-11.68,0-20.75,8.46-20.75,23.21V204H786.66Z" fill="#fff"/></svg>