<svg width="28" height="29" viewBox="0 0 28 29" fill="none" xmlns="http://www.w3.org/2000/svg">
<path d="M26 0.0625H1.99375C0.89375 0.0625 0 0.997071 0 2.14434V26.8557C0 28.0029 0.89375 28.9375 1.99375 28.9375H26C27.1 28.9375 28 28.0029 28 26.8557V2.14434C28 0.997071 27.1 0.0625 26 0.0625ZM8.4625 24.8125H4.3125V11.0324H8.46875V24.8125H8.4625ZM6.3875 9.15039C5.05625 9.15039 3.98125 8.03535 3.98125 6.66895C3.98125 5.30254 5.05625 4.1875 6.3875 4.1875C7.7125 4.1875 8.79375 5.30254 8.79375 6.66895C8.79375 8.0418 7.71875 9.15039 6.3875 9.15039V9.15039ZM24.0187 24.8125H19.8687V18.1094C19.8687 16.5109 19.8375 14.4549 17.7125 14.4549C15.55 14.4549 15.2188 16.1951 15.2188 17.9934V24.8125H11.0688V11.0324H15.05V12.9145H15.1062C15.6625 11.8316 17.0188 10.6908 19.0375 10.6908C23.2375 10.6908 24.0187 13.5461 24.0187 17.2586V24.8125V24.8125Z" fill="white"/>
</svg>
