<svg width="23" height="23" viewBox="0 0 23 23" fill="none" xmlns="http://www.w3.org/2000/svg">
<path d="M5.1483 23H0.379911V7.64408H5.1483V23ZM2.76154 5.54939C1.23676 5.54939 0 4.28641 0 2.7616C1.09137e-08 2.02918 0.290947 1.32676 0.808836 0.808854C1.32673 0.290954 2.02913 0 2.76154 0C3.49395 0 4.19635 0.290954 4.71424 0.808854C5.23213 1.32676 5.52308 2.02918 5.52308 2.7616C5.52308 4.28641 4.2858 5.54939 2.76154 5.54939ZM22.9949 23H18.2367V15.5248C18.2367 13.7433 18.2008 11.4587 15.7576 11.4587C13.2784 11.4587 12.8985 13.3942 12.8985 15.3965V23H8.13522V7.64408H12.7085V9.73877H12.7753C13.4119 8.53227 14.9669 7.25902 17.287 7.25902C22.1129 7.25902 23 10.437 23 14.5648V23H22.9949Z" fill="#CED0D7"/>
</svg>
