<svg width="225" height="29" viewBox="0 0 225 29" fill="none" xmlns="http://www.w3.org/2000/svg">
<path d="M83.4216 26.95L86.3866 2.36512C86.4484 1.68563 85.8924 1.00615 85.213 1.00615L74.1559 1.00615C73.5382 1.00615 73.0441 1.43855 72.9823 2.05626L70.0172 26.6412C69.8937 27.3824 70.4496 28.0001 71.1909 28.0001L82.2479 28.0001C82.8656 28.0001 83.3598 27.5677 83.4216 26.95Z" fill="#0053B6"/>
<path d="M152.422 26.95L155.387 2.36512C155.448 1.68563 154.892 1.00615 154.213 1.00615L143.156 1.00615C142.538 1.00615 142.044 1.43855 141.982 2.05626L139.017 26.6412C138.894 27.3824 139.45 28.0001 140.191 28.0001L151.248 28.0001C151.866 28.0001 152.36 27.5677 152.422 26.95Z" fill="#0053B6"/>
<path d="M14.4216 26.95L17.3866 2.36512C17.4484 1.68563 16.8924 1.00615 16.2129 1.00615L5.15591 1.00615C4.5382 1.00615 4.04403 1.43855 3.98226 2.05626L1.01724 26.6412C0.893696 27.3824 1.44964 28.0001 2.19089 28.0001L13.2479 28.0001C13.8656 28.0001 14.3598 27.5677 14.4216 26.95Z" fill="#0053B6"/>
<path d="M221.422 26.95L224.387 2.36512C224.448 1.68563 223.892 1.00615 223.213 1.00615L212.156 1.00615C211.538 1.00615 211.044 1.43855 210.982 2.05626L208.017 26.6412C207.894 27.3824 208.45 28.0001 209.191 28.0001L220.248 28.0001C220.866 28.0001 221.36 27.5677 221.422 26.95Z" fill="#0053B6"/>
<path d="M48.1783 28.0001L59.2354 28.0001C59.8531 28.0001 60.3473 27.5677 60.409 26.95L63.3741 2.36512C63.4358 1.68563 62.8799 1.00615 62.2004 1.00615L51.2052 1.00615C50.5875 1.00615 50.0933 1.43855 50.0315 2.05626L47.0047 26.6412C46.9429 27.3824 47.4989 28.0001 48.1783 28.0001Z" fill="#0053B6"/>
<path d="M117.178 28.0001L128.235 28.0001C128.853 28.0001 129.347 27.5677 129.409 26.95L132.374 2.36512C132.436 1.68563 131.88 1.00615 131.2 1.00615L120.205 1.00615C119.587 1.00615 119.093 1.43855 119.032 2.05626L116.005 26.6412C115.943 27.3824 116.499 28.0001 117.178 28.0001Z" fill="#0053B6"/>
<path d="M186.178 28.0001L197.235 28.0001C197.853 28.0001 198.347 27.5677 198.409 26.95L201.374 2.36512C201.436 1.68563 200.88 1.00615 200.2 1.00615L189.205 1.00615C188.587 1.00615 188.093 1.43855 188.032 2.05626L185.005 26.6412C184.943 27.3824 185.499 28.0001 186.178 28.0001Z" fill="#0053B6"/>
<path d="M26.9823 2.11193L24.0172 26.6351C23.8937 27.3763 24.4496 27.994 25.1909 27.994L36.2479 27.994C36.8656 27.994 37.3598 27.5616 37.4216 26.9439L40.3866 2.35901C40.4484 1.67953 39.8924 1.00005 39.213 1.00005L28.1559 1.00005C27.5382 1.06182 27.0441 1.49422 26.9823 2.11193Z" fill="#0053B6"/>
<path d="M95.9823 2.11193L93.0172 26.6351C92.8937 27.3763 93.4496 27.994 94.1909 27.994L105.248 27.994C105.866 27.994 106.36 27.5616 106.422 26.9439L109.387 2.35901C109.448 1.67953 108.892 1.00005 108.213 1.00005L97.1559 1.00005C96.5382 1.06182 96.0441 1.49422 95.9823 2.11193Z" fill="#0053B6"/>
<path d="M164.982 2.11193L162.017 26.6351C161.894 27.3763 162.45 27.994 163.191 27.994L174.248 27.994C174.866 27.994 175.36 27.5616 175.422 26.9439L178.387 2.35901C178.448 1.67953 177.892 1.00005 177.213 1.00005L166.156 1.00005C165.538 1.06182 165.044 1.49422 164.982 2.11193Z" fill="#0053B6"/>
</svg>
