<svg width="22" height="12" viewBox="0 0 22 12" fill="none" xmlns="http://www.w3.org/2000/svg">
<path d="M3.61356 4.00265C3.61356 3.84745 3.48668 3.72186 3.32987 3.72186L1.98036 3.72186C1.89669 3.72186 1.81718 3.7586 1.76315 3.82195L0.0665052 5.81929C0.0221765 5.87139 1.3092e-05 5.93556 1.30892e-05 6C1.30866e-05 6.05978 0.019407 6.11983 0.0579164 6.17028L1.8169 8.45555C1.87065 8.5252 1.95404 8.56606 2.0427 8.56606L9.79977 8.56606C10.7741 10.5925 12.8571 12 15.2712 12C18.6138 12 21.3333 9.30835 21.3333 6C21.3333 2.69165 18.6138 -1.18874e-07 15.2712 -2.64983e-07C12.4015 -3.90424e-07 9.99644 1.98611 9.37191 4.64101L7.45114 4.64101L7.45114 4.00265C7.45114 3.84745 7.32425 3.72186 7.16744 3.72186L5.7423 3.72186C5.58549 3.72186 5.45861 3.84745 5.45861 4.00265L5.45861 5.30734L3.61356 5.30734L3.61356 4.00265ZM15.2712 0.561583C18.301 0.561583 20.7659 3.00123 20.7659 6C20.7659 8.99876 18.301 11.4384 15.2712 11.4384C12.2414 11.4384 9.77652 8.99877 9.77652 6C9.77652 5.67074 9.81113 5.34983 9.86805 5.03654C9.88407 5.00134 9.89399 4.96293 9.89399 4.9218C9.89399 4.91421 9.89021 4.90785 9.88962 4.90042C10.4048 2.42702 12.622 0.561583 15.2712 0.561583ZM6.026 5.58814L6.026 4.28344L6.88375 4.28344L6.88375 4.9218C6.88375 5.07701 7.01063 5.2026 7.16744 5.2026L9.26907 5.2026C9.23373 5.46418 9.20912 5.72901 9.20912 6C9.20912 6.70373 9.33856 7.37654 9.56447 8.00448L2.18316 8.00448L0.646923 6.00877L2.11251 4.28344L3.04617 4.28344L3.04617 5.58813C3.04617 5.74334 3.17306 5.86893 3.32987 5.86893L5.7423 5.86893C5.89911 5.86893 6.026 5.74334 6.026 5.58814Z" fill="#EFEFF1"/>
<path d="M19.0333 6.00006C19.0333 8.04351 17.3768 9.70006 15.3333 9.70006C13.2899 9.70006 11.6333 8.04351 11.6333 6.00006C11.6333 3.95661 13.2899 2.30006 15.3333 2.30006C17.3768 2.30006 19.0333 3.95661 19.0333 6.00006Z" stroke="#EFEFF1" stroke-width="0.6"/>
</svg>
