<svg width="657" height="432" viewBox="0 0 657 432" fill="none" xmlns="http://www.w3.org/2000/svg">
<path d="M345.793 204.957H289.39L284.841 195.714H256.64V16.9993H312.131V1.87964H489.526V17.8791H656V197.497H639.631V204.957H588.232" fill="#181D28"/>
<path d="M345.793 204.957H289.39L284.841 195.714H256.64V16.9993H312.131V1.87964H489.526V17.8791H656V197.497H639.631V204.957H588.232" stroke="#0054B2" stroke-width="2" stroke-linecap="round" stroke-linejoin="round"/>
<path d="M656 57.0095H630.522V132.584H656" fill="#181D28"/>
<path d="M656 57.0095H630.522V132.584H656" stroke="#0054B2" stroke-width="2" stroke-linecap="round" stroke-linejoin="round"/>
<path d="M612.329 57.0095V132.584H584.139L564.122 118.356H312.131L296.662 109.465H275.745V57.0095H612.329Z" fill="#181D28" stroke="#0054B2" stroke-width="2" stroke-linecap="round" stroke-linejoin="round"/>
<path d="M256.64 128.139H281.205V177.932H256.64" fill="#181D28"/>
<path d="M256.64 128.139H281.205V177.932H256.64" stroke="#0054B2" stroke-width="2" stroke-linecap="round" stroke-linejoin="round"/>
<path d="M528.637 204.957H405.629" stroke="#0054B2" stroke-width="2" stroke-linecap="round" stroke-linejoin="round"/>
<path d="M281.205 169.041H350.39" stroke="#0054B2" stroke-width="2" stroke-linecap="round" stroke-linejoin="round"/>
<path d="M402.209 169.041H532.045" stroke="#0054B2" stroke-width="2" stroke-linecap="round" stroke-linejoin="round"/>
<path d="M583.864 169.041H626.179" stroke="#0054B2" stroke-width="2" stroke-linecap="round" stroke-linejoin="round"/>
<path d="M656 153.041H626.166V177.932H656" fill="#181D28"/>
<path d="M656 153.041H626.166V177.932H656" stroke="#0054B2" stroke-width="2" stroke-linecap="round" stroke-linejoin="round"/>
<path d="M376.299 222.059C357.9 222.059 342.985 207.48 342.985 189.497C342.985 171.514 357.9 156.936 376.299 156.936C394.698 156.936 409.613 171.514 409.613 189.497C409.613 207.48 394.698 222.059 376.299 222.059Z" fill="#181D28" stroke="#0054B2" stroke-width="2" stroke-linecap="round" stroke-linejoin="round"/>
<path d="M557.955 222.059C539.556 222.059 524.641 207.48 524.641 189.497C524.641 171.514 539.556 156.936 557.955 156.936C576.353 156.936 591.269 171.514 591.269 189.497C591.269 207.48 576.353 222.059 557.955 222.059Z" fill="#181D28" stroke="#0054B2" stroke-width="2" stroke-linecap="round" stroke-linejoin="round"/>
<path d="M281.205 1.87964H163.814" stroke="#0054B2" stroke-width="2" stroke-linecap="round" stroke-linejoin="round"/>
<path d="M216.617 24.3186H152.617" stroke="#0054B2" stroke-width="2" stroke-linecap="round" stroke-linejoin="round"/>
<path d="M235.818 204.957H172.611" stroke="#0054B2" stroke-width="2" stroke-linecap="round" stroke-linejoin="round"/>
<path d="M197.416 189.497H136.608" stroke="#0054B2" stroke-width="2" stroke-linecap="round" stroke-linejoin="round"/>
<path d="M222.51 114.239H167.018" stroke="#0054B2" stroke-width="2" stroke-linecap="round" stroke-linejoin="round"/>
<path d="M235.818 91.9524H179.019" stroke="#0054B2" stroke-width="2" stroke-linecap="round" stroke-linejoin="round"/>
<path d="M258.538 289.76H483.215" stroke="#0054B2" stroke-width="2" stroke-linecap="round" stroke-linejoin="round"/>
<path d="M537.374 286.247H571.035V242.403L558.892 213.038L537.374 199.923L469.42 191.175L388.885 149.954H278.332L195.878 187.437L163.286 189.929V237.406L149.867 239.898V274.426L163.286 286.247H204.379" fill="#181D28"/>
<path d="M537.374 286.247H571.035V242.403L558.892 213.038L537.374 199.923L469.42 191.175L388.885 149.954H278.332L195.878 187.437L163.286 189.929V237.406L149.867 239.898V274.426L163.286 286.247H204.379" stroke="#0054B2" stroke-width="2" stroke-linecap="round" stroke-linejoin="round"/>
<path d="M345.437 166.19V211.175H453.44L383.142 166.19H345.437Z" fill="#181D28" stroke="#0054B2" stroke-width="2" stroke-linecap="round" stroke-linejoin="round"/>
<path d="M324.986 166.19V211.175H225.277L275.126 166.19H324.986Z" fill="#181D28" stroke="#0054B2" stroke-width="2" stroke-linecap="round" stroke-linejoin="round"/>
<path d="M388.898 149.953V138.084C388.898 134.936 387.618 131.917 385.341 129.691C383.064 127.466 379.975 126.215 376.754 126.215H291.751C288.53 126.215 285.441 127.466 283.164 129.691C280.887 131.917 279.607 134.936 279.607 138.084V149.953" fill="#181D28"/>
<path d="M388.898 149.953V138.084C388.898 134.936 387.618 131.917 385.341 129.691C383.064 127.466 379.975 126.215 376.754 126.215H291.751C288.53 126.215 285.441 127.466 283.164 129.691C280.887 131.917 279.607 134.936 279.607 138.084V149.953" stroke="#0054B2" stroke-width="2" stroke-linecap="round" stroke-linejoin="round"/>
<path d="M509.359 304.253C526.213 304.253 539.875 290.899 539.875 274.425C539.875 257.952 526.213 244.598 509.359 244.598C492.505 244.598 478.843 257.952 478.843 274.425C478.843 290.899 492.505 304.253 509.359 304.253Z" fill="#181D28" stroke="#0054B2" stroke-width="2" stroke-linecap="round" stroke-linejoin="round"/>
<path d="M232.393 304.253C249.247 304.253 262.91 290.899 262.91 274.425C262.91 257.952 249.247 244.598 232.393 244.598C215.54 244.598 201.877 257.952 201.877 274.425C201.877 290.899 215.54 304.253 232.393 304.253Z" fill="#181D28" stroke="#0054B2" stroke-width="2" stroke-linecap="round" stroke-linejoin="round"/>
<path d="M258.538 133.479H99.8486" stroke="#0054B2" stroke-width="2" stroke-linecap="round" stroke-linejoin="round"/>
<path d="M179.193 159.377H69.4902" stroke="#0054B2" stroke-width="2" stroke-linecap="round" stroke-linejoin="round"/>
<path d="M119.278 274.426H84.0625" stroke="#0054B2" stroke-width="2" stroke-linecap="round" stroke-linejoin="round"/>
<path d="M119.278 229.406H62.2041" stroke="#0054B2" stroke-width="2" stroke-linecap="round" stroke-linejoin="round"/>
<path d="M197.334 416.216H422.01" stroke="#0054B2" stroke-width="2" stroke-linecap="round" stroke-linejoin="round"/>
<path d="M476.17 412.703H509.831V368.858L497.688 339.494L476.17 326.378L408.216 317.631L327.681 276.409H217.128L134.674 313.892L102.081 316.384V363.861L88.6631 366.354V400.881L102.081 412.703H143.175" fill="#181D28"/>
<path d="M476.17 412.703H509.831V368.858L497.688 339.494L476.17 326.378L408.216 317.631L327.681 276.409H217.128L134.674 313.892L102.081 316.384V363.861L88.6631 366.354V400.881L102.081 412.703H143.175" stroke="#0054B2" stroke-width="2" stroke-linecap="round" stroke-linejoin="round"/>
<path d="M284.232 292.646V337.63H392.235L321.938 292.646H284.232Z" fill="#181D28" stroke="#0054B2" stroke-width="2" stroke-linecap="round" stroke-linejoin="round"/>
<path d="M263.782 292.646V337.63H164.073L213.922 292.646H263.782Z" fill="#181D28" stroke="#0054B2" stroke-width="2" stroke-linecap="round" stroke-linejoin="round"/>
<path d="M448.155 430.708C465.009 430.708 478.671 417.354 478.671 400.881C478.671 384.408 465.009 371.053 448.155 371.053C431.301 371.053 417.639 384.408 417.639 400.881C417.639 417.354 431.301 430.708 448.155 430.708Z" fill="#181D28" stroke="#0054B2" stroke-width="2" stroke-linecap="round" stroke-linejoin="round"/>
<path d="M171.189 430.708C188.043 430.708 201.705 417.354 201.705 400.881C201.705 384.408 188.043 371.053 171.189 371.053C154.335 371.053 140.673 384.408 140.673 400.881C140.673 417.354 154.335 430.708 171.189 430.708Z" fill="#181D28" stroke="#0054B2" stroke-width="2" stroke-linecap="round" stroke-linejoin="round"/>
<path d="M197.334 259.935H38.6445" stroke="#0054B2" stroke-width="2" stroke-linecap="round" stroke-linejoin="round"/>
<path d="M117.989 285.833H8.28613" stroke="#0054B2" stroke-width="2" stroke-linecap="round" stroke-linejoin="round"/>
<path d="M58.0741 400.881H22.8584" stroke="#0054B2" stroke-width="2" stroke-linecap="round" stroke-linejoin="round"/>
<path d="M58.0738 355.861H1" stroke="#0054B2" stroke-width="2" stroke-linecap="round" stroke-linejoin="round"/>
</svg>
