<svg width="1234" height="181" viewBox="0 0 1234 181" fill="none" xmlns="http://www.w3.org/2000/svg">
<path d="M2 0.999999C2 0.447714 1.55228 -4.51669e-07 0.999999 0C0.447714 4.5167e-07 -4.51669e-07 0.447716 0 1L2 0.999999ZM6.91284e-06 1.05028C0.000158338 1.60256 0.447996 2.05015 1.00028 2.05C1.55257 2.04985 2.00016 1.60201 2.00001 1.04973L6.91284e-06 1.05028ZM2.27269 10.9373C2.24235 10.3859 1.77071 9.96343 1.21926 9.99377C0.667808 10.0241 0.245367 10.4957 0.275709 11.0472L2.27269 10.9373ZM0.281253 11.1475C0.311901 11.6989 0.783771 12.1211 1.3352 12.0904C1.88664 12.0598 2.30882 11.5879 2.27817 11.0365L0.281253 11.1475ZM3.09896 20.892C3.03793 20.3431 2.54348 19.9476 1.99458 20.0086C1.44567 20.0697 1.05018 20.5641 1.11121 21.113L3.09896 20.892ZM1.12232 21.2127C1.18366 21.7615 1.67833 22.1568 2.22719 22.0954C2.77606 22.0341 3.17128 21.5394 3.10995 20.9906L1.12232 21.2127ZM4.48055 30.7832C4.38881 30.2386 3.87294 29.8714 3.32833 29.9632C2.78372 30.0549 2.41659 30.5708 2.50833 31.1154L4.48055 30.7832ZM2.52499 31.2141C2.61703 31.7587 3.1331 32.1255 3.67766 32.0335C4.22222 31.9414 4.58906 31.4254 4.49702 30.8808L2.52499 31.2141ZM6.416 40.5794C6.29371 40.0409 5.75798 39.7034 5.2194 39.8257C4.68082 39.948 4.34335 40.4837 4.46564 41.0223L6.416 40.5794ZM4.48782 41.1198C4.6104 41.6583 5.14633 41.9955 5.68483 41.8729C6.22334 41.7503 6.56051 41.2144 6.43793 40.6759L4.48782 41.1198ZM8.90087 50.2498C8.74836 49.7189 8.19442 49.4123 7.66361 49.5648C7.1328 49.7173 6.82612 50.2712 6.97863 50.802L8.90087 50.2498ZM7.00626 50.8981C7.15907 51.4288 7.71318 51.7352 8.24391 51.5824C8.77463 51.4296 9.08099 50.8755 8.92819 50.3447L7.00626 50.8981ZM11.9279 59.7634C11.7457 59.2421 11.1753 58.9672 10.6539 59.1494C10.1326 59.3317 9.85773 59.9021 10.04 60.4234L11.9279 59.7634ZM10.073 60.5177C10.2555 61.039 10.8261 61.3135 11.3473 61.131C11.8686 60.9484 12.1431 60.3779 11.9606 59.8566L10.073 60.5177ZM15.4875 69.0904C15.2761 68.5802 14.6911 68.3379 14.1809 68.5494C13.6706 68.7608 13.4284 69.3458 13.6398 69.856L15.4875 69.0904ZM13.6781 69.9482C13.8898 70.4583 14.4749 70.7002 14.985 70.4885C15.4951 70.2768 15.737 69.6917 15.5253 69.1816L13.6781 69.9482ZM19.5676 78.2017C19.3278 77.7042 18.7301 77.4954 18.2326 77.7352C17.7351 77.975 17.5262 78.5728 17.7661 79.0702L19.5676 78.2017ZM17.8096 79.1604C18.0497 79.6578 18.6475 79.8663 19.1449 79.6262C19.6422 79.3861 19.8508 78.7883 19.6107 78.2909L17.8096 79.1604ZM24.1563 87.0723C23.8888 86.5891 23.2803 86.4142 22.7971 86.6817C22.3139 86.9491 22.139 87.5576 22.4064 88.0408L24.1563 87.0723ZM22.4549 88.1284C22.7226 88.6114 23.3312 88.786 23.8143 88.5183C24.2974 88.2506 24.4719 87.6419 24.2042 87.1589L22.4549 88.1284ZM29.2356 95.6702C28.9415 95.2028 28.3241 95.0623 27.8566 95.3565C27.3892 95.6506 27.2487 96.268 27.5429 96.7354L29.2356 95.6702ZM27.5962 96.8201C27.8906 97.2874 28.508 97.4275 28.9753 97.1331C29.4426 96.8387 29.5827 96.2212 29.2883 95.754L27.5962 96.8201ZM34.7885 103.97C34.4687 103.519 33.8444 103.414 33.3942 103.733C32.9439 104.053 32.8382 104.678 33.1581 105.128L34.7885 103.97ZM33.216 105.209C33.5361 105.659 34.1604 105.765 34.6105 105.445C35.0605 105.125 35.1659 104.5 34.8458 104.05L33.216 105.209ZM40.7967 111.945C40.4522 111.513 39.823 111.443 39.3913 111.787C38.9596 112.132 38.889 112.761 39.2335 113.193L40.7967 111.945ZM39.2958 113.271C39.6406 113.702 40.2698 113.773 40.7013 113.428C41.1328 113.083 41.2031 112.454 40.8584 112.022L39.2958 113.271ZM47.2407 119.573C46.8726 119.161 46.2405 119.126 45.8287 119.494C45.4169 119.862 45.3814 120.494 45.7495 120.906L47.2407 119.573ZM45.8161 120.98C46.1844 121.392 46.8165 121.427 47.2281 121.059C47.6397 120.691 47.6748 120.058 47.3066 119.647L45.8161 120.98ZM54.1001 126.83C53.7097 126.439 53.0765 126.439 52.6859 126.83C52.2953 127.22 52.2951 127.853 52.6855 128.244L54.1001 126.83ZM52.7562 128.315C53.1468 128.705 53.78 128.705 54.1704 128.314C54.5608 127.924 54.5607 127.29 54.17 126.9L52.7562 128.315ZM61.3534 133.694C60.9418 133.325 60.3096 133.36 59.9413 133.772C59.5731 134.184 59.6082 134.816 60.0198 135.184L61.3534 133.694ZM60.0943 135.251C60.5061 135.619 61.1382 135.583 61.5063 135.171C61.8743 134.76 61.8388 134.127 61.4271 133.759L60.0943 135.251ZM68.9777 140.142C68.5462 139.797 67.917 139.867 67.5722 140.299C67.2275 140.73 67.2978 141.36 67.7293 141.704L68.9777 140.142ZM67.8074 141.767C68.2391 142.111 68.8683 142.04 69.2128 141.609C69.5573 141.177 69.4866 140.548 69.0549 140.203L67.8074 141.767ZM76.95 146.154C76.4999 145.834 75.8756 145.94 75.5555 146.39C75.2354 146.84 75.3407 147.464 75.7908 147.784L76.95 146.154ZM75.8723 147.842C76.3226 148.162 76.9468 148.056 77.2667 147.606C77.5865 147.156 77.4808 146.531 77.0306 146.212L75.8723 147.842ZM85.2462 151.712C84.7789 151.417 84.1614 151.558 83.867 152.025C83.5726 152.492 83.7128 153.11 84.18 153.404L85.2462 151.712ZM84.2647 153.457C84.7321 153.751 85.3495 153.611 85.6436 153.143C85.9378 152.676 85.7973 152.059 85.3299 151.764L84.2647 153.457ZM93.8412 156.796C93.3582 156.528 92.7496 156.703 92.4818 157.186C92.2141 157.669 92.3887 158.277 92.8717 158.545L93.8412 156.796ZM92.9593 158.594C93.4425 158.861 94.051 158.686 94.3185 158.203C94.5859 157.72 94.411 157.111 93.9278 156.844L92.9593 158.594ZM102.709 161.389C102.212 161.149 101.614 161.358 101.374 161.855C101.134 162.353 101.342 162.95 101.84 163.19L102.709 161.389ZM101.93 163.234C102.427 163.474 103.025 163.265 103.265 162.767C103.505 162.27 103.296 161.672 102.798 161.432L101.93 163.234ZM111.819 165.475C111.308 165.263 110.723 165.505 110.512 166.015C110.3 166.525 110.542 167.11 111.052 167.322L111.819 165.475ZM111.144 167.36C111.654 167.572 112.239 167.329 112.451 166.819C112.662 166.309 112.42 165.724 111.91 165.513L111.144 167.36ZM121.144 169.039C120.622 168.857 120.052 169.131 119.869 169.653C119.687 170.174 119.961 170.745 120.482 170.927L121.144 169.039ZM120.577 170.96C121.098 171.142 121.668 170.867 121.851 170.346C122.033 169.825 121.758 169.254 121.237 169.072L120.577 170.96ZM130.655 172.072C130.125 171.919 129.571 172.225 129.418 172.756C129.265 173.287 129.571 173.841 130.102 173.994L130.655 172.072ZM130.198 174.021C130.729 174.174 131.283 173.867 131.435 173.336C131.588 172.806 131.281 172.252 130.75 172.099L130.198 174.021ZM140.324 174.562C139.786 174.44 139.25 174.777 139.127 175.315C139.005 175.854 139.342 176.39 139.88 176.512L140.324 174.562ZM139.978 176.534C140.516 176.657 141.052 176.319 141.174 175.781C141.297 175.242 140.959 174.706 140.421 174.584L139.978 176.534ZM150.119 176.503C149.575 176.411 149.059 176.778 148.967 177.322C148.875 177.867 149.241 178.383 149.786 178.475L150.119 176.503ZM149.885 178.492C150.429 178.583 150.945 178.216 151.037 177.672C151.129 177.127 150.762 176.611 150.217 176.519L149.885 178.492ZM160.01 177.89C159.461 177.829 158.966 178.224 158.905 178.773C158.843 179.322 159.239 179.816 159.787 179.878L160.01 177.89ZM159.887 179.889C160.436 179.95 160.93 179.554 160.991 179.005C161.053 178.457 160.657 177.962 160.108 177.901L159.887 179.889ZM169.964 178.722C169.412 178.691 168.94 179.113 168.91 179.665C168.879 180.216 169.301 180.688 169.853 180.719L169.964 178.722ZM169.953 180.724C170.504 180.755 170.976 180.332 171.006 179.781C171.037 179.229 170.614 178.758 170.063 178.727L169.953 180.724ZM179.95 179C179.398 179 178.95 179.447 178.95 180C178.95 180.552 179.398 181 179.95 181L179.95 179ZM180.05 181C180.602 181 181.05 180.552 181.05 180C181.05 179.448 180.602 179 180.05 179V181ZM190.045 179C189.493 179 189.045 179.448 189.045 180C189.045 180.552 189.493 181 190.045 181V179ZM190.145 181C190.698 181 191.145 180.552 191.145 180C191.145 179.448 190.698 179 190.145 179V181ZM200.141 179C199.588 179 199.141 179.448 199.141 180C199.141 180.552 199.588 181 200.141 181V179ZM200.241 181C200.793 181 201.241 180.552 201.241 180C201.241 179.448 200.793 179 200.241 179V181ZM210.236 179C209.684 179 209.236 179.448 209.236 180C209.236 180.552 209.684 181 210.236 181V179ZM210.336 181C210.888 181 211.336 180.552 211.336 180C211.336 179.448 210.888 179 210.336 179V181ZM220.331 179C219.779 179 219.331 179.448 219.331 180C219.331 180.552 219.779 181 220.331 181V179ZM220.431 181C220.983 181 221.431 180.552 221.431 180C221.431 179.448 220.983 179 220.431 179V181ZM230.426 179C229.874 179 229.426 179.448 229.426 180C229.426 180.552 229.874 181 230.426 181V179ZM230.526 181C231.079 181 231.526 180.552 231.526 180C231.526 179.448 231.079 179 230.526 179V181ZM240.522 179C239.969 179 239.522 179.448 239.522 180C239.522 180.552 239.969 181 240.522 181V179ZM240.622 181C241.174 181 241.622 180.552 241.622 180C241.622 179.448 241.174 179 240.622 179V181ZM250.617 179C250.065 179 249.617 179.448 249.617 180C249.617 180.552 250.065 181 250.617 181V179ZM250.717 181C251.269 181 251.717 180.552 251.717 180C251.717 179.448 251.269 179 250.717 179V181ZM260.712 179C260.16 179 259.712 179.448 259.712 180C259.712 180.552 260.16 181 260.712 181V179ZM260.812 181C261.364 181 261.812 180.552 261.812 180C261.812 179.448 261.364 179 260.812 179V181ZM270.807 179C270.255 179 269.807 179.448 269.807 180C269.807 180.552 270.255 181 270.807 181V179ZM270.907 181C271.46 181 271.907 180.552 271.907 180C271.907 179.448 271.46 179 270.907 179V181ZM280.903 179C280.35 179 279.903 179.448 279.903 180C279.903 180.552 280.35 181 280.903 181V179ZM281.002 181C281.555 181 282.002 180.552 282.002 180C282.002 179.448 281.555 179 281.002 179V181ZM290.998 179C290.445 179 289.998 179.448 289.998 180C289.998 180.552 290.445 181 290.998 181V179ZM291.098 181C291.65 181 292.098 180.552 292.098 180C292.098 179.448 291.65 179 291.098 179V181ZM301.093 179C300.541 179 300.093 179.448 300.093 180C300.093 180.552 300.541 181 301.093 181V179ZM301.193 181C301.745 181 302.193 180.552 302.193 180C302.193 179.448 301.745 179 301.193 179V181ZM311.188 179C310.636 179 310.188 179.448 310.188 180C310.188 180.552 310.636 181 311.188 181V179ZM311.288 181C311.84 181 312.288 180.552 312.288 180C312.288 179.448 311.84 179 311.288 179V181ZM321.283 179C320.731 179 320.283 179.448 320.283 180C320.283 180.552 320.731 181 321.283 181V179ZM321.383 181C321.936 181 322.383 180.552 322.383 180C322.383 179.448 321.936 179 321.383 179V181ZM331.379 179C330.826 179 330.379 179.448 330.379 180C330.379 180.552 330.826 181 331.379 181V179ZM331.479 181C332.031 181 332.479 180.552 332.479 180C332.479 179.448 332.031 179 331.479 179V181ZM341.474 179C340.922 179 340.474 179.448 340.474 180C340.474 180.552 340.922 181 341.474 181V179ZM341.574 181C342.126 181 342.574 180.552 342.574 180C342.574 179.448 342.126 179 341.574 179V181ZM351.569 179C351.017 179 350.569 179.448 350.569 180C350.569 180.552 351.017 181 351.569 181V179ZM351.669 181C352.221 181 352.669 180.552 352.669 180C352.669 179.448 352.221 179 351.669 179V181ZM361.664 179C361.112 179 360.664 179.448 360.664 180C360.664 180.552 361.112 181 361.664 181V179ZM361.764 181C362.317 181 362.764 180.552 362.764 180C362.764 179.448 362.317 179 361.764 179V181ZM371.76 179C371.207 179 370.76 179.448 370.76 180C370.76 180.552 371.207 181 371.76 181V179ZM371.86 181C372.412 181 372.86 180.552 372.86 180C372.86 179.448 372.412 179 371.86 179V181ZM381.855 179C381.303 179 380.855 179.448 380.855 180C380.855 180.552 381.303 181 381.855 181V179ZM381.955 181C382.507 181 382.955 180.552 382.955 180C382.955 179.448 382.507 179 381.955 179V181ZM391.95 179C391.398 179 390.95 179.448 390.95 180C390.95 180.552 391.398 181 391.95 181V179ZM392.05 181C392.602 181 393.05 180.552 393.05 180C393.05 179.448 392.602 179 392.05 179V181ZM402.045 179C401.493 179 401.045 179.448 401.045 180C401.045 180.552 401.493 181 402.045 181V179ZM402.145 181C402.698 181 403.145 180.552 403.145 180C403.145 179.448 402.698 179 402.145 179V181ZM412.141 179C411.588 179 411.141 179.448 411.141 180C411.141 180.552 411.588 181 412.141 181V179ZM412.241 181C412.793 181 413.241 180.552 413.241 180C413.241 179.448 412.793 179 412.241 179V181ZM422.236 179C421.684 179 421.236 179.448 421.236 180C421.236 180.552 421.684 181 422.236 181V179ZM422.336 181C422.888 181 423.336 180.552 423.336 180C423.336 179.448 422.888 179 422.336 179V181ZM432.331 179C431.779 179 431.331 179.448 431.331 180C431.331 180.552 431.779 181 432.331 181V179ZM432.431 181C432.983 181 433.431 180.552 433.431 180C433.431 179.448 432.983 179 432.431 179V181ZM442.426 179C441.874 179 441.426 179.448 441.426 180C441.426 180.552 441.874 181 442.426 181V179ZM442.526 181C443.079 181 443.526 180.552 443.526 180C443.526 179.448 443.079 179 442.526 179V181ZM452.522 179C451.969 179 451.522 179.448 451.522 180C451.522 180.552 451.969 181 452.522 181V179ZM452.622 181C453.174 181 453.622 180.552 453.622 180C453.622 179.448 453.174 179 452.622 179V181ZM462.617 179C462.065 179 461.617 179.448 461.617 180C461.617 180.552 462.065 181 462.617 181V179ZM462.717 181C463.269 181 463.717 180.552 463.717 180C463.717 179.448 463.269 179 462.717 179V181ZM472.712 179C472.16 179 471.712 179.448 471.712 180C471.712 180.552 472.16 181 472.712 181V179ZM472.812 181C473.364 181 473.812 180.552 473.812 180C473.812 179.448 473.364 179 472.812 179V181ZM482.807 179C482.255 179 481.807 179.448 481.807 180C481.807 180.552 482.255 181 482.807 181V179ZM482.907 181C483.459 181 483.907 180.552 483.907 180C483.907 179.448 483.459 179 482.907 179V181ZM492.902 179C492.35 179 491.902 179.448 491.902 180C491.902 180.552 492.35 181 492.902 181V179ZM493.002 181C493.555 181 494.002 180.552 494.002 180C494.002 179.448 493.555 179 493.002 179V181ZM502.998 179C502.445 179 501.998 179.448 501.998 180C501.998 180.552 502.445 181 502.998 181V179ZM503.098 181C503.65 181 504.098 180.552 504.098 180C504.098 179.448 503.65 179 503.098 179V181ZM513.093 179C512.541 179 512.093 179.448 512.093 180C512.093 180.552 512.541 181 513.093 181V179ZM513.193 181C513.745 181 514.193 180.552 514.193 180C514.193 179.448 513.745 179 513.193 179V181ZM523.188 179C522.636 179 522.188 179.448 522.188 180C522.188 180.552 522.636 181 523.188 181V179ZM523.288 181C523.84 181 524.288 180.552 524.288 180C524.288 179.448 523.84 179 523.288 179V181ZM533.283 179C532.731 179 532.283 179.448 532.283 180C532.283 180.552 532.731 181 533.283 181V179ZM533.383 181C533.936 181 534.383 180.552 534.383 180C534.383 179.448 533.936 179 533.383 179V181ZM543.379 179C542.826 179 542.379 179.448 542.379 180C542.379 180.552 542.826 181 543.379 181V179ZM543.478 181C544.031 181 544.478 180.552 544.478 180C544.478 179.448 544.031 179 543.478 179V181ZM553.474 179C552.921 179 552.474 179.448 552.474 180C552.474 180.552 552.921 181 553.474 181V179ZM553.574 181C554.126 181 554.574 180.552 554.574 180C554.574 179.448 554.126 179 553.574 179V181ZM563.569 179C563.017 179 562.569 179.448 562.569 180C562.569 180.552 563.017 181 563.569 181V179ZM563.669 181C564.221 181 564.669 180.552 564.669 180C564.669 179.448 564.221 179 563.669 179V181ZM573.664 179C573.112 179 572.664 179.448 572.664 180C572.664 180.552 573.112 181 573.664 181V179ZM573.764 181C574.316 181 574.764 180.552 574.764 180C574.764 179.448 574.316 179 573.764 179V181ZM583.759 179C583.207 179 582.759 179.448 582.759 180C582.759 180.552 583.207 181 583.759 181V179ZM583.859 181C584.412 181 584.859 180.552 584.859 180C584.859 179.448 584.412 179 583.859 179V181ZM593.855 179C593.302 179 592.855 179.448 592.855 180C592.855 180.552 593.302 181 593.855 181V179ZM593.955 181C594.507 181 594.955 180.552 594.955 180C594.955 179.448 594.507 179 593.955 179V181ZM603.95 179C603.398 179 602.95 179.448 602.95 180C602.95 180.552 603.398 181 603.95 181V179ZM604.05 181C604.602 181 605.05 180.552 605.05 180C605.05 179.448 604.602 179 604.05 179V181ZM614.045 179C613.493 179 613.045 179.448 613.045 180C613.045 180.552 613.493 181 614.045 181V179ZM614.145 181C614.697 181 615.145 180.552 615.145 180C615.145 179.448 614.697 179 614.145 179V181ZM624.14 179C623.588 179 623.14 179.448 623.14 180C623.14 180.552 623.588 181 624.14 181V179ZM624.24 181C624.793 181 625.24 180.552 625.24 180C625.24 179.448 624.793 179 624.24 179V181ZM634.235 179C633.683 179 633.235 179.448 633.235 180C633.235 180.552 633.683 181 634.235 181V179ZM634.335 181C634.888 181 635.335 180.552 635.335 180C635.335 179.448 634.888 179 634.335 179V181ZM644.331 179C643.778 179 643.331 179.448 643.331 180C643.331 180.552 643.778 181 644.331 181V179ZM644.431 181C644.983 181 645.431 180.552 645.431 180C645.431 179.448 644.983 179 644.431 179V181ZM654.426 179C653.874 179 653.426 179.448 653.426 180C653.426 180.552 653.874 181 654.426 181V179ZM654.526 181C655.078 181 655.526 180.552 655.526 180C655.526 179.448 655.078 179 654.526 179V181ZM664.521 179C663.969 179 663.521 179.448 663.521 180C663.521 180.552 663.969 181 664.521 181V179ZM664.621 181C665.173 181 665.621 180.552 665.621 180C665.621 179.448 665.173 179 664.621 179V181ZM674.616 179C674.064 179 673.616 179.448 673.616 180C673.616 180.552 674.064 181 674.616 181V179ZM674.716 181C675.269 181 675.716 180.552 675.716 180C675.716 179.448 675.269 179 674.716 179V181ZM684.712 179C684.159 179 683.712 179.448 683.712 180C683.712 180.552 684.159 181 684.712 181V179ZM684.812 181C685.364 181 685.812 180.552 685.812 180C685.812 179.448 685.364 179 684.812 179V181ZM694.807 179C694.255 179 693.807 179.448 693.807 180C693.807 180.552 694.255 181 694.807 181V179ZM694.907 181C695.459 181 695.907 180.552 695.907 180C695.907 179.448 695.459 179 694.907 179V181ZM704.902 179C704.35 179 703.902 179.448 703.902 180C703.902 180.552 704.35 181 704.902 181V179ZM705.002 181C705.554 181 706.002 180.552 706.002 180C706.002 179.448 705.554 179 705.002 179V181ZM714.997 179C714.445 179 713.997 179.448 713.997 180C713.997 180.552 714.445 181 714.997 181V179ZM715.097 181C715.65 181 716.097 180.552 716.097 180C716.097 179.448 715.65 179 715.097 179V181ZM725.093 179C724.54 179 724.093 179.448 724.093 180C724.093 180.552 724.54 181 725.093 181V179ZM725.193 181C725.745 181 726.193 180.552 726.193 180C726.193 179.448 725.745 179 725.193 179V181ZM735.188 179C734.636 179 734.188 179.448 734.188 180C734.188 180.552 734.636 181 735.188 181V179ZM735.288 181C735.84 181 736.288 180.552 736.288 180C736.288 179.448 735.84 179 735.288 179V181ZM745.283 179C744.731 179 744.283 179.448 744.283 180C744.283 180.552 744.731 181 745.283 181V179ZM745.383 181C745.935 181 746.383 180.552 746.383 180C746.383 179.448 745.935 179 745.383 179V181ZM755.378 179C754.826 179 754.378 179.448 754.378 180C754.378 180.552 754.826 181 755.378 181V179ZM755.478 181C756.031 181 756.478 180.552 756.478 180C756.478 179.448 756.031 179 755.478 179V181ZM765.474 179C764.921 179 764.474 179.448 764.474 180C764.474 180.552 764.921 181 765.474 181V179ZM765.574 181C766.126 181 766.574 180.552 766.574 180C766.574 179.448 766.126 179 765.574 179V181ZM775.569 179C775.017 179 774.569 179.448 774.569 180C774.569 180.552 775.017 181 775.569 181V179ZM775.669 181C776.221 181 776.669 180.552 776.669 180C776.669 179.448 776.221 179 775.669 179V181ZM785.664 179C785.112 179 784.664 179.448 784.664 180C784.664 180.552 785.112 181 785.664 181V179ZM785.764 181C786.317 181 786.764 180.552 786.764 180C786.764 179.448 786.317 179 785.764 179V181ZM795.76 179C795.207 179 794.76 179.448 794.76 180C794.76 180.552 795.207 181 795.76 181V179ZM795.86 181C796.412 181 796.86 180.552 796.86 180C796.86 179.448 796.412 179 795.86 179V181ZM805.855 179C805.303 179 804.855 179.448 804.855 180C804.855 180.552 805.303 181 805.855 181V179ZM805.955 181C806.507 181 806.955 180.552 806.955 180C806.955 179.448 806.507 179 805.955 179V181ZM815.95 179C815.398 179 814.95 179.448 814.95 180C814.95 180.552 815.398 181 815.95 181V179ZM816.05 181C816.602 181 817.05 180.552 817.05 180C817.05 179.448 816.602 179 816.05 179V181ZM826.045 179C825.493 179 825.045 179.448 825.045 180C825.045 180.552 825.493 181 826.045 181V179ZM826.145 181C826.698 181 827.145 180.552 827.145 180C827.145 179.448 826.698 179 826.145 179V181ZM836.141 179C835.588 179 835.141 179.448 835.141 180C835.141 180.552 835.588 181 836.141 181V179ZM836.241 181C836.793 181 837.241 180.552 837.241 180C837.241 179.448 836.793 179 836.241 179V181ZM846.236 179C845.684 179 845.236 179.448 845.236 180C845.236 180.552 845.684 181 846.236 181V179ZM846.336 181C846.888 181 847.336 180.552 847.336 180C847.336 179.448 846.888 179 846.336 179V181ZM856.331 179C855.779 179 855.331 179.448 855.331 180C855.331 180.552 855.779 181 856.331 181V179ZM856.431 181C856.983 181 857.431 180.552 857.431 180C857.431 179.448 856.983 179 856.431 179V181ZM866.427 179C865.874 179 865.427 179.448 865.427 180C865.427 180.552 865.874 181 866.427 181V179ZM866.526 181C867.079 181 867.526 180.552 867.526 180C867.526 179.448 867.079 179 866.526 179V181ZM876.522 179C875.969 179 875.522 179.448 875.522 180C875.522 180.552 875.969 181 876.522 181V179ZM876.622 181C877.174 181 877.622 180.552 877.622 180C877.622 179.448 877.174 179 876.622 179V181ZM886.617 179C886.065 179 885.617 179.448 885.617 180C885.617 180.552 886.065 181 886.617 181V179ZM886.717 181C887.269 181 887.717 180.552 887.717 180C887.717 179.448 887.269 179 886.717 179V181ZM896.712 179C896.16 179 895.712 179.448 895.712 180C895.712 180.552 896.16 181 896.712 181V179ZM896.812 181C897.365 181 897.812 180.552 897.812 180C897.812 179.448 897.365 179 896.812 179V181ZM906.808 179C906.255 179 905.808 179.448 905.808 180C905.808 180.552 906.255 181 906.808 181V179ZM906.908 181C907.46 181 907.908 180.552 907.908 180C907.908 179.448 907.46 179 906.908 179V181ZM916.903 179C916.351 179 915.903 179.448 915.903 180C915.903 180.552 916.351 181 916.903 181V179ZM917.003 181C917.555 181 918.003 180.552 918.003 180C918.003 179.448 917.555 179 917.003 179V181ZM926.998 179C926.446 179 925.998 179.448 925.998 180C925.998 180.552 926.446 181 926.998 181V179ZM927.098 181C927.65 181 928.098 180.552 928.098 180C928.098 179.448 927.65 179 927.098 179V181ZM937.093 179C936.541 179 936.093 179.448 936.093 180C936.093 180.552 936.541 181 937.093 181V179ZM937.193 181C937.746 181 938.193 180.552 938.193 180C938.193 179.448 937.746 179 937.193 179V181ZM947.189 179C946.636 179 946.189 179.448 946.189 180C946.189 180.552 946.636 181 947.189 181V179ZM947.289 181C947.841 181 948.289 180.552 948.289 180C948.289 179.448 947.841 179 947.289 179V181ZM957.284 179C956.732 179 956.284 179.448 956.284 180C956.284 180.552 956.732 181 957.284 181V179ZM957.384 181C957.936 181 958.384 180.552 958.384 180C958.384 179.448 957.936 179 957.384 179V181ZM967.379 179C966.827 179 966.379 179.448 966.379 180C966.379 180.552 966.827 181 967.379 181V179ZM967.479 181C968.031 181 968.479 180.552 968.479 180C968.479 179.448 968.031 179 967.479 179V181ZM977.475 179C976.922 179 976.475 179.448 976.475 180C976.475 180.552 976.922 181 977.475 181V179ZM977.575 181C978.127 181 978.575 180.552 978.575 180C978.575 179.448 978.127 179 977.575 179V181ZM987.57 179C987.018 179 986.57 179.448 986.57 180C986.57 180.552 987.018 181 987.57 181V179ZM987.67 181C988.222 181 988.67 180.552 988.67 180C988.67 179.448 988.222 179 987.67 179V181ZM997.665 179C997.113 179 996.665 179.448 996.665 180C996.665 180.552 997.113 181 997.665 181V179ZM997.765 181C998.317 181 998.765 180.552 998.765 180C998.765 179.448 998.317 179 997.765 179V181ZM1007.76 179C1007.21 179 1006.76 179.448 1006.76 180C1006.76 180.552 1007.21 181 1007.76 181V179ZM1007.86 181C1008.41 181 1008.86 180.552 1008.86 180C1008.86 179.448 1008.41 179 1007.86 179V181ZM1017.86 179C1017.3 179 1016.86 179.448 1016.86 180C1016.86 180.552 1017.3 181 1017.86 181V179ZM1017.96 181C1018.51 181 1018.96 180.552 1018.96 180C1018.96 179.448 1018.51 179 1017.96 179V181ZM1027.95 179C1027.4 179 1026.95 179.448 1026.95 180C1026.95 180.552 1027.4 181 1027.95 181V179ZM1028.05 181C1028.6 181 1029.05 180.552 1029.05 180C1029.05 179.448 1028.6 179 1028.05 179V181ZM1038.05 179C1037.49 179 1037.05 179.448 1037.05 180C1037.05 180.552 1037.49 181 1038.05 181V179ZM1038.15 181C1038.7 181 1039.15 180.552 1039.15 180C1039.15 179.448 1038.7 179 1038.15 179V181ZM1048.14 179C1047.59 179 1047.14 179.448 1047.14 180C1047.14 180.552 1047.59 181 1048.14 181V179ZM1048.24 181C1048.79 181 1049.24 180.552 1049.24 180C1049.24 179.448 1048.79 179 1048.24 179V181ZM1058.24 179C1057.68 179 1057.24 179.448 1057.24 180C1057.24 180.552 1057.68 181 1058.24 181V179ZM1058.34 181C1058.89 181 1059.34 180.552 1059.34 180C1059.34 179.448 1058.89 179 1058.34 179V181ZM1068.33 179C1067.78 179 1067.33 179.448 1067.33 180C1067.33 180.552 1067.78 181 1068.33 181V179ZM1068.43 181C1068.98 181 1069.43 180.552 1069.43 180C1069.43 179.448 1068.98 179 1068.43 179V181ZM1078.43 179C1077.88 179 1077.43 179.448 1077.43 180C1077.43 180.552 1077.88 181 1078.43 181V179ZM1078.53 181C1079.08 181 1079.53 180.552 1079.53 180C1079.53 179.448 1079.08 179 1078.53 179V181ZM1088.52 179C1087.97 179 1087.52 179.448 1087.52 180C1087.52 180.552 1087.97 181 1088.52 181V179ZM1088.62 181C1089.17 181 1089.62 180.552 1089.62 180C1089.62 179.448 1089.17 179 1088.62 179V181ZM1098.62 179C1098.07 179 1097.62 179.448 1097.62 180C1097.62 180.552 1098.07 181 1098.62 181V179ZM1098.72 181C1099.27 181 1099.72 180.552 1099.72 180C1099.72 179.448 1099.27 179 1098.72 179V181ZM1108.71 179C1108.16 179 1107.71 179.448 1107.71 180C1107.71 180.552 1108.16 181 1108.71 181V179ZM1108.81 181C1109.37 181 1109.81 180.552 1109.81 180C1109.81 179.448 1109.37 179 1108.81 179V181ZM1118.81 179C1118.26 179 1117.81 179.448 1117.81 180C1117.81 180.552 1118.26 181 1118.81 181V179ZM1118.91 181C1119.46 181 1119.91 180.552 1119.91 180C1119.91 179.448 1119.46 179 1118.91 179V181ZM1128.9 179C1128.35 179 1127.9 179.448 1127.9 180C1127.9 180.552 1128.35 181 1128.9 181V179ZM1129 181C1129.56 181 1130 180.552 1130 180C1130 179.448 1129.56 179 1129 179V181ZM1139 179C1138.45 179 1138 179.448 1138 180C1138 180.552 1138.45 181 1139 181V179ZM1139.1 181C1139.65 181 1140.1 180.552 1140.1 180C1140.1 179.448 1139.65 179 1139.1 179V181ZM1149.09 179C1148.54 179 1148.09 179.448 1148.09 180C1148.09 180.552 1148.54 181 1149.09 181V179ZM1149.19 181C1149.75 181 1150.19 180.552 1150.19 180C1150.19 179.448 1149.75 179 1149.19 179V181ZM1159.19 179C1158.64 179 1158.19 179.448 1158.19 180C1158.19 180.552 1158.64 181 1159.19 181V179ZM1159.29 181C1159.84 181 1160.29 180.552 1160.29 180C1160.29 179.448 1159.84 179 1159.29 179V181ZM1169.28 179C1168.73 179 1168.28 179.448 1168.28 180C1168.28 180.552 1168.73 181 1169.28 181V179ZM1169.38 181C1169.94 181 1170.38 180.552 1170.38 180C1170.38 179.448 1169.94 179 1169.38 179V181ZM1179.38 179C1178.83 179 1178.38 179.448 1178.38 180C1178.38 180.552 1178.83 181 1179.38 181V179ZM1179.48 181C1180.03 181 1180.48 180.552 1180.48 180C1180.48 179.448 1180.03 179 1179.48 179V181ZM1189.48 179C1188.92 179 1188.48 179.448 1188.48 180C1188.48 180.552 1188.92 181 1189.48 181V179ZM1189.58 181C1190.13 181 1190.58 180.552 1190.58 180C1190.58 179.448 1190.13 179 1189.58 179V181ZM1199.57 179C1199.02 179 1198.57 179.448 1198.57 180C1198.57 180.552 1199.02 181 1199.57 181V179ZM1199.67 181C1200.22 181 1200.67 180.552 1200.67 180C1200.67 179.448 1200.22 179 1199.67 179V181ZM1209.67 179C1209.11 179 1208.67 179.448 1208.67 180C1208.67 180.552 1209.11 181 1209.67 181V179ZM1209.77 181C1210.32 181 1210.77 180.552 1210.77 180C1210.77 179.448 1210.32 179 1209.77 179V181ZM1219.76 179C1219.21 179 1218.76 179.448 1218.76 180C1218.76 180.552 1219.21 181 1219.76 181V179ZM1219.86 181C1220.41 181 1220.86 180.552 1220.86 180C1220.86 179.448 1220.41 179 1219.86 179V181ZM1229.86 179C1229.3 179 1228.86 179.448 1228.86 180C1228.86 180.552 1229.3 181 1229.86 181V179ZM1229.96 181C1230.51 181 1230.96 180.552 1230.96 180C1230.96 179.448 1230.51 179 1229.96 179V181ZM1239.95 179C1239.4 179 1238.95 179.448 1238.95 180C1238.95 180.552 1239.4 181 1239.95 181V179ZM0 1C1.37064e-08 1.01676 2.31808e-06 1.03352 6.91284e-06 1.05028L2.00001 1.04973C2 1.03315 2 1.01658 2 0.999999L0 1ZM0.275709 11.0472C0.277548 11.0806 0.279396 11.114 0.281253 11.1475L2.27817 11.0365C2.27634 11.0034 2.27451 10.9704 2.27269 10.9373L0.275709 11.0472ZM1.11121 21.113C1.1149 21.1462 1.11861 21.1795 1.12232 21.2127L3.10995 20.9906C3.10627 20.9577 3.10261 20.9249 3.09896 20.892L1.11121 21.113ZM2.50833 31.1154C2.51388 31.1483 2.51943 31.1812 2.52499 31.2141L4.49702 30.8808C4.49152 30.8483 4.48603 30.8157 4.48055 30.7832L2.50833 31.1154ZM4.46564 41.0223C4.47302 41.0548 4.48041 41.0873 4.48782 41.1198L6.43793 40.6759C6.43061 40.6438 6.4233 40.6116 6.416 40.5794L4.46564 41.0223ZM6.97863 50.802C6.98784 50.8341 6.99705 50.8661 7.00626 50.8981L8.92819 50.3447C8.91907 50.3131 8.90996 50.2814 8.90087 50.2498L6.97863 50.802ZM10.04 60.4234C10.051 60.4549 10.062 60.4863 10.073 60.5177L11.9606 59.8566C11.9497 59.8256 11.9388 59.7945 11.9279 59.7634L10.04 60.4234ZM13.6398 69.856C13.6526 69.8867 13.6653 69.9175 13.6781 69.9482L15.5253 69.1816C15.5127 69.1512 15.5001 69.1208 15.4875 69.0904L13.6398 69.856ZM17.7661 79.0702C17.7806 79.1003 17.7951 79.1304 17.8096 79.1604L19.6107 78.2909C19.5963 78.2612 19.582 78.2314 19.5676 78.2017L17.7661 79.0702ZM22.4064 88.0408C22.4226 88.07 22.4387 88.0992 22.4549 88.1284L24.2042 87.1589C24.1882 87.13 24.1722 87.1012 24.1563 87.0723L22.4064 88.0408ZM27.5429 96.7354C27.5606 96.7637 27.5784 96.7919 27.5962 96.8201L29.2883 95.754C29.2707 95.7261 29.2532 95.6982 29.2356 95.6702L27.5429 96.7354ZM33.1581 105.128C33.1774 105.155 33.1967 105.182 33.216 105.209L34.8458 104.05C34.8267 104.023 34.8076 103.996 34.7885 103.97L33.1581 105.128ZM39.2335 113.193C39.2542 113.219 39.275 113.245 39.2958 113.271L40.8584 112.022C40.8378 111.997 40.8172 111.971 40.7967 111.945L39.2335 113.193ZM45.7495 120.906C45.7717 120.931 45.7939 120.956 45.8161 120.98L47.3066 119.647C47.2846 119.622 47.2626 119.598 47.2407 119.573L45.7495 120.906ZM52.6855 128.244C52.7091 128.267 52.7326 128.291 52.7562 128.315L54.17 126.9C54.1467 126.877 54.1234 126.853 54.1001 126.83L52.6855 128.244ZM60.0198 135.184C60.0446 135.206 60.0694 135.228 60.0943 135.251L61.4271 133.759C61.4025 133.737 61.3779 133.716 61.3534 133.694L60.0198 135.184ZM67.7293 141.704C67.7553 141.725 67.7814 141.746 67.8074 141.767L69.0549 140.203C69.0292 140.183 69.0034 140.162 68.9777 140.142L67.7293 141.704ZM75.7908 147.784C75.818 147.803 75.8451 147.823 75.8723 147.842L77.0306 146.212C77.0037 146.192 76.9768 146.173 76.95 146.154L75.7908 147.784ZM84.18 153.404C84.2082 153.422 84.2365 153.439 84.2647 153.457L85.3299 151.764C85.302 151.747 85.2741 151.729 85.2462 151.712L84.18 153.404ZM92.8717 158.545C92.9009 158.561 92.9301 158.578 92.9593 158.594L93.9278 156.844C93.8989 156.828 93.8701 156.812 93.8412 156.796L92.8717 158.545ZM101.84 163.19C101.87 163.205 101.9 163.22 101.93 163.234L102.798 161.432C102.769 161.418 102.739 161.404 102.709 161.389L101.84 163.19ZM111.052 167.322C111.083 167.335 111.113 167.348 111.144 167.36L111.91 165.513C111.879 165.5 111.849 165.487 111.819 165.475L111.052 167.322ZM120.482 170.927C120.514 170.938 120.545 170.949 120.577 170.96L121.237 169.072C121.206 169.061 121.175 169.05 121.144 169.039L120.482 170.927ZM130.102 173.994C130.134 174.003 130.166 174.012 130.198 174.021L130.75 172.099C130.719 172.09 130.687 172.081 130.655 172.072L130.102 173.994ZM139.88 176.512C139.913 176.52 139.945 176.527 139.978 176.534L140.421 174.584C140.389 174.577 140.356 174.569 140.324 174.562L139.88 176.512ZM149.786 178.475C149.819 178.481 149.852 178.486 149.885 178.492L150.217 176.519C150.184 176.514 150.152 176.509 150.119 176.503L149.786 178.475ZM159.787 179.878C159.821 179.881 159.854 179.885 159.887 179.889L160.108 177.901C160.075 177.897 160.042 177.894 160.01 177.89L159.787 179.878ZM169.853 180.719C169.886 180.721 169.92 180.722 169.953 180.724L170.063 178.727C170.03 178.726 169.997 178.724 169.964 178.722L169.853 180.719ZM179.95 181C179.967 181 179.983 181 180 181V179C179.984 179 179.967 179 179.95 179L179.95 181ZM180 181H180.05V179H180V181ZM190.045 181H190.145V179H190.045V181ZM200.141 181H200.241V179H200.141V181ZM210.236 181H210.336V179H210.236V181ZM220.331 181H220.431V179H220.331V181ZM230.426 181H230.526V179H230.426V181ZM240.522 181H240.622V179H240.522V181ZM250.617 181H250.717V179H250.617V181ZM260.712 181H260.812V179H260.712V181ZM270.807 181H270.907V179H270.807V181ZM280.903 181H281.002V179H280.903V181ZM290.998 181H291.098V179H290.998V181ZM301.093 181H301.193V179H301.093V181ZM311.188 181H311.288V179H311.188V181ZM321.283 181H321.383V179H321.283V181ZM331.379 181H331.479V179H331.379V181ZM341.474 181H341.574V179H341.474V181ZM351.569 181H351.669V179H351.569V181ZM361.664 181H361.764V179H361.664V181ZM371.76 181H371.86V179H371.76V181ZM381.855 181H381.955V179H381.855V181ZM391.95 181H392.05V179H391.95V181ZM402.045 181H402.145V179H402.045V181ZM412.141 181H412.241V179H412.141V181ZM422.236 181H422.336V179H422.236V181ZM432.331 181H432.431V179H432.331V181ZM442.426 181H442.526V179H442.426V181ZM452.522 181H452.622V179H452.522V181ZM462.617 181H462.717V179H462.617V181ZM472.712 181H472.812V179H472.712V181ZM482.807 181H482.907V179H482.807V181ZM492.902 181H493.002V179H492.902V181ZM502.998 181H503.098V179H502.998V181ZM513.093 181H513.193V179H513.093V181ZM523.188 181H523.288V179H523.188V181ZM533.283 181H533.383V179H533.283V181ZM543.379 181H543.478V179H543.379V181ZM553.474 181H553.574V179H553.474V181ZM563.569 181H563.669V179H563.569V181ZM573.664 181H573.764V179H573.664V181ZM583.759 181H583.859V179H583.759V181ZM593.855 181H593.955V179H593.855V181ZM603.95 181H604.05V179H603.95V181ZM614.045 181H614.145V179H614.045V181ZM624.14 181H624.24V179H624.14V181ZM634.235 181H634.335V179H634.235V181ZM644.331 181H644.431V179H644.331V181ZM654.426 181H654.526V179H654.426V181ZM664.521 181H664.621V179H664.521V181ZM674.616 181H674.716V179H674.616V181ZM684.712 181H684.812V179H684.712V181ZM694.807 181H694.907V179H694.807V181ZM704.902 181H705.002V179H704.902V181ZM714.997 181H715.097V179H714.997V181ZM725.093 181H725.193V179H725.093V181ZM735.188 181H735.288V179H735.188V181ZM745.283 181H745.383V179H745.283V181ZM755.378 181H755.478V179H755.378V181ZM765.474 181H765.574V179H765.474V181ZM775.569 181H775.669V179H775.569V181ZM785.664 181H785.764V179H785.664V181ZM795.76 181H795.86V179H795.76V181ZM805.855 181H805.955V179H805.855V181ZM815.95 181H816.05V179H815.95V181ZM826.045 181H826.145V179H826.045V181ZM836.141 181H836.241V179H836.141V181ZM846.236 181H846.336V179H846.236V181ZM856.331 181H856.431V179H856.331V181ZM866.427 181H866.526V179H866.427V181ZM876.522 181H876.622V179H876.522V181ZM886.617 181H886.717V179H886.617V181ZM896.712 181H896.812V179H896.712V181ZM906.808 181H906.908V179H906.808V181ZM916.903 181H917.003V179H916.903V181ZM926.998 181H927.098V179H926.998V181ZM937.093 181H937.193V179H937.093V181ZM947.189 181H947.289V179H947.189V181ZM957.284 181H957.384V179H957.284V181ZM967.379 181H967.479V179H967.379V181ZM977.475 181H977.575V179H977.475V181ZM987.57 181H987.67V179H987.57V181ZM997.665 181H997.765V179H997.665V181ZM1007.76 181H1007.86V179H1007.76V181ZM1017.86 181H1017.96V179H1017.86V181ZM1027.95 181H1028.05V179H1027.95V181ZM1038.05 181H1038.15V179H1038.05V181ZM1048.14 181H1048.24V179H1048.14V181ZM1058.24 181H1058.34V179H1058.24V181ZM1068.33 181H1068.43V179H1068.33V181ZM1078.43 181H1078.53V179H1078.43V181ZM1088.52 181H1088.62V179H1088.52V181ZM1098.62 181H1098.72V179H1098.62V181ZM1108.71 181H1108.81V179H1108.71V181ZM1118.81 181H1118.91V179H1118.81V181ZM1128.9 181H1129V179H1128.9V181ZM1139 181H1139.1V179H1139V181ZM1149.09 181H1149.19V179H1149.09V181ZM1159.19 181H1159.29V179H1159.19V181ZM1169.28 181H1169.38V179H1169.28V181ZM1179.38 181H1179.48V179H1179.38V181ZM1189.48 181H1189.58V179H1189.48V181ZM1199.57 181H1199.67V179H1199.57V181ZM1209.67 181H1209.77V179H1209.67V181ZM1219.76 181H1219.86V179H1219.76V181ZM1229.86 181H1229.96V179H1229.86V181ZM1239.95 181H1240V179H1239.95V181Z" fill="#057ADD"/>
</svg>
