<svg id="Final_Illustrations_copy" data-name="Final Illustrations copy" xmlns="http://www.w3.org/2000/svg" viewBox="0 0 2000 2000"><defs><style>.cls-1{fill:none;}.cls-1,.cls-2,.cls-3{stroke:#057adc;stroke-miterlimit:10;}.cls-1,.cls-2{stroke-width:2px;}.cls-2,.cls-3{fill:#181d28;}</style></defs><polygon class="cls-1" points="898.15 454.54 921.57 441.02 944.98 454.54 921.57 468.06 898.15 454.54"/><polyline class="cls-1" points="991.8 806.07 944.98 643.86 944.98 454.54 921.57 427.5 898.15 454.54 898.15 643.86 851.33 806.07"/><line class="cls-1" x1="921.57" y1="427.5" x2="921.57" y2="846.62"/><polygon class="cls-1" points="898.15 481.65 921.57 468.13 944.98 481.65 921.57 495.17 898.15 481.65"/><polygon class="cls-1" points="898.15 643.86 921.57 630.34 944.98 643.86 921.57 657.38 898.15 643.86"/><polygon class="cls-1" points="898.15 508.69 921.57 495.17 944.98 508.69 921.57 522.2 898.15 508.69"/><polygon class="cls-1" points="898.15 535.88 921.57 522.36 944.98 535.88 921.57 549.4 898.15 535.88"/><polygon class="cls-1" points="898.15 562.76 921.57 549.24 944.98 562.76 921.57 576.27 898.15 562.76"/><polygon class="cls-1" points="898.15 589.79 921.57 576.27 944.98 589.79 921.57 603.31 898.15 589.79"/><polygon class="cls-1" points="898.15 616.83 921.57 603.31 944.98 616.83 921.57 630.34 898.15 616.83"/><polygon class="cls-1" points="921.57 657.38 888.4 677.66 921.57 697.93 954.73 677.66 921.57 657.38"/><polygon class="cls-1" points="944.98 481.65 933.27 461.3 921.57 495.17 909.73 461.3 898.15 481.65 909.86 447.86 921.57 468.13 933.27 447.78 944.98 481.65"/><polygon class="cls-1" points="944.98 508.69 933.27 488.33 921.57 522.2 909.73 488.33 898.15 508.69 909.86 474.89 921.57 495.17 933.27 474.81 944.98 508.69"/><polygon class="cls-1" points="944.98 535.76 933.27 515.41 921.57 549.28 909.73 515.41 898.15 535.76 909.86 501.97 921.57 522.24 933.27 501.89 944.98 535.76"/><polygon class="cls-1" points="944.98 562.8 933.27 542.44 921.57 576.31 909.73 542.44 898.15 562.8 909.86 529 921.57 549.28 933.27 528.92 944.98 562.8"/><polygon class="cls-1" points="944.98 589.83 933.27 569.48 921.57 603.35 909.73 569.48 898.15 589.83 909.86 556.04 921.57 576.31 933.27 555.96 944.98 589.83"/><polygon class="cls-1" points="944.98 616.87 933.27 596.51 921.57 630.38 909.73 596.51 898.15 616.87 909.86 583.07 921.57 603.35 933.27 582.99 944.98 616.87"/><polygon class="cls-1" points="944.98 643.9 933.27 623.55 921.57 657.42 909.73 623.55 898.15 643.9 909.86 610.11 921.57 630.38 933.27 610.03 944.98 643.9"/><polygon class="cls-1" points="921.57 697.93 874.74 724.97 921.57 752 968.39 724.97 921.57 697.93"/><polygon class="cls-1" points="954.73 677.66 933.27 650.62 921.57 697.93 909.86 650.62 888.4 677.66 909.93 637.06 921.57 657.42 933.34 637.06 954.73 677.66"/><polygon class="cls-1" points="968.39 724.97 939.12 687.79 921.57 752 904.01 687.79 874.74 724.97 905.01 667.5 921.57 697.93 938.12 667.5 968.39 724.97"/><polygon class="cls-1" points="988.46 794.49 944.98 738.48 921.57 833.11 898.15 738.48 854.68 794.49 898.15 711.45 921.57 752 944.98 711.45 988.46 794.49"/><polyline class="cls-1" points="839.63 805.51 839.63 807.29 851.33 814.05 863.04 807.29 863.04 805.51"/><polygon class="cls-1" points="851.33 798.75 839.63 805.51 839.63 805.51 851.33 812.27 863.04 805.51 863.04 805.51 851.33 798.75"/><line class="cls-1" x1="851.33" y1="814.05" x2="851.33" y2="812.27"/><polyline class="cls-1" points="980.09 805.18 980.09 806.96 991.8 813.72 1003.5 806.96 1003.5 805.18"/><polygon class="cls-1" points="991.8 798.43 980.1 805.18 980.1 805.19 991.8 811.94 1003.5 805.19 1003.5 805.18 991.8 798.43"/><line class="cls-1" x1="991.8" y1="813.72" x2="991.8" y2="811.94"/><polyline class="cls-1" points="909.86 845.74 909.86 847.51 921.57 854.27 933.27 847.51 933.27 845.74"/><polygon class="cls-1" points="921.57 838.98 909.86 845.74 909.86 845.74 921.57 852.5 933.27 845.74 933.27 845.74 921.57 838.98"/><line class="cls-1" x1="921.57" y1="854.27" x2="921.57" y2="852.5"/><polyline class="cls-1" points="909.86 765.14 909.86 766.91 921.57 773.67 933.27 766.91 933.27 765.14"/><polygon class="cls-1" points="921.57 758.38 909.86 765.14 909.86 765.14 921.57 771.9 933.27 765.14 933.27 765.14 921.57 758.38"/><line class="cls-1" x1="921.57" y1="773.67" x2="921.57" y2="771.9"/><polyline class="cls-1" points="874.74 508.69 921.57 495.17 944.98 481.65 968.52 454.55 968.51 454.54 874.75 508.68 874.75 508.68 898.15 481.65 921.57 468.13 968.52 454.54"/><line class="cls-1" x1="968.52" y1="454.54" x2="968.52" y2="468.06"/><line class="cls-1" x1="874.74" y1="522.36" x2="874.75" y2="508.68"/><polyline class="cls-1" points="874.68 616.71 921.5 603.19 944.91 589.67 968.45 562.57 968.45 562.57 874.69 616.7 874.68 616.7 898.09 589.67 921.5 576.16 968.46 562.56"/><line class="cls-1" x1="968.46" y1="576.08" x2="968.46" y2="562.56"/><line class="cls-1" x1="874.68" y1="630.38" x2="874.69" y2="616.7"/><polyline class="cls-1" points="991.8 495.17 921.57 522.2 898.15 535.76 851.33 576.2 991.8 495.17 944.98 535.76 921.57 549.28 851.33 576.2"/><line class="cls-1" x1="851.33" y1="589.79" x2="851.33" y2="576.01"/><line class="cls-1" x1="991.8" y1="508.69" x2="991.8" y2="494.94"/><polygon class="cls-1" points="1366.38 724.89 1389.79 711.37 1413.2 724.89 1389.79 738.41 1366.38 724.89"/><polyline class="cls-1" points="1460.02 1076.42 1413.2 914.21 1413.2 724.89 1389.79 697.85 1366.38 724.89 1366.38 914.21 1319.55 1076.42"/><line class="cls-1" x1="1389.79" y1="697.85" x2="1389.79" y2="1116.97"/><polygon class="cls-1" points="1366.38 752 1389.79 738.48 1413.2 752 1389.79 765.52 1366.38 752"/><polygon class="cls-1" points="1366.38 914.21 1389.79 900.7 1413.2 914.21 1389.79 927.73 1366.38 914.21"/><polygon class="cls-1" points="1366.38 779.04 1389.79 765.52 1413.2 779.04 1389.79 792.55 1366.38 779.04"/><polygon class="cls-1" points="1366.38 806.23 1389.79 792.71 1413.2 806.23 1389.79 819.75 1366.38 806.23"/><polygon class="cls-1" points="1366.38 833.11 1389.79 819.59 1413.2 833.11 1389.79 846.62 1366.38 833.11"/><polygon class="cls-1" points="1366.38 860.14 1389.79 846.62 1413.2 860.14 1389.79 873.66 1366.38 860.14"/><polygon class="cls-1" points="1366.38 887.18 1389.79 873.66 1413.2 887.18 1389.79 900.7 1366.38 887.18"/><polygon class="cls-1" points="1389.79 927.73 1356.62 948.01 1389.79 968.28 1422.95 948.01 1389.79 927.73"/><polygon class="cls-1" points="1413.2 752 1401.49 731.65 1389.79 765.52 1377.94 731.65 1366.38 752 1378.08 718.21 1389.79 738.48 1401.49 718.13 1413.2 752"/><polygon class="cls-1" points="1413.2 779.04 1401.49 758.68 1389.79 792.55 1377.94 758.68 1366.38 779.04 1378.08 745.24 1389.79 765.52 1401.49 745.16 1413.2 779.04"/><polygon class="cls-1" points="1413.2 806.11 1401.49 785.76 1389.79 819.63 1377.94 785.76 1366.38 806.11 1378.08 772.32 1389.79 792.59 1401.49 772.24 1413.2 806.11"/><polygon class="cls-1" points="1413.2 833.15 1401.49 812.79 1389.79 846.66 1377.94 812.79 1366.38 833.15 1378.08 799.35 1389.79 819.63 1401.49 799.27 1413.2 833.15"/><polygon class="cls-1" points="1413.2 860.18 1401.49 839.83 1389.79 873.7 1377.94 839.83 1366.38 860.18 1378.08 826.39 1389.79 846.66 1401.49 826.31 1413.2 860.18"/><polygon class="cls-1" points="1413.2 887.22 1401.49 866.86 1389.79 900.73 1377.94 866.86 1366.38 887.22 1378.08 853.42 1389.79 873.7 1401.49 853.34 1413.2 887.22"/><polygon class="cls-1" points="1413.2 914.25 1401.49 893.9 1389.79 927.77 1377.94 893.9 1366.38 914.25 1378.08 880.46 1389.79 900.73 1401.49 880.38 1413.2 914.25"/><polygon class="cls-1" points="1389.79 968.28 1342.96 995.32 1389.79 1022.35 1436.61 995.32 1389.79 968.28"/><polygon class="cls-1" points="1422.95 948.01 1401.49 920.97 1389.79 968.28 1378.08 920.97 1356.62 948.01 1378.15 907.41 1389.79 927.77 1401.56 907.41 1422.95 948.01"/><polygon class="cls-1" points="1436.61 995.32 1407.34 958.14 1389.79 1022.35 1372.23 958.14 1342.96 995.32 1373.23 937.85 1389.79 968.28 1406.34 937.85 1436.61 995.32"/><polygon class="cls-1" points="1456.67 1064.84 1413.2 1008.84 1389.79 1103.46 1366.38 1008.84 1322.9 1064.84 1366.38 981.8 1389.79 1022.35 1413.2 981.8 1456.67 1064.84"/><polyline class="cls-1" points="1307.85 1075.86 1307.85 1077.64 1319.55 1084.4 1331.26 1077.64 1331.26 1075.86"/><polygon class="cls-1" points="1319.55 1069.1 1307.85 1075.86 1307.85 1075.87 1319.55 1082.62 1331.26 1075.87 1331.26 1075.86 1319.55 1069.1"/><line class="cls-1" x1="1319.55" y1="1084.4" x2="1319.55" y2="1082.62"/><polyline class="cls-1" points="1448.31 1075.54 1448.31 1077.31 1460.02 1084.07 1471.72 1077.31 1471.72 1075.54"/><polygon class="cls-1" points="1460.02 1068.78 1448.32 1075.53 1448.32 1075.54 1460.02 1082.29 1471.72 1075.54 1471.72 1075.53 1460.02 1068.78"/><line class="cls-1" x1="1460.02" y1="1084.07" x2="1460.02" y2="1082.29"/><polyline class="cls-1" points="1378.08 1116.09 1378.08 1117.86 1389.79 1124.62 1401.49 1117.86 1401.49 1116.09"/><polygon class="cls-1" points="1389.79 1109.33 1378.08 1116.09 1378.08 1116.09 1389.79 1122.85 1401.49 1116.09 1401.49 1116.09 1389.79 1109.33"/><line class="cls-1" x1="1389.79" y1="1124.62" x2="1389.79" y2="1122.85"/><polyline class="cls-1" points="1378.08 1035.49 1378.08 1037.26 1389.79 1044.02 1401.49 1037.26 1401.49 1035.49"/><polygon class="cls-1" points="1389.79 1028.73 1378.08 1035.49 1378.08 1035.49 1389.79 1042.25 1401.49 1035.49 1401.49 1035.49 1389.79 1028.73"/><line class="cls-1" x1="1389.79" y1="1044.02" x2="1389.79" y2="1042.25"/><polyline class="cls-1" points="1342.96 779.04 1389.79 765.52 1413.2 752 1436.74 724.9 1436.73 724.89 1342.97 779.03 1342.97 779.03 1366.38 752 1389.79 738.48 1436.74 724.89"/><line class="cls-1" x1="1436.74" y1="738.41" x2="1436.74" y2="724.89"/><line class="cls-1" x1="1342.96" y1="792.71" x2="1342.97" y2="779.03"/><polyline class="cls-1" points="1342.9 887.06 1389.72 873.54 1413.13 860.02 1436.67 832.92 1436.67 832.92 1342.91 887.05 1342.9 887.05 1366.31 860.02 1389.72 846.51 1436.68 832.91"/><line class="cls-1" x1="1436.68" y1="846.43" x2="1436.68" y2="832.91"/><line class="cls-1" x1="1342.9" y1="900.73" x2="1342.91" y2="887.05"/><polyline class="cls-1" points="1460.02 765.52 1389.79 792.55 1366.38 806.11 1319.55 846.55 1460.02 765.52 1413.2 806.11 1389.79 819.63 1319.55 846.55"/><line class="cls-1" x1="1319.55" y1="860.14" x2="1319.55" y2="846.36"/><line class="cls-1" x1="1460.02" y1="779.04" x2="1460.02" y2="765.29"/><path class="cls-1" d="M968.39,467.82l104.86,80.82a1024.34,1024.34,0,0,0,229.67,133.52l133.67,56"/><path class="cls-1" d="M874.63,522.1l104.86,80.82a1024.5,1024.5,0,0,0,229.66,133.52l133.68,56"/><path class="cls-1" d="M851.18,589.53l104.87,80.82a1024.09,1024.09,0,0,0,229.66,133.53l133.67,56"/><path class="cls-1" d="M874.63,630.18,979.49,711a1024.88,1024.88,0,0,0,229.66,133.52l133.68,56"/><path class="cls-1" d="M968.39,575.86l104.86,80.83a1024.34,1024.34,0,0,0,229.67,133.52l133.67,56"/><path class="cls-1" d="M991.8,508.47l104.86,80.82a1024.5,1024.5,0,0,0,229.66,133.52l133.68,56"/><path class="cls-1" d="M500.19,197.49l104.87,80.83A1024.05,1024.05,0,0,0,834.72,411.84l133.67,56"/><path class="cls-1" d="M523.6,238.14,628.47,319A1024.43,1024.43,0,0,0,858.13,452.49l133.67,56"/><path class="cls-1" d="M500.26,305.54l104.86,80.82A1024.53,1024.53,0,0,0,834.78,519.89l133.68,56"/><path class="cls-1" d="M406.49,359.86l104.86,80.82A1024.5,1024.5,0,0,0,741,574.2l133.68,56"/><path class="cls-1" d="M383,319.21,487.85,400A1024.27,1024.27,0,0,0,717.51,533.55l133.67,56"/><path class="cls-1" d="M406.43,251.77,511.3,332.6A1024.43,1024.43,0,0,0,741,466.12l133.67,56"/><path class="cls-1" d="M1436.59,738.14,1541.45,819a1024.66,1024.66,0,0,0,229.66,133.52l133.67,56"/><path class="cls-1" d="M1460,778.79l104.86,80.83a1024.66,1024.66,0,0,0,229.66,133.52l133.67,56"/><path class="cls-1" d="M1436.65,846.19,1541.52,927a1024.05,1024.05,0,0,0,229.66,133.52l133.67,56"/><path class="cls-1" d="M1342.88,900.51l104.87,80.82a1024.05,1024.05,0,0,0,229.66,133.52l133.67,56"/><path class="cls-1" d="M1319.38,859.85l104.86,80.83A1024.5,1024.5,0,0,0,1653.9,1074.2l133.68,56"/><path class="cls-1" d="M1342.83,792.42l104.86,80.82a1024.31,1024.31,0,0,0,229.66,133.53l133.67,56"/><polyline class="cls-2" points="367.5 1000.82 367.56 1019.49 370.49 1021.18 373.41 1019.49 373.41 1005.38"/><line class="cls-2" x1="370.49" y1="1021.18" x2="370.49" y2="1003.12"/><polyline class="cls-2" points="443.55 1039.76 443.55 1049.89 446.48 1051.57 449.4 1049.89 449.4 1036.38"/><line class="cls-2" x1="446.47" y1="1051.57" x2="446.47" y2="1038.07"/><polyline class="cls-2" points="542.89 982.35 542.89 992.51 545.81 994.2 548.74 992.51 548.74 978.97"/><line class="cls-2" x1="545.81" y1="994.2" x2="545.81" y2="980.66"/><polyline class="cls-2" points="496.19 1009.36 496.19 1019.57 499.11 1021.26 502.04 1019.57 502.04 1005.99"/><line class="cls-2" x1="499.11" y1="1021.26" x2="499.11" y2="1007.73"/><polygon class="cls-2" points="428.96 1041.49 358.75 987.41 358.75 987.41 487.41 913.12 557.51 967.2 557.51 967.2 428.96 1041.49"/><polygon class="cls-2" points="358.75 987.41 358.82 994.13 428.93 1048.2 428.93 1048.2 428.96 1041.49 358.75 987.41 358.75 987.41"/><polygon class="cls-2" points="428.93 1048.2 428.96 1041.49 557.51 967.2 557.51 967.2 557.6 973.9 428.93 1048.2 428.93 1048.2"/><polygon class="cls-2" points="364.6 987.46 428.93 1038.07 551.75 967.15 487.41 916.5 364.6 987.46"/><polygon class="cls-2" points="370.53 987.46 428.96 1034.76 545.81 967.2 487.49 919.83 370.53 987.46"/><line class="cls-3" x1="481.67" y1="923.19" x2="540.05" y2="970.53"/><line class="cls-3" x1="376.45" y1="984.04" x2="434.78" y2="1031.4"/><line class="cls-3" x1="382.29" y1="980.66" x2="440.63" y2="1027.94"/><line class="cls-3" x1="388.13" y1="977.28" x2="446.47" y2="1024.63"/><line class="cls-3" x1="393.97" y1="973.91" x2="452.44" y2="1021.18"/><line class="cls-3" x1="399.83" y1="970.54" x2="458.17" y2="1017.87"/><line class="cls-3" x1="405.62" y1="967.2" x2="464.12" y2="1014.43"/><line class="cls-3" x1="411.49" y1="963.77" x2="469.87" y2="1011.11"/><line class="cls-3" x1="417.23" y1="960.45" x2="475.72" y2="1007.73"/><line class="cls-3" x1="423.76" y1="957.02" x2="481.57" y2="1004.34"/><line class="cls-3" x1="429.32" y1="953.46" x2="487.49" y2="1000.92"/><line class="cls-3" x1="434.87" y1="950.32" x2="493.26" y2="997.58"/><line class="cls-3" x1="440.69" y1="946.89" x2="499.17" y2="994.2"/><line class="cls-3" x1="446.53" y1="943.51" x2="505" y2="990.81"/><line class="cls-3" x1="452.44" y1="940.14" x2="510.89" y2="987.46"/><line class="cls-3" x1="458.41" y1="936.92" x2="516.6" y2="984.09"/><line class="cls-3" x1="464.12" y1="933.44" x2="522.5" y2="980.68"/><line class="cls-3" x1="469.93" y1="930.12" x2="528.35" y2="977.29"/><line class="cls-3" x1="475.72" y1="926.63" x2="534.12" y2="973.95"/><line class="cls-3" x1="375.33" y1="991.35" x2="492.35" y2="923.78"/><line class="cls-3" x1="380.2" y1="995.29" x2="497.1" y2="927.79"/><line class="cls-3" x1="385.07" y1="999.23" x2="502.07" y2="931.67"/><line class="cls-3" x1="389.94" y1="1003.17" x2="506.93" y2="935.62"/><line class="cls-3" x1="394.81" y1="1007.12" x2="511.79" y2="939.57"/><line class="cls-3" x1="399.77" y1="1011" x2="516.6" y2="943.55"/><line class="cls-3" x1="404.54" y1="1015" x2="521.51" y2="947.46"/><line class="cls-3" x1="409.41" y1="1018.94" x2="526.37" y2="951.41"/><line class="cls-3" x1="414.31" y1="1022.9" x2="531.23" y2="955.36"/><line class="cls-3" x1="419.15" y1="1026.83" x2="536.09" y2="959.31"/><line class="cls-3" x1="424.02" y1="1030.77" x2="540.95" y2="963.25"/><polyline class="cls-2" points="227.14 1081.87 227.2 1100.54 230.12 1102.23 233.05 1100.54 233.05 1086.42"/><line class="cls-2" x1="230.12" y1="1102.23" x2="230.12" y2="1084.17"/><polyline class="cls-2" points="303.19 1120.8 303.19 1130.93 306.11 1132.62 309.04 1130.93 309.04 1117.43"/><line class="cls-2" x1="306.11" y1="1132.62" x2="306.11" y2="1119.11"/><polyline class="cls-2" points="402.52 1063.39 402.52 1073.56 405.45 1075.25 408.37 1073.56 408.37 1060.02"/><line class="cls-2" x1="405.45" y1="1075.25" x2="405.45" y2="1061.71"/><polyline class="cls-2" points="355.82 1090.41 355.82 1100.61 358.75 1102.3 361.67 1100.61 361.67 1087.03"/><line class="cls-2" x1="358.75" y1="1102.3" x2="358.75" y2="1088.78"/><polygon class="cls-2" points="288.59 1122.54 218.38 1068.45 218.38 1068.45 347.05 994.17 417.14 1048.24 417.14 1048.24 288.59 1122.54"/><polygon class="cls-2" points="218.38 1068.45 218.46 1075.17 288.57 1129.24 288.57 1129.24 288.59 1122.54 218.38 1068.45 218.38 1068.45"/><polygon class="cls-2" points="288.57 1129.24 288.59 1122.54 417.14 1048.24 417.15 1048.25 417.23 1054.95 288.57 1129.24 288.57 1129.24"/><polygon class="cls-2" points="224.23 1068.51 288.56 1119.11 411.38 1048.2 347.05 997.54 224.23 1068.51"/><polygon class="cls-2" points="230.16 1068.51 288.59 1115.81 405.45 1048.24 347.12 1000.87 230.16 1068.51"/><line class="cls-3" x1="341.3" y1="1004.24" x2="399.69" y2="1051.57"/><line class="cls-3" x1="236.09" y1="1065.08" x2="294.41" y2="1112.44"/><line class="cls-3" x1="241.93" y1="1061.71" x2="300.26" y2="1108.98"/><line class="cls-3" x1="247.77" y1="1058.33" x2="306.11" y2="1105.68"/><line class="cls-3" x1="253.61" y1="1054.95" x2="312.08" y2="1102.23"/><line class="cls-3" x1="259.47" y1="1051.59" x2="317.81" y2="1098.92"/><line class="cls-3" x1="265.25" y1="1048.24" x2="323.76" y2="1095.47"/><line class="cls-3" x1="271.13" y1="1044.82" x2="329.5" y2="1092.15"/><line class="cls-3" x1="276.87" y1="1041.5" x2="335.35" y2="1088.77"/><line class="cls-3" x1="283.39" y1="1038.07" x2="341.2" y2="1085.39"/><line class="cls-3" x1="288.96" y1="1034.51" x2="347.12" y2="1081.97"/><line class="cls-3" x1="294.51" y1="1031.37" x2="352.9" y2="1078.63"/><line class="cls-3" x1="300.32" y1="1027.94" x2="358.8" y2="1075.25"/><line class="cls-3" x1="306.16" y1="1024.56" x2="364.64" y2="1071.86"/><line class="cls-3" x1="312.08" y1="1021.18" x2="370.53" y2="1068.51"/><line class="cls-3" x1="318.04" y1="1017.97" x2="376.23" y2="1065.14"/><line class="cls-3" x1="323.76" y1="1014.49" x2="382.14" y2="1061.73"/><line class="cls-3" x1="329.56" y1="1011.17" x2="387.99" y2="1058.34"/><line class="cls-3" x1="335.35" y1="1007.68" x2="393.76" y2="1055"/><line class="cls-3" x1="234.96" y1="1072.39" x2="351.99" y2="1004.82"/><line class="cls-3" x1="239.83" y1="1076.34" x2="356.74" y2="1008.83"/><line class="cls-3" x1="244.7" y1="1080.28" x2="361.71" y2="1012.72"/><line class="cls-3" x1="249.57" y1="1084.22" x2="366.57" y2="1016.67"/><line class="cls-3" x1="254.44" y1="1088.16" x2="371.43" y2="1020.61"/><line class="cls-3" x1="259.41" y1="1092.05" x2="376.23" y2="1024.59"/><line class="cls-3" x1="264.18" y1="1096.05" x2="381.15" y2="1028.51"/><line class="cls-3" x1="269.05" y1="1099.99" x2="386.01" y2="1032.46"/><line class="cls-3" x1="273.94" y1="1103.95" x2="390.87" y2="1036.4"/><line class="cls-3" x1="278.79" y1="1107.87" x2="395.73" y2="1040.35"/><line class="cls-3" x1="283.66" y1="1111.81" x2="400.59" y2="1044.3"/><polyline class="cls-2" points="86.77 1162.92 86.83 1181.6 89.76 1183.28 92.68 1181.6 92.68 1167.48"/><line class="cls-2" x1="89.76" y1="1183.28" x2="89.76" y2="1165.23"/><polyline class="cls-2" points="162.82 1201.86 162.82 1211.99 165.75 1213.68 168.67 1211.99 168.67 1198.48"/><line class="cls-2" x1="165.75" y1="1213.68" x2="165.75" y2="1200.17"/><polyline class="cls-2" points="262.16 1144.45 262.16 1154.62 265.08 1156.31 268.01 1154.62 268.01 1141.07"/><line class="cls-2" x1="265.08" y1="1156.3" x2="265.08" y2="1142.76"/><polyline class="cls-2" points="215.46 1171.46 215.46 1181.67 218.38 1183.36 221.31 1181.67 221.31 1168.09"/><line class="cls-2" x1="218.38" y1="1183.36" x2="218.38" y2="1169.83"/><polygon class="cls-2" points="148.23 1203.59 78.02 1149.51 78.02 1149.51 206.69 1075.22 276.78 1129.3 276.78 1129.3 148.23 1203.59"/><polygon class="cls-2" points="78.02 1149.51 78.09 1156.23 148.2 1210.3 148.2 1210.3 148.23 1203.59 78.02 1149.51 78.02 1149.51"/><polygon class="cls-2" points="148.2 1210.3 148.23 1203.59 276.78 1129.3 276.78 1129.3 276.87 1136.01 148.21 1210.3 148.2 1210.3"/><polygon class="cls-2" points="83.87 1149.56 148.2 1200.17 271.02 1129.25 206.68 1078.6 83.87 1149.56"/><polygon class="cls-2" points="89.8 1149.56 148.23 1196.86 265.08 1129.3 206.76 1081.93 89.8 1149.56"/><line class="cls-3" x1="200.94" y1="1085.29" x2="259.32" y2="1132.63"/><line class="cls-3" x1="95.73" y1="1146.14" x2="154.05" y2="1193.5"/><line class="cls-3" x1="101.57" y1="1142.76" x2="159.9" y2="1190.04"/><line class="cls-3" x1="107.41" y1="1139.38" x2="165.75" y2="1186.73"/><line class="cls-3" x1="113.24" y1="1136.01" x2="171.72" y2="1183.28"/><line class="cls-3" x1="119.1" y1="1132.65" x2="177.44" y2="1179.97"/><line class="cls-3" x1="124.89" y1="1129.3" x2="183.4" y2="1176.53"/><line class="cls-3" x1="130.76" y1="1125.88" x2="189.14" y2="1173.21"/><line class="cls-3" x1="136.5" y1="1122.56" x2="194.99" y2="1169.83"/><line class="cls-3" x1="143.03" y1="1119.12" x2="200.84" y2="1166.45"/><line class="cls-3" x1="148.6" y1="1115.56" x2="206.76" y2="1163.02"/><line class="cls-3" x1="154.14" y1="1112.42" x2="212.53" y2="1159.68"/><line class="cls-3" x1="159.96" y1="1108.99" x2="218.44" y2="1156.3"/><line class="cls-3" x1="165.8" y1="1105.61" x2="224.27" y2="1152.91"/><line class="cls-3" x1="171.72" y1="1102.24" x2="230.17" y2="1149.56"/><line class="cls-3" x1="177.68" y1="1099.02" x2="235.87" y2="1146.19"/><line class="cls-3" x1="183.4" y1="1095.54" x2="241.78" y2="1142.78"/><line class="cls-3" x1="189.2" y1="1092.23" x2="247.63" y2="1139.39"/><line class="cls-3" x1="194.99" y1="1088.73" x2="253.4" y2="1136.05"/><line class="cls-3" x1="94.6" y1="1153.45" x2="211.62" y2="1085.88"/><line class="cls-3" x1="99.47" y1="1157.39" x2="216.38" y2="1089.89"/><line class="cls-3" x1="104.34" y1="1161.33" x2="221.34" y2="1093.77"/><line class="cls-3" x1="109.21" y1="1165.27" x2="226.2" y2="1097.72"/><line class="cls-3" x1="114.08" y1="1169.22" x2="231.06" y2="1101.67"/><line class="cls-3" x1="119.05" y1="1173.1" x2="235.87" y2="1105.65"/><line class="cls-3" x1="123.82" y1="1177.1" x2="240.78" y2="1109.56"/><line class="cls-3" x1="128.69" y1="1181.04" x2="245.64" y2="1113.51"/><line class="cls-3" x1="133.58" y1="1185.01" x2="250.5" y2="1117.46"/><line class="cls-3" x1="138.43" y1="1188.93" x2="255.37" y2="1121.41"/><line class="cls-3" x1="143.29" y1="1192.87" x2="260.23" y2="1125.35"/><polyline class="cls-2" points="496.07 1075.1 496.13 1093.78 499.05 1095.46 501.98 1093.78 501.98 1079.66"/><line class="cls-2" x1="499.05" y1="1095.47" x2="499.05" y2="1077.41"/><polyline class="cls-2" points="572.12 1114.04 572.12 1124.17 575.04 1125.86 577.97 1124.17 577.97 1110.66"/><line class="cls-2" x1="575.04" y1="1125.86" x2="575.04" y2="1112.35"/><polyline class="cls-2" points="671.45 1056.63 671.45 1066.8 674.38 1068.49 677.3 1066.8 677.3 1053.25"/><line class="cls-2" x1="674.38" y1="1068.49" x2="674.38" y2="1054.94"/><polyline class="cls-2" points="624.75 1083.65 624.75 1093.85 627.68 1095.54 630.6 1093.85 630.6 1080.27"/><line class="cls-2" x1="627.68" y1="1095.54" x2="627.68" y2="1082.01"/><polygon class="cls-2" points="557.52 1115.78 487.31 1061.69 487.31 1061.69 615.98 987.4 686.08 1041.48 686.08 1041.48 557.52 1115.78"/><polygon class="cls-2" points="487.31 1061.69 487.39 1068.41 557.5 1122.48 557.5 1122.48 557.52 1115.78 487.31 1061.69 487.31 1061.69"/><polygon class="cls-2" points="557.5 1122.48 557.52 1115.78 686.08 1041.48 686.08 1041.48 686.16 1048.19 557.5 1122.48 557.5 1122.48"/><polygon class="cls-2" points="493.16 1061.74 557.5 1112.35 680.31 1041.43 615.98 990.78 493.16 1061.74"/><polygon class="cls-2" points="499.1 1061.74 557.52 1109.05 674.38 1041.48 616.05 994.11 499.1 1061.74"/><line class="cls-3" x1="610.24" y1="997.47" x2="668.62" y2="1044.81"/><line class="cls-3" x1="505.02" y1="1058.32" x2="563.34" y2="1105.68"/><line class="cls-3" x1="510.86" y1="1054.94" x2="569.19" y2="1102.22"/><line class="cls-3" x1="516.7" y1="1051.57" x2="575.04" y2="1098.92"/><line class="cls-3" x1="522.54" y1="1048.19" x2="581.01" y2="1095.47"/><line class="cls-3" x1="528.4" y1="1044.83" x2="586.74" y2="1092.15"/><line class="cls-3" x1="534.18" y1="1041.48" x2="592.69" y2="1088.71"/><line class="cls-3" x1="540.06" y1="1038.06" x2="598.44" y2="1085.39"/><line class="cls-3" x1="545.8" y1="1034.74" x2="604.28" y2="1082.01"/><line class="cls-3" x1="552.32" y1="1031.3" x2="610.13" y2="1078.63"/><line class="cls-3" x1="557.89" y1="1027.74" x2="616.05" y2="1075.2"/><line class="cls-3" x1="563.44" y1="1024.6" x2="621.83" y2="1071.86"/><line class="cls-3" x1="569.26" y1="1021.17" x2="627.73" y2="1068.48"/><line class="cls-3" x1="575.09" y1="1017.8" x2="633.57" y2="1065.1"/><line class="cls-3" x1="581.01" y1="1014.42" x2="639.46" y2="1061.75"/><line class="cls-3" x1="586.97" y1="1011.2" x2="645.16" y2="1058.37"/><line class="cls-3" x1="592.69" y1="1007.73" x2="651.07" y2="1054.97"/><line class="cls-3" x1="598.49" y1="1004.41" x2="656.92" y2="1051.57"/><line class="cls-3" x1="604.28" y1="1000.92" x2="662.69" y2="1048.23"/><line class="cls-3" x1="503.89" y1="1065.63" x2="620.92" y2="998.06"/><line class="cls-3" x1="508.76" y1="1069.57" x2="625.67" y2="1002.07"/><line class="cls-3" x1="513.63" y1="1073.52" x2="630.64" y2="1005.96"/><line class="cls-3" x1="518.5" y1="1077.46" x2="635.5" y2="1009.9"/><line class="cls-3" x1="523.37" y1="1081.4" x2="640.36" y2="1013.85"/><line class="cls-3" x1="528.34" y1="1085.28" x2="645.16" y2="1017.83"/><line class="cls-3" x1="533.11" y1="1089.28" x2="650.08" y2="1021.75"/><line class="cls-3" x1="537.98" y1="1093.23" x2="654.94" y2="1025.69"/><line class="cls-3" x1="542.87" y1="1097.19" x2="659.8" y2="1029.64"/><line class="cls-3" x1="547.72" y1="1101.11" x2="664.66" y2="1033.59"/><line class="cls-3" x1="552.59" y1="1105.05" x2="669.52" y2="1037.54"/><polyline class="cls-2" points="355.7 1156.15 355.76 1174.82 358.69 1176.51 361.61 1174.82 361.61 1160.71"/><line class="cls-2" x1="358.69" y1="1176.51" x2="358.69" y2="1158.45"/><polyline class="cls-2" points="431.75 1195.08 431.75 1205.21 434.68 1206.9 437.6 1205.21 437.6 1191.71"/><line class="cls-2" x1="434.68" y1="1206.9" x2="434.68" y2="1193.4"/><polyline class="cls-2" points="531.09 1137.68 531.09 1147.85 534.01 1149.53 536.94 1147.85 536.94 1134.3"/><line class="cls-2" x1="534.01" y1="1149.53" x2="534.01" y2="1135.99"/><polyline class="cls-2" points="484.39 1164.69 484.39 1174.9 487.31 1176.59 490.24 1174.9 490.24 1161.32"/><line class="cls-2" x1="487.31" y1="1176.58" x2="487.31" y2="1163.06"/><polygon class="cls-2" points="417.16 1196.82 346.95 1142.74 346.95 1142.73 475.62 1068.45 545.71 1122.53 545.71 1122.53 417.16 1196.82"/><polygon class="cls-2" points="346.95 1142.74 347.02 1149.45 417.13 1203.53 417.13 1203.53 417.16 1196.82 346.95 1142.74 346.95 1142.74"/><polygon class="cls-2" points="417.13 1203.53 417.16 1196.82 545.71 1122.53 545.71 1122.53 545.8 1129.23 417.13 1203.53 417.13 1203.53"/><polygon class="cls-2" points="352.8 1142.79 417.13 1193.4 539.95 1122.48 475.61 1071.83 352.8 1142.79"/><polygon class="cls-2" points="358.73 1142.79 417.16 1190.09 534.01 1122.53 475.69 1075.16 358.73 1142.79"/><line class="cls-3" x1="469.87" y1="1078.52" x2="528.25" y2="1125.86"/><line class="cls-3" x1="364.66" y1="1139.37" x2="422.98" y2="1186.73"/><line class="cls-3" x1="370.5" y1="1135.99" x2="428.83" y2="1183.27"/><line class="cls-3" x1="376.34" y1="1132.61" x2="434.68" y2="1179.96"/><line class="cls-3" x1="382.18" y1="1129.23" x2="440.65" y2="1176.51"/><line class="cls-3" x1="388.03" y1="1125.87" x2="446.37" y2="1173.2"/><line class="cls-3" x1="393.82" y1="1122.53" x2="452.33" y2="1169.76"/><line class="cls-3" x1="399.69" y1="1119.1" x2="458.07" y2="1166.44"/><line class="cls-3" x1="405.43" y1="1115.78" x2="463.92" y2="1163.05"/><line class="cls-3" x1="411.96" y1="1112.35" x2="469.77" y2="1159.67"/><line class="cls-3" x1="417.53" y1="1108.79" x2="475.69" y2="1156.25"/><line class="cls-3" x1="423.07" y1="1105.65" x2="481.47" y2="1152.91"/><line class="cls-3" x1="428.89" y1="1102.22" x2="487.37" y2="1149.53"/><line class="cls-3" x1="434.73" y1="1098.84" x2="493.2" y2="1146.14"/><line class="cls-3" x1="440.65" y1="1095.47" x2="499.1" y2="1142.79"/><line class="cls-3" x1="446.61" y1="1092.25" x2="504.8" y2="1139.42"/><line class="cls-3" x1="452.33" y1="1088.77" x2="510.71" y2="1136.01"/><line class="cls-3" x1="458.13" y1="1085.45" x2="516.56" y2="1132.62"/><line class="cls-3" x1="463.92" y1="1081.96" x2="522.33" y2="1129.28"/><line class="cls-3" x1="363.53" y1="1146.68" x2="480.55" y2="1079.11"/><line class="cls-3" x1="368.4" y1="1150.62" x2="485.31" y2="1083.12"/><line class="cls-3" x1="373.27" y1="1154.56" x2="490.27" y2="1087"/><line class="cls-3" x1="378.14" y1="1158.5" x2="495.13" y2="1090.95"/><line class="cls-3" x1="383.01" y1="1162.44" x2="499.99" y2="1094.9"/><line class="cls-3" x1="387.98" y1="1166.33" x2="504.8" y2="1098.88"/><line class="cls-3" x1="392.75" y1="1170.33" x2="509.72" y2="1102.79"/><line class="cls-3" x1="397.62" y1="1174.27" x2="514.58" y2="1106.74"/><line class="cls-3" x1="402.51" y1="1178.23" x2="519.43" y2="1110.69"/><line class="cls-3" x1="407.36" y1="1182.16" x2="524.3" y2="1114.63"/><line class="cls-3" x1="412.23" y1="1186.1" x2="529.16" y2="1118.58"/><polyline class="cls-2" points="215.34 1237.2 215.4 1255.88 218.33 1257.57 221.25 1255.88 221.25 1241.76"/><line class="cls-2" x1="218.33" y1="1257.57" x2="218.33" y2="1239.51"/><polyline class="cls-2" points="291.39 1276.14 291.39 1286.27 294.31 1287.96 297.24 1286.27 297.24 1272.76"/><line class="cls-2" x1="294.31" y1="1287.96" x2="294.31" y2="1274.45"/><polyline class="cls-2" points="390.73 1218.73 390.73 1228.9 393.65 1230.59 396.57 1228.9 396.57 1215.36"/><line class="cls-2" x1="393.65" y1="1230.59" x2="393.65" y2="1217.04"/><polyline class="cls-2" points="344.03 1245.75 344.03 1255.95 346.95 1257.64 349.87 1255.95 349.87 1242.37"/><line class="cls-2" x1="346.95" y1="1257.64" x2="346.95" y2="1244.11"/><polygon class="cls-2" points="276.8 1277.88 206.59 1223.79 206.59 1223.79 335.25 1149.51 405.35 1203.58 405.35 1203.58 276.8 1277.88"/><polygon class="cls-2" points="206.59 1223.79 206.66 1230.51 276.77 1284.58 276.77 1284.58 276.8 1277.88 206.59 1223.79 206.59 1223.79"/><polygon class="cls-2" points="276.77 1284.58 276.8 1277.88 405.35 1203.58 405.35 1203.58 405.44 1210.29 276.77 1284.58 276.77 1284.58"/><polygon class="cls-2" points="212.44 1223.85 276.77 1274.45 399.59 1203.54 335.25 1152.88 212.44 1223.85"/><polygon class="cls-2" points="218.37 1223.85 276.8 1271.15 393.65 1203.58 335.32 1156.21 218.37 1223.85"/><line class="cls-3" x1="329.51" y1="1159.58" x2="387.89" y2="1206.91"/><line class="cls-3" x1="224.29" y1="1220.42" x2="282.62" y2="1267.78"/><line class="cls-3" x1="230.13" y1="1217.04" x2="288.47" y2="1264.32"/><line class="cls-3" x1="235.97" y1="1213.67" x2="294.31" y2="1261.02"/><line class="cls-3" x1="241.81" y1="1210.29" x2="300.28" y2="1257.57"/><line class="cls-3" x1="247.67" y1="1206.93" x2="306.01" y2="1254.25"/><line class="cls-3" x1="253.45" y1="1203.58" x2="311.96" y2="1250.81"/><line class="cls-3" x1="259.33" y1="1200.16" x2="317.71" y2="1247.49"/><line class="cls-3" x1="265.07" y1="1196.84" x2="323.56" y2="1244.11"/><line class="cls-3" x1="271.6" y1="1193.4" x2="329.4" y2="1240.73"/><line class="cls-3" x1="277.16" y1="1189.85" x2="335.33" y2="1237.3"/><line class="cls-3" x1="282.71" y1="1186.7" x2="341.1" y2="1233.97"/><line class="cls-3" x1="288.53" y1="1183.27" x2="347.01" y2="1230.58"/><line class="cls-3" x1="294.37" y1="1179.9" x2="352.84" y2="1227.2"/><line class="cls-3" x1="300.28" y1="1176.52" x2="358.73" y2="1223.85"/><line class="cls-3" x1="306.24" y1="1173.3" x2="364.43" y2="1220.47"/><line class="cls-3" x1="311.96" y1="1169.83" x2="370.34" y2="1217.07"/><line class="cls-3" x1="317.77" y1="1166.51" x2="376.19" y2="1213.68"/><line class="cls-3" x1="323.56" y1="1163.02" x2="381.96" y2="1210.33"/><line class="cls-3" x1="223.17" y1="1227.73" x2="340.19" y2="1160.16"/><line class="cls-3" x1="228.04" y1="1231.67" x2="344.94" y2="1164.17"/><line class="cls-3" x1="232.91" y1="1235.62" x2="349.91" y2="1168.06"/><line class="cls-3" x1="237.78" y1="1239.56" x2="354.77" y2="1172"/><line class="cls-3" x1="242.64" y1="1243.5" x2="359.63" y2="1175.95"/><line class="cls-3" x1="247.61" y1="1247.39" x2="364.43" y2="1179.93"/><line class="cls-3" x1="252.38" y1="1251.38" x2="369.35" y2="1183.85"/><line class="cls-3" x1="257.25" y1="1255.33" x2="374.21" y2="1187.79"/><line class="cls-3" x1="262.15" y1="1259.29" x2="379.07" y2="1191.74"/><line class="cls-3" x1="266.99" y1="1263.21" x2="383.93" y2="1195.69"/><line class="cls-3" x1="271.86" y1="1267.15" x2="388.79" y2="1199.64"/><polygon class="cls-2" points="1060.18 1411.24 1067.39 1407.08 1355.64 1573.5 1348.42 1577.67 1060.18 1411.24"/><polyline class="cls-2" points="1006.14 1423.68 1006.14 1425.84 890.85 1492.41 847.61 1467.44 847.61 1465.29"/><polyline class="cls-2" points="962.91 1398.76 847.62 1465.29 847.62 1465.29 890.85 1490.25 1006.14 1423.68 1006.14 1423.68 962.91 1398.76"/><line class="cls-2" x1="890.85" y1="1492.41" x2="890.85" y2="1490.25"/><polyline class="cls-2" points="890.85 1259.45 890.85 1459.16 905.26 1467.48 962.91 1434.2 962.91 1234.48"/><line class="cls-2" x1="905.26" y1="1267.77" x2="905.26" y2="1467.48"/><polygon class="cls-2" points="919.67 1276.09 948.5 1259.45 948.5 1309.38 919.67 1326.02 919.67 1276.09"/><polyline class="cls-2" points="934.08 1267.77 934.08 1301.06 919.67 1309.38"/><line class="cls-2" x1="934.08" y1="1301.06" x2="948.5" y2="1309.38"/><polygon class="cls-2" points="894.45 1278.17 901.66 1282.33 901.66 1298.98 894.45 1294.82 894.45 1278.17"/><polygon class="cls-2" points="919.67 1342.66 919.67 1359.31 948.5 1342.66 948.5 1326.02 919.67 1342.66"/><polyline class="cls-2" points="919.67 1356.38 945.04 1341.73 939.21 1331.38"/><polygon class="cls-2" points="919.67 1375.95 919.67 1409.23 948.5 1392.59 948.5 1359.31 919.67 1375.95"/><line class="cls-2" x1="919.67" y1="1392.59" x2="948.5" y2="1375.95"/><line class="cls-2" x1="934.08" y1="1367.63" x2="934.08" y2="1400.91"/><line class="cls-2" x1="931.64" y1="1369.04" x2="931.64" y2="1385.68"/><polygon class="cls-2" points="922.11 1394 931.64 1388.5 931.64 1399.5 922.11 1405.01 922.11 1394"/><polygon class="cls-2" points="936.58 1385.71 946 1380.28 946 1391.15 936.58 1396.58 936.58 1385.71"/><line class="cls-2" x1="936.58" y1="1366.29" x2="936.58" y2="1382.94"/><line class="cls-2" x1="941.29" y1="1330.18" x2="948.5" y2="1342.66"/><line class="cls-2" x1="931.64" y1="1369.04" x2="931.64" y2="1385.68"/><polygon class="cls-2" points="890.85 1259.45 905.26 1267.77 962.9 1234.49 962.9 1234.48 948.5 1226.16 890.85 1259.45 890.85 1259.45"/><ellipse class="cls-2" cx="941.51" cy="1388.44" rx="4.05" ry="2.33" transform="translate(-735.32 1437.66) rotate(-57.54)"/><polyline class="cls-2" points="939.35 1391.83 946.43 1396.36 950.77 1389.53 943.82 1385.11"/><ellipse class="cls-2" cx="948.6" cy="1392.95" rx="4.05" ry="2.33" transform="matrix(0.54, -0.84, 0.84, 0.54, -735.84, 1445.73)"/><polygon class="cls-2" points="896.59 1284.36 899.51 1286.04 899.51 1292.79 896.59 1291.1 896.59 1284.36"/><path class="cls-2" d="M1001.26,1545.57v29.24l17.7-10.22a15.25,15.25,0,0,0,7.63-13.21v-20.44"/><ellipse class="cls-2" cx="995.69" cy="1553.64" rx="16.46" ry="22.25" transform="translate(-226.05 170.69) rotate(-8.8)"/><ellipse class="cls-2" cx="995.69" cy="1553.64" rx="9.14" ry="12.36" transform="translate(-226.05 170.69) rotate(-8.8)"/><path class="cls-2" d="M1101.57,1603v29.25l17.7-10.22a15.24,15.24,0,0,0,7.62-13.21v-20.44"/><ellipse class="cls-2" cx="1095.99" cy="1611.09" rx="16.46" ry="22.25" transform="translate(-233.66 186.72) rotate(-8.8)"/><ellipse class="cls-2" cx="1095.99" cy="1611.09" rx="9.14" ry="12.36" transform="translate(-233.66 186.72) rotate(-8.8)"/><path class="cls-2" d="M1056.7,1424.91l-20.61-11.9a32,32,0,0,0-32.21.1l-41.49,24.28a37.05,37.05,0,0,0-18.34,31.19l-.81,37,37.49,21.64h0a24.33,24.33,0,0,1,35.1,12.94l3.27,9.22,62.92,36.33h0a24.26,24.26,0,0,1,35,13l3.19,9.1,50.79,29.33,75.4-44.2,12.86-21.82"/><path class="cls-2" d="M1208.64,1512.64l25.32,14.62a50.65,50.65,0,0,1,25.32,43.86h0l-76,43.87L943.87,1476.74"/><path class="cls-2" d="M1171,1637.14l12.29-22.15h0a50.65,50.65,0,0,0-25.32-43.87l-25.32-14.62"/><path class="cls-2" d="M1006.05,1512.64v-3.77a23.15,23.15,0,0,1,34.72-20l28.58,16.51a76,76,0,0,1,38,65.79h0"/><line class="cls-2" x1="1056.7" y1="1498.02" x2="1056.7" y2="1571.12"/><path class="cls-2" d="M1158,1589.67h0l7.25,4.87a23.52,23.52,0,0,0,23.49,1.58h0a23.48,23.48,0,0,0,13.12-21.07h0l-25.32,14.62-9.27-5.35A6.18,6.18,0,0,0,1158,1589.67Z"/><path class="cls-2" d="M1252.5,1545.8l-25,14.6h0a23.48,23.48,0,0,0,24.81-1h0a23.63,23.63,0,0,0,4.47-4A54.33,54.33,0,0,0,1252.5,1545.8Z"/><path class="cls-2" d="M980.73,1498v-11.55a30.67,30.67,0,0,1,15.32-26.55l65.07-37.57a41.83,41.83,0,0,1,41.8,0l36.53,21.1a189,189,0,0,1,69.19,69.19h0l-76,43.86h0a189.11,189.11,0,0,0-69.19-69.19l-57.43-33.16"/><line class="cls-2" x1="1176.53" y1="1589.66" x2="1252.5" y2="1545.8"/><line class="cls-2" x1="1101.26" y1="1516.15" x2="1177.33" y2="1472.23"/><line class="cls-2" x1="980.73" y1="1498.02" x2="1183.31" y2="1614.99"/><line class="cls-2" x1="949.18" y1="1450.56" x2="984.83" y2="1471.14"/><line class="cls-2" x1="1176.83" y1="1626.44" x2="1252.39" y2="1582.82"/><polygon class="cls-2" points="954.76 1483.16 967.42 1490.47 967.42 1505.09 954.76 1497.78 954.76 1483.16"/><ellipse class="cls-2" cx="960.96" cy="1493.98" rx="2.33" ry="4.05" transform="matrix(0.84, -0.54, 0.54, 0.84, -651.7, 749.17)"/><polyline class="cls-2" points="963.13 1497.38 956.04 1501.9 951.7 1495.08 958.66 1490.65"/><ellipse class="cls-2" cx="953.87" cy="1498.49" rx="2.33" ry="4.05" transform="translate(-655.23 746.07) rotate(-32.46)"/><path class="cls-1" d="M897.91,1288.57h0a43,43,0,0,0-21.47,37.2v64.17a94.28,94.28,0,0,0,34,72.45l43.28,36"/><path class="cls-1" d="M963,1351l3.14,8.55a25.39,25.39,0,0,1-18,33.44h0"/><polyline class="cls-2" points="1222.38 1298.9 1222.38 1301.05 1107.09 1367.62 1063.85 1342.66 1063.85 1340.5"/><polyline class="cls-2" points="1179.15 1273.97 1063.86 1340.5 1063.86 1340.51 1107.09 1365.47 1222.38 1298.9 1222.38 1298.89 1179.15 1273.97"/><line class="cls-2" x1="1107.09" y1="1367.62" x2="1107.09" y2="1365.47"/><polyline class="cls-2" points="1107.09 1134.66 1107.09 1334.38 1121.5 1342.7 1179.15 1309.41 1179.15 1109.7"/><line class="cls-2" x1="1121.5" y1="1142.99" x2="1121.5" y2="1342.7"/><polygon class="cls-2" points="1135.91 1151.31 1164.74 1134.66 1164.74 1184.59 1135.91 1201.23 1135.91 1151.31"/><polyline class="cls-2" points="1150.33 1142.98 1150.33 1176.27 1135.91 1184.59"/><line class="cls-2" x1="1150.33" y1="1176.27" x2="1164.74" y2="1184.59"/><polygon class="cls-2" points="1110.69 1153.39 1117.9 1157.55 1117.9 1174.19 1110.69 1170.03 1110.69 1153.39"/><polygon class="cls-2" points="1135.91 1217.88 1135.91 1234.52 1164.74 1217.88 1164.74 1201.23 1135.91 1217.88"/><polyline class="cls-2" points="1135.91 1231.59 1161.29 1216.94 1155.45 1206.6"/><polygon class="cls-2" points="1135.91 1251.16 1135.91 1284.45 1164.74 1267.81 1164.74 1234.52 1135.91 1251.16"/><line class="cls-2" x1="1135.91" y1="1267.81" x2="1164.74" y2="1251.16"/><line class="cls-2" x1="1150.33" y1="1242.84" x2="1150.33" y2="1276.13"/><line class="cls-2" x1="1147.89" y1="1244.25" x2="1147.89" y2="1260.9"/><polygon class="cls-2" points="1138.35 1269.21 1147.89 1263.71 1147.89 1274.72 1138.35 1280.22 1138.35 1269.21"/><polygon class="cls-2" points="1152.83 1260.93 1162.24 1255.49 1162.24 1266.36 1152.83 1271.8 1152.83 1260.93"/><line class="cls-2" x1="1152.83" y1="1241.51" x2="1152.83" y2="1258.15"/><line class="cls-2" x1="1157.53" y1="1205.4" x2="1164.74" y2="1217.88"/><line class="cls-2" x1="1147.89" y1="1244.25" x2="1147.89" y2="1260.9"/><polygon class="cls-2" points="1107.09 1134.67 1121.5 1142.98 1179.15 1109.7 1179.15 1109.7 1164.74 1101.38 1107.09 1134.66 1107.09 1134.67"/><ellipse class="cls-2" cx="1157.75" cy="1263.65" rx="4.05" ry="2.33" transform="translate(-529.85 1562.31) rotate(-57.54)"/><polyline class="cls-2" points="1155.59 1267.05 1162.67 1271.57 1167.01 1264.75 1160.06 1260.33"/><ellipse class="cls-2" cx="1164.84" cy="1268.16" rx="4.05" ry="2.33" transform="matrix(0.54, -0.84, 0.84, 0.54, -530.37, 1570.38)"/><polygon class="cls-2" points="1112.84 1159.57 1115.76 1161.26 1115.76 1168.01 1112.84 1166.32 1112.84 1159.57"/><path class="cls-2" d="M1314.94,1478.22v29.91l18.1-10.45a15.61,15.61,0,0,0,7.81-13.51v-20.91"/><ellipse class="cls-2" cx="1309.24" cy="1486.48" rx="16.84" ry="22.76" transform="translate(-212.08 217.89) rotate(-8.8)"/><ellipse class="cls-2" cx="1309.24" cy="1486.48" rx="9.35" ry="12.64" transform="translate(-212.08 217.89) rotate(-8.8)"/><path class="cls-2" d="M1210.68,1418.4v29.91l18.1-10.45a15.61,15.61,0,0,0,7.8-13.52v-20.9"/><ellipse class="cls-2" cx="1204.97" cy="1426.65" rx="16.84" ry="22.76" transform="translate(-204.15 201.23) rotate(-8.8)"/><ellipse class="cls-2" cx="1204.97" cy="1426.65" rx="9.35" ry="12.64" transform="translate(-204.15 201.23) rotate(-8.8)"/><path class="cls-2" d="M1423.35,1383.53l25.9,15a51.8,51.8,0,0,1,25.91,44.87h0l-77.71,44.87-233.14-134.61"/><path class="cls-2" d="M1475.16,1443.35l-13,22.44-77.71,44.87-51.81-29.91-3.16-9.13a24.71,24.71,0,0,0-35.7-13.31h0l-64.76-37.39-3.16-9.13a24.7,24.7,0,0,0-35.69-13.31h0l-25.91-15v-64a44.6,44.6,0,0,1,22.3-38.62l34-19.64a42.76,42.76,0,0,1,42.79,0l89.16,51.48a193.34,193.34,0,0,1,70.77,70.78h0l-77.71,44.87h0a193.34,193.34,0,0,0-70.77-70.78l-104.58-60.39"/><line class="cls-2" x1="1313.61" y1="1387.06" x2="1391.32" y2="1342.19"/><path class="cls-2" d="M1345.64,1428.4l25.9,14.95a51.82,51.82,0,0,1,25.91,44.87h0l-13,22.44"/><line class="cls-2" x1="1390.51" y1="1462.32" x2="1468.22" y2="1417.45"/><path class="cls-2" d="M1190.22,1368.57v-22.28a13,13,0,0,1,19.56-11.3l58.15,33.58a77.73,77.73,0,0,1,38.86,67.3h0"/><path class="cls-2" d="M1371.54,1462.34h0l7.42,5a24,24,0,0,0,24,1.62h0a24,24,0,0,0,13.42-21.55h0l-25.9,14.95-9.48-5.47A6.32,6.32,0,0,0,1371.54,1462.34Z"/><path class="cls-2" d="M1468.22,1417.47l-25.56,14.94h0a24,24,0,0,0,25.37-1.05h0a24.08,24.08,0,0,0,4.58-4A56,56,0,0,0,1468.22,1417.47Z"/><line class="cls-2" x1="1242.03" y1="1353.61" x2="1242.03" y2="1428.4"/><line class="cls-2" x1="1164.31" y1="1353.61" x2="1397.45" y2="1488.22"/><line class="cls-2" x1="1397.45" y1="1488.22" x2="1475.16" y2="1443.35"/><polygon class="cls-2" points="1170.75 1357.56 1183.7 1365.03 1183.7 1379.99 1170.75 1372.51 1170.75 1357.56"/><ellipse class="cls-2" cx="1177.3" cy="1368.95" rx="2.33" ry="4.05" transform="translate(-550.79 845.74) rotate(-32.46)"/><polyline class="cls-2" points="1179.46 1372.35 1172.38 1376.87 1168.04 1370.04 1174.99 1365.62"/><ellipse class="cls-2" cx="1170.21" cy="1373.46" rx="2.33" ry="4.05" transform="translate(-554.32 842.64) rotate(-32.46)"/><path class="cls-1" d="M1114.15,1163.79h0a42.94,42.94,0,0,0-21.47,37.19v64.18a94.31,94.31,0,0,0,34,72.45l43.28,36"/><path class="cls-1" d="M1179.21,1226.18l3.14,8.55a25.37,25.37,0,0,1-18,33.43h0"/><path class="cls-1" d="M790.13,833.73l-2.19-4.09c-76.56,15.41-146.71,39.47-206.25,70.08l-6.23-7.06-11,24.31,37.67-12.53-14.07-2.28C646.41,872.26,714.88,848.81,790.13,833.73Z"/><path class="cls-1" d="M827.43,1551.31l-37.36-12.85,4.16,8.41c-199.16-27-360.24-111-428.61-220.67l-7.18,1.33c68.89,111.37,231.75,196.12,433.8,223.55l-6.91,6.58Z"/><path class="cls-1" d="M1499.57,1159.57l-22.11-21.64-11.18,24.26,12.3-4.84a205.49,205.49,0,0,1,5.43,46.86c0,47.91-16.78,93.55-47.14,135.08l6.76,2c30.86-42.12,47.91-88.42,47.91-137a208.33,208.33,0,0,0-5.35-46.86Z"/></svg>