<?xml version="1.0" encoding="utf-8"?>
<!-- Generator: Adobe Illustrator 24.0.2, SVG Export Plug-In . SVG Version: 6.00 Build 0)  -->
<svg version="1.1" id="Final_Illustrations_copy" xmlns="http://www.w3.org/2000/svg" xmlns:xlink="http://www.w3.org/1999/xlink"
	 x="0px" y="0px" viewBox="0 0 2000 1668.8" style="enable-background:new 0 0 2000 1668.8;" xml:space="preserve">
<style type="text/css">
	.st0{fill:none;stroke:#057ADC;stroke-width:2;stroke-miterlimit:10;}
	.st1{fill:none;stroke:#057ADC;stroke-width:2;stroke-miterlimit:10;stroke-dasharray:8;}
	.st2{fill:none;stroke:#13C14A;stroke-width:2;stroke-miterlimit:10;}
	.st3{fill:none;stroke:#057ADC;stroke-miterlimit:10;}
	.st4{fill:#181D28;stroke:#13C14A;stroke-miterlimit:10;}
	.st5{fill:none;stroke:#13C14A;stroke-miterlimit:10;}
	.st6{fill:#181D28;stroke:#13C14A;stroke-width:1.0013;stroke-miterlimit:10.013;}
	.st7{fill:#181D28;stroke:#057ADC;stroke-width:2;stroke-miterlimit:10;}
</style>
<polyline class="st0" points="1424.7,250.3 1106.1,434.3 1331,564.1 1068.6,715.7 1574.7,1007.9 1762.2,899.7 1537.2,769.8 
	1762.1,639.9 "/>
<polyline class="st0" points="956.1,1083.7 1368.5,1321.8 993.6,1538.2 581.2,1300.1 956.1,1083.7 "/>
<polygon class="st0" points="656.2,1170.2 318.8,975.3 543.7,845.5 881.1,1040.4 "/>
<polyline class="st0" points="1668.4,1408.6 1349.8,1224.3 1837.1,942.9 1912.1,986.3 "/>
<polyline class="st0" points="1986.9,942.9 1687.2,769.8 1837.1,683.2 "/>
<polyline class="st0" points="356.3,1430 506.3,1343.4 749.9,1484.1 600,1570.7 "/>
<polyline class="st0" points="1593.4,1451.6 1443.5,1365.1 993.6,1624.8 824.9,1527.4 675,1614 "/>
<polyline class="st0" points="93.9,1018.8 468.8,802.3 243.8,672.4 656.2,434.3 506.3,347.7 "/>
<polyline class="st0" points="281.3,1386.7 581.2,1213.3 243.8,1018.6 168.8,1062 "/>
<polyline class="st0" points="1348.8,207.5 1031.1,391 881.1,304.4 731.2,391 581.2,304.4 "/>
<polygon class="st0" points="881.1,391 1181.1,564.1 693.8,845.5 393.8,672.4 "/>
<polygon class="st0" points="993.6,759.4 769.4,888.8 1274.8,1180.6 1499.7,1051.3 "/>
<line class="st1" x1="487.5" y1="834.7" x2="131.4" y2="1040.4"/>
<line class="st1" x1="1799.6" y1="921.3" x2="1312.3" y2="1202.7"/>
<polyline class="st1" points="1630.9,1430 318.8,672.4 881.1,347.7 1256,564.1 731.2,867.2 "/>
<polyline class="st1" points="1387.2,1354.2 993.6,1581.5 543.7,1321.8 "/>
<line class="st1" x1="1387.2" y1="228.6" x2="1068.6" y2="412.6"/>
<line class="st1" x1="1537.2" y1="1029.5" x2="1031.1" y2="737.3"/>
<polyline class="st1" points="1949.6,964.6 1612.2,769.8 1799.8,661.5 "/>
<line class="st1" x1="693.7" y1="412.6" x2="543.7" y2="326"/>
<line class="st1" x1="918.7" y1="1062" x2="318.8" y2="1408.3"/>
<line class="st1" x1="618.7" y1="1191.9" x2="281.3" y2="997.1"/>
<line class="st1" x1="787.5" y1="1505.8" x2="637.5" y2="1592.3"/>
<polyline class="st2" points="646.8,1597.8 824.9,1494.9 993.6,1592.3 1462.2,1321.8 956.1,1029.5 656.2,1202.7 262.6,975.4 
	543.7,813.1 693.7,899.7 1274.8,564.1 1049.8,434.3 1396.5,234.1 "/>
<polyline class="st2" points="1377.9,223.2 1012.3,434.3 1237.3,564.1 693.7,878 543.7,791.4 225.1,975.4 656.2,1224.4 
	956.1,1051.2 1424.7,1321.8 993.6,1570.7 824.9,1473.3 628.1,1586.9 "/>
<polygon class="st3" points="259.6,646.3 270.7,639.9 281.8,646.3 270.7,652.7 "/>
<polyline class="st3" points="304,812.7 281.8,735.9 281.8,646.3 270.7,633.5 259.6,646.3 259.6,735.9 237.4,812.7 "/>
<line class="st3" x1="270.7" y1="633.5" x2="270.7" y2="831.9"/>
<polygon class="st3" points="259.6,659.1 270.7,652.7 281.8,659.1 270.7,665.5 "/>
<polygon class="st3" points="259.6,735.9 270.7,729.5 281.8,735.9 270.7,742.3 "/>
<polygon class="st3" points="259.6,671.9 270.7,665.5 281.8,671.9 270.7,678.3 "/>
<polygon class="st3" points="259.6,684.8 270.7,678.4 281.8,684.8 270.7,691.2 "/>
<polygon class="st3" points="259.6,697.5 270.7,691.1 281.8,697.5 270.7,703.9 "/>
<polygon class="st3" points="259.6,710.3 270.7,703.9 281.8,710.3 270.7,716.7 "/>
<polygon class="st3" points="259.6,723.1 270.7,716.7 281.8,723.1 270.7,729.5 "/>
<polygon class="st3" points="270.7,742.3 255,751.9 270.7,761.5 286.4,751.9 "/>
<polygon class="st3" points="281.8,659.1 276.2,649.5 270.7,665.5 265.1,649.5 259.6,659.1 265.1,643.1 270.7,652.7 276.2,643.1 "/>
<polygon class="st3" points="281.8,671.9 276.2,662.3 270.7,678.3 265.1,662.3 259.6,671.9 265.1,655.9 270.7,665.5 276.2,655.9 "/>
<polygon class="st3" points="281.8,684.7 276.2,675.1 270.7,691.1 265.1,675.1 259.6,684.7 265.1,668.7 270.7,678.3 276.2,668.7 "/>
<polygon class="st3" points="281.8,697.5 276.2,687.9 270.7,703.9 265.1,687.9 259.6,697.5 265.1,681.5 270.7,691.1 276.2,681.5 "/>
<polygon class="st3" points="281.8,710.3 276.2,700.7 270.7,716.7 265.1,700.7 259.6,710.3 265.1,694.3 270.7,703.9 276.2,694.3 "/>
<polygon class="st3" points="281.8,723.1 276.2,713.5 270.7,729.5 265.1,713.5 259.6,723.1 265.1,707.1 270.7,716.7 276.2,707.1 "/>
<polygon class="st3" points="281.8,735.9 276.2,726.3 270.7,742.3 265.1,726.3 259.6,735.9 265.1,719.9 270.7,729.5 276.2,719.9 "/>
<polygon class="st3" points="270.7,761.5 248.5,774.3 270.7,787.1 292.9,774.3 "/>
<polygon class="st3" points="286.4,751.9 276.2,739.1 270.7,761.5 265.1,739.1 255,751.9 265.2,732.7 270.7,742.3 276.3,732.7 "/>
<polygon class="st3" points="292.9,774.3 279,756.7 270.7,787.1 262.4,756.7 248.5,774.3 262.9,747.1 270.7,761.5 278.5,747.1 "/>
<polygon class="st3" points="302.4,807.2 281.8,780.7 270.7,825.5 259.6,780.7 239,807.2 259.6,767.9 270.7,787.1 281.8,767.9 "/>
<polyline class="st3" points="231.9,812.4 231.9,813.3 237.4,816.5 243,813.3 243,812.4 "/>
<polygon class="st3" points="237.4,809.2 231.9,812.4 231.9,812.4 237.4,815.6 243,812.4 243,812.4 "/>
<line class="st3" x1="237.4" y1="816.5" x2="237.4" y2="815.6"/>
<polyline class="st3" points="298.4,812.3 298.4,813.1 304,816.3 309.5,813.1 309.5,812.3 "/>
<polygon class="st3" points="304,809.1 298.4,812.3 298.4,812.3 304,815.5 309.5,812.3 309.5,812.3 "/>
<line class="st3" x1="304" y1="816.3" x2="304" y2="815.5"/>
<polyline class="st3" points="265.1,831.5 265.1,832.3 270.7,835.5 276.2,832.3 276.2,831.5 "/>
<polygon class="st3" points="270.7,828.3 265.1,831.5 265.1,831.5 270.7,834.7 276.2,831.5 276.2,831.5 "/>
<line class="st3" x1="270.7" y1="835.5" x2="270.7" y2="834.7"/>
<polyline class="st3" points="265.1,793.3 265.1,794.2 270.7,797.4 276.2,794.2 276.2,793.3 "/>
<polygon class="st3" points="270.7,790.1 265.1,793.3 265.1,793.3 270.7,796.5 276.2,793.3 276.2,793.3 "/>
<line class="st3" x1="270.7" y1="797.4" x2="270.7" y2="796.5"/>
<polyline class="st3" points="248.5,671.9 270.7,665.5 281.8,659.1 292.9,646.3 292.9,646.3 248.5,671.9 248.5,671.9 259.6,659.1 
	270.7,652.7 292.9,646.3 "/>
<line class="st3" x1="292.9" y1="646.3" x2="292.9" y2="652.7"/>
<line class="st3" x1="248.5" y1="678.4" x2="248.5" y2="671.9"/>
<polyline class="st3" points="248.5,723 270.7,716.7 281.8,710.3 292.9,697.4 292.9,697.4 248.5,723 248.5,723 259.6,710.3 
	270.7,703.8 292.9,697.4 "/>
<line class="st3" x1="292.9" y1="703.8" x2="292.9" y2="697.4"/>
<line class="st3" x1="248.5" y1="729.5" x2="248.5" y2="723"/>
<polyline class="st3" points="304,665.5 270.7,678.3 259.6,684.7 237.4,703.9 304,665.5 281.8,684.7 270.7,691.1 237.4,703.9 "/>
<line class="st3" x1="237.4" y1="710.3" x2="237.4" y2="703.8"/>
<line class="st3" x1="304" y1="671.9" x2="304" y2="665.4"/>
<polygon class="st3" points="481.3,774.3 492.4,767.9 503.5,774.3 492.4,780.7 "/>
<polyline class="st3" points="525.6,940.7 503.5,863.9 503.5,774.3 492.4,761.5 481.3,774.3 481.3,863.9 459.1,940.7 "/>
<line class="st3" x1="492.4" y1="761.5" x2="492.4" y2="959.9"/>
<polygon class="st3" points="481.3,787.1 492.4,780.7 503.5,787.1 492.4,793.5 "/>
<polygon class="st3" points="481.3,863.9 492.4,857.5 503.5,863.9 492.4,870.3 "/>
<polygon class="st3" points="481.3,799.9 492.4,793.5 503.5,799.9 492.4,806.3 "/>
<polygon class="st3" points="481.3,812.8 492.4,806.4 503.5,812.8 492.4,819.2 "/>
<polygon class="st3" points="481.3,825.5 492.4,819.1 503.5,825.5 492.4,831.9 "/>
<polygon class="st3" points="481.3,838.3 492.4,831.9 503.5,838.3 492.4,844.7 "/>
<polygon class="st3" points="481.3,851.1 492.4,844.7 503.5,851.1 492.4,857.5 "/>
<polygon class="st3" points="492.4,870.3 476.7,879.9 492.4,889.5 508.1,879.9 "/>
<polygon class="st3" points="503.5,787.1 497.9,777.5 492.4,793.5 486.8,777.5 481.3,787.1 486.8,771.1 492.4,780.7 497.9,771.1 "/>
<polygon class="st3" points="503.5,799.9 497.9,790.3 492.4,806.3 486.8,790.3 481.3,799.9 486.8,783.9 492.4,793.5 497.9,783.9 "/>
<polygon class="st3" points="503.5,812.7 497.9,803.1 492.4,819.1 486.8,803.1 481.3,812.7 486.8,796.7 492.4,806.3 497.9,796.7 "/>
<polygon class="st3" points="503.5,825.5 497.9,815.9 492.4,831.9 486.8,815.9 481.3,825.5 486.8,809.5 492.4,819.1 497.9,809.5 "/>
<polygon class="st3" points="503.5,838.3 497.9,828.7 492.4,844.7 486.8,828.7 481.3,838.3 486.8,822.3 492.4,831.9 497.9,822.3 "/>
<polygon class="st3" points="503.5,851.1 497.9,841.5 492.4,857.5 486.8,841.5 481.3,851.1 486.8,835.1 492.4,844.7 497.9,835.1 "/>
<polygon class="st3" points="503.5,863.9 497.9,854.3 492.4,870.3 486.8,854.3 481.3,863.9 486.8,847.9 492.4,857.5 497.9,847.9 "/>
<polygon class="st3" points="492.4,889.5 470.2,902.3 492.4,915.1 514.5,902.3 "/>
<polygon class="st3" points="508.1,879.9 497.9,867.1 492.4,889.5 486.8,867.1 476.7,879.9 486.9,860.7 492.4,870.3 497.9,860.7 "/>
<polygon class="st3" points="514.5,902.3 500.7,884.7 492.4,915.1 484,884.7 470.2,902.3 484.5,875.1 492.4,889.5 500.2,875.1 "/>
<polygon class="st3" points="524,935.2 503.5,908.7 492.4,953.5 481.3,908.7 460.7,935.2 481.3,895.9 492.4,915.1 503.5,895.9 "/>
<polyline class="st3" points="453.6,940.4 453.6,941.3 459.1,944.5 464.7,941.3 464.7,940.4 "/>
<polygon class="st3" points="459.1,937.2 453.6,940.4 453.6,940.4 459.1,943.6 464.7,940.4 464.7,940.4 "/>
<line class="st3" x1="459.1" y1="944.5" x2="459.1" y2="943.6"/>
<polyline class="st3" points="520.1,940.3 520.1,941.1 525.6,944.3 531.2,941.1 531.2,940.3 "/>
<polygon class="st3" points="525.6,937.1 520.1,940.3 520.1,940.3 525.6,943.5 531.2,940.3 531.2,940.3 "/>
<line class="st3" x1="525.6" y1="944.3" x2="525.6" y2="943.5"/>
<polyline class="st3" points="486.8,959.5 486.8,960.3 492.4,963.5 497.9,960.3 497.9,959.5 "/>
<polygon class="st3" points="492.4,956.3 486.8,959.5 486.8,959.5 492.4,962.7 497.9,959.5 497.9,959.5 "/>
<line class="st3" x1="492.4" y1="963.5" x2="492.4" y2="962.7"/>
<polyline class="st3" points="486.8,921.3 486.8,922.2 492.4,925.4 497.9,922.2 497.9,921.3 "/>
<polygon class="st3" points="492.4,918.1 486.8,921.3 486.8,921.3 492.4,924.5 497.9,921.3 497.9,921.3 "/>
<line class="st3" x1="492.4" y1="925.4" x2="492.4" y2="924.5"/>
<polyline class="st3" points="470.2,799.9 492.4,793.5 503.5,787.1 514.6,774.3 514.6,774.3 470.2,799.9 470.2,799.9 481.3,787.1 
	492.4,780.7 514.6,774.3 "/>
<line class="st3" x1="514.6" y1="780.7" x2="514.6" y2="774.3"/>
<line class="st3" x1="470.2" y1="806.4" x2="470.2" y2="799.9"/>
<polyline class="st3" points="470.2,851 492.3,844.7 503.4,838.3 514.6,825.4 514.6,825.4 470.2,851 470.2,851 481.3,838.3 
	492.3,831.8 514.6,825.4 "/>
<line class="st3" x1="514.6" y1="831.8" x2="514.6" y2="825.4"/>
<line class="st3" x1="470.2" y1="857.5" x2="470.2" y2="851"/>
<polyline class="st3" points="525.6,793.5 492.4,806.3 481.3,812.7 459.1,831.9 525.6,793.5 503.5,812.7 492.4,819.1 459.1,831.9 
	"/>
<line class="st3" x1="459.1" y1="838.3" x2="459.1" y2="831.8"/>
<line class="st3" x1="525.6" y1="799.9" x2="525.6" y2="793.4"/>
<path class="st3" d="M292.9,652.6l49.6,38.3c33.3,25.7,69.9,46.9,108.7,63.2l63.3,26.5"/>
<path class="st3" d="M248.5,678.3l49.6,38.3c33.3,25.7,69.9,47,108.7,63.2l63.3,26.5"/>
<path class="st3" d="M237.4,710.2l49.6,38.3c33.3,25.7,69.9,46.9,108.7,63.2l63.3,26.5"/>
<path class="st3" d="M248.5,729.4l49.6,38.3c33.3,25.7,69.9,46.9,108.7,63.2l63.3,26.5"/>
<path class="st3" d="M292.9,703.7l49.7,38.3c33.3,25.7,69.9,46.9,108.7,63.2l63.3,26.5"/>
<path class="st3" d="M304,671.8l49.6,38.3c33.3,25.7,69.9,47,108.7,63.2l63.3,26.5"/>
<path class="st3" d="M71.2,524.6l49.7,38.3c33.3,25.7,69.9,46.9,108.7,63.2l63.3,26.5"/>
<path class="st3" d="M82.3,543.8l49.6,38.3c33.3,25.7,69.9,47,108.7,63.2l63.3,26.5"/>
<path class="st3" d="M71.2,575.7l49.6,38.3c33.3,25.7,69.9,46.9,108.7,63.2l63.3,26.5"/>
<path class="st3" d="M26.8,601.5l49.7,38.3c33.3,25.7,69.9,47,108.7,63.2l63.3,26.5"/>
<path class="st3" d="M15.7,582.2l49.7,38.3c33.3,25.7,69.9,46.9,108.7,63.2l63.3,26.5"/>
<path class="st3" d="M26.8,550.3l49.7,38.3c33.3,25.7,69.9,47,108.7,63.2l63.3,26.5"/>
<path class="st3" d="M514.5,780.5l49.7,38.3c33.3,25.7,69.9,46.9,108.7,63.2l63.3,26.5"/>
<path class="st3" d="M525.6,799.8l49.6,38.3c33.4,25.7,69.9,47,108.8,63.2l63.3,26.5"/>
<path class="st3" d="M514.6,831.7l49.6,38.3c33.3,25.7,69.9,47,108.7,63.2l63.3,26.5"/>
<path class="st3" d="M470.2,857.4l49.6,38.3c33.3,25.7,69.9,47,108.7,63.2l63.3,26.5"/>
<path class="st3" d="M459,838.2l49.6,38.3c33.3,25.7,69.9,46.9,108.7,63.2l63.3,26.5"/>
<path class="st3" d="M470.1,806.2l49.7,38.3c33.3,25.7,69.9,46.9,108.7,63.2l63.3,26.5"/>
<polygon class="st3" points="702.9,908.5 714,902.1 725.1,908.5 714,914.9 "/>
<polyline class="st3" points="747.2,1074.9 725.1,998.1 725.1,908.5 714,895.7 702.9,908.5 702.9,998.1 680.7,1074.9 "/>
<line class="st3" x1="714" y1="895.7" x2="714" y2="1094.1"/>
<polygon class="st3" points="702.9,921.3 714,914.9 725.1,921.3 714,927.7 "/>
<polygon class="st3" points="702.9,998.1 714,991.7 725.1,998.1 714,1004.5 "/>
<polygon class="st3" points="702.9,934.1 714,927.7 725.1,934.1 714,940.5 "/>
<polygon class="st3" points="702.9,947 714,940.6 725.1,947 714,953.4 "/>
<polygon class="st3" points="702.9,959.7 714,953.3 725.1,959.7 714,966.1 "/>
<polygon class="st3" points="702.9,972.5 714,966.1 725.1,972.5 714,978.9 "/>
<polygon class="st3" points="702.9,985.3 714,978.9 725.1,985.3 714,991.7 "/>
<polygon class="st3" points="714,1004.5 698.3,1014.1 714,1023.7 729.7,1014.1 "/>
<polygon class="st3" points="725.1,921.3 719.5,911.7 714,927.7 708.4,911.7 702.9,921.3 708.4,905.3 714,914.9 719.5,905.3 "/>
<polygon class="st3" points="725.1,934.1 719.5,924.5 714,940.5 708.4,924.5 702.9,934.1 708.4,918.1 714,927.7 719.5,918.1 "/>
<polygon class="st3" points="725.1,947 719.5,937.3 714,953.4 708.4,937.3 702.9,947 708.4,931 714,940.6 719.5,930.9 "/>
<polygon class="st3" points="725.1,959.8 719.5,950.1 714,966.2 708.4,950.1 702.9,959.8 708.4,943.8 714,953.4 719.5,943.7 "/>
<polygon class="st3" points="725.1,972.5 719.5,962.9 714,979 708.4,962.9 702.9,972.5 708.4,956.6 714,966.2 719.5,956.5 "/>
<polygon class="st3" points="725.1,985.3 719.5,975.7 714,991.8 708.4,975.7 702.9,985.3 708.4,969.4 714,979 719.5,969.3 "/>
<polygon class="st3" points="725.1,998.2 719.5,988.5 714,1004.5 708.4,988.5 702.9,998.2 708.4,982.2 714,991.8 719.5,982.1 "/>
<polygon class="st3" points="714,1023.7 691.8,1036.5 714,1049.3 736.1,1036.5 "/>
<polygon class="st3" points="729.7,1014.1 719.5,1001.3 714,1023.7 708.4,1001.3 698.3,1014.1 708.5,994.9 714,1004.5 719.5,994.9 
	"/>
<polygon class="st3" points="736.1,1036.5 722.3,1018.9 714,1049.3 705.7,1018.9 691.8,1036.5 706.1,1009.3 714,1023.7 
	721.8,1009.3 "/>
<polygon class="st3" points="745.6,1069.4 725.1,1042.9 714,1087.7 702.9,1042.9 682.3,1069.4 702.9,1030.1 714,1049.3 
	725.1,1030.1 "/>
<polyline class="st3" points="675.2,1074.7 675.2,1075.5 680.7,1078.7 686.3,1075.5 686.3,1074.7 "/>
<polygon class="st3" points="680.7,1071.5 675.2,1074.7 675.2,1074.7 680.7,1077.9 686.3,1074.7 686.3,1074.7 "/>
<line class="st3" x1="680.7" y1="1078.7" x2="680.7" y2="1077.9"/>
<polyline class="st3" points="741.7,1074.5 741.7,1075.3 747.2,1078.6 752.8,1075.3 752.8,1074.5 "/>
<polygon class="st3" points="747.2,1071.3 741.7,1074.5 741.7,1074.5 747.2,1077.7 752.8,1074.5 752.8,1074.5 "/>
<line class="st3" x1="747.2" y1="1078.6" x2="747.2" y2="1077.7"/>
<polyline class="st3" points="708.4,1093.7 708.4,1094.6 714,1097.8 719.5,1094.6 719.5,1093.7 "/>
<polygon class="st3" points="714,1090.5 708.4,1093.7 708.4,1093.7 714,1096.9 719.5,1093.7 719.5,1093.7 "/>
<line class="st3" x1="714" y1="1097.8" x2="714" y2="1096.9"/>
<polyline class="st3" points="708.4,1055.6 708.4,1056.4 714,1059.6 719.5,1056.4 719.5,1055.6 "/>
<polygon class="st3" points="714,1052.3 708.4,1055.6 708.4,1055.6 714,1058.8 719.5,1055.6 719.5,1055.6 "/>
<line class="st3" x1="714" y1="1059.6" x2="714" y2="1058.8"/>
<polyline class="st3" points="691.8,934.1 714,927.7 725.1,921.3 736.2,908.5 736.2,908.5 691.8,934.1 691.8,934.1 702.9,921.3 
	714,914.9 736.2,908.5 "/>
<line class="st3" x1="736.2" y1="908.5" x2="736.2" y2="914.9"/>
<line class="st3" x1="691.8" y1="940.6" x2="691.8" y2="934.1"/>
<polyline class="st3" points="691.8,985.3 713.9,978.9 725,972.5 736.2,959.7 736.2,959.7 691.8,985.3 691.8,985.3 702.9,972.5 
	713.9,966.1 736.2,959.6 "/>
<line class="st3" x1="736.2" y1="966" x2="736.2" y2="959.6"/>
<line class="st3" x1="691.8" y1="991.8" x2="691.8" y2="985.3"/>
<polyline class="st3" points="747.2,927.7 714,940.5 702.9,947 680.7,966.1 747.2,927.7 725.1,947 714,953.4 680.7,966.1 "/>
<line class="st3" x1="680.7" y1="972.5" x2="680.7" y2="966"/>
<line class="st3" x1="747.2" y1="934.1" x2="747.2" y2="927.6"/>
<polygon class="st3" points="924.6,1036.5 935.7,1030.1 946.7,1036.5 935.7,1042.9 "/>
<polyline class="st3" points="968.9,1202.9 946.7,1126.1 946.7,1036.5 935.7,1023.7 924.6,1036.5 924.6,1126.1 902.4,1202.9 "/>
<line class="st3" x1="935.7" y1="1023.7" x2="935.7" y2="1222.1"/>
<polygon class="st3" points="924.6,1049.3 935.7,1042.9 946.7,1049.3 935.7,1055.7 "/>
<polygon class="st3" points="924.6,1126.1 935.7,1119.7 946.7,1126.1 935.7,1132.5 "/>
<polygon class="st3" points="924.6,1062.1 935.7,1055.7 946.7,1062.1 935.7,1068.5 "/>
<polygon class="st3" points="924.6,1075 935.7,1068.6 946.7,1075 935.7,1081.4 "/>
<polygon class="st3" points="924.6,1087.7 935.7,1081.3 946.7,1087.7 935.7,1094.1 "/>
<polygon class="st3" points="924.6,1100.5 935.7,1094.1 946.7,1100.5 935.7,1106.9 "/>
<polygon class="st3" points="924.6,1113.3 935.7,1106.9 946.7,1113.3 935.7,1119.7 "/>
<polygon class="st3" points="935.7,1132.5 919.9,1142.1 935.7,1151.7 951.3,1142.1 "/>
<polygon class="st3" points="946.7,1049.3 941.2,1039.7 935.7,1055.7 930,1039.7 924.6,1049.3 930.1,1033.3 935.7,1042.9 
	941.2,1033.3 "/>
<polygon class="st3" points="946.7,1062.1 941.2,1052.5 935.7,1068.5 930,1052.5 924.6,1062.1 930.1,1046.1 935.7,1055.7 
	941.2,1046.1 "/>
<polygon class="st3" points="946.7,1074.9 941.2,1065.3 935.7,1081.3 930,1065.3 924.6,1074.9 930.1,1058.9 935.7,1068.6 
	941.2,1058.9 "/>
<polygon class="st3" points="946.7,1087.8 941.2,1078.1 935.7,1094.2 930,1078.1 924.6,1087.8 930.1,1071.8 935.7,1081.3 
	941.2,1071.7 "/>
<polygon class="st3" points="946.7,1100.6 941.2,1090.9 935.7,1106.9 930,1090.9 924.6,1100.6 930.1,1084.6 935.7,1094.2 
	941.2,1084.5 "/>
<polygon class="st3" points="946.7,1113.3 941.2,1103.7 935.7,1119.8 930,1103.7 924.6,1113.3 930.1,1097.3 935.7,1106.9 
	941.2,1097.3 "/>
<polygon class="st3" points="946.7,1126.2 941.2,1116.5 935.7,1132.6 930,1116.5 924.6,1126.2 930.1,1110.2 935.7,1119.8 
	941.2,1110.1 "/>
<polygon class="st3" points="935.7,1151.7 913.5,1164.5 935.7,1177.3 957.8,1164.5 "/>
<polygon class="st3" points="951.3,1142.1 941.2,1129.3 935.7,1151.7 930.1,1129.3 919.9,1142.1 930.1,1122.9 935.7,1132.6 
	941.2,1122.9 "/>
<polygon class="st3" points="957.8,1164.5 944,1146.9 935.7,1177.3 927.3,1146.9 913.5,1164.5 927.8,1137.3 935.7,1151.7 
	943.5,1137.3 "/>
<polygon class="st3" points="967.3,1197.4 946.7,1170.9 935.7,1215.7 924.6,1170.9 904,1197.4 924.6,1158.1 935.7,1177.3 
	946.7,1158.1 "/>
<polyline class="st3" points="896.8,1202.7 896.8,1203.5 902.4,1206.7 907.9,1203.5 907.9,1202.7 "/>
<polygon class="st3" points="902.4,1199.5 896.9,1202.7 896.9,1202.7 902.4,1205.9 907.9,1202.7 907.9,1202.7 "/>
<line class="st3" x1="902.4" y1="1206.7" x2="902.4" y2="1205.9"/>
<polyline class="st3" points="963.4,1202.5 963.4,1203.3 968.9,1206.5 974.4,1203.3 974.4,1202.5 "/>
<polygon class="st3" points="968.9,1199.3 963.4,1202.5 963.4,1202.5 968.9,1205.7 974.4,1202.5 974.4,1202.5 "/>
<line class="st3" x1="968.9" y1="1206.5" x2="968.9" y2="1205.7"/>
<polyline class="st3" points="930.1,1221.7 930.1,1222.5 935.7,1225.7 941.2,1222.5 941.2,1221.7 "/>
<polygon class="st3" points="935.7,1218.5 930.1,1221.7 930.1,1221.7 935.7,1224.9 941.2,1221.7 941.2,1221.7 "/>
<line class="st3" x1="935.7" y1="1225.7" x2="935.7" y2="1224.9"/>
<polyline class="st3" points="930.1,1183.6 930.1,1184.4 935.7,1187.6 941.2,1184.4 941.2,1183.6 "/>
<polygon class="st3" points="935.7,1180.3 930.1,1183.5 930.1,1183.6 935.7,1186.7 941.2,1183.6 941.2,1183.5 "/>
<line class="st3" x1="935.7" y1="1187.6" x2="935.7" y2="1186.7"/>
<polyline class="st3" points="913.5,1062.1 935.7,1055.7 946.7,1049.3 957.9,1036.5 957.9,1036.5 913.5,1062.1 913.5,1062.1 
	924.6,1049.3 935.7,1042.9 957.9,1036.5 "/>
<line class="st3" x1="957.9" y1="1042.9" x2="957.9" y2="1036.5"/>
<line class="st3" x1="913.5" y1="1068.6" x2="913.5" y2="1062.1"/>
<polyline class="st3" points="913.5,1113.3 935.6,1106.9 946.7,1100.5 957.8,1087.6 957.8,1087.6 913.5,1113.3 913.5,1113.3 
	924.5,1100.5 935.6,1094.1 957.8,1087.6 "/>
<line class="st3" x1="957.8" y1="1094" x2="957.8" y2="1087.6"/>
<line class="st3" x1="913.5" y1="1119.8" x2="913.5" y2="1113.3"/>
<polyline class="st3" points="968.9,1055.7 935.7,1068.5 924.6,1074.9 902.4,1094.1 968.9,1055.7 946.7,1074.9 935.7,1081.3 
	902.4,1094.1 "/>
<line class="st3" x1="902.4" y1="1100.5" x2="902.4" y2="1094"/>
<line class="st3" x1="968.9" y1="1062.1" x2="968.9" y2="1055.6"/>
<path class="st3" d="M736.1,914.8l49.7,38.3c33.3,25.7,69.9,47,108.7,63.2l63.3,26.5"/>
<path class="st3" d="M691.8,940.5l49.7,38.3c33.3,25.7,69.9,47,108.7,63.3l63.3,26.5"/>
<path class="st3" d="M680.7,972.4l49.7,38.3c33.3,25.7,69.9,46.9,108.7,63.2l63.3,26.5"/>
<path class="st3" d="M691.8,991.7l49.7,38.3c33.3,25.7,69.9,47,108.7,63.2l63.3,26.5"/>
<path class="st3" d="M736.1,965.9l49.7,38.3c33.3,25.7,69.9,47,108.7,63.2l63.3,26.5"/>
<path class="st3" d="M747.2,934l49.6,38.3c33.3,25.7,69.9,46.9,108.7,63.2l63.3,26.5"/>
<path class="st3" d="M957.8,1042.8l49.7,38.3c33.3,25.7,69.9,46.9,108.7,63.2l63.3,26.5"/>
<path class="st3" d="M968.9,1062l49.6,38.3c33.3,25.7,69.9,46.9,108.7,63.2l63.3,26.5"/>
<path class="st3" d="M957.8,1093.9l49.7,38.3c33.3,25.7,69.9,46.9,108.7,63.2l63.3,26.5"/>
<path class="st3" d="M913.4,1119.6l49.7,38.3c33.3,25.7,69.9,47,108.7,63.2l63.3,26.5"/>
<path class="st3" d="M902.3,1100.4l49.7,38.3c33.3,25.7,69.9,46.9,108.7,63.2l63.3,26.5"/>
<path class="st3" d="M913.4,1068.5l49.7,38.3c33.3,25.7,69.9,47,108.7,63.3l63.3,26.5"/>
<polygon class="st3" points="1146.2,1170.9 1157.3,1164.5 1168.3,1170.9 1157.3,1177.3 "/>
<polyline class="st3" points="1190.5,1337.3 1168.3,1260.5 1168.3,1170.9 1157.3,1158.1 1146.2,1170.9 1146.2,1260.5 1124,1337.3 
	"/>
<line class="st3" x1="1157.3" y1="1158.1" x2="1157.3" y2="1356.5"/>
<polygon class="st3" points="1146.2,1183.7 1157.3,1177.3 1168.3,1183.7 1157.3,1190.1 "/>
<polygon class="st3" points="1146.2,1260.5 1157.3,1254.1 1168.3,1260.5 1157.3,1266.9 "/>
<polygon class="st3" points="1146.2,1196.5 1157.3,1190.1 1168.3,1196.5 1157.3,1202.9 "/>
<polygon class="st3" points="1146.2,1209.4 1157.3,1203 1168.3,1209.4 1157.3,1215.8 "/>
<polygon class="st3" points="1146.2,1222.1 1157.3,1215.7 1168.3,1222.1 1157.3,1228.5 "/>
<polygon class="st3" points="1146.2,1234.9 1157.3,1228.5 1168.3,1234.9 1157.3,1241.3 "/>
<polygon class="st3" points="1146.2,1247.7 1157.3,1241.3 1168.3,1247.7 1157.3,1254.1 "/>
<polygon class="st3" points="1157.3,1266.9 1141.6,1276.5 1157.3,1286.1 1172.9,1276.5 "/>
<polygon class="st3" points="1168.3,1183.7 1162.8,1174.1 1157.3,1190.1 1151.6,1174.1 1146.2,1183.7 1151.7,1167.7 1157.3,1177.3 
	1162.8,1167.7 "/>
<polygon class="st3" points="1168.3,1196.5 1162.8,1186.9 1157.3,1202.9 1151.6,1186.9 1146.2,1196.5 1151.7,1180.5 1157.3,1190.1 
	1162.8,1180.5 "/>
<polygon class="st3" points="1168.3,1209.3 1162.8,1199.7 1157.3,1215.8 1151.6,1199.7 1146.2,1209.3 1151.7,1193.4 1157.3,1202.9 
	1162.8,1193.3 "/>
<polygon class="st3" points="1168.3,1222.2 1162.8,1212.5 1157.3,1228.6 1151.6,1212.5 1146.2,1222.2 1151.7,1206.2 1157.3,1215.8 
	1162.8,1206.1 "/>
<polygon class="st3" points="1168.3,1234.9 1162.8,1225.3 1157.3,1241.3 1151.6,1225.3 1146.2,1234.9 1151.7,1218.9 1157.3,1228.6 
	1162.8,1218.9 "/>
<polygon class="st3" points="1168.3,1247.8 1162.8,1238.1 1157.3,1254.2 1151.6,1238.1 1146.2,1247.8 1151.7,1231.8 1157.3,1241.3 
	1162.8,1231.7 "/>
<polygon class="st3" points="1168.3,1260.6 1162.8,1250.9 1157.3,1266.9 1151.6,1250.9 1146.2,1260.6 1151.7,1244.6 1157.3,1254.2 
	1162.8,1244.5 "/>
<polygon class="st3" points="1157.3,1286.1 1135.1,1298.9 1157.3,1311.7 1179.4,1298.9 "/>
<polygon class="st3" points="1172.9,1276.5 1162.8,1263.7 1157.3,1286.1 1151.7,1263.7 1141.6,1276.5 1151.7,1257.3 1157.3,1266.9 
	1162.8,1257.3 "/>
<polygon class="st3" points="1179.4,1298.9 1165.6,1281.3 1157.3,1311.7 1148.9,1281.3 1135.1,1298.9 1149.4,1271.7 1157.3,1286.1 
	1165.1,1271.7 "/>
<polygon class="st3" points="1188.9,1331.8 1168.3,1305.3 1157.3,1350.1 1146.2,1305.3 1125.6,1331.8 1146.2,1292.5 1157.3,1311.7 
	1168.3,1292.5 "/>
<polyline class="st3" points="1118.5,1337.1 1118.5,1337.9 1124,1341.1 1129.5,1337.9 1129.5,1337.1 "/>
<polygon class="st3" points="1124,1333.9 1118.5,1337.1 1118.5,1337.1 1124,1340.3 1129.5,1337.1 1129.5,1337.1 "/>
<line class="st3" x1="1124" y1="1341.1" x2="1124" y2="1340.3"/>
<polyline class="st3" points="1185,1336.9 1185,1337.8 1190.5,1340.9 1196,1337.8 1196,1336.9 "/>
<polygon class="st3" points="1190.5,1333.7 1185,1336.9 1185,1336.9 1190.5,1340.1 1196,1336.9 1196,1336.9 "/>
<line class="st3" x1="1190.5" y1="1340.9" x2="1190.5" y2="1340.1"/>
<polyline class="st3" points="1151.7,1356.1 1151.7,1356.9 1157.3,1360.2 1162.8,1356.9 1162.8,1356.1 "/>
<polygon class="st3" points="1157.3,1352.9 1151.7,1356.1 1151.7,1356.1 1157.3,1359.3 1162.8,1356.1 1162.8,1356.1 "/>
<line class="st3" x1="1157.3" y1="1360.2" x2="1157.3" y2="1359.3"/>
<polyline class="st3" points="1151.7,1317.9 1151.7,1318.8 1157.3,1322 1162.8,1318.8 1162.8,1317.9 "/>
<polygon class="st3" points="1157.3,1314.8 1151.7,1317.9 1151.7,1317.9 1157.3,1321.2 1162.8,1317.9 1162.8,1317.9 "/>
<line class="st3" x1="1157.3" y1="1322" x2="1157.3" y2="1321.2"/>
<polyline class="st3" points="1135.1,1196.5 1157.3,1190.1 1168.3,1183.7 1179.5,1170.9 1179.5,1170.9 1135.1,1196.5 1135.1,1196.5 
	1146.2,1183.7 1157.3,1177.3 1179.5,1170.9 "/>
<line class="st3" x1="1179.5" y1="1170.9" x2="1179.5" y2="1177.3"/>
<line class="st3" x1="1135.1" y1="1203" x2="1135.1" y2="1196.5"/>
<polyline class="st3" points="1135.1,1247.7 1157.2,1241.3 1168.3,1234.9 1179.4,1222.1 1179.4,1222 1135.1,1247.7 1135.1,1247.7 
	1146.1,1234.9 1157.2,1228.5 1179.4,1222 "/>
<line class="st3" x1="1179.4" y1="1228.4" x2="1179.4" y2="1222"/>
<line class="st3" x1="1135.1" y1="1254.2" x2="1135.1" y2="1247.7"/>
<polyline class="st3" points="1190.5,1190.1 1157.3,1202.9 1146.2,1209.3 1124,1228.5 1190.5,1190.1 1168.3,1209.3 1157.3,1215.8 
	1124,1228.5 "/>
<line class="st3" x1="1124" y1="1234.9" x2="1124" y2="1228.4"/>
<line class="st3" x1="1190.5" y1="1196.5" x2="1190.5" y2="1190"/>
<polygon class="st3" points="1367.8,1298.9 1378.9,1292.5 1390,1298.9 1378.9,1305.3 "/>
<polyline class="st3" points="1412.2,1465.3 1390,1388.5 1390,1298.9 1378.9,1286.1 1367.8,1298.9 1367.8,1388.5 1345.7,1465.3 "/>
<line class="st3" x1="1378.9" y1="1286.1" x2="1378.9" y2="1484.5"/>
<polygon class="st3" points="1367.8,1311.7 1378.9,1305.3 1390,1311.7 1378.9,1318.1 "/>
<polygon class="st3" points="1367.8,1388.5 1378.9,1382.1 1390,1388.5 1378.9,1394.9 "/>
<polygon class="st3" points="1367.8,1324.5 1378.9,1318.1 1390,1324.5 1378.9,1330.9 "/>
<polygon class="st3" points="1367.8,1337.4 1378.9,1331 1390,1337.4 1378.9,1343.8 "/>
<polygon class="st3" points="1367.8,1350.1 1378.9,1343.7 1390,1350.1 1378.9,1356.5 "/>
<polygon class="st3" points="1367.8,1362.9 1378.9,1356.5 1390,1362.9 1378.9,1369.3 "/>
<polygon class="st3" points="1367.8,1375.7 1378.9,1369.3 1390,1375.7 1378.9,1382.1 "/>
<polygon class="st3" points="1378.9,1394.9 1363.2,1404.5 1378.9,1414.1 1394.6,1404.5 "/>
<polygon class="st3" points="1390,1311.7 1384.5,1302.1 1378.9,1318.1 1373.3,1302.1 1367.8,1311.7 1373.4,1295.7 1378.9,1305.3 
	1384.5,1295.7 "/>
<polygon class="st3" points="1390,1324.5 1384.5,1314.9 1378.9,1330.9 1373.3,1314.9 1367.8,1324.5 1373.4,1308.5 1378.9,1318.1 
	1384.5,1308.5 "/>
<polygon class="st3" points="1390,1337.3 1384.5,1327.7 1378.9,1343.8 1373.3,1327.7 1367.8,1337.3 1373.4,1321.3 1378.9,1330.9 
	1384.5,1321.3 "/>
<polygon class="st3" points="1390,1350.2 1384.5,1340.5 1378.9,1356.6 1373.3,1340.5 1367.8,1350.2 1373.4,1334.2 1378.9,1343.8 
	1384.5,1334.1 "/>
<polygon class="st3" points="1390,1362.9 1384.5,1353.3 1378.9,1369.3 1373.3,1353.3 1367.8,1362.9 1373.4,1346.9 1378.9,1356.6 
	1384.5,1346.9 "/>
<polygon class="st3" points="1390,1375.7 1384.5,1366.1 1378.9,1382.1 1373.3,1366.1 1367.8,1375.7 1373.4,1359.7 1378.9,1369.3 
	1384.5,1359.7 "/>
<polygon class="st3" points="1390,1388.5 1384.5,1378.9 1378.9,1394.9 1373.3,1378.9 1367.8,1388.5 1373.4,1372.6 1378.9,1382.1 
	1384.5,1372.5 "/>
<polygon class="st3" points="1378.9,1414.1 1356.8,1426.9 1378.9,1439.7 1401.1,1426.9 "/>
<polygon class="st3" points="1394.6,1404.5 1384.5,1391.7 1378.9,1414.1 1373.4,1391.7 1363.2,1404.5 1373.4,1385.3 1378.9,1394.9 
	1384.5,1385.3 "/>
<polygon class="st3" points="1401.1,1426.9 1387.2,1409.3 1378.9,1439.7 1370.6,1409.3 1356.8,1426.9 1371.1,1399.7 1378.9,1414.1 
	1386.8,1399.7 "/>
<polygon class="st3" points="1410.6,1459.8 1390,1433.3 1378.9,1478.1 1367.8,1433.3 1347.3,1459.8 1367.8,1420.5 1378.9,1439.7 
	1390,1420.5 "/>
<polyline class="st3" points="1340.1,1465.1 1340.1,1465.9 1345.7,1469.1 1351.2,1465.9 1351.2,1465.1 "/>
<polygon class="st3" points="1345.7,1461.9 1340.1,1465.1 1340.1,1465.1 1345.7,1468.3 1351.2,1465.1 1351.2,1465.1 "/>
<line class="st3" x1="1345.7" y1="1469.1" x2="1345.7" y2="1468.3"/>
<polyline class="st3" points="1406.6,1464.9 1406.6,1465.7 1412.2,1468.9 1417.7,1465.7 1417.7,1464.9 "/>
<polygon class="st3" points="1412.2,1461.7 1406.6,1464.9 1406.6,1464.9 1412.2,1468.1 1417.7,1464.9 1417.7,1464.9 "/>
<line class="st3" x1="1412.2" y1="1468.9" x2="1412.2" y2="1468.1"/>
<polyline class="st3" points="1373.4,1484.1 1373.4,1484.9 1378.9,1488.1 1384.5,1484.9 1384.5,1484.1 "/>
<polygon class="st3" points="1378.9,1480.9 1373.4,1484.1 1373.4,1484.1 1378.9,1487.3 1384.5,1484.1 1384.5,1484.1 "/>
<line class="st3" x1="1378.9" y1="1488.1" x2="1378.9" y2="1487.3"/>
<polyline class="st3" points="1373.4,1445.9 1373.4,1446.8 1378.9,1450 1384.5,1446.8 1384.5,1445.9 "/>
<polygon class="st3" points="1378.9,1442.7 1373.4,1445.9 1373.4,1445.9 1378.9,1449.1 1384.5,1445.9 1384.5,1445.9 "/>
<line class="st3" x1="1378.9" y1="1450" x2="1378.9" y2="1449.1"/>
<polyline class="st3" points="1356.8,1324.5 1378.9,1318.1 1390,1311.7 1401.2,1298.9 1401.2,1298.9 1356.8,1324.5 1356.8,1324.5 
	1367.8,1311.7 1378.9,1305.3 1401.2,1298.9 "/>
<line class="st3" x1="1401.2" y1="1305.3" x2="1401.2" y2="1298.9"/>
<line class="st3" x1="1356.8" y1="1331" x2="1356.8" y2="1324.5"/>
<polyline class="st3" points="1356.7,1375.7 1378.9,1369.3 1390,1362.9 1401.1,1350 1401.1,1350 1356.7,1375.7 1356.7,1375.7 
	1367.8,1362.9 1378.9,1356.5 1401.1,1350 "/>
<line class="st3" x1="1401.1" y1="1356.4" x2="1401.1" y2="1350"/>
<line class="st3" x1="1356.7" y1="1382.1" x2="1356.7" y2="1375.7"/>
<polyline class="st3" points="1412.2,1318.1 1378.9,1330.9 1367.8,1337.3 1345.7,1356.5 1412.2,1318.1 1390,1337.3 1378.9,1343.8 
	1345.7,1356.5 "/>
<line class="st3" x1="1345.7" y1="1362.9" x2="1345.7" y2="1356.4"/>
<line class="st3" x1="1412.2" y1="1324.5" x2="1412.2" y2="1318"/>
<path class="st3" d="M1179.4,1177.2l49.6,38.3c33.3,25.7,69.9,47,108.7,63.2l63.3,26.5"/>
<path class="st3" d="M1135,1202.9l49.6,38.3c33.3,25.7,69.9,46.9,108.7,63.2l63.3,26.5"/>
<path class="st3" d="M1123.9,1234.8l49.6,38.3c33.3,25.7,69.9,47,108.7,63.2l63.3,26.5"/>
<path class="st3" d="M1135,1254.1l49.6,38.3c33.3,25.7,69.9,46.9,108.7,63.2l63.3,26.5"/>
<path class="st3" d="M1179.4,1228.3l49.6,38.3c33.3,25.7,69.9,47,108.7,63.2l63.3,26.5"/>
<path class="st3" d="M1190.5,1196.4l49.7,38.3c33.3,25.7,69.9,47,108.7,63.2l63.3,26.5"/>
<path class="st3" d="M1401.1,1305.2l49.6,38.3c33.3,25.7,69.9,47,108.7,63.2l63.3,26.5"/>
<path class="st3" d="M1412.2,1324.4l49.7,38.3c33.3,25.7,69.9,47,108.7,63.2l63.3,26.5"/>
<path class="st3" d="M1401.1,1356.3l49.7,38.3c33.3,25.7,69.9,47,108.7,63.2l63.3,26.5"/>
<path class="st3" d="M1356.7,1382l49.6,38.3c33.3,25.7,69.9,47,108.7,63.2l63.3,26.5"/>
<path class="st3" d="M1345.6,1362.8l49.6,38.3c33.4,25.7,69.9,47,108.8,63.2l63.3,26.5"/>
<path class="st3" d="M1356.7,1330.9l49.6,38.3c33.3,25.7,69.9,46.9,108.7,63.2l63.3,26.5"/>
<polyline class="st4" points="1321.8,179.5 1321.8,180.1 1294.3,195.9 1284,190 1284,189.5 "/>
<polyline class="st4" points="1311.5,173.6 1284,189.4 1284,189.5 1294.3,195.4 1321.8,179.5 1321.8,179.5 1311.5,173.6 "/>
<line class="st5" x1="1294.3" y1="195.9" x2="1294.3" y2="195.4"/>
<polyline class="st4" points="1294.3,140.4 1294.3,188 1297.8,190 1311.5,182 1311.5,134.4 "/>
<line class="st5" x1="1297.8" y1="142.4" x2="1297.8" y2="190"/>
<polygon class="st4" points="1301.2,144.4 1308.1,140.4 1308.1,152.3 1301.2,156.3 "/>
<polyline class="st4" points="1304.6,142.4 1304.6,150.3 1301.2,152.3 "/>
<line class="st5" x1="1304.6" y1="150.3" x2="1308.1" y2="152.3"/>
<polygon class="st4" points="1295.2,144.9 1296.9,145.9 1296.9,149.8 1295.2,148.8 "/>
<polygon class="st4" points="1301.2,160.2 1301.2,164.2 1308.1,160.2 1308.1,156.3 "/>
<polyline class="st4" points="1301.2,163.5 1307.2,160 1305.8,157.5 "/>
<polygon class="st4" points="1301.2,168.2 1301.2,176.1 1308.1,172.1 1308.1,164.2 "/>
<line class="st5" x1="1301.2" y1="172.1" x2="1308.1" y2="168.2"/>
<line class="st5" x1="1304.6" y1="166.2" x2="1304.6" y2="174.1"/>
<line class="st5" x1="1304" y1="166.5" x2="1304" y2="170.5"/>
<polygon class="st4" points="1301.8,172.5 1304,171.1 1304,173.8 1301.8,175.1 "/>
<polygon class="st4" points="1305.2,170.5 1307.5,169.2 1307.5,171.8 1305.2,173.1 "/>
<line class="st5" x1="1305.2" y1="165.9" x2="1305.2" y2="169.8"/>
<line class="st5" x1="1306.3" y1="157.3" x2="1308.1" y2="160.2"/>
<line class="st5" x1="1304" y1="166.5" x2="1304" y2="170.5"/>
<polygon class="st4" points="1294.3,140.4 1297.8,142.4 1311.5,134.4 1311.5,134.4 1308.1,132.5 1294.3,140.4 "/>
<ellipse transform="matrix(0.5367 -0.8438 0.8438 0.5367 460.8426 1181.5828)" class="st4" cx="1306.4" cy="171.1" rx="1" ry="0.6"/>
<polyline class="st4" points="1305.9,171.9 1307.6,173 1308.6,171.4 1306.9,170.3 "/>
<ellipse transform="matrix(0.5367 -0.8438 0.8438 0.5367 460.724 1183.5037)" class="st4" cx="1308.1" cy="172.2" rx="1" ry="0.6"/>
<ellipse transform="matrix(0.5367 -0.8438 0.8438 0.5367 457.5408 1179.606)" class="st4" cx="1302.9" cy="173.2" rx="1" ry="0.6"/>
<polyline class="st4" points="1302.4,174 1304.1,175 1305.2,173.4 1303.5,172.4 "/>
<ellipse transform="matrix(0.5367 -0.8438 0.8438 0.5367 457.4177 1181.5183)" class="st4" cx="1304.6" cy="174.2" rx="1" ry="0.6"/>
<polygon class="st4" points="1295.7,146.3 1296.4,146.7 1296.4,148.3 1295.7,147.9 "/>
<path class="st5" d="M1296,147.3L1296,147.3c-3,1.8-4.5,5.3-3.7,8.7l3.6,14.4c1,3.9,5,5.9,8.4,4l0.3-0.2"/>
<path class="st5" d="M1311.5,162.2l0.8,2c1.2,3.1-0.4,6.6-3.6,7.8c-0.2,0.1-0.5,0.2-0.7,0.2l0,0"/>
<polyline class="st4" points="1369.9,151.8 1369.9,152.3 1349.3,164.2 1339,158.2 1339,157.7 "/>
<polygon class="st4" points="1339,157.7 1349.3,163.7 1369.9,151.8 1369.9,151.8 1359.6,145.8 1339,157.7 "/>
<line class="st5" x1="1349.3" y1="164.2" x2="1349.3" y2="163.7"/>
<polyline class="st4" points="1345.8,78.9 1345.8,158.2 1349.3,160.2 1363,152.3 1363,76.9 "/>
<line class="st5" x1="1349.3" y1="160.2" x2="1349.3" y2="80.9"/>
<polyline class="st4" points="1424.8,120 1424.8,120.6 1397.4,136.4 1387.1,130.5 1387.1,130 "/>
<polyline class="st4" points="1414.6,114.1 1387.1,130 1387.1,130 1397.4,135.9 1424.8,120 1424.8,120 1414.6,114.1 "/>
<line class="st5" x1="1397.4" y1="136.4" x2="1397.4" y2="135.9"/>
<polyline class="st4" points="1397.4,80.9 1397.4,128.5 1400.8,130.5 1414.6,122.6 1414.6,74.9 "/>
<line class="st5" x1="1400.8" y1="82.9" x2="1400.8" y2="130.5"/>
<polygon class="st4" points="1404.2,84.9 1411.1,80.9 1411.1,92.8 1404.2,96.8 "/>
<polyline class="st4" points="1407.7,82.9 1407.7,90.8 1404.2,92.8 "/>
<line class="st5" x1="1407.7" y1="90.8" x2="1411.1" y2="92.8"/>
<polygon class="st4" points="1398.2,85.4 1399.9,86.3 1399.9,90.3 1398.2,89.3 "/>
<polygon class="st4" points="1404.2,100.7 1404.2,104.7 1411.1,100.7 1411.1,96.8 "/>
<polyline class="st4" points="1404.2,104 1410.3,100.5 1408.9,98.1 "/>
<polygon class="st4" points="1404.2,108.7 1404.2,116.6 1411.1,112.6 1411.1,104.7 "/>
<line class="st5" x1="1404.2" y1="112.6" x2="1411.1" y2="108.7"/>
<line class="st5" x1="1407.7" y1="106.7" x2="1407.7" y2="114.6"/>
<line class="st5" x1="1407.1" y1="107" x2="1407.1" y2="111"/>
<polygon class="st4" points="1404.8,113 1407.1,111.7 1407.1,114.3 1404.8,115.6 "/>
<polygon class="st4" points="1408.3,111 1410.5,109.7 1410.5,112.3 1408.3,113.6 "/>
<line class="st5" x1="1408.3" y1="106.4" x2="1408.3" y2="110.3"/>
<line class="st5" x1="1409.4" y1="97.8" x2="1411.1" y2="100.7"/>
<line class="st5" x1="1407.1" y1="107" x2="1407.1" y2="111"/>
<polygon class="st4" points="1397.4,80.9 1400.8,82.9 1414.6,74.9 1414.6,74.9 1411.1,73 1397.4,80.9 "/>
<ellipse transform="matrix(0.5367 -0.8438 0.8438 0.5367 558.7811 1240.9647)" class="st4" cx="1409.4" cy="111.6" rx="1" ry="0.6"/>
<polyline class="st4" points="1408.9,112.4 1410.6,113.5 1411.7,111.9 1410,110.8 "/>
<ellipse transform="matrix(0.5367 -0.8438 0.8438 0.5367 558.6619 1242.8951)" class="st4" cx="1411.1" cy="112.7" rx="1" ry="0.6"/>
<ellipse transform="matrix(0.5367 -0.8438 0.8438 0.5367 555.489 1238.9884)" class="st4" cx="1406" cy="113.7" rx="1" ry="0.6"/>
<polyline class="st4" points="1405.5,114.5 1407.2,115.5 1408.2,113.9 1406.6,112.9 "/>
<ellipse transform="matrix(0.5367 -0.8438 0.8438 0.5367 555.3651 1240.9104)" class="st4" cx="1407.7" cy="114.7" rx="1" ry="0.6"/>
<polygon class="st4" points="1398.7,86.8 1399.4,87.2 1399.4,88.8 1398.7,88.4 "/>
<path class="st5" d="M1399.1,87.8L1399.1,87.8c-3,1.8-4.5,5.3-3.7,8.7l3.6,14.4c0.9,3.8,5,5.9,8.4,4l0.3-0.2"/>
<path class="st5" d="M1414.6,102.7l0.8,2c1.2,3.1-0.4,6.6-3.5,7.8c-0.3,0.1-0.5,0.2-0.8,0.2l0,0"/>
<polygon class="st4" points="1205.1,104.7 1205.1,108.7 1246.3,140.4 1246.3,140.4 1246.3,136.4 1205.1,104.7 "/>
<polygon class="st4" points="1205.1,104.7 1373.4,7.5 1414.6,39.3 1246.3,136.4 1205.1,104.7 "/>
<polygon class="st4" points="1280.6,144.4 1246.3,140.4 1246.3,140.4 1246.3,136.4 1280.6,140.4 1449,43.2 1449,47.2 "/>
<polygon class="st4" points="1414.6,39.3 1449,43.2 1280.6,140.4 1246.3,136.4 1246.3,136.4 "/>
<polygon class="st4" points="1256.6,134.4 1414.6,43.2 1438.9,45.1 1280.6,136.4 "/>
<polygon class="st4" points="1211.9,104.7 1246.3,132.5 1407.7,39.3 1373.4,11.5 "/>
<line class="st5" x1="1214.8" y1="107" x2="1376.2" y2="13.8"/>
<line class="st5" x1="1217.7" y1="109.3" x2="1379.1" y2="16.1"/>
<line class="st5" x1="1220.5" y1="111.7" x2="1382" y2="18.4"/>
<line class="st5" x1="1384.8" y1="20.7" x2="1223.4" y2="114"/>
<line class="st5" x1="1226.2" y1="116.3" x2="1387.7" y2="23"/>
<line class="st5" x1="1390.6" y1="25.4" x2="1229.1" y2="118.6"/>
<line class="st5" x1="1231.9" y1="120.9" x2="1393.4" y2="27.7"/>
<line class="st5" x1="1396.3" y1="30" x2="1234.8" y2="123.2"/>
<line class="st5" x1="1237.7" y1="125.5" x2="1399.1" y2="32.3"/>
<line class="st5" x1="1402" y1="34.6" x2="1240.5" y2="127.8"/>
<line class="st5" x1="1243.4" y1="130.2" x2="1404.9" y2="36.9"/>
<line class="st5" x1="1215.4" y1="102.7" x2="1249.7" y2="130.5"/>
<line class="st5" x1="1218.8" y1="100.7" x2="1253.2" y2="128.5"/>
<line class="st5" x1="1222.2" y1="98.8" x2="1256.6" y2="126.5"/>
<line class="st5" x1="1225.7" y1="96.8" x2="1260" y2="124.5"/>
<line class="st5" x1="1229.1" y1="94.8" x2="1263.4" y2="122.6"/>
<line class="st5" x1="1232.5" y1="92.8" x2="1266.9" y2="120.6"/>
<line class="st5" x1="1236" y1="90.8" x2="1270.3" y2="118.6"/>
<line class="st5" x1="1239.4" y1="88.8" x2="1273.8" y2="116.6"/>
<line class="st5" x1="1242.8" y1="86.8" x2="1277.2" y2="114.6"/>
<line class="st5" x1="1246.3" y1="84.9" x2="1280.6" y2="112.6"/>
<line class="st5" x1="1249.7" y1="82.9" x2="1284.1" y2="110.7"/>
<line class="st5" x1="1253.2" y1="80.9" x2="1287.5" y2="108.7"/>
<line class="st5" x1="1256.6" y1="78.9" x2="1290.9" y2="106.7"/>
<line class="st5" x1="1260" y1="76.9" x2="1294.4" y2="104.7"/>
<line class="st5" x1="1263.4" y1="74.9" x2="1297.8" y2="102.7"/>
<line class="st5" x1="1266.9" y1="73" x2="1301.2" y2="100.7"/>
<line class="st5" x1="1270.3" y1="71" x2="1304.7" y2="98.8"/>
<line class="st5" x1="1273.8" y1="69" x2="1308.1" y2="96.8"/>
<line class="st5" x1="1277.2" y1="67" x2="1311.5" y2="94.8"/>
<line class="st5" x1="1280.6" y1="65" x2="1315" y2="92.8"/>
<line class="st5" x1="1284.1" y1="63" x2="1318.4" y2="90.8"/>
<line class="st5" x1="1287.5" y1="61.1" x2="1321.8" y2="88.8"/>
<line class="st5" x1="1290.9" y1="59.1" x2="1325.3" y2="86.8"/>
<line class="st5" x1="1294.4" y1="57.1" x2="1328.7" y2="84.9"/>
<line class="st5" x1="1297.8" y1="55.1" x2="1332.2" y2="82.9"/>
<line class="st5" x1="1301.2" y1="53.1" x2="1335.6" y2="80.9"/>
<line class="st5" x1="1304.7" y1="51.2" x2="1339" y2="78.9"/>
<line class="st5" x1="1308.1" y1="49.2" x2="1342.5" y2="76.9"/>
<line class="st5" x1="1311.5" y1="47.2" x2="1345.9" y2="74.9"/>
<line class="st5" x1="1315" y1="45.2" x2="1349.3" y2="73"/>
<line class="st5" x1="1318.4" y1="43.2" x2="1352.8" y2="71"/>
<line class="st5" x1="1321.8" y1="41.2" x2="1356.2" y2="69"/>
<line class="st5" x1="1325.3" y1="39.3" x2="1359.6" y2="67"/>
<line class="st5" x1="1328.7" y1="37.3" x2="1363" y2="65"/>
<line class="st5" x1="1332.2" y1="35.3" x2="1366.5" y2="63"/>
<line class="st5" x1="1335.6" y1="33.3" x2="1369.9" y2="61.1"/>
<line class="st5" x1="1339" y1="31.3" x2="1373.4" y2="59.1"/>
<line class="st5" x1="1342.5" y1="29.3" x2="1376.8" y2="57.1"/>
<line class="st5" x1="1345.9" y1="27.4" x2="1380.3" y2="55.1"/>
<line class="st5" x1="1349.3" y1="25.4" x2="1383.7" y2="53.1"/>
<line class="st5" x1="1352.8" y1="23.4" x2="1387.1" y2="51.2"/>
<line class="st5" x1="1356.2" y1="21.4" x2="1390.6" y2="49.2"/>
<line class="st5" x1="1359.6" y1="19.4" x2="1394" y2="47.2"/>
<line class="st5" x1="1363.1" y1="17.4" x2="1397.4" y2="45.2"/>
<line class="st5" x1="1366.5" y1="15.4" x2="1400.8" y2="43.2"/>
<line class="st5" x1="1369.9" y1="13.5" x2="1404.3" y2="41.2"/>
<line class="st5" x1="1420.7" y1="43.7" x2="1262.6" y2="134.9"/>
<line class="st5" x1="1268.6" y1="135.4" x2="1426.7" y2="44.1"/>
<line class="st5" x1="1432.8" y1="44.6" x2="1274.6" y2="135.9"/>
<line class="st5" x1="1260" y1="132.5" x2="1284.1" y2="134.4"/>
<line class="st5" x1="1263.4" y1="130.5" x2="1287.5" y2="132.5"/>
<line class="st5" x1="1266.9" y1="128.5" x2="1290.9" y2="130.5"/>
<line class="st5" x1="1270.3" y1="126.5" x2="1294.4" y2="128.5"/>
<line class="st5" x1="1273.8" y1="124.5" x2="1297.8" y2="126.5"/>
<line class="st5" x1="1277.2" y1="122.6" x2="1301.3" y2="124.5"/>
<line class="st5" x1="1280.6" y1="120.6" x2="1304.7" y2="122.6"/>
<line class="st5" x1="1284.1" y1="118.6" x2="1308.1" y2="120.6"/>
<line class="st5" x1="1287.5" y1="116.6" x2="1311.6" y2="118.6"/>
<line class="st5" x1="1290.9" y1="114.6" x2="1315" y2="116.6"/>
<line class="st5" x1="1294.4" y1="112.6" x2="1318.4" y2="114.6"/>
<line class="st5" x1="1297.8" y1="110.7" x2="1321.8" y2="112.6"/>
<line class="st5" x1="1301.2" y1="108.7" x2="1325.3" y2="110.7"/>
<line class="st5" x1="1304.7" y1="106.7" x2="1328.7" y2="108.7"/>
<line class="st5" x1="1308.1" y1="104.7" x2="1332.2" y2="106.7"/>
<line class="st5" x1="1311.5" y1="102.7" x2="1335.6" y2="104.7"/>
<line class="st5" x1="1315" y1="100.7" x2="1339" y2="102.7"/>
<line class="st5" x1="1318.4" y1="98.8" x2="1342.5" y2="100.7"/>
<line class="st5" x1="1321.8" y1="96.8" x2="1345.9" y2="98.8"/>
<line class="st5" x1="1325.3" y1="94.8" x2="1349.3" y2="96.8"/>
<line class="st5" x1="1328.7" y1="92.8" x2="1352.8" y2="94.8"/>
<line class="st5" x1="1332.2" y1="90.8" x2="1356.2" y2="92.8"/>
<line class="st5" x1="1335.6" y1="88.8" x2="1359.7" y2="90.8"/>
<line class="st5" x1="1339" y1="86.8" x2="1363.1" y2="88.8"/>
<line class="st5" x1="1342.5" y1="84.9" x2="1366.5" y2="86.8"/>
<line class="st5" x1="1345.9" y1="82.9" x2="1369.9" y2="84.9"/>
<line class="st5" x1="1349.3" y1="80.9" x2="1373.4" y2="82.9"/>
<line class="st5" x1="1352.8" y1="78.9" x2="1376.8" y2="80.9"/>
<line class="st5" x1="1356.2" y1="76.9" x2="1380.3" y2="78.9"/>
<line class="st5" x1="1359.6" y1="74.9" x2="1383.7" y2="76.9"/>
<line class="st5" x1="1363.1" y1="73" x2="1387.1" y2="74.9"/>
<line class="st5" x1="1366.5" y1="71" x2="1390.6" y2="73"/>
<line class="st5" x1="1369.9" y1="69" x2="1394" y2="71"/>
<line class="st5" x1="1373.4" y1="67" x2="1397.4" y2="69"/>
<line class="st5" x1="1376.8" y1="65" x2="1400.9" y2="67"/>
<line class="st5" x1="1380.2" y1="63" x2="1404.3" y2="65"/>
<line class="st5" x1="1383.7" y1="61.1" x2="1407.7" y2="63"/>
<line class="st5" x1="1387.1" y1="59.1" x2="1411.2" y2="61.1"/>
<line class="st5" x1="1390.6" y1="57.1" x2="1414.6" y2="59.1"/>
<line class="st5" x1="1394" y1="55.1" x2="1418" y2="57.1"/>
<line class="st5" x1="1397.4" y1="53.1" x2="1421.5" y2="55.1"/>
<line class="st5" x1="1400.9" y1="51.2" x2="1424.9" y2="53.1"/>
<line class="st5" x1="1404.3" y1="49.2" x2="1428.3" y2="51.2"/>
<line class="st5" x1="1407.7" y1="47.2" x2="1431.8" y2="49.2"/>
<line class="st5" x1="1411.2" y1="45.2" x2="1435.2" y2="47.2"/>
<polyline class="st4" points="1480.9,271.6 1480.9,272.1 1453.4,288 1443.1,282 1443.1,281.5 "/>
<polyline class="st4" points="1470.6,265.7 1443.1,281.5 1443.1,281.5 1453.4,287.5 1480.9,271.6 1480.9,271.6 1470.6,265.7 "/>
<line class="st5" x1="1453.4" y1="288" x2="1453.4" y2="287.5"/>
<polyline class="st4" points="1453.4,232.5 1453.4,280.1 1456.8,282 1470.6,274.1 1470.6,226.5 "/>
<line class="st5" x1="1456.8" y1="234.4" x2="1456.8" y2="282"/>
<polygon class="st4" points="1460.3,236.4 1467.1,232.5 1467.1,244.4 1460.3,248.3 "/>
<polyline class="st4" points="1463.7,234.4 1463.7,242.4 1460.3,244.4 "/>
<line class="st5" x1="1463.7" y1="242.4" x2="1467.1" y2="244.4"/>
<polygon class="st4" points="1454.3,236.9 1456,237.9 1456,241.9 1454.3,240.9 "/>
<polygon class="st4" points="1460.3,252.3 1460.3,256.3 1467.1,252.3 1467.1,248.3 "/>
<polyline class="st4" points="1460.3,255.6 1466.3,252.1 1464.9,249.6 "/>
<polygon class="st4" points="1460.3,260.2 1460.3,268.2 1467.1,264.2 1467.1,256.3 "/>
<line class="st5" x1="1460.3" y1="264.2" x2="1467.1" y2="260.2"/>
<line class="st5" x1="1463.7" y1="258.2" x2="1463.7" y2="266.2"/>
<line class="st5" x1="1463.1" y1="258.6" x2="1463.1" y2="262.5"/>
<polygon class="st4" points="1460.9,264.5 1463.1,263.2 1463.1,265.8 1460.9,267.1 "/>
<polygon class="st4" points="1464.3,262.5 1466.6,261.3 1466.6,263.9 1464.3,265.1 "/>
<line class="st5" x1="1464.3" y1="257.9" x2="1464.3" y2="261.9"/>
<line class="st5" x1="1465.4" y1="249.3" x2="1467.1" y2="252.3"/>
<line class="st5" x1="1463.1" y1="258.6" x2="1463.1" y2="262.5"/>
<polygon class="st4" points="1453.4,232.5 1456.8,234.4 1470.6,226.5 1470.6,226.5 1467.1,224.5 1453.4,232.5 "/>
<ellipse transform="matrix(0.5367 -0.8438 0.8438 0.5367 456.8614 1358.4586)" class="st4" cx="1465.5" cy="263.2" rx="1" ry="0.5"/>
<polyline class="st4" points="1465,264 1466.7,265.1 1467.7,263.5 1466,262.4 "/>
<ellipse transform="matrix(0.5367 -0.8438 0.8438 0.5367 456.7429 1360.3794)" class="st4" cx="1467.2" cy="264.3" rx="1" ry="0.5"/>
<ellipse transform="matrix(0.5367 -0.8438 0.8438 0.5367 453.5693 1356.4824)" class="st4" cx="1462" cy="265.2" rx="1" ry="0.5"/>
<polyline class="st4" points="1461.5,266 1463.2,267.1 1464.2,265.5 1462.6,264.4 "/>
<ellipse transform="matrix(0.5367 -0.8438 0.8438 0.5367 453.4461 1358.3948)" class="st4" cx="1463.7" cy="266.3" rx="1" ry="0.5"/>
<polygon class="st4" points="1454.8,238.4 1455.5,238.8 1455.5,240.4 1454.8,240 "/>
<path class="st5" d="M1455.1,239.4L1455.1,239.4c-3,1.8-4.5,5.3-3.7,8.7l3.6,14.4c1,3.9,5,5.9,8.4,4l0.3-0.2"/>
<path class="st5" d="M1470.6,254.3l0.8,2c1.2,3.1-0.4,6.6-3.5,7.8c-0.3,0.1-0.5,0.2-0.8,0.2l0,0"/>
<polyline class="st4" points="1529,243.8 1529,244.4 1508.4,256.3 1498.1,250.3 1498.1,249.8 "/>
<polygon class="st4" points="1498.1,249.8 1508.4,255.7 1529,243.8 1529,243.8 1518.7,237.9 1498.1,249.8 "/>
<line class="st5" x1="1508.4" y1="256.3" x2="1508.4" y2="255.7"/>
<polyline class="st4" points="1504.9,171 1504.9,250.3 1508.4,252.3 1522.1,244.4 1522.1,169 "/>
<line class="st5" x1="1508.4" y1="252.3" x2="1508.4" y2="173"/>
<polyline class="st4" points="1583.9,212.1 1583.9,212.6 1556.5,228.5 1546.2,222.5 1546.2,222 "/>
<polyline class="st4" points="1573.6,206.2 1546.2,222 1546.2,222 1556.5,228 1583.9,212.1 1583.9,212.1 1573.6,206.2 "/>
<line class="st5" x1="1556.5" y1="228.5" x2="1556.5" y2="228"/>
<polyline class="st4" points="1556.5,173 1556.5,220.6 1559.9,222.6 1573.6,214.6 1573.6,167 "/>
<line class="st5" x1="1559.9" y1="174.9" x2="1559.9" y2="222.6"/>
<polygon class="st4" points="1563.3,176.9 1570.2,173 1570.2,184.9 1563.3,188.8 "/>
<polyline class="st4" points="1566.8,174.9 1566.8,182.9 1563.3,184.9 "/>
<line class="st5" x1="1566.8" y1="182.9" x2="1570.2" y2="184.9"/>
<polygon class="st4" points="1557.3,177.4 1559,178.4 1559,182.4 1557.3,181.4 "/>
<polygon class="st4" points="1563.3,192.8 1563.3,196.8 1570.2,192.8 1570.2,188.8 "/>
<polyline class="st4" points="1563.3,196.1 1569.4,192.6 1568,190.1 "/>
<polygon class="st4" points="1563.3,200.7 1563.3,208.7 1570.2,204.7 1570.2,196.8 "/>
<line class="st5" x1="1563.3" y1="204.7" x2="1570.2" y2="200.7"/>
<line class="st5" x1="1566.8" y1="198.8" x2="1566.8" y2="206.7"/>
<line class="st5" x1="1566.2" y1="199.1" x2="1566.2" y2="203.1"/>
<polygon class="st4" points="1563.9,205 1566.2,203.7 1566.2,206.3 1563.9,207.7 "/>
<polygon class="st4" points="1567.4,203.1 1569.6,201.8 1569.6,204.4 1567.4,205.6 "/>
<line class="st5" x1="1567.4" y1="198.4" x2="1567.4" y2="202.4"/>
<line class="st5" x1="1568.5" y1="189.8" x2="1570.2" y2="192.8"/>
<line class="st5" x1="1566.2" y1="199.1" x2="1566.2" y2="203.1"/>
<polygon class="st4" points="1556.5,173 1559.9,174.9 1573.6,167 1573.6,167 1570.2,165 1556.5,173 "/>
<ellipse transform="matrix(0.5367 -0.8438 0.8438 0.5367 554.7994 1417.8501)" class="st4" cx="1568.5" cy="203.7" rx="1" ry="0.6"/>
<polyline class="st4" points="1568,204.5 1569.7,205.6 1570.7,204 1569.1,202.9 "/>
<ellipse transform="matrix(0.5367 -0.8438 0.8438 0.5367 554.6807 1419.7709)" class="st4" cx="1570.2" cy="204.8" rx="1" ry="0.6"/>
<ellipse transform="matrix(0.5367 -0.8438 0.8438 0.5367 551.5078 1415.8643)" class="st4" cx="1565.1" cy="205.7" rx="1" ry="0.6"/>
<polyline class="st4" points="1564.6,206.5 1566.3,207.6 1567.3,206 1565.6,204.9 "/>
<ellipse transform="matrix(0.5367 -0.8438 0.8438 0.5367 551.3887 1417.7947)" class="st4" cx="1566.8" cy="206.8" rx="1" ry="0.6"/>
<polygon class="st4" points="1557.8,178.9 1558.5,179.3 1558.5,180.9 1557.8,180.5 "/>
<path class="st5" d="M1558.1,179.9L1558.1,179.9c-3,1.8-4.5,5.3-3.7,8.7l3.6,14.4c1,3.9,5,5.9,8.4,4l0.3-0.2"/>
<path class="st5" d="M1573.7,194.8l0.8,2c1.2,3.1-0.4,6.6-3.6,7.8c-0.2,0.1-0.5,0.2-0.7,0.2l0,0"/>
<polygon class="st4" points="1364.1,196.8 1364.1,200.7 1405.4,232.5 1405.4,232.5 1405.4,228.5 1364.1,196.8 "/>
<polygon class="st4" points="1364.1,196.8 1532.5,99.6 1573.7,131.3 1405.4,228.5 1364.1,196.8 "/>
<polygon class="st4" points="1439.7,236.4 1405.3,232.5 1405.3,232.5 1405.3,228.5 1439.7,232.5 1608.1,135.3 1608.1,139.2 "/>
<polygon class="st4" points="1573.7,131.3 1608.1,135.3 1439.7,232.5 1405.3,228.5 1405.3,228.5 "/>
<polygon class="st4" points="1415.7,226.5 1573.7,135.3 1598,137.1 1439.7,228.5 "/>
<polygon class="st4" points="1371,196.8 1405.3,224.6 1566.8,131.3 1532.5,103.5 "/>
<line class="st5" x1="1373.9" y1="199.1" x2="1535.3" y2="105.9"/>
<line class="st5" x1="1376.7" y1="201.4" x2="1538.2" y2="108.2"/>
<line class="st5" x1="1379.6" y1="203.7" x2="1541.1" y2="110.5"/>
<line class="st5" x1="1543.9" y1="112.8" x2="1382.4" y2="206"/>
<line class="st5" x1="1385.3" y1="208.3" x2="1546.8" y2="115.1"/>
<line class="st5" x1="1549.6" y1="117.4" x2="1388.2" y2="210.6"/>
<line class="st5" x1="1391" y1="213" x2="1552.5" y2="119.7"/>
<line class="st5" x1="1555.4" y1="122.1" x2="1393.9" y2="215.3"/>
<line class="st5" x1="1396.7" y1="217.6" x2="1558.2" y2="124.4"/>
<line class="st5" x1="1561.1" y1="126.7" x2="1399.6" y2="219.9"/>
<line class="st5" x1="1402.5" y1="222.2" x2="1563.9" y2="129"/>
<line class="st5" x1="1374.4" y1="194.8" x2="1408.8" y2="222.6"/>
<line class="st5" x1="1377.9" y1="192.8" x2="1412.2" y2="220.6"/>
<line class="st5" x1="1381.3" y1="190.8" x2="1415.7" y2="218.6"/>
<line class="st5" x1="1384.8" y1="188.8" x2="1419.1" y2="216.6"/>
<line class="st5" x1="1388.2" y1="186.9" x2="1422.5" y2="214.6"/>
<line class="st5" x1="1391.6" y1="184.9" x2="1426" y2="212.6"/>
<line class="st5" x1="1395.1" y1="182.9" x2="1429.4" y2="210.6"/>
<line class="st5" x1="1398.5" y1="180.9" x2="1432.8" y2="208.7"/>
<line class="st5" x1="1401.9" y1="178.9" x2="1436.3" y2="206.7"/>
<line class="st5" x1="1405.4" y1="176.9" x2="1439.7" y2="204.7"/>
<line class="st5" x1="1408.8" y1="174.9" x2="1443.2" y2="202.7"/>
<line class="st5" x1="1412.2" y1="173" x2="1446.6" y2="200.7"/>
<line class="st5" x1="1415.7" y1="171" x2="1450" y2="198.8"/>
<line class="st5" x1="1419.1" y1="169" x2="1453.4" y2="196.8"/>
<line class="st5" x1="1422.5" y1="167" x2="1456.9" y2="194.8"/>
<line class="st5" x1="1426" y1="165" x2="1460.3" y2="192.8"/>
<line class="st5" x1="1429.4" y1="163.1" x2="1463.8" y2="190.8"/>
<line class="st5" x1="1432.8" y1="161.1" x2="1467.2" y2="188.8"/>
<line class="st5" x1="1436.3" y1="159.1" x2="1470.6" y2="186.9"/>
<line class="st5" x1="1439.7" y1="157.1" x2="1474.1" y2="184.9"/>
<line class="st5" x1="1443.2" y1="155.1" x2="1477.5" y2="182.9"/>
<line class="st5" x1="1446.6" y1="153.1" x2="1480.9" y2="180.9"/>
<line class="st5" x1="1450" y1="151.1" x2="1484.4" y2="178.9"/>
<line class="st5" x1="1453.4" y1="149.2" x2="1487.8" y2="176.9"/>
<line class="st5" x1="1456.9" y1="147.2" x2="1491.2" y2="174.9"/>
<line class="st5" x1="1460.3" y1="145.2" x2="1494.7" y2="173"/>
<line class="st5" x1="1463.8" y1="143.2" x2="1498.1" y2="171"/>
<line class="st5" x1="1467.2" y1="141.2" x2="1501.6" y2="169"/>
<line class="st5" x1="1470.6" y1="139.3" x2="1505" y2="167"/>
<line class="st5" x1="1474.1" y1="137.3" x2="1508.4" y2="165"/>
<line class="st5" x1="1477.5" y1="135.3" x2="1511.8" y2="163.1"/>
<line class="st5" x1="1480.9" y1="133.3" x2="1515.3" y2="161.1"/>
<line class="st5" x1="1484.4" y1="131.3" x2="1518.7" y2="159.1"/>
<line class="st5" x1="1487.8" y1="129.3" x2="1522.1" y2="157.1"/>
<line class="st5" x1="1491.2" y1="127.3" x2="1525.6" y2="155.1"/>
<line class="st5" x1="1494.7" y1="125.4" x2="1529" y2="153.1"/>
<line class="st5" x1="1498.1" y1="123.4" x2="1532.5" y2="151.1"/>
<line class="st5" x1="1501.6" y1="121.4" x2="1535.9" y2="149.2"/>
<line class="st5" x1="1505" y1="119.4" x2="1539.3" y2="147.2"/>
<line class="st5" x1="1508.4" y1="117.4" x2="1542.8" y2="145.2"/>
<line class="st5" x1="1511.8" y1="115.4" x2="1546.2" y2="143.2"/>
<line class="st5" x1="1515.3" y1="113.5" x2="1549.6" y2="141.2"/>
<line class="st5" x1="1518.7" y1="111.5" x2="1553.1" y2="139.3"/>
<line class="st5" x1="1522.2" y1="109.5" x2="1556.5" y2="137.3"/>
<line class="st5" x1="1525.6" y1="107.5" x2="1559.9" y2="135.3"/>
<line class="st5" x1="1529" y1="105.5" x2="1563.4" y2="133.3"/>
<line class="st5" x1="1579.7" y1="135.7" x2="1421.7" y2="227"/>
<line class="st5" x1="1427.7" y1="227.5" x2="1585.8" y2="136.2"/>
<line class="st5" x1="1591.9" y1="136.7" x2="1433.7" y2="228"/>
<line class="st5" x1="1419.1" y1="224.6" x2="1443.2" y2="226.5"/>
<line class="st5" x1="1422.5" y1="222.6" x2="1446.6" y2="224.6"/>
<line class="st5" x1="1426" y1="220.6" x2="1450" y2="222.6"/>
<line class="st5" x1="1429.4" y1="218.6" x2="1453.4" y2="220.6"/>
<line class="st5" x1="1432.9" y1="216.6" x2="1456.9" y2="218.6"/>
<line class="st5" x1="1436.3" y1="214.6" x2="1460.3" y2="216.6"/>
<line class="st5" x1="1439.7" y1="212.6" x2="1463.8" y2="214.6"/>
<line class="st5" x1="1443.2" y1="210.6" x2="1467.2" y2="212.6"/>
<line class="st5" x1="1446.6" y1="208.7" x2="1470.6" y2="210.6"/>
<line class="st5" x1="1450" y1="206.7" x2="1474.1" y2="208.7"/>
<line class="st5" x1="1453.4" y1="204.7" x2="1477.5" y2="206.7"/>
<line class="st5" x1="1456.9" y1="202.7" x2="1480.9" y2="204.7"/>
<line class="st5" x1="1460.3" y1="200.7" x2="1484.4" y2="202.7"/>
<line class="st5" x1="1463.8" y1="198.8" x2="1487.8" y2="200.7"/>
<line class="st5" x1="1467.2" y1="196.8" x2="1491.2" y2="198.8"/>
<line class="st5" x1="1470.6" y1="194.8" x2="1494.7" y2="196.8"/>
<line class="st5" x1="1474.1" y1="192.8" x2="1498.1" y2="194.8"/>
<line class="st5" x1="1477.5" y1="190.8" x2="1501.5" y2="192.8"/>
<line class="st5" x1="1480.9" y1="188.8" x2="1505" y2="190.8"/>
<line class="st5" x1="1484.4" y1="186.9" x2="1508.4" y2="188.8"/>
<line class="st5" x1="1487.8" y1="184.9" x2="1511.8" y2="186.9"/>
<line class="st5" x1="1491.2" y1="182.9" x2="1515.3" y2="184.9"/>
<line class="st5" x1="1494.7" y1="180.9" x2="1518.7" y2="182.9"/>
<line class="st5" x1="1498.1" y1="178.9" x2="1522.2" y2="180.9"/>
<line class="st5" x1="1501.5" y1="176.9" x2="1525.6" y2="178.9"/>
<line class="st5" x1="1505" y1="174.9" x2="1529" y2="176.9"/>
<line class="st5" x1="1508.4" y1="173" x2="1532.5" y2="174.9"/>
<line class="st5" x1="1511.8" y1="171" x2="1535.9" y2="173"/>
<line class="st5" x1="1515.3" y1="169" x2="1539.3" y2="171"/>
<line class="st5" x1="1518.7" y1="167" x2="1542.8" y2="169"/>
<line class="st5" x1="1522.2" y1="165" x2="1546.2" y2="167"/>
<line class="st5" x1="1525.6" y1="163.1" x2="1549.6" y2="165"/>
<line class="st5" x1="1529" y1="161.1" x2="1553.1" y2="163.1"/>
<line class="st5" x1="1532.5" y1="159.1" x2="1556.5" y2="161.1"/>
<line class="st5" x1="1535.9" y1="157.1" x2="1559.9" y2="159.1"/>
<line class="st5" x1="1539.3" y1="155.1" x2="1563.4" y2="157.1"/>
<line class="st5" x1="1542.8" y1="153.1" x2="1566.8" y2="155.1"/>
<line class="st5" x1="1546.2" y1="151.1" x2="1570.2" y2="153.1"/>
<line class="st5" x1="1549.6" y1="149.2" x2="1573.7" y2="151.1"/>
<line class="st5" x1="1553.1" y1="147.2" x2="1577.1" y2="149.2"/>
<line class="st5" x1="1556.5" y1="145.2" x2="1580.6" y2="147.2"/>
<line class="st5" x1="1559.9" y1="143.2" x2="1584" y2="145.2"/>
<line class="st5" x1="1563.4" y1="141.2" x2="1587.4" y2="143.2"/>
<line class="st5" x1="1566.8" y1="139.2" x2="1590.9" y2="141.2"/>
<line class="st5" x1="1570.2" y1="137.3" x2="1594.3" y2="139.3"/>
<path class="st4" d="M618.1,1628.7v8.7l-5.3-3c-1.4-0.8-2.3-2.3-2.3-3.9v-6.1"/>
<ellipse transform="matrix(0.153 -0.9882 0.9882 0.153 -1086.8821 1993.9644)" class="st4" cx="619.8" cy="1631" rx="6.6" ry="4.9"/>
<path class="st4" d="M588,1646.1v8.7l-5.3-3c-1.4-0.8-2.3-2.3-2.3-3.9v-6.1"/>
<ellipse transform="matrix(0.1498 -0.9887 0.9887 0.1498 -1128.4744 1984.4657)" class="st6" cx="589.7" cy="1648.4" rx="6.6" ry="4.9"/>
<ellipse transform="matrix(0.153 -0.9882 0.9882 0.153 -1129.5469 1978.9357)" class="st4" cx="589.7" cy="1648.4" rx="3.7" ry="2.7"/>
<path class="st4" d="M597.8,1594.8l4-2.3c4-2.3,8.8-2.2,12.8,0.1l18.4,10.9"/>
<path class="st4" d="M620.4,1607.8l-22.6-13c-4.7-2.7-10.4-2.7-15.1,0l-14.2,8.2c-5.5,3.2-10.1,7.8-13.3,13.3l-2.7,4.6l-8,4.6
	c-2.1,1.2-3.3,3.4-3.3,5.8v13.4l22.6,13.2l0,0v-13.5c0-2.4,1.3-4.6,3.3-5.8l8.8-5.1"/>
<path class="st4" d="M575.3,1642.6v-3.4c0-3.5,0.9-6.9,2.7-9.9l0,0c3.2-5.5,7.8-10.1,13.3-13.3l14.2-8.2c4.7-2.7,10.4-2.7,15.1,0
	l0,0l7.5-4.3c2.4-1.4,5.4-0.6,6.8,1.8c0.4,0.8,0.7,1.6,0.7,2.5v0.1l-3.8,10.9l-7.5,4.4l-2.7-0.5c-3.9-0.8-7.7,1.8-8.4,5.7
	c-0.1,0.4-0.1,0.9-0.1,1.3l0,0l-18.8,10.8l-2.7-0.5c-3.9-0.8-7.7,1.8-8.4,5.7c-0.1,0.4-0.1,0.9-0.1,1.4l0,0l-18.8,10.9"/>
<line class="st5" x1="561.3" y1="1608.5" x2="584.5" y2="1621"/>
<polyline class="st5" points="635.5,1607.8 564,1649.1 541.4,1636.1 "/>
<path class="st4" d="M586.5,1636.1L586.5,1636.1c0-8.1,4.3-15.5,11.3-19.6l5.2-3c5.7-3.3,13.1-2.1,17.4,3l0,0"/>
<line class="st5" x1="552.7" y1="1620.9" x2="576.1" y2="1633.4"/>
<line class="st5" x1="601.8" y1="1614.2" x2="601.8" y2="1635.9"/>
<path class="st4" d="M564,1649.1l-7.5-4.3l0,0c0,2.7,1.5,5.1,3.9,6.3l0,0c1.1,0.6,2.4,0.8,3.6,0.7V1649.1z"/>
<path class="st4" d="M541.4,1636.1l7.5,4.4l0,0c-2.3,1.7-5.4,1.5-7.5-0.4L541.4,1636.1z"/>
<path class="st4" d="M631.8,1602.8l-2.8,1.6c-0.9,0.5-1.2,1.6-0.7,2.5c0.2,0.3,0.4,0.5,0.7,0.7l0,0l2.3-1.1c1-0.5,1.9-1.2,2.6-2.2
	l-1-0.8L631.8,1602.8z"/>
<line class="st5" x1="586.5" y1="1636.1" x2="620.3" y2="1616.5"/>
<polyline class="st7" points="862.4,1329.7 862.4,1570.7 806.2,1603.2 768.7,1581.5 768.7,1340.6 "/>
<polyline class="st7" points="768.7,1343.4 806.2,1365 862.4,1332.6 "/>
<polygon class="st7" points="825,1308.1 768.7,1340.6 768.7,1340.6 806.2,1362.2 862.4,1329.7 862.4,1329.7 "/>
<polygon class="st7" points="825,1310.9 773.6,1340.6 806.2,1359.4 857.6,1329.7 "/>
<polyline class="st7" points="855.2,1331.2 825,1313.7 776,1342 "/>
<line class="st0" x1="825" y1="1310.9" x2="825" y2="1313.7"/>
<line class="st0" x1="806.2" y1="1362.2" x2="806.2" y2="1603.2"/>
<polyline class="st7" points="1349.8,831.9 1349.8,1116.1 1274.8,1159.4 1199.8,1116.1 1199.8,831.9 "/>
<polyline class="st7" points="1199.8,834.7 1274.8,878 1349.8,834.7 "/>
<polygon class="st7" points="1274.8,788.6 1199.8,831.9 1199.8,831.9 1274.8,875.2 1349.8,831.9 1349.8,831.9 "/>
<polygon class="st7" points="1274.8,791.4 1204.7,831.9 1274.8,872.4 1344.9,831.9 "/>
<polyline class="st7" points="1342.4,833.3 1274.8,794.3 1207.1,833.3 "/>
<line class="st0" x1="1274.8" y1="791.4" x2="1274.8" y2="794.3"/>
<line class="st0" x1="1274.8" y1="875.2" x2="1274.8" y2="1159.4"/>
<polygon class="st7" points="1293.5,823.9 1274.8,834.7 1256,823.9 1256,780.6 1274.8,769.8 1293.5,791.4 "/>
<polyline class="st7" points="1256,780.6 1274.8,802.3 1293.5,791.4 "/>
<line class="st0" x1="1274.8" y1="802.3" x2="1274.8" y2="834.7"/>
<polyline class="st7" points="937.4,74 937.4,315 1031.1,369.1 1106.1,325.8 1106.1,84.8 "/>
<polyline class="st7" points="937.4,76.9 1031.1,131 1106.1,87.7 "/>
<polygon class="st7" points="1106.1,84.8 1012.3,30.7 937.4,74 937.4,74 1031.1,128.1 1106.1,84.8 "/>
<polygon class="st7" points="1012.3,33.6 1101.1,84.8 1031.1,125.2 942.3,74 "/>
<polyline class="st7" points="1098.6,86.2 1012.3,36.4 944.8,75.4 "/>
<line class="st0" x1="1012.3" y1="33.6" x2="1012.3" y2="36.4"/>
<line class="st0" x1="1031.1" y1="128.1" x2="1031.1" y2="369.1"/>
<polyline class="st7" points="1068.6,77.3 1068.6,87.7 1031.1,109.3 1012.3,98.5 1012.3,88.4 "/>
<polyline class="st7" points="1068.6,79.2 1031.1,100.9 1012.3,90.1 "/>
<polyline class="st7" points="1017.2,89.1 1049.8,70.3 1063.7,78.3 "/>
<polygon class="st7" points="1012.3,88.2 1049.8,66.5 1068.6,77.3 1068.6,77.3 1031.1,99 1012.3,88.2 "/>
<polygon class="st7" points="1049.8,68.4 1015.6,88.2 1031.1,97.1 1065.3,77.3 "/>
<line class="st0" x1="1049.8" y1="68.4" x2="1049.8" y2="70.3"/>
<line class="st0" x1="1031.1" y1="109.3" x2="1031.1" y2="99"/>
<polyline class="st7" points="1143.6,214.9 1143.6,434.3 1199.8,466.7 1274.8,423.4 1274.8,204.1 "/>
<polyline class="st7" points="1274.8,207 1199.8,250.3 1143.6,217.8 "/>
<polygon class="st7" points="1218.6,171.6 1274.8,204.1 1274.8,204.1 1199.8,247.4 1143.6,214.9 1143.6,214.9 "/>
<polygon class="st7" points="1218.6,174.5 1148.6,214.9 1199.8,244.5 1269.8,204.1 "/>
<polyline class="st7" points="1151,216.3 1218.6,177.3 1267.3,205.5 "/>
<line class="st0" x1="1199.8" y1="247.4" x2="1199.8" y2="466.7"/>
<line class="st0" x1="1218.5" y1="174.5" x2="1218.5" y2="177.3"/>
<polyline class="st7" points="1181.1,194.3 1181.1,217.8 1199.8,228.6 1218.6,217.8 1218.6,194.3 "/>
<line class="st0" x1="1199.8" y1="205.1" x2="1199.8" y2="228.6"/>
<polyline class="st7" points="1213.7,195.2 1199.8,187.2 1186.1,195.3 "/>
<polyline class="st7" points="1181.1,196.1 1199.8,207 1218.6,196.1 "/>
<polygon class="st7" points="1199.8,183.5 1181.1,194.3 1181.1,194.3 1199.8,205.1 1218.5,194.3 1218.5,194.3 "/>
<polygon class="st7" points="1199.8,185.3 1184.3,194.3 1199.8,203.2 1215.3,194.3 "/>
<line class="st0" x1="1199.8" y1="185.3" x2="1199.8" y2="187.2"/>
<polyline class="st7" points="1537.2,1048.4 1537.2,1224.4 1462.2,1267.7 1387.3,1224.4 1387.3,1048.4 "/>
<polyline class="st7" points="1387.3,1051.2 1462.2,1094.5 1537.2,1051.2 "/>
<polygon class="st7" points="1462.2,1005.1 1387.3,1048.4 1387.3,1048.4 1462.2,1091.7 1537.2,1048.4 1537.2,1048.4 "/>
<polygon class="st7" points="1462.2,1007.9 1392.1,1048.4 1462.2,1088.9 1532.3,1048.4 "/>
<polyline class="st7" points="1529.9,1049.8 1462.2,1010.7 1394.6,1049.8 "/>
<line class="st0" x1="1462.2" y1="1007.9" x2="1462.2" y2="1010.7"/>
<line class="st0" x1="1462.2" y1="1091.7" x2="1462.2" y2="1267.7"/>
<polyline class="st7" points="1424.8,1049.3 1424.8,1051.2 1462.2,1072.8 1499.7,1051.2 1499.7,1049.3 "/>
<polygon class="st7" points="1462.2,1027.7 1424.8,1049.3 1424.8,1049.3 1462.2,1070.9 1499.7,1049.3 1499.7,1049.3 "/>
<line class="st0" x1="1462.2" y1="1072.8" x2="1462.2" y2="1070.9"/>
<polyline class="st7" points="1443.5,1030.6 1443.5,1050.2 1462.2,1061.1 1481,1050.2 1481,1030.6 "/>
<line class="st0" x1="1462.2" y1="1061.1" x2="1462.2" y2="1039.4"/>
<polyline class="st7" points="1439.8,1026.2 1439.8,1028.5 1462.2,1041.4 1484.7,1028.5 1484.7,1026.2 "/>
<polygon class="st7" points="1462.2,1013.2 1439.8,1026.2 1439.8,1026.2 1462.2,1039.2 1484.7,1026.2 1484.7,1026.2 "/>
<line class="st0" x1="1462.2" y1="1041.4" x2="1462.2" y2="1039.2"/>
<polyline class="st7" points="637.5,593.8 637.5,791.4 693.7,823.9 824.9,748.1 824.9,550.5 "/>
<polyline class="st7" points="637.5,596.6 693.7,629 824.9,553.3 "/>
<polygon class="st7" points="824.9,550.5 768.7,518 637.5,593.8 637.5,593.8 693.7,626.2 824.9,550.5 "/>
<polygon class="st7" points="768.7,520.8 820,550.5 693.7,623.4 642.3,593.8 "/>
<polyline class="st7" points="817.6,551.9 768.7,523.6 644.8,595.2 "/>
<line class="st0" x1="768.7" y1="520.8" x2="768.7" y2="523.6"/>
<line class="st0" x1="693.7" y1="823.9" x2="693.7" y2="626.2"/>
<polygon class="st7" points="675,596.6 693.7,607.4 712.4,596.6 712.4,553.3 693.7,542.5 675,564.1 "/>
<polyline class="st7" points="712.4,553.3 693.7,574.9 675,564.1 "/>
<line class="st0" x1="693.7" y1="574.9" x2="693.7" y2="607.4"/>
<polyline class="st7" points="787.4,551.4 787.4,553.3 749.9,574.9 731.2,564.1 731.2,562.2 "/>
<polygon class="st7" points="768.7,540.6 731.2,562.2 731.2,562.2 749.9,573 787.4,551.4 787.4,551.4 "/>
<line class="st0" x1="749.9" y1="574.9" x2="749.9" y2="573"/>
<polyline class="st7" points="618.7,258.3 618.7,434.3 543.7,477.6 506.2,455.9 506.2,279.9 "/>
<polyline class="st7" points="506.2,282.8 543.7,304.4 618.7,261.1 "/>
<polygon class="st7" points="506.2,279.9 543.7,301.6 618.7,258.3 618.7,258.3 581.2,236.6 506.2,279.9 "/>
<polygon class="st7" points="581.2,239.5 511.1,279.9 543.7,298.8 613.8,258.3 "/>
<polyline class="st7" points="611.4,259.7 581.2,242.3 513.5,281.4 "/>
<line class="st0" x1="581.2" y1="239.5" x2="581.2" y2="242.3"/>
<line class="st0" x1="543.7" y1="301.6" x2="543.7" y2="477.6"/>
<polyline class="st7" points="675,161.3 674.9,337.3 731.2,369.8 787.4,337.3 787.4,161.3 "/>
<polyline class="st7" points="674.9,164.1 731.2,196.6 787.4,164.1 "/>
<polygon class="st7" points="731.2,128.9 675,161.3 675,161.3 731.2,193.8 787.4,161.3 787.4,161.3 "/>
<polygon class="st7" points="731.2,131.7 679.8,161.4 731.2,191 782.6,161.4 "/>
<polyline class="st7" points="780.1,162.8 731.2,134.5 682.2,162.8 "/>
<line class="st0" x1="731.2" y1="131.7" x2="731.2" y2="134.5"/>
<line class="st0" x1="731.2" y1="193.8" x2="731.2" y2="369.8"/>
<polyline class="st7" points="712.4,162.2 712.4,164.1 731.2,174.9 749.9,164.1 749.9,162.2 "/>
<polygon class="st7" points="731.2,151.4 712.4,162.2 712.4,162.2 731.2,173.1 749.9,162.2 749.9,162.2 "/>
<line class="st0" x1="731.2" y1="174.9" x2="731.2" y2="173.1"/>
<polyline class="st7" points="544.2,1102.2 544.2,1213.4 431.8,1278.3 356.8,1235 356.8,1123.9 "/>
<polyline class="st7" points="356.8,1126.8 431.8,1170.1 544.2,1105.2 "/>
<polygon class="st7" points="544.2,1102.2 469.2,1058.9 356.8,1123.9 356.8,1123.9 431.8,1167.2 544.2,1102.2 "/>
<polygon class="st7" points="469.2,1061.9 539.2,1102.2 431.8,1164.3 361.8,1123.9 "/>
<polyline class="st7" points="536.7,1103.6 469.2,1064.7 364.1,1125.2 "/>
<line class="st0" x1="469.2" y1="1061.9" x2="469.2" y2="1064.9"/>
<line class="st0" x1="431.8" y1="1167.2" x2="431.8" y2="1278.3"/>
<polyline class="st7" points="506.7,1085.5 506.7,1105.2 488,1116 469.3,1105.2 469.3,1085.5 "/>
<line class="st0" x1="488" y1="1116" x2="488" y2="1094.3"/>
<polyline class="st7" points="510.5,1081.1 510.5,1083.4 488,1096.3 465.5,1083.4 465.5,1081.1 "/>
<polygon class="st7" points="488,1068.1 510.5,1081.1 510.5,1081.1 488,1094.1 465.5,1081.1 465.5,1081.1 "/>
<line class="st0" x1="488" y1="1096.3" x2="488" y2="1094.1"/>
<polyline class="st7" points="806.2,777.7 806.2,888.8 918.6,953.8 993.6,910.5 993.6,799.3 "/>
<polyline class="st7" points="993.6,802.3 918.6,845.5 806.2,780.6 "/>
<polygon class="st7" points="806.2,777.7 881.2,734.4 993.6,799.3 993.6,799.3 918.6,842.6 806.2,777.7 "/>
<polygon class="st7" points="881.2,737.3 811.2,777.7 918.6,839.7 988.6,799.3 "/>
<polyline class="st7" points="813.7,779.1 881.2,740.1 986.3,800.6 "/>
<line class="st0" x1="881.2" y1="737.3" x2="881.2" y2="740.3"/>
<line class="st0" x1="918.6" y1="842.6" x2="918.6" y2="953.8"/>
<polyline class="st7" points="843.7,761 843.7,780.6 862.4,791.4 881.1,780.6 881.1,761 "/>
<line class="st0" x1="862.4" y1="791.4" x2="862.4" y2="769.8"/>
<polyline class="st7" points="839.9,756.6 839.9,758.8 862.4,771.8 884.9,758.8 884.9,756.6 "/>
<polygon class="st7" points="862.4,743.6 839.9,756.6 839.9,756.6 862.4,769.5 884.8,756.6 884.8,756.6 "/>
<line class="st0" x1="862.4" y1="771.8" x2="862.4" y2="769.5"/>
<polyline class="st7" points="37.6,788.6 37.6,964.6 93.9,997.1 150.1,964.6 150.1,788.7 "/>
<polyline class="st7" points="37.6,791.5 93.9,823.9 150.1,791.5 "/>
<polygon class="st7" points="93.9,756.2 37.6,788.6 37.6,788.7 93.9,821.1 150.1,788.7 150.1,788.6 "/>
<polygon class="st7" points="93.9,759 42.5,788.7 93.9,818.3 145.3,788.7 "/>
<polyline class="st7" points="142.8,790.1 93.9,761.8 44.9,790.1 "/>
<line class="st0" x1="93.9" y1="759" x2="93.9" y2="761.8"/>
<line class="st0" x1="93.9" y1="821.1" x2="93.9" y2="997.1"/>
<polyline class="st7" points="75.1,789.5 75.1,791.4 93.9,802.3 112.6,791.4 112.6,789.5 "/>
<polygon class="st7" points="93.9,778.7 75.1,789.5 75.1,789.5 93.9,800.4 112.6,789.5 112.6,789.5 "/>
<line class="st0" x1="93.9" y1="802.3" x2="93.9" y2="800.4"/>
<polyline class="st7" points="1406,799.7 1406,888.9 1499.7,943 1593.4,888.9 1593.4,799.7 "/>
<polyline class="st7" points="1406,802.5 1499.7,856.7 1593.4,802.5 "/>
<polygon class="st7" points="1499.7,745.6 1406,799.7 1406,799.7 1499.7,853.8 1593.4,799.7 1593.4,799.7 "/>
<polygon class="st7" points="1499.7,748.4 1410.9,799.7 1499.7,851 1588.5,799.7 "/>
<polyline class="st7" points="1586.1,801.1 1499.7,751.3 1413.4,801.1 "/>
<line class="st0" x1="1499.7" y1="748.4" x2="1499.7" y2="751.3"/>
<line class="st0" x1="1499.7" y1="853.8" x2="1499.7" y2="943"/>
<polyline class="st7" points="1537.2,767 1537.3,964.6 1574.7,986.3 1668.4,932.2 1668.4,734.5 "/>
<polyline class="st7" points="1668.4,737.4 1574.7,791.5 1537.2,769.8 "/>
<polygon class="st7" points="1537.2,767 1630.9,712.9 1668.4,734.5 1668.4,734.5 1574.7,788.6 1537.2,767 "/>
<polygon class="st7" points="1630.9,715.7 1542.1,767 1574.7,785.8 1663.5,734.5 "/>
<polyline class="st7" points="1544.6,768.5 1630.9,718.7 1661,736 "/>
<line class="st0" x1="1630.9" y1="715.7" x2="1630.9" y2="718.7"/>
<line class="st0" x1="1574.7" y1="788.6" x2="1574.7" y2="986.3"/>
<polyline class="st7" points="468.8,1340.4 468.9,1386.7 487.6,1397.5 525,1375.9 525,1329.6 "/>
<polyline class="st7" points="468.8,1343.3 487.5,1354.2 525,1332.5 "/>
<polygon class="st7" points="506.3,1318.8 468.8,1340.4 468.8,1340.4 487.5,1351.3 525,1329.6 525,1329.6 "/>
<polygon class="st7" points="506.3,1321.7 473.7,1340.5 487.5,1348.4 520,1329.6 "/>
<polyline class="st7" points="517.5,1331.1 506.3,1324.6 476.2,1341.9 "/>
<line class="st0" x1="487.5" y1="1351.3" x2="487.6" y2="1397.5"/>
<line class="st0" x1="506.3" y1="1321.7" x2="506.3" y2="1324.6"/>
<polyline class="st7" points="431.3,626.2 431.3,672.4 468.8,694 506.3,672.4 506.2,626.2 "/>
<polyline class="st7" points="431.3,629.1 468.8,650.8 506.3,629.1 "/>
<polygon class="st7" points="468.8,604.6 431.3,626.2 431.3,626.2 468.8,647.8 506.2,626.2 506.2,626.2 "/>
<polygon class="st7" points="468.8,607.5 436.3,626.3 468.8,645 501.3,626.3 "/>
<polyline class="st7" points="498.8,627.7 468.8,610.3 438.7,627.7 "/>
<line class="st0" x1="468.8" y1="647.8" x2="468.8" y2="694"/>
<line class="st0" x1="468.8" y1="607.5" x2="468.8" y2="610.3"/>
<polyline class="st7" points="487.6,637 487.6,704.8 506.4,715.7 525.1,704.8 525.1,637 "/>
<polyline class="st7" points="487.6,640 506.4,650.8 525.1,640 "/>
<polygon class="st7" points="506.4,626.2 487.6,637 487.6,637 506.4,647.9 525.1,637 525.1,637 "/>
<polygon class="st7" points="506.4,629.1 492.6,637.1 506.4,645.1 520.2,637.1 "/>
<polyline class="st7" points="517.7,638.5 506.4,632 495,638.5 "/>
<line class="st0" x1="506.4" y1="647.9" x2="506.4" y2="715.7"/>
<line class="st0" x1="506.4" y1="629.1" x2="506.4" y2="632"/>
<polyline class="st7" points="1143.6,388.1 1143.6,564.2 1068.6,607.4 1031.1,585.8 1031.1,409.8 "/>
<polyline class="st7" points="1031.1,412.6 1068.6,434.3 1143.6,391 "/>
<polygon class="st7" points="1031.1,409.8 1068.6,431.5 1143.6,388.2 1143.6,388.1 1106.1,366.5 1031.1,409.8 "/>
<polygon class="st7" points="1106.1,369.3 1036,409.8 1068.6,428.6 1138.7,388.2 "/>
<polyline class="st7" points="1136.2,389.6 1106.1,372.2 1038.4,411.2 "/>
<line class="st0" x1="1106.1" y1="369.3" x2="1106.1" y2="372.2"/>
<line class="st0" x1="1068.6" y1="431.5" x2="1068.6" y2="607.4"/>
<polyline class="st7" points="1630.9,929.3 1630.9,1300.1 1574.7,1332.6 1481,1278.5 1481,907.6 "/>
<polyline class="st7" points="1630.9,932.1 1574.7,964.6 1481,910.5 "/>
<polygon class="st7" points="1630.9,929.3 1574.7,961.8 1481,907.6 1481,907.6 1537.2,875.2 1630.9,929.3 "/>
<polygon class="st7" points="1537.2,878 1626,929.3 1574.7,958.9 1485.9,907.6 "/>
<polyline class="st7" points="1488.3,909.1 1537.2,880.8 1623.6,930.7 "/>
<line class="st0" x1="1537.2" y1="878" x2="1537.2" y2="880.8"/>
<line class="st0" x1="1574.7" y1="961.8" x2="1574.7" y2="1332.6"/>
<polyline class="st7" points="1518.5,900.1 1518.5,910.5 1555.9,932.1 1574.7,921.3 1574.7,911.2 "/>
<polyline class="st7" points="1518.5,902 1555.9,923.7 1574.7,912.8 "/>
<polyline class="st7" points="1569.8,911.9 1537.2,893.1 1523.3,901.1 "/>
<polygon class="st7" points="1574.7,910.9 1537.2,889.3 1518.5,900.1 1518.5,900.1 1555.9,921.8 1574.7,910.9 "/>
<polygon class="st7" points="1537.2,891.2 1571.4,911 1555.9,919.9 1521.7,900.1 "/>
<line class="st0" x1="1537.2" y1="891.2" x2="1537.2" y2="893.1"/>
<line class="st0" x1="1555.9" y1="932.1" x2="1555.9" y2="921.8"/>
<polyline class="st7" points="618.7,1080.7 618.7,1126.9 656.2,1148.5 693.7,1126.9 693.7,1080.7 "/>
<polyline class="st7" points="618.7,1083.6 656.2,1105.3 693.7,1083.6 "/>
<polygon class="st7" points="656.2,1059.1 618.7,1080.7 618.7,1080.7 656.2,1102.4 693.7,1080.7 693.7,1080.7 "/>
<polygon class="st7" points="656.2,1062 623.7,1080.8 656.2,1099.5 688.7,1080.8 "/>
<polyline class="st7" points="686.3,1082.2 656.2,1064.9 626.2,1082.2 "/>
<line class="st0" x1="656.2" y1="1102.4" x2="656.2" y2="1148.5"/>
<line class="st0" x1="656.2" y1="1062" x2="656.2" y2="1064.9"/>
<polyline class="st7" points="1106.1,539.7 1106.1,715.7 1143.6,737.3 1199.8,704.8 1199.8,528.8 "/>
<polyline class="st7" points="1106.1,542.5 1143.6,564.1 1199.8,531.7 "/>
<polygon class="st7" points="1162.3,507.2 1106.1,539.7 1106.1,539.7 1143.6,561.3 1199.8,528.8 1199.8,528.8 "/>
<polygon class="st7" points="1162.3,510 1111,539.7 1143.6,558.5 1194.9,528.8 "/>
<polyline class="st7" points="1192.6,530.3 1162.3,512.8 1113.4,541.1 "/>
<line class="st0" x1="1162.3" y1="510" x2="1162.3" y2="512.8"/>
<line class="st0" x1="1143.6" y1="561.3" x2="1143.6" y2="737.3"/>
<polyline class="st7" points="937.4,1329.7 937.4,1484.1 993.6,1516.6 1068.6,1473.3 1068.6,1318.9 "/>
<polyline class="st7" points="1068.6,1321.8 993.6,1365.1 937.4,1332.6 "/>
<polygon class="st7" points="1012.3,1286.4 1068.6,1318.9 1068.6,1318.9 993.6,1362.2 937.4,1329.7 937.4,1329.7 "/>
<polygon class="st7" points="1012.3,1289.3 942.3,1329.7 993.6,1359.3 1063.6,1318.9 "/>
<polyline class="st7" points="944.8,1331.2 1012.3,1292.2 1061.1,1320.3 "/>
<line class="st0" x1="993.6" y1="1362.2" x2="993.6" y2="1516.6"/>
<line class="st0" x1="1012.3" y1="1289.3" x2="1012.3" y2="1292.2"/>
<ellipse transform="matrix(0.1498 -0.9887 0.9887 0.1498 -1085.7054 1999.4537)" class="st6" cx="619.8" cy="1631" rx="3.7" ry="2.7"/>
</svg>
