<svg id="Final_Illustrations" data-name="Final Illustrations" xmlns="http://www.w3.org/2000/svg" viewBox="0 0 2000 1377.63">
  <defs>
    <style>
      .cls-1 {
        fill: #181d28;
      }

      .cls-1, .cls-2 {
        stroke: #057adc;
        stroke-miterlimit: 10;
        stroke-width: 2px;
      }

      .cls-2 {
        fill: none;
      }
    </style>
  </defs>
  <g>
    <g>
      <g>
        <g>
          <polyline class="cls-1" points="1642.79 269.04 1642.79 271.85 1492.5 358.63 1436.14 326.09 1436.14 323.28"/>
          <polyline class="cls-1" points="1586.43 236.55 1436.15 323.27 1436.15 323.28 1492.5 355.82 1642.78 269.05 1642.78 269.04 1586.43 236.55"/>
          <line class="cls-1" x1="1492.5" y1="358.63" x2="1492.5" y2="355.82"/>
        </g>
        <g>
          <polyline class="cls-1" points="1492.5 54.97 1492.5 315.29 1511.29 326.14 1586.43 282.75 1586.43 22.43"/>
          <line class="cls-1" x1="1511.29" y1="65.82" x2="1511.29" y2="326.14"/>
          <polygon class="cls-1" points="1530.07 76.66 1567.64 54.97 1567.64 120.05 1530.07 141.74 1530.07 76.66"/>
          <polyline class="cls-1" points="1548.86 65.82 1548.86 109.2 1530.07 120.05"/>
          <line class="cls-1" x1="1548.86" y1="109.2" x2="1567.64" y2="120.05"/>
          <polygon class="cls-1" points="1497.2 79.38 1506.59 84.8 1506.59 106.49 1497.2 101.07 1497.2 79.38"/>
          <polygon class="cls-1" points="1530.07 163.44 1530.07 185.13 1567.64 163.44 1567.64 141.74 1530.07 163.44"/>
          <polyline class="cls-1" points="1530.07 181.31 1563.14 162.22 1555.53 148.74"/>
          <polygon class="cls-1" points="1530.07 206.82 1530.07 250.21 1567.64 228.52 1567.64 185.13 1530.07 206.82"/>
          <line class="cls-1" x1="1530.07" y1="228.52" x2="1567.64" y2="206.82"/>
          <line class="cls-1" x1="1548.86" y1="195.98" x2="1548.86" y2="239.37"/>
          <line class="cls-1" x1="1545.68" y1="197.82" x2="1545.68" y2="219.51"/>
          <polygon class="cls-1" points="1533.25 230.35 1545.68 223.18 1545.68 237.53 1533.25 244.7 1533.25 230.35"/>
          <polygon class="cls-1" points="1552.12 219.55 1564.38 212.47 1564.38 226.64 1552.12 233.72 1552.12 219.55"/>
          <line class="cls-1" x1="1552.12" y1="194.24" x2="1552.12" y2="215.93"/>
          <line class="cls-1" x1="1558.25" y1="147.17" x2="1567.64" y2="163.44"/>
          <line class="cls-1" x1="1545.68" y1="197.82" x2="1545.68" y2="219.51"/>
          <polygon class="cls-1" points="1492.5 54.97 1511.29 65.82 1586.42 22.43 1586.42 22.43 1567.64 11.58 1492.5 54.97 1492.5 54.97"/>
          <g>
            <ellipse class="cls-1" cx="1558.54" cy="223.1" rx="5.27" ry="3.03" transform="translate(533.81 1418.4) rotate(-57.54)"/>
            <polyline class="cls-1" points="1555.72 227.53 1564.95 233.43 1570.61 224.53 1561.54 218.77"/>
            <ellipse class="cls-1" cx="1567.78" cy="228.98" rx="5.27" ry="3.03" transform="translate(533.13 1428.92) rotate(-57.54)"/>
          </g>
          <polygon class="cls-1" points="1499.99 87.44 1503.8 89.64 1503.8 98.43 1499.99 96.23 1499.99 87.44"/>
        </g>
      </g>
      <g>
        <g>
          <g>
            <g>
              <path class="cls-1" d="M1628.24,423.16v39l23.59-13.62A20.32,20.32,0,0,0,1662,430.91V403.68"/>
              <ellipse class="cls-1" cx="1620.81" cy="433.92" rx="21.94" ry="29.65" transform="translate(-47.32 253.17) rotate(-8.8)"/>
              <ellipse class="cls-1" cx="1620.81" cy="433.92" rx="12.19" ry="16.47" transform="translate(-47.32 253.17) rotate(-8.8)"/>
            </g>
            <g>
              <path class="cls-1" d="M1763.19,501.07v39l23.58-13.62a20.31,20.31,0,0,0,10.17-17.61V481.59"/>
              <ellipse class="cls-1" cx="1755.76" cy="511.83" rx="21.94" ry="29.65" transform="translate(-57.65 274.75) rotate(-8.8)"/>
              <ellipse class="cls-1" cx="1755.76" cy="511.83" rx="12.19" ry="16.47" transform="translate(-57.65 274.75) rotate(-8.8)"/>
            </g>
          </g>
          <g>
            <path class="cls-1" d="M1601.37,282.81h0a67.51,67.51,0,0,0-33.75,58.46v39l33.75,19.49h0a32.19,32.19,0,0,1,46.51,17.34L1652,429l84.37,48.72h0A32.18,32.18,0,0,1,1782.88,495l4.12,11.89,67.5,39,101.25-58.46,16.87-29.23"/>
            <path class="cls-1" d="M1567.62,341.27l303.75,175.38,101.25-58.46h0a67.49,67.49,0,0,0-33.75-58.46l-33.75-19.49"/>
            <path class="cls-1" d="M1854.5,545.88l16.87-29.23h0a67.5,67.5,0,0,0-33.75-58.46l-33.75-19.49"/>
            <path class="cls-1" d="M1601.37,360.76h0c0-26,28.13-42.22,50.63-29.23l67.49,39a101.26,101.26,0,0,1,50.63,87.69h0"/>
            <path class="cls-1" d="M1837.62,482.9h0l9.67,6.49a31.33,31.33,0,0,0,31.3,2.11h0a31.28,31.28,0,0,0,17.49-28.08h0l-33.75,19.48L1850,475.77A8.24,8.24,0,0,0,1837.62,482.9Z"/>
            <path class="cls-1" d="M1812.91,288l-76.4-44.12a67.82,67.82,0,0,0-67.78,0l-67.36,38.9,110.29,63.68a251.83,251.83,0,0,1,92.18,92.17.08.08,0,0,0,.08,0l101.2-58.44h0A251.87,251.87,0,0,0,1812.91,288Z"/>
            <line class="cls-1" x1="1685.75" y1="351.01" x2="1685.75" y2="448.45"/>
            <line class="cls-1" x1="1762.14" y1="384.85" x2="1863.39" y2="326.39"/>
            <line class="cls-1" x1="1862.85" y1="531.45" x2="1964.1" y2="472.99"/>
            <line class="cls-1" x1="1567.62" y1="341.27" x2="1871.37" y2="516.65"/>
            <line class="cls-1" x1="1963.58" y1="424.44" x2="1862.33" y2="482.9"/>
            <path class="cls-1" d="M1963.58,424.44l-33.3,19.46h0a31.28,31.28,0,0,0,33.06-1.36h0a31.32,31.32,0,0,0,6-5.28A72.38,72.38,0,0,0,1963.58,424.44Z"/>
          </g>
        </g>
        <polygon class="cls-1" points="1575.82 346.05 1592.7 355.79 1592.7 375.28 1575.82 365.54 1575.82 346.05"/>
        <g>
          <ellipse class="cls-1" cx="1583.68" cy="360.56" rx="3.03" ry="5.27" transform="matrix(0.84, -0.54, 0.54, 0.84, 53.91, 906.31)"/>
          <polyline class="cls-1" points="1586.5 364.99 1577.27 370.88 1571.61 361.99 1580.67 356.22"/>
          <ellipse class="cls-1" cx="1574.44" cy="366.44" rx="3.03" ry="5.27" transform="matrix(0.84, -0.54, 0.54, 0.84, 49.31, 902.27)"/>
        </g>
      </g>
      <g>
        <path class="cls-2" d="M1501.7,92.93h0a56,56,0,0,0-28,48.49l0,83.64A122.83,122.83,0,0,0,1518,319.5l56.41,46.94"/>
        <path class="cls-2" d="M1586.51,174.26l4.09,11.14A33.08,33.08,0,0,1,1567.19,229h0"/>
      </g>
    </g>
    <g>
      <polygon class="cls-1" points="1149.96 577.6 1159.35 572.18 1535.08 789.1 1525.67 794.54 1149.96 577.6"/>
      <polygon class="cls-1" points="1431.65 414.94 1441.04 409.51 1816.77 626.44 1807.36 631.88 1431.65 414.94"/>
      <polygon class="cls-1" points="867.75 740.49 877.14 735.07 1252.87 951.99 1243.46 957.43 867.75 740.49"/>
      <polygon class="cls-1" points="586.27 903.12 595.67 897.7 971.4 1114.63 961.99 1120.06 586.27 903.12"/>
      <polygon class="cls-1" points="304.59 1065.8 313.98 1060.38 689.71 1277.31 680.3 1282.74 304.59 1065.8"/>
    </g>
    <g>
      <g>
        <g>
          <polyline class="cls-1" points="515.88 919.23 515.88 922.04 365.59 1008.82 309.23 976.28 309.23 973.47"/>
          <polyline class="cls-1" points="459.52 886.74 309.24 973.46 309.24 973.47 365.59 1006.01 515.87 919.23 515.87 919.23 459.52 886.74"/>
          <line class="cls-1" x1="365.59" y1="1008.82" x2="365.59" y2="1006.01"/>
        </g>
        <g>
          <polyline class="cls-1" points="365.59 705.16 365.59 965.48 384.38 976.33 459.52 932.94 459.52 672.62"/>
          <line class="cls-1" x1="384.38" y1="716" x2="384.38" y2="976.33"/>
          <polygon class="cls-1" points="403.16 726.85 440.73 705.16 440.73 770.24 403.16 791.93 403.16 726.85"/>
          <polyline class="cls-1" points="421.95 716 421.95 759.39 403.16 770.24"/>
          <line class="cls-1" x1="421.95" y1="759.39" x2="440.73" y2="770.24"/>
          <polygon class="cls-1" points="370.29 729.56 379.68 734.99 379.68 756.68 370.29 751.26 370.29 729.56"/>
          <polygon class="cls-1" points="403.16 813.63 403.16 835.32 440.73 813.63 440.73 791.93 403.16 813.63"/>
          <polyline class="cls-1" points="403.16 831.5 436.23 812.4 428.63 798.92"/>
          <polygon class="cls-1" points="403.16 857.01 403.16 900.4 440.73 878.71 440.73 835.32 403.16 857.01"/>
          <line class="cls-1" x1="403.16" y1="878.71" x2="440.73" y2="857.01"/>
          <line class="cls-1" x1="421.95" y1="846.17" x2="421.95" y2="889.55"/>
          <line class="cls-1" x1="418.77" y1="848" x2="418.77" y2="869.7"/>
          <polygon class="cls-1" points="406.34 880.54 418.77 873.37 418.77 887.72 406.34 894.89 406.34 880.54"/>
          <polygon class="cls-1" points="425.21 869.74 437.47 862.66 437.47 876.82 425.21 883.91 425.21 869.74"/>
          <line class="cls-1" x1="425.21" y1="844.43" x2="425.21" y2="866.12"/>
          <line class="cls-1" x1="431.34" y1="797.36" x2="440.73" y2="813.63"/>
          <line class="cls-1" x1="418.77" y1="848" x2="418.77" y2="869.7"/>
          <polygon class="cls-1" points="365.6 705.16 384.38 716 459.51 672.62 459.51 672.61 440.73 661.77 365.6 705.15 365.6 705.16"/>
          <g>
            <ellipse class="cls-1" cx="431.63" cy="873.29" rx="5.27" ry="3.03" transform="translate(-536.88 768.78) rotate(-57.54)"/>
            <polyline class="cls-1" points="428.81 877.72 438.04 883.62 443.7 874.72 434.64 868.95"/>
            <ellipse class="cls-1" cx="440.87" cy="879.17" rx="5.27" ry="3.03" transform="translate(-537.56 779.3) rotate(-57.54)"/>
          </g>
          <polygon class="cls-1" points="373.08 737.63 376.89 739.82 376.89 748.62 373.08 746.42 373.08 737.63"/>
        </g>
      </g>
      <g>
        <g>
          <g>
            <g>
              <path class="cls-1" d="M492,1066.82v36.59l22.14-12.78a19.09,19.09,0,0,0,9.54-16.54v-25.57"/>
              <ellipse class="cls-1" cx="484.97" cy="1076.92" rx="20.6" ry="27.84" transform="translate(-159.11 86.91) rotate(-8.8)"/>
              <ellipse class="cls-1" cx="484.97" cy="1076.92" rx="11.44" ry="15.47" transform="matrix(0.99, -0.15, 0.15, 0.99, -159.11, 86.91)"/>
            </g>
            <g>
              <path class="cls-1" d="M650.76,1157.93v36.59l22.15-12.78a19.11,19.11,0,0,0,9.54-16.54v-25.57"/>
              <ellipse class="cls-1" cx="643.78" cy="1168.03" rx="20.6" ry="27.84" transform="translate(-171.18 112.29) rotate(-8.8)"/>
              <ellipse class="cls-1" cx="643.78" cy="1168.03" rx="11.44" ry="15.47" transform="translate(-171.18 112.29) rotate(-8.8)"/>
            </g>
            <g>
              <path class="cls-1" d="M529.64,1080.82l-14.76-8.52-4.38-12a30.73,30.73,0,0,0-44.23-16.08h0l-31.69-18.29v-37a62.7,62.7,0,0,1,31.35-54.3L498.27,916A62.73,62.73,0,0,1,561,916l63.7,36.78"/>
              <path class="cls-1" d="M783.15,1044l31.69,18.3a63.38,63.38,0,0,1,31.69,54.89h0l-95.06,55.15L434.58,988.94"/>
              <path class="cls-1" d="M846.53,1117.16,830.13,1145l-93.56,55.33-62.14-35.88-4.93-12.84a31.24,31.24,0,0,0-44.79-15.87h0l-95.07-54.89v-36.39a63.75,63.75,0,0,1,31.87-55.2l63-36.4a63.69,63.69,0,0,1,63.7,0l8.51,4.92A236.54,236.54,0,0,1,783.15,1044h0l-95.06,54.9h0a236.57,236.57,0,0,0-86.39-86.23l-40.37-23.31"/>
              <path class="cls-1" d="M688.09,1098.87l31.74,18.45a63.59,63.59,0,0,1,31.64,55h0l-14.9,28"/>
              <line class="cls-1" x1="743.01" y1="1140.62" x2="838.05" y2="1085.49"/>
              <line class="cls-1" x1="648.96" y1="1048.52" x2="744.03" y2="993.63"/>
              <line class="cls-1" x1="743.5" y1="1186.47" x2="838.05" y2="1131.87"/>
              <path class="cls-1" d="M561.74,1062.52v-17.67a21.42,21.42,0,0,1,32.18-18.52h0a93.73,93.73,0,0,1,46.63,81v.76Z"/>
              <line class="cls-1" x1="593.02" y1="1025.84" x2="593.02" y2="1117.41"/>
              <line class="cls-1" x1="442.98" y1="957.59" x2="538.18" y2="1012.56"/>
              <line class="cls-1" x1="529.64" y1="1044.43" x2="751.47" y2="1172.31"/>
              <line class="cls-1" x1="751.47" y1="1172.31" x2="846.53" y2="1117.16"/>
              <path class="cls-1" d="M719.78,1140.55h0l9.07,6.1a29.45,29.45,0,0,0,29.4,2h0a29.38,29.38,0,0,0,16.42-26.37h0L743,1140.55l-11.6-6.7A7.74,7.74,0,0,0,719.78,1140.55Z"/>
              <path class="cls-1" d="M838,1085.66l-31.26,18.27h0a29.37,29.37,0,0,0,31-1.28h0a29.57,29.57,0,0,0,5.59-5A68.17,68.17,0,0,0,838,1085.66Z"/>
            </g>
          </g>
          <polygon class="cls-1" points="449.07 997.34 464.91 1006.48 464.91 1024.78 449.07 1015.63 449.07 997.34"/>
        </g>
        <g>
          <ellipse class="cls-1" cx="456.8" cy="1010.51" rx="3.03" ry="5.27" transform="translate(-470.98 403.05) rotate(-32.46)"/>
          <polyline class="cls-1" points="459.62 1014.94 450.39 1020.84 444.73 1011.94 453.79 1006.17"/>
          <ellipse class="cls-1" cx="447.56" cy="1016.39" rx="3.03" ry="5.27" transform="translate(-475.58 399) rotate(-32.46)"/>
        </g>
      </g>
      <g>
        <path class="cls-2" d="M374.8,743.12h0a56,56,0,0,0-28,48.48l0,83.65a122.83,122.83,0,0,0,44.29,94.44l56.41,46.93"/>
        <path class="cls-2" d="M459.6,824.44l4.09,11.15a33.08,33.08,0,0,1-23.41,43.58h0"/>
      </g>
    </g>
    <g>
      <g>
        <g>
          <polyline class="cls-1" points="797.69 756.53 797.69 759.34 647.4 846.12 591.04 813.57 591.04 810.76"/>
          <polyline class="cls-1" points="741.33 724.04 591.05 810.76 591.05 810.77 647.4 843.3 797.68 756.53 797.68 756.53 741.33 724.04"/>
          <line class="cls-1" x1="647.4" y1="846.11" x2="647.4" y2="843.3"/>
        </g>
        <g>
          <polyline class="cls-1" points="647.4 542.46 647.4 802.78 666.19 813.63 741.33 770.24 741.33 509.92"/>
          <line class="cls-1" x1="666.19" y1="553.3" x2="666.19" y2="813.63"/>
          <polygon class="cls-1" points="684.97 564.15 722.54 542.46 722.54 607.54 684.97 629.23 684.97 564.15"/>
          <polyline class="cls-1" points="703.76 553.3 703.76 596.69 684.97 607.54"/>
          <line class="cls-1" x1="703.76" y1="596.69" x2="722.54" y2="607.54"/>
          <polygon class="cls-1" points="652.1 566.86 661.49 572.28 661.49 593.98 652.1 588.55 652.1 566.86"/>
          <polygon class="cls-1" points="684.97 650.92 684.97 672.62 722.54 650.92 722.54 629.23 684.97 650.92"/>
          <polyline class="cls-1" points="684.97 668.8 718.04 649.7 710.44 636.22"/>
          <polygon class="cls-1" points="684.97 694.31 684.97 737.7 722.54 716 722.54 672.62 684.97 694.31"/>
          <line class="cls-1" x1="684.97" y1="716" x2="722.54" y2="694.31"/>
          <line class="cls-1" x1="703.76" y1="683.46" x2="703.76" y2="726.85"/>
          <line class="cls-1" x1="700.58" y1="685.3" x2="700.58" y2="707"/>
          <polygon class="cls-1" points="688.15 717.84 700.58 710.67 700.58 725.01 688.15 732.19 688.15 717.84"/>
          <polygon class="cls-1" points="707.02 707.04 719.28 699.96 719.28 714.12 707.02 721.21 707.02 707.04"/>
          <line class="cls-1" x1="707.02" y1="681.72" x2="707.02" y2="703.42"/>
          <line class="cls-1" x1="713.15" y1="634.65" x2="722.54" y2="650.92"/>
          <line class="cls-1" x1="700.58" y1="685.3" x2="700.58" y2="707"/>
          <polygon class="cls-1" points="647.41 542.46 666.19 553.3 741.33 509.92 741.33 509.91 722.54 499.07 647.41 542.45 647.41 542.46"/>
          <g>
            <ellipse class="cls-1" cx="713.44" cy="710.59" rx="5.27" ry="3.03" transform="translate(-269.04 931.18) rotate(-57.54)"/>
            <polyline class="cls-1" points="710.62 715.02 719.85 720.91 725.51 712.02 716.45 706.25"/>
            <ellipse class="cls-1" cx="722.68" cy="716.47" rx="5.27" ry="3.03" transform="translate(-269.72 941.7) rotate(-57.54)"/>
          </g>
          <polygon class="cls-1" points="654.89 574.92 658.7 577.12 658.7 585.91 654.89 583.72 654.89 574.92"/>
        </g>
      </g>
      <g>
        <g>
          <g>
            <g>
              <path class="cls-1" d="M783.15,910.65v39L806.73,936A20.34,20.34,0,0,0,816.9,918.4V891.16"/>
              <ellipse class="cls-1" cx="775.71" cy="921.41" rx="21.94" ry="29.65" transform="translate(-131.88 129.58) rotate(-8.8)"/>
              <ellipse class="cls-1" cx="775.71" cy="921.41" rx="12.19" ry="16.47" transform="translate(-131.88 129.58) rotate(-8.8)"/>
            </g>
            <g>
              <path class="cls-1" d="M918.09,988.56v39l23.59-13.61a20.35,20.35,0,0,0,10.16-17.61V969.07"/>
              <ellipse class="cls-1" cx="910.66" cy="999.32" rx="21.94" ry="29.65" transform="translate(-142.21 151.15) rotate(-8.8)"/>
              <ellipse class="cls-1" cx="910.66" cy="999.32" rx="12.19" ry="16.47" transform="translate(-142.21 151.15) rotate(-8.8)"/>
            </g>
          </g>
          <g>
            <path class="cls-1" d="M756.28,770.29h0a67.5,67.5,0,0,0-33.75,58.46v39l33.75,19.49h0a32.18,32.18,0,0,1,46.5,17.33l4.12,11.9,84.38,48.71h0a32.19,32.19,0,0,1,46.5,17.34l4.12,11.9,67.5,39,101.25-58.46,16.87-29.23"/>
            <path class="cls-1" d="M722.53,828.76l303.74,175.38,101.25-58.46h0a67.48,67.48,0,0,0-33.75-58.46L1060,867.73"/>
            <path class="cls-1" d="M1009.4,1033.37l16.87-29.23h0a67.49,67.49,0,0,0-33.75-58.46l-33.74-19.49"/>
            <path class="cls-1" d="M756.28,848.24h0c0-26,28.12-42.22,50.62-29.23l67.5,39A101.27,101.27,0,0,1,925,945.68h0"/>
            <path class="cls-1" d="M992.53,970.39h0l9.66,6.49a31.35,31.35,0,0,0,31.3,2.11h0A31.3,31.3,0,0,0,1051,950.9h0l-33.75,19.49-12.35-7.13A8.23,8.23,0,0,0,992.53,970.39Z"/>
            <path class="cls-1" d="M967.82,775.51l-76.4-44.11a67.77,67.77,0,0,0-67.78,0l-67.36,38.89L866.57,834a251.88,251.88,0,0,1,92.18,92.16,0,0,0,0,0,.07,0L1060,867.73h0A252,252,0,0,0,967.82,775.51Z"/>
            <line class="cls-1" x1="840.65" y1="838.5" x2="840.65" y2="935.93"/>
            <line class="cls-1" x1="917.05" y1="872.34" x2="1018.3" y2="813.87"/>
            <line class="cls-1" x1="1017.75" y1="1018.94" x2="1119" y2="960.48"/>
            <line class="cls-1" x1="722.53" y1="828.76" x2="1026.27" y2="1004.14"/>
            <line class="cls-1" x1="1118.48" y1="911.93" x2="1017.23" y2="970.39"/>
            <path class="cls-1" d="M1118.48,911.93l-33.3,19.46h0a31.3,31.3,0,0,0,33.06-1.37h0a31.31,31.31,0,0,0,6-5.28A72.88,72.88,0,0,0,1118.48,911.93Z"/>
          </g>
        </g>
        <polygon class="cls-1" points="730.73 833.54 747.6 843.28 747.6 862.77 730.73 853.02 730.73 833.54"/>
        <g>
          <ellipse class="cls-1" cx="738.59" cy="848.04" rx="3.03" ry="5.27" transform="matrix(0.84, -0.54, 0.54, 0.84, -339.76, 528.9)"/>
          <polyline class="cls-1" points="741.4 852.47 732.17 858.37 726.51 849.47 735.58 843.71"/>
          <ellipse class="cls-1" cx="729.34" cy="853.92" rx="3.03" ry="5.27" transform="translate(-344.36 524.86) rotate(-32.46)"/>
        </g>
      </g>
      <g>
        <path class="cls-2" d="M656.61,580.42h0a56,56,0,0,0-28,48.48l0,83.65A122.88,122.88,0,0,0,672.93,807l56.41,46.93"/>
        <path class="cls-2" d="M741.41,661.74l4.09,11.15a33.08,33.08,0,0,1-23.4,43.58h0"/>
      </g>
    </g>
    <g>
      <g>
        <g>
          <polyline class="cls-1" points="1361.21 431.15 1361.21 433.96 1210.92 520.74 1154.57 488.19 1154.57 485.38"/>
          <polyline class="cls-1" points="1304.85 398.66 1154.57 485.38 1154.57 485.39 1210.92 517.92 1361.2 431.15 1361.2 431.15 1304.85 398.66"/>
          <line class="cls-1" x1="1210.92" y1="520.74" x2="1210.92" y2="517.92"/>
        </g>
        <g>
          <polyline class="cls-1" points="1210.92 217.07 1210.92 477.4 1229.71 488.25 1304.85 444.86 1304.85 184.53"/>
          <line class="cls-1" x1="1229.71" y1="227.92" x2="1229.71" y2="488.25"/>
          <polygon class="cls-1" points="1248.5 238.77 1286.07 217.07 1286.07 282.16 1248.5 303.85 1248.5 238.77"/>
          <polyline class="cls-1" points="1267.28 227.92 1267.28 271.31 1248.5 282.16"/>
          <line class="cls-1" x1="1267.28" y1="271.31" x2="1286.07" y2="282.16"/>
          <polygon class="cls-1" points="1215.62 241.48 1225.01 246.9 1225.01 268.6 1215.62 263.17 1215.62 241.48"/>
          <polygon class="cls-1" points="1248.5 325.54 1248.5 347.24 1286.07 325.54 1286.07 303.85 1248.5 325.54"/>
          <polyline class="cls-1" points="1248.5 343.42 1281.57 324.32 1273.96 310.84"/>
          <polygon class="cls-1" points="1248.5 368.93 1248.5 412.32 1286.07 390.63 1286.07 347.24 1248.5 368.93"/>
          <line class="cls-1" x1="1248.5" y1="390.62" x2="1286.07" y2="368.93"/>
          <line class="cls-1" x1="1267.28" y1="358.08" x2="1267.28" y2="401.47"/>
          <line class="cls-1" x1="1264.1" y1="359.92" x2="1264.1" y2="381.62"/>
          <polygon class="cls-1" points="1251.68 392.46 1264.1 385.29 1264.1 399.63 1251.68 406.81 1251.68 392.46"/>
          <polygon class="cls-1" points="1270.54 381.66 1282.81 374.58 1282.81 388.74 1270.54 395.82 1270.54 381.66"/>
          <line class="cls-1" x1="1270.54" y1="356.34" x2="1270.54" y2="378.04"/>
          <line class="cls-1" x1="1276.67" y1="309.27" x2="1286.07" y2="325.54"/>
          <line class="cls-1" x1="1264.1" y1="359.92" x2="1264.1" y2="381.62"/>
          <polygon class="cls-1" points="1210.93 217.08 1229.71 227.92 1304.85 184.54 1304.85 184.53 1286.07 173.69 1210.93 217.07 1210.93 217.08"/>
          <g>
            <ellipse class="cls-1" cx="1276.96" cy="385.21" rx="5.27" ry="3.03" transform="translate(266.58 1255.92) rotate(-57.54)"/>
            <polyline class="cls-1" points="1274.14 389.64 1283.37 395.54 1289.03 386.64 1279.97 380.87"/>
            <ellipse class="cls-1" cx="1286.2" cy="391.09" rx="5.27" ry="3.03" transform="translate(265.9 1266.44) rotate(-57.54)"/>
          </g>
          <polygon class="cls-1" points="1218.41 249.54 1222.22 251.74 1222.22 260.54 1218.41 258.34 1218.41 249.54"/>
        </g>
      </g>
      <g>
        <g>
          <g>
            <g>
              <path class="cls-1" d="M1354.85,590v38.11l23.07-13.31a19.91,19.91,0,0,0,9.94-17.23V571"/>
              <ellipse class="cls-1" cx="1347.58" cy="600.54" rx="21.45" ry="29" transform="translate(-76.04 213.32) rotate(-8.8)"/>
              <ellipse class="cls-1" cx="1347.58" cy="600.54" rx="11.92" ry="16.11" transform="translate(-76.04 213.32) rotate(-8.8)"/>
            </g>
            <g>
              <path class="cls-1" d="M1485.6,664.91V703l23.06-13.32a19.88,19.88,0,0,0,9.95-17.22V645.85"/>
              <ellipse class="cls-1" cx="1478.33" cy="675.43" rx="21.45" ry="29" transform="translate(-85.96 234.21) rotate(-8.8)"/>
              <ellipse class="cls-1" cx="1478.33" cy="675.43" rx="11.92" ry="16.11" transform="matrix(0.99, -0.15, 0.15, 0.99, -85.96, 234.21)"/>
            </g>
            <path class="cls-1" d="M1427.1,432.75l-26.85-15.51a41.77,41.77,0,0,0-42,.13L1304.18,449a48.34,48.34,0,0,0-23.91,40.65l-1,48.28,48.86,28.21h0A31.73,31.73,0,0,1,1373.84,583l4.26,12,82,47.35h0a31.63,31.63,0,0,1,45.65,16.9l4.16,11.86,66.21,38.23,98.28-57.61,16.76-28.44"/>
            <path class="cls-1" d="M1625.16,547.1l33,19.06a66,66,0,0,1,33,57.18h0l-99,57.18L1280,500.31"/>
            <path class="cls-1" d="M1576.13,709.39l16-28.87h0a66,66,0,0,0-33-57.18l-33-19.06"/>
            <path class="cls-1" d="M1361.09,547.1v-4.91a30.17,30.17,0,0,1,45.26-26.13l37.26,21.51a99,99,0,0,1,49.51,85.77h0"/>
            <line class="cls-1" x1="1427.1" y1="528.04" x2="1427.1" y2="623.34"/>
            <path class="cls-1" d="M1559.14,647.51h0l9.45,6.35a30.69,30.69,0,0,0,30.62,2.06h0a30.61,30.61,0,0,0,17.1-27.47h0l-33,19.06-12.08-7A8.06,8.06,0,0,0,1559.14,647.51Z"/>
            <path class="cls-1" d="M1682.33,590.33l-32.57,19h0a30.62,30.62,0,0,0,32.33-1.34h0a30.68,30.68,0,0,0,5.83-5.17A71.39,71.39,0,0,0,1682.33,590.33Z"/>
            <path class="cls-1" d="M1328.08,528V513a40,40,0,0,1,20-34.6l84.82-49a54.49,54.49,0,0,1,54.48,0L1535,456.91a246.5,246.5,0,0,1,90.19,90.19h0l-99,57.18h0A246.4,246.4,0,0,0,1436,514.09l-74.86-43.22"/>
            <line class="cls-1" x1="1583.3" y1="647.51" x2="1682.33" y2="590.33"/>
            <line class="cls-1" x1="1485.2" y1="551.68" x2="1584.34" y2="494.43"/>
            <line class="cls-1" x1="1328.08" y1="528.04" x2="1592.15" y2="680.52"/>
            <line class="cls-1" x1="1286.96" y1="466.18" x2="1333.43" y2="493.02"/>
            <line class="cls-1" x1="1583.7" y1="695.45" x2="1682.19" y2="638.58"/>
          </g>
          <polygon class="cls-1" points="1294.23 508.68 1310.73 518.21 1310.73 537.27 1294.23 527.74 1294.23 508.68"/>
        </g>
        <g>
          <ellipse class="cls-1" cx="1302.32" cy="522.78" rx="3.03" ry="5.27" transform="translate(-77.12 780.65) rotate(-32.46)"/>
          <polyline class="cls-1" points="1305.14 527.21 1295.91 533.11 1290.25 524.21 1299.31 518.45"/>
          <ellipse class="cls-1" cx="1293.08" cy="528.66" rx="3.03" ry="5.27" transform="translate(-81.71 776.6) rotate(-32.46)"/>
        </g>
      </g>
      <g>
        <path class="cls-2" d="M1220.13,255h0a56,56,0,0,0-28,48.48l0,83.65a122.91,122.91,0,0,0,44.29,94.44l56.42,46.93"/>
        <path class="cls-2" d="M1304.93,336.36l4.09,11.15a33.08,33.08,0,0,1-23.4,43.58h0"/>
      </g>
    </g>
    <g>
      <g>
        <g>
          <polyline class="cls-1" points="1079.41 593.9 1079.41 596.72 929.12 683.49 872.76 650.95 872.76 648.14"/>
          <polyline class="cls-1" points="1023.05 561.42 872.77 648.14 872.77 648.14 929.12 680.68 1079.4 593.91 1079.4 593.9 1023.05 561.42"/>
          <line class="cls-1" x1="929.12" y1="683.49" x2="929.12" y2="680.68"/>
        </g>
        <g>
          <polyline class="cls-1" points="929.12 379.83 929.12 640.15 947.91 651 1023.05 607.62 1023.05 347.29"/>
          <line class="cls-1" x1="947.91" y1="390.68" x2="947.91" y2="651"/>
          <polygon class="cls-1" points="966.69 401.52 1004.26 379.83 1004.26 444.91 966.69 466.61 966.69 401.52"/>
          <polyline class="cls-1" points="985.48 390.68 985.48 434.06 966.69 444.91"/>
          <line class="cls-1" x1="985.48" y1="434.07" x2="1004.26" y2="444.91"/>
          <polygon class="cls-1" points="933.82 404.24 943.21 409.66 943.21 431.35 933.82 425.93 933.82 404.24"/>
          <polygon class="cls-1" points="966.69 488.3 966.69 509.99 1004.26 488.3 1004.26 466.61 966.69 488.3"/>
          <polyline class="cls-1" points="966.69 506.17 999.76 487.08 992.16 473.6"/>
          <polygon class="cls-1" points="966.69 531.69 966.69 575.07 1004.26 553.38 1004.26 509.99 966.69 531.69"/>
          <line class="cls-1" x1="966.69" y1="553.38" x2="1004.26" y2="531.69"/>
          <line class="cls-1" x1="985.48" y1="520.84" x2="985.48" y2="564.23"/>
          <line class="cls-1" x1="982.3" y1="522.68" x2="982.3" y2="544.37"/>
          <polygon class="cls-1" points="969.87 555.22 982.3 548.04 982.3 562.39 969.87 569.57 969.87 555.22"/>
          <polygon class="cls-1" points="988.74 544.42 1001 537.33 1001 551.5 988.74 558.58 988.74 544.42"/>
          <line class="cls-1" x1="988.74" y1="519.1" x2="988.74" y2="540.79"/>
          <line class="cls-1" x1="994.87" y1="472.03" x2="1004.26" y2="488.3"/>
          <line class="cls-1" x1="982.3" y1="522.68" x2="982.3" y2="544.37"/>
          <polygon class="cls-1" points="929.13 379.83 947.91 390.68 1023.04 347.29 1023.04 347.29 1004.26 336.44 929.13 379.83 929.13 379.83"/>
          <g>
            <ellipse class="cls-1" cx="995.16" cy="547.96" rx="5.27" ry="3.03" transform="translate(-1.31 1093.55) rotate(-57.54)"/>
            <polyline class="cls-1" points="992.34 552.39 1001.57 558.29 1007.23 549.39 998.17 543.63"/>
            <ellipse class="cls-1" cx="1004.4" cy="553.84" rx="5.27" ry="3.03" transform="translate(-1.99 1104.07) rotate(-57.54)"/>
          </g>
          <polygon class="cls-1" points="936.61 412.3 940.42 414.5 940.42 423.29 936.61 421.09 936.61 412.3"/>
        </g>
      </g>
      <g>
        <g>
          <g>
            <g>
              <path class="cls-1" d="M1064.87,748v39l23.58-13.62a20.33,20.33,0,0,0,10.17-17.6V728.54"/>
              <ellipse class="cls-1" cx="1057.43" cy="758.78" rx="21.94" ry="29.65" transform="translate(-103.67 170.78) rotate(-8.8)"/>
              <ellipse class="cls-1" cx="1057.43" cy="758.78" rx="12.19" ry="16.47" transform="translate(-103.67 170.78) rotate(-8.8)"/>
            </g>
            <g>
              <path class="cls-1" d="M1199.81,825.94v39l23.59-13.62a20.32,20.32,0,0,0,10.16-17.61V806.45"/>
              <ellipse class="cls-1" cx="1192.38" cy="836.69" rx="21.94" ry="29.65" transform="translate(-114.01 192.35) rotate(-8.8)"/>
              <ellipse class="cls-1" cx="1192.38" cy="836.69" rx="12.19" ry="16.47" transform="translate(-114.01 192.35) rotate(-8.8)"/>
            </g>
          </g>
          <g>
            <path class="cls-1" d="M1038,607.67h0a67.49,67.49,0,0,0-33.75,58.46v39L1038,724.59h0a32.18,32.18,0,0,1,46.5,17.34l4.12,11.89L1173,802.54h0a32.18,32.18,0,0,1,46.5,17.34l4.12,11.89,67.5,39,101.25-58.47,16.87-29.23"/>
            <path class="cls-1" d="M1004.25,666.13,1308,841.52l101.25-58.47h0a67.5,67.5,0,0,0-33.75-58.46l-33.75-19.48"/>
            <path class="cls-1" d="M1291.12,870.75,1308,841.52h0a67.51,67.51,0,0,0-33.75-58.47l-33.74-19.48"/>
            <path class="cls-1" d="M1038,685.62h0c0-26,28.12-42.22,50.62-29.23l67.5,39a101.26,101.26,0,0,1,50.63,87.69h0"/>
            <path class="cls-1" d="M1274.24,807.77h0l9.67,6.49a31.33,31.33,0,0,0,31.3,2.1h0a31.28,31.28,0,0,0,17.49-28.08h0L1299,807.77l-12.35-7.14A8.24,8.24,0,0,0,1274.24,807.77Z"/>
            <path class="cls-1" d="M1249.54,612.89l-76.4-44.11a67.77,67.77,0,0,0-67.78,0L1038,607.67l110.29,63.68a251.9,251.9,0,0,1,92.18,92.17.06.06,0,0,0,.07,0l101.2-58.43h0A251.94,251.94,0,0,0,1249.54,612.89Z"/>
            <line class="cls-1" x1="1122.37" y1="675.87" x2="1122.37" y2="773.31"/>
            <line class="cls-1" x1="1198.77" y1="709.71" x2="1300.02" y2="651.25"/>
            <line class="cls-1" x1="1299.47" y1="856.32" x2="1400.72" y2="797.86"/>
            <line class="cls-1" x1="1004.25" y1="666.13" x2="1307.99" y2="841.52"/>
            <line class="cls-1" x1="1400.2" y1="749.3" x2="1298.95" y2="807.77"/>
            <path class="cls-1" d="M1400.2,749.3l-33.3,19.47h0A31.3,31.3,0,0,0,1400,767.4h0a31.31,31.31,0,0,0,6-5.28A72.79,72.79,0,0,0,1400.2,749.3Z"/>
          </g>
        </g>
        <polygon class="cls-1" points="1012.45 670.91 1029.32 680.66 1029.32 700.14 1012.45 690.4 1012.45 670.91"/>
        <g>
          <ellipse class="cls-1" cx="1020.3" cy="685.42" rx="3.03" ry="5.27" transform="translate(-208.47 654.69) rotate(-32.46)"/>
          <polyline class="cls-1" points="1023.12 689.85 1013.89 695.75 1008.23 686.85 1017.3 681.08"/>
          <ellipse class="cls-1" cx="1011.06" cy="691.3" rx="3.03" ry="5.27" transform="translate(-213.06 650.65) rotate(-32.46)"/>
        </g>
      </g>
      <g>
        <path class="cls-2" d="M938.33,417.79h0a56,56,0,0,0-28,48.48l0,83.65a122.83,122.83,0,0,0,44.29,94.43l56.41,46.94"/>
        <path class="cls-2" d="M1023.13,499.12l4.09,11.14a33.07,33.07,0,0,1-23.4,43.58h0"/>
      </g>
    </g>
    <g>
      <g>
        <g>
          <polyline class="cls-1" points="234.07 1081.97 234.07 1084.79 83.79 1171.56 27.43 1139.02 27.43 1136.21"/>
          <polyline class="cls-1" points="177.72 1049.48 27.44 1136.2 27.44 1136.21 83.79 1168.75 234.07 1081.98 234.07 1081.97 177.72 1049.48"/>
          <line class="cls-1" x1="83.79" y1="1171.56" x2="83.79" y2="1168.75"/>
        </g>
        <g>
          <polyline class="cls-1" points="83.79 867.9 83.79 1128.22 102.58 1139.07 177.72 1095.68 177.72 835.36"/>
          <line class="cls-1" x1="102.58" y1="878.75" x2="102.58" y2="1139.07"/>
          <polygon class="cls-1" points="121.36 889.59 158.93 867.9 158.93 932.98 121.36 954.67 121.36 889.59"/>
          <polyline class="cls-1" points="140.15 878.75 140.15 922.13 121.36 932.98"/>
          <line class="cls-1" x1="140.15" y1="922.13" x2="158.93" y2="932.98"/>
          <polygon class="cls-1" points="88.49 892.3 97.88 897.73 97.88 919.42 88.49 914 88.49 892.3"/>
          <polygon class="cls-1" points="121.36 976.37 121.36 998.06 158.93 976.37 158.93 954.67 121.36 976.37"/>
          <polyline class="cls-1" points="121.36 994.24 154.43 975.15 146.82 961.67"/>
          <polygon class="cls-1" points="121.36 1019.75 121.36 1063.14 158.93 1041.45 158.93 998.06 121.36 1019.75"/>
          <line class="cls-1" x1="121.36" y1="1041.45" x2="158.93" y2="1019.76"/>
          <line class="cls-1" x1="140.15" y1="1008.91" x2="140.15" y2="1052.3"/>
          <line class="cls-1" x1="136.97" y1="1010.75" x2="136.97" y2="1032.44"/>
          <polygon class="cls-1" points="124.54 1043.29 136.97 1036.11 136.97 1050.46 124.54 1057.63 124.54 1043.29"/>
          <polygon class="cls-1" points="143.41 1032.48 155.67 1025.4 155.67 1039.57 143.41 1046.65 143.41 1032.48"/>
          <line class="cls-1" x1="143.41" y1="1007.17" x2="143.41" y2="1028.86"/>
          <line class="cls-1" x1="149.54" y1="960.1" x2="158.93" y2="976.37"/>
          <line class="cls-1" x1="136.97" y1="1010.75" x2="136.97" y2="1032.44"/>
          <polygon class="cls-1" points="83.8 867.9 102.58 878.75 177.71 835.36 177.71 835.36 158.93 824.51 83.8 867.9 83.8 867.9"/>
          <g>
            <ellipse class="cls-1" cx="149.83" cy="1036.03" rx="5.27" ry="3.03" transform="translate(-804.76 606.4) rotate(-57.54)"/>
            <polyline class="cls-1" points="147.01 1040.46 156.24 1046.36 161.9 1037.46 152.83 1031.7"/>
            <ellipse class="cls-1" cx="159.07" cy="1041.91" rx="5.27" ry="3.03" transform="matrix(0.54, -0.84, 0.84, 0.54, -805.43, 616.92)"/>
          </g>
          <polygon class="cls-1" points="91.28 900.37 95.09 902.57 95.09 911.36 91.28 909.16 91.28 900.37"/>
        </g>
      </g>
      <g>
        <g>
          <g>
            <g>
              <path class="cls-1" d="M219.53,1236.1v39l23.59-13.62a20.32,20.32,0,0,0,10.16-17.61v-27.23"/>
              <ellipse class="cls-1" cx="212.1" cy="1246.85" rx="21.94" ry="29.65" transform="translate(-188.33 47.15) rotate(-8.8)"/>
              <ellipse class="cls-1" cx="212.1" cy="1246.85" rx="12.19" ry="16.47" transform="translate(-188.33 47.15) rotate(-8.8)"/>
            </g>
            <g>
              <path class="cls-1" d="M354.48,1314v39l23.59-13.62a20.32,20.32,0,0,0,10.16-17.61v-27.23"/>
              <ellipse class="cls-1" cx="347.05" cy="1324.76" rx="21.94" ry="29.65" transform="translate(-198.66 68.72) rotate(-8.8)"/>
              <ellipse class="cls-1" cx="347.05" cy="1324.76" rx="12.19" ry="16.47" transform="translate(-198.66 68.72) rotate(-8.8)"/>
            </g>
          </g>
          <g>
            <path class="cls-1" d="M192.66,1095.74h0a67.51,67.51,0,0,0-33.75,58.46v39l33.75,19.49h0A32.19,32.19,0,0,1,239.17,1230l4.12,11.89,84.37,48.72h0A32.19,32.19,0,0,1,374.17,1308l4.12,11.89,67.5,39L547,1300.35l16.87-29.23"/>
            <path class="cls-1" d="M158.91,1154.2l303.75,175.38,101.25-58.46h0a67.49,67.49,0,0,0-33.75-58.46l-33.75-19.49"/>
            <path class="cls-1" d="M445.79,1358.81l16.87-29.23h0a67.5,67.5,0,0,0-33.75-58.46l-33.75-19.48"/>
            <path class="cls-1" d="M192.66,1173.69h0c0-26,28.13-42.22,50.63-29.23l67.49,39a101.26,101.26,0,0,1,50.63,87.69h0"/>
            <path class="cls-1" d="M428.91,1295.84h0l9.67,6.48a31.33,31.33,0,0,0,31.3,2.11h0a31.28,31.28,0,0,0,17.49-28.08h0l-33.75,19.49-12.35-7.14A8.24,8.24,0,0,0,428.91,1295.84Z"/>
            <path class="cls-1" d="M404.2,1101l-76.4-44.11a67.77,67.77,0,0,0-67.78,0l-67.36,38.89L303,1159.42a251.83,251.83,0,0,1,92.18,92.17.08.08,0,0,0,.08,0l101.2-58.44h0A251.94,251.94,0,0,0,404.2,1101Z"/>
            <line class="cls-1" x1="277.04" y1="1163.94" x2="277.04" y2="1261.38"/>
            <line class="cls-1" x1="353.43" y1="1197.78" x2="454.68" y2="1139.32"/>
            <line class="cls-1" x1="454.14" y1="1344.39" x2="555.39" y2="1285.92"/>
            <line class="cls-1" x1="158.91" y1="1154.2" x2="462.66" y2="1329.58"/>
            <line class="cls-1" x1="554.87" y1="1237.37" x2="453.62" y2="1295.84"/>
            <path class="cls-1" d="M554.87,1237.37l-33.3,19.46h0a31.28,31.28,0,0,0,33.06-1.36h0a31.32,31.32,0,0,0,6-5.28A72.38,72.38,0,0,0,554.87,1237.37Z"/>
          </g>
        </g>
        <polygon class="cls-1" points="167.11 1158.98 183.99 1168.72 183.99 1188.21 167.11 1178.47 167.11 1158.98"/>
        <g>
          <ellipse class="cls-1" cx="174.97" cy="1173.49" rx="3.03" ry="5.27" transform="translate(-602.49 277.25) rotate(-32.46)"/>
          <polyline class="cls-1" points="177.79 1177.92 168.56 1183.82 162.9 1174.92 171.96 1169.15"/>
          <ellipse class="cls-1" cx="165.73" cy="1179.37" rx="3.03" ry="5.27" transform="matrix(0.84, -0.54, 0.54, 0.84, -607.09, 273.21)"/>
        </g>
      </g>
      <g>
        <path class="cls-2" d="M93,905.86h0a56,56,0,0,0-28,48.49L65,1038a122.83,122.83,0,0,0,44.29,94.44l56.41,46.94"/>
        <path class="cls-2" d="M177.8,987.19l4.09,11.14a33.08,33.08,0,0,1-23.41,43.58h0"/>
      </g>
    </g>
  </g>
</svg>
