<?xml version="1.0" encoding="utf-8"?>
<!-- Generator: Adobe Illustrator 24.0.2, SVG Export Plug-In . SVG Version: 6.00 Build 0)  -->
<svg version="1.1" id="Final_Illustrations_copy" xmlns="http://www.w3.org/2000/svg" xmlns:xlink="http://www.w3.org/1999/xlink"
	 x="0px" y="0px" viewBox="0 0 2000 1154.5" style="enable-background:new 0 0 2000 1154.5;" xml:space="preserve">
<style type="text/css">
	.st0{fill:none;stroke:#057ADC;stroke-width:2;stroke-miterlimit:10;stroke-dasharray:24;}
	.st1{fill:none;stroke:#057ADC;stroke-width:2;stroke-miterlimit:10;}
	.st2{fill:none;stroke:#057ADC;stroke-width:4;stroke-miterlimit:10;}
	.st3{fill:#181D28;stroke:#057ADC;stroke-width:2;stroke-miterlimit:10;}
	.st4{fill:#181D28;stroke:#057ADC;stroke-width:2.0026;stroke-miterlimit:10.013;}
</style>
<line class="st0" x1="1823.6" y1="678.2" x2="824.4" y2="101.2"/>
<line class="st0" x1="712.5" y1="405.2" x2="505.4" y2="285.5"/>
<line class="st0" x1="1504.6" y1="862.8" x2="764.5" y2="435.2"/>
<line class="st0" x1="1184.5" y1="1046" x2="186.3" y2="469.7"/>
<polygon class="st1" points="973.3,15.3 983.9,9.2 1983.6,586.4 1972.5,592.2 "/>
<polygon class="st1" points="654.8,199.3 664.8,193.5 1653.4,776.8 1642.8,782.9 "/>
<polygon class="st1" points="335.2,383.7 345.8,377.7 1345.6,954.9 1335,961 "/>
<polygon class="st1" points="16.4,568 26.8,561.9 1026,1138.8 1016,1145.2 "/>
<line class="st2" x1="764.5" y1="459.7" x2="870.8" y2="521.1"/>
<line class="st2" x1="700.7" y1="447.4" x2="850.6" y2="533.4"/>
<line class="st2" x1="807" y1="435.1" x2="913.4" y2="496.5"/>
<line class="st2" x1="743.2" y1="422.8" x2="892.1" y2="508.8"/>
<path class="st3" d="M968.8,637.9v41.4l25.1-14.5c6.7-3.9,10.8-11,10.8-18.7v-29"/>
<ellipse transform="matrix(0.9887 -0.1498 0.1498 0.9887 -87.0423 151.2834)" class="st4" cx="960.6" cy="653.4" rx="23.4" ry="31.6"/>
<path class="st3" d="M1148.6,741v41.4l25.1-14.4c6.7-3.9,10.8-11,10.8-18.7v-29"/>
<path class="st3" d="M1011.5,653.7l-16.7-9.7l-5-13.6c-6.6-18.1-26.6-27.3-44.6-20.8c-1.9,0.7-3.7,1.5-5.5,2.6l0,0l-35.9-20.7v-41.9
	c0-25.4,13.5-48.8,35.5-61.5l36.7-21.1c22-12.7,49-12.7,71,0l72.1,41.6"/>
<path class="st3" d="M1298.5,612l35.9,20.7c22.2,12.8,35.9,36.5,35.9,62.2l0,0l-107.6,62.4L903.9,549.7"/>
<path class="st3" d="M1370.3,694.9l-18.6,31.5L1245.8,789l-70.4-40.6l-5.6-14.5c-7-18.2-27.4-27.4-45.7-20.4c-1.7,0.7-3.4,1.5-5,2.4
	l0,0l-107.6-62.1v-41.2c0-25.8,13.8-49.6,36.1-62.5l71.4-41.2c22.3-12.9,49.8-12.9,72.1,0l9.7,5.6c40.6,23.4,74.3,57.1,97.8,97.6
	l0,0l-107.6,62.1l0,0c-23.5-40.5-57.2-74.2-97.8-97.6l-45.7-26.4"/>
<path class="st3" d="M1190.9,674.2l35.9,20.9c22.2,12.9,35.8,36.6,35.8,62.3l0,0l-16.9,31.7"/>
<line class="st1" x1="1253.1" y1="721.4" x2="1360.7" y2="659"/>
<line class="st1" x1="1146.6" y1="617.2" x2="1254.2" y2="555"/>
<line class="st1" x1="1253.6" y1="773.3" x2="1360.7" y2="711.5"/>
<path class="st3" d="M1047.8,633v-20c0-13.4,10.8-24.3,24.2-24.3c4.3,0,8.5,1.1,12.2,3.3l0,0c32.7,19,52.8,54,52.8,91.8v0.8
	L1047.8,633z"/>
<line class="st1" x1="1083.3" y1="591.5" x2="1083.3" y2="695.2"/>
<line class="st1" x1="913.4" y1="514.2" x2="1021.2" y2="576.5"/>
<line class="st1" x1="1011.5" y1="612.5" x2="1262.7" y2="757.3"/>
<line class="st1" x1="1262.7" y1="757.3" x2="1370.3" y2="694.9"/>
<path class="st3" d="M1226.8,721.4L1226.8,721.4l10.3,6.9c9.9,6.6,22.6,7.5,33.3,2.2l0,0c11.4-5.6,18.6-17.2,18.6-29.8l0,0
	l-35.9,20.7l-13.1-7.6c-4.2-2.4-9.6-0.9-11.9,3.3C1227.2,718.4,1226.8,719.8,1226.8,721.4z"/>
<path class="st3" d="M1360.7,659.2l-35.4,20.7l0,0c11,6.3,24.7,5.7,35.1-1.5l0,0c2.3-1.6,4.5-3.5,6.3-5.6
	C1365.2,668.1,1363.1,663.5,1360.7,659.2z"/>
<path class="st3" d="M645.8,316.3h54.5c0,0-11.6,24.9,26.6,43.4c-13.3,0-44.7-4.7-44.7-4.7S652.2,346.8,645.8,316.3z"/>
<path class="st3" d="M532.6,498.1l49.5-21.1c0,0,12.6,65.3,77.1,74.2c-16.2,1-47.2-1.6-47.2-1.6S559.4,546.5,532.6,498.1z"/>
<path class="st3" d="M635,435.4c-3.8,10.7-8.6,22.9-13.1,29.8c7.6,6.3,63.4,41.7,63.4,41.7s11.7-27.2,11-43
	c-6.1-9.7-37.1-45.7-66-63.6l0.3,0.4C637.5,410.9,639.1,423.7,635,435.4z"/>
<path class="st3" d="M781.3,359.1l34.4-36.1c0,0,18,58.9,82,44.2c-5.6,7.9-10.8,16-15.5,24.5C882.3,391.8,822.5,414.1,781.3,359.1z"
	/>
<path class="st3" d="M712.5,264.8l21.9-55c0,0,49.8,16.8,57.5,57.2c-5.2,4.7-55.8,53.3-55.8,53.3S755.9,299.2,712.5,264.8z"/>
<path class="st3" d="M482.6,345.7l20.2,89.4c0,0,30.1,6.4,52.8-7.3c-6-17.2-31.8-89.8-31.8-89.8S500.6,350.9,482.6,345.7z"/>
<path class="st3" d="M626.5,340.9c0,0,19.3,35.2,28.8,51.5c-35.7-22.3-62.3-3.4-62.3-3.4l-21.9-56.3
	C571.1,332.8,609.4,310.1,626.5,340.9z"/>
<path class="st3" d="M740.7,224.1c0,0,84.6,63.9,102.7-27.1c-5,7.8-18.5,43.8-53.7,4.7C783.6,205.2,740.7,224.1,740.7,224.1z"/>
<path class="st3" d="M569.4,273.7l1.4-61.3c0,0,40.1-10.6,77.6,12.3c-1.4,3.7-14.6,51-14.6,51S588.3,265.4,569.4,273.7z"/>
<path class="st3" d="M502.1,369.4l-0.8-49.8c0,0-53.2,31-90.3-23.1c-1.2,9.6-3,19.1-5.2,28.5C405.8,324.9,434.5,381.8,502.1,369.4z"
	/>
<path class="st3" d="M651.7,466.7l-35.3-41.6c0,0-11.5,25-50.3,7.7c8.6,10.2,32.5,31,32.5,31S624.3,481.5,651.7,466.7z"/>
<ellipse transform="matrix(0.9887 -0.1498 0.1498 0.9887 -100.5759 179.3931)" class="st4" cx="1140.5" cy="757.3" rx="23.4" ry="31.6"/>
<ellipse transform="matrix(0.9882 -0.153 0.153 0.9882 -102.4289 183.3892)" class="st3" cx="1140.5" cy="757.3" rx="13" ry="17.5"/>
<ellipse transform="matrix(0.9882 -0.153 0.153 0.9882 -88.6524 154.657)" class="st3" cx="960.6" cy="653.4" rx="13" ry="17.5"/>
</svg>
