<svg id="Final_Illustrations_copy" data-name="Final Illustrations copy" xmlns="http://www.w3.org/2000/svg" viewBox="0 0 2000 2000"><defs><style>.cls-1,.cls-2{fill:none;}.cls-1,.cls-2,.cls-3,.cls-4{stroke:#057adc;stroke-miterlimit:10;}.cls-1,.cls-2,.cls-3{stroke-width:2px;}.cls-1{stroke-dasharray:24;}.cls-3,.cls-4{fill:#181d28;}</style></defs><line class="cls-1" x1="502.57" y1="828" x2="1559.79" y2="1439"/><polyline class="cls-1" points="584.35 1332.38 1238.6 954.49 1059.14 851 1139.05 804.98"/><polyline class="cls-1" points="1219.16 1126.75 1517.46 954.51 1694.37 1056.66"/><polyline class="cls-1" points="720.72 654.21 860.78 574.33 947.53 625.44"/><polyline class="cls-1" points="1397.95 724.49 1417.87 712.99 1875.99 977.51 1099.2 1426.05 302.43 966.01 362.19 931.51"/><polyline class="cls-1" points="1397.95 1621.57 1237.74 1714.07 999.58 1575.56"/><polygon class="cls-2" points="441.42 1176.25 454.74 1168.56 468.06 1176.25 454.74 1183.94 441.42 1176.25"/><polyline class="cls-2" points="494.7 1376.28 468.06 1283.98 468.06 1176.25 454.74 1160.87 441.42 1176.25 441.42 1283.98 414.77 1376.28"/><line class="cls-2" x1="454.74" y1="1160.87" x2="454.74" y2="1399.35"/><polygon class="cls-2" points="441.42 1191.68 454.74 1183.99 468.06 1191.68 454.74 1199.37 441.42 1191.68"/><polygon class="cls-2" points="441.42 1283.98 454.74 1276.29 468.06 1283.98 454.74 1291.67 441.42 1283.98"/><polygon class="cls-2" points="441.42 1207.06 454.74 1199.37 468.06 1207.06 454.74 1214.75 441.42 1207.06"/><polygon class="cls-2" points="441.42 1222.53 454.74 1214.84 468.06 1222.53 454.74 1230.23 441.42 1222.53"/><polygon class="cls-2" points="441.42 1237.83 454.74 1230.14 468.06 1237.83 454.74 1245.52 441.42 1237.83"/><polygon class="cls-2" points="441.42 1253.21 454.74 1245.52 468.06 1253.21 454.74 1260.9 441.42 1253.21"/><polygon class="cls-2" points="441.42 1268.59 454.74 1260.9 468.06 1268.59 454.74 1276.29 441.42 1268.59"/><polygon class="cls-2" points="454.74 1291.67 435.86 1303.21 454.74 1314.74 473.61 1303.21 454.74 1291.67"/><polygon class="cls-2" points="468.06 1191.68 461.4 1180.1 454.74 1199.37 448 1180.1 441.42 1191.68 448.07 1172.45 454.74 1183.99 461.4 1172.4 468.06 1191.68"/><polygon class="cls-2" points="468.06 1207.06 461.4 1195.48 454.74 1214.75 448 1195.48 441.42 1207.06 448.07 1187.83 454.74 1199.37 461.4 1187.79 468.06 1207.06"/><polygon class="cls-2" points="468.06 1222.47 461.4 1210.88 454.74 1230.16 448 1210.88 441.42 1222.47 448.07 1203.24 454.74 1214.78 461.4 1203.19 468.06 1222.47"/><polygon class="cls-2" points="468.06 1237.85 461.4 1226.27 454.74 1245.54 448 1226.27 441.42 1237.85 448.07 1218.62 454.74 1230.16 461.4 1218.58 468.06 1237.85"/><polygon class="cls-2" points="468.06 1253.23 461.4 1241.65 454.74 1260.92 448 1241.65 441.42 1253.23 448.07 1234 454.74 1245.54 461.4 1233.96 468.06 1253.23"/><polygon class="cls-2" points="468.06 1268.62 461.4 1257.04 454.74 1276.31 448 1257.04 441.42 1268.62 448.07 1249.39 454.74 1260.92 461.4 1249.34 468.06 1268.62"/><polygon class="cls-2" points="468.06 1284 461.4 1272.42 454.74 1291.69 448 1272.42 441.42 1284 448.07 1264.77 454.74 1276.31 461.4 1264.73 468.06 1284"/><polygon class="cls-2" points="454.74 1314.74 428.09 1330.13 454.74 1345.51 481.38 1330.13 454.74 1314.74"/><polygon class="cls-2" points="473.61 1303.21 461.4 1287.82 454.74 1314.74 448.07 1287.82 435.86 1303.21 448.11 1280.11 454.74 1291.69 461.44 1280.11 473.61 1303.21"/><polygon class="cls-2" points="481.38 1330.13 464.73 1308.98 454.74 1345.51 444.75 1308.98 428.09 1330.13 445.32 1297.43 454.74 1314.74 464.15 1297.43 481.38 1330.13"/><polygon class="cls-2" points="492.8 1369.68 468.06 1337.82 454.74 1391.66 441.42 1337.82 416.68 1369.68 441.42 1322.44 454.74 1345.51 468.06 1322.44 492.8 1369.68"/><polyline class="cls-2" points="408.11 1375.96 408.11 1376.97 414.77 1380.82 421.43 1376.97 421.43 1375.96"/><polygon class="cls-2" points="414.77 1372.11 408.11 1375.96 408.11 1375.96 414.77 1379.81 421.43 1375.96 421.43 1375.96 414.77 1372.11"/><line class="cls-2" x1="414.77" y1="1380.81" x2="414.77" y2="1379.81"/><polyline class="cls-2" points="488.04 1375.77 488.04 1376.78 494.7 1380.63 501.36 1376.78 501.36 1375.77"/><polygon class="cls-2" points="494.7 1371.93 488.04 1375.77 488.04 1375.77 494.7 1379.62 501.36 1375.77 501.36 1375.77 494.7 1371.93"/><line class="cls-2" x1="494.7" y1="1380.63" x2="494.7" y2="1379.62"/><polyline class="cls-2" points="448.07 1398.85 448.07 1399.86 454.74 1403.7 461.4 1399.86 461.4 1398.85"/><polygon class="cls-2" points="454.74 1395 448.08 1398.85 448.08 1398.85 454.74 1402.69 461.39 1398.85 461.39 1398.85 454.74 1395"/><line class="cls-2" x1="454.74" y1="1403.7" x2="454.74" y2="1402.69"/><polyline class="cls-2" points="448.07 1352.99 448.07 1354 454.74 1357.84 461.4 1354 461.4 1352.99"/><polygon class="cls-2" points="454.74 1349.14 448.08 1352.99 448.08 1352.99 454.74 1356.83 461.39 1352.99 461.39 1352.99 454.74 1349.14"/><line class="cls-2" x1="454.74" y1="1357.84" x2="454.74" y2="1356.83"/><polyline class="cls-2" points="428.09 1207.06 454.74 1199.37 468.06 1191.68 481.45 1176.26 481.45 1176.25 428.1 1207.06 428.1 1207.06 441.42 1191.68 454.74 1183.99 481.46 1176.25"/><line class="cls-2" x1="481.46" y1="1176.25" x2="481.46" y2="1183.94"/><line class="cls-2" x1="428.09" y1="1214.84" x2="428.1" y2="1207.06"/><polyline class="cls-2" points="428.06 1268.53 454.7 1260.84 468.02 1253.14 481.41 1237.72 481.41 1237.72 428.06 1268.52 428.06 1268.52 441.38 1253.14 454.7 1245.45 481.42 1237.72"/><line class="cls-2" x1="481.42" y1="1245.41" x2="481.42" y2="1237.72"/><line class="cls-2" x1="428.05" y1="1276.31" x2="428.06" y2="1268.52"/><polyline class="cls-2" points="494.7 1199.37 454.74 1214.75 441.42 1222.47 414.77 1245.48 494.7 1199.37 468.06 1222.47 454.74 1230.16 414.77 1245.48"/><line class="cls-2" x1="414.77" y1="1253.21" x2="414.77" y2="1245.37"/><line class="cls-2" x1="494.7" y1="1207.06" x2="494.7" y2="1199.24"/><polygon class="cls-2" points="707.84 1330.08 721.16 1322.39 734.48 1330.08 721.16 1337.77 707.84 1330.08"/><polyline class="cls-2" points="761.12 1530.11 734.48 1437.81 734.48 1330.08 721.16 1314.7 707.84 1330.08 707.84 1437.81 681.2 1530.11"/><line class="cls-2" x1="721.16" y1="1314.7" x2="721.16" y2="1553.19"/><polygon class="cls-2" points="707.84 1345.51 721.16 1337.82 734.48 1345.51 721.16 1353.2 707.84 1345.51"/><polygon class="cls-2" points="707.84 1437.81 721.16 1430.12 734.48 1437.81 721.16 1445.5 707.84 1437.81"/><polygon class="cls-2" points="707.84 1360.89 721.16 1353.2 734.48 1360.89 721.16 1368.59 707.84 1360.89"/><polygon class="cls-2" points="707.84 1376.37 721.16 1368.67 734.48 1376.37 721.16 1384.06 707.84 1376.37"/><polygon class="cls-2" points="707.84 1391.66 721.16 1383.97 734.48 1391.66 721.16 1399.35 707.84 1391.66"/><polygon class="cls-2" points="707.84 1407.04 721.16 1399.35 734.48 1407.04 721.16 1414.74 707.84 1407.04"/><polygon class="cls-2" points="707.84 1422.43 721.16 1414.74 734.48 1422.43 721.16 1430.12 707.84 1422.43"/><polygon class="cls-2" points="721.16 1445.5 702.29 1457.04 721.16 1468.58 740.03 1457.04 721.16 1445.5"/><polygon class="cls-2" points="734.48 1345.51 727.82 1333.93 721.16 1353.2 714.42 1333.93 707.84 1345.51 714.5 1326.28 721.16 1337.82 727.82 1326.24 734.48 1345.51"/><polygon class="cls-2" points="734.48 1360.89 727.82 1349.31 721.16 1368.59 714.42 1349.31 707.84 1360.89 714.5 1341.66 721.16 1353.2 727.82 1341.62 734.48 1360.89"/><polygon class="cls-2" points="734.48 1376.3 727.82 1364.72 721.16 1383.99 714.42 1364.72 707.84 1376.3 714.5 1357.07 721.16 1368.61 727.82 1357.03 734.48 1376.3"/><polygon class="cls-2" points="734.48 1391.68 727.82 1380.1 721.16 1399.38 714.42 1380.1 707.84 1391.68 714.5 1372.45 721.16 1383.99 727.82 1372.41 734.48 1391.68"/><polygon class="cls-2" points="734.48 1407.07 727.82 1395.48 721.16 1414.76 714.42 1395.48 707.84 1407.07 714.5 1387.84 721.16 1399.38 727.82 1387.79 734.48 1407.07"/><polygon class="cls-2" points="734.48 1422.45 727.82 1410.87 721.16 1430.14 714.42 1410.87 707.84 1422.45 714.5 1403.22 721.16 1414.76 727.82 1403.18 734.48 1422.45"/><polygon class="cls-2" points="734.48 1437.83 727.82 1426.25 721.16 1445.53 714.42 1426.25 707.84 1437.83 714.5 1418.6 721.16 1430.14 727.82 1418.56 734.48 1437.83"/><polygon class="cls-2" points="721.16 1468.58 694.52 1483.96 721.16 1499.34 747.8 1483.96 721.16 1468.58"/><polygon class="cls-2" points="740.03 1457.04 727.82 1441.66 721.16 1468.58 714.5 1441.66 702.29 1457.04 714.54 1433.94 721.16 1445.53 727.86 1433.94 740.03 1457.04"/><polygon class="cls-2" points="747.8 1483.96 731.15 1462.81 721.16 1499.34 711.17 1462.81 694.52 1483.96 711.74 1451.26 721.16 1468.58 730.58 1451.26 747.8 1483.96"/><polygon class="cls-2" points="759.22 1523.52 734.48 1491.65 721.16 1545.49 707.84 1491.65 683.1 1523.52 707.84 1476.27 721.16 1499.34 734.48 1476.27 759.22 1523.52"/><polyline class="cls-2" points="674.53 1529.79 674.53 1530.8 681.2 1534.65 687.86 1530.8 687.86 1529.79"/><polygon class="cls-2" points="681.2 1525.95 674.54 1529.79 674.54 1529.79 681.2 1533.64 687.86 1529.79 687.86 1529.79 681.2 1525.95"/><line class="cls-2" x1="681.2" y1="1534.65" x2="681.2" y2="1533.64"/><polyline class="cls-2" points="754.46 1529.61 754.46 1530.62 761.12 1534.46 767.78 1530.62 767.78 1529.61"/><polygon class="cls-2" points="761.12 1525.76 754.46 1529.61 754.46 1529.61 761.12 1533.45 767.78 1529.61 767.78 1529.61 761.12 1525.76"/><line class="cls-2" x1="761.12" y1="1534.46" x2="761.12" y2="1533.45"/><polyline class="cls-2" points="714.5 1552.68 714.5 1553.69 721.16 1557.54 727.82 1553.69 727.82 1552.68"/><polygon class="cls-2" points="721.16 1548.84 714.5 1552.68 714.5 1552.68 721.16 1556.53 727.82 1552.68 727.82 1552.68 721.16 1548.84"/><line class="cls-2" x1="721.16" y1="1557.54" x2="721.16" y2="1556.53"/><polyline class="cls-2" points="714.5 1506.82 714.5 1507.83 721.16 1511.67 727.82 1507.83 727.82 1506.82"/><polygon class="cls-2" points="721.16 1502.97 714.5 1506.82 714.5 1506.82 721.16 1510.66 727.82 1506.82 727.82 1506.82 721.16 1502.97"/><line class="cls-2" x1="721.16" y1="1511.67" x2="721.16" y2="1510.67"/><polyline class="cls-2" points="694.52 1360.89 721.16 1353.2 734.48 1345.51 747.88 1330.09 747.87 1330.09 694.52 1360.89 694.52 1360.89 707.84 1345.51 721.16 1337.82 747.88 1330.08"/><line class="cls-2" x1="747.88" y1="1337.77" x2="747.88" y2="1330.08"/><line class="cls-2" x1="694.52" y1="1368.68" x2="694.52" y2="1360.89"/><polyline class="cls-2" points="694.48 1422.36 721.12 1414.67 734.44 1406.98 747.84 1391.55 747.84 1391.55 694.48 1422.36 694.48 1422.36 707.8 1406.98 721.12 1399.29 747.84 1391.55"/><line class="cls-2" x1="747.84" y1="1399.24" x2="747.84" y2="1391.55"/><line class="cls-2" x1="694.48" y1="1430.14" x2="694.48" y2="1422.36"/><polyline class="cls-2" points="761.12 1353.2 721.16 1368.59 707.84 1376.3 681.2 1399.31 761.12 1353.2 734.48 1376.3 721.16 1383.99 681.2 1399.31"/><line class="cls-2" x1="681.2" y1="1407.04" x2="681.2" y2="1399.2"/><line class="cls-2" x1="761.12" y1="1360.89" x2="761.12" y2="1353.07"/><path class="cls-2" d="M481.38,1183.81l59.67,46a582.77,582.77,0,0,0,130.68,76l76.06,31.86"/><path class="cls-2" d="M428,1214.69l59.67,46a582.75,582.75,0,0,0,130.68,76l76.06,31.85"/><path class="cls-2" d="M414.69,1253.06l59.67,46A582.75,582.75,0,0,0,605,1375l76.06,31.85"/><path class="cls-2" d="M428,1276.19l59.67,46a582.75,582.75,0,0,0,130.68,76L694.44,1430"/><path class="cls-2" d="M481.38,1245.29l59.67,46a582.77,582.77,0,0,0,130.68,76l76.06,31.85"/><path class="cls-2" d="M494.7,1206.94l59.67,46a582.77,582.77,0,0,0,130.68,76l76.06,31.85"/><path class="cls-2" d="M215,1030l59.67,46a582.77,582.77,0,0,0,130.68,76l76.06,31.86"/><path class="cls-2" d="M228.29,1053.12l59.67,46a582.77,582.77,0,0,0,130.68,76l76.06,31.86"/><path class="cls-2" d="M215,1091.47l59.67,46a582.33,582.33,0,0,0,130.68,76l76.06,31.86"/><path class="cls-2" d="M161.65,1122.38l59.67,46a582.77,582.77,0,0,0,130.68,76l76.06,31.85"/><path class="cls-2" d="M148.28,1099.24l59.66,46a583,583,0,0,0,130.69,76l76.06,31.85"/><path class="cls-2" d="M161.62,1060.87l59.67,46a582.75,582.75,0,0,0,130.68,76L428,1214.69"/><path class="cls-2" d="M747.79,1337.63l59.67,46a583.19,583.19,0,0,0,130.68,76l76.06,31.85"/><path class="cls-2" d="M761.11,1360.75l59.67,46a583.19,583.19,0,0,0,130.68,76l76.06,31.85"/><path class="cls-2" d="M747.83,1399.1l59.67,46a582.75,582.75,0,0,0,130.68,76l76.06,31.85"/><path class="cls-2" d="M694.47,1430l59.67,46a583.19,583.19,0,0,0,130.68,76l76.06,31.85"/><path class="cls-2" d="M681.1,1406.88l59.67,46a582.75,582.75,0,0,0,130.68,76l76.06,31.85"/><path class="cls-2" d="M694.44,1368.51l59.67,46a582.55,582.55,0,0,0,130.68,76l76.06,31.86"/><polyline class="cls-3" points="510.8 708.75 510.85 726.11 513.57 727.68 516.29 726.11 516.29 712.98"/><line class="cls-3" x1="513.57" y1="727.68" x2="513.57" y2="710.89"/><polyline class="cls-3" points="581.5 744.95 581.5 754.37 584.22 755.93 586.94 754.37 586.94 741.81"/><line class="cls-3" x1="584.22" y1="755.93" x2="584.22" y2="743.38"/><polyline class="cls-3" points="673.86 691.57 673.86 701.02 676.58 702.59 679.3 701.02 679.3 688.43"/><line class="cls-3" x1="676.58" y1="702.59" x2="676.58" y2="690"/><polyline class="cls-3" points="630.44 716.69 630.44 726.17 633.16 727.75 635.88 726.17 635.88 713.55"/><line class="cls-3" x1="633.16" y1="727.75" x2="633.16" y2="715.17"/><polygon class="cls-3" points="567.93 746.56 502.66 696.27 502.66 696.27 622.29 627.21 687.46 677.48 687.46 677.49 567.93 746.56"/><polygon class="cls-3" points="502.66 696.27 502.72 702.52 567.91 752.79 567.91 752.79 567.93 746.56 502.66 696.27 502.66 696.27"/><polygon class="cls-3" points="567.91 752.79 567.93 746.56 687.46 677.49 687.46 677.49 687.54 683.72 567.91 752.79 567.91 752.79"/><polygon class="cls-3" points="508.1 696.33 567.91 743.38 682.1 677.44 622.28 630.34 508.1 696.33"/><polygon class="cls-3" points="513.61 696.33 567.93 740.3 676.58 677.48 622.36 633.44 513.61 696.33"/><line class="cls-4" x1="616.95" y1="636.57" x2="671.23" y2="680.58"/><line class="cls-4" x1="519.12" y1="693.14" x2="573.35" y2="737.17"/><line class="cls-4" x1="524.55" y1="690" x2="578.79" y2="733.96"/><line class="cls-4" x1="529.98" y1="686.86" x2="584.22" y2="730.89"/><line class="cls-4" x1="535.41" y1="683.72" x2="589.77" y2="727.68"/><line class="cls-4" x1="540.86" y1="680.6" x2="595.1" y2="724.6"/><line class="cls-4" x1="546.23" y1="677.48" x2="600.63" y2="721.4"/><line class="cls-4" x1="551.7" y1="674.3" x2="605.97" y2="718.31"/><line class="cls-4" x1="557.03" y1="671.21" x2="611.41" y2="715.17"/><line class="cls-4" x1="563.1" y1="668.02" x2="616.85" y2="712.02"/><line class="cls-4" x1="568.28" y1="664.71" x2="622.35" y2="708.84"/><line class="cls-4" x1="573.43" y1="661.79" x2="627.73" y2="705.73"/><line class="cls-4" x1="578.84" y1="658.6" x2="633.22" y2="702.59"/><line class="cls-4" x1="584.27" y1="655.46" x2="638.64" y2="699.44"/><line class="cls-4" x1="589.77" y1="652.32" x2="644.12" y2="696.32"/><line class="cls-4" x1="595.32" y1="649.33" x2="649.42" y2="693.19"/><line class="cls-4" x1="600.63" y1="646.1" x2="654.91" y2="690.02"/><line class="cls-4" x1="606.03" y1="643.01" x2="660.35" y2="686.87"/><line class="cls-4" x1="611.41" y1="639.77" x2="665.72" y2="683.76"/><line class="cls-4" x1="518.07" y1="699.94" x2="626.88" y2="637.11"/><line class="cls-4" x1="522.6" y1="703.6" x2="631.3" y2="640.84"/><line class="cls-4" x1="527.13" y1="707.27" x2="635.92" y2="644.45"/><line class="cls-4" x1="531.66" y1="710.93" x2="640.43" y2="648.12"/><line class="cls-4" x1="536.18" y1="714.6" x2="644.95" y2="651.79"/><line class="cls-4" x1="540.8" y1="718.21" x2="649.42" y2="655.5"/><line class="cls-4" x1="545.24" y1="721.93" x2="653.99" y2="659.14"/><line class="cls-4" x1="549.77" y1="725.59" x2="658.51" y2="662.81"/><line class="cls-4" x1="554.32" y1="729.28" x2="663.03" y2="666.47"/><line class="cls-4" x1="558.82" y1="732.92" x2="667.55" y2="670.15"/><line class="cls-4" x1="563.35" y1="736.59" x2="672.07" y2="673.82"/><polyline class="cls-3" points="380.29 784.1 380.35 801.46 383.07 803.03 385.79 801.46 385.79 788.34"/><line class="cls-3" x1="383.07" y1="803.03" x2="383.07" y2="786.24"/><polyline class="cls-3" points="451 820.3 451 829.72 453.72 831.29 456.44 829.72 456.44 817.16"/><line class="cls-3" x1="453.72" y1="831.29" x2="453.72" y2="818.73"/><polyline class="cls-3" points="543.36 766.92 543.36 776.38 546.08 777.95 548.8 776.38 548.8 763.78"/><line class="cls-3" x1="546.08" y1="777.95" x2="546.08" y2="765.35"/><polyline class="cls-3" points="499.94 792.04 499.94 801.53 502.66 803.1 505.38 801.53 505.38 788.9"/><line class="cls-3" x1="502.66" y1="803.1" x2="502.66" y2="790.52"/><polygon class="cls-3" points="437.43 821.91 372.15 771.63 372.15 771.63 491.78 702.56 556.95 752.84 556.95 752.84 437.43 821.91"/><polygon class="cls-3" points="372.15 771.63 372.22 777.87 437.4 828.15 437.41 828.15 437.43 821.91 372.15 771.63 372.15 771.63"/><polygon class="cls-3" points="437.41 828.15 437.43 821.91 556.95 752.84 556.96 752.84 557.03 759.07 437.41 828.15 437.41 828.15"/><polygon class="cls-3" points="377.59 771.68 437.4 818.73 551.6 752.79 491.78 705.7 377.59 771.68"/><polygon class="cls-3" points="383.11 771.68 437.43 815.66 546.08 752.84 491.85 708.79 383.11 771.68"/><line class="cls-4" x1="486.44" y1="711.92" x2="540.72" y2="755.93"/><line class="cls-4" x1="388.61" y1="768.49" x2="442.84" y2="812.53"/><line class="cls-4" x1="394.04" y1="765.35" x2="448.28" y2="809.31"/><line class="cls-4" x1="399.47" y1="762.21" x2="453.72" y2="806.24"/><line class="cls-4" x1="404.9" y1="759.07" x2="459.27" y2="803.03"/><line class="cls-4" x1="410.35" y1="755.95" x2="464.59" y2="799.95"/><line class="cls-4" x1="415.73" y1="752.84" x2="470.13" y2="796.75"/><line class="cls-4" x1="421.19" y1="749.66" x2="475.47" y2="793.66"/><line class="cls-4" x1="426.53" y1="746.57" x2="480.91" y2="790.52"/><line class="cls-4" x1="432.6" y1="743.38" x2="486.34" y2="787.38"/><line class="cls-4" x1="437.77" y1="740.07" x2="491.85" y2="784.19"/><line class="cls-4" x1="442.93" y1="737.15" x2="497.22" y2="781.09"/><line class="cls-4" x1="448.34" y1="733.96" x2="502.71" y2="777.94"/><line class="cls-4" x1="453.77" y1="730.82" x2="508.13" y2="774.79"/><line class="cls-4" x1="459.27" y1="727.68" x2="513.61" y2="771.68"/><line class="cls-4" x1="464.81" y1="724.69" x2="518.91" y2="768.54"/><line class="cls-4" x1="470.13" y1="721.45" x2="524.41" y2="765.38"/><line class="cls-4" x1="475.52" y1="718.37" x2="529.85" y2="762.22"/><line class="cls-4" x1="480.91" y1="715.12" x2="535.21" y2="759.12"/><line class="cls-4" x1="387.57" y1="775.29" x2="496.37" y2="712.47"/><line class="cls-4" x1="392.09" y1="778.96" x2="500.79" y2="716.2"/><line class="cls-4" x1="396.62" y1="782.62" x2="505.41" y2="719.81"/><line class="cls-4" x1="401.15" y1="786.29" x2="509.93" y2="723.48"/><line class="cls-4" x1="405.68" y1="789.95" x2="514.45" y2="727.15"/><line class="cls-4" x1="410.3" y1="793.56" x2="518.91" y2="730.85"/><line class="cls-4" x1="414.73" y1="797.28" x2="523.49" y2="734.49"/><line class="cls-4" x1="419.26" y1="800.95" x2="528" y2="738.16"/><line class="cls-4" x1="423.81" y1="804.63" x2="532.52" y2="741.83"/><line class="cls-4" x1="428.31" y1="808.28" x2="537.04" y2="745.5"/><line class="cls-4" x1="432.84" y1="811.94" x2="541.56" y2="749.17"/><polyline class="cls-3" points="249.78 859.46 249.84 876.82 252.56 878.39 255.28 876.82 255.28 863.7"/><line class="cls-3" x1="252.56" y1="878.39" x2="252.56" y2="861.6"/><polyline class="cls-3" points="320.49 895.66 320.49 905.08 323.21 906.65 325.93 905.08 325.93 892.52"/><line class="cls-3" x1="323.21" y1="906.65" x2="323.21" y2="894.09"/><polyline class="cls-3" points="412.85 842.29 412.85 851.74 415.57 853.31 418.29 851.74 418.29 839.15"/><line class="cls-3" x1="415.57" y1="853.31" x2="415.57" y2="840.72"/><polyline class="cls-3" points="369.43 867.4 369.43 876.89 372.15 878.46 374.87 876.89 374.87 864.26"/><line class="cls-3" x1="372.15" y1="878.46" x2="372.15" y2="865.89"/><polygon class="cls-3" points="306.92 897.28 241.65 846.99 241.65 846.99 361.28 777.92 426.45 828.2 426.45 828.2 306.92 897.28"/><polygon class="cls-3" points="241.65 846.99 241.71 853.24 306.9 903.51 306.9 903.51 306.92 897.28 241.65 846.99 241.65 846.99"/><polygon class="cls-3" points="306.9 903.51 306.92 897.28 426.45 828.2 426.45 828.2 426.53 834.44 306.9 903.51 306.9 903.51"/><polygon class="cls-3" points="247.08 847.04 306.9 894.09 421.09 828.16 361.27 781.06 247.08 847.04"/><polygon class="cls-3" points="252.6 847.04 306.92 891.02 415.57 828.2 361.34 784.16 252.6 847.04"/><line class="cls-4" x1="355.93" y1="787.29" x2="410.22" y2="831.3"/><line class="cls-4" x1="258.11" y1="843.86" x2="312.34" y2="887.89"/><line class="cls-4" x1="263.54" y1="840.72" x2="317.77" y2="884.67"/><line class="cls-4" x1="268.97" y1="837.58" x2="323.21" y2="881.6"/><line class="cls-4" x1="274.4" y1="834.44" x2="328.76" y2="878.39"/><line class="cls-4" x1="279.84" y1="831.31" x2="334.09" y2="875.31"/><line class="cls-4" x1="285.22" y1="828.2" x2="339.62" y2="872.11"/><line class="cls-4" x1="290.69" y1="825.02" x2="344.96" y2="869.03"/><line class="cls-4" x1="296.02" y1="821.93" x2="350.4" y2="865.88"/><line class="cls-4" x1="302.09" y1="818.74" x2="355.84" y2="862.74"/><line class="cls-4" x1="307.27" y1="815.43" x2="361.34" y2="859.55"/><line class="cls-4" x1="312.42" y1="812.51" x2="366.71" y2="856.45"/><line class="cls-4" x1="317.83" y1="809.32" x2="372.2" y2="853.31"/><line class="cls-4" x1="323.26" y1="806.18" x2="377.63" y2="850.16"/><line class="cls-4" x1="328.76" y1="803.04" x2="383.11" y2="847.04"/><line class="cls-4" x1="334.3" y1="800.05" x2="388.41" y2="843.91"/><line class="cls-4" x1="339.62" y1="796.82" x2="393.9" y2="840.74"/><line class="cls-4" x1="345.02" y1="793.73" x2="399.34" y2="837.59"/><line class="cls-4" x1="350.4" y1="790.49" x2="404.7" y2="834.48"/><line class="cls-4" x1="257.06" y1="850.65" x2="365.87" y2="787.83"/><line class="cls-4" x1="261.59" y1="854.32" x2="370.29" y2="791.56"/><line class="cls-4" x1="266.12" y1="857.98" x2="374.9" y2="795.17"/><line class="cls-4" x1="270.64" y1="861.65" x2="379.42" y2="798.84"/><line class="cls-4" x1="275.17" y1="865.31" x2="383.94" y2="802.51"/><line class="cls-4" x1="279.79" y1="868.93" x2="388.41" y2="806.21"/><line class="cls-4" x1="284.23" y1="872.65" x2="392.98" y2="809.85"/><line class="cls-4" x1="288.75" y1="876.31" x2="397.5" y2="813.52"/><line class="cls-4" x1="293.3" y1="879.99" x2="402.02" y2="817.19"/><line class="cls-4" x1="297.81" y1="883.64" x2="406.54" y2="820.86"/><line class="cls-4" x1="302.34" y1="887.31" x2="411.05" y2="824.53"/><polyline class="cls-3" points="630.33 777.81 630.39 795.17 633.11 796.74 635.83 795.17 635.83 782.05"/><line class="cls-3" x1="633.11" y1="796.74" x2="633.11" y2="779.95"/><polyline class="cls-3" points="701.04 814.01 701.04 823.43 703.76 825 706.48 823.43 706.48 810.87"/><line class="cls-3" x1="703.76" y1="825" x2="703.76" y2="812.44"/><polyline class="cls-3" points="793.4 760.64 793.4 770.09 796.12 771.66 798.84 770.09 798.84 757.5"/><line class="cls-3" x1="796.12" y1="771.66" x2="796.12" y2="759.07"/><polyline class="cls-3" points="749.98 785.75 749.98 795.24 752.7 796.81 755.42 795.24 755.42 782.61"/><line class="cls-3" x1="752.7" y1="796.81" x2="752.7" y2="784.23"/><polygon class="cls-3" points="687.47 815.63 622.2 765.34 622.2 765.34 741.83 696.27 807 746.55 807 746.55 687.47 815.63"/><polygon class="cls-3" points="622.19 765.34 622.26 771.59 687.45 821.86 687.45 821.86 687.47 815.63 622.2 765.34 622.19 765.34"/><polygon class="cls-3" points="687.45 821.86 687.47 815.63 807 746.55 807 746.55 807.08 752.79 687.45 821.86 687.45 821.86"/><polygon class="cls-3" points="627.63 765.39 687.45 812.44 801.64 746.51 741.82 699.41 627.63 765.39"/><polygon class="cls-3" points="633.15 765.39 687.47 809.37 796.12 746.55 741.89 702.51 633.15 765.39"/><line class="cls-4" x1="736.48" y1="705.63" x2="790.76" y2="749.65"/><line class="cls-4" x1="638.66" y1="762.21" x2="692.88" y2="806.24"/><line class="cls-4" x1="644.09" y1="759.07" x2="698.32" y2="803.02"/><line class="cls-4" x1="649.52" y1="755.93" x2="703.76" y2="799.95"/><line class="cls-4" x1="654.95" y1="752.79" x2="709.31" y2="796.74"/><line class="cls-4" x1="660.39" y1="749.66" x2="714.64" y2="793.66"/><line class="cls-4" x1="665.77" y1="746.55" x2="720.17" y2="790.46"/><line class="cls-4" x1="671.23" y1="743.37" x2="725.51" y2="787.38"/><line class="cls-4" x1="676.57" y1="740.28" x2="730.95" y2="784.23"/><line class="cls-4" x1="682.64" y1="737.09" x2="736.39" y2="781.09"/><line class="cls-4" x1="687.82" y1="733.78" x2="741.89" y2="777.9"/><line class="cls-4" x1="692.97" y1="730.86" x2="747.26" y2="774.8"/><line class="cls-4" x1="698.38" y1="727.67" x2="752.75" y2="771.66"/><line class="cls-4" x1="703.81" y1="724.53" x2="758.18" y2="768.51"/><line class="cls-4" x1="709.31" y1="721.39" x2="763.65" y2="765.39"/><line class="cls-4" x1="714.85" y1="718.4" x2="768.96" y2="762.26"/><line class="cls-4" x1="720.17" y1="715.17" x2="774.45" y2="759.09"/><line class="cls-4" x1="725.57" y1="712.08" x2="779.89" y2="755.93"/><line class="cls-4" x1="730.95" y1="708.83" x2="785.25" y2="752.83"/><line class="cls-4" x1="637.61" y1="769" x2="746.41" y2="706.18"/><line class="cls-4" x1="642.14" y1="772.67" x2="750.83" y2="709.91"/><line class="cls-4" x1="646.67" y1="776.33" x2="755.45" y2="713.52"/><line class="cls-4" x1="651.19" y1="780" x2="759.97" y2="717.19"/><line class="cls-4" x1="655.72" y1="783.66" x2="764.49" y2="720.86"/><line class="cls-4" x1="660.34" y1="787.28" x2="768.96" y2="724.56"/><line class="cls-4" x1="664.78" y1="791" x2="773.53" y2="728.2"/><line class="cls-4" x1="669.3" y1="794.66" x2="778.05" y2="731.87"/><line class="cls-4" x1="673.85" y1="798.34" x2="782.56" y2="735.54"/><line class="cls-4" x1="678.36" y1="801.99" x2="787.08" y2="739.21"/><line class="cls-4" x1="682.89" y1="805.66" x2="791.6" y2="742.88"/><polyline class="cls-3" points="499.83 853.16 499.88 870.53 502.6 872.1 505.32 870.53 505.32 857.4"/><line class="cls-3" x1="502.6" y1="872.1" x2="502.6" y2="855.31"/><polyline class="cls-3" points="570.54 889.37 570.54 898.78 573.25 900.36 575.97 898.78 575.97 886.23"/><line class="cls-3" x1="573.25" y1="900.35" x2="573.25" y2="887.8"/><polyline class="cls-3" points="662.89 835.99 662.89 845.44 665.61 847.01 668.33 845.44 668.33 832.85"/><line class="cls-3" x1="665.61" y1="847.01" x2="665.61" y2="834.42"/><polyline class="cls-3" points="619.48 861.11 619.48 870.6 622.19 872.16 624.91 870.6 624.91 857.97"/><line class="cls-3" x1="622.19" y1="872.17" x2="622.19" y2="859.59"/><polygon class="cls-3" points="556.97 890.98 491.69 840.7 491.69 840.69 611.32 771.63 676.49 821.9 676.49 821.9 556.97 890.98"/><polygon class="cls-3" points="491.69 840.7 491.75 846.94 556.94 897.22 556.94 897.21 556.97 890.98 491.69 840.7 491.69 840.7"/><polygon class="cls-3" points="556.94 897.21 556.97 890.98 676.49 821.9 676.49 821.91 676.57 828.14 556.95 897.22 556.94 897.21"/><polygon class="cls-3" points="497.13 840.75 556.94 887.8 671.13 821.86 611.32 774.76 497.13 840.75"/><polygon class="cls-3" points="502.64 840.75 556.97 884.72 665.61 821.9 611.39 777.86 502.64 840.75"/><line class="cls-4" x1="605.98" y1="780.99" x2="660.26" y2="825"/><line class="cls-4" x1="508.15" y1="837.56" x2="562.38" y2="881.59"/><line class="cls-4" x1="513.58" y1="834.42" x2="567.82" y2="878.38"/><line class="cls-4" x1="519.01" y1="831.28" x2="573.25" y2="875.31"/><line class="cls-4" x1="524.44" y1="828.14" x2="578.8" y2="872.1"/><line class="cls-4" x1="529.89" y1="825.02" x2="584.13" y2="869.02"/><line class="cls-4" x1="535.27" y1="821.9" x2="589.67" y2="865.82"/><line class="cls-4" x1="540.73" y1="818.72" x2="595.01" y2="862.73"/><line class="cls-4" x1="546.07" y1="815.63" x2="600.44" y2="859.59"/><line class="cls-4" x1="552.13" y1="812.44" x2="605.88" y2="856.44"/><line class="cls-4" x1="557.31" y1="809.13" x2="611.39" y2="853.26"/><line class="cls-4" x1="562.47" y1="806.21" x2="616.76" y2="850.15"/><line class="cls-4" x1="567.88" y1="803.02" x2="622.25" y2="847.01"/><line class="cls-4" x1="573.3" y1="799.88" x2="627.67" y2="843.86"/><line class="cls-4" x1="578.8" y1="796.74" x2="633.15" y2="840.75"/><line class="cls-4" x1="584.35" y1="793.75" x2="638.45" y2="837.61"/><line class="cls-4" x1="589.67" y1="790.52" x2="643.95" y2="834.44"/><line class="cls-4" x1="595.06" y1="787.43" x2="649.38" y2="831.29"/><line class="cls-4" x1="600.44" y1="784.19" x2="654.75" y2="828.18"/><line class="cls-4" x1="507.1" y1="844.36" x2="615.91" y2="781.53"/><line class="cls-4" x1="511.63" y1="848.02" x2="620.33" y2="785.26"/><line class="cls-4" x1="516.16" y1="851.69" x2="624.95" y2="788.87"/><line class="cls-4" x1="520.69" y1="855.35" x2="629.47" y2="792.54"/><line class="cls-4" x1="525.21" y1="859.02" x2="633.98" y2="796.21"/><line class="cls-4" x1="529.83" y1="862.63" x2="638.45" y2="799.92"/><line class="cls-4" x1="534.27" y1="866.35" x2="643.02" y2="803.56"/><line class="cls-4" x1="538.8" y1="870.01" x2="647.54" y2="807.23"/><line class="cls-4" x1="543.35" y1="873.7" x2="652.06" y2="810.89"/><line class="cls-4" x1="547.85" y1="877.35" x2="656.58" y2="814.57"/><line class="cls-4" x1="552.38" y1="881.01" x2="661.1" y2="818.24"/><polyline class="cls-3" points="369.32 928.53 369.38 945.89 372.1 947.46 374.82 945.89 374.82 932.77"/><line class="cls-3" x1="372.1" y1="947.46" x2="372.1" y2="930.67"/><polyline class="cls-3" points="440.03 964.73 440.03 974.15 442.75 975.72 445.47 974.15 445.47 961.59"/><line class="cls-3" x1="442.75" y1="975.72" x2="442.75" y2="963.16"/><polyline class="cls-3" points="532.39 911.35 532.39 920.81 535.11 922.38 537.83 920.81 537.83 908.21"/><line class="cls-3" x1="535.11" y1="922.38" x2="535.11" y2="909.78"/><polyline class="cls-3" points="488.97 936.47 488.97 945.96 491.69 947.53 494.41 945.96 494.41 933.33"/><line class="cls-3" x1="491.69" y1="947.53" x2="491.69" y2="934.95"/><polygon class="cls-3" points="426.46 966.34 361.18 916.06 361.18 916.06 480.81 846.99 545.99 897.27 545.99 897.27 426.46 966.34"/><polygon class="cls-3" points="361.18 916.06 361.25 922.3 426.44 972.58 426.44 972.58 426.46 966.34 361.18 916.06 361.18 916.06"/><polygon class="cls-3" points="426.44 972.58 426.46 966.34 545.99 897.27 545.99 897.27 546.07 903.5 426.44 972.58 426.44 972.58"/><polygon class="cls-3" points="366.62 916.11 426.44 963.16 540.63 897.22 480.81 850.13 366.62 916.11"/><polygon class="cls-3" points="372.14 916.11 426.46 960.09 535.11 897.27 480.88 853.22 372.14 916.11"/><line class="cls-4" x1="475.47" y1="856.35" x2="529.75" y2="900.36"/><line class="cls-4" x1="377.65" y1="912.92" x2="431.87" y2="956.96"/><line class="cls-4" x1="383.08" y1="909.78" x2="437.31" y2="953.74"/><line class="cls-4" x1="388.5" y1="906.64" x2="442.75" y2="950.67"/><line class="cls-4" x1="393.93" y1="903.5" x2="448.3" y2="947.46"/><line class="cls-4" x1="399.38" y1="900.38" x2="453.62" y2="944.38"/><line class="cls-4" x1="404.76" y1="897.27" x2="459.16" y2="941.18"/><line class="cls-4" x1="410.22" y1="894.08" x2="464.5" y2="938.09"/><line class="cls-4" x1="415.56" y1="891" x2="469.94" y2="934.95"/><line class="cls-4" x1="421.63" y1="887.8" x2="475.38" y2="931.8"/><line class="cls-4" x1="426.8" y1="884.49" x2="480.88" y2="928.62"/><line class="cls-4" x1="431.96" y1="881.57" x2="486.25" y2="925.52"/><line class="cls-4" x1="437.37" y1="878.38" x2="491.74" y2="922.37"/><line class="cls-4" x1="442.8" y1="875.25" x2="497.16" y2="919.22"/><line class="cls-4" x1="448.3" y1="872.11" x2="502.64" y2="916.11"/><line class="cls-4" x1="453.84" y1="869.12" x2="507.94" y2="912.97"/><line class="cls-4" x1="459.16" y1="865.88" x2="513.44" y2="909.8"/><line class="cls-4" x1="464.56" y1="862.8" x2="518.88" y2="906.65"/><line class="cls-4" x1="469.94" y1="859.55" x2="524.24" y2="903.55"/><line class="cls-4" x1="376.6" y1="919.72" x2="485.4" y2="856.9"/><line class="cls-4" x1="381.13" y1="923.39" x2="489.82" y2="860.62"/><line class="cls-4" x1="385.65" y1="927.05" x2="494.44" y2="864.24"/><line class="cls-4" x1="390.18" y1="930.72" x2="498.96" y2="867.91"/><line class="cls-4" x1="394.71" y1="934.38" x2="503.48" y2="871.58"/><line class="cls-4" x1="399.33" y1="937.99" x2="507.94" y2="875.28"/><line class="cls-4" x1="403.76" y1="941.71" x2="512.52" y2="878.92"/><line class="cls-4" x1="408.29" y1="945.38" x2="517.04" y2="882.59"/><line class="cls-4" x1="412.84" y1="949.06" x2="521.55" y2="886.26"/><line class="cls-4" x1="417.35" y1="952.71" x2="526.07" y2="889.93"/><line class="cls-4" x1="421.87" y1="956.37" x2="530.59" y2="893.6"/><polyline class="cls-3" points="1532.12 1420.47 1642.83 1356.55 1716.64 1399.16 1716.64 1484.4 1605.93 1548.33"/><line class="cls-3" x1="1605.93" y1="1463.09" x2="1716.64" y2="1399.17"/><polygon class="cls-3" points="1532.12 1420.47 1532.12 1505.71 1605.93 1548.33 1605.93 1463.09 1532.12 1420.47"/><polygon class="cls-3" points="1615.15 1521.69 1615.15 1479.08 1633.61 1468.42 1633.61 1511.04 1615.15 1521.69"/><line class="cls-3" x1="1615.15" y1="1500.38" x2="1633.61" y2="1489.73"/><line class="cls-3" x1="1615.15" y1="1489.73" x2="1633.61" y2="1479.08"/><line class="cls-3" x1="1615.15" y1="1511.04" x2="1633.61" y2="1500.38"/><line class="cls-3" x1="1615.15" y1="1484.4" x2="1633.61" y2="1473.75"/><line class="cls-3" x1="1615.15" y1="1495.06" x2="1633.61" y2="1484.4"/><line class="cls-3" x1="1615.15" y1="1505.71" x2="1633.61" y2="1495.06"/><line class="cls-3" x1="1615.15" y1="1516.37" x2="1633.61" y2="1505.71"/><polygon class="cls-3" points="1652.06 1500.38 1652.06 1457.77 1670.51 1447.11 1670.51 1489.73 1652.06 1500.38"/><line class="cls-3" x1="1652.06" y1="1479.08" x2="1670.51" y2="1468.42"/><line class="cls-3" x1="1652.06" y1="1468.42" x2="1670.51" y2="1457.77"/><line class="cls-3" x1="1652.06" y1="1489.73" x2="1670.51" y2="1479.08"/><line class="cls-3" x1="1652.06" y1="1463.09" x2="1670.51" y2="1452.44"/><line class="cls-3" x1="1652.06" y1="1473.75" x2="1670.51" y2="1463.09"/><line class="cls-3" x1="1652.06" y1="1484.4" x2="1670.51" y2="1473.75"/><line class="cls-3" x1="1652.06" y1="1495.06" x2="1670.51" y2="1484.4"/><polygon class="cls-3" points="1688.96 1479.08 1688.96 1436.46 1707.42 1425.8 1707.42 1468.42 1688.96 1479.08"/><line class="cls-3" x1="1688.96" y1="1457.77" x2="1707.42" y2="1447.11"/><line class="cls-3" x1="1688.96" y1="1447.11" x2="1707.42" y2="1436.46"/><line class="cls-3" x1="1688.96" y1="1468.42" x2="1707.42" y2="1457.77"/><line class="cls-3" x1="1688.96" y1="1441.78" x2="1707.42" y2="1431.13"/><line class="cls-3" x1="1688.96" y1="1452.44" x2="1707.42" y2="1441.78"/><line class="cls-3" x1="1688.96" y1="1463.09" x2="1707.42" y2="1452.44"/><line class="cls-3" x1="1688.96" y1="1473.75" x2="1707.42" y2="1463.09"/><polyline class="cls-2" points="1569.02 1399.16 1642.83 1441.78 1642.83 1527.02"/><polyline class="cls-2" points="1605.93 1377.86 1679.74 1420.47 1679.74 1505.71"/><polygon class="cls-3" points="1573.06 1466.63 1566.78 1479.24 1578.36 1487.27 1563.14 1502.18 1569.16 1489.63 1557.84 1481.54 1573.06 1466.63"/><polyline class="cls-3" points="1383.97 1505.71 1494.68 1441.78 1568.5 1484.4 1568.5 1569.64 1457.78 1633.57"/><line class="cls-3" x1="1457.78" y1="1548.33" x2="1568.5" y2="1484.4"/><polygon class="cls-3" points="1383.97 1505.71 1383.97 1590.95 1457.78 1633.57 1457.78 1548.33 1383.97 1505.71"/><polygon class="cls-3" points="1467.01 1606.93 1467.01 1564.31 1485.46 1553.66 1485.46 1596.28 1467.01 1606.93"/><line class="cls-3" x1="1467.01" y1="1585.62" x2="1485.46" y2="1574.97"/><line class="cls-3" x1="1467.01" y1="1574.97" x2="1485.46" y2="1564.31"/><line class="cls-3" x1="1467.01" y1="1596.28" x2="1485.46" y2="1585.62"/><line class="cls-3" x1="1467.01" y1="1569.64" x2="1485.46" y2="1558.99"/><line class="cls-3" x1="1467.01" y1="1580.29" x2="1485.46" y2="1569.64"/><line class="cls-3" x1="1467.01" y1="1590.95" x2="1485.46" y2="1580.29"/><line class="cls-3" x1="1467.01" y1="1601.6" x2="1485.46" y2="1590.95"/><polygon class="cls-3" points="1503.91 1585.62 1503.91 1543 1522.36 1532.35 1522.36 1574.97 1503.91 1585.62"/><line class="cls-3" x1="1503.91" y1="1564.31" x2="1522.36" y2="1553.66"/><line class="cls-3" x1="1503.91" y1="1553.66" x2="1522.36" y2="1543"/><line class="cls-3" x1="1503.91" y1="1574.97" x2="1522.36" y2="1564.31"/><line class="cls-3" x1="1503.91" y1="1548.33" x2="1522.36" y2="1537.68"/><line class="cls-3" x1="1503.91" y1="1558.99" x2="1522.36" y2="1548.33"/><line class="cls-3" x1="1503.91" y1="1569.64" x2="1522.36" y2="1558.99"/><line class="cls-3" x1="1503.91" y1="1580.29" x2="1522.36" y2="1569.64"/><polygon class="cls-3" points="1540.82 1564.31 1540.82 1521.69 1559.27 1511.04 1559.27 1553.66 1540.82 1564.31"/><line class="cls-3" x1="1540.82" y1="1543" x2="1559.27" y2="1532.35"/><line class="cls-3" x1="1540.82" y1="1532.35" x2="1559.27" y2="1521.69"/><line class="cls-3" x1="1540.82" y1="1553.66" x2="1559.27" y2="1543"/><line class="cls-3" x1="1540.82" y1="1527.02" x2="1559.27" y2="1516.37"/><line class="cls-3" x1="1540.82" y1="1537.68" x2="1559.27" y2="1527.02"/><line class="cls-3" x1="1540.82" y1="1548.33" x2="1559.27" y2="1537.68"/><line class="cls-3" x1="1540.82" y1="1558.99" x2="1559.27" y2="1548.33"/><polyline class="cls-2" points="1420.87 1484.4 1494.68 1527.02 1494.68 1612.26"/><polyline class="cls-2" points="1457.78 1463.09 1531.59 1505.71 1531.59 1590.95"/><polygon class="cls-3" points="1424.92 1551.87 1418.63 1564.48 1430.21 1572.51 1414.99 1587.41 1421.01 1574.87 1409.69 1566.77 1424.92 1551.87"/><polyline class="cls-3" points="1148.96 387.42 1148.96 689.46 1208.72 723.96 1308.31 666.46 1308.31 364.41"/><polyline class="cls-3" points="1148.96 390.43 1208.72 424.94 1308.31 367.43"/><polygon class="cls-3" points="1148.97 387.42 1208.72 421.92 1308.31 364.42 1308.31 364.41 1248.56 329.91 1148.97 387.41 1148.97 387.42"/><polygon class="cls-3" points="1248.56 332.93 1154.19 387.42 1208.72 418.9 1303.09 364.42 1248.56 332.93"/><polyline class="cls-3" points="1300.48 365.93 1248.56 335.95 1156.8 388.93"/><line class="cls-3" x1="1248.56" y1="332.93" x2="1248.56" y2="335.95"/><line class="cls-3" x1="1208.72" y1="421.92" x2="1208.72" y2="723.96"/><polyline class="cls-3" points="1248.56 376.93 1248.56 378.93 1208.72 401.94 1188.8 390.43 1188.8 388.43"/><polygon class="cls-3" points="1228.64 365.43 1188.81 388.43 1188.81 388.43 1208.72 399.93 1248.55 376.93 1248.55 376.92 1228.64 365.43"/><line class="cls-3" x1="1208.72" y1="401.93" x2="1208.72" y2="399.93"/><polyline class="cls-3" points="1228.64 502.63 1228.64 735.74 1288.39 770.24 1368.07 724.24 1368.06 491.12"/><polyline class="cls-3" points="1368.07 494.22 1288.39 540.22 1228.64 505.72"/><polygon class="cls-3" points="1308.31 456.62 1368.06 491.12 1368.06 491.13 1288.39 537.13 1228.64 502.63 1228.64 502.62 1308.31 456.62"/><polygon class="cls-3" points="1308.31 459.72 1233.94 502.66 1288.39 534.1 1362.77 491.16 1308.31 459.72"/><polyline class="cls-3" points="1236.53 504.17 1308.31 462.73 1360.16 492.66"/><line class="cls-3" x1="1288.39" y1="537.13" x2="1288.39" y2="770.24"/><line class="cls-3" x1="1308.31" y1="459.72" x2="1308.31" y2="462.73"/><polyline class="cls-3" points="1268.48 480.73 1268.48 505.72 1288.39 517.22 1308.31 505.72 1308.31 480.73"/><line class="cls-3" x1="1288.39" y1="492.23" x2="1288.39" y2="517.22"/><polyline class="cls-3" points="1303.14 481.73 1288.39 473.21 1273.82 481.82"/><polyline class="cls-3" points="1268.48 482.72 1288.39 494.22 1308.31 482.72"/><polygon class="cls-3" points="1288.39 469.23 1268.48 480.73 1268.48 480.73 1288.39 492.23 1308.31 480.73 1308.31 480.73 1288.39 469.23"/><polygon class="cls-3" points="1288.39 471.22 1271.92 480.73 1288.39 490.24 1304.87 480.73 1288.39 471.22"/><line class="cls-3" x1="1288.39" y1="471.22" x2="1288.39" y2="473.21"/><polyline class="cls-3" points="969.71 582.11 969.69 700.21 1089.22 769.22 1168.89 723.21 1168.89 605.11"/><polyline class="cls-3" points="1168.89 608.2 1089.22 654.21 969.71 585.2"/><polygon class="cls-3" points="969.71 582.1 1049.38 536.1 1168.89 605.1 1168.89 605.11 1089.22 651.11 969.71 582.11 969.71 582.1"/><polygon class="cls-3" points="1049.38 539.2 975.08 582.1 1089.22 648.01 1163.52 605.1 1049.38 539.2"/><polyline class="cls-3" points="977.66 583.59 1049.38 542.18 1161.14 606.48"/><line class="cls-3" x1="1049.38" y1="539.2" x2="1049.38" y2="542.4"/><line class="cls-3" x1="1089.22" y1="651.11" x2="1089.22" y2="769.22"/><polyline class="cls-3" points="1009.53 564.34 1009.53 585.2 1029.45 596.7 1049.37 585.2 1049.37 564.34"/><line class="cls-3" x1="1029.45" y1="596.7" x2="1029.45" y2="573.7"/><polyline class="cls-3" points="1005.58 559.66 1005.58 562.06 1029.45 575.84 1053.32 562.06 1053.32 559.66"/><polygon class="cls-3" points="1029.45 545.87 1005.59 559.65 1005.59 559.66 1029.45 573.44 1053.32 559.66 1053.32 559.65 1029.45 545.87"/><line class="cls-3" x1="1029.45" y1="575.84" x2="1029.45" y2="573.44"/><polyline class="cls-3" points="1268.45 594.48 1268.46 781.48 1188.77 827.47 1109.11 781.48 1109.12 594.48"/><polyline class="cls-3" points="1109.11 597.45 1188.78 643.46 1268.46 597.45"/><polygon class="cls-3" points="1188.78 548.48 1109.12 594.48 1109.12 594.49 1188.78 640.49 1268.45 594.49 1268.45 594.48 1188.78 548.48"/><polygon class="cls-3" points="1188.78 551.45 1114.31 594.48 1188.78 637.48 1263.29 594.47 1188.78 551.45"/><polyline class="cls-3" points="1260.68 595.97 1188.78 554.46 1116.88 595.97"/><line class="cls-3" x1="1188.78" y1="551.45" x2="1188.78" y2="554.46"/><line class="cls-3" x1="1188.78" y1="640.49" x2="1188.77" y2="827.47"/><polyline class="cls-3" points="1148.96 595.45 1148.96 597.45 1188.8 620.45 1228.64 597.45 1228.64 595.45"/><polygon class="cls-3" points="1188.8 572.44 1148.97 595.44 1148.97 595.45 1188.8 618.45 1228.63 595.45 1228.63 595.44 1188.8 572.44"/><line class="cls-3" x1="1188.8" y1="620.45" x2="1188.8" y2="618.45"/><polyline class="cls-3" points="1168.88 575.59 1168.88 596.45 1188.8 607.95 1208.72 596.45 1208.72 575.59"/><line class="cls-3" x1="1188.8" y1="607.95" x2="1188.8" y2="584.95"/><polyline class="cls-3" points="1164.93 570.9 1164.93 573.31 1188.8 587.09 1212.67 573.31 1212.67 570.9"/><polygon class="cls-3" points="1188.8 557.12 1164.93 570.9 1164.93 570.9 1188.8 584.68 1212.66 570.9 1212.66 570.9 1188.8 557.12"/><line class="cls-3" x1="1188.8" y1="587.09" x2="1188.8" y2="584.68"/><polyline class="cls-3" points="1268.47 617.49 1268.47 804.46 1328.22 838.97 1388 804.45 1387.97 617.49"/><polyline class="cls-3" points="1268.47 620.47 1328.22 654.97 1387.98 620.47"/><polygon class="cls-3" points="1328.22 582.99 1268.47 617.49 1268.47 617.49 1328.22 651.99 1387.97 617.49 1387.97 617.49 1328.22 582.99"/><polygon class="cls-3" points="1328.22 585.96 1273.61 617.5 1328.22 649.03 1382.84 617.5 1328.22 585.96"/><polyline class="cls-3" points="1380.23 619 1328.22 588.97 1276.22 619"/><line class="cls-3" x1="1328.22" y1="585.96" x2="1328.22" y2="588.97"/><line class="cls-3" x1="1328.22" y1="651.99" x2="1328.22" y2="838.96"/><polyline class="cls-3" points="1308.3 618.44 1308.3 620.45 1328.22 631.95 1348.14 620.45 1348.14 618.44"/><polygon class="cls-3" points="1328.22 606.94 1308.31 618.44 1308.31 618.44 1328.22 629.94 1348.14 618.44 1348.14 618.44 1328.22 606.94"/><line class="cls-3" x1="1328.22" y1="631.95" x2="1328.22" y2="629.94"/><polyline class="cls-3" points="1208.73 789.79 1208.87 838.97 1228.78 850.47 1268.47 827.47 1268.47 778.29"/><polyline class="cls-3" points="1208.72 792.89 1228.64 804.39 1268.48 781.39"/><polygon class="cls-3" points="1248.56 766.79 1208.73 789.79 1208.73 789.79 1228.64 801.29 1268.47 778.29 1268.47 778.29 1248.56 766.79"/><polygon class="cls-3" points="1248.56 769.89 1214.01 789.83 1228.64 798.28 1263.19 778.33 1248.56 769.89"/><polyline class="cls-3" points="1260.54 779.86 1248.56 772.94 1216.65 791.36"/><line class="cls-3" x1="1228.64" y1="801.29" x2="1228.78" y2="850.47"/><line class="cls-3" x1="1248.56" y1="769.89" x2="1248.56" y2="772.94"/><polyline class="cls-3" points="1029.46 755.5 1029.46 804.56 1069.29 827.56 1109.13 804.56 1109.12 755.5"/><polyline class="cls-3" points="1029.45 758.59 1069.29 781.6 1109.13 758.59"/><polygon class="cls-3" points="1069.29 732.5 1029.46 755.5 1029.46 755.5 1069.29 778.5 1109.12 755.5 1109.12 755.5 1069.29 732.5"/><polygon class="cls-3" points="1069.29 735.59 1034.74 755.54 1069.29 775.49 1103.84 755.54 1069.29 735.59"/><polyline class="cls-3" points="1101.19 757.07 1069.29 738.65 1037.39 757.07"/><line class="cls-3" x1="1069.29" y1="778.5" x2="1069.29" y2="827.56"/><line class="cls-3" x1="1069.29" y1="735.59" x2="1069.29" y2="738.65"/><polyline class="cls-3" points="1268.48 778.48 1268.48 850.45 1288.4 861.99 1308.31 850.45 1308.31 778.48"/><polyline class="cls-3" points="1268.48 781.57 1288.39 793.07 1308.31 781.57"/><polygon class="cls-3" points="1288.39 766.98 1268.48 778.47 1268.48 778.48 1288.39 789.98 1308.31 778.48 1308.31 778.47 1288.39 766.98"/><polygon class="cls-3" points="1288.39 770.07 1273.75 778.53 1288.39 786.99 1303.04 778.53 1288.39 770.07"/><polyline class="cls-3" points="1300.44 780.03 1288.39 773.07 1276.35 780.03"/><line class="cls-3" x1="1288.39" y1="789.98" x2="1288.4" y2="861.99"/><line class="cls-3" x1="1288.39" y1="770.07" x2="1288.39" y2="773.07"/><polyline class="cls-3" points="1735.55 1096.49 1735.55 1099.15 1593.28 1181.3 1539.93 1150.49 1539.93 1147.83"/><polyline class="cls-3" points="1682.2 1065.73 1539.93 1147.83 1539.93 1147.83 1593.28 1178.64 1735.55 1096.49 1735.55 1096.49 1682.2 1065.73"/><line class="cls-3" x1="1593.28" y1="1181.3" x2="1593.28" y2="1178.64"/><polyline class="cls-3" points="1593.28 893.83 1593.28 1140.27 1611.06 1150.54 1682.2 1109.47 1682.2 863.02"/><line class="cls-3" x1="1611.06" y1="904.09" x2="1611.06" y2="1150.54"/><polygon class="cls-3" points="1628.85 914.36 1664.42 893.83 1664.42 955.44 1628.85 975.98 1628.85 914.36"/><polyline class="cls-3" points="1646.63 904.09 1646.63 945.17 1628.85 955.44"/><line class="cls-3" x1="1646.63" y1="945.17" x2="1664.42" y2="955.44"/><polygon class="cls-3" points="1597.73 916.93 1606.62 922.06 1606.62 942.6 1597.73 937.47 1597.73 916.93"/><polygon class="cls-3" points="1628.85 996.51 1628.85 1017.05 1664.42 996.51 1664.42 975.98 1628.85 996.51"/><polyline class="cls-3" points="1628.85 1013.43 1660.16 995.36 1652.95 982.59"/><polygon class="cls-3" points="1628.85 1037.59 1628.85 1078.66 1664.42 1058.12 1664.42 1017.05 1628.85 1037.59"/><line class="cls-3" x1="1628.85" y1="1058.12" x2="1664.42" y2="1037.59"/><line class="cls-3" x1="1646.63" y1="1027.32" x2="1646.63" y2="1068.39"/><line class="cls-3" x1="1643.62" y1="1029.06" x2="1643.62" y2="1049.6"/><polygon class="cls-3" points="1631.86 1059.86 1643.62 1053.07 1643.62 1066.65 1631.86 1073.45 1631.86 1059.86"/><polygon class="cls-3" points="1649.72 1049.64 1661.33 1042.93 1661.33 1056.34 1649.72 1063.05 1649.72 1049.64"/><line class="cls-3" x1="1649.72" y1="1025.67" x2="1649.72" y2="1046.21"/><line class="cls-3" x1="1655.52" y1="981.11" x2="1664.42" y2="996.51"/><line class="cls-3" x1="1643.62" y1="1029.06" x2="1643.62" y2="1049.6"/><polygon class="cls-3" points="1593.28 893.83 1611.06 904.09 1682.2 863.02 1682.2 863.02 1664.42 852.75 1593.28 893.82 1593.28 893.83"/><ellipse class="cls-3" cx="1655.8" cy="1053" rx="4.99" ry="2.87" transform="translate(-121.37 1884.95) rotate(-57.54)"/><polyline class="cls-3" points="1653.13 1057.19 1661.87 1062.77 1667.22 1054.35 1658.64 1048.89"/><ellipse class="cls-3" cx="1664.55" cy="1058.56" rx="4.99" ry="2.87" transform="translate(-122.01 1894.91) rotate(-57.54)"/><ellipse class="cls-3" cx="1637.92" cy="1063.39" rx="4.99" ry="2.87" transform="translate(-138.42 1874.68) rotate(-57.54)"/><polyline class="cls-3" points="1635.25 1067.59 1643.99 1073.17 1649.35 1064.75 1640.77 1059.29"/><ellipse class="cls-3" cx="1646.67" cy="1068.96" rx="4.99" ry="2.87" transform="matrix(0.54, -0.84, 0.84, 0.54, -139.07, 1884.64)"/><polygon class="cls-3" points="1600.37 924.56 1603.97 926.64 1603.97 934.97 1600.37 932.89 1600.37 924.56"/><path class="cls-2" d="M1602,929.77h0a40.69,40.69,0,0,0-19.15,45l18.44,74.55c4.93,19.93,25.74,30.6,43.64,20.55l1.75-.91"/><path class="cls-2" d="M1682.28,1006.75l3.87,10.55a31.32,31.32,0,0,1-22.16,41.26h0"/><path class="cls-3" d="M897.4,1156v37.31l22.57-13a19.46,19.46,0,0,0,9.74-16.86v-26.07"/><ellipse class="cls-3" cx="890.28" cy="1166.33" rx="21" ry="28.39" transform="translate(-168.02 150) rotate(-8.8)"/><ellipse class="cls-3" cx="890.28" cy="1166.33" rx="11.67" ry="15.77" transform="translate(-168.02 150) rotate(-8.8)"/><path class="cls-3" d="M1026.58,1230.62v37.31l22.58-13a19.46,19.46,0,0,0,9.73-16.85V1212"/><ellipse class="cls-3" cx="1019.47" cy="1240.91" rx="21" ry="28.39" transform="translate(-177.91 170.65) rotate(-8.8)"/><ellipse class="cls-3" cx="1019.47" cy="1240.91" rx="11.67" ry="15.77" transform="translate(-177.91 170.65) rotate(-8.8)"/><path class="cls-3" d="M871.67,1021.67h0a64.62,64.62,0,0,0-32.3,56V1115l32.3,18.65h0a30.81,30.81,0,0,1,44.52,16.6l3.95,11.38,80.77,46.64h0a30.81,30.81,0,0,1,44.52,16.6l3.94,11.38,64.62,37.31,96.93-56,16.15-28"/><path class="cls-3" d="M839.37,1077.64l290.78,167.89,96.92-56h0a64.61,64.61,0,0,0-32.31-56L1162.45,1115"/><path class="cls-3" d="M1114,1273.51l16.16-28h0a64.6,64.6,0,0,0-32.32-56l-32.3-18.66"/><path class="cls-3" d="M871.67,1096.29h0c0-24.87,26.93-40.42,48.47-28l64.61,37.31a96.93,96.93,0,0,1,48.47,84h0"/><path class="cls-3" d="M1097.84,1213.22h0l9.25,6.22a30,30,0,0,0,30,2h0a29.94,29.94,0,0,0,16.74-26.88h0l-32.31,18.65-11.83-6.82A7.88,7.88,0,0,0,1097.84,1213.22Z"/><path class="cls-3" d="M1074.18,1026.67,1001,984.44a64.88,64.88,0,0,0-64.88,0l-64.49,37.23,105.59,61a241.19,241.19,0,0,1,88.24,88.23s0,0,.07,0l96.88-55.93h0A241.1,241.1,0,0,0,1074.18,1026.67Z"/><line class="cls-3" x1="952.45" y1="1086.96" x2="952.45" y2="1180.24"/><line class="cls-3" x1="1025.58" y1="1119.36" x2="1122.51" y2="1063.39"/><line class="cls-3" x1="1121.99" y1="1259.7" x2="1218.91" y2="1203.74"/><line class="cls-3" x1="839.37" y1="1077.64" x2="1130.15" y2="1245.53"/><line class="cls-3" x1="1218.41" y1="1157.25" x2="1121.49" y2="1213.22"/><path class="cls-3" d="M1218.41,1157.25l-31.87,18.64h0a30,30,0,0,0,31.64-1.31h0a29.44,29.44,0,0,0,5.71-5.06A69.64,69.64,0,0,0,1218.41,1157.25Z"/></svg>