<svg id="Final_Illustrations_copy" data-name="Final Illustrations copy" xmlns="http://www.w3.org/2000/svg" viewBox="0 0 2000 1610.6"><defs><style>.cls-1,.cls-2{fill:none;}.cls-1,.cls-2,.cls-3,.cls-4,.cls-5{stroke:#057adc;stroke-miterlimit:10;}.cls-1,.cls-2,.cls-3{stroke-width:2px;}.cls-1{stroke-dasharray:24;}.cls-3,.cls-4,.cls-5{fill:#181d28;}.cls-5{stroke-width:3px;}</style></defs><line class="cls-1" x1="417.29" y1="582.17" x2="1626.28" y2="1280.87"/><polyline class="cls-1" points="510.8 1158.95 1258.97 726.81 1053.76 608.47 1145.14 555.83"/><polyline class="cls-1" points="1236.75 923.8 1577.87 726.84 1780.18 843.65"/><polyline class="cls-1" points="666.75 383.42 826.92 292.08 926.12 350.52"/><polyline class="cls-1" points="1441.2 463.8 1463.98 450.65 1987.87 753.14 1099.56 1266.07 188.42 739.99 256.75 700.53"/><polyline class="cls-1" points="1441.2 1489.65 1258 1595.43 985.64 1437.04"/><polygon class="cls-2" points="347.35 980.41 362.59 971.61 377.82 980.41 362.59 989.2 347.35 980.41"/><polyline class="cls-2" points="408.29 1209.15 377.82 1103.6 377.82 980.41 362.59 962.82 347.35 980.41 347.35 1103.6 316.89 1209.15"/><line class="cls-2" x1="362.59" y1="962.81" x2="362.59" y2="1235.54"/><polygon class="cls-2" points="347.35 998.05 362.59 989.25 377.82 998.05 362.59 1006.85 347.35 998.05"/><polygon class="cls-2" points="347.35 1103.6 362.59 1094.8 377.82 1103.6 362.59 1112.39 347.35 1103.6"/><polygon class="cls-2" points="347.35 1015.64 362.59 1006.85 377.82 1015.64 362.59 1024.44 347.35 1015.64"/><polygon class="cls-2" points="347.35 1033.34 362.59 1024.54 377.82 1033.34 362.59 1042.13 347.35 1033.34"/><polygon class="cls-2" points="347.35 1050.82 362.59 1042.03 377.82 1050.82 362.59 1059.62 347.35 1050.82"/><polygon class="cls-2" points="347.35 1068.41 362.59 1059.62 377.82 1068.41 362.59 1077.21 347.35 1068.41"/><polygon class="cls-2" points="347.35 1086.01 362.59 1077.21 377.82 1086.01 362.59 1094.8 347.35 1086.01"/><polygon class="cls-2" points="362.59 1112.39 341.01 1125.59 362.59 1138.78 384.17 1125.59 362.59 1112.39"/><polygon class="cls-2" points="377.82 998.05 370.2 984.8 362.59 1006.85 354.88 984.8 347.35 998.05 354.97 976.06 362.59 989.25 370.2 976.01 377.82 998.05"/><polygon class="cls-2" points="377.82 1015.64 370.2 1002.4 362.59 1024.44 354.88 1002.4 347.35 1015.64 354.97 993.65 362.59 1006.85 370.2 993.6 377.82 1015.64"/><polygon class="cls-2" points="377.82 1033.26 370.2 1020.01 362.59 1042.05 354.88 1020.01 347.35 1033.26 354.97 1011.27 362.59 1024.46 370.2 1011.22 377.82 1033.26"/><polygon class="cls-2" points="377.82 1050.85 370.2 1037.61 362.59 1059.64 354.88 1037.61 347.35 1050.85 354.97 1028.86 362.59 1042.05 370.2 1028.81 377.82 1050.85"/><polygon class="cls-2" points="377.82 1068.44 370.2 1055.2 362.59 1077.24 354.88 1055.2 347.35 1068.44 354.97 1046.45 362.59 1059.64 370.2 1046.4 377.82 1068.44"/><polygon class="cls-2" points="377.82 1086.03 370.2 1072.79 362.59 1094.83 354.88 1072.79 347.35 1086.03 354.97 1064.04 362.59 1077.24 370.2 1063.99 377.82 1086.03"/><polygon class="cls-2" points="377.82 1103.62 370.2 1090.38 362.59 1112.42 354.88 1090.38 347.35 1103.62 354.97 1081.63 362.59 1094.83 370.2 1081.58 377.82 1103.62"/><polygon class="cls-2" points="362.59 1138.78 332.12 1156.37 362.59 1173.96 393.05 1156.37 362.59 1138.78"/><polygon class="cls-2" points="384.17 1125.59 370.2 1108 362.59 1138.78 354.97 1108 341.01 1125.59 355.01 1099.17 362.59 1112.42 370.25 1099.17 384.17 1125.59"/><polygon class="cls-2" points="393.05 1156.37 374.01 1132.18 362.59 1173.96 351.16 1132.18 332.12 1156.37 351.82 1118.98 362.59 1138.78 373.36 1118.98 393.05 1156.37"/><polygon class="cls-2" points="406.11 1201.61 377.82 1165.17 362.59 1226.74 347.35 1165.17 319.06 1201.61 347.35 1147.58 362.59 1173.96 377.82 1147.58 406.11 1201.61"/><polyline class="cls-2" points="309.27 1208.78 309.27 1209.94 316.89 1214.34 324.5 1209.94 324.5 1208.78"/><polygon class="cls-2" points="316.89 1204.39 309.27 1208.78 309.27 1208.79 316.89 1213.18 324.5 1208.79 324.5 1208.78 316.89 1204.39"/><line class="cls-2" x1="316.89" y1="1214.34" x2="316.89" y2="1213.18"/><polyline class="cls-2" points="400.67 1208.57 400.67 1209.73 408.29 1214.12 415.9 1209.73 415.9 1208.57"/><polygon class="cls-2" points="408.29 1204.17 400.67 1208.57 400.67 1208.57 408.29 1212.97 415.9 1208.57 415.9 1208.57 408.29 1204.17"/><line class="cls-2" x1="408.29" y1="1214.12" x2="408.29" y2="1212.97"/><polyline class="cls-2" points="354.97 1234.96 354.97 1236.11 362.59 1240.51 370.2 1236.11 370.2 1234.96"/><polygon class="cls-2" points="362.59 1230.56 354.97 1234.96 354.97 1234.96 362.59 1239.36 370.2 1234.96 370.2 1234.96 362.59 1230.56"/><line class="cls-2" x1="362.59" y1="1240.51" x2="362.59" y2="1239.36"/><polyline class="cls-2" points="354.97 1182.51 354.97 1183.67 362.59 1188.07 370.2 1183.67 370.2 1182.51"/><polygon class="cls-2" points="362.59 1178.12 354.97 1182.51 354.97 1182.52 362.59 1186.91 370.2 1182.52 370.2 1182.51 362.59 1178.12"/><line class="cls-2" x1="362.59" y1="1188.07" x2="362.59" y2="1186.91"/><polyline class="cls-2" points="332.12 1015.64 362.59 1006.85 377.82 998.05 393.14 980.41 393.13 980.41 332.13 1015.64 332.13 1015.63 347.35 998.05 362.59 989.25 393.14 980.41"/><line class="cls-2" x1="393.14" y1="980.41" x2="393.14" y2="989.2"/><line class="cls-2" x1="332.12" y1="1024.54" x2="332.13" y2="1015.64"/><polyline class="cls-2" points="332.07 1085.93 362.54 1077.13 377.78 1068.34 393.09 1050.7 393.09 1050.7 332.08 1085.93 332.08 1085.92 347.31 1068.34 362.54 1059.54 393.1 1050.7"/><line class="cls-2" x1="393.1" y1="1059.49" x2="393.1" y2="1050.7"/><line class="cls-2" x1="332.08" y1="1094.83" x2="332.08" y2="1085.93"/><polyline class="cls-2" points="408.29 1006.85 362.59 1024.44 347.35 1033.26 316.89 1059.57 408.29 1006.85 377.82 1033.26 362.59 1042.05 316.89 1059.57"/><line class="cls-2" x1="316.89" y1="1068.42" x2="316.89" y2="1059.45"/><line class="cls-2" x1="408.29" y1="1015.64" x2="407.38" y2="1006.84"/><polygon class="cls-2" points="652.02 1156.32 667.26 1147.53 682.49 1156.32 667.26 1165.12 652.02 1156.32"/><polyline class="cls-2" points="712.96 1385.06 682.49 1279.52 682.49 1156.32 667.26 1138.73 652.02 1156.32 652.02 1279.52 621.55 1385.06"/><line class="cls-2" x1="667.26" y1="1138.73" x2="667.26" y2="1411.45"/><polygon class="cls-2" points="652.02 1173.96 667.26 1165.17 682.49 1173.96 667.26 1182.76 652.02 1173.96"/><polygon class="cls-2" points="652.02 1279.52 667.26 1270.72 682.49 1279.52 667.26 1288.31 652.02 1279.52"/><polygon class="cls-2" points="652.02 1191.56 667.26 1182.76 682.49 1191.56 667.26 1200.35 652.02 1191.56"/><polygon class="cls-2" points="652.02 1209.25 667.26 1200.45 682.49 1209.25 667.26 1218.05 652.02 1209.25"/><polygon class="cls-2" points="652.02 1226.74 667.26 1217.94 682.49 1226.74 667.26 1235.54 652.02 1226.74"/><polygon class="cls-2" points="652.02 1244.33 667.26 1235.54 682.49 1244.33 667.26 1253.13 652.02 1244.33"/><polygon class="cls-2" points="652.02 1261.92 667.26 1253.13 682.49 1261.92 667.26 1270.72 652.02 1261.92"/><polygon class="cls-2" points="667.26 1288.31 645.67 1301.5 667.26 1314.7 688.84 1301.5 667.26 1288.31"/><polygon class="cls-2" points="682.49 1173.96 674.87 1160.72 667.26 1182.76 659.55 1160.72 652.02 1173.96 659.64 1151.98 667.26 1165.17 674.87 1151.92 682.49 1173.96"/><polygon class="cls-2" points="682.49 1191.56 674.87 1178.31 667.26 1200.35 659.55 1178.31 652.02 1191.56 659.64 1169.57 667.26 1182.76 674.87 1169.52 682.49 1191.56"/><polygon class="cls-2" points="682.49 1209.17 674.87 1195.93 667.26 1217.97 659.55 1195.93 652.02 1209.17 659.64 1187.18 667.26 1200.38 674.87 1187.13 682.49 1209.17"/><polygon class="cls-2" points="682.49 1226.77 674.87 1213.52 667.26 1235.56 659.55 1213.52 652.02 1226.77 659.64 1204.78 667.26 1217.97 674.87 1204.72 682.49 1226.77"/><polygon class="cls-2" points="682.49 1244.36 674.87 1231.11 667.26 1253.15 659.55 1231.11 652.02 1244.36 659.64 1222.37 667.26 1235.56 674.87 1222.32 682.49 1244.36"/><polygon class="cls-2" points="682.49 1261.95 674.87 1248.7 667.26 1270.74 659.55 1248.7 652.02 1261.95 659.64 1239.96 667.26 1253.15 674.87 1239.91 682.49 1261.95"/><polygon class="cls-2" points="682.49 1279.54 674.87 1266.3 667.26 1288.34 659.55 1266.3 652.02 1279.54 659.64 1257.55 667.26 1270.74 674.87 1257.5 682.49 1279.54"/><polygon class="cls-2" points="667.26 1314.7 636.79 1332.29 667.26 1349.88 697.72 1332.29 667.26 1314.7"/><polygon class="cls-2" points="688.84 1301.5 674.87 1283.91 667.26 1314.7 659.64 1283.91 645.67 1301.5 659.68 1275.09 667.26 1288.34 674.92 1275.09 688.84 1301.5"/><polygon class="cls-2" points="697.72 1332.29 678.68 1308.1 667.26 1349.88 655.83 1308.1 636.79 1332.29 656.49 1294.89 667.26 1314.7 678.02 1294.89 697.72 1332.29"/><polygon class="cls-2" points="710.78 1377.53 682.49 1341.09 667.26 1402.66 652.02 1341.09 623.73 1377.53 652.02 1323.49 667.26 1349.88 682.49 1323.49 710.78 1377.53"/><polyline class="cls-2" points="613.94 1384.7 613.94 1385.86 621.55 1390.25 629.17 1385.86 629.17 1384.7"/><polygon class="cls-2" points="621.55 1380.3 613.94 1384.7 613.94 1384.7 621.55 1389.1 629.17 1384.7 629.17 1384.7 621.55 1380.3"/><line class="cls-2" x1="621.56" y1="1390.25" x2="621.56" y2="1389.1"/><polyline class="cls-2" points="705.34 1384.49 705.34 1385.64 712.96 1390.04 720.57 1385.64 720.57 1384.49"/><polygon class="cls-2" points="712.96 1380.09 705.34 1384.49 705.34 1384.49 712.96 1388.88 720.57 1384.49 720.57 1384.49 712.96 1380.09"/><line class="cls-2" x1="712.96" y1="1390.04" x2="712.96" y2="1388.88"/><polyline class="cls-2" points="659.64 1410.87 659.64 1412.03 667.26 1416.43 674.87 1412.03 674.87 1410.87"/><polygon class="cls-2" points="667.26 1406.48 659.64 1410.87 659.64 1410.88 667.26 1415.27 674.87 1410.88 674.87 1410.87 667.26 1406.48"/><line class="cls-2" x1="667.26" y1="1416.43" x2="667.26" y2="1415.27"/><polyline class="cls-2" points="659.64 1358.43 659.64 1359.58 667.26 1363.98 674.87 1359.58 674.87 1358.43"/><polygon class="cls-2" points="667.26 1354.03 659.64 1358.43 659.64 1358.43 667.26 1362.83 674.87 1358.43 674.87 1358.43 667.26 1354.03"/><line class="cls-2" x1="667.26" y1="1363.98" x2="667.26" y2="1362.83"/><polyline class="cls-2" points="636.79 1191.56 667.26 1182.76 682.49 1173.96 697.81 1156.33 697.8 1156.33 636.79 1191.55 636.79 1191.55 652.02 1173.96 667.26 1165.17 697.81 1156.32"/><line class="cls-2" x1="697.81" y1="1165.12" x2="697.81" y2="1156.32"/><line class="cls-2" x1="636.79" y1="1200.45" x2="636.8" y2="1191.55"/><polyline class="cls-2" points="636.74 1261.85 667.21 1253.05 682.45 1244.26 697.76 1226.62 697.76 1226.62 636.75 1261.84 636.75 1261.84 651.98 1244.26 667.21 1235.46 697.77 1226.61"/><line class="cls-2" x1="697.77" y1="1235.41" x2="697.77" y2="1226.61"/><line class="cls-2" x1="636.74" y1="1270.74" x2="636.75" y2="1261.84"/><polyline class="cls-2" points="712.96 1182.76 667.26 1200.35 652.02 1209.17 621.55 1235.49 712.96 1182.76 682.49 1209.17 667.26 1217.97 621.55 1235.49"/><line class="cls-2" x1="621.56" y1="1244.33" x2="621.56" y2="1235.36"/><line class="cls-2" x1="712.96" y1="1191.56" x2="712.96" y2="1182.61"/><path class="cls-2" d="M393.05,989.05l68.24,52.59a666.72,666.72,0,0,0,149.44,86.88l87,36.43"/><path class="cls-2" d="M332.05,1024.37,400.28,1077a666.72,666.72,0,0,0,149.44,86.88l87,36.43"/><path class="cls-2" d="M316.79,1068.25,385,1120.84a666.72,666.72,0,0,0,149.44,86.88l87,36.42"/><path class="cls-2" d="M332.05,1094.7l68.23,52.59a666.72,666.72,0,0,0,149.44,86.88l87,36.43"/><path class="cls-2" d="M393.05,1059.35l68.24,52.59a666.37,666.37,0,0,0,149.44,86.89l87,36.42"/><path class="cls-2" d="M408.29,1015.5l68.23,52.59A666.72,666.72,0,0,0,626,1155l87,36.43"/><path class="cls-2" d="M88.4,813.15l68.23,52.59a666.56,666.56,0,0,0,149.44,86.88l87,36.43"/><path class="cls-2" d="M103.63,839.6l68.24,52.59a666.11,666.11,0,0,0,149.44,86.88l87,36.43"/><path class="cls-2" d="M88.44,883.45l68.24,52.6a666.49,666.49,0,0,0,149.44,86.88l87,36.42"/><path class="cls-2" d="M27.43,918.8l68.23,52.59a666.72,666.72,0,0,0,149.44,86.88l87,36.43"/><path class="cls-2" d="M12.13,892.35l68.24,52.59a666.49,666.49,0,0,0,149.44,86.88l87,36.43"/><path class="cls-2" d="M27.39,848.47l68.24,52.59a666.49,666.49,0,0,0,149.44,86.88l87,36.43"/><path class="cls-2" d="M697.71,1165l68.23,52.59a666.72,666.72,0,0,0,149.44,86.88l87,36.43"/><path class="cls-2" d="M712.94,1191.4,781.18,1244a666.49,666.49,0,0,0,149.44,86.88l87,36.43"/><path class="cls-2" d="M697.75,1235.25,766,1287.84a666.53,666.53,0,0,0,149.44,86.89l87,36.42"/><path class="cls-2" d="M636.74,1270.6,705,1323.19a666.72,666.72,0,0,0,149.44,86.88l87,36.43"/><path class="cls-2" d="M621.44,1244.14l68.24,52.6a666.49,666.49,0,0,0,149.44,86.88l87,36.42"/><path class="cls-2" d="M636.7,1200.27l68.23,52.59a666.72,666.72,0,0,0,149.44,86.88l87,36.42"/><polyline class="cls-3" points="426.69 445.79 426.76 465.64 429.87 467.44 432.98 465.64 432.98 450.64"/><line class="cls-3" x1="429.87" y1="467.44" x2="429.87" y2="448.24"/><polyline class="cls-3" points="507.55 487.19 507.55 497.96 510.66 499.75 513.77 497.96 513.77 483.6"/><line class="cls-3" x1="510.66" y1="499.75" x2="510.66" y2="485.39"/><polyline class="cls-3" points="613.17 426.15 613.17 436.96 616.28 438.75 619.39 436.96 619.39 422.56"/><line class="cls-3" x1="616.28" y1="438.76" x2="616.28" y2="424.35"/><polyline class="cls-3" points="563.52 454.87 563.52 465.72 566.63 467.52 569.74 465.72 569.74 451.28"/><line class="cls-3" x1="566.63" y1="467.52" x2="566.63" y2="453.14"/><polygon class="cls-3" points="492.04 489.03 417.39 431.53 417.39 431.53 554.19 352.54 628.72 410.04 628.72 410.04 492.04 489.03"/><polygon class="cls-3" points="417.39 431.53 417.46 438.67 492.01 496.16 492.01 496.16 492.04 489.03 417.39 431.53 417.39 431.53"/><polygon class="cls-3" points="492.01 496.16 492.04 489.03 628.72 410.04 628.72 410.04 628.81 417.17 492.01 496.16 492.01 496.16"/><polygon class="cls-3" points="423.61 431.59 492.01 485.39 622.59 409.99 554.19 356.13 423.61 431.59"/><polygon class="cls-3" points="429.91 431.59 492.04 481.88 616.28 410.04 554.27 359.68 429.91 431.59"/><line class="cls-4" x1="548.08" y1="363.25" x2="610.16" y2="413.58"/><line class="cls-4" x1="436.21" y1="427.94" x2="498.23" y2="478.3"/><line class="cls-4" x1="442.42" y1="424.35" x2="504.44" y2="474.62"/><line class="cls-4" x1="448.63" y1="420.76" x2="510.66" y2="471.11"/><line class="cls-4" x1="454.84" y1="417.17" x2="517.01" y2="467.44"/><line class="cls-4" x1="461.07" y1="413.6" x2="523.1" y2="463.92"/><line class="cls-4" x1="467.22" y1="410.04" x2="529.43" y2="460.26"/><line class="cls-4" x1="473.47" y1="406.4" x2="535.54" y2="456.73"/><line class="cls-4" x1="479.57" y1="402.87" x2="541.75" y2="453.13"/><line class="cls-4" x1="486.51" y1="399.22" x2="547.97" y2="449.54"/><line class="cls-4" x1="492.43" y1="395.44" x2="554.27" y2="445.9"/><line class="cls-4" x1="498.32" y1="392.1" x2="560.41" y2="442.35"/><line class="cls-4" x1="504.51" y1="388.45" x2="566.69" y2="438.75"/><line class="cls-4" x1="510.72" y1="384.86" x2="572.89" y2="435.15"/><line class="cls-4" x1="517.01" y1="381.27" x2="579.15" y2="431.59"/><line class="cls-4" x1="523.35" y1="377.85" x2="585.22" y2="428"/><line class="cls-4" x1="529.43" y1="374.15" x2="591.5" y2="424.38"/><line class="cls-4" x1="535.6" y1="370.62" x2="597.72" y2="420.77"/><line class="cls-4" x1="541.75" y1="366.91" x2="603.85" y2="417.22"/><line class="cls-4" x1="435.02" y1="435.72" x2="559.44" y2="363.88"/><line class="cls-4" x1="440.19" y1="439.91" x2="564.49" y2="368.14"/><line class="cls-4" x1="445.37" y1="444.1" x2="569.77" y2="372.27"/><line class="cls-4" x1="450.55" y1="448.29" x2="574.94" y2="376.47"/><line class="cls-4" x1="455.73" y1="452.48" x2="580.11" y2="380.66"/><line class="cls-4" x1="461.01" y1="456.61" x2="585.22" y2="384.9"/><line class="cls-4" x1="466.08" y1="460.87" x2="590.45" y2="389.06"/><line class="cls-4" x1="471.26" y1="465.06" x2="595.61" y2="393.26"/><line class="cls-4" x1="476.46" y1="469.27" x2="600.78" y2="397.45"/><line class="cls-4" x1="481.61" y1="473.44" x2="605.95" y2="401.65"/><line class="cls-4" x1="486.79" y1="477.63" x2="611.12" y2="405.85"/><polyline class="cls-3" points="277.45 531.96 277.52 551.82 280.63 553.61 283.74 551.82 283.74 536.81"/><line class="cls-3" x1="280.63" y1="553.61" x2="280.63" y2="534.41"/><polyline class="cls-3" points="358.31 573.36 358.31 584.13 361.42 585.92 364.53 584.13 364.53 569.77"/><line class="cls-3" x1="361.42" y1="585.92" x2="361.42" y2="571.57"/><polyline class="cls-3" points="463.93 512.32 463.93 523.13 467.04 524.93 470.15 523.13 470.15 508.73"/><line class="cls-3" x1="467.04" y1="524.93" x2="467.04" y2="510.53"/><polyline class="cls-3" points="414.28 541.04 414.28 551.89 417.39 553.69 420.5 551.89 420.5 537.45"/><line class="cls-3" x1="417.39" y1="553.69" x2="417.39" y2="539.31"/><polygon class="cls-3" points="342.8 575.21 268.15 517.7 268.15 517.7 404.95 438.72 479.48 496.21 479.48 496.21 342.8 575.21"/><polygon class="cls-3" points="268.15 517.7 268.22 524.84 342.77 582.33 342.77 582.33 342.8 575.21 268.15 517.7 268.15 517.7"/><polygon class="cls-3" points="342.77 582.33 342.8 575.21 479.48 496.21 479.48 496.21 479.57 503.34 342.77 582.34 342.77 582.33"/><polygon class="cls-3" points="274.37 517.76 342.77 571.56 473.35 496.16 404.95 442.31 274.37 517.76"/><polygon class="cls-3" points="280.67 517.76 342.8 568.05 467.04 496.21 405.03 445.85 280.67 517.76"/><line class="cls-4" x1="398.84" y1="449.42" x2="460.92" y2="499.75"/><line class="cls-4" x1="286.97" y1="514.12" x2="348.99" y2="564.47"/><line class="cls-4" x1="293.18" y1="510.53" x2="355.2" y2="560.79"/><line class="cls-4" x1="299.39" y1="506.93" x2="361.42" y2="557.28"/><line class="cls-4" x1="305.6" y1="503.34" x2="367.77" y2="553.61"/><line class="cls-4" x1="311.83" y1="499.77" x2="373.86" y2="550.09"/><line class="cls-4" x1="317.98" y1="496.21" x2="380.19" y2="546.43"/><line class="cls-4" x1="324.23" y1="492.57" x2="386.3" y2="542.9"/><line class="cls-4" x1="330.33" y1="489.04" x2="392.51" y2="539.3"/><line class="cls-4" x1="337.27" y1="485.39" x2="398.73" y2="535.71"/><line class="cls-4" x1="343.19" y1="481.61" x2="405.03" y2="532.07"/><line class="cls-4" x1="349.08" y1="478.27" x2="411.17" y2="528.52"/><line class="cls-4" x1="355.27" y1="474.62" x2="417.45" y2="524.92"/><line class="cls-4" x1="361.48" y1="471.03" x2="423.65" y2="521.32"/><line class="cls-4" x1="367.77" y1="467.44" x2="429.91" y2="517.76"/><line class="cls-4" x1="374.11" y1="464.02" x2="435.98" y2="514.17"/><line class="cls-4" x1="380.19" y1="460.32" x2="442.26" y2="510.55"/><line class="cls-4" x1="386.36" y1="456.79" x2="448.48" y2="506.94"/><line class="cls-4" x1="392.51" y1="453.08" x2="454.61" y2="503.39"/><line class="cls-4" x1="285.78" y1="521.89" x2="410.2" y2="450.05"/><line class="cls-4" x1="290.95" y1="526.08" x2="415.25" y2="454.31"/><line class="cls-4" x1="296.13" y1="530.27" x2="420.53" y2="458.44"/><line class="cls-4" x1="301.31" y1="534.46" x2="425.7" y2="462.64"/><line class="cls-4" x1="306.49" y1="538.65" x2="430.87" y2="466.84"/><line class="cls-4" x1="311.77" y1="542.79" x2="435.98" y2="471.07"/><line class="cls-4" x1="316.84" y1="547.04" x2="441.2" y2="475.23"/><line class="cls-4" x1="322.02" y1="551.23" x2="446.37" y2="479.43"/><line class="cls-4" x1="327.22" y1="555.44" x2="451.54" y2="483.62"/><line class="cls-4" x1="332.37" y1="559.61" x2="456.71" y2="487.82"/><line class="cls-4" x1="337.55" y1="563.8" x2="461.88" y2="492.02"/><polyline class="cls-3" points="128.21 618.14 128.28 638 131.39 639.79 134.5 638 134.5 622.99"/><line class="cls-3" x1="131.39" y1="639.79" x2="131.39" y2="620.59"/><polyline class="cls-3" points="209.07 659.54 209.07 670.31 212.18 672.11 215.29 670.31 215.29 655.95"/><line class="cls-3" x1="212.18" y1="672.11" x2="212.18" y2="657.75"/><polyline class="cls-3" points="314.69 598.5 314.69 609.31 317.8 611.11 320.91 609.31 320.91 594.91"/><line class="cls-3" x1="317.8" y1="611.11" x2="317.8" y2="596.71"/><polyline class="cls-3" points="265.04 627.23 265.04 638.08 268.15 639.87 271.26 638.08 271.26 623.63"/><line class="cls-3" x1="268.15" y1="639.87" x2="268.15" y2="625.49"/><polygon class="cls-3" points="193.56 661.39 118.91 603.88 118.91 603.88 255.71 524.9 330.24 582.39 330.24 582.39 193.56 661.39"/><polygon class="cls-3" points="118.91 603.88 118.98 611.02 193.53 668.51 193.53 668.51 193.56 661.39 118.91 603.88 118.91 603.88"/><polygon class="cls-3" points="193.53 668.51 193.56 661.39 330.24 582.39 330.24 582.39 330.33 589.52 193.53 668.52 193.53 668.51"/><polygon class="cls-3" points="125.13 603.94 193.53 657.74 324.11 582.34 255.71 528.49 125.13 603.94"/><polygon class="cls-3" points="131.43 603.94 193.56 654.23 317.8 582.39 255.79 532.03 131.43 603.94"/><line class="cls-4" x1="249.6" y1="535.6" x2="311.67" y2="585.93"/><line class="cls-4" x1="137.73" y1="600.3" x2="199.74" y2="650.65"/><line class="cls-4" x1="143.94" y1="596.71" x2="205.96" y2="646.97"/><line class="cls-4" x1="150.15" y1="593.12" x2="212.18" y2="643.46"/><line class="cls-4" x1="156.36" y1="589.53" x2="218.53" y2="639.79"/><line class="cls-4" x1="162.59" y1="585.95" x2="224.62" y2="636.27"/><line class="cls-4" x1="168.74" y1="582.39" x2="230.95" y2="632.61"/><line class="cls-4" x1="174.99" y1="578.75" x2="237.05" y2="629.08"/><line class="cls-4" x1="181.09" y1="575.22" x2="243.27" y2="625.48"/><line class="cls-4" x1="188.03" y1="571.57" x2="249.49" y2="621.89"/><line class="cls-4" x1="193.95" y1="567.79" x2="255.79" y2="618.25"/><line class="cls-4" x1="199.84" y1="564.45" x2="261.93" y2="614.7"/><line class="cls-4" x1="206.03" y1="560.8" x2="268.21" y2="611.1"/><line class="cls-4" x1="212.24" y1="557.21" x2="274.41" y2="607.5"/><line class="cls-4" x1="218.53" y1="553.62" x2="280.67" y2="603.94"/><line class="cls-4" x1="224.87" y1="550.2" x2="286.74" y2="600.35"/><line class="cls-4" x1="230.95" y1="546.5" x2="293.02" y2="596.73"/><line class="cls-4" x1="237.12" y1="542.98" x2="299.24" y2="593.13"/><line class="cls-4" x1="243.27" y1="539.26" x2="305.37" y2="589.57"/><line class="cls-4" x1="136.54" y1="608.07" x2="260.96" y2="536.23"/><line class="cls-4" x1="141.71" y1="612.26" x2="266.01" y2="540.49"/><line class="cls-4" x1="146.89" y1="616.45" x2="271.29" y2="544.62"/><line class="cls-4" x1="152.07" y1="620.64" x2="276.46" y2="548.82"/><line class="cls-4" x1="157.25" y1="624.84" x2="281.63" y2="553.02"/><line class="cls-4" x1="162.53" y1="628.97" x2="286.74" y2="557.25"/><line class="cls-4" x1="167.6" y1="633.22" x2="291.96" y2="561.41"/><line class="cls-4" x1="172.78" y1="637.41" x2="297.13" y2="565.61"/><line class="cls-4" x1="177.98" y1="641.62" x2="302.3" y2="569.8"/><line class="cls-4" x1="183.13" y1="645.79" x2="307.47" y2="574"/><line class="cls-4" x1="188.31" y1="649.98" x2="312.63" y2="578.2"/><polyline class="cls-3" points="563.39 524.77 563.46 544.63 566.57 546.42 569.67 544.63 569.67 529.62"/><line class="cls-3" x1="566.57" y1="546.42" x2="566.57" y2="527.22"/><polyline class="cls-3" points="644.25 566.17 644.25 576.94 647.36 578.73 650.47 576.94 650.47 562.58"/><line class="cls-3" x1="647.36" y1="578.73" x2="647.36" y2="564.37"/><polyline class="cls-3" points="749.87 505.13 749.87 515.94 752.98 517.74 756.09 515.94 756.09 501.54"/><line class="cls-3" x1="752.98" y1="517.74" x2="752.98" y2="503.33"/><polyline class="cls-3" points="700.22 533.85 700.22 544.7 703.32 546.5 706.43 544.7 706.43 530.26"/><line class="cls-3" x1="703.32" y1="546.5" x2="703.32" y2="532.12"/><polygon class="cls-3" points="628.73 568.01 554.09 510.51 554.09 510.51 690.89 431.52 765.41 489.02 765.41 489.02 628.73 568.01"/><polygon class="cls-3" points="554.08 510.51 554.16 517.65 628.7 575.14 628.71 575.14 628.73 568.01 554.09 510.51 554.08 510.51"/><polygon class="cls-3" points="628.71 575.14 628.73 568.01 765.41 489.02 765.42 489.02 765.51 496.15 628.71 575.14 628.71 575.14"/><polygon class="cls-3" points="560.3 510.57 628.7 564.37 759.29 488.97 690.88 435.12 560.3 510.57"/><polygon class="cls-3" points="566.61 510.57 628.73 560.86 752.98 489.02 690.97 438.66 566.61 510.57"/><line class="cls-4" x1="684.78" y1="442.23" x2="746.85" y2="492.56"/><line class="cls-4" x1="572.91" y1="506.92" x2="634.92" y2="557.28"/><line class="cls-4" x1="579.12" y1="503.33" x2="641.14" y2="553.6"/><line class="cls-4" x1="585.33" y1="499.74" x2="647.36" y2="550.09"/><line class="cls-4" x1="591.54" y1="496.15" x2="653.71" y2="546.42"/><line class="cls-4" x1="597.77" y1="492.58" x2="659.8" y2="542.9"/><line class="cls-4" x1="603.92" y1="489.02" x2="666.13" y2="539.24"/><line class="cls-4" x1="610.16" y1="485.38" x2="672.23" y2="535.71"/><line class="cls-4" x1="616.27" y1="481.85" x2="678.45" y2="532.11"/><line class="cls-4" x1="623.21" y1="478.2" x2="684.67" y2="528.52"/><line class="cls-4" x1="629.12" y1="474.42" x2="690.96" y2="524.88"/><line class="cls-4" x1="635.02" y1="471.08" x2="697.11" y2="521.33"/><line class="cls-4" x1="641.21" y1="467.43" x2="703.38" y2="517.73"/><line class="cls-4" x1="647.42" y1="463.84" x2="709.59" y2="514.13"/><line class="cls-4" x1="653.71" y1="460.25" x2="715.85" y2="510.57"/><line class="cls-4" x1="660.04" y1="456.83" x2="721.91" y2="506.98"/><line class="cls-4" x1="666.13" y1="453.13" x2="728.2" y2="503.36"/><line class="cls-4" x1="672.3" y1="449.6" x2="734.42" y2="499.75"/><line class="cls-4" x1="678.45" y1="445.89" x2="740.55" y2="496.2"/><line class="cls-4" x1="571.71" y1="514.7" x2="696.14" y2="442.86"/><line class="cls-4" x1="576.89" y1="518.89" x2="701.19" y2="447.12"/><line class="cls-4" x1="582.07" y1="523.08" x2="706.47" y2="451.25"/><line class="cls-4" x1="587.25" y1="527.27" x2="711.64" y2="455.45"/><line class="cls-4" x1="592.42" y1="531.46" x2="716.81" y2="459.64"/><line class="cls-4" x1="597.7" y1="535.6" x2="721.91" y2="463.88"/><line class="cls-4" x1="602.78" y1="539.85" x2="727.14" y2="468.04"/><line class="cls-4" x1="607.96" y1="544.04" x2="732.31" y2="472.24"/><line class="cls-4" x1="613.16" y1="548.25" x2="737.48" y2="476.43"/><line class="cls-4" x1="618.31" y1="552.42" x2="742.65" y2="480.63"/><line class="cls-4" x1="623.49" y1="556.61" x2="747.81" y2="484.83"/><polyline class="cls-3" points="414.15 610.94 414.22 630.8 417.33 632.59 420.44 630.8 420.44 615.79"/><line class="cls-3" x1="417.33" y1="632.59" x2="417.33" y2="613.39"/><polyline class="cls-3" points="495.01 652.34 495.01 663.11 498.12 664.91 501.23 663.11 501.23 648.75"/><line class="cls-3" x1="498.12" y1="664.91" x2="498.12" y2="650.55"/><polyline class="cls-3" points="600.63 591.3 600.63 602.11 603.74 603.91 606.85 602.11 606.85 587.71"/><line class="cls-3" x1="603.74" y1="603.91" x2="603.74" y2="589.51"/><polyline class="cls-3" points="550.98 620.02 550.98 630.87 554.08 632.67 557.19 630.87 557.19 616.43"/><line class="cls-3" x1="554.08" y1="632.67" x2="554.08" y2="618.29"/><polygon class="cls-3" points="479.49 654.18 404.85 596.68 404.85 596.68 541.65 517.7 616.17 575.19 616.17 575.19 479.49 654.18"/><polygon class="cls-3" points="404.84 596.68 404.92 603.82 479.46 661.32 479.47 661.31 479.49 654.18 404.85 596.68 404.84 596.68"/><polygon class="cls-3" points="479.47 661.32 479.49 654.18 616.17 575.19 616.18 575.2 616.27 582.33 479.47 661.32 479.47 661.32"/><polygon class="cls-3" points="411.06 596.74 479.46 650.54 610.05 575.14 541.64 521.29 411.06 596.74"/><polygon class="cls-3" points="417.37 596.74 479.49 647.03 603.74 575.19 541.72 524.83 417.37 596.74"/><line class="cls-4" x1="535.54" y1="528.4" x2="597.61" y2="578.73"/><line class="cls-4" x1="423.67" y1="593.1" x2="485.68" y2="643.45"/><line class="cls-4" x1="429.88" y1="589.51" x2="491.9" y2="639.77"/><line class="cls-4" x1="436.09" y1="585.92" x2="498.12" y2="636.26"/><line class="cls-4" x1="442.3" y1="582.32" x2="504.47" y2="632.59"/><line class="cls-4" x1="448.53" y1="578.75" x2="510.56" y2="629.07"/><line class="cls-4" x1="454.68" y1="575.19" x2="516.89" y2="625.41"/><line class="cls-4" x1="460.92" y1="571.55" x2="522.99" y2="621.88"/><line class="cls-4" x1="467.03" y1="568.02" x2="529.21" y2="618.28"/><line class="cls-4" x1="473.97" y1="564.37" x2="535.43" y2="614.69"/><line class="cls-4" x1="479.88" y1="560.59" x2="541.72" y2="611.05"/><line class="cls-4" x1="485.78" y1="557.25" x2="547.87" y2="607.5"/><line class="cls-4" x1="491.97" y1="553.6" x2="554.14" y2="603.9"/><line class="cls-4" x1="498.18" y1="550.01" x2="560.35" y2="600.3"/><line class="cls-4" x1="504.47" y1="546.42" x2="566.61" y2="596.74"/><line class="cls-4" x1="510.8" y1="543" x2="572.67" y2="593.15"/><line class="cls-4" x1="516.89" y1="539.3" x2="578.96" y2="589.53"/><line class="cls-4" x1="523.06" y1="535.78" x2="585.18" y2="585.93"/><line class="cls-4" x1="529.21" y1="532.06" x2="591.31" y2="582.37"/><line class="cls-4" x1="422.47" y1="600.87" x2="546.9" y2="529.03"/><line class="cls-4" x1="427.65" y1="605.06" x2="551.95" y2="533.29"/><line class="cls-4" x1="432.83" y1="609.25" x2="557.23" y2="537.42"/><line class="cls-4" x1="438.01" y1="613.44" x2="562.4" y2="541.62"/><line class="cls-4" x1="443.18" y1="617.64" x2="567.57" y2="545.82"/><line class="cls-4" x1="448.46" y1="621.77" x2="572.67" y2="550.05"/><line class="cls-4" x1="453.54" y1="626.02" x2="577.9" y2="554.21"/><line class="cls-4" x1="458.71" y1="630.21" x2="583.07" y2="558.41"/><line class="cls-4" x1="463.92" y1="634.42" x2="588.24" y2="562.6"/><line class="cls-4" x1="469.07" y1="638.59" x2="593.4" y2="566.8"/><line class="cls-4" x1="474.25" y1="642.78" x2="598.57" y2="571"/><polyline class="cls-3" points="264.91 697.12 264.98 716.98 268.08 718.77 271.19 716.98 271.19 701.97"/><line class="cls-3" x1="268.09" y1="718.77" x2="268.09" y2="699.57"/><polyline class="cls-3" points="345.77 738.52 345.77 749.29 348.88 751.09 351.99 749.29 351.99 734.93"/><line class="cls-3" x1="348.88" y1="751.09" x2="348.88" y2="736.73"/><polyline class="cls-3" points="451.39 677.48 451.39 688.29 454.5 690.09 457.61 688.29 457.61 673.89"/><line class="cls-3" x1="454.5" y1="690.09" x2="454.5" y2="675.69"/><polyline class="cls-3" points="401.73 706.21 401.73 717.05 404.84 718.85 407.95 717.05 407.95 702.62"/><line class="cls-3" x1="404.84" y1="718.85" x2="404.84" y2="704.47"/><polygon class="cls-3" points="330.25 740.37 255.6 682.86 255.6 682.86 392.41 603.88 466.94 661.37 466.93 661.38 330.25 740.37"/><polygon class="cls-3" points="255.6 682.86 255.68 690 330.22 747.5 330.23 747.5 330.25 740.37 255.6 682.86 255.6 682.86"/><polygon class="cls-3" points="330.23 747.5 330.25 740.37 466.93 661.38 466.94 661.38 467.03 668.51 330.23 747.5 330.23 747.5"/><polygon class="cls-3" points="261.82 682.92 330.22 736.73 460.81 661.33 392.4 607.47 261.82 682.92"/><polygon class="cls-3" points="268.13 682.92 330.25 733.21 454.5 661.37 392.48 611.01 268.13 682.92"/><line class="cls-4" x1="386.3" y1="614.59" x2="448.37" y2="664.92"/><line class="cls-4" x1="274.43" y1="679.28" x2="336.44" y2="729.63"/><line class="cls-4" x1="280.64" y1="675.69" x2="342.66" y2="725.95"/><line class="cls-4" x1="286.85" y1="672.1" x2="348.88" y2="722.44"/><line class="cls-4" x1="293.06" y1="668.51" x2="355.23" y2="718.77"/><line class="cls-4" x1="299.29" y1="664.93" x2="361.32" y2="715.25"/><line class="cls-4" x1="305.44" y1="661.37" x2="367.64" y2="711.59"/><line class="cls-4" x1="311.68" y1="657.73" x2="373.75" y2="708.06"/><line class="cls-4" x1="317.79" y1="654.2" x2="379.97" y2="704.47"/><line class="cls-4" x1="324.73" y1="650.55" x2="386.19" y2="700.87"/><line class="cls-4" x1="330.64" y1="646.77" x2="392.48" y2="697.23"/><line class="cls-4" x1="336.54" y1="643.43" x2="398.63" y2="693.68"/><line class="cls-4" x1="342.73" y1="639.78" x2="404.9" y2="690.08"/><line class="cls-4" x1="348.94" y1="636.19" x2="411.1" y2="686.48"/><line class="cls-4" x1="355.23" y1="632.6" x2="417.37" y2="682.92"/><line class="cls-4" x1="361.56" y1="629.18" x2="423.43" y2="679.33"/><line class="cls-4" x1="367.64" y1="625.48" x2="429.72" y2="675.71"/><line class="cls-4" x1="373.82" y1="621.96" x2="435.94" y2="672.11"/><line class="cls-4" x1="379.97" y1="618.24" x2="442.07" y2="668.55"/><line class="cls-4" x1="273.23" y1="687.05" x2="397.66" y2="615.21"/><line class="cls-4" x1="278.41" y1="691.24" x2="402.71" y2="619.47"/><line class="cls-4" x1="283.59" y1="695.43" x2="407.99" y2="623.6"/><line class="cls-4" x1="288.76" y1="699.63" x2="413.16" y2="627.8"/><line class="cls-4" x1="293.94" y1="703.82" x2="418.33" y2="632"/><line class="cls-4" x1="299.22" y1="707.95" x2="423.43" y2="636.23"/><line class="cls-4" x1="304.3" y1="712.2" x2="428.66" y2="640.39"/><line class="cls-4" x1="309.47" y1="716.39" x2="433.83" y2="644.59"/><line class="cls-4" x1="314.68" y1="720.6" x2="439" y2="648.78"/><line class="cls-4" x1="319.83" y1="724.77" x2="444.16" y2="652.98"/><line class="cls-4" x1="325.01" y1="728.97" x2="449.33" y2="657.18"/><polyline class="cls-3" points="1594.63 1259.69 1721.24 1186.59 1805.64 1235.32 1805.64 1332.8 1679.03 1405.9"/><line class="cls-3" x1="1679.03" y1="1308.43" x2="1805.64" y2="1235.32"/><polygon class="cls-3" points="1594.63 1259.69 1594.63 1357.16 1679.03 1405.9 1679.03 1308.43 1594.63 1259.69"/><polygon class="cls-3" points="1689.58 1375.44 1689.58 1326.7 1710.68 1314.52 1710.68 1363.26 1689.58 1375.44"/><line class="cls-3" x1="1689.58" y1="1351.07" x2="1710.69" y2="1338.89"/><line class="cls-3" x1="1689.58" y1="1338.89" x2="1710.69" y2="1326.7"/><line class="cls-3" x1="1689.58" y1="1363.26" x2="1710.69" y2="1351.07"/><line class="cls-3" x1="1689.58" y1="1332.8" x2="1710.69" y2="1320.61"/><line class="cls-3" x1="1689.58" y1="1344.98" x2="1710.69" y2="1332.8"/><line class="cls-3" x1="1689.58" y1="1357.16" x2="1710.69" y2="1344.98"/><line class="cls-3" x1="1689.58" y1="1369.35" x2="1710.69" y2="1357.16"/><polygon class="cls-3" points="1731.79 1351.07 1731.79 1302.34 1752.89 1290.15 1752.89 1338.89 1731.79 1351.07"/><line class="cls-3" x1="1731.79" y1="1326.7" x2="1752.89" y2="1314.52"/><line class="cls-3" x1="1731.79" y1="1314.52" x2="1752.89" y2="1302.33"/><line class="cls-3" x1="1731.79" y1="1338.89" x2="1752.89" y2="1326.7"/><line class="cls-3" x1="1731.79" y1="1308.43" x2="1752.89" y2="1296.24"/><line class="cls-3" x1="1731.79" y1="1320.61" x2="1752.89" y2="1308.43"/><line class="cls-3" x1="1731.79" y1="1332.8" x2="1752.89" y2="1320.61"/><line class="cls-3" x1="1731.79" y1="1344.98" x2="1752.89" y2="1332.8"/><polygon class="cls-3" points="1773.99 1326.7 1773.99 1277.97 1795.09 1265.78 1795.09 1314.52 1773.99 1326.7"/><line class="cls-3" x1="1773.99" y1="1302.33" x2="1795.09" y2="1290.15"/><line class="cls-3" x1="1773.99" y1="1290.15" x2="1795.09" y2="1277.97"/><line class="cls-3" x1="1773.99" y1="1314.52" x2="1795.09" y2="1302.33"/><line class="cls-3" x1="1773.99" y1="1284.06" x2="1795.09" y2="1271.87"/><line class="cls-3" x1="1773.99" y1="1296.24" x2="1795.09" y2="1284.06"/><line class="cls-3" x1="1773.99" y1="1308.43" x2="1795.09" y2="1296.24"/><line class="cls-3" x1="1773.99" y1="1320.61" x2="1795.09" y2="1308.43"/><polyline class="cls-2" points="1636.83 1235.32 1721.24 1284.06 1721.24 1381.53"/><polyline class="cls-2" points="1679.03 1210.95 1763.44 1259.69 1763.44 1357.16"/><polygon class="cls-3" points="1641.45 1312.47 1634.26 1326.89 1647.51 1336.07 1630.1 1353.12 1636.98 1338.78 1624.04 1329.52 1641.45 1312.47"/><polyline class="cls-3" points="1425.21 1357.16 1551.82 1284.06 1636.23 1332.8 1636.23 1430.27 1509.62 1503.37"/><line class="cls-3" x1="1509.62" y1="1405.9" x2="1636.23" y2="1332.8"/><polygon class="cls-3" points="1425.21 1357.16 1425.21 1454.64 1509.62 1503.37 1509.62 1405.9 1425.21 1357.16"/><polygon class="cls-3" points="1520.17 1472.91 1520.17 1424.18 1541.27 1411.99 1541.27 1460.73 1520.17 1472.91"/><line class="cls-3" x1="1520.17" y1="1448.54" x2="1541.27" y2="1436.36"/><line class="cls-3" x1="1520.17" y1="1436.36" x2="1541.27" y2="1424.18"/><line class="cls-3" x1="1520.17" y1="1460.73" x2="1541.27" y2="1448.54"/><line class="cls-3" x1="1520.17" y1="1430.27" x2="1541.27" y2="1418.08"/><line class="cls-3" x1="1520.17" y1="1442.45" x2="1541.27" y2="1430.27"/><line class="cls-3" x1="1520.17" y1="1454.64" x2="1541.27" y2="1442.45"/><line class="cls-3" x1="1520.17" y1="1466.82" x2="1541.27" y2="1454.64"/><polygon class="cls-3" points="1562.37 1448.55 1562.37 1399.81 1583.47 1387.62 1583.47 1436.36 1562.37 1448.55"/><line class="cls-3" x1="1562.37" y1="1424.18" x2="1583.48" y2="1411.99"/><line class="cls-3" x1="1562.37" y1="1411.99" x2="1583.48" y2="1399.81"/><line class="cls-3" x1="1562.37" y1="1436.36" x2="1583.48" y2="1424.18"/><line class="cls-3" x1="1562.37" y1="1405.9" x2="1583.48" y2="1393.72"/><line class="cls-3" x1="1562.37" y1="1418.08" x2="1583.48" y2="1405.9"/><line class="cls-3" x1="1562.37" y1="1430.27" x2="1583.48" y2="1418.08"/><line class="cls-3" x1="1562.37" y1="1442.45" x2="1583.48" y2="1430.27"/><polygon class="cls-3" points="1604.58 1424.18 1604.58 1375.44 1625.68 1363.26 1625.68 1411.99 1604.58 1424.18"/><line class="cls-3" x1="1604.58" y1="1399.81" x2="1625.68" y2="1387.62"/><line class="cls-3" x1="1604.58" y1="1387.62" x2="1625.68" y2="1375.44"/><line class="cls-3" x1="1604.58" y1="1411.99" x2="1625.68" y2="1399.81"/><line class="cls-3" x1="1604.58" y1="1381.53" x2="1625.68" y2="1369.35"/><line class="cls-3" x1="1604.58" y1="1393.72" x2="1625.68" y2="1381.53"/><line class="cls-3" x1="1604.58" y1="1405.9" x2="1625.68" y2="1393.72"/><line class="cls-3" x1="1604.58" y1="1418.08" x2="1625.68" y2="1405.9"/><polyline class="cls-2" points="1467.41 1332.8 1551.82 1381.53 1551.82 1479.01"/><polyline class="cls-2" points="1509.62 1308.43 1594.03 1357.16 1594.03 1454.64"/><polygon class="cls-3" points="1472.04 1409.94 1464.85 1424.37 1478.1 1433.55 1460.69 1450.59 1467.57 1436.25 1454.63 1426.99 1472.04 1409.94"/><polyline class="cls-3" points="1156.47 78.33 1156.47 423.74 1224.81 463.19 1338.7 397.43 1338.7 52.03"/><polyline class="cls-3" points="1156.47 81.78 1224.81 121.24 1338.7 55.48"/><polygon class="cls-3" points="1156.48 78.34 1224.81 117.79 1338.69 52.03 1338.69 52.03 1270.36 12.57 1156.48 78.33 1156.48 78.34"/><polygon class="cls-3" points="1270.36 16.02 1162.45 78.34 1224.81 114.34 1332.72 52.03 1270.36 16.02"/><polyline class="cls-3" points="1329.73 53.76 1270.36 19.48 1165.44 80.06"/><line class="cls-3" x1="1270.36" y1="16.02" x2="1270.36" y2="19.48"/><line class="cls-3" x1="1224.81" y1="117.79" x2="1224.81" y2="463.19"/><polyline class="cls-3" points="1270.36 66.34 1270.36 68.63 1224.81 94.94 1202.03 81.78 1202.03 79.49"/><polygon class="cls-3" points="1247.59 53.19 1202.04 79.49 1202.04 79.49 1224.81 92.64 1270.36 66.34 1270.36 66.33 1247.59 53.19"/><line class="cls-3" x1="1224.81" y1="94.94" x2="1224.81" y2="92.64"/><polyline class="cls-3" points="1247.59 210.08 1247.59 476.65 1315.92 516.11 1407.03 463.5 1407.03 196.93"/><polyline class="cls-3" points="1407.03 200.47 1315.92 253.08 1247.59 213.62"/><polygon class="cls-3" points="1338.7 157.47 1407.03 196.93 1407.03 196.93 1315.92 249.54 1247.59 210.08 1247.59 210.08 1338.7 157.47"/><polygon class="cls-3" points="1338.7 161.01 1253.64 210.12 1315.92 246.08 1400.97 196.97 1338.7 161.01"/><polyline class="cls-3" points="1256.61 211.85 1338.7 164.45 1397.99 198.69"/><line class="cls-3" x1="1315.92" y1="249.54" x2="1315.92" y2="516.11"/><line class="cls-3" x1="1338.7" y1="161.01" x2="1338.7" y2="164.45"/><polyline class="cls-3" points="1293.14 185.04 1293.14 213.62 1315.92 226.77 1338.7 213.62 1338.7 185.04"/><line class="cls-3" x1="1315.92" y1="198.2" x2="1315.92" y2="226.77"/><polyline class="cls-3" points="1332.79 186.18 1315.92 176.44 1299.25 186.29"/><polyline class="cls-3" points="1293.14 187.32 1315.92 200.47 1338.7 187.32"/><polygon class="cls-3" points="1315.92 171.89 1293.15 185.04 1293.15 185.05 1315.92 198.19 1338.69 185.05 1338.69 185.04 1315.92 171.89"/><polygon class="cls-3" points="1315.92 174.16 1297.08 185.04 1315.92 195.92 1334.76 185.04 1315.92 174.16"/><line class="cls-3" x1="1315.92" y1="174.16" x2="1315.92" y2="176.44"/><polyline class="cls-3" points="951.49 300.97 951.46 436.03 1088.15 514.95 1179.26 462.33 1179.26 327.28"/><polyline class="cls-3" points="1179.26 330.81 1088.15 383.42 951.48 304.51"/><polygon class="cls-3" points="951.49 300.97 1042.6 248.36 1179.26 327.27 1179.26 327.28 1088.15 379.88 951.49 300.97 951.49 300.97"/><polygon class="cls-3" points="1042.6 251.9 957.62 300.97 1088.15 376.33 1173.12 327.27 1042.6 251.9"/><polyline class="cls-3" points="960.57 302.67 1042.6 255.31 1170.4 328.84"/><line class="cls-3" x1="1042.59" y1="251.9" x2="1042.59" y2="255.56"/><line class="cls-3" x1="1088.15" y1="379.88" x2="1088.15" y2="514.95"/><polyline class="cls-3" points="997.03 280.66 997.03 304.51 1019.8 317.66 1042.58 304.51 1042.58 280.66"/><line class="cls-3" x1="1019.8" y1="317.66" x2="1019.8" y2="291.36"/><polyline class="cls-3" points="992.51 275.3 992.51 278.05 1019.8 293.81 1047.1 278.05 1047.1 275.3"/><polygon class="cls-3" points="1019.8 259.54 992.51 275.3 992.51 275.3 1019.8 291.06 1047.1 275.3 1047.1 275.3 1019.8 259.54"/><line class="cls-3" x1="1019.8" y1="293.81" x2="1019.8" y2="291.06"/><polyline class="cls-3" points="1293.11 315.12 1293.12 528.96 1201.99 581.56 1110.9 528.97 1110.9 315.12"/><polyline class="cls-3" points="1110.9 318.52 1202.01 371.13 1293.12 318.52"/><polygon class="cls-3" points="1202.01 262.52 1110.9 315.12 1110.9 315.13 1202.01 367.73 1293.11 315.13 1293.11 315.12 1202.01 262.52"/><polygon class="cls-3" points="1202.01 265.91 1116.84 315.13 1202.01 364.3 1287.21 315.11 1202.01 265.91"/><polyline class="cls-3" points="1284.23 316.83 1202.01 269.35 1119.79 316.83"/><line class="cls-3" x1="1202.01" y1="265.91" x2="1202.01" y2="269.35"/><line class="cls-3" x1="1202.01" y1="367.73" x2="1201.99" y2="581.56"/><polyline class="cls-3" points="1156.47 316.23 1156.47 318.52 1202.03 344.82 1247.58 318.52 1247.58 316.23"/><polygon class="cls-3" points="1202.03 289.92 1156.48 316.22 1156.48 316.23 1202.03 342.53 1247.58 316.23 1247.58 316.22 1202.03 289.92"/><line class="cls-3" x1="1202.03" y1="344.82" x2="1202.03" y2="342.53"/><polyline class="cls-3" points="1179.25 293.52 1179.25 317.37 1202.03 330.52 1224.8 317.37 1224.8 293.52"/><line class="cls-3" x1="1202.03" y1="330.52" x2="1202.03" y2="304.22"/><polyline class="cls-3" points="1174.73 288.16 1174.73 290.91 1202.03 306.67 1229.32 290.91 1229.32 288.16"/><polygon class="cls-3" points="1202.03 272.4 1174.73 288.16 1174.73 288.16 1202.03 303.92 1229.32 288.16 1229.32 288.16 1202.03 272.4"/><line class="cls-3" x1="1202.03" y1="306.67" x2="1202.03" y2="303.92"/><polyline class="cls-3" points="1293.14 341.43 1293.13 555.25 1361.46 594.7 1429.82 555.24 1429.79 341.44"/><polyline class="cls-3" points="1293.13 344.84 1361.46 384.29 1429.8 344.84"/><polygon class="cls-3" points="1361.46 301.98 1293.14 341.43 1293.14 341.44 1361.46 380.89 1429.79 341.44 1429.79 341.43 1361.46 301.98"/><polygon class="cls-3" points="1361.46 305.38 1299.01 341.44 1361.46 377.5 1423.92 341.44 1361.46 305.38"/><polyline class="cls-3" points="1420.94 343.16 1361.46 308.82 1301.99 343.16"/><line class="cls-3" x1="1361.46" y1="305.38" x2="1361.46" y2="308.82"/><line class="cls-3" x1="1361.46" y1="380.89" x2="1361.46" y2="594.7"/><polyline class="cls-3" points="1338.69 342.52 1338.69 344.82 1361.46 357.97 1384.24 344.82 1384.24 342.52"/><polygon class="cls-3" points="1361.46 329.37 1338.69 342.52 1338.69 342.52 1361.46 355.67 1384.24 342.52 1384.24 342.52 1361.46 329.37"/><line class="cls-3" x1="1361.46" y1="357.97" x2="1361.46" y2="355.67"/><polyline class="cls-3" points="1224.81 538.47 1224.97 594.71 1247.75 607.86 1293.14 581.56 1293.14 525.32"/><polyline class="cls-3" points="1224.81 542.01 1247.59 555.16 1293.14 528.86"/><polygon class="cls-3" points="1270.36 512.17 1224.81 538.47 1224.81 538.48 1247.59 551.62 1293.14 525.32 1293.14 525.32 1270.36 512.17"/><polygon class="cls-3" points="1270.36 515.71 1230.86 538.52 1247.59 548.18 1287.09 525.37 1270.36 515.71"/><polyline class="cls-3" points="1284.07 527.11 1270.36 519.2 1233.88 540.26"/><line class="cls-3" x1="1247.59" y1="551.62" x2="1247.75" y2="607.86"/><line class="cls-3" x1="1270.36" y1="515.71" x2="1270.36" y2="519.2"/><polyline class="cls-3" points="1019.81 499.26 1019.81 555.36 1065.36 581.66 1110.91 555.36 1110.91 499.26"/><polyline class="cls-3" points="1019.81 502.8 1065.36 529.1 1110.92 502.8"/><polygon class="cls-3" points="1065.36 472.95 1019.81 499.25 1019.81 499.26 1065.36 525.56 1110.91 499.26 1110.91 499.25 1065.36 472.95"/><polygon class="cls-3" points="1065.36 476.49 1025.86 499.3 1065.36 522.11 1104.87 499.3 1065.36 476.49"/><polyline class="cls-3" points="1101.85 501.05 1065.36 479.98 1028.88 501.05"/><line class="cls-3" x1="1065.36" y1="525.56" x2="1065.36" y2="581.66"/><line class="cls-3" x1="1065.36" y1="476.49" x2="1065.36" y2="479.98"/><polyline class="cls-3" points="1293.15 525.53 1293.15 607.84 1315.92 621.04 1338.69 607.84 1338.69 525.53"/><polyline class="cls-3" points="1293.14 529.07 1315.92 542.22 1338.7 529.07"/><polygon class="cls-3" points="1315.92 512.38 1293.15 525.53 1293.15 525.53 1315.92 538.68 1338.69 525.53 1338.69 525.53 1315.92 512.38"/><polygon class="cls-3" points="1315.92 515.92 1299.17 525.59 1315.92 535.26 1332.67 525.59 1315.92 515.92"/><polyline class="cls-3" points="1329.7 527.3 1315.92 519.35 1302.14 527.3"/><line class="cls-3" x1="1315.92" y1="538.68" x2="1315.92" y2="621.04"/><line class="cls-3" x1="1315.92" y1="515.92" x2="1315.92" y2="519.35"/><polyline class="cls-3" points="1827.27 889.2 1827.27 892.24 1664.57 986.18 1603.56 950.95 1603.56 947.91"/><polyline class="cls-3" points="1766.26 854.02 1603.56 947.9 1603.56 947.91 1664.57 983.14 1827.26 889.2 1827.26 889.19 1766.26 854.02"/><line class="cls-3" x1="1664.57" y1="986.18" x2="1664.57" y2="983.14"/><polyline class="cls-3" points="1664.57 657.44 1664.57 939.26 1684.91 951.01 1766.26 904.04 1766.26 622.21"/><line class="cls-3" x1="1684.91" y1="669.18" x2="1684.91" y2="951.01"/><polygon class="cls-3" points="1705.24 680.92 1745.92 657.44 1745.92 727.9 1705.24 751.38 1705.24 680.92"/><polyline class="cls-3" points="1725.58 669.18 1725.58 716.15 1705.24 727.9"/><line class="cls-3" x1="1725.58" y1="716.15" x2="1745.92" y2="727.9"/><polygon class="cls-3" points="1669.65 683.86 1679.82 689.73 1679.82 713.22 1669.65 707.35 1669.65 683.86"/><polygon class="cls-3" points="1705.24 774.87 1705.24 798.35 1745.92 774.87 1745.92 751.38 1705.24 774.87"/><polyline class="cls-3" points="1705.24 794.22 1741.05 773.54 1732.81 758.95"/><polygon class="cls-3" points="1705.24 821.84 1705.24 868.81 1745.92 845.32 1745.92 798.35 1705.24 821.84"/><line class="cls-3" x1="1705.25" y1="845.32" x2="1745.92" y2="821.84"/><line class="cls-3" x1="1725.58" y1="810.09" x2="1725.58" y2="857.07"/><line class="cls-3" x1="1722.14" y1="812.08" x2="1722.14" y2="835.57"/><polygon class="cls-3" points="1708.69 847.31 1722.14 839.54 1722.14 855.08 1708.69 862.84 1708.69 847.31"/><polygon class="cls-3" points="1729.11 835.62 1742.39 827.95 1742.39 843.28 1729.11 850.95 1729.11 835.62"/><line class="cls-3" x1="1729.11" y1="808.21" x2="1729.11" y2="831.7"/><line class="cls-3" x1="1735.75" y1="757.25" x2="1745.92" y2="774.87"/><line class="cls-3" x1="1722.14" y1="812.08" x2="1722.14" y2="835.57"/><polygon class="cls-3" points="1664.58 657.44 1684.91 669.18 1766.25 622.21 1766.25 622.21 1745.92 610.47 1664.58 657.44 1664.58 657.44"/><ellipse class="cls-3" cx="1736.06" cy="839.46" rx="5.71" ry="3.28" transform="translate(95.99 1853.74) rotate(-57.54)"/><polyline class="cls-3" points="1733.01 844.25 1743 850.64 1749.13 841.01 1739.32 834.76"/><ellipse class="cls-3" cx="1746.07" cy="845.82" rx="5.71" ry="3.28" transform="translate(95.26 1865.13) rotate(-57.54)"/><ellipse class="cls-3" cx="1715.62" cy="851.35" rx="5.71" ry="3.28" transform="translate(76.49 1842) rotate(-57.54)"/><polyline class="cls-3" points="1712.57 856.15 1722.56 862.53 1728.69 852.9 1718.88 846.66"/><ellipse class="cls-3" cx="1725.63" cy="857.71" rx="5.71" ry="3.28" transform="translate(75.75 1853.4) rotate(-57.54)"/><polygon class="cls-3" points="1672.68 692.59 1676.8 694.97 1676.8 704.49 1672.68 702.11 1672.68 692.59"/><path class="cls-2" d="M1674.54,698.54h0a46.51,46.51,0,0,0-21.9,51.46l21.08,85.26c5.64,22.79,29.43,35,49.9,23.5l2-1"/><path class="cls-2" d="M1766.34,786.58l4.43,12.06a35.81,35.81,0,0,1-25.34,47.18h0"/><path class="cls-5" d="M868.79,957.29V1000l25.82-14.91a22.27,22.27,0,0,0,11.13-19.28V936"/><ellipse class="cls-5" cx="860.66" cy="969.06" rx="24.01" ry="32.46" transform="translate(-138.17 143.14) rotate(-8.8)"/><ellipse class="cls-5" cx="860.66" cy="969.06" rx="13.34" ry="18.03" transform="matrix(0.99, -0.15, 0.15, 0.99, -138.17, 143.14)"/><path class="cls-5" d="M1016.52,1042.58v42.66l25.82-14.9a22.27,22.27,0,0,0,11.13-19.28v-29.81"/><ellipse class="cls-5" cx="1008.39" cy="1054.35" rx="24.01" ry="32.46" transform="translate(-149.49 166.75) rotate(-8.8)"/><ellipse class="cls-5" cx="1008.39" cy="1054.35" rx="13.34" ry="18.03" transform="translate(-149.49 166.75) rotate(-8.8)"/><path class="cls-5" d="M839.38,803.64h0a73.88,73.88,0,0,0-37,64V910.3l37,21.33h0a35.24,35.24,0,0,1,50.91,19l4.51,13L987.17,1017h0a35.23,35.23,0,0,1,50.91,19l4.51,13,73.89,42.66,110.84-64,18.47-32"/><path class="cls-5" d="M802.43,867.64l332.52,192,110.84-64h0a73.9,73.9,0,0,0-37-64L1171.9,910.3"/><path class="cls-5" d="M1116.48,1091.63l18.47-32h0a73.89,73.89,0,0,0-37-64l-36.94-21.33"/><path class="cls-5" d="M839.38,889h0c0-28.44,30.79-46.22,55.42-32l73.89,42.66a110.88,110.88,0,0,1,55.42,96h0"/><path class="cls-5" d="M1098,1022.69h0l10.58,7.1a34.33,34.33,0,0,0,34.27,2.31h0a34.26,34.26,0,0,0,19.14-30.74h0l-36.94,21.33-13.53-7.81A9,9,0,0,0,1098,1022.69Z"/><path class="cls-5" d="M1071,809.35l-83.64-48.29a74.17,74.17,0,0,0-74.2,0l-73.74,42.58,120.74,69.71A275.87,275.87,0,0,1,1061,974.25a.05.05,0,0,0,.08,0l110.79-64h0A275.86,275.86,0,0,0,1071,809.35Z"/><line class="cls-5" x1="931.74" y1="878.3" x2="931.74" y2="984.97"/><line class="cls-5" x1="1015.38" y1="915.34" x2="1126.22" y2="851.35"/><line class="cls-5" x1="1125.62" y1="1075.84" x2="1236.46" y2="1011.84"/><line class="cls-5" x1="802.43" y1="867.64" x2="1134.95" y2="1059.63"/><line class="cls-5" x1="1235.89" y1="958.68" x2="1125.06" y2="1022.69"/><path class="cls-5" d="M1235.89,958.68,1199.44,980h0a34.27,34.27,0,0,0,36.19-1.49h0a34.53,34.53,0,0,0,6.52-5.79A79.67,79.67,0,0,0,1235.89,958.68Z"/></svg>