<svg id="Final_Illustrations_copy" data-name="Final Illustrations copy" xmlns="http://www.w3.org/2000/svg" viewBox="0 0 2000 2000"><defs><style>.cls-1,.cls-2{fill:none;}.cls-1,.cls-2,.cls-3,.cls-4{stroke:#057adc;stroke-miterlimit:10;}.cls-1{stroke-width:2px;}.cls-2{stroke-dasharray:24;}.cls-3,.cls-4{fill:#181d28;stroke-width:3px;}.cls-4{stroke-linecap:round;}</style></defs><line class="cls-1" x1="400.78" y1="1609.6" x2="1028.53" y2="1972.07"/><line class="cls-2" x1="1256.81" y1="1115.33" x2="1884.57" y2="1477.8"/><line class="cls-1" x1="914.4" y1="1313.04" x2="1542.15" y2="1675.51"/><line class="cls-2" x1="971.47" y1="1939.12" x2="1884.57" y2="1411.89"/><line class="cls-2" x1="914.4" y1="1906.17" x2="1827.5" y2="1378.94"/><line class="cls-2" x1="859.36" y1="1873.22" x2="1770.43" y2="1345.94"/><line class="cls-2" x1="686.09" y1="1774.36" x2="1599.49" y2="1247.29"/><line class="cls-2" x1="629.05" y1="1741.41" x2="1542.23" y2="1214.23"/><line class="cls-2" x1="571.95" y1="1708.46" x2="1485.01" y2="1181.28"/><line class="cls-2" x1="514.86" y1="1675.51" x2="1428.01" y2="1148.29"/><line class="cls-2" x1="457.84" y1="1642.55" x2="1371.03" y2="1115.28"/><line class="cls-2" x1="457.85" y1="1576.65" x2="1085.6" y2="1939.12"/><line class="cls-2" x1="514.92" y1="1543.8" x2="1142.67" y2="1906.27"/><line class="cls-2" x1="571.98" y1="1510.75" x2="1199.74" y2="1873.22"/><line class="cls-2" x1="629.05" y1="1477.8" x2="1256.81" y2="1840.26"/><line class="cls-2" x1="686.12" y1="1444.85" x2="1313.88" y2="1807.31"/><line class="cls-2" x1="743.19" y1="1411.89" x2="1370.95" y2="1774.36"/><line class="cls-2" x1="800.26" y1="1378.94" x2="1428.02" y2="1741.41"/><line class="cls-2" x1="857.33" y1="1347.66" x2="1485.08" y2="1710.13"/><line class="cls-2" x1="971.47" y1="1280.09" x2="1599.22" y2="1642.55"/><line class="cls-2" x1="1028.53" y1="1247.14" x2="1656.29" y2="1609.6"/><line class="cls-2" x1="1085.6" y1="1214.18" x2="1713.36" y2="1576.65"/><line class="cls-2" x1="1142.67" y1="1181.23" x2="1770.43" y2="1543.7"/><line class="cls-2" x1="1199.74" y1="1148.28" x2="1827.5" y2="1510.75"/><line class="cls-1" x1="1313.88" y1="1082.38" x2="1941.64" y2="1444.85"/><polygon class="cls-3" points="58.37 752.86 58.37 1609.6 1313.88 884.67 1313.88 27.93 58.37 752.86"/><path class="cls-3" d="M1428,950.57h0a342.44,342.44,0,0,1-97.84-84.73l-66.28-84.2c-80.53-102.29-241.11-81.43-292.83,38l-32.24,74.47c-37.74,87.17-153.6,105-215.78,33.17L684,872.05c-122.73-107.51-242.4-75.51-307.82,15.75-20.94,29.2-34.46,63.05-40.8,98.42L249.7,1464.3a652.7,652.7,0,0,1-77.2,211.21h0l57.07,33"/><path class="cls-3" d="M232.9,1710.52l-3.33-2.06a652.7,652.7,0,0,0,77.2-211.21l85.59-477.71c5.8-32.41,17.5-63.62,35.41-91.25C495,824.64,616.5,804.77,707.05,890.83l73.07,69.43c62.19,71.81,178,54,215.78-33.17l32.24-74.46c51.73-119.47,212.31-140.32,292.83-38l66.28,84.19a342.25,342.25,0,0,0,97.83,84.73h0Z"/><polyline class="cls-3" points="1599.22 258.59 1569.35 241.34 1456.56 308.02 1460.14 1100.93 1485.09 1115.33"/><line class="cls-3" x1="1456.56" y1="308.02" x2="1485.08" y2="324.49"/><path class="cls-3" d="M1485.08,324.49l114.13-65.89h0v790.82L1485,1115.28h0Z"/><polyline class="cls-3" points="1428.01 423.25 1398.14 406 1285.34 472.68 1288.63 1199.61 1313.8 1214.23"/><line class="cls-3" x1="1285.34" y1="472.68" x2="1313.87" y2="489.15"/><path class="cls-3" d="M1313.87,489.15,1428,423.26h0v725l-114.19,65.93h0Z"/><polyline class="cls-3" points="1256.8 588.34 1226.93 571.09 1114.14 637.77 1117.12 1298.29 1142.6 1313.08"/><line class="cls-3" x1="1114.14" y1="637.77" x2="1142.67" y2="654.24"/><path class="cls-3" d="M1142.67,654.24l114.12-65.89h0v658.78l-114.18,65.93h0Z"/><polyline class="cls-3" points="629.05 1082.16 599.17 1064.91 486.38 1131.58 488.77 1660.41 514.86 1675.54"/><line class="cls-3" x1="486.38" y1="1131.58" x2="514.91" y2="1148.06"/><path class="cls-3" d="M514.91,1148.06,629,1082.16h0v527.44l-114.18,65.92h0Z"/><polyline class="cls-3" points="457.84 1313.64 427.97 1296.39 315.17 1363.06 316.96 1757.88 343.66 1774.34"/><line class="cls-3" x1="315.17" y1="1363.06" x2="343.7" y2="1379.54"/><path class="cls-3" d="M343.7,1379.54l114.12-65.9h0v394.81l-114.16,65.87h0Z"/><polyline class="cls-3" points="800.25 1247.71 770.38 1230.47 657.58 1297.14 658.78 1560.85 686.09 1576.65"/><line class="cls-3" x1="657.58" y1="1297.14" x2="686.11" y2="1313.62"/><path class="cls-3" d="M686.11,1313.62l114.12-65.9h0v263L686.1,1576.64s0,0,0,0Z"/><path class="cls-3" d="M1652.05,1277.8c-22.35-374.65-244.76-560.41-496.76-414.91S717.12,1430.05,739.47,1804.7l61.31,35"/><path class="cls-3" d="M800.78,1839.69C778.43,1465,964.6,1043.38,1216.6,897.88S1691,938.15,1713.36,1312.8Z"/><polygon class="cls-3" points="1219.76 951.46 1231.99 944.4 1237.57 1038.02 1225.35 1045.08 1219.76 951.46"/><polygon class="cls-3" points="1113.03 1037.45 1124.56 1025.92 1146.26 1106.94 1134.72 1118.47 1113.03 1037.45"/><polygon class="cls-3" points="1016.52 1159.75 1026.57 1144.55 1062.89 1207.45 1052.85 1222.65 1016.52 1159.75"/><polygon class="cls-3" points="936.81 1310.03 944.69 1292.18 993.17 1332.67 985.29 1350.52 936.81 1310.03"/><polygon class="cls-3" points="879.33 1478.04 884.5 1458.77 941.83 1474.09 936.66 1493.36 879.33 1478.04"/><polygon class="cls-3" points="847.99 1652.34 850.11 1632.95 912.38 1622.06 910.27 1641.45 847.99 1652.34"/><polygon class="cls-3" points="1655.63 1167.87 1659.84 1183.61 1600.46 1242.96 1596.24 1227.22 1655.63 1167.87"/><polygon class="cls-3" points="1603.43 1043.68 1610.49 1055.89 1558.74 1134.19 1551.69 1121.98 1603.43 1043.68"/><polygon class="cls-3" points="1528.04 955.38 1537.45 963.24 1496.87 1055.15 1487.46 1047.29 1528.04 955.38"/><polygon class="cls-3" points="1528.04 955.38 1537.45 963.24 1496.87 1055.15 1487.46 1047.29 1528.04 955.38"/><polygon class="cls-3" points="1434.58 908.97 1445.72 911.95 1419.07 1011.21 1407.93 1008.23 1434.58 908.97"/><polygon class="cls-3" points="1329.44 907.64 1341.53 905.52 1330.63 1005.37 1318.53 1007.48 1329.44 907.64"/><line class="cls-3" x1="1171.55" y1="984.8" x2="1180.72" y2="1043.51"/><line class="cls-3" x1="1068.51" y1="1087.79" x2="1088.01" y2="1136.18"/><line class="cls-3" x1="978.72" y1="1223.66" x2="1007.23" y2="1258.42"/><line class="cls-3" x1="908.3" y1="1383.15" x2="943.87" y2="1401.92"/><line class="cls-3" x1="862.05" y1="1555.4" x2="902.26" y2="1556.89"/><line class="cls-3" x1="843.13" y1="1728.65" x2="885.24" y2="1712.77"/><line class="cls-3" x1="1673.18" y1="1249.41" x2="1632.04" y2="1281.59"/><line class="cls-3" x1="1635.53" y1="1108.82" x2="1598.17" y2="1155.09"/><line class="cls-3" x1="1572.5" y1="999.67" x2="1541.46" y2="1056.89"/><line class="cls-3" x1="1488.38" y1="929.4" x2="1465.77" y2="993.67"/><line class="cls-3" x1="1388.89" y1="902.81" x2="1376.27" y2="969.75"/><line class="cls-3" x1="1280.83" y1="921.71" x2="1279.04" y2="986.75"/><line class="cls-4" x1="1301.29" y1="1477.1" x2="1449.62" y2="984.8"/><path class="cls-3" d="M1237.84,1516.79c-2.8-46.83,20.47-99.54,52-117.72s59.31,5,62.1,51.86Z"/></svg>