<svg id="Final_Illustrations_copy" data-name="Final Illustrations copy" xmlns="http://www.w3.org/2000/svg" viewBox="0 0 2000 1154.53"><defs><style>.cls-1,.cls-2,.cls-3{fill:none;}.cls-1,.cls-2,.cls-3,.cls-4{stroke:#057adc;stroke-miterlimit:10;}.cls-1,.cls-2,.cls-4{stroke-width:2px;}.cls-1{stroke-dasharray:24;}.cls-3{stroke-width:4px;}.cls-4{fill:#181d28;}</style></defs><line class="cls-1" x1="1823.61" y1="678.2" x2="824.36" y2="101.23"/><line class="cls-1" x1="1504.57" y1="862.76" x2="505.41" y2="285.51"/><line class="cls-1" x1="1184.51" y1="1046.04" x2="186.28" y2="469.66"/><polygon class="cls-2" points="973.35 15.33 983.88 9.24 1983.63 586.44 1972.49 592.23 973.35 15.33"/><polygon class="cls-2" points="654.77 199.28 664.78 193.46 1653.45 776.8 1642.82 782.94 654.77 199.28"/><polygon class="cls-2" points="335.17 383.69 345.8 377.67 1345.55 954.87 1335.04 961.02 335.17 383.69"/><polygon class="cls-2" points="16.37 568.03 26.76 561.86 1026.01 1138.77 1016.01 1145.22 16.37 568.03"/><line class="cls-3" x1="764.49" y1="459.67" x2="870.84" y2="521.08"/><line class="cls-3" x1="700.68" y1="447.39" x2="850.59" y2="533.36"/><line class="cls-3" x1="807.03" y1="435.11" x2="913.38" y2="496.52"/><line class="cls-3" x1="743.22" y1="422.83" x2="892.11" y2="508.8"/><path class="cls-4" d="M968.82,637.88v41.43l25.07-14.47a21.62,21.62,0,0,0,10.81-18.72v-29"/><ellipse class="cls-4" cx="960.92" cy="649.31" rx="23.32" ry="31.52" transform="matrix(0.99, -0.15, 0.15, 0.99, -88.06, 154.72)"/><ellipse class="cls-4" cx="960.92" cy="649.31" rx="12.96" ry="17.51" transform="translate(-88.06 154.72) rotate(-8.8)"/><path class="cls-4" d="M1148.63,741v41.43L1173.7,768a21.6,21.6,0,0,0,10.81-18.72V720.32"/><ellipse class="cls-4" cx="1140.73" cy="752.47" rx="23.32" ry="31.52" transform="matrix(0.99, -0.15, 0.15, 0.99, -101.73, 183.45)"/><ellipse class="cls-4" cx="1140.73" cy="752.47" rx="12.96" ry="17.51" transform="translate(-101.73 183.45) rotate(-8.8)"/><path class="cls-4" d="M1011.5,653.73l-16.71-9.65-5-13.58a34.8,34.8,0,0,0-50.09-18.2h0l-35.88-20.72V549.71a71,71,0,0,1,35.5-61.49L976,467.08a71,71,0,0,1,71,0l72.12,41.64"/><path class="cls-4" d="M1298.53,612l35.88,20.71a71.77,71.77,0,0,1,35.88,62.15h0l-107.64,62.43L903.86,549.71"/><path class="cls-4" d="M1370.29,694.88l-18.58,31.48L1245.78,789l-70.36-40.63-5.57-14.53a35.37,35.37,0,0,0-50.71-18h0L1011.5,653.73v-41.2a72.18,72.18,0,0,1,36.08-62.5L1119,508.82a72.12,72.12,0,0,1,72.11,0l9.65,5.57A267.93,267.93,0,0,1,1298.53,612h0l-107.64,62.14h0a267.91,267.91,0,0,0-97.81-97.62l-45.7-26.39"/><path class="cls-4" d="M1190.89,674.16l35.94,20.9a72,72,0,0,1,35.82,62.25h0L1245.78,789"/><line class="cls-4" x1="1253.08" y1="721.44" x2="1360.68" y2="659.02"/><line class="cls-4" x1="1146.59" y1="617.16" x2="1254.23" y2="555.01"/><line class="cls-4" x1="1253.63" y1="773.35" x2="1360.68" y2="711.54"/><path class="cls-4" d="M1047.84,633V613a24.25,24.25,0,0,1,36.43-21h0a106.14,106.14,0,0,1,52.81,91.76v.85Z"/><line class="cls-4" x1="1083.26" y1="591.48" x2="1083.26" y2="695.17"/><line class="cls-4" x1="913.38" y1="514.21" x2="1021.17" y2="576.45"/><line class="cls-4" x1="1011.5" y1="612.53" x2="1262.65" y2="757.31"/><line class="cls-4" x1="1262.65" y1="757.31" x2="1370.29" y2="694.88"/><path class="cls-4" d="M1226.77,721.36h0l10.28,6.9a33.33,33.33,0,0,0,33.28,2.24h0a33.26,33.26,0,0,0,18.59-29.85h0L1253,721.36l-13.13-7.58A8.76,8.76,0,0,0,1226.77,721.36Z"/><path class="cls-4" d="M1360.67,659.21l-35.39,20.69h0a33.26,33.26,0,0,0,35.14-1.45h0a33.21,33.21,0,0,0,6.33-5.62A77.73,77.73,0,0,0,1360.67,659.21Z"/><path class="cls-4" d="M645.78,316.29h54.55s-11.6,24.92,26.64,43.39c-13.32,0-44.68-4.73-44.68-4.73S652.22,346.79,645.78,316.29Z"/><path class="cls-4" d="M532.59,498.12,582.13,477s12.61,65.34,77.07,74.24c-16.2,1-47.23-1.56-47.23-1.56S559.39,546.52,532.59,498.12Z"/><path class="cls-4" d="M635,435.35c-3.76,10.69-8.58,22.89-13.07,29.76,7.58,6.28,63.42,41.71,63.42,41.71s11.71-27.16,11-43c-6.11-9.68-37.06-45.71-66-63.56l.26.39A38.94,38.94,0,0,1,635,435.35Z"/><path class="cls-4" d="M781.31,359.15l34.37-36.08s18,58.85,82.05,44.24a256.58,256.58,0,0,0-15.47,24.49S822.55,414.14,781.31,359.15Z"/><path class="cls-4" d="M712.55,264.81l21.91-55S784.3,226.56,792,267c-5.16,4.73-55.85,53.27-55.85,53.27S755.93,299.18,712.55,264.81Z"/><path class="cls-4" d="M482.56,345.72l20.19,89.35s30.07,6.44,52.84-7.31c-6-17.18-31.79-89.78-31.79-89.78S500.61,350.87,482.56,345.72Z"/><path class="cls-4" d="M626.49,340.94s19.33,35.22,28.78,51.54c-35.66-22.33-62.29-3.43-62.29-3.43l-21.91-56.28S609.41,310.09,626.49,340.94Z"/><path class="cls-4" d="M740.68,224.1S825.31,288,843.35,197c-5,7.83-18.47,43.82-53.69,4.73C783.64,205.2,740.68,224.1,740.68,224.1Z"/><path class="cls-4" d="M569.38,273.72l1.43-61.28s40.09-10.6,77.61,12.31c-1.43,3.66-14.61,51-14.61,51S588.28,265.42,569.38,273.72Z"/><path class="cls-4" d="M502.14,369.36l-.79-49.83s-53.17,31-90.31-23.11a256.24,256.24,0,0,1-5.24,28.48S434.54,381.81,502.14,369.36Z"/><path class="cls-4" d="M651.69,466.74l-35.26-41.63s-11.52,25-50.32,7.72c8.61,10.16,32.48,31,32.48,31S624.25,481.54,651.69,466.74Z"/></svg>