<svg id="Final_Illustrations_copy" data-name="Final Illustrations copy" xmlns="http://www.w3.org/2000/svg" viewBox="0 0 2000 2000"><defs><style>.cls-1,.cls-2{fill:none;stroke-width:2px;}.cls-1,.cls-2,.cls-3,.cls-4{stroke:#057adc;stroke-miterlimit:10;}.cls-2{stroke-dasharray:24;}.cls-3,.cls-4{fill:#181d28;stroke-width:4px;}.cls-4{stroke-linecap:round;}</style></defs><line class="cls-1" x1="522.41" y1="1485.87" x2="1022.74" y2="1774.76"/><line class="cls-2" x1="1204.68" y1="1091.92" x2="1705.02" y2="1380.82"/><line class="cls-1" x1="931.77" y1="1249.5" x2="1432.11" y2="1538.39"/><line class="cls-2" x1="977.26" y1="1748.5" x2="1705.02" y2="1328.29"/><line class="cls-2" x1="931.77" y1="1722.24" x2="1659.53" y2="1302.03"/><line class="cls-2" x1="887.91" y1="1695.97" x2="1614.05" y2="1275.72"/><line class="cls-2" x1="749.8" y1="1617.18" x2="1477.81" y2="1197.1"/><line class="cls-2" x1="704.35" y1="1590.92" x2="1432.17" y2="1170.75"/><line class="cls-2" x1="658.84" y1="1564.66" x2="1386.56" y2="1144.48"/><line class="cls-2" x1="613.33" y1="1538.39" x2="1341.13" y2="1118.19"/><line class="cls-2" x1="567.89" y1="1512.13" x2="1295.72" y2="1091.88"/><line class="cls-2" x1="567.89" y1="1459.6" x2="1068.23" y2="1748.5"/><line class="cls-2" x1="613.38" y1="1433.42" x2="1113.71" y2="1722.32"/><line class="cls-2" x1="658.86" y1="1407.08" x2="1159.2" y2="1695.97"/><line class="cls-2" x1="704.35" y1="1380.82" x2="1204.68" y2="1669.71"/><line class="cls-2" x1="749.83" y1="1354.55" x2="1250.17" y2="1643.45"/><line class="cls-2" x1="795.32" y1="1328.29" x2="1295.65" y2="1617.18"/><line class="cls-2" x1="840.8" y1="1302.03" x2="1341.14" y2="1590.92"/><line class="cls-2" x1="886.29" y1="1277.09" x2="1386.62" y2="1565.99"/><line class="cls-2" x1="977.26" y1="1223.24" x2="1477.59" y2="1512.13"/><line class="cls-2" x1="1022.74" y1="1196.97" x2="1523.08" y2="1485.87"/><line class="cls-2" x1="1068.23" y1="1170.71" x2="1568.56" y2="1459.6"/><line class="cls-2" x1="1113.71" y1="1144.45" x2="1614.05" y2="1433.34"/><line class="cls-2" x1="1159.2" y1="1118.18" x2="1659.53" y2="1407.08"/><line class="cls-1" x1="1250.17" y1="1065.66" x2="1750.5" y2="1354.55"/><polygon class="cls-3" points="249.5 803.03 249.5 1485.87 1250.17 908.08 1250.17 225.24 249.5 803.03"/><path class="cls-3" d="M1341.14,960.61h0a272.94,272.94,0,0,1-78-67.54L1210.33,826c-64.18-81.52-192.17-64.9-233.39,30.32l-25.69,59.34c-30.09,69.48-122.43,83.68-172,26.44l-31.14-44c-97.82-85.69-193.2-60.18-245.34,12.55a190.57,190.57,0,0,0-32.36,77.59L402,1370.05a520.16,520.16,0,0,1-61.52,168.34h0l-.82,1.45,46.3,24.82"/><path class="cls-3" d="M388.6,1566.3l-2.65-1.64a520.18,520.18,0,0,0,61.53-168.34l68.21-380.74a197.55,197.55,0,0,1,28.23-72.74c53.56-82.61,150.42-98.44,222.6-29.85l58.23,55.34c49.56,57.23,141.9,43,172-26.44l25.7-59.35c41.23-95.21,169.21-111.84,233.39-30.31l52.83,67.11a273,273,0,0,0,78,67.53h0Z"/><polyline class="cls-3" points="1477.59 409.08 1453.79 395.33 1363.89 448.48 1366.74 1080.44 1386.62 1091.92"/><line class="cls-3" x1="1363.89" y1="448.47" x2="1386.62" y2="461.61"/><path class="cls-3" d="M1386.62,461.61l91-52.52h0v630.3l-91,52.49s0,0,0,0Z"/><polyline class="cls-3" points="1341.13 540.32 1317.32 526.57 1227.43 579.71 1230.05 1159.09 1250.11 1170.74"/><line class="cls-3" x1="1227.43" y1="579.71" x2="1250.16" y2="592.84"/><path class="cls-3" d="M1250.16,592.84l91-52.52h0v577.86l-91,52.55h0Z"/><polyline class="cls-3" points="1204.68 671.9 1180.87 658.15 1090.97 711.29 1093.35 1237.74 1113.66 1249.53"/><line class="cls-3" x1="1090.97" y1="711.29" x2="1113.71" y2="724.42"/><path class="cls-3" d="M1113.71,724.42l91-52.52h0V1197l-91,52.54h0Z"/><polyline class="cls-3" points="704.34 1065.48 680.53 1051.73 590.63 1104.88 592.54 1526.36 613.33 1538.42"/><line class="cls-3" x1="590.63" y1="1104.88" x2="613.37" y2="1118.01"/><path class="cls-3" d="M613.37,1118l91-52.52h0v420.38l-91,52.54h0Z"/><polyline class="cls-3" points="567.89 1249.97 544.08 1236.23 454.18 1289.37 455.6 1604.05 476.89 1617.16"/><line class="cls-3" x1="454.18" y1="1289.37" x2="476.92" y2="1302.5"/><path class="cls-3" d="M476.92,1302.5,567.87,1250h0v314.67l-91,52.5h0Z"/><polyline class="cls-3" points="840.79 1197.43 816.99 1183.69 727.09 1236.83 728.04 1447.01 749.8 1459.61"/><line class="cls-3" x1="727.09" y1="1236.83" x2="749.82" y2="1249.96"/><path class="cls-3" d="M749.82,1250l91-52.52h0v209.61l-91,52.54h0Z"/><path class="cls-3" d="M1519.69,1221.42c-17.81-298.61-195.07-446.67-395.92-330.7s-349.23,452-331.42,750.64l48.87,27.9"/><path class="cls-3" d="M841.22,1669.26c-17.82-298.61,130.57-634.68,331.42-750.65s378.11,32.1,395.92,330.7Z"/><polygon class="cls-3" points="1175.15 961.31 1184.9 955.68 1189.35 1030.3 1179.61 1035.93 1175.15 961.31"/><polygon class="cls-3" points="1090.09 1029.85 1099.28 1020.66 1116.57 1085.24 1107.38 1094.42 1090.09 1029.85"/><polygon class="cls-3" points="1013.17 1127.33 1021.18 1115.21 1050.13 1165.34 1042.12 1177.46 1013.17 1127.33"/><polygon class="cls-3" points="949.64 1247.1 955.92 1232.88 994.55 1265.15 988.27 1279.37 949.64 1247.1"/><polygon class="cls-3" points="903.82 1381.01 907.95 1365.65 953.64 1377.86 949.51 1393.22 903.82 1381.01"/><polygon class="cls-3" points="878.85 1519.93 880.53 1504.47 930.17 1495.8 928.48 1511.25 878.85 1519.93"/><polygon class="cls-3" points="1522.55 1133.8 1525.91 1146.34 1478.58 1193.64 1475.22 1181.1 1522.55 1133.8"/><polygon class="cls-3" points="1480.95 1034.82 1486.57 1044.55 1445.33 1106.95 1439.71 1097.22 1480.95 1034.82"/><polygon class="cls-3" points="1420.86 964.43 1428.36 970.7 1396.02 1043.95 1388.52 1037.69 1420.86 964.43"/><polygon class="cls-3" points="1420.86 964.43 1428.36 970.7 1396.02 1043.95 1388.52 1037.69 1420.86 964.43"/><polygon class="cls-3" points="1346.37 927.45 1355.25 929.82 1334.01 1008.93 1325.13 1006.56 1346.37 927.45"/><polygon class="cls-3" points="1262.57 926.38 1272.21 924.7 1263.52 1004.28 1253.88 1005.96 1262.57 926.38"/><line class="cls-3" x1="1136.73" y1="987.88" x2="1144.04" y2="1034.68"/><line class="cls-3" x1="1054.6" y1="1069.97" x2="1070.15" y2="1108.54"/><line class="cls-3" x1="983.04" y1="1178.26" x2="1005.76" y2="1205.97"/><line class="cls-3" x1="926.91" y1="1305.38" x2="955.26" y2="1320.34"/><line class="cls-3" x1="890.05" y1="1442.66" x2="922.1" y2="1443.85"/><line class="cls-3" x1="874.97" y1="1580.75" x2="908.53" y2="1568.09"/><line class="cls-3" x1="1536.54" y1="1198.79" x2="1503.75" y2="1224.43"/><line class="cls-3" x1="1506.53" y1="1086.73" x2="1476.76" y2="1123.61"/><line class="cls-3" x1="1456.3" y1="999.73" x2="1431.56" y2="1045.34"/><line class="cls-3" x1="1389.25" y1="943.73" x2="1371.23" y2="994.96"/><line class="cls-3" x1="1309.96" y1="922.54" x2="1299.89" y2="975.89"/><line class="cls-3" x1="1223.83" y1="937.6" x2="1222.4" y2="989.44"/><line class="cls-4" x1="1240.14" y1="1380.26" x2="1358.36" y2="987.88"/><path class="cls-3" d="M1189.56,1411.9c-2.23-37.33,16.32-79.34,41.43-93.83s47.26,4,49.49,41.33Z"/></svg>