<svg id="Final_Illustrations_copy" data-name="Final Illustrations copy" xmlns="http://www.w3.org/2000/svg" viewBox="0 0 2000 1668.84"><defs><style>.cls-1,.cls-2,.cls-3,.cls-5{fill:none;}.cls-1,.cls-2,.cls-6,.cls-7{stroke:#057adc;}.cls-1,.cls-2,.cls-3,.cls-4,.cls-5,.cls-6,.cls-7{stroke-miterlimit:10;}.cls-2{stroke-dasharray:8;}.cls-3,.cls-4,.cls-5{stroke:#13c14a;}.cls-3{stroke-width:3px;}.cls-4,.cls-6,.cls-7{fill:#181d28;}.cls-7{stroke-width:0.75px;}</style></defs><polyline class="cls-1" points="1424.73 250.28 1106.07 434.25 1331.01 564.14 1068.59 715.67 1574.69 1007.89 1762.24 899.72 1537.2 769.78 1762.14 639.9"/><polyline class="cls-1" points="956.12 1083.66 1368.5 1321.76 993.61 1538.23 581.23 1300.12 956.12 1083.66"/><polygon class="cls-1" points="656.21 1170.22 318.8 975.34 543.67 845.51 881.13 1040.36 656.21 1170.22"/><polyline class="cls-1" points="1668.42 1408.56 1349.76 1224.33 1837.12 942.93 1912.12 986.25"/><polyline class="cls-1" points="1986.94 942.87 1687.16 769.79 1837.12 683.2"/><polyline class="cls-1" points="356.29 1429.99 506.25 1343.41 749.93 1484.11 599.97 1570.7"/><polyline class="cls-1" points="1593.4 1451.64 1443.48 1365.13 993.61 1624.82 824.91 1527.41 674.95 1613.99"/><polyline class="cls-1" points="93.86 1018.77 468.75 802.31 243.82 672.4 656.23 434.26 506.26 347.68"/><polyline class="cls-1" points="281.31 1386.7 581.23 1213.33 243.82 1018.63 168.84 1061.97"/><polyline class="cls-1" points="1348.83 207.53 1031.09 390.96 881.14 304.39 731.21 390.97 581.23 304.38"/><polygon class="cls-1" points="881.14 390.97 1181.06 564.14 693.75 845.51 393.83 672.37 881.14 390.97"/><polygon class="cls-1" points="993.61 759.39 769.39 888.85 1274.78 1180.6 1499.71 1051.25 993.61 759.39"/><line class="cls-2" x1="487.5" y1="834.72" x2="131.35" y2="1040.36"/><line class="cls-2" x1="1799.62" y1="921.31" x2="1312.26" y2="1202.71"/><polyline class="cls-2" points="1630.92 1429.99 318.8 672.38 881.11 347.68 1256.03 564.14 731.18 867.19"/><polyline class="cls-2" points="1387.24 1354.23 993.61 1581.52 543.74 1321.76"/><line class="cls-2" x1="1387.24" y1="228.63" x2="1068.58" y2="412.62"/><line class="cls-2" x1="1537.2" y1="1029.54" x2="1031.1" y2="737.31"/><polyline class="cls-2" points="1949.59 964.6 1612.18 769.78 1799.81 661.45"/><line class="cls-2" x1="693.69" y1="412.62" x2="543.74" y2="326.03"/><line class="cls-2" x1="918.71" y1="1062.01" x2="318.8" y2="1408.35"/><line class="cls-2" x1="618.72" y1="1191.89" x2="281.31" y2="997.07"/><line class="cls-2" x1="787.46" y1="1505.76" x2="637.46" y2="1592.35"/><polyline class="cls-3" points="646.83 1597.76 824.91 1494.93 993.61 1592.34 1462.23 1321.76 956.12 1029.54 656.21 1202.67 262.57 975.42 543.74 813.08 693.69 899.66 1274.78 564.14 1049.84 434.26 1396.47 234.12"/><polyline class="cls-3" points="1377.88 223.21 1012.35 434.26 1237.29 564.14 693.69 878.01 543.74 791.43 225.08 975.42 656.21 1224.36 956.12 1051.18 1424.74 1321.76 993.61 1570.7 824.91 1473.29 628.09 1586.93"/><polygon class="cls-1" points="259.61 646.28 270.7 639.88 281.78 646.28 270.7 652.67 259.61 646.28"/><polyline class="cls-1" points="303.95 812.7 281.78 735.91 281.78 646.28 270.7 633.48 259.61 646.28 259.61 735.91 237.44 812.7"/><line class="cls-1" x1="270.7" y1="633.48" x2="270.7" y2="831.9"/><polygon class="cls-1" points="259.61 659.11 270.7 652.71 281.78 659.11 270.7 665.51 259.61 659.11"/><polygon class="cls-1" points="259.61 735.91 270.7 729.51 281.78 735.91 270.7 742.31 259.61 735.91"/><polygon class="cls-1" points="259.61 671.91 270.7 665.51 281.78 671.91 270.7 678.31 259.61 671.91"/><polygon class="cls-1" points="259.61 684.78 270.7 678.39 281.78 684.78 270.7 691.18 259.61 684.78"/><polygon class="cls-1" points="259.61 697.51 270.7 691.11 281.78 697.51 270.7 703.91 259.61 697.51"/><polygon class="cls-1" points="259.61 710.31 270.7 703.91 281.78 710.31 270.7 716.71 259.61 710.31"/><polygon class="cls-1" points="259.61 723.11 270.7 716.71 281.78 723.11 270.7 729.51 259.61 723.11"/><polygon class="cls-1" points="270.7 742.31 254.99 751.91 270.7 761.51 286.4 751.91 270.7 742.31"/><polygon class="cls-1" points="281.78 659.11 276.24 649.48 270.7 665.51 265.09 649.48 259.61 659.11 265.15 643.11 270.7 652.71 276.24 643.08 281.78 659.11"/><polygon class="cls-1" points="281.78 671.91 276.24 662.27 270.7 678.31 265.09 662.27 259.61 671.91 265.15 655.91 270.7 665.51 276.24 655.88 281.78 671.91"/><polygon class="cls-1" points="281.78 684.73 276.24 675.09 270.7 691.13 265.09 675.09 259.61 684.73 265.15 668.73 270.7 678.33 276.24 668.69 281.78 684.73"/><polygon class="cls-1" points="281.78 697.53 276.24 687.89 270.7 703.93 265.09 687.89 259.61 697.53 265.15 681.53 270.7 691.13 276.24 681.49 281.78 697.53"/><polygon class="cls-1" points="281.78 710.33 276.24 700.69 270.7 716.73 265.09 700.69 259.61 710.33 265.15 694.33 270.7 703.93 276.24 694.29 281.78 710.33"/><polygon class="cls-1" points="281.78 723.13 276.24 713.49 270.7 729.53 265.09 713.49 259.61 723.13 265.15 707.13 270.7 716.73 276.24 707.09 281.78 723.13"/><polygon class="cls-1" points="281.78 735.93 276.24 726.29 270.7 742.33 265.09 726.29 259.61 735.93 265.15 719.93 270.7 729.53 276.24 719.89 281.78 735.93"/><polygon class="cls-1" points="270.7 761.51 248.53 774.31 270.7 787.11 292.86 774.31 270.7 761.51"/><polygon class="cls-1" points="286.4 751.91 276.24 739.11 270.7 761.51 265.15 739.11 254.99 751.91 265.19 732.69 270.7 742.33 276.27 732.69 286.4 751.91"/><polygon class="cls-1" points="292.86 774.31 279.01 756.71 270.7 787.11 262.38 756.71 248.53 774.31 262.86 747.1 270.7 761.51 278.53 747.1 292.86 774.31"/><polygon class="cls-1" points="302.36 807.22 281.78 780.71 270.7 825.5 259.61 780.71 239.03 807.22 259.61 767.91 270.7 787.11 281.78 767.91 302.36 807.22"/><polyline class="cls-1" points="231.9 812.44 231.9 813.28 237.44 816.48 242.99 813.28 242.99 812.44"/><polygon class="cls-1" points="237.44 809.24 231.9 812.44 231.9 812.44 237.44 815.64 242.99 812.44 242.99 812.44 237.44 809.24"/><line class="cls-1" x1="237.44" y1="816.48" x2="237.44" y2="815.64"/><polyline class="cls-1" points="298.4 812.28 298.4 813.12 303.95 816.32 309.49 813.12 309.49 812.28"/><polygon class="cls-1" points="303.95 809.08 298.41 812.28 298.41 812.28 303.95 815.48 309.49 812.28 309.49 812.28 303.95 809.08"/><line class="cls-1" x1="303.95" y1="816.32" x2="303.95" y2="815.48"/><polyline class="cls-1" points="265.15 831.48 265.15 832.32 270.7 835.52 276.24 832.32 276.24 831.48"/><polygon class="cls-1" points="270.7 828.28 265.15 831.48 265.15 831.48 270.7 834.68 276.24 831.48 276.24 831.48 270.7 828.28"/><line class="cls-1" x1="270.7" y1="835.52" x2="270.7" y2="834.68"/><polyline class="cls-1" points="265.15 793.33 265.15 794.16 270.7 797.37 276.24 794.16 276.24 793.33"/><polygon class="cls-1" points="270.7 790.13 265.15 793.32 265.15 793.33 270.7 796.52 276.24 793.33 276.24 793.32 270.7 790.13"/><line class="cls-1" x1="270.7" y1="797.37" x2="270.7" y2="796.53"/><polyline class="cls-1" points="248.53 671.91 270.7 665.51 281.78 659.11 292.92 646.28 292.92 646.28 248.53 671.91 248.53 671.91 259.61 659.11 270.7 652.71 292.93 646.28"/><line class="cls-1" x1="292.93" y1="646.28" x2="292.93" y2="652.68"/><line class="cls-1" x1="248.53" y1="678.39" x2="248.53" y2="671.91"/><polyline class="cls-1" points="248.5 723.05 270.66 716.65 281.75 710.25 292.89 697.42 292.89 697.42 248.5 723.05 248.5 723.05 259.58 710.25 270.66 703.85 292.89 697.42"/><line class="cls-1" x1="292.89" y1="703.82" x2="292.89" y2="697.42"/><line class="cls-1" x1="248.5" y1="729.53" x2="248.5" y2="723.05"/><polyline class="cls-1" points="303.95 665.51 270.7 678.31 259.61 684.73 237.44 703.88 303.95 665.51 281.78 684.73 270.7 691.13 237.44 703.88"/><line class="cls-1" x1="237.44" y1="710.31" x2="237.44" y2="703.78"/><line class="cls-1" x1="303.95" y1="671.91" x2="303.95" y2="665.4"/><polygon class="cls-1" points="481.28 774.27 492.37 767.87 503.45 774.27 492.37 780.67 481.28 774.27"/><polyline class="cls-1" points="525.62 940.7 503.45 863.9 503.45 774.27 492.37 761.47 481.28 774.27 481.28 863.9 459.12 940.7"/><line class="cls-1" x1="492.37" y1="761.47" x2="492.37" y2="959.9"/><polygon class="cls-1" points="481.28 787.11 492.37 780.71 503.45 787.11 492.37 793.5 481.28 787.11"/><polygon class="cls-1" points="481.28 863.9 492.37 857.5 503.45 863.9 492.37 870.3 481.28 863.9"/><polygon class="cls-1" points="481.28 799.9 492.37 793.5 503.45 799.9 492.37 806.3 481.28 799.9"/><polygon class="cls-1" points="481.28 812.78 492.37 806.38 503.45 812.78 492.37 819.18 481.28 812.78"/><polygon class="cls-1" points="481.28 825.5 492.37 819.1 503.45 825.5 492.37 831.9 481.28 825.5"/><polygon class="cls-1" points="481.28 838.3 492.37 831.9 503.45 838.3 492.37 844.7 481.28 838.3"/><polygon class="cls-1" points="481.28 851.1 492.37 844.7 503.45 851.1 492.37 857.5 481.28 851.1"/><polygon class="cls-1" points="492.37 870.3 476.67 879.9 492.37 889.5 508.07 879.9 492.37 870.3"/><polygon class="cls-1" points="503.45 787.11 497.91 777.47 492.37 793.5 486.76 777.47 481.28 787.11 486.82 771.11 492.37 780.71 497.91 771.07 503.45 787.11"/><polygon class="cls-1" points="503.45 799.9 497.91 790.27 492.37 806.3 486.76 790.27 481.28 799.9 486.82 783.9 492.37 793.5 497.91 783.87 503.45 799.9"/><polygon class="cls-1" points="503.45 812.72 497.91 803.09 492.37 819.12 486.76 803.09 481.28 812.72 486.82 796.72 492.37 806.32 497.91 796.69 503.45 812.72"/><polygon class="cls-1" points="503.45 825.52 497.91 815.88 492.37 831.92 486.76 815.88 481.28 825.52 486.82 809.52 492.37 819.12 497.91 809.49 503.45 825.52"/><polygon class="cls-1" points="503.45 838.32 497.91 828.68 492.37 844.72 486.76 828.68 481.28 838.32 486.82 822.32 492.37 831.92 497.91 822.28 503.45 838.32"/><polygon class="cls-1" points="503.45 851.12 497.91 841.48 492.37 857.52 486.76 841.48 481.28 851.12 486.82 835.12 492.37 844.72 497.91 835.08 503.45 851.12"/><polygon class="cls-1" points="503.45 863.92 497.91 854.28 492.37 870.32 486.76 854.28 481.28 863.92 486.82 847.92 492.37 857.52 497.91 847.88 503.45 863.92"/><polygon class="cls-1" points="492.37 889.5 470.2 902.3 492.37 915.1 514.53 902.3 492.37 889.5"/><polygon class="cls-1" points="508.07 879.9 497.91 867.1 492.37 889.5 486.82 867.1 476.67 879.9 486.86 860.68 492.37 870.32 497.94 860.68 508.07 879.9"/><polygon class="cls-1" points="514.53 902.3 500.68 884.7 492.37 915.1 484.05 884.7 470.2 902.3 484.53 875.09 492.37 889.5 500.2 875.09 514.53 902.3"/><polygon class="cls-1" points="524.03 935.21 503.45 908.7 492.37 953.5 481.28 908.7 460.7 935.21 481.28 895.9 492.37 915.1 503.45 895.9 524.03 935.21"/><polyline class="cls-1" points="453.57 940.43 453.57 941.27 459.12 944.47 464.66 941.27 464.66 940.43"/><polygon class="cls-1" points="459.12 937.23 453.58 940.43 453.58 940.43 459.12 943.63 464.66 940.43 464.66 940.43 459.12 937.23"/><line class="cls-1" x1="459.12" y1="944.47" x2="459.12" y2="943.63"/><polyline class="cls-1" points="520.08 940.28 520.08 941.12 525.62 944.32 531.16 941.12 531.16 940.28"/><polygon class="cls-1" points="525.62 937.08 520.08 940.28 520.08 940.28 525.62 943.48 531.16 940.28 531.16 940.28 525.62 937.08"/><line class="cls-1" x1="525.62" y1="944.32" x2="525.62" y2="943.48"/><polyline class="cls-1" points="486.82 959.48 486.82 960.32 492.37 963.52 497.91 960.32 497.91 959.48"/><polygon class="cls-1" points="492.37 956.28 486.83 959.48 486.83 959.48 492.37 962.68 497.91 959.48 497.91 959.48 492.37 956.28"/><line class="cls-1" x1="492.37" y1="963.52" x2="492.37" y2="962.68"/><polyline class="cls-1" points="486.82 921.32 486.82 922.16 492.37 925.36 497.91 922.16 497.91 921.32"/><polygon class="cls-1" points="492.37 918.12 486.83 921.32 486.83 921.32 492.37 924.52 497.91 921.32 497.91 921.32 492.37 918.12"/><line class="cls-1" x1="492.37" y1="925.36" x2="492.37" y2="924.52"/><polyline class="cls-1" points="470.2 799.9 492.37 793.5 503.45 787.11 514.6 774.27 514.59 774.27 470.2 799.9 470.2 799.9 481.28 787.11 492.37 780.71 514.6 774.27"/><line class="cls-1" x1="514.6" y1="780.67" x2="514.6" y2="774.27"/><line class="cls-1" x1="470.2" y1="806.38" x2="470.2" y2="799.9"/><polyline class="cls-1" points="470.17 851.05 492.33 844.65 503.42 838.25 514.56 825.41 514.56 825.41 470.17 851.04 470.17 851.04 481.25 838.25 492.33 831.85 514.57 825.41"/><line class="cls-1" x1="514.57" y1="831.81" x2="514.57" y2="825.41"/><line class="cls-1" x1="470.17" y1="857.52" x2="470.17" y2="851.04"/><polyline class="cls-1" points="525.62 793.5 492.37 806.3 481.28 812.72 459.12 831.87 525.62 793.5 503.45 812.72 492.37 819.12 459.12 831.87"/><line class="cls-1" x1="459.12" y1="838.3" x2="459.12" y2="831.78"/><line class="cls-1" x1="525.62" y1="799.9" x2="525.62" y2="793.4"/><path class="cls-1" d="M292.86,652.56l49.65,38.27A485.09,485.09,0,0,0,451.24,754l63.28,26.5"/><path class="cls-1" d="M248.47,678.26l49.65,38.26a484.75,484.75,0,0,0,108.73,63.22l63.28,26.5"/><path class="cls-1" d="M237.37,710.19,287,748.45a485.09,485.09,0,0,0,108.73,63.21L459,838.17"/><path class="cls-1" d="M248.47,729.43l49.65,38.27a485.09,485.09,0,0,0,108.73,63.21l63.28,26.5"/><path class="cls-1" d="M292.86,703.72,342.51,742a485.09,485.09,0,0,0,108.73,63.21l63.28,26.51"/><path class="cls-1" d="M304,671.81l49.64,38.26a485.51,485.51,0,0,0,108.73,63.22l63.29,26.5"/><path class="cls-1" d="M71.2,524.58l49.65,38.27a485.09,485.09,0,0,0,108.73,63.21l63.28,26.5"/><path class="cls-1" d="M82.29,543.83l49.64,38.26a485.51,485.51,0,0,0,108.73,63.22L304,671.81"/><path class="cls-1" d="M71.23,575.74,120.88,614a485.09,485.09,0,0,0,108.73,63.21l63.28,26.51"/><path class="cls-1" d="M26.84,601.45l49.65,38.27a484.65,484.65,0,0,0,108.73,63.21l63.28,26.5"/><path class="cls-1" d="M15.71,582.2l49.65,38.27a484.87,484.87,0,0,0,108.73,63.21l63.28,26.51"/><path class="cls-1" d="M26.81,550.28l49.65,38.26a484.75,484.75,0,0,0,108.73,63.22l63.28,26.5"/><path class="cls-1" d="M514.52,780.54l49.65,38.27A485.09,485.09,0,0,0,672.9,882l63.28,26.5"/><path class="cls-1" d="M525.61,799.79l49.64,38.26A485.51,485.51,0,0,0,684,901.27l63.29,26.5"/><path class="cls-1" d="M514.56,831.7,564.2,870a485.51,485.51,0,0,0,108.73,63.22l63.29,26.5"/><path class="cls-1" d="M470.16,857.41l49.65,38.27a484.65,484.65,0,0,0,108.73,63.21l63.28,26.5"/><path class="cls-1" d="M459,838.17l49.65,38.26a485.09,485.09,0,0,0,108.73,63.21l63.28,26.51"/><path class="cls-1" d="M470.13,806.24l49.65,38.27a485.09,485.09,0,0,0,108.73,63.21l63.28,26.5"/><polygon class="cls-1" points="702.89 908.5 713.98 902.1 725.06 908.5 713.98 914.9 702.89 908.5"/><polyline class="cls-1" points="747.23 1074.93 725.06 998.13 725.06 908.5 713.98 895.7 702.89 908.5 702.89 998.13 680.72 1074.93"/><line class="cls-1" x1="713.97" y1="895.7" x2="713.97" y2="1094.13"/><polygon class="cls-1" points="702.89 921.34 713.98 914.94 725.06 921.34 713.98 927.74 702.89 921.34"/><polygon class="cls-1" points="702.89 998.13 713.98 991.74 725.06 998.13 713.98 1004.53 702.89 998.13"/><polygon class="cls-1" points="702.89 934.14 713.98 927.74 725.06 934.14 713.98 940.54 702.89 934.14"/><polygon class="cls-1" points="702.89 947.01 713.98 940.61 725.06 947.01 713.98 953.41 702.89 947.01"/><polygon class="cls-1" points="702.89 959.74 713.98 953.34 725.06 959.74 713.98 966.14 702.89 959.74"/><polygon class="cls-1" points="702.89 972.54 713.98 966.14 725.06 972.54 713.98 978.94 702.89 972.54"/><polygon class="cls-1" points="702.89 985.34 713.98 978.94 725.06 985.34 713.98 991.74 702.89 985.34"/><polygon class="cls-1" points="713.98 1004.53 698.27 1014.13 713.98 1023.73 729.68 1014.13 713.98 1004.53"/><polygon class="cls-1" points="725.06 921.34 719.52 911.7 713.98 927.74 708.37 911.7 702.89 921.34 708.43 905.34 713.98 914.94 719.52 905.3 725.06 921.34"/><polygon class="cls-1" points="725.06 934.14 719.52 924.5 713.98 940.54 708.37 924.5 702.89 934.14 708.43 918.14 713.98 927.74 719.52 918.1 725.06 934.14"/><polygon class="cls-1" points="725.06 946.96 719.52 937.32 713.98 953.36 708.37 937.32 702.89 946.96 708.43 930.96 713.98 940.56 719.52 930.92 725.06 946.96"/><polygon class="cls-1" points="725.06 959.76 719.52 950.12 713.98 966.15 708.37 950.12 702.89 959.76 708.43 943.76 713.98 953.36 719.52 943.72 725.06 959.76"/><polygon class="cls-1" points="725.06 972.55 719.52 962.92 713.98 978.96 708.37 962.92 702.89 972.55 708.43 956.56 713.98 966.15 719.52 956.52 725.06 972.55"/><polygon class="cls-1" points="725.06 985.35 719.52 975.72 713.98 991.75 708.37 975.72 702.89 985.35 708.43 969.36 713.98 978.96 719.52 969.32 725.06 985.35"/><polygon class="cls-1" points="725.06 998.15 719.52 988.52 713.98 1004.55 708.37 988.52 702.89 998.15 708.43 982.15 713.98 991.75 719.52 982.12 725.06 998.15"/><polygon class="cls-1" points="713.98 1023.73 691.81 1036.53 713.98 1049.33 736.14 1036.53 713.98 1023.73"/><polygon class="cls-1" points="729.68 1014.13 719.52 1001.34 713.98 1023.73 708.43 1001.34 698.27 1014.13 708.47 994.92 713.98 1004.55 719.55 994.92 729.68 1014.13"/><polygon class="cls-1" points="736.14 1036.53 722.29 1018.93 713.98 1049.33 705.66 1018.93 691.81 1036.53 706.14 1009.33 713.98 1023.73 721.81 1009.33 736.14 1036.53"/><polygon class="cls-1" points="745.64 1069.44 725.06 1042.93 713.98 1087.73 702.89 1042.93 682.31 1069.44 702.89 1030.13 713.98 1049.33 725.06 1030.13 745.64 1069.44"/><polyline class="cls-1" points="675.18 1074.67 675.18 1075.51 680.72 1078.71 686.27 1075.51 686.27 1074.67"/><polygon class="cls-1" points="680.72 1071.47 675.18 1074.66 675.18 1074.67 680.72 1077.87 686.26 1074.67 686.26 1074.66 680.72 1071.47"/><line class="cls-1" x1="680.72" y1="1078.71" x2="680.72" y2="1077.87"/><polyline class="cls-1" points="741.68 1074.51 741.68 1075.35 747.23 1078.55 752.77 1075.35 752.77 1074.51"/><polygon class="cls-1" points="747.23 1071.31 741.68 1074.51 741.68 1074.51 747.23 1077.71 752.77 1074.51 752.77 1074.51 747.23 1071.31"/><line class="cls-1" x1="747.23" y1="1078.55" x2="747.23" y2="1077.71"/><polyline class="cls-1" points="708.43 1093.71 708.43 1094.55 713.98 1097.75 719.52 1094.55 719.52 1093.71"/><polygon class="cls-1" points="713.98 1090.51 708.43 1093.71 708.43 1093.71 713.98 1096.91 719.51 1093.71 719.51 1093.71 713.98 1090.51"/><line class="cls-1" x1="713.97" y1="1097.75" x2="713.97" y2="1096.91"/><polyline class="cls-1" points="708.43 1055.55 708.43 1056.39 713.98 1059.59 719.52 1056.39 719.52 1055.55"/><polygon class="cls-1" points="713.98 1052.35 708.43 1055.55 708.43 1055.55 713.98 1058.75 719.51 1055.55 719.51 1055.55 713.98 1052.35"/><line class="cls-1" x1="713.97" y1="1059.59" x2="713.97" y2="1058.75"/><polyline class="cls-1" points="691.81 934.14 713.98 927.74 725.06 921.34 736.2 908.51 736.2 908.51 691.81 934.14 691.81 934.13 702.89 921.34 713.98 914.94 736.21 908.5"/><line class="cls-1" x1="736.21" y1="908.5" x2="736.21" y2="914.9"/><line class="cls-1" x1="691.81" y1="940.61" x2="691.81" y2="934.14"/><polyline class="cls-1" points="691.77 985.28 713.94 978.88 725.03 972.48 736.17 959.65 736.17 959.65 691.78 985.28 691.78 985.28 702.86 972.48 713.94 966.08 736.17 959.64"/><line class="cls-1" x1="736.17" y1="966.04" x2="736.17" y2="959.64"/><line class="cls-1" x1="691.78" y1="991.75" x2="691.78" y2="985.28"/><polyline class="cls-1" points="747.23 927.74 713.98 940.54 702.89 946.96 680.72 966.1 747.23 927.74 725.06 946.96 713.98 953.36 680.72 966.1"/><line class="cls-1" x1="680.72" y1="972.54" x2="680.72" y2="966.01"/><line class="cls-1" x1="747.23" y1="934.14" x2="747.23" y2="927.63"/><polygon class="cls-1" points="924.56 1036.5 935.65 1030.1 946.73 1036.5 935.65 1042.89 924.56 1036.5"/><polyline class="cls-1" points="968.9 1202.92 946.73 1126.13 946.73 1036.5 935.65 1023.7 924.56 1036.5 924.56 1126.13 902.39 1202.92"/><line class="cls-1" x1="935.65" y1="1023.7" x2="935.65" y2="1222.12"/><polygon class="cls-1" points="924.56 1049.33 935.65 1042.93 946.73 1049.33 935.65 1055.73 924.56 1049.33"/><polygon class="cls-1" points="924.56 1126.13 935.65 1119.73 946.73 1126.13 935.65 1132.53 924.56 1126.13"/><polygon class="cls-1" points="924.56 1062.13 935.65 1055.73 946.73 1062.13 935.65 1068.53 924.56 1062.13"/><polygon class="cls-1" points="924.56 1075.01 935.65 1068.61 946.73 1075.01 935.65 1081.4 924.56 1075.01"/><polygon class="cls-1" points="924.56 1087.73 935.65 1081.33 946.73 1087.73 935.65 1094.13 924.56 1087.73"/><polygon class="cls-1" points="924.56 1100.53 935.65 1094.13 946.73 1100.53 935.65 1106.93 924.56 1100.53"/><polygon class="cls-1" points="924.56 1113.33 935.65 1106.93 946.73 1113.33 935.65 1119.73 924.56 1113.33"/><polygon class="cls-1" points="935.65 1132.53 919.94 1142.13 935.65 1151.73 951.35 1142.13 935.65 1132.53"/><polygon class="cls-1" points="946.73 1049.33 941.19 1039.7 935.65 1055.73 930.04 1039.7 924.56 1049.33 930.1 1033.33 935.65 1042.93 941.19 1033.3 946.73 1049.33"/><polygon class="cls-1" points="946.73 1062.13 941.19 1052.49 935.65 1068.53 930.04 1052.49 924.56 1062.13 930.1 1046.13 935.65 1055.73 941.19 1046.1 946.73 1062.13"/><polygon class="cls-1" points="946.73 1074.95 941.19 1065.31 935.65 1081.35 930.04 1065.31 924.56 1074.95 930.1 1058.95 935.65 1068.55 941.19 1058.91 946.73 1074.95"/><polygon class="cls-1" points="946.73 1087.75 941.19 1078.11 935.65 1094.15 930.04 1078.11 924.56 1087.75 930.1 1071.75 935.65 1081.35 941.19 1071.71 946.73 1087.75"/><polygon class="cls-1" points="946.73 1100.55 941.19 1090.91 935.65 1106.95 930.04 1090.91 924.56 1100.55 930.1 1084.55 935.65 1094.15 941.19 1084.51 946.73 1100.55"/><polygon class="cls-1" points="946.73 1113.35 941.19 1103.71 935.65 1119.75 930.04 1103.71 924.56 1113.35 930.1 1097.35 935.65 1106.95 941.19 1097.31 946.73 1113.35"/><polygon class="cls-1" points="946.73 1126.15 941.19 1116.51 935.65 1132.55 930.04 1116.51 924.56 1126.15 930.1 1110.15 935.65 1119.75 941.19 1110.11 946.73 1126.15"/><polygon class="cls-1" points="935.65 1151.73 913.48 1164.53 935.65 1177.33 957.81 1164.53 935.65 1151.73"/><polygon class="cls-1" points="951.35 1142.13 941.19 1129.33 935.65 1151.73 930.1 1129.33 919.94 1142.13 930.14 1122.91 935.65 1132.55 941.22 1122.91 951.35 1142.13"/><polygon class="cls-1" points="957.81 1164.53 943.96 1146.93 935.65 1177.33 927.33 1146.93 913.48 1164.53 927.81 1137.32 935.65 1151.73 943.48 1137.32 957.81 1164.53"/><polygon class="cls-1" points="967.31 1197.44 946.73 1170.93 935.65 1215.72 924.56 1170.93 903.98 1197.44 924.56 1158.13 935.65 1177.33 946.73 1158.13 967.31 1197.44"/><polyline class="cls-1" points="896.85 1202.66 896.85 1203.5 902.39 1206.7 907.94 1203.5 907.94 1202.66"/><polygon class="cls-1" points="902.39 1199.46 896.86 1202.66 896.86 1202.66 902.39 1205.86 907.94 1202.66 907.94 1202.66 902.39 1199.46"/><line class="cls-1" x1="902.4" y1="1206.7" x2="902.4" y2="1205.86"/><polyline class="cls-1" points="963.36 1202.5 963.36 1203.34 968.9 1206.54 974.44 1203.34 974.44 1202.5"/><polygon class="cls-1" points="968.9 1199.3 963.36 1202.5 963.36 1202.51 968.9 1205.7 974.44 1202.51 974.44 1202.5 968.9 1199.3"/><line class="cls-1" x1="968.9" y1="1206.54" x2="968.9" y2="1205.7"/><polyline class="cls-1" points="930.1 1221.7 930.1 1222.54 935.65 1225.74 941.19 1222.54 941.19 1221.7"/><polygon class="cls-1" points="935.65 1218.5 930.11 1221.7 930.11 1221.7 935.65 1224.9 941.19 1221.7 941.19 1221.7 935.65 1218.5"/><line class="cls-1" x1="935.65" y1="1225.74" x2="935.65" y2="1224.9"/><polyline class="cls-1" points="930.1 1183.55 930.1 1184.38 935.65 1187.59 941.19 1184.38 941.19 1183.55"/><polygon class="cls-1" points="935.65 1180.35 930.11 1183.54 930.11 1183.55 935.65 1186.74 941.19 1183.55 941.19 1183.54 935.65 1180.35"/><line class="cls-1" x1="935.65" y1="1187.58" x2="935.65" y2="1186.74"/><polyline class="cls-1" points="913.48 1062.13 935.65 1055.73 946.73 1049.33 957.87 1036.5 957.87 1036.5 913.48 1062.13 913.48 1062.13 924.56 1049.33 935.65 1042.93 957.88 1036.5"/><line class="cls-1" x1="957.88" y1="1042.9" x2="957.88" y2="1036.5"/><line class="cls-1" x1="913.48" y1="1068.61" x2="913.48" y2="1062.13"/><polyline class="cls-1" points="913.45 1113.27 935.61 1106.87 946.7 1100.47 957.84 1087.64 957.84 1087.64 913.45 1113.27 913.45 1113.27 924.53 1100.47 935.61 1094.07 957.85 1087.64"/><line class="cls-1" x1="957.85" y1="1094.04" x2="957.85" y2="1087.64"/><line class="cls-1" x1="913.45" y1="1119.75" x2="913.45" y2="1113.27"/><polyline class="cls-1" points="968.9 1055.73 935.65 1068.53 924.56 1074.95 902.39 1094.1 968.9 1055.73 946.73 1074.95 935.65 1081.35 902.39 1094.1"/><line class="cls-1" x1="902.4" y1="1100.53" x2="902.4" y2="1094"/><line class="cls-1" x1="968.9" y1="1062.13" x2="968.9" y2="1055.62"/><path class="cls-1" d="M736.14,914.79l49.65,38.27a484.65,484.65,0,0,0,108.73,63.21l63.28,26.5"/><path class="cls-1" d="M691.75,940.49l49.65,38.26A485.51,485.51,0,0,0,850.13,1042l63.28,26.5"/><path class="cls-1" d="M680.65,972.41l49.65,38.27A484.65,484.65,0,0,0,839,1073.89l63.28,26.5"/><path class="cls-1" d="M691.75,991.66l49.65,38.26a485.51,485.51,0,0,0,108.73,63.22l63.28,26.5"/><path class="cls-1" d="M736.14,965.94l49.65,38.27a484.65,484.65,0,0,0,108.73,63.21l63.28,26.5"/><path class="cls-1" d="M747.23,934l49.64,38.27a485.09,485.09,0,0,0,108.73,63.21L968.89,1062"/><path class="cls-1" d="M957.8,1042.77l49.65,38.27a484.87,484.87,0,0,0,108.73,63.21l63.28,26.5"/><path class="cls-1" d="M968.89,1062l49.64,38.26a485.09,485.09,0,0,0,108.73,63.21l63.29,26.51"/><path class="cls-1" d="M957.83,1093.92l49.65,38.27a485.09,485.09,0,0,0,108.73,63.21l63.28,26.5"/><path class="cls-1" d="M913.44,1119.64l49.65,38.26a484.31,484.31,0,0,0,108.73,63.22l63.28,26.5"/><path class="cls-1" d="M902.31,1100.39,952,1138.66a484.87,484.87,0,0,0,108.73,63.21l63.28,26.5"/><path class="cls-1" d="M913.41,1068.47l49.65,38.26A485.51,485.51,0,0,0,1071.79,1170l63.28,26.5"/><polygon class="cls-1" points="1146.17 1170.9 1157.25 1164.5 1168.33 1170.9 1157.25 1177.3 1146.17 1170.9"/><polyline class="cls-1" points="1190.5 1337.33 1168.33 1260.53 1168.33 1170.9 1157.25 1158.1 1146.17 1170.9 1146.17 1260.53 1124 1337.33"/><line class="cls-1" x1="1157.25" y1="1158.1" x2="1157.25" y2="1356.53"/><polygon class="cls-1" points="1146.17 1183.74 1157.25 1177.34 1168.33 1183.74 1157.25 1190.14 1146.17 1183.74"/><polygon class="cls-1" points="1146.17 1260.53 1157.25 1254.13 1168.33 1260.53 1157.25 1266.93 1146.17 1260.53"/><polygon class="cls-1" points="1146.17 1196.54 1157.25 1190.14 1168.33 1196.54 1157.25 1202.93 1146.17 1196.54"/><polygon class="cls-1" points="1146.17 1209.41 1157.25 1203.01 1168.33 1209.41 1157.25 1215.81 1146.17 1209.41"/><polygon class="cls-1" points="1146.17 1222.13 1157.25 1215.73 1168.33 1222.13 1157.25 1228.53 1146.17 1222.13"/><polygon class="cls-1" points="1146.17 1234.93 1157.25 1228.53 1168.33 1234.93 1157.25 1241.33 1146.17 1234.93"/><polygon class="cls-1" points="1146.17 1247.73 1157.25 1241.33 1168.33 1247.73 1157.25 1254.13 1146.17 1247.73"/><polygon class="cls-1" points="1157.25 1266.93 1141.55 1276.53 1157.25 1286.13 1172.95 1276.53 1157.25 1266.93"/><polygon class="cls-1" points="1168.33 1183.74 1162.79 1174.1 1157.25 1190.14 1151.64 1174.1 1146.17 1183.74 1151.71 1167.74 1157.25 1177.34 1162.79 1167.7 1168.33 1183.74"/><polygon class="cls-1" points="1168.33 1196.54 1162.79 1186.9 1157.25 1202.93 1151.64 1186.9 1146.17 1196.54 1151.71 1180.54 1157.25 1190.14 1162.79 1180.5 1168.33 1196.54"/><polygon class="cls-1" points="1168.33 1209.35 1162.79 1199.72 1157.25 1215.75 1151.64 1199.72 1146.17 1209.35 1151.71 1193.36 1157.25 1202.95 1162.79 1193.32 1168.33 1209.35"/><polygon class="cls-1" points="1168.33 1222.15 1162.79 1212.52 1157.25 1228.55 1151.64 1212.52 1146.17 1222.15 1151.71 1206.15 1157.25 1215.75 1162.79 1206.12 1168.33 1222.15"/><polygon class="cls-1" points="1168.33 1234.95 1162.79 1225.32 1157.25 1241.35 1151.64 1225.32 1146.17 1234.95 1151.71 1218.95 1157.25 1228.55 1162.79 1218.92 1168.33 1234.95"/><polygon class="cls-1" points="1168.33 1247.75 1162.79 1238.12 1157.25 1254.15 1151.64 1238.12 1146.17 1247.75 1151.71 1231.75 1157.25 1241.35 1162.79 1231.71 1168.33 1247.75"/><polygon class="cls-1" points="1168.33 1260.55 1162.79 1250.91 1157.25 1266.95 1151.64 1250.91 1146.17 1260.55 1151.71 1244.55 1157.25 1254.15 1162.79 1244.52 1168.33 1260.55"/><polygon class="cls-1" points="1157.25 1286.13 1135.08 1298.93 1157.25 1311.73 1179.42 1298.93 1157.25 1286.13"/><polygon class="cls-1" points="1172.95 1276.53 1162.79 1263.73 1157.25 1286.13 1151.71 1263.73 1141.55 1276.53 1151.74 1257.31 1157.25 1266.95 1162.82 1257.31 1172.95 1276.53"/><polygon class="cls-1" points="1179.42 1298.93 1165.56 1281.33 1157.25 1311.73 1148.94 1281.33 1135.08 1298.93 1149.41 1271.72 1157.25 1286.13 1165.09 1271.72 1179.42 1298.93"/><polygon class="cls-1" points="1188.92 1331.84 1168.33 1305.33 1157.25 1350.13 1146.17 1305.33 1125.58 1331.84 1146.17 1292.53 1157.25 1311.73 1168.33 1292.53 1188.92 1331.84"/><polyline class="cls-1" points="1118.46 1337.06 1118.46 1337.9 1124 1341.1 1129.54 1337.9 1129.54 1337.06"/><polygon class="cls-1" points="1124 1333.86 1118.46 1337.06 1118.46 1337.06 1124 1340.26 1129.54 1337.06 1129.54 1337.06 1124 1333.86"/><line class="cls-1" x1="1124" y1="1341.1" x2="1124" y2="1340.26"/><polyline class="cls-1" points="1184.96 1336.91 1184.96 1337.75 1190.5 1340.95 1196.04 1337.75 1196.04 1336.91"/><polygon class="cls-1" points="1190.5 1333.71 1184.96 1336.91 1184.96 1336.91 1190.5 1340.11 1196.04 1336.91 1196.04 1336.91 1190.5 1333.71"/><line class="cls-1" x1="1190.5" y1="1340.95" x2="1190.5" y2="1340.11"/><polyline class="cls-1" points="1151.71 1356.11 1151.71 1356.95 1157.25 1360.15 1162.79 1356.95 1162.79 1356.11"/><polygon class="cls-1" points="1157.25 1352.91 1151.71 1356.11 1151.71 1356.11 1157.25 1359.31 1162.79 1356.11 1162.79 1356.11 1157.25 1352.91"/><line class="cls-1" x1="1157.25" y1="1360.15" x2="1157.25" y2="1359.31"/><polyline class="cls-1" points="1151.71 1317.95 1151.71 1318.79 1157.25 1321.99 1162.79 1318.79 1162.79 1317.95"/><polygon class="cls-1" points="1157.25 1314.75 1151.71 1317.95 1151.71 1317.95 1157.25 1321.15 1162.79 1317.95 1162.79 1317.95 1157.25 1314.75"/><line class="cls-1" x1="1157.25" y1="1321.99" x2="1157.25" y2="1321.15"/><polyline class="cls-1" points="1135.08 1196.54 1157.25 1190.14 1168.33 1183.74 1179.48 1170.9 1179.48 1170.9 1135.09 1196.53 1135.09 1196.53 1146.17 1183.74 1157.25 1177.34 1179.48 1170.9"/><line class="cls-1" x1="1179.48" y1="1170.9" x2="1179.48" y2="1177.3"/><line class="cls-1" x1="1135.08" y1="1203.01" x2="1135.09" y2="1196.53"/><polyline class="cls-1" points="1135.05 1247.68 1157.22 1241.28 1168.3 1234.88 1179.45 1222.05 1179.44 1222.04 1135.06 1247.67 1135.05 1247.67 1146.13 1234.88 1157.22 1228.48 1179.45 1222.04"/><line class="cls-1" x1="1179.45" y1="1228.44" x2="1179.45" y2="1222.04"/><line class="cls-1" x1="1135.05" y1="1254.15" x2="1135.06" y2="1247.67"/><polyline class="cls-1" points="1190.5 1190.14 1157.25 1202.93 1146.17 1209.35 1124 1228.5 1190.5 1190.14 1168.33 1209.35 1157.25 1215.75 1124 1228.5"/><line class="cls-1" x1="1124" y1="1234.93" x2="1124" y2="1228.41"/><line class="cls-1" x1="1190.5" y1="1196.54" x2="1190.5" y2="1190.03"/><polygon class="cls-1" points="1367.84 1298.89 1378.92 1292.49 1390.01 1298.89 1378.92 1305.29 1367.84 1298.89"/><polyline class="cls-1" points="1412.17 1465.32 1390.01 1388.53 1390.01 1298.89 1378.92 1286.09 1367.84 1298.89 1367.84 1388.53 1345.67 1465.32"/><line class="cls-1" x1="1378.92" y1="1286.09" x2="1378.92" y2="1484.52"/><polygon class="cls-1" points="1367.84 1311.73 1378.92 1305.33 1390.01 1311.73 1378.92 1318.13 1367.84 1311.73"/><polygon class="cls-1" points="1367.84 1388.53 1378.92 1382.13 1390.01 1388.53 1378.92 1394.92 1367.84 1388.53"/><polygon class="cls-1" points="1367.84 1324.53 1378.92 1318.13 1390.01 1324.53 1378.92 1330.93 1367.84 1324.53"/><polygon class="cls-1" points="1367.84 1337.4 1378.92 1331 1390.01 1337.4 1378.92 1343.8 1367.84 1337.4"/><polygon class="cls-1" points="1367.84 1350.13 1378.92 1343.73 1390.01 1350.13 1378.92 1356.53 1367.84 1350.13"/><polygon class="cls-1" points="1367.84 1362.93 1378.92 1356.53 1390.01 1362.93 1378.92 1369.33 1367.84 1362.93"/><polygon class="cls-1" points="1367.84 1375.73 1378.92 1369.33 1390.01 1375.73 1378.92 1382.13 1367.84 1375.73"/><polygon class="cls-1" points="1378.92 1394.92 1363.22 1404.52 1378.92 1414.12 1394.62 1404.52 1378.92 1394.92"/><polygon class="cls-1" points="1390.01 1311.73 1384.46 1302.09 1378.92 1318.13 1373.32 1302.09 1367.84 1311.73 1373.38 1295.73 1378.92 1305.33 1384.46 1295.69 1390.01 1311.73"/><polygon class="cls-1" points="1390.01 1324.53 1384.46 1314.89 1378.92 1330.93 1373.32 1314.89 1367.84 1324.53 1373.38 1308.53 1378.92 1318.13 1384.46 1308.49 1390.01 1324.53"/><polygon class="cls-1" points="1390.01 1337.35 1384.46 1327.71 1378.92 1343.75 1373.32 1327.71 1367.84 1337.35 1373.38 1321.35 1378.92 1330.95 1384.46 1321.31 1390.01 1337.35"/><polygon class="cls-1" points="1390.01 1350.15 1384.46 1340.51 1378.92 1356.55 1373.32 1340.51 1367.84 1350.15 1373.38 1334.15 1378.92 1343.75 1384.46 1334.11 1390.01 1350.15"/><polygon class="cls-1" points="1390.01 1362.94 1384.46 1353.31 1378.92 1369.35 1373.32 1353.31 1367.84 1362.94 1373.38 1346.95 1378.92 1356.55 1384.46 1346.91 1390.01 1362.94"/><polygon class="cls-1" points="1390.01 1375.74 1384.46 1366.11 1378.92 1382.14 1373.32 1366.11 1367.84 1375.74 1373.38 1359.74 1378.92 1369.35 1384.46 1359.71 1390.01 1375.74"/><polygon class="cls-1" points="1390.01 1388.54 1384.46 1378.91 1378.92 1394.94 1373.32 1378.91 1367.84 1388.54 1373.38 1372.55 1378.92 1382.14 1384.46 1372.51 1390.01 1388.54"/><polygon class="cls-1" points="1378.92 1414.12 1356.75 1426.92 1378.92 1439.72 1401.09 1426.92 1378.92 1414.12"/><polygon class="cls-1" points="1394.62 1404.52 1384.46 1391.72 1378.92 1414.12 1373.38 1391.72 1363.22 1404.52 1373.41 1385.31 1378.92 1394.94 1384.49 1385.31 1394.62 1404.52"/><polygon class="cls-1" points="1401.09 1426.92 1387.23 1409.32 1378.92 1439.72 1370.61 1409.32 1356.75 1426.92 1371.09 1399.71 1378.92 1414.12 1386.76 1399.71 1401.09 1426.92"/><polygon class="cls-1" points="1410.59 1459.84 1390.01 1433.32 1378.92 1478.12 1367.84 1433.32 1347.25 1459.84 1367.84 1420.52 1378.92 1439.72 1390.01 1420.52 1410.59 1459.84"/><polyline class="cls-1" points="1340.13 1465.06 1340.13 1465.9 1345.67 1469.1 1351.21 1465.9 1351.21 1465.06"/><polygon class="cls-1" points="1345.67 1461.86 1340.13 1465.06 1340.13 1465.06 1345.67 1468.26 1351.21 1465.06 1351.21 1465.06 1345.67 1461.86"/><line class="cls-1" x1="1345.67" y1="1469.1" x2="1345.67" y2="1468.26"/><polyline class="cls-1" points="1406.63 1464.9 1406.63 1465.74 1412.17 1468.94 1417.71 1465.74 1417.71 1464.9"/><polygon class="cls-1" points="1412.17 1461.7 1406.63 1464.9 1406.63 1464.9 1412.17 1468.1 1417.71 1464.9 1417.71 1464.9 1412.17 1461.7"/><line class="cls-1" x1="1412.17" y1="1468.94" x2="1412.17" y2="1468.1"/><polyline class="cls-1" points="1373.38 1484.1 1373.38 1484.94 1378.92 1488.14 1384.46 1484.94 1384.46 1484.1"/><polygon class="cls-1" points="1378.92 1480.9 1373.38 1484.1 1373.38 1484.1 1378.92 1487.3 1384.46 1484.1 1384.46 1484.1 1378.92 1480.9"/><line class="cls-1" x1="1378.92" y1="1488.14" x2="1378.92" y2="1487.3"/><polyline class="cls-1" points="1373.38 1445.94 1373.38 1446.78 1378.92 1449.98 1384.46 1446.78 1384.46 1445.94"/><polygon class="cls-1" points="1378.92 1442.74 1373.38 1445.94 1373.38 1445.94 1378.92 1449.14 1384.46 1445.94 1384.46 1445.94 1378.92 1442.74"/><line class="cls-1" x1="1378.92" y1="1449.98" x2="1378.92" y2="1449.14"/><polyline class="cls-1" points="1356.75 1324.53 1378.92 1318.13 1390.01 1311.73 1401.15 1298.9 1401.15 1298.9 1356.76 1324.53 1356.76 1324.53 1367.84 1311.73 1378.92 1305.33 1401.15 1298.89"/><line class="cls-1" x1="1401.15" y1="1305.29" x2="1401.15" y2="1298.89"/><line class="cls-1" x1="1356.75" y1="1331" x2="1356.76" y2="1324.53"/><polyline class="cls-1" points="1356.72 1375.67 1378.89 1369.27 1389.97 1362.87 1401.12 1350.04 1401.12 1350.04 1356.73 1375.67 1356.73 1375.67 1367.81 1362.87 1378.89 1356.47 1401.12 1350.03"/><line class="cls-1" x1="1401.12" y1="1356.43" x2="1401.12" y2="1350.03"/><line class="cls-1" x1="1356.72" y1="1382.14" x2="1356.73" y2="1375.67"/><polyline class="cls-1" points="1412.17 1318.13 1378.92 1330.93 1367.84 1337.35 1345.67 1356.49 1412.17 1318.13 1390.01 1337.35 1378.92 1343.75 1345.67 1356.49"/><line class="cls-1" x1="1345.67" y1="1362.93" x2="1345.67" y2="1356.4"/><line class="cls-1" x1="1412.17" y1="1324.53" x2="1412.17" y2="1318.02"/><path class="cls-1" d="M1179.42,1177.19l49.64,38.26a485.51,485.51,0,0,0,108.73,63.22l63.29,26.5"/><path class="cls-1" d="M1135,1202.88l49.64,38.27a485.09,485.09,0,0,0,108.73,63.21l63.29,26.5"/><path class="cls-1" d="M1123.93,1234.81l49.64,38.26a484.75,484.75,0,0,0,108.73,63.22l63.29,26.5"/><path class="cls-1" d="M1135,1254.06l49.64,38.26a485.09,485.09,0,0,0,108.73,63.21l63.29,26.51"/><path class="cls-1" d="M1179.42,1228.34l49.64,38.26a484.75,484.75,0,0,0,108.73,63.22l63.29,26.5"/><path class="cls-1" d="M1190.5,1196.43l49.65,38.27a484.65,484.65,0,0,0,108.73,63.21l63.28,26.5"/><path class="cls-1" d="M1401.08,1305.17l49.64,38.26a485.51,485.51,0,0,0,108.73,63.22l63.29,26.5"/><path class="cls-1" d="M1412.16,1324.41l49.65,38.27a484.65,484.65,0,0,0,108.73,63.21l63.28,26.5"/><path class="cls-1" d="M1401.11,1356.32l49.65,38.27a484.65,484.65,0,0,0,108.73,63.21l63.28,26.5"/><path class="cls-1" d="M1356.72,1382l49.64,38.26a485.51,485.51,0,0,0,108.73,63.22l63.29,26.5"/><path class="cls-1" d="M1345.59,1362.79l49.64,38.27A485.09,485.09,0,0,0,1504,1464.27l63.29,26.5"/><path class="cls-1" d="M1356.69,1330.86l49.64,38.27a485.09,485.09,0,0,0,108.73,63.21l63.29,26.51"/><polyline class="cls-4" points="1321.8 179.54 1321.8 180.05 1294.32 195.92 1284.02 189.97 1284.02 189.46"/><polyline class="cls-4" points="1311.5 173.6 1284.02 189.45 1284.02 189.46 1294.32 195.41 1321.8 179.54 1321.8 179.54 1311.5 173.6"/><line class="cls-4" x1="1294.32" y1="195.92" x2="1294.32" y2="195.4"/><polyline class="cls-4" points="1294.32 140.39 1294.32 188 1297.76 189.98 1311.5 182.04 1311.5 134.44"/><line class="cls-4" x1="1297.76" y1="142.38" x2="1297.76" y2="189.98"/><polygon class="cls-4" points="1301.19 144.36 1308.06 140.39 1308.06 152.29 1301.19 156.26 1301.19 144.36"/><polyline class="cls-4" points="1304.63 142.38 1304.63 150.31 1301.19 152.29"/><line class="cls-4" x1="1304.63" y1="150.31" x2="1308.06" y2="152.29"/><polygon class="cls-4" points="1295.18 144.85 1296.9 145.85 1296.9 149.81 1295.18 148.82 1295.18 144.85"/><polygon class="cls-4" points="1301.19 160.23 1301.19 164.19 1308.06 160.23 1308.06 156.26 1301.19 160.23"/><polyline class="cls-4" points="1301.19 163.5 1307.24 160 1305.85 157.54"/><polygon class="cls-4" points="1301.19 168.16 1301.19 176.09 1308.06 172.13 1308.06 164.19 1301.19 168.16"/><line class="cls-4" x1="1301.19" y1="172.13" x2="1308.06" y2="168.16"/><line class="cls-4" x1="1304.63" y1="166.18" x2="1304.63" y2="174.11"/><line class="cls-4" x1="1304.04" y1="166.51" x2="1304.04" y2="170.48"/><polygon class="cls-4" points="1301.77 172.46 1304.04 171.15 1304.04 173.78 1301.77 175.09 1301.77 172.46"/><polygon class="cls-4" points="1305.22 170.49 1307.46 169.19 1307.46 171.78 1305.22 173.08 1305.22 170.49"/><line class="cls-4" x1="1305.22" y1="165.86" x2="1305.22" y2="169.83"/><line class="cls-4" x1="1306.34" y1="157.25" x2="1308.06" y2="160.23"/><line class="cls-4" x1="1304.04" y1="166.51" x2="1304.04" y2="170.48"/><polygon class="cls-4" points="1294.32 140.39 1297.76 142.38 1311.49 134.44 1311.49 134.44 1308.06 132.46 1294.32 140.39 1294.32 140.39"/><ellipse class="cls-4" cx="1306.4" cy="171.14" rx="0.96" ry="0.55" transform="translate(460.84 1181.58) rotate(-57.54)"/><polyline class="cls-4" points="1305.88 171.95 1307.57 173.03 1308.6 171.4 1306.95 170.34"/><ellipse class="cls-4" cx="1308.09" cy="172.21" rx="0.96" ry="0.55" transform="translate(460.72 1183.5) rotate(-57.54)"/><ellipse class="cls-4" cx="1302.94" cy="173.15" rx="0.96" ry="0.55" transform="translate(457.55 1179.6) rotate(-57.54)"/><polyline class="cls-4" points="1302.43 173.96 1304.12 175.03 1305.15 173.41 1303.49 172.35"/><ellipse class="cls-4" cx="1304.63" cy="174.22" rx="0.96" ry="0.55" transform="translate(457.42 1181.52) rotate(-57.54)"/><polygon class="cls-4" points="1295.69 146.33 1296.39 146.73 1296.39 148.34 1295.69 147.94 1295.69 146.33"/><path class="cls-5" d="M1296,147.33h0a7.87,7.87,0,0,0-3.7,8.7l3.57,14.4c1,3.85,5,5.91,8.42,4l.34-.18"/><path class="cls-5" d="M1311.51,162.2l.75,2a6.05,6.05,0,0,1-4.28,8h0"/><polyline class="cls-4" points="1369.89 151.77 1369.89 152.29 1349.28 164.19 1338.98 158.24 1338.98 157.72"/><polygon class="cls-4" points="1338.98 157.72 1349.28 163.67 1369.89 151.77 1369.89 151.77 1359.59 145.82 1338.98 157.72 1338.98 157.72"/><line class="cls-4" x1="1349.28" y1="164.19" x2="1349.28" y2="163.67"/><polyline class="cls-4" points="1345.85 78.91 1345.85 158.24 1349.28 160.23 1363.02 152.29 1363.02 76.92"/><line class="cls-4" x1="1349.28" y1="160.23" x2="1349.28" y2="80.9"/><polyline class="cls-4" points="1424.85 120.04 1424.85 120.56 1397.37 136.43 1387.07 130.47 1387.07 129.96"/><polyline class="cls-4" points="1414.55 114.1 1387.07 129.96 1387.07 129.96 1397.37 135.91 1424.85 120.04 1424.85 120.04 1414.55 114.1"/><line class="cls-4" x1="1397.37" y1="136.43" x2="1397.37" y2="135.91"/><polyline class="cls-4" points="1397.37 80.9 1397.37 128.5 1400.81 130.49 1414.55 122.55 1414.55 74.95"/><line class="cls-4" x1="1400.81" y1="82.88" x2="1400.81" y2="130.48"/><polygon class="cls-4" points="1404.24 84.87 1411.11 80.9 1411.11 92.8 1404.24 96.77 1404.24 84.87"/><polyline class="cls-4" points="1407.68 82.88 1407.68 90.82 1404.24 92.8"/><line class="cls-4" x1="1407.68" y1="90.82" x2="1411.11" y2="92.8"/><polygon class="cls-4" points="1398.23 85.36 1399.95 86.35 1399.95 90.32 1398.23 89.33 1398.23 85.36"/><polygon class="cls-4" points="1404.24 100.73 1404.24 104.7 1411.11 100.73 1411.11 96.77 1404.24 100.73"/><polyline class="cls-4" points="1404.24 104 1410.29 100.51 1408.9 98.05"/><polygon class="cls-4" points="1404.24 108.67 1404.24 116.6 1411.11 112.63 1411.11 104.7 1404.24 108.67"/><line class="cls-4" x1="1404.24" y1="112.63" x2="1411.11" y2="108.67"/><line class="cls-4" x1="1407.68" y1="106.68" x2="1407.68" y2="114.62"/><line class="cls-4" x1="1407.1" y1="107.02" x2="1407.1" y2="110.99"/><polygon class="cls-4" points="1404.83 112.97 1407.1 111.66 1407.1 114.28 1404.83 115.59 1404.83 112.97"/><polygon class="cls-4" points="1408.28 110.99 1410.52 109.7 1410.52 112.29 1408.28 113.58 1408.28 110.99"/><line class="cls-4" x1="1408.27" y1="106.37" x2="1408.27" y2="110.33"/><line class="cls-4" x1="1409.4" y1="97.76" x2="1411.11" y2="100.73"/><line class="cls-4" x1="1407.1" y1="107.02" x2="1407.1" y2="110.99"/><polygon class="cls-4" points="1397.37 80.9 1400.81 82.88 1414.55 74.95 1414.55 74.95 1411.11 72.97 1397.37 80.9 1397.37 80.9"/><ellipse class="cls-4" cx="1409.45" cy="111.64" rx="0.96" ry="0.55" transform="translate(558.78 1240.97) rotate(-57.54)"/><polyline class="cls-4" points="1408.93 112.45 1410.62 113.53 1411.66 111.91 1410 110.85"/><ellipse class="cls-4" cx="1411.14" cy="112.72" rx="0.96" ry="0.55" transform="translate(558.66 1242.89) rotate(-57.54)"/><ellipse class="cls-4" cx="1406" cy="113.65" rx="0.96" ry="0.55" transform="translate(555.49 1238.99) rotate(-57.54)"/><polyline class="cls-4" points="1405.48 114.46 1407.17 115.54 1408.2 113.91 1406.55 112.86"/><ellipse class="cls-4" cx="1407.69" cy="114.73" rx="0.96" ry="0.55" transform="translate(555.36 1240.91) rotate(-57.54)"/><polygon class="cls-4" points="1398.74 86.84 1399.44 87.24 1399.44 88.85 1398.74 88.44 1398.74 86.84"/><path class="cls-5" d="M1399.06,87.84h0a7.86,7.86,0,0,0-3.7,8.69l3.56,14.4c.95,3.85,5,5.91,8.43,4l.34-.17"/><path class="cls-5" d="M1414.56,102.71l.75,2a6,6,0,0,1-4.28,8h0"/><polygon class="cls-4" points="1205.06 104.7 1205.06 108.67 1246.28 140.4 1246.28 140.4 1246.28 136.44 1205.06 104.7 1205.06 104.7"/><polygon class="cls-4" points="1205.06 104.7 1373.38 7.51 1414.6 39.25 1246.28 136.44 1205.06 104.7 1205.06 104.7"/><polygon class="cls-4" points="1280.63 144.37 1246.25 140.4 1246.25 140.4 1246.25 136.44 1280.63 140.4 1448.96 43.21 1448.96 47.17 1280.63 144.37"/><polygon class="cls-4" points="1414.6 39.25 1448.96 43.21 1280.63 140.4 1246.25 136.44 1246.25 136.44 1414.6 39.25"/><polygon class="cls-4" points="1256.58 134.45 1414.59 43.22 1438.9 45.06 1280.63 136.44 1256.58 134.45"/><polygon class="cls-4" points="1211.92 104.7 1246.25 132.49 1407.73 39.25 1373.38 11.48 1211.92 104.7"/><line class="cls-4" x1="1214.78" y1="107.02" x2="1376.24" y2="13.8"/><line class="cls-4" x1="1217.65" y1="109.33" x2="1379.1" y2="16.11"/><line class="cls-4" x1="1220.51" y1="111.65" x2="1381.96" y2="18.42"/><line class="cls-4" x1="1384.83" y1="20.74" x2="1223.37" y2="113.96"/><line class="cls-4" x1="1226.23" y1="116.28" x2="1387.69" y2="23.05"/><line class="cls-4" x1="1390.55" y1="25.37" x2="1229.08" y2="118.59"/><line class="cls-4" x1="1231.95" y1="120.91" x2="1393.41" y2="27.68"/><line class="cls-4" x1="1396.28" y1="29.99" x2="1234.81" y2="123.22"/><line class="cls-4" x1="1237.66" y1="125.53" x2="1399.14" y2="32.31"/><line class="cls-4" x1="1402" y1="34.62" x2="1240.53" y2="127.85"/><line class="cls-4" x1="1243.39" y1="130.17" x2="1404.86" y2="36.94"/><line class="cls-4" x1="1215.36" y1="102.72" x2="1249.71" y2="130.49"/><line class="cls-4" x1="1218.8" y1="100.74" x2="1253.15" y2="128.5"/><line class="cls-4" x1="1222.23" y1="98.75" x2="1256.58" y2="126.52"/><line class="cls-4" x1="1225.67" y1="96.77" x2="1259.99" y2="124.52"/><line class="cls-4" x1="1229.1" y1="94.79" x2="1263.45" y2="122.55"/><line class="cls-4" x1="1232.54" y1="92.8" x2="1266.89" y2="120.57"/><line class="cls-4" x1="1235.97" y1="90.82" x2="1270.32" y2="118.59"/><line class="cls-4" x1="1239.41" y1="88.84" x2="1273.76" y2="116.6"/><line class="cls-4" x1="1242.84" y1="86.85" x2="1277.19" y2="114.62"/><line class="cls-4" x1="1246.28" y1="84.87" x2="1280.63" y2="112.64"/><line class="cls-4" x1="1249.71" y1="82.88" x2="1284.06" y2="110.65"/><line class="cls-4" x1="1253.15" y1="80.9" x2="1287.5" y2="108.67"/><line class="cls-4" x1="1256.58" y1="78.92" x2="1290.93" y2="106.69"/><line class="cls-4" x1="1260.02" y1="76.93" x2="1294.37" y2="104.7"/><line class="cls-4" x1="1263.45" y1="74.95" x2="1297.8" y2="102.72"/><line class="cls-4" x1="1266.89" y1="72.97" x2="1301.24" y2="100.74"/><line class="cls-4" x1="1270.32" y1="70.98" x2="1304.67" y2="98.75"/><line class="cls-4" x1="1273.76" y1="69" x2="1308.11" y2="96.77"/><line class="cls-4" x1="1277.19" y1="67.02" x2="1311.54" y2="94.79"/><line class="cls-4" x1="1280.64" y1="65.04" x2="1314.98" y2="92.8"/><line class="cls-4" x1="1284.06" y1="63.05" x2="1318.4" y2="90.81"/><line class="cls-4" x1="1287.5" y1="61.07" x2="1321.85" y2="88.84"/><line class="cls-4" x1="1290.93" y1="59.08" x2="1325.28" y2="86.85"/><line class="cls-4" x1="1294.37" y1="57.1" x2="1328.72" y2="84.87"/><line class="cls-4" x1="1297.8" y1="55.12" x2="1332.15" y2="82.88"/><line class="cls-4" x1="1301.23" y1="53.14" x2="1335.59" y2="80.9"/><line class="cls-4" x1="1304.67" y1="51.15" x2="1339.02" y2="78.92"/><line class="cls-4" x1="1308.11" y1="49.17" x2="1342.47" y2="76.93"/><line class="cls-4" x1="1311.54" y1="47.18" x2="1345.89" y2="74.95"/><line class="cls-4" x1="1314.98" y1="45.2" x2="1349.33" y2="72.97"/><line class="cls-4" x1="1318.4" y1="43.21" x2="1352.76" y2="70.98"/><line class="cls-4" x1="1321.85" y1="41.23" x2="1356.2" y2="69"/><line class="cls-4" x1="1325.29" y1="39.25" x2="1359.63" y2="67.02"/><line class="cls-4" x1="1328.72" y1="37.27" x2="1363.01" y2="65.03"/><line class="cls-4" x1="1332.15" y1="35.28" x2="1366.5" y2="63.05"/><line class="cls-4" x1="1335.59" y1="33.3" x2="1369.94" y2="61.07"/><line class="cls-4" x1="1339.02" y1="31.32" x2="1373.37" y2="59.08"/><line class="cls-4" x1="1342.47" y1="29.34" x2="1376.82" y2="57.1"/><line class="cls-4" x1="1345.89" y1="27.35" x2="1380.25" y2="55.12"/><line class="cls-4" x1="1349.33" y1="25.37" x2="1383.68" y2="53.13"/><line class="cls-4" x1="1352.76" y1="23.38" x2="1387.12" y2="51.15"/><line class="cls-4" x1="1356.2" y1="21.4" x2="1390.55" y2="49.17"/><line class="cls-4" x1="1359.64" y1="19.42" x2="1393.99" y2="47.18"/><line class="cls-4" x1="1363.07" y1="17.43" x2="1397.42" y2="45.2"/><line class="cls-4" x1="1366.5" y1="15.45" x2="1400.84" y2="43.21"/><line class="cls-4" x1="1369.94" y1="13.46" x2="1404.29" y2="41.23"/><line class="cls-4" x1="1420.66" y1="43.68" x2="1262.59" y2="134.95"/><line class="cls-4" x1="1268.6" y1="135.45" x2="1426.74" y2="44.14"/><line class="cls-4" x1="1432.81" y1="44.6" x2="1274.62" y2="135.94"/><line class="cls-4" x1="1260.04" y1="132.49" x2="1284.06" y2="134.45"/><line class="cls-4" x1="1263.45" y1="130.49" x2="1287.52" y2="132.49"/><line class="cls-4" x1="1266.89" y1="128.5" x2="1290.93" y2="130.49"/><line class="cls-4" x1="1270.32" y1="126.52" x2="1294.37" y2="128.5"/><line class="cls-4" x1="1273.78" y1="124.52" x2="1297.8" y2="126.52"/><line class="cls-4" x1="1277.19" y1="122.55" x2="1301.26" y2="124.52"/><line class="cls-4" x1="1280.63" y1="120.57" x2="1304.67" y2="122.55"/><line class="cls-4" x1="1284.06" y1="118.59" x2="1308.11" y2="120.57"/><line class="cls-4" x1="1287.5" y1="116.6" x2="1311.55" y2="118.59"/><line class="cls-4" x1="1290.93" y1="114.62" x2="1314.98" y2="116.6"/><line class="cls-4" x1="1294.37" y1="112.64" x2="1318.42" y2="114.62"/><line class="cls-4" x1="1297.8" y1="110.65" x2="1321.85" y2="112.64"/><line class="cls-4" x1="1301.24" y1="108.67" x2="1325.29" y2="110.65"/><line class="cls-4" x1="1304.67" y1="106.69" x2="1328.72" y2="108.67"/><line class="cls-4" x1="1308.11" y1="104.7" x2="1332.15" y2="106.69"/><line class="cls-4" x1="1311.54" y1="102.72" x2="1335.59" y2="104.7"/><line class="cls-4" x1="1314.98" y1="100.74" x2="1339.03" y2="102.72"/><line class="cls-4" x1="1318.4" y1="98.76" x2="1342.46" y2="100.74"/><line class="cls-4" x1="1321.85" y1="96.77" x2="1345.91" y2="98.76"/><line class="cls-4" x1="1325.28" y1="94.79" x2="1349.33" y2="96.77"/><line class="cls-4" x1="1328.72" y1="92.8" x2="1352.76" y2="94.79"/><line class="cls-4" x1="1332.15" y1="90.82" x2="1356.2" y2="92.8"/><line class="cls-4" x1="1335.59" y1="88.84" x2="1359.66" y2="90.81"/><line class="cls-4" x1="1339.02" y1="86.85" x2="1363.07" y2="88.84"/><line class="cls-4" x1="1342.46" y1="84.87" x2="1366.5" y2="86.85"/><line class="cls-4" x1="1345.89" y1="82.88" x2="1369.94" y2="84.87"/><line class="cls-4" x1="1349.33" y1="80.9" x2="1373.38" y2="82.88"/><line class="cls-4" x1="1352.76" y1="78.92" x2="1376.81" y2="80.91"/><line class="cls-4" x1="1356.2" y1="76.93" x2="1380.25" y2="78.92"/><line class="cls-4" x1="1359.63" y1="74.95" x2="1383.68" y2="76.93"/><line class="cls-4" x1="1363.07" y1="72.97" x2="1387.12" y2="74.95"/><line class="cls-4" x1="1366.5" y1="70.99" x2="1390.55" y2="72.97"/><line class="cls-4" x1="1369.94" y1="69" x2="1393.98" y2="70.99"/><line class="cls-4" x1="1373.37" y1="67.02" x2="1397.42" y2="69"/><line class="cls-4" x1="1376.8" y1="65.04" x2="1400.86" y2="67.02"/><line class="cls-4" x1="1380.24" y1="63.05" x2="1404.3" y2="65.03"/><line class="cls-4" x1="1383.68" y1="61.07" x2="1407.72" y2="63.05"/><line class="cls-4" x1="1387.12" y1="59.08" x2="1411.16" y2="61.07"/><line class="cls-4" x1="1390.55" y1="57.1" x2="1414.61" y2="59.08"/><line class="cls-4" x1="1393.98" y1="55.12" x2="1418.03" y2="57.11"/><line class="cls-4" x1="1397.42" y1="53.13" x2="1421.46" y2="55.12"/><line class="cls-4" x1="1400.86" y1="51.15" x2="1424.9" y2="53.13"/><line class="cls-4" x1="1404.3" y1="49.17" x2="1428.34" y2="51.15"/><line class="cls-4" x1="1407.72" y1="47.18" x2="1431.77" y2="49.17"/><line class="cls-4" x1="1411.16" y1="45.2" x2="1435.21" y2="47.19"/><polyline class="cls-4" points="1480.88 271.6 1480.88 272.11 1453.4 287.98 1443.1 282.03 1443.1 281.52"/><polyline class="cls-4" points="1470.58 265.66 1443.1 281.52 1443.1 281.52 1453.4 287.47 1480.88 271.6 1480.88 271.6 1470.58 265.66"/><line class="cls-4" x1="1453.4" y1="287.98" x2="1453.4" y2="287.47"/><polyline class="cls-4" points="1453.4 232.46 1453.4 280.06 1456.84 282.04 1470.58 274.11 1470.58 226.5"/><line class="cls-4" x1="1456.84" y1="234.44" x2="1456.84" y2="282.04"/><polygon class="cls-4" points="1460.27 236.42 1467.14 232.46 1467.14 244.36 1460.27 248.32 1460.27 236.42"/><polyline class="cls-4" points="1463.71 234.44 1463.71 242.37 1460.27 244.36"/><line class="cls-4" x1="1463.71" y1="242.37" x2="1467.14" y2="244.36"/><polygon class="cls-4" points="1454.26 236.92 1455.98 237.91 1455.98 241.88 1454.26 240.88 1454.26 236.92"/><polygon class="cls-4" points="1460.27 252.29 1460.27 256.26 1467.14 252.29 1467.14 248.32 1460.27 252.29"/><polyline class="cls-4" points="1460.27 255.56 1466.32 252.07 1464.93 249.6"/><polygon class="cls-4" points="1460.27 260.22 1460.27 268.16 1467.14 264.19 1467.14 256.26 1460.27 260.22"/><line class="cls-4" x1="1460.27" y1="264.19" x2="1467.14" y2="260.22"/><line class="cls-4" x1="1463.71" y1="258.24" x2="1463.71" y2="266.17"/><line class="cls-4" x1="1463.13" y1="258.58" x2="1463.13" y2="262.54"/><polygon class="cls-4" points="1460.86 264.53 1463.13 263.21 1463.13 265.84 1460.86 267.15 1460.86 264.53"/><polygon class="cls-4" points="1464.31 262.55 1466.55 261.26 1466.55 263.85 1464.31 265.14 1464.31 262.55"/><line class="cls-4" x1="1464.31" y1="257.92" x2="1464.31" y2="261.89"/><line class="cls-4" x1="1465.43" y1="249.31" x2="1467.14" y2="252.29"/><line class="cls-4" x1="1463.13" y1="258.58" x2="1463.13" y2="262.54"/><polygon class="cls-4" points="1453.4 232.46 1456.84 234.44 1470.58 226.5 1470.58 226.5 1467.14 224.52 1453.4 232.46 1453.4 232.46"/><ellipse class="cls-4" cx="1465.48" cy="263.2" rx="0.96" ry="0.55" transform="translate(456.86 1358.46) rotate(-57.54)"/><polyline class="cls-4" points="1464.96 264.01 1466.65 265.09 1467.69 263.46 1466.03 262.41"/><ellipse class="cls-4" cx="1467.17" cy="264.27" rx="0.96" ry="0.55" transform="translate(456.74 1360.38) rotate(-57.54)"/><ellipse class="cls-4" cx="1462.03" cy="265.21" rx="0.96" ry="0.55" transform="translate(453.57 1356.48) rotate(-57.54)"/><polyline class="cls-4" points="1461.51 266.02 1463.2 267.1 1464.23 265.47 1462.58 264.42"/><ellipse class="cls-4" cx="1463.72" cy="266.28" rx="0.96" ry="0.55" transform="translate(453.44 1358.4) rotate(-57.54)"/><polygon class="cls-4" points="1454.77 238.39 1455.47 238.79 1455.47 240.4 1454.77 240 1454.77 238.39"/><path class="cls-5" d="M1455.09,239.4h0a7.86,7.86,0,0,0-3.7,8.69l3.56,14.4c1,3.85,5,5.91,8.43,4l.34-.18"/><path class="cls-5" d="M1470.59,254.27l.75,2a6,6,0,0,1-4.28,8h0"/><polyline class="cls-4" points="1528.98 243.84 1528.98 244.36 1508.37 256.26 1498.06 250.31 1498.06 249.78"/><polygon class="cls-4" points="1498.06 249.79 1508.37 255.74 1528.97 243.84 1528.97 243.83 1518.67 237.88 1498.06 249.78 1498.06 249.79"/><line class="cls-4" x1="1508.37" y1="256.26" x2="1508.37" y2="255.74"/><polyline class="cls-4" points="1504.93 170.97 1504.93 250.31 1508.37 252.29 1522.11 244.36 1522.11 168.99"/><line class="cls-4" x1="1508.37" y1="252.29" x2="1508.37" y2="172.96"/><polyline class="cls-4" points="1583.94 212.11 1583.94 212.62 1556.46 228.49 1546.15 222.54 1546.15 222.02"/><polyline class="cls-4" points="1573.63 206.17 1546.15 222.02 1546.15 222.02 1556.46 227.97 1583.94 212.11 1583.94 212.11 1573.63 206.17"/><line class="cls-4" x1="1556.46" y1="228.49" x2="1556.46" y2="227.97"/><polyline class="cls-4" points="1556.46 172.96 1556.46 220.56 1559.89 222.55 1573.63 214.61 1573.63 167.01"/><line class="cls-4" x1="1559.89" y1="174.95" x2="1559.89" y2="222.55"/><polygon class="cls-4" points="1563.33 176.93 1570.2 172.96 1570.2 184.86 1563.33 188.83 1563.33 176.93"/><polyline class="cls-4" points="1566.76 174.94 1566.76 182.88 1563.33 184.86"/><line class="cls-4" x1="1566.76" y1="182.88" x2="1570.2" y2="184.86"/><polygon class="cls-4" points="1557.32 177.42 1559.03 178.42 1559.03 182.38 1557.32 181.39 1557.32 177.42"/><polygon class="cls-4" points="1563.33 192.8 1563.33 196.76 1570.2 192.8 1570.2 188.83 1563.33 192.8"/><polyline class="cls-4" points="1563.33 196.06 1569.37 192.57 1567.98 190.11"/><polygon class="cls-4" points="1563.33 200.73 1563.33 208.66 1570.2 204.7 1570.2 196.76 1563.33 200.73"/><line class="cls-4" x1="1563.33" y1="204.7" x2="1570.2" y2="200.73"/><line class="cls-4" x1="1566.76" y1="198.75" x2="1566.76" y2="206.68"/><line class="cls-4" x1="1566.18" y1="199.08" x2="1566.18" y2="203.05"/><polygon class="cls-4" points="1563.91 205.03 1566.18 203.72 1566.18 206.34 1563.91 207.66 1563.91 205.03"/><polygon class="cls-4" points="1567.36 203.06 1569.6 201.76 1569.6 204.35 1567.36 205.65 1567.36 203.06"/><line class="cls-4" x1="1567.36" y1="198.43" x2="1567.36" y2="202.39"/><line class="cls-4" x1="1568.48" y1="189.82" x2="1570.2" y2="192.8"/><line class="cls-4" x1="1566.18" y1="199.08" x2="1566.18" y2="203.05"/><polygon class="cls-4" points="1556.46 172.96 1559.89 174.94 1573.63 167.01 1573.63 167.01 1570.2 165.03 1556.46 172.96 1556.46 172.96"/><ellipse class="cls-4" cx="1568.53" cy="203.71" rx="0.96" ry="0.55" transform="translate(554.8 1417.85) rotate(-57.54)"/><polyline class="cls-4" points="1568.02 204.52 1569.7 205.59 1570.74 203.97 1569.08 202.91"/><ellipse class="cls-4" cx="1570.22" cy="204.78" rx="0.96" ry="0.55" transform="translate(554.68 1419.77) rotate(-57.54)"/><ellipse class="cls-4" cx="1565.08" cy="205.71" rx="0.96" ry="0.55" transform="translate(551.51 1415.87) rotate(-57.54)"/><polyline class="cls-4" points="1564.56 206.53 1566.25 207.6 1567.29 205.98 1565.63 204.92"/><ellipse class="cls-4" cx="1566.77" cy="206.79" rx="0.96" ry="0.55" transform="translate(551.39 1417.79) rotate(-57.54)"/><polygon class="cls-4" points="1557.83 178.9 1558.52 179.3 1558.52 180.91 1557.83 180.51 1557.83 178.9"/><path class="cls-5" d="M1558.14,179.9h0a7.87,7.87,0,0,0-3.7,8.7L1558,203c1,3.85,5,5.91,8.43,4l.34-.18"/><path class="cls-5" d="M1573.65,194.77l.75,2a6.06,6.06,0,0,1-4.28,8h0"/><polygon class="cls-4" points="1364.14 196.77 1364.14 200.73 1405.36 232.47 1405.36 232.47 1405.36 228.5 1364.14 196.77 1364.14 196.77"/><polygon class="cls-4" points="1364.14 196.76 1532.46 99.58 1573.68 131.31 1405.36 228.5 1364.14 196.77 1364.14 196.76"/><polygon class="cls-4" points="1439.71 236.43 1405.34 232.47 1405.33 232.47 1405.33 228.5 1439.71 232.47 1608.05 135.27 1608.05 139.24 1439.71 236.43"/><polygon class="cls-4" points="1573.68 131.31 1608.05 135.27 1439.71 232.47 1405.34 228.5 1405.34 228.5 1573.68 131.31"/><polygon class="cls-4" points="1415.66 226.52 1573.67 135.28 1597.98 137.12 1439.71 228.5 1415.66 226.52"/><polygon class="cls-4" points="1371.01 196.77 1405.33 224.55 1566.81 131.31 1532.46 103.54 1371.01 196.77"/><line class="cls-4" x1="1373.87" y1="199.08" x2="1535.32" y2="105.86"/><line class="cls-4" x1="1376.73" y1="201.4" x2="1538.18" y2="108.17"/><line class="cls-4" x1="1379.6" y1="203.72" x2="1541.05" y2="110.49"/><line class="cls-4" x1="1543.91" y1="112.8" x2="1382.45" y2="206.03"/><line class="cls-4" x1="1385.31" y1="208.34" x2="1546.77" y2="115.11"/><line class="cls-4" x1="1549.63" y1="117.43" x2="1388.16" y2="210.65"/><line class="cls-4" x1="1391.03" y1="212.97" x2="1552.5" y2="119.74"/><line class="cls-4" x1="1555.36" y1="122.06" x2="1393.89" y2="215.29"/><line class="cls-4" x1="1396.74" y1="217.59" x2="1558.22" y2="124.37"/><line class="cls-4" x1="1561.08" y1="126.68" x2="1399.61" y2="219.92"/><line class="cls-4" x1="1402.47" y1="222.23" x2="1563.95" y2="129"/><line class="cls-4" x1="1374.44" y1="194.78" x2="1408.79" y2="222.55"/><line class="cls-4" x1="1377.88" y1="192.8" x2="1412.23" y2="220.57"/><line class="cls-4" x1="1381.31" y1="190.81" x2="1415.66" y2="218.58"/><line class="cls-4" x1="1384.75" y1="188.83" x2="1419.07" y2="216.58"/><line class="cls-4" x1="1388.18" y1="186.85" x2="1422.54" y2="214.62"/><line class="cls-4" x1="1391.62" y1="184.86" x2="1425.97" y2="212.63"/><line class="cls-4" x1="1395.05" y1="182.88" x2="1429.41" y2="210.65"/><line class="cls-4" x1="1398.49" y1="180.9" x2="1432.84" y2="208.67"/><line class="cls-4" x1="1401.92" y1="178.91" x2="1436.28" y2="206.68"/><line class="cls-4" x1="1405.36" y1="176.93" x2="1439.71" y2="204.7"/><line class="cls-4" x1="1408.79" y1="174.95" x2="1443.15" y2="202.72"/><line class="cls-4" x1="1412.23" y1="172.96" x2="1446.58" y2="200.73"/><line class="cls-4" x1="1415.66" y1="170.98" x2="1450.02" y2="198.75"/><line class="cls-4" x1="1419.1" y1="169" x2="1453.45" y2="196.77"/><line class="cls-4" x1="1422.54" y1="167.01" x2="1456.89" y2="194.78"/><line class="cls-4" x1="1425.97" y1="165.03" x2="1460.32" y2="192.8"/><line class="cls-4" x1="1429.41" y1="163.05" x2="1463.76" y2="190.81"/><line class="cls-4" x1="1432.84" y1="161.06" x2="1467.19" y2="188.83"/><line class="cls-4" x1="1436.28" y1="159.08" x2="1470.63" y2="186.85"/><line class="cls-4" x1="1439.72" y1="157.1" x2="1474.06" y2="184.86"/><line class="cls-4" x1="1443.15" y1="155.11" x2="1477.48" y2="182.87"/><line class="cls-4" x1="1446.58" y1="153.13" x2="1480.93" y2="180.9"/><line class="cls-4" x1="1450.02" y1="151.15" x2="1484.37" y2="178.91"/><line class="cls-4" x1="1453.45" y1="149.16" x2="1487.8" y2="176.93"/><line class="cls-4" x1="1456.89" y1="147.18" x2="1491.24" y2="174.95"/><line class="cls-4" x1="1460.31" y1="145.2" x2="1494.67" y2="172.96"/><line class="cls-4" x1="1463.76" y1="143.21" x2="1498.1" y2="170.98"/><line class="cls-4" x1="1467.19" y1="141.23" x2="1501.55" y2="168.99"/><line class="cls-4" x1="1470.63" y1="139.25" x2="1504.98" y2="167.01"/><line class="cls-4" x1="1474.06" y1="137.26" x2="1508.41" y2="165.03"/><line class="cls-4" x1="1477.48" y1="135.27" x2="1511.85" y2="163.05"/><line class="cls-4" x1="1480.93" y1="133.3" x2="1515.28" y2="161.06"/><line class="cls-4" x1="1484.37" y1="131.31" x2="1518.72" y2="159.08"/><line class="cls-4" x1="1487.8" y1="129.33" x2="1522.1" y2="157.1"/><line class="cls-4" x1="1491.24" y1="127.34" x2="1525.58" y2="155.11"/><line class="cls-4" x1="1494.67" y1="125.36" x2="1529.02" y2="153.13"/><line class="cls-4" x1="1498.11" y1="123.38" x2="1532.46" y2="151.15"/><line class="cls-4" x1="1501.55" y1="121.4" x2="1535.9" y2="149.16"/><line class="cls-4" x1="1504.98" y1="119.41" x2="1539.33" y2="147.18"/><line class="cls-4" x1="1508.41" y1="117.43" x2="1542.76" y2="145.2"/><line class="cls-4" x1="1511.85" y1="115.44" x2="1546.2" y2="143.21"/><line class="cls-4" x1="1515.28" y1="113.46" x2="1549.63" y2="141.23"/><line class="cls-4" x1="1518.73" y1="111.48" x2="1553.07" y2="139.25"/><line class="cls-4" x1="1522.15" y1="109.49" x2="1556.5" y2="137.26"/><line class="cls-4" x1="1525.59" y1="107.51" x2="1559.92" y2="135.27"/><line class="cls-4" x1="1529.02" y1="105.53" x2="1563.37" y2="133.3"/><line class="cls-4" x1="1579.74" y1="135.74" x2="1421.68" y2="227.01"/><line class="cls-4" x1="1427.69" y1="227.51" x2="1585.82" y2="136.2"/><line class="cls-4" x1="1591.9" y1="136.66" x2="1433.7" y2="228"/><line class="cls-4" x1="1419.13" y1="224.55" x2="1443.15" y2="226.52"/><line class="cls-4" x1="1422.54" y1="222.55" x2="1446.61" y2="224.55"/><line class="cls-4" x1="1425.97" y1="220.57" x2="1450.02" y2="222.55"/><line class="cls-4" x1="1429.41" y1="218.58" x2="1453.45" y2="220.57"/><line class="cls-4" x1="1432.87" y1="216.58" x2="1456.89" y2="218.58"/><line class="cls-4" x1="1436.28" y1="214.62" x2="1460.35" y2="216.58"/><line class="cls-4" x1="1439.71" y1="212.63" x2="1463.76" y2="214.62"/><line class="cls-4" x1="1443.15" y1="210.65" x2="1467.19" y2="212.63"/><line class="cls-4" x1="1446.58" y1="208.67" x2="1470.63" y2="210.65"/><line class="cls-4" x1="1450.02" y1="206.68" x2="1474.06" y2="208.67"/><line class="cls-4" x1="1453.45" y1="204.7" x2="1477.5" y2="206.68"/><line class="cls-4" x1="1456.89" y1="202.72" x2="1480.93" y2="204.7"/><line class="cls-4" x1="1460.32" y1="200.73" x2="1484.37" y2="202.72"/><line class="cls-4" x1="1463.76" y1="198.75" x2="1487.8" y2="200.73"/><line class="cls-4" x1="1467.19" y1="196.77" x2="1491.24" y2="198.75"/><line class="cls-4" x1="1470.63" y1="194.78" x2="1494.67" y2="196.77"/><line class="cls-4" x1="1474.06" y1="192.8" x2="1498.11" y2="194.78"/><line class="cls-4" x1="1477.48" y1="190.82" x2="1501.54" y2="192.8"/><line class="cls-4" x1="1480.93" y1="188.83" x2="1504.99" y2="190.82"/><line class="cls-4" x1="1484.37" y1="186.85" x2="1508.41" y2="188.83"/><line class="cls-4" x1="1487.8" y1="184.86" x2="1511.85" y2="186.85"/><line class="cls-4" x1="1491.24" y1="182.88" x2="1515.28" y2="184.86"/><line class="cls-4" x1="1494.67" y1="180.9" x2="1518.74" y2="182.87"/><line class="cls-4" x1="1498.1" y1="178.92" x2="1522.15" y2="180.9"/><line class="cls-4" x1="1501.54" y1="176.93" x2="1525.59" y2="178.91"/><line class="cls-4" x1="1504.98" y1="174.95" x2="1529.02" y2="176.93"/><line class="cls-4" x1="1508.41" y1="172.96" x2="1532.46" y2="174.95"/><line class="cls-4" x1="1511.85" y1="170.98" x2="1535.89" y2="172.97"/><line class="cls-4" x1="1515.28" y1="169" x2="1539.34" y2="170.98"/><line class="cls-4" x1="1518.72" y1="167.01" x2="1542.76" y2="169"/><line class="cls-4" x1="1522.15" y1="165.03" x2="1546.2" y2="167.01"/><line class="cls-4" x1="1525.58" y1="163.05" x2="1549.63" y2="165.03"/><line class="cls-4" x1="1529.02" y1="161.06" x2="1553.06" y2="163.05"/><line class="cls-4" x1="1532.46" y1="159.08" x2="1556.5" y2="161.06"/><line class="cls-4" x1="1535.88" y1="157.1" x2="1559.94" y2="159.08"/><line class="cls-4" x1="1539.32" y1="155.11" x2="1563.38" y2="157.1"/><line class="cls-4" x1="1542.76" y1="153.13" x2="1566.81" y2="155.11"/><line class="cls-4" x1="1546.2" y1="151.15" x2="1570.24" y2="153.13"/><line class="cls-4" x1="1549.63" y1="149.16" x2="1573.69" y2="151.15"/><line class="cls-4" x1="1553.06" y1="147.18" x2="1577.11" y2="149.17"/><line class="cls-4" x1="1556.5" y1="145.2" x2="1580.55" y2="147.18"/><line class="cls-4" x1="1559.94" y1="143.21" x2="1583.98" y2="145.2"/><line class="cls-4" x1="1563.38" y1="141.23" x2="1587.42" y2="143.21"/><line class="cls-4" x1="1566.81" y1="139.24" x2="1590.86" y2="141.23"/><line class="cls-4" x1="1570.24" y1="137.26" x2="1594.29" y2="139.25"/><path class="cls-4" d="M618.13,1628.74v8.69l-5.26-3a4.55,4.55,0,0,1-2.27-3.93v-6.07"/><ellipse class="cls-4" cx="619.79" cy="1631.13" rx="6.61" ry="4.89" transform="translate(-1086.99 1993.98) rotate(-81.2)"/><ellipse class="cls-4" cx="619.79" cy="1631.13" rx="3.67" ry="2.72" transform="matrix(0.15, -0.99, 0.99, 0.15, -1086.99, 1993.98)"/><path class="cls-4" d="M588,1646.11v8.7l-5.26-3a4.53,4.53,0,0,1-2.27-3.93v-6.07"/><ellipse class="cls-4" cx="589.69" cy="1648.51" rx="6.61" ry="4.89" transform="matrix(0.15, -0.99, 0.99, 0.15, -1129.66, 1978.95)"/><ellipse class="cls-4" cx="589.69" cy="1648.51" rx="3.67" ry="2.72" transform="translate(-1129.66 1978.95) rotate(-81.2)"/><path class="cls-4" d="M597.84,1594.8l4-2.33a12.62,12.62,0,0,1,12.75.09L633,1603.5"/><path class="cls-4" d="M620.42,1607.84l-22.58-13a15.06,15.06,0,0,0-15.06,0L568.62,1603a36.28,36.28,0,0,0-13.29,13.29l-2.67,4.62-7.95,4.59a6.66,6.66,0,0,0-3.34,5.78v13.36L564,1657.83h0V1644.3a6.68,6.68,0,0,1,3.33-5.78l8.83-5.1"/><path class="cls-4" d="M575.25,1642.62v-3.37a19.88,19.88,0,0,1,2.66-9.93h0a36.33,36.33,0,0,1,13.3-13.3l14.15-8.18a15.06,15.06,0,0,1,15.06,0h0l7.53-4.34a5,5,0,0,1,7.53,4.26v.08l-3.77,10.87-7.52,4.37-2.74-.53a7.2,7.2,0,0,0-8.56,7.06h0l-18.82,10.82-2.73-.53a7.2,7.2,0,0,0-8.56,7.07h0L564,1657.83"/><line class="cls-4" x1="561.34" y1="1608.51" x2="584.49" y2="1621.01"/><polyline class="cls-5" points="635.48 1607.76 563.96 1649.14 541.37 1636.1"/><path class="cls-4" d="M586.5,1636.1h0a22.7,22.7,0,0,1,11.3-19.59l5.15-3a13.71,13.71,0,0,1,17.36,3h0"/><line class="cls-4" x1="552.66" y1="1620.89" x2="576.12" y2="1633.42"/><line class="cls-4" x1="601.85" y1="1614.17" x2="601.85" y2="1635.95"/><path class="cls-4" d="M564,1649.13l-7.53-4.34h0a7,7,0,0,0,3.9,6.26h0a7.07,7.07,0,0,0,3.63.7Z"/><path class="cls-4" d="M541.38,1636.1l7.52,4.36h0a6,6,0,0,1-7.53-.37Z"/><path class="cls-4" d="M631.82,1602.82l-2.76,1.57a1.84,1.84,0,0,0,0,3.18h0l2.33-1.12a6.46,6.46,0,0,0,2.59-2.2l-1-.75Z"/><line class="cls-4" x1="586.5" y1="1636.1" x2="620.31" y2="1616.54"/><polyline class="cls-6" points="862.44 1329.74 862.44 1570.7 806.21 1603.17 768.72 1581.52 768.72 1340.57"/><polyline class="cls-6" points="768.72 1343.39 806.21 1365.04 862.44 1332.57"/><polygon class="cls-6" points="824.95 1308.1 768.72 1340.56 768.72 1340.57 806.21 1362.21 862.44 1329.74 862.44 1329.74 824.95 1308.1"/><polygon class="cls-6" points="824.95 1310.92 773.62 1340.56 806.21 1359.38 857.57 1329.73 824.95 1310.92"/><polyline class="cls-6" points="855.21 1331.2 824.95 1313.73 776.05 1341.97"/><line class="cls-6" x1="824.95" y1="1310.92" x2="824.95" y2="1313.73"/><line class="cls-6" x1="806.21" y1="1362.21" x2="806.21" y2="1603.17"/><polyline class="cls-6" points="1349.75 831.93 1349.76 1116.12 1274.78 1159.42 1199.8 1116.12 1199.81 831.93"/><polyline class="cls-6" points="1199.8 834.72 1274.78 878.01 1349.76 834.72"/><polygon class="cls-6" points="1274.78 788.64 1199.81 831.93 1199.81 831.93 1274.78 875.22 1349.75 831.93 1349.75 831.93 1274.78 788.64"/><polygon class="cls-6" points="1274.78 791.43 1204.69 831.93 1274.78 872.39 1344.89 831.91 1274.78 791.43"/><polyline class="cls-6" points="1342.44 833.33 1274.78 794.26 1207.12 833.33"/><line class="cls-6" x1="1274.78" y1="791.43" x2="1274.78" y2="794.26"/><line class="cls-6" x1="1274.78" y1="875.22" x2="1274.78" y2="1159.42"/><polygon class="cls-6" points="1293.52 823.9 1274.78 834.72 1256.03 823.9 1256.03 780.61 1274.78 769.78 1293.52 791.43 1293.52 823.9"/><polyline class="cls-6" points="1256.03 780.61 1274.78 802.25 1293.52 791.43"/><line class="cls-6" x1="1274.78" y1="802.25" x2="1274.78" y2="834.72"/><polyline class="cls-6" points="937.37 73.96 937.37 314.96 1031.09 369.07 1106.06 325.79 1106.06 84.78"/><polyline class="cls-6" points="937.36 76.87 1031.08 130.99 1106.06 87.69"/><polygon class="cls-6" points="1106.06 84.78 1012.34 30.67 937.37 73.96 937.37 73.96 1031.08 128.07 1106.06 84.78 1106.06 84.78"/><polygon class="cls-6" points="1012.34 33.58 1101.07 84.81 1031.08 125.22 942.35 73.99 1012.34 33.58"/><polyline class="cls-6" points="1098.62 86.24 1012.34 36.42 944.81 75.41"/><line class="cls-6" x1="1012.34" y1="33.58" x2="1012.34" y2="36.42"/><line class="cls-6" x1="1031.08" y1="128.07" x2="1031.09" y2="369.08"/><polyline class="cls-7" points="1068.58 77.35 1068.58 87.69 1031.09 109.34 1012.34 98.52 1012.34 88.41"/><polyline class="cls-7" points="1068.57 79.22 1031.09 100.87 1012.34 90.05"/><polyline class="cls-7" points="1017.23 89.1 1049.83 70.28 1063.69 78.28"/><polygon class="cls-7" points="1012.35 88.15 1049.83 66.51 1068.57 77.33 1068.57 77.33 1031.09 98.98 1012.35 88.16 1012.35 88.15"/><polygon class="cls-7" points="1049.83 68.4 1015.59 88.16 1031.09 97.11 1065.32 77.34 1049.83 68.4"/><line class="cls-7" x1="1049.83" y1="68.4" x2="1049.83" y2="70.28"/><line class="cls-7" x1="1031.09" y1="109.34" x2="1031.09" y2="98.98"/><polyline class="cls-6" points="1143.57 214.89 1143.57 434.26 1199.8 466.73 1274.78 423.44 1274.77 204.06"/><polyline class="cls-6" points="1274.78 206.98 1199.8 250.27 1143.57 217.8"/><polygon class="cls-6" points="1218.55 171.59 1274.77 204.06 1274.77 204.07 1199.8 247.36 1143.57 214.89 1143.57 214.88 1218.55 171.59"/><polygon class="cls-6" points="1218.55 174.51 1148.55 214.92 1199.8 244.51 1269.79 204.1 1218.55 174.51"/><polyline class="cls-6" points="1150.99 216.34 1218.55 177.34 1267.34 205.51"/><line class="cls-6" x1="1199.8" y1="247.36" x2="1199.8" y2="466.73"/><line class="cls-6" x1="1218.54" y1="174.51" x2="1218.54" y2="177.34"/><polyline class="cls-7" points="1181.06 194.28 1181.06 217.8 1199.8 228.62 1218.55 217.8 1218.55 194.28"/><line class="cls-7" x1="1199.8" y1="205.11" x2="1199.8" y2="228.62"/><polyline class="cls-7" points="1213.68 195.22 1199.8 187.21 1186.08 195.31"/><polyline class="cls-7" points="1181.06 196.15 1199.8 206.98 1218.55 196.15"/><polygon class="cls-7" points="1199.8 183.46 1181.06 194.28 1181.06 194.29 1199.8 205.11 1218.54 194.29 1218.54 194.28 1199.8 183.46"/><polygon class="cls-7" points="1199.8 185.33 1184.3 194.28 1199.8 203.24 1215.31 194.28 1199.8 185.33"/><line class="cls-7" x1="1199.8" y1="185.33" x2="1199.8" y2="187.21"/><polyline class="cls-6" points="1537.2 1048.39 1537.2 1224.37 1462.21 1267.65 1387.25 1224.37 1387.25 1048.39"/><polyline class="cls-6" points="1387.25 1051.18 1462.23 1094.48 1537.2 1051.18"/><polygon class="cls-6" points="1462.23 1005.1 1387.25 1048.39 1387.25 1048.39 1462.23 1091.68 1537.2 1048.39 1537.2 1048.39 1462.23 1005.1"/><polygon class="cls-6" points="1462.23 1007.89 1392.14 1048.39 1462.23 1088.86 1532.34 1048.38 1462.23 1007.89"/><polyline class="cls-6" points="1529.89 1049.79 1462.23 1010.72 1394.56 1049.79"/><line class="cls-6" x1="1462.23" y1="1007.89" x2="1462.23" y2="1010.72"/><line class="cls-6" x1="1462.23" y1="1091.68" x2="1462.21" y2="1267.65"/><polyline class="cls-7" points="1424.75 1049.3 1424.75 1051.18 1462.24 1072.83 1499.73 1051.18 1499.73 1049.3"/><polygon class="cls-7" points="1462.24 1027.65 1424.76 1049.29 1424.76 1049.3 1462.24 1070.94 1499.72 1049.3 1499.72 1049.29 1462.24 1027.65"/><line class="cls-7" x1="1462.24" y1="1072.83" x2="1462.24" y2="1070.94"/><polyline class="cls-7" points="1443.49 1030.61 1443.49 1050.24 1462.24 1061.06 1480.98 1050.24 1480.98 1030.61"/><line class="cls-7" x1="1462.24" y1="1061.06" x2="1462.24" y2="1039.42"/><polyline class="cls-7" points="1439.78 1026.2 1439.78 1028.46 1462.24 1041.43 1484.7 1028.46 1484.7 1026.2"/><polygon class="cls-7" points="1462.24 1013.23 1439.78 1026.2 1439.78 1026.2 1462.24 1039.17 1484.7 1026.2 1484.7 1026.2 1462.24 1013.23"/><line class="cls-7" x1="1462.24" y1="1041.43" x2="1462.24" y2="1039.17"/><polyline class="cls-6" points="637.47 593.78 637.46 791.4 693.7 823.86 824.9 748.1 824.9 550.48"/><polyline class="cls-6" points="637.46 596.58 693.7 629.05 824.91 553.29"/><polygon class="cls-6" points="824.9 550.48 768.67 518.01 637.47 593.77 637.47 593.78 693.7 626.24 824.9 550.48 824.9 550.48"/><polygon class="cls-6" points="768.67 520.82 820.04 550.47 693.7 623.42 642.33 593.77 768.67 520.82"/><polyline class="cls-6" points="817.6 551.88 768.67 523.63 644.77 595.18"/><line class="cls-6" x1="768.67" y1="520.82" x2="768.67" y2="523.63"/><line class="cls-6" x1="693.69" y1="823.86" x2="693.69" y2="626.24"/><polygon class="cls-6" points="674.95 596.58 693.7 607.4 712.44 596.58 712.44 553.29 693.7 542.46 674.95 564.11 674.95 596.58"/><polyline class="cls-6" points="712.44 553.29 693.7 574.93 674.95 564.11"/><line class="cls-6" x1="693.69" y1="574.93" x2="693.69" y2="607.4"/><polyline class="cls-7" points="787.42 551.4 787.42 553.29 749.93 574.93 731.19 564.11 731.19 562.22"/><polygon class="cls-7" points="768.68 540.58 731.19 562.22 731.19 562.22 749.93 573.04 787.42 551.4 787.42 551.39 768.68 540.58"/><line class="cls-7" x1="749.93" y1="574.93" x2="749.93" y2="573.04"/><polyline class="cls-6" points="618.7 258.27 618.73 434.28 543.73 477.56 506.24 455.9 506.24 279.92"/><polyline class="cls-6" points="506.23 282.75 543.72 304.4 618.7 261.11"/><polygon class="cls-6" points="506.24 279.93 543.72 301.57 618.7 258.28 618.7 258.27 581.21 236.63 506.24 279.92 506.24 279.93"/><polygon class="cls-6" points="581.21 239.46 511.11 279.94 543.72 298.77 613.82 258.29 581.21 239.46"/><polyline class="cls-6" points="611.38 259.7 581.21 242.28 513.55 281.35"/><line class="cls-6" x1="581.21" y1="239.46" x2="581.21" y2="242.28"/><line class="cls-6" x1="543.72" y1="301.57" x2="543.73" y2="477.56"/><polyline class="cls-6" points="674.95 161.34 674.94 337.3 731.17 369.77 787.43 337.29 787.4 161.34"/><polyline class="cls-6" points="674.94 164.14 731.17 196.61 787.41 164.14"/><polygon class="cls-6" points="731.17 128.87 674.95 161.34 674.95 161.34 731.17 193.81 787.4 161.34 787.4 161.34 731.17 128.87"/><polygon class="cls-6" points="731.17 131.68 679.78 161.35 731.17 191.03 782.57 161.35 731.17 131.68"/><polyline class="cls-6" points="780.12 162.77 731.17 134.51 682.23 162.77"/><line class="cls-6" x1="731.17" y1="131.67" x2="731.17" y2="134.51"/><line class="cls-6" x1="731.17" y1="193.81" x2="731.17" y2="369.77"/><polyline class="cls-7" points="712.43 162.24 712.43 164.13 731.17 174.95 749.92 164.13 749.92 162.24"/><polygon class="cls-7" points="731.17 151.41 712.43 162.24 712.43 162.24 731.17 173.06 749.91 162.24 749.91 162.24 731.17 151.41"/><line class="cls-7" x1="731.17" y1="174.95" x2="731.17" y2="173.06"/><polyline class="cls-6" points="544.21 1102.24 544.23 1213.38 431.75 1278.33 356.77 1235.03 356.77 1123.89"/><polyline class="cls-6" points="356.77 1126.8 431.75 1170.09 544.22 1105.15"/><polygon class="cls-6" points="544.21 1102.23 469.24 1058.95 356.77 1123.88 356.77 1123.89 431.75 1167.18 544.21 1102.24 544.21 1102.23"/><polygon class="cls-6" points="469.24 1061.86 539.16 1102.23 431.75 1164.26 361.82 1123.88 469.24 1061.86"/><polyline class="cls-6" points="536.73 1103.64 469.24 1064.66 364.06 1125.17"/><line class="cls-6" x1="469.24" y1="1061.86" x2="469.24" y2="1064.87"/><line class="cls-6" x1="431.75" y1="1167.18" x2="431.75" y2="1278.33"/><polyline class="cls-7" points="506.74 1085.52 506.74 1105.15 487.99 1115.97 469.25 1105.15 469.25 1085.52"/><line class="cls-7" x1="487.99" y1="1115.97" x2="487.99" y2="1094.33"/><polyline class="cls-7" points="510.45 1081.11 510.45 1083.37 487.99 1096.34 465.53 1083.37 465.53 1081.11"/><polygon class="cls-7" points="487.99 1068.14 510.45 1081.11 510.45 1081.11 487.99 1094.08 465.53 1081.11 465.53 1081.11 487.99 1068.14"/><line class="cls-7" x1="487.99" y1="1096.34" x2="487.99" y2="1094.08"/><polyline class="cls-6" points="806.17 777.69 806.15 888.83 918.64 953.78 993.62 910.48 993.61 799.34"/><polyline class="cls-6" points="993.62 802.25 918.64 845.54 806.17 780.6"/><polygon class="cls-6" points="806.17 777.68 881.15 734.39 993.61 799.33 993.61 799.34 918.64 842.63 806.17 777.69 806.17 777.68"/><polygon class="cls-6" points="881.15 737.31 811.22 777.68 918.64 839.7 988.57 799.33 881.15 737.31"/><polyline class="cls-6" points="813.65 779.09 881.15 740.11 986.32 800.62"/><line class="cls-6" x1="881.15" y1="737.31" x2="881.15" y2="740.32"/><line class="cls-6" x1="918.64" y1="842.63" x2="918.64" y2="953.78"/><polyline class="cls-7" points="843.65 760.97 843.65 780.6 862.39 791.42 881.14 780.6 881.14 760.97"/><line class="cls-7" x1="862.39" y1="791.42" x2="862.39" y2="769.78"/><polyline class="cls-7" points="839.93 756.56 839.93 758.82 862.39 771.79 884.86 758.82 884.86 756.56"/><polygon class="cls-7" points="862.39 743.59 839.94 756.56 839.94 756.56 862.39 769.53 884.85 756.56 884.85 756.56 862.39 743.59"/><line class="cls-7" x1="862.39" y1="771.79" x2="862.39" y2="769.53"/><polyline class="cls-6" points="37.63 788.64 37.63 964.6 93.86 997.07 150.11 964.59 150.09 788.65"/><polyline class="cls-6" points="37.62 791.45 93.86 823.92 150.09 791.45"/><polygon class="cls-6" points="93.86 756.17 37.63 788.64 37.63 788.65 93.86 821.11 150.09 788.65 150.09 788.64 93.86 756.17"/><polygon class="cls-6" points="93.86 758.98 42.46 788.65 93.86 818.33 145.25 788.65 93.86 758.98"/><polyline class="cls-6" points="142.8 790.07 93.86 761.81 44.92 790.07"/><line class="cls-6" x1="93.86" y1="758.98" x2="93.86" y2="761.81"/><line class="cls-6" x1="93.86" y1="821.11" x2="93.86" y2="997.07"/><polyline class="cls-7" points="75.11 789.54 75.11 791.43 93.86 802.25 112.6 791.43 112.6 789.54"/><polygon class="cls-7" points="93.86 778.72 75.12 789.54 75.12 789.54 93.86 800.36 112.6 789.54 112.6 789.54 93.86 778.72"/><line class="cls-7" x1="93.86" y1="802.25" x2="93.86" y2="800.36"/><polyline class="cls-6" points="1406 799.73 1406 888.9 1499.72 943.01 1593.43 888.9 1593.43 799.73"/><polyline class="cls-6" points="1405.99 802.55 1499.71 856.67 1593.44 802.55"/><polygon class="cls-6" points="1499.71 745.62 1406 799.73 1406 799.73 1499.71 853.85 1593.43 799.73 1593.43 799.73 1499.71 745.62"/><polygon class="cls-6" points="1499.71 748.44 1410.9 799.72 1499.71 851 1588.53 799.72 1499.71 748.44"/><polyline class="cls-6" points="1586.07 801.14 1499.71 751.28 1413.36 801.14"/><line class="cls-6" x1="1499.71" y1="748.44" x2="1499.71" y2="751.28"/><line class="cls-6" x1="1499.71" y1="853.85" x2="1499.72" y2="943.01"/><polyline class="cls-6" points="1537.21 766.99 1537.3 964.6 1574.69 986.3 1668.41 932.19 1668.41 734.52"/><polyline class="cls-6" points="1668.42 737.37 1574.69 791.49 1537.2 769.84"/><polygon class="cls-6" points="1537.21 766.99 1630.93 712.88 1668.41 734.52 1668.41 734.53 1574.69 788.64 1537.21 767 1537.21 766.99"/><polygon class="cls-6" points="1630.93 715.73 1542.11 767.01 1574.69 785.83 1663.5 734.53 1630.93 715.73"/><polyline class="cls-6" points="1544.63 768.47 1630.93 718.65 1660.99 736"/><line class="cls-6" x1="1630.93" y1="715.73" x2="1630.93" y2="718.65"/><line class="cls-6" x1="1574.69" y1="788.64" x2="1574.69" y2="986.3"/><polyline class="cls-6" points="468.76 1340.42 468.89 1386.7 487.64 1397.53 524.99 1375.88 524.99 1329.6"/><polyline class="cls-6" points="468.76 1343.34 487.5 1354.16 524.99 1332.52"/><polygon class="cls-6" points="506.25 1318.78 468.76 1340.42 468.76 1340.43 487.5 1351.25 524.99 1329.6 524.99 1329.6 506.25 1318.78"/><polygon class="cls-6" points="506.25 1321.69 473.74 1340.46 487.5 1348.41 520.01 1329.64 506.25 1321.69"/><polyline class="cls-6" points="517.53 1331.08 506.25 1324.57 476.22 1341.9"/><line class="cls-6" x1="487.5" y1="1351.25" x2="487.64" y2="1397.53"/><line class="cls-6" x1="506.25" y1="1321.69" x2="506.25" y2="1324.57"/><polyline class="cls-6" points="431.27 626.21 431.27 672.38 468.76 694.02 506.25 672.38 506.24 626.21"/><polyline class="cls-6" points="431.27 629.12 468.76 650.77 506.25 629.12"/><polygon class="cls-6" points="468.76 604.56 431.27 626.2 431.27 626.21 468.76 647.85 506.24 626.21 506.24 626.2 468.76 604.56"/><polygon class="cls-6" points="468.76 607.47 436.25 626.25 468.76 645.02 501.27 626.25 468.76 607.47"/><polyline class="cls-6" points="498.78 627.68 468.76 610.35 438.74 627.68"/><line class="cls-6" x1="468.76" y1="647.85" x2="468.76" y2="694.02"/><line class="cls-6" x1="468.76" y1="607.47" x2="468.76" y2="610.35"/><polyline class="cls-6" points="487.64 637.05 487.64 704.78 506.38 715.65 525.12 704.78 525.12 637.05"/><polyline class="cls-6" points="487.63 639.96 506.38 650.79 525.12 639.96"/><polygon class="cls-6" points="506.38 626.23 487.64 637.05 487.64 637.05 506.38 647.87 525.12 637.05 525.12 637.05 506.38 626.23"/><polygon class="cls-6" points="506.38 629.14 492.59 637.1 506.38 645.06 520.16 637.1 506.38 629.14"/><polyline class="cls-6" points="517.72 638.51 506.38 631.96 495.04 638.51"/><line class="cls-6" x1="506.38" y1="647.87" x2="506.38" y2="715.65"/><line class="cls-6" x1="506.38" y1="629.14" x2="506.38" y2="631.96"/><polyline class="cls-6" points="1143.55 388.15 1143.59 564.16 1068.58 607.43 1031.09 585.78 1031.09 409.8"/><polyline class="cls-6" points="1031.09 412.63 1068.57 434.28 1143.55 390.99"/><polygon class="cls-6" points="1031.09 409.8 1068.57 431.45 1143.55 388.16 1143.55 388.15 1106.06 366.51 1031.09 409.8 1031.09 409.8"/><polygon class="cls-6" points="1106.06 369.34 1035.96 409.82 1068.57 428.65 1138.68 388.17 1106.06 369.34"/><polyline class="cls-6" points="1136.23 389.58 1106.06 372.16 1038.41 411.23"/><line class="cls-6" x1="1106.06" y1="369.34" x2="1106.06" y2="372.16"/><line class="cls-6" x1="1068.57" y1="431.45" x2="1068.58" y2="607.43"/><polyline class="cls-6" points="1630.93 929.28 1630.93 1300.12 1574.7 1332.59 1480.97 1278.47 1480.97 907.64"/><polyline class="cls-6" points="1630.93 932.12 1574.69 964.59 1480.97 910.48"/><polygon class="cls-6" points="1630.92 929.28 1574.69 961.75 1480.97 907.64 1480.97 907.63 1537.2 875.17 1630.92 929.28 1630.92 929.28"/><polygon class="cls-6" points="1537.2 878.01 1626.01 929.28 1574.69 958.92 1485.89 907.64 1537.2 878.01"/><polyline class="cls-6" points="1488.35 909.06 1537.2 880.85 1623.55 930.71"/><line class="cls-6" x1="1537.2" y1="878.01" x2="1537.2" y2="880.85"/><line class="cls-6" x1="1574.69" y1="961.75" x2="1574.7" y2="1332.59"/><polyline class="cls-7" points="1518.46 900.14 1518.46 910.48 1555.95 932.13 1574.69 921.3 1574.69 911.2"/><polyline class="cls-7" points="1518.46 902.01 1555.95 923.66 1574.69 912.83"/><polyline class="cls-7" points="1569.81 911.89 1537.21 893.07 1523.35 901.07"/><polygon class="cls-7" points="1574.69 910.94 1537.21 889.29 1518.47 900.11 1518.47 900.12 1555.95 921.76 1574.69 910.94 1574.69 910.94"/><polygon class="cls-7" points="1537.21 891.19 1571.44 910.95 1555.95 919.89 1521.72 900.13 1537.21 891.19"/><line class="cls-7" x1="1537.21" y1="891.19" x2="1537.21" y2="893.07"/><line class="cls-7" x1="1555.95" y1="932.13" x2="1555.95" y2="921.76"/><polyline class="cls-6" points="618.74 1080.72 618.74 1126.89 656.23 1148.53 693.72 1126.89 693.71 1080.72"/><polyline class="cls-6" points="618.74 1083.63 656.23 1105.28 693.72 1083.63"/><polygon class="cls-6" points="656.23 1059.07 618.74 1080.72 618.74 1080.72 656.23 1102.37 693.71 1080.72 693.71 1080.72 656.23 1059.07"/><polygon class="cls-6" points="656.23 1061.99 623.72 1080.76 656.23 1099.53 688.74 1080.76 656.23 1061.99"/><polyline class="cls-6" points="686.25 1082.2 656.23 1064.86 626.21 1082.2"/><line class="cls-6" x1="656.23" y1="1102.37" x2="656.23" y2="1148.53"/><line class="cls-6" x1="656.23" y1="1061.99" x2="656.23" y2="1064.86"/><polyline class="cls-6" points="1106.08 539.66 1106.08 715.66 1143.57 737.31 1199.8 704.83 1199.79 528.83"/><polyline class="cls-6" points="1106.08 542.48 1143.56 564.13 1199.8 531.66"/><polygon class="cls-6" points="1162.31 507.19 1106.08 539.65 1106.08 539.66 1143.56 561.3 1199.79 528.84 1199.79 528.83 1162.31 507.19"/><polygon class="cls-6" points="1162.31 510.01 1110.97 539.65 1143.56 558.47 1194.92 528.82 1162.31 510.01"/><polyline class="cls-6" points="1192.57 530.29 1162.31 512.82 1113.4 541.06"/><line class="cls-6" x1="1162.31" y1="510.01" x2="1162.31" y2="512.82"/><line class="cls-6" x1="1143.56" y1="561.3" x2="1143.57" y2="737.31"/><polyline class="cls-6" points="937.36 1329.71 937.36 1484.11 993.6 1516.58 1068.6 1473.3 1068.57 1318.88"/><polyline class="cls-6" points="1068.57 1321.79 993.59 1365.09 937.36 1332.62"/><polygon class="cls-6" points="1012.34 1286.41 1068.57 1318.88 1068.57 1318.88 993.59 1362.17 937.36 1329.71 937.36 1329.7 1012.34 1286.41"/><polygon class="cls-6" points="1012.34 1289.32 942.35 1329.74 993.59 1359.33 1063.59 1318.91 1012.34 1289.32"/><polyline class="cls-6" points="944.79 1331.16 1012.34 1292.16 1061.13 1320.33"/><line class="cls-6" x1="993.59" y1="1362.17" x2="993.6" y2="1516.58"/><line class="cls-6" x1="1012.34" y1="1289.32" x2="1012.34" y2="1292.16"/></svg>