<?xml version="1.0" encoding="utf-8"?>
<!-- Generator: Adobe Illustrator 24.0.2, SVG Export Plug-In . SVG Version: 6.00 Build 0)  -->
<svg version="1.1" id="Final_Illustrations_copy" xmlns="http://www.w3.org/2000/svg" xmlns:xlink="http://www.w3.org/1999/xlink"
	 x="0px" y="0px" viewBox="0 0 2000 1377.6" style="enable-background:new 0 0 2000 1377.6;" xml:space="preserve">
<style type="text/css">
	.st0{fill:#181D28;stroke:#057ADC;stroke-width:2;stroke-miterlimit:10;}
	.st1{fill:none;stroke:#057ADC;stroke-width:2;stroke-miterlimit:10;}
	.st2{fill:#181D28;stroke:#057ADC;stroke-width:2.0026;stroke-miterlimit:10.013;}
</style>
<polygon class="st0" points="1150,577.6 1159.3,572.2 1535.1,789.1 1525.7,794.5 "/>
<polygon class="st0" points="1431.7,414.9 1441,409.5 1816.8,626.4 1807.4,631.9 "/>
<polygon class="st0" points="867.8,740.5 877.1,735.1 1252.9,952 1243.5,957.4 "/>
<polygon class="st0" points="586.3,903.1 595.7,897.7 971.4,1114.6 962,1120.1 "/>
<polygon class="st0" points="304.6,1065.8 314,1060.4 689.7,1277.3 680.3,1282.7 "/>
<polyline class="st0" points="1643.1,268.5 1643.1,271.3 1492.8,358.1 1436.4,325.5 1436.4,322.7 "/>
<polyline class="st0" points="1586.7,236 1436.4,322.7 1436.4,322.7 1492.8,355.3 1643.1,268.5 1643.1,268.5 1586.7,236 "/>
<line class="st1" x1="1492.8" y1="358.1" x2="1492.8" y2="355.3"/>
<polyline class="st0" points="1492.8,54.4 1492.8,314.7 1511.6,325.6 1586.7,282.2 1586.7,21.9 "/>
<line class="st1" x1="1511.6" y1="65.3" x2="1511.6" y2="325.6"/>
<polygon class="st0" points="1530.4,76.1 1567.9,54.4 1567.9,119.5 1530.4,141.2 "/>
<polyline class="st0" points="1549.2,65.3 1549.2,108.7 1530.4,119.5 "/>
<line class="st1" x1="1549.2" y1="108.7" x2="1567.9" y2="119.5"/>
<polygon class="st0" points="1497.5,78.8 1506.9,84.3 1506.9,105.9 1497.5,100.5 "/>
<polygon class="st0" points="1530.4,162.9 1530.4,184.6 1567.9,162.9 1567.9,141.2 "/>
<polyline class="st0" points="1530.4,180.8 1563.4,161.7 1555.8,148.2 "/>
<polygon class="st0" points="1530.4,206.3 1530.4,249.7 1567.9,228 1567.9,184.6 "/>
<line class="st1" x1="1530.4" y1="228" x2="1567.9" y2="206.3"/>
<line class="st1" x1="1549.2" y1="195.4" x2="1549.2" y2="238.8"/>
<line class="st1" x1="1546" y1="197.3" x2="1546" y2="219"/>
<polygon class="st0" points="1533.6,229.8 1546,222.6 1546,237 1533.6,244.1 "/>
<polygon class="st0" points="1552.4,219 1564.7,211.9 1564.7,226.1 1552.4,233.2 "/>
<line class="st1" x1="1552.4" y1="193.7" x2="1552.4" y2="215.4"/>
<line class="st1" x1="1558.5" y1="146.6" x2="1567.9" y2="162.9"/>
<line class="st1" x1="1546" y1="197.3" x2="1546" y2="219"/>
<polygon class="st0" points="1492.8,54.4 1511.6,65.3 1586.7,21.9 1586.7,21.9 1567.9,11 1492.8,54.4 "/>
<ellipse transform="matrix(0.5367 -0.8438 0.8438 0.5367 534.4122 1418.3926)" class="st0" cx="1558.8" cy="222.5" rx="5.3" ry="3"/>
<polyline class="st0" points="1556,227 1565.2,232.9 1570.9,224 1561.8,218.2 "/>
<ellipse transform="matrix(0.5367 -0.8438 0.8438 0.5367 533.7239 1428.918)" class="st0" cx="1568.1" cy="228.4" rx="5.3" ry="3"/>
<polygon class="st0" points="1500.3,86.9 1504.1,89.1 1504.1,97.9 1500.3,95.7 "/>
<path class="st0" d="M1763.7,502.2v39l23.6-13.6c6.3-3.6,10.2-10.4,10.2-17.6v-27.3"/>
<ellipse transform="matrix(0.9882 -0.153 0.153 0.9882 -58.7476 275.0399)" class="st0" cx="1757.9" cy="519.3" rx="21.9" ry="29.7"/>
<ellipse transform="matrix(0.9887 -0.1498 0.1498 0.9887 -57.9524 269.1961)" class="st2" cx="1757.9" cy="519.3" rx="12.2" ry="16.5"/>
<path class="st0" d="M1627.8,424.3v39l23.6-13.6c6.3-3.6,10.2-10.4,10.2-17.6v-27.2"/>
<ellipse transform="matrix(0.9882 -0.153 0.153 0.9882 -47.4934 253.0154)" class="st0" cx="1620.4" cy="435.1" rx="21.9" ry="29.7"/>
<ellipse transform="matrix(0.9882 -0.153 0.153 0.9882 -47.4934 253.0154)" class="st0" cx="1620.4" cy="435.1" rx="12.2" ry="16.5"/>
<path class="st0" d="M1905,378.8l33.8,19.5c20.9,12.1,33.8,34.4,33.8,58.5l0,0l-101.3,58.5l-303.8-175.5"/>
<path class="st0" d="M1972.6,456.8l-16.9,29.2l-101.3,58.5l-67.5-39l-4.1-11.9c-5.8-16.8-24.2-25.7-41-19.9
	c-1.9,0.7-3.8,1.5-5.6,2.5l0,0l-84.4-48.7l-4.1-11.9c-5.8-16.8-24.2-25.7-41-19.9c-1.9,0.7-3.8,1.5-5.6,2.5l0,0l-33.8-19.5v-83.4
	c0-20.8,11.1-40,29.1-50.4l44.3-25.6c17.3-10,38.5-10,55.8,0l116.2,67.1c38.3,22.1,70.1,53.9,92.2,92.3l0,0l-101.3,58.5l0,0
	c-22.1-38.3-53.9-70.2-92.2-92.3l-136.3-78.7"/>
<line class="st1" x1="1762" y1="383.4" x2="1863.3" y2="324.9"/>
<path class="st0" d="M1803.7,437.3l33.8,19.5c20.9,12.1,33.8,34.4,33.8,58.5l0,0l-16.9,29.2"/>
<line class="st1" x1="1862.2" y1="481.5" x2="1963.5" y2="423"/>
<path class="st0" d="M1601.2,359.3v-29c0-9.4,7.6-17,17-17c3,0,5.9,0.8,8.5,2.3l75.8,43.8c31.3,18.1,50.6,51.5,50.6,87.6l0,0"/>
<path class="st0" d="M1837.5,481.5L1837.5,481.5l9.7,6.5c9.3,6.2,21.2,7.1,31.3,2.1l0,0c10.7-5.3,17.5-16.2,17.5-28.1l0,0
	l-33.8,19.5l-12.4-7.1c-3.9-2.3-9-0.9-11.3,3C1837.9,478.7,1837.5,480.1,1837.5,481.5z"/>
<path class="st0" d="M1963.5,423l-33.3,19.5l0,0c10.4,5.9,23.2,5.3,33.1-1.4l0,0c2.2-1.5,4.2-3.3,6-5.3
	C1967.8,431.4,1965.8,427.1,1963.5,423z"/>
<line class="st1" x1="1668.7" y1="339.8" x2="1668.7" y2="437.3"/>
<line class="st1" x1="1567.4" y1="339.8" x2="1871.3" y2="515.3"/>
<line class="st1" x1="1871.3" y1="515.3" x2="1972.6" y2="456.8"/>
<polygon class="st0" points="1575.8,345 1592.7,354.7 1592.7,374.2 1575.8,364.5 "/>
<ellipse transform="matrix(0.8438 -0.5367 0.5367 0.8438 54.4129 906.527)" class="st0" cx="1584.3" cy="359.8" rx="3" ry="5.3"/>
<polyline class="st0" points="1587.1,364.2 1577.9,370.1 1572.2,361.2 1581.3,355.5 "/>
<ellipse transform="matrix(0.8438 -0.5367 0.5367 0.8438 49.813 902.4862)" class="st0" cx="1575.1" cy="365.7" rx="3" ry="5.3"/>
<path class="st1" d="M1502,92.4L1502,92.4c-17.3,10-28,28.5-28,48.5v83.6c0,36.5,16.2,71.1,44.3,94.5l56.4,46.9"/>
<path class="st1" d="M1586.8,173.7l4.1,11.1c6.3,17.1-2.5,36.1-19.6,42.4c-1.2,0.5-2.5,0.8-3.8,1.1l0,0"/>
<polyline class="st0" points="515.9,919.2 515.9,922 365.6,1008.8 309.2,976.3 309.2,973.5 "/>
<polyline class="st0" points="459.5,886.7 309.2,973.5 309.2,973.5 365.6,1006 515.9,919.2 515.9,919.2 459.5,886.7 "/>
<line class="st1" x1="365.6" y1="1008.8" x2="365.6" y2="1006"/>
<polyline class="st0" points="365.6,705.2 365.6,965.5 384.4,976.3 459.5,932.9 459.5,672.6 "/>
<line class="st1" x1="384.4" y1="716" x2="384.4" y2="976.3"/>
<polygon class="st0" points="403.2,726.8 440.7,705.2 440.7,770.2 403.2,791.9 "/>
<polyline class="st0" points="422,716 422,759.4 403.2,770.2 "/>
<line class="st1" x1="422" y1="759.4" x2="440.7" y2="770.2"/>
<polygon class="st0" points="370.3,729.6 379.7,735 379.7,756.7 370.3,751.3 "/>
<polygon class="st0" points="403.2,813.6 403.2,835.3 440.7,813.6 440.7,791.9 "/>
<polyline class="st0" points="403.2,831.5 436.2,812.4 428.6,798.9 "/>
<polygon class="st0" points="403.2,857 403.2,900.4 440.7,878.7 440.7,835.3 "/>
<line class="st1" x1="403.2" y1="878.7" x2="440.7" y2="857"/>
<line class="st1" x1="422" y1="846.2" x2="422" y2="889.5"/>
<line class="st1" x1="418.8" y1="848" x2="418.8" y2="869.7"/>
<polygon class="st0" points="406.3,880.5 418.8,873.4 418.8,887.7 406.3,894.9 "/>
<polygon class="st0" points="425.2,869.7 437.5,862.7 437.5,876.8 425.2,883.9 "/>
<line class="st1" x1="425.2" y1="844.4" x2="425.2" y2="866.1"/>
<line class="st1" x1="431.3" y1="797.4" x2="440.7" y2="813.6"/>
<line class="st1" x1="418.8" y1="848" x2="418.8" y2="869.7"/>
<polygon class="st0" points="365.6,705.2 384.4,716 459.5,672.6 459.5,672.6 440.7,661.8 365.6,705.2 "/>
<ellipse transform="matrix(0.5367 -0.8438 0.8438 0.5367 -536.881 768.7831)" class="st0" cx="431.6" cy="873.3" rx="5.3" ry="3"/>
<polyline class="st0" points="428.8,877.7 438,883.6 443.7,874.7 434.6,869 "/>
<ellipse transform="matrix(0.5367 -0.8438 0.8438 0.5367 -537.5609 779.3038)" class="st0" cx="440.9" cy="879.2" rx="5.3" ry="3"/>
<polygon class="st0" points="373.1,737.6 376.9,739.8 376.9,748.6 373.1,746.4 "/>
<path class="st0" d="M492,1066.8v36.6l22.1-12.8c5.9-3.4,9.5-9.7,9.5-16.5v-25.6"/>
<ellipse transform="matrix(0.9882 -0.153 0.153 0.9882 -159.0514 86.8611)" class="st0" cx="484.9" cy="1077" rx="20.6" ry="27.8"/>
<ellipse transform="matrix(0.9882 -0.153 0.153 0.9882 -159.0514 86.8611)" class="st0" cx="484.9" cy="1077" rx="11.4" ry="15.5"/>
<path class="st0" d="M650.8,1157.9v36.6l22.2-12.8c5.9-3.4,9.5-9.7,9.5-16.5v-25.6"/>
<ellipse transform="matrix(0.9887 -0.1498 0.1498 0.9887 -168.3453 109.3064)" class="st2" cx="641.4" cy="1172.1" rx="20.6" ry="27.9"/>
<path class="st0" d="M529.6,1080.8l-14.8-8.5l-4.4-12c-5.8-15.9-23.5-24.2-39.4-18.3c-1.7,0.6-3.3,1.4-4.8,2.3l0,0l-31.7-18.3v-37
	c0-22.4,12-43.1,31.4-54.3l32.3-18.6c19.4-11.2,43.3-11.2,62.7,0l63.7,36.8"/>
<path class="st0" d="M783.2,1044l31.7,18.3c19.6,11.3,31.7,32.2,31.7,54.9l0,0l-95.1,55.2L434.6,988.9"/>
<path class="st0" d="M846.5,1117.2l-16.4,27.8l-93.6,55.3l-62.1-35.9l-4.9-12.8c-6.2-16.1-24.2-24.2-40.4-18c-1.5,0.6-3,1.3-4.4,2.1
	l0,0l-95.1-54.9v-36.4c0-22.8,12.2-43.8,31.9-55.2l63-36.4c19.7-11.4,44-11.4,63.7,0l8.5,4.9c35.9,20.7,65.7,50.4,86.4,86.2l0,0
	l-95.1,54.9l0,0c-20.8-35.8-50.5-65.5-86.4-86.2l-40.4-23.3"/>
<path class="st0" d="M688.1,1098.9l31.7,18.4c19.6,11.4,31.6,32.3,31.6,55l0,0l-14.9,28"/>
<line class="st1" x1="743" y1="1140.6" x2="838" y2="1085.5"/>
<line class="st1" x1="649" y1="1048.5" x2="744" y2="993.6"/>
<line class="st1" x1="743.5" y1="1186.5" x2="838" y2="1131.9"/>
<path class="st0" d="M561.7,1062.5v-17.7c0-11.8,9.6-21.4,21.4-21.4c3.8,0,7.5,1,10.8,2.9l0,0c28.9,16.8,46.6,47.6,46.6,81v0.8
	L561.7,1062.5z"/>
<line class="st1" x1="593" y1="1025.8" x2="593" y2="1117.4"/>
<line class="st1" x1="443" y1="957.6" x2="538.2" y2="1012.6"/>
<line class="st1" x1="529.6" y1="1044.4" x2="751.5" y2="1172.3"/>
<line class="st1" x1="751.5" y1="1172.3" x2="846.5" y2="1117.2"/>
<path class="st0" d="M719.8,1140.6L719.8,1140.6l9.1,6.1c8.7,5.9,19.9,6.6,29.4,2l0,0c10.1-4.9,16.4-15.2,16.4-26.4l0,0l-31.7,18.3
	l-11.6-6.7c-3.7-2.1-8.4-0.9-10.6,2.8C720.1,1137.8,719.8,1139.2,719.8,1140.6z"/>
<path class="st0" d="M838,1085.7l-31.3,18.3l0,0c9.7,5.5,21.8,5,31-1.3l0,0c2.1-1.4,3.9-3.1,5.6-5
	C841.9,1093.5,840.2,1089.5,838,1085.7z"/>
<polygon class="st0" points="449.1,997.3 464.9,1006.5 464.9,1024.8 449.1,1015.6 "/>
<ellipse transform="matrix(0.8438 -0.5367 0.5367 0.8438 -470.986 403.048)" class="st0" cx="456.8" cy="1010.5" rx="3" ry="5.3"/>
<polyline class="st0" points="459.6,1014.9 450.4,1020.8 444.7,1011.9 453.8,1006.2 "/>
<ellipse transform="matrix(0.8438 -0.5367 0.5367 0.8438 -475.5804 399.0057)" class="st0" cx="447.6" cy="1016.4" rx="3" ry="5.3"/>
<path class="st1" d="M374.8,743.1L374.8,743.1c-17.3,10-28,28.5-28,48.5v83.7c0,36.5,16.2,71.1,44.3,94.4l56.4,46.9"/>
<path class="st1" d="M459.6,824.4l4.1,11.2c6.3,17.2-2.5,36.2-19.7,42.5c-1.2,0.5-2.5,0.8-3.8,1.1l0,0"/>
<polyline class="st0" points="797.7,756.5 797.7,759.3 647.4,846.1 591,813.6 591,810.8 "/>
<polyline class="st0" points="741.3,724 591,810.8 591,810.8 647.4,843.3 797.7,756.5 797.7,756.5 741.3,724 "/>
<line class="st1" x1="647.4" y1="846.1" x2="647.4" y2="843.3"/>
<polyline class="st0" points="647.4,542.5 647.4,802.8 666.2,813.6 741.3,770.2 741.3,509.9 "/>
<line class="st1" x1="666.2" y1="553.3" x2="666.2" y2="813.6"/>
<polygon class="st0" points="685,564.2 722.5,542.5 722.5,607.5 685,629.2 "/>
<polyline class="st0" points="703.8,553.3 703.8,596.7 685,607.5 "/>
<line class="st1" x1="703.8" y1="596.7" x2="722.5" y2="607.5"/>
<polygon class="st0" points="652.1,566.9 661.5,572.3 661.5,594 652.1,588.5 "/>
<polygon class="st0" points="685,650.9 685,672.6 722.5,650.9 722.5,629.2 "/>
<polyline class="st0" points="685,668.8 718,649.7 710.4,636.2 "/>
<polygon class="st0" points="685,694.3 685,737.7 722.5,716 722.5,672.6 "/>
<line class="st1" x1="685" y1="716" x2="722.5" y2="694.3"/>
<line class="st1" x1="703.8" y1="683.5" x2="703.8" y2="726.8"/>
<line class="st1" x1="700.6" y1="685.3" x2="700.6" y2="707"/>
<polygon class="st0" points="688.2,717.8 700.6,710.7 700.6,725 688.2,732.2 "/>
<polygon class="st0" points="707,707 719.3,700 719.3,714.1 707,721.2 "/>
<line class="st1" x1="707" y1="681.7" x2="707" y2="703.4"/>
<line class="st1" x1="713.2" y1="634.7" x2="722.5" y2="650.9"/>
<line class="st1" x1="700.6" y1="685.3" x2="700.6" y2="707"/>
<polygon class="st0" points="647.4,542.5 666.2,553.3 741.3,509.9 741.3,509.9 722.5,499.1 647.4,542.5 "/>
<ellipse transform="matrix(0.5367 -0.8438 0.8438 0.5367 -269.0369 931.1852)" class="st0" cx="713.4" cy="710.6" rx="5.3" ry="3"/>
<polyline class="st0" points="710.6,715 719.8,720.9 725.5,712 716.5,706.3 "/>
<ellipse transform="matrix(0.5367 -0.8438 0.8438 0.5367 -269.7168 941.706)" class="st0" cx="722.7" cy="716.5" rx="5.3" ry="3"/>
<polygon class="st0" points="654.9,574.9 658.7,577.1 658.7,585.9 654.9,583.7 "/>
<path class="st0" d="M783.2,910.7v39l23.6-13.7c6.3-3.6,10.2-10.3,10.2-17.6v-27.2"/>
<ellipse transform="matrix(0.9882 -0.153 0.153 0.9882 -131.8412 129.5124)" class="st0" cx="775.7" cy="921.5" rx="21.9" ry="29.7"/>
<ellipse transform="matrix(0.9882 -0.153 0.153 0.9882 -131.8412 129.5124)" class="st0" cx="775.7" cy="921.5" rx="12.2" ry="16.5"/>
<path class="st0" d="M918.1,988.6v39l23.6-13.6c6.3-3.6,10.2-10.3,10.2-17.6v-27.3"/>
<ellipse transform="matrix(0.9882 -0.153 0.153 0.9882 -142.1729 151.0751)" class="st0" cx="910.6" cy="999.4" rx="21.9" ry="29.6"/>
<ellipse transform="matrix(0.9882 -0.153 0.153 0.9882 -142.1729 151.0751)" class="st0" cx="910.6" cy="999.4" rx="12.2" ry="16.5"/>
<path class="st0" d="M756.3,770.3L756.3,770.3c-20.9,12.1-33.8,34.3-33.8,58.5v39l33.8,19.5l0,0c15.4-8.9,35.1-3.6,44,11.8
	c1,1.8,1.9,3.6,2.5,5.6l4.1,11.9l84.4,48.7l0,0c15.4-8.9,35.1-3.6,44,11.8c1,1.8,1.9,3.6,2.5,5.5l4.1,11.9l67.5,39l101.3-58.5
	l16.9-29.2"/>
<path class="st0" d="M722.5,828.8l303.7,175.4l101.3-58.5l0,0c0-24.1-12.9-46.4-33.8-58.5l-33.8-19.5"/>
<path class="st0" d="M1009.4,1033.4l16.9-29.2l0,0c0-24.1-12.9-46.4-33.8-58.5l-33.7-19.5"/>
<path class="st0" d="M756.3,848.2L756.3,848.2c0-26,28.1-42.2,50.6-29.2l67.5,39c31.3,18.1,50.6,51.5,50.6,87.7l0,0"/>
<path class="st0" d="M992.5,970.4L992.5,970.4l9.7,6.5c9.3,6.2,21.2,7.1,31.3,2.1l0,0c10.7-5.3,17.5-16.2,17.5-28.1l0,0l-33.8,19.5
	l-12.3-7.1c-3.9-2.3-9-1-11.3,3C992.9,967.5,992.5,968.9,992.5,970.4z"/>
<path class="st0" d="M967.8,775.5l-76.4-44.1c-21-12.1-46.8-12.1-67.8,0l-67.4,38.9L866.6,834c38.3,22.1,70.1,53.9,92.2,92.2
	 M958.8,926.2l101.2-58.4l0,0c-22.1-38.3-53.9-70.1-92.2-92.2L958.8,926.2z"/>
<line class="st1" x1="840.7" y1="838.5" x2="840.7" y2="935.9"/>
<line class="st1" x1="917" y1="872.3" x2="1018.3" y2="813.9"/>
<line class="st1" x1="1017.8" y1="1018.9" x2="1119" y2="960.5"/>
<line class="st1" x1="722.5" y1="828.8" x2="1026.3" y2="1004.1"/>
<line class="st1" x1="1118.5" y1="911.9" x2="1017.2" y2="970.4"/>
<path class="st0" d="M1118.5,911.9l-33.3,19.5l0,0c10.4,5.9,23.2,5.4,33.1-1.4l0,0c2.2-1.5,4.2-3.3,6-5.3
	C1122.7,920.3,1120.8,916,1118.5,911.9z"/>
<polygon class="st0" points="730.7,833.5 747.6,843.3 747.6,862.8 730.7,853 "/>
<ellipse transform="matrix(0.8438 -0.5367 0.5367 0.8438 -339.7588 528.901)" class="st0" cx="738.6" cy="848" rx="3" ry="5.3"/>
<polyline class="st0" points="741.4,852.5 732.2,858.4 726.5,849.5 735.6,843.7 "/>
<ellipse transform="matrix(0.8438 -0.5367 0.5367 0.8438 -344.3628 524.8566)" class="st0" cx="729.3" cy="853.9" rx="3" ry="5.3"/>
<path class="st1" d="M656.6,580.4L656.6,580.4c-17.3,10-28,28.5-28,48.5v83.7c0,36.5,16.3,71.1,44.3,94.5l56.4,46.9"/>
<path class="st1" d="M741.4,661.7l4.1,11.2c6.3,17.2-2.5,36.2-19.7,42.5c-1.2,0.4-2.5,0.8-3.7,1.1l0,0"/>
<polyline class="st0" points="1361.2,431.1 1361.2,434 1210.9,520.7 1154.6,488.2 1154.6,485.4 "/>
<polyline class="st0" points="1304.8,398.7 1154.6,485.4 1154.6,485.4 1210.9,517.9 1361.2,431.1 1361.2,431.1 1304.8,398.7 "/>
<line class="st1" x1="1210.9" y1="520.7" x2="1210.9" y2="517.9"/>
<polyline class="st0" points="1210.9,217.1 1210.9,477.4 1229.7,488.3 1304.8,444.9 1304.8,184.5 "/>
<line class="st1" x1="1229.7" y1="227.9" x2="1229.7" y2="488.3"/>
<polygon class="st0" points="1248.5,238.8 1286.1,217.1 1286.1,282.2 1248.5,303.9 "/>
<polyline class="st0" points="1267.3,227.9 1267.3,271.3 1248.5,282.2 "/>
<line class="st1" x1="1267.3" y1="271.3" x2="1286.1" y2="282.2"/>
<polygon class="st0" points="1215.6,241.5 1225,246.9 1225,268.6 1215.6,263.2 "/>
<polygon class="st0" points="1248.5,325.5 1248.5,347.2 1286.1,325.5 1286.1,303.9 "/>
<polyline class="st0" points="1248.5,343.4 1281.6,324.3 1274,310.8 "/>
<polygon class="st0" points="1248.5,368.9 1248.5,412.3 1286.1,390.6 1286.1,347.2 "/>
<line class="st1" x1="1248.5" y1="390.6" x2="1286.1" y2="368.9"/>
<line class="st1" x1="1267.3" y1="358.1" x2="1267.3" y2="401.5"/>
<line class="st1" x1="1264.1" y1="359.9" x2="1264.1" y2="381.6"/>
<polygon class="st0" points="1251.7,392.5 1264.1,385.3 1264.1,399.6 1251.7,406.8 "/>
<polygon class="st0" points="1270.5,381.7 1282.8,374.6 1282.8,388.7 1270.5,395.8 "/>
<line class="st1" x1="1270.5" y1="356.3" x2="1270.5" y2="378"/>
<line class="st1" x1="1276.7" y1="309.3" x2="1286.1" y2="325.5"/>
<line class="st1" x1="1264.1" y1="359.9" x2="1264.1" y2="381.6"/>
<polygon class="st0" points="1210.9,217.1 1229.7,227.9 1304.8,184.5 1304.8,184.5 1286.1,173.7 1210.9,217.1 "/>
<ellipse transform="matrix(0.5367 -0.8438 0.8438 0.5367 266.5767 1255.9242)" class="st0" cx="1277" cy="385.2" rx="5.3" ry="3"/>
<polyline class="st0" points="1274.1,389.6 1283.4,395.5 1289,386.6 1280,380.9 "/>
<ellipse transform="matrix(0.5367 -0.8438 0.8438 0.5367 265.8969 1266.4449)" class="st0" cx="1286.2" cy="391.1" rx="5.3" ry="3"/>
<polygon class="st0" points="1218.4,249.5 1222.2,251.7 1222.2,260.5 1218.4,258.3 "/>
<path class="st0" d="M1354.8,590v38.1l23.1-13.3c6.2-3.6,9.9-10.1,9.9-17.2V571"/>
<ellipse transform="matrix(0.9887 -0.1498 0.1498 0.9887 -75.53 208.7501)" class="st2" cx="1347.8" cy="605.7" rx="21.5" ry="29"/>
<path class="st0" d="M1485.6,664.9V703l23.1-13.3c6.2-3.5,9.9-10.1,9.9-17.2v-26.6"/>
<ellipse transform="matrix(0.9882 -0.153 0.153 0.9882 -85.9439 234.1108)" class="st0" cx="1478.3" cy="675.5" rx="21.4" ry="29"/>
<ellipse transform="matrix(0.9882 -0.153 0.153 0.9882 -85.9439 234.1108)" class="st0" cx="1478.3" cy="675.5" rx="11.9" ry="16.1"/>
<path class="st0" d="M1427.1,432.8l-26.8-15.5c-13-7.5-29-7.5-42,0.1l-54.1,31.6c-14.5,8.5-23.5,23.9-23.9,40.6l-1,48.3l48.9,28.2
	l0,0c15.2-8.7,34.6-3.5,43.3,11.7c0.9,1.6,1.7,3.4,2.4,5.2l4.3,12l82,47.3l0,0c15.1-8.7,34.5-3.5,43.2,11.6c1,1.7,1.8,3.5,2.4,5.3
	l4.2,11.9l66.2,38.2l98.3-57.6l16.8-28.4"/>
<path class="st0" d="M1625.2,547.1l33,19.1c20.4,11.8,33,33.6,33,57.2l0,0l-99,57.2L1280,500.3"/>
<path class="st0" d="M1576.1,709.4l16-28.9l0,0c0-23.6-12.6-45.4-33-57.2l-33-19.1"/>
<path class="st0" d="M1361.1,547.1v-4.9c0-16.7,13.5-30.2,30.2-30.2c5.3,0,10.5,1.4,15.1,4l37.3,21.5c30.6,17.7,49.5,50.4,49.5,85.8
	l0,0"/>
<line class="st1" x1="1427.1" y1="528" x2="1427.1" y2="623.3"/>
<path class="st0" d="M1559.1,647.5L1559.1,647.5l9.4,6.3c9.1,6.1,20.8,6.9,30.6,2.1l0,0c10.5-5.1,17.1-15.8,17.1-27.5l0,0l-33,19.1
	l-12.1-7c-3.9-2.2-8.8-0.9-11,3C1559.5,644.7,1559.1,646.1,1559.1,647.5z"/>
<path class="st0" d="M1682.3,590.3l-32.6,19l0,0c10.2,5.7,22.7,5.2,32.3-1.3l0,0c2.2-1.5,4.1-3.2,5.8-5.2
	C1686.5,598.5,1684.6,594.3,1682.3,590.3z"/>
<path class="st0" d="M1328.1,528v-15c0-14.3,7.6-27.5,20-34.6l84.8-49c16.9-9.7,37.6-9.7,54.5,0l47.6,27.5
	c37.5,21.6,68.6,52.7,90.2,90.2l0,0l-99,57.2l0,0c-21.6-37.5-52.7-68.6-90.2-90.2l-74.9-43.2"/>
<line class="st1" x1="1583.3" y1="647.5" x2="1682.3" y2="590.3"/>
<line class="st1" x1="1485.2" y1="551.7" x2="1584.3" y2="494.4"/>
<line class="st1" x1="1328.1" y1="528" x2="1592.2" y2="680.5"/>
<line class="st1" x1="1287" y1="466.2" x2="1333.4" y2="493"/>
<line class="st1" x1="1583.7" y1="695.5" x2="1682.2" y2="638.6"/>
<polygon class="st0" points="1294.2,508.7 1310.7,518.2 1310.7,537.3 1294.2,527.7 "/>
<ellipse transform="matrix(0.8438 -0.5367 0.5367 0.8438 -77.1189 780.6432)" class="st0" cx="1302.3" cy="522.8" rx="3" ry="5.3"/>
<polyline class="st0" points="1305.1,527.2 1295.9,533.1 1290.3,524.2 1299.3,518.5 "/>
<ellipse transform="matrix(0.8438 -0.5367 0.5367 0.8438 -81.7118 776.6062)" class="st0" cx="1293.1" cy="528.7" rx="3" ry="5.3"/>
<path class="st1" d="M1220.1,255L1220.1,255c-17.3,10-28,28.5-28,48.5v83.6c0,36.5,16.2,71.1,44.3,94.4l56.4,46.9"/>
<path class="st1" d="M1304.9,336.4l4.1,11.1c6.3,17.2-2.5,36.2-19.7,42.5c-1.2,0.4-2.5,0.8-3.7,1.1l0,0"/>
<polyline class="st0" points="1079.4,593.9 1079.4,596.7 929.1,683.5 872.8,651 872.8,648.1 "/>
<polyline class="st0" points="1023,561.4 872.8,648.1 872.8,648.1 929.1,680.7 1079.4,593.9 1079.4,593.9 1023,561.4 "/>
<line class="st1" x1="929.1" y1="683.5" x2="929.1" y2="680.7"/>
<polyline class="st0" points="929.1,379.8 929.1,640.2 947.9,651 1023,607.6 1023,347.3 "/>
<line class="st1" x1="947.9" y1="390.7" x2="947.9" y2="651"/>
<polygon class="st0" points="966.7,401.5 1004.3,379.8 1004.3,444.9 966.7,466.6 "/>
<polyline class="st0" points="985.5,390.7 985.5,434.1 966.7,444.9 "/>
<line class="st1" x1="985.5" y1="434.1" x2="1004.3" y2="444.9"/>
<polygon class="st0" points="933.8,404.2 943.2,409.7 943.2,431.4 933.8,425.9 "/>
<polygon class="st0" points="966.7,488.3 966.7,510 1004.3,488.3 1004.3,466.6 "/>
<polyline class="st0" points="966.7,506.2 999.8,487.1 992.2,473.6 "/>
<polygon class="st0" points="966.7,531.7 966.7,575.1 1004.3,553.4 1004.3,510 "/>
<line class="st1" x1="966.7" y1="553.4" x2="1004.3" y2="531.7"/>
<line class="st1" x1="985.5" y1="520.8" x2="985.5" y2="564.2"/>
<line class="st1" x1="982.3" y1="522.7" x2="982.3" y2="544.4"/>
<polygon class="st0" points="969.9,555.2 982.3,548 982.3,562.4 969.9,569.6 "/>
<polygon class="st0" points="988.7,544.4 1001,537.3 1001,551.5 988.7,558.6 "/>
<line class="st1" x1="988.7" y1="519.1" x2="988.7" y2="540.8"/>
<line class="st1" x1="994.9" y1="472" x2="1004.3" y2="488.3"/>
<line class="st1" x1="982.3" y1="522.7" x2="982.3" y2="544.4"/>
<polygon class="st0" points="929.1,379.8 947.9,390.7 1023,347.3 1023,347.3 1004.3,336.4 929.1,379.8 "/>
<ellipse transform="matrix(0.5367 -0.8438 0.8438 0.5367 -1.3094 1093.5425)" class="st0" cx="995.2" cy="548" rx="5.3" ry="3"/>
<polyline class="st0" points="992.3,552.4 1001.6,558.3 1007.2,549.4 998.2,543.6 "/>
<ellipse transform="matrix(0.5367 -0.8438 0.8438 0.5367 -1.9891 1104.0631)" class="st0" cx="1004.4" cy="553.8" rx="5.3" ry="3"/>
<polygon class="st0" points="936.6,412.3 940.4,414.5 940.4,423.3 936.6,421.1 "/>
<path class="st0" d="M1064.9,748v39l23.6-13.6c6.3-3.6,10.2-10.3,10.2-17.6v-27.2"/>
<ellipse transform="matrix(0.9882 -0.153 0.153 0.9882 -103.647 170.6994)" class="st0" cx="1057.4" cy="758.9" rx="21.9" ry="29.7"/>
<ellipse transform="matrix(0.9882 -0.153 0.153 0.9882 -103.647 170.6994)" class="st0" cx="1057.4" cy="758.9" rx="12.2" ry="16.5"/>
<path class="st0" d="M1199.8,825.9v39l23.6-13.6c6.3-3.6,10.2-10.3,10.2-17.6v-27.3"/>
<ellipse transform="matrix(0.9882 -0.153 0.153 0.9882 -113.9788 192.2606)" class="st0" cx="1192.3" cy="836.8" rx="21.9" ry="29.7"/>
<ellipse transform="matrix(0.9882 -0.153 0.153 0.9882 -113.9788 192.2606)" class="st0" cx="1192.3" cy="836.8" rx="12.2" ry="16.5"/>
<path class="st0" d="M1038,607.7L1038,607.7c-20.9,12.1-33.8,34.3-33.8,58.5v39l33.8,19.5l0,0c15.4-8.9,35.1-3.6,44,11.8
	c1,1.8,1.9,3.6,2.5,5.6l4.1,11.9l84.4,48.7l0,0c15.4-8.9,35.1-3.6,44,11.8c1,1.8,1.9,3.6,2.5,5.6l4.1,11.9l67.5,39l101.3-58.5
	l16.9-29.2"/>
<path class="st0" d="M1004.3,666.1L1308,841.5l101.3-58.5l0,0c0-24.1-12.9-46.4-33.8-58.5l-33.8-19.5"/>
<path class="st0" d="M1291.1,870.8l16.9-29.2l0,0c0-24.1-12.9-46.4-33.8-58.5l-33.7-19.5"/>
<path class="st0" d="M1038,685.6L1038,685.6c0-26,28.1-42.2,50.6-29.2l67.5,39c31.3,18.1,50.6,51.5,50.6,87.7l0,0"/>
<path class="st0" d="M1274.2,807.8L1274.2,807.8l9.7,6.5c9.3,6.2,21.2,7,31.3,2.1l0,0c10.7-5.3,17.5-16.2,17.5-28.1l0,0l-33.7,19.5
	l-12.3-7.1c-3.9-2.3-9-1-11.3,2.9C1274.6,804.8,1274.2,806.3,1274.2,807.8z"/>
<path class="st0" d="M1249.5,612.9l-76.4-44.1c-21-12.1-46.8-12.1-67.8,0l-67.4,38.9l110.3,63.7c38.3,22.1,70.1,53.9,92.2,92.2
	c0,0,0,0,0.1,0l101.2-58.4l0,0C1319.6,666.8,1287.8,635,1249.5,612.9z"/>
<line class="st1" x1="1122.4" y1="675.9" x2="1122.4" y2="773.3"/>
<line class="st1" x1="1198.8" y1="709.7" x2="1300" y2="651.3"/>
<line class="st1" x1="1299.5" y1="856.3" x2="1400.7" y2="797.9"/>
<line class="st1" x1="1004.3" y1="666.1" x2="1308" y2="841.5"/>
<line class="st1" x1="1400.2" y1="749.3" x2="1298.9" y2="807.8"/>
<path class="st0" d="M1400.2,749.3l-33.3,19.5l0,0c10.4,5.9,23.2,5.4,33.1-1.4l0,0c2.2-1.5,4.2-3.3,6-5.3
	C1404.5,757.7,1402.5,753.4,1400.2,749.3z"/>
<polygon class="st0" points="1012.5,670.9 1029.3,680.7 1029.3,700.1 1012.5,690.4 "/>
<ellipse transform="matrix(0.8438 -0.5367 0.5367 0.8438 -208.4666 654.6898)" class="st0" cx="1020.3" cy="685.4" rx="3" ry="5.3"/>
<polyline class="st0" points="1023.1,689.8 1013.9,695.8 1008.2,686.8 1017.3,681.1 "/>
<ellipse transform="matrix(0.8438 -0.5367 0.5367 0.8438 -213.0649 650.6544)" class="st0" cx="1011.1" cy="691.3" rx="3" ry="5.3"/>
<path class="st1" d="M938.3,417.8L938.3,417.8c-17.3,10-28,28.5-28,48.5v83.7c0,36.5,16.2,71.1,44.3,94.4l56.4,46.9"/>
<path class="st1" d="M1023.1,499.1l4.1,11.1c6.3,17.1-2.5,36.1-19.6,42.4c-1.2,0.5-2.5,0.8-3.8,1.1l0,0"/>
<polyline class="st0" points="234.1,1082 234.1,1084.8 83.8,1171.6 27.4,1139 27.4,1136.2 "/>
<polyline class="st0" points="177.7,1049.5 27.4,1136.2 27.4,1136.2 83.8,1168.8 234.1,1082 234.1,1082 177.7,1049.5 "/>
<line class="st1" x1="83.8" y1="1171.6" x2="83.8" y2="1168.8"/>
<polyline class="st0" points="83.8,867.9 83.8,1128.2 102.6,1139.1 177.7,1095.7 177.7,835.4 "/>
<line class="st1" x1="102.6" y1="878.8" x2="102.6" y2="1139.1"/>
<polygon class="st0" points="121.4,889.6 158.9,867.9 158.9,933 121.4,954.7 "/>
<polyline class="st0" points="140.1,878.8 140.1,922.1 121.4,933 "/>
<line class="st1" x1="140.1" y1="922.1" x2="158.9" y2="933"/>
<polygon class="st0" points="88.5,892.3 97.9,897.7 97.9,919.4 88.5,914 "/>
<polygon class="st0" points="121.4,976.4 121.4,998.1 158.9,976.4 158.9,954.7 "/>
<polyline class="st0" points="121.4,994.2 154.4,975.2 146.8,961.7 "/>
<polygon class="st0" points="121.4,1019.8 121.4,1063.1 158.9,1041.4 158.9,998.1 "/>
<line class="st1" x1="121.4" y1="1041.4" x2="158.9" y2="1019.8"/>
<line class="st1" x1="140.1" y1="1008.9" x2="140.1" y2="1052.3"/>
<line class="st1" x1="137" y1="1010.8" x2="137" y2="1032.4"/>
<polygon class="st0" points="124.5,1043.3 137,1036.1 137,1050.5 124.5,1057.6 "/>
<polygon class="st0" points="143.4,1032.5 155.7,1025.4 155.7,1039.6 143.4,1046.7 "/>
<line class="st1" x1="143.4" y1="1007.2" x2="143.4" y2="1028.9"/>
<line class="st1" x1="149.5" y1="960.1" x2="158.9" y2="976.4"/>
<line class="st1" x1="137" y1="1010.8" x2="137" y2="1032.4"/>
<polygon class="st0" points="83.8,867.9 102.6,878.8 177.7,835.4 177.7,835.4 158.9,824.5 83.8,867.9 "/>
<ellipse transform="matrix(0.5367 -0.8438 0.8438 0.5367 -804.7534 606.3954)" class="st0" cx="149.8" cy="1036" rx="5.3" ry="3"/>
<polyline class="st0" points="147,1040.5 156.2,1046.4 161.9,1037.5 152.8,1031.7 "/>
<ellipse transform="matrix(0.5367 -0.8438 0.8438 0.5367 -805.4286 616.9247)" class="st0" cx="159.1" cy="1041.9" rx="5.3" ry="3"/>
<polygon class="st0" points="91.3,900.4 95.1,902.6 95.1,911.4 91.3,909.2 "/>
<path class="st0" d="M219.5,1236.1v39l23.6-13.6c6.3-3.6,10.2-10.3,10.2-17.6v-27.2"/>
<ellipse transform="matrix(0.9882 -0.153 0.153 0.9882 -188.2582 47.1143)" class="st0" cx="212" cy="1246.9" rx="21.9" ry="29.7"/>
<ellipse transform="matrix(0.9882 -0.153 0.153 0.9882 -188.2582 47.1143)" class="st0" cx="212" cy="1246.9" rx="12.2" ry="16.5"/>
<path class="st0" d="M354.5,1314v39l23.6-13.6c6.3-3.6,10.2-10.3,10.2-17.6v-27.2"/>
<ellipse transform="matrix(0.9882 -0.153 0.153 0.9882 -198.5899 68.6771)" class="st0" cx="347" cy="1324.8" rx="21.9" ry="29.7"/>
<ellipse transform="matrix(0.9882 -0.153 0.153 0.9882 -198.5899 68.6771)" class="st0" cx="347" cy="1324.8" rx="12.2" ry="16.5"/>
<path class="st0" d="M192.7,1095.7L192.7,1095.7c-20.9,12.1-33.7,34.3-33.8,58.5v39l33.8,19.5l0,0c15.4-8.9,35.1-3.6,44,11.8
	c1,1.8,1.9,3.6,2.5,5.5l4.1,11.9l84.4,48.7l0,0c15.4-8.9,35.1-3.6,44,11.8c1,1.8,1.9,3.6,2.5,5.6l4.1,11.9l67.5,39l101.2-58.5
	l16.9-29.2"/>
<path class="st0" d="M158.9,1154.2l303.8,175.4l101.3-58.5l0,0c0-24.1-12.9-46.4-33.8-58.5l-33.8-19.5"/>
<path class="st0" d="M445.8,1358.8l16.9-29.2l0,0c0-24.1-12.9-46.4-33.8-58.5l-33.8-19.5"/>
<path class="st0" d="M192.7,1173.7L192.7,1173.7c0-26,28.1-42.2,50.6-29.2l67.5,39c31.3,18.1,50.6,51.5,50.6,87.7l0,0"/>
<path class="st0" d="M428.9,1295.8L428.9,1295.8l9.7,6.5c9.3,6.3,21.2,7.1,31.3,2.1l0,0c10.7-5.3,17.5-16.2,17.5-28.1l0,0
	l-33.8,19.5l-12.4-7.1c-3.9-2.3-9-0.9-11.3,3C429.3,1293,428.9,1294.4,428.9,1295.8z"/>
<path class="st0" d="M404.2,1101l-76.4-44.1c-21-12.1-46.8-12.1-67.8,0l-67.4,38.9l110.3,63.6c38.3,22.1,70.1,53.9,92.2,92.2
	c0,0,0.1,0,0.1,0l101.2-58.4l0,0C474.3,1154.9,442.5,1123.1,404.2,1101z"/>
<line class="st1" x1="277" y1="1163.9" x2="277" y2="1261.4"/>
<line class="st1" x1="353.4" y1="1197.8" x2="454.7" y2="1139.3"/>
<line class="st1" x1="454.1" y1="1344.4" x2="555.4" y2="1285.9"/>
<line class="st1" x1="158.9" y1="1154.2" x2="462.7" y2="1329.6"/>
<line class="st1" x1="554.9" y1="1237.4" x2="453.6" y2="1295.8"/>
<path class="st0" d="M554.9,1237.4l-33.3,19.5l0,0c10.4,5.9,23.2,5.4,33.1-1.4l0,0c2.2-1.5,4.2-3.3,6-5.3
	C559.1,1245.7,557.2,1241.4,554.9,1237.4z"/>
<polygon class="st0" points="167.1,1159 184,1168.7 184,1188.2 167.1,1178.5 "/>
<ellipse transform="matrix(0.8438 -0.5367 0.5367 0.8438 -602.4903 277.2465)" class="st0" cx="175" cy="1173.5" rx="3" ry="5.3"/>
<polyline class="st0" points="177.8,1177.9 168.6,1183.8 162.9,1174.9 172,1169.2 "/>
<ellipse transform="matrix(0.8438 -0.5367 0.5367 0.8438 -607.0901 273.2057)" class="st0" cx="165.7" cy="1179.4" rx="3" ry="5.3"/>
<path class="st1" d="M93,905.9L93,905.9c-17.3,10-28,28.5-28,48.5v83.7c0,36.5,16.2,71.1,44.3,94.4l56.4,46.9"/>
<path class="st1" d="M177.8,987.2l4.1,11.1c6.3,17.2-2.5,36.2-19.7,42.5c-1.2,0.5-2.5,0.8-3.8,1.1l0,0"/>
<ellipse transform="matrix(0.9882 -0.153 0.153 0.9882 -76.7999 213.3319)" class="st0" cx="1347.8" cy="605.7" rx="11.9" ry="16.1"/>
<ellipse transform="matrix(0.9882 -0.153 0.153 0.9882 -171.7606 111.9172)" class="st0" cx="641.4" cy="1172.1" rx="11.4" ry="15.5"/>
</svg>
