<svg id="Final_Illustrations_copy" data-name="Final Illustrations copy" xmlns="http://www.w3.org/2000/svg" viewBox="0 0 2000 2000"><defs><style>.cls-1,.cls-4{fill:none;}.cls-1,.cls-2,.cls-3,.cls-4{stroke:#057adc;stroke-miterlimit:10;}.cls-1,.cls-2,.cls-4{stroke-width:2px;}.cls-1{stroke-dasharray:24;}.cls-2,.cls-3{fill:#181d28;}</style></defs><polyline class="cls-1" points="370.51 1122.42 1034.23 1505.53 1858.36 1029.74 1194.44 646.67"/><line class="cls-1" x1="645.34" y1="963.83" x2="1370.29" y2="1382.41"/><line class="cls-1" x1="919.98" y1="805.25" x2="1639.71" y2="1220.82"/><line class="cls-1" x1="416.39" y1="1148.67" x2="1240.17" y2="673.02"/><line class="cls-1" x1="668.21" y1="1294" x2="1491.97" y2="818.36"/><polyline class="cls-2" points="1234.85 752 1234.97 788.54 1240.69 791.84 1246.41 788.54 1246.41 760.92"/><line class="cls-2" x1="1240.69" y1="791.84" x2="1240.69" y2="756.51"/><polyline class="cls-2" points="1383.65 828.18 1383.65 848 1389.38 851.31 1395.1 848 1395.1 821.58"/><line class="cls-2" x1="1389.38" y1="851.31" x2="1389.38" y2="824.88"/><polyline class="cls-2" points="1578.02 715.86 1578.02 735.75 1583.74 739.05 1589.46 735.75 1589.46 709.25"/><line class="cls-2" x1="1583.74" y1="739.05" x2="1583.74" y2="712.55"/><polyline class="cls-2" points="1486.64 768.72 1486.64 788.68 1492.37 791.99 1498.09 788.68 1498.09 762.11"/><line class="cls-2" x1="1492.37" y1="791.99" x2="1492.37" y2="765.52"/><polygon class="cls-2" points="1355.1 831.58 1217.72 725.76 1217.72 725.75 1469.48 580.4 1606.63 686.21 1606.63 686.22 1355.1 831.58"/><polygon class="cls-2" points="1217.72 725.76 1217.86 738.9 1355.05 844.7 1355.05 844.7 1355.1 831.58 1217.73 725.76 1217.72 725.76"/><polygon class="cls-2" points="1355.05 844.7 1355.1 831.58 1606.63 686.22 1606.63 686.22 1606.8 699.34 1355.05 844.7 1355.05 844.7"/><polygon class="cls-2" points="1229.17 725.86 1355.05 824.88 1595.36 686.12 1469.47 587.01 1229.17 725.86"/><polygon class="cls-2" points="1240.78 725.86 1355.1 818.41 1583.74 686.21 1469.62 593.52 1240.78 725.86"/><line class="cls-3" x1="1458.24" y1="600.11" x2="1572.47" y2="692.73"/><line class="cls-3" x1="1252.37" y1="719.16" x2="1366.49" y2="811.83"/><line class="cls-3" x1="1263.79" y1="712.55" x2="1377.93" y2="805.06"/><line class="cls-3" x1="1275.22" y1="705.94" x2="1389.38" y2="798.6"/><line class="cls-3" x1="1286.65" y1="699.34" x2="1401.06" y2="791.84"/><line class="cls-3" x1="1298.11" y1="692.76" x2="1412.26" y2="785.36"/><line class="cls-3" x1="1309.43" y1="686.21" x2="1423.91" y2="778.63"/><line class="cls-3" x1="1320.92" y1="679.51" x2="1435.15" y2="772.13"/><line class="cls-3" x1="1332.16" y1="673.02" x2="1446.59" y2="765.51"/><line class="cls-3" x1="1344.93" y1="666.3" x2="1458.04" y2="758.9"/><line class="cls-3" x1="1355.82" y1="659.34" x2="1469.62" y2="752.2"/><line class="cls-3" x1="1366.67" y1="653.19" x2="1480.92" y2="745.66"/><line class="cls-3" x1="1378.05" y1="646.48" x2="1492.48" y2="739.05"/><line class="cls-3" x1="1389.48" y1="639.87" x2="1503.89" y2="732.42"/><line class="cls-3" x1="1401.06" y1="633.26" x2="1515.42" y2="725.86"/><line class="cls-3" x1="1412.72" y1="626.97" x2="1526.58" y2="719.27"/><line class="cls-3" x1="1423.91" y1="620.17" x2="1538.14" y2="712.6"/><line class="cls-3" x1="1435.27" y1="613.67" x2="1549.58" y2="705.96"/><line class="cls-3" x1="1446.59" y1="606.84" x2="1560.87" y2="699.43"/><line class="cls-3" x1="1250.17" y1="733.46" x2="1479.14" y2="601.26"/><line class="cls-3" x1="1259.69" y1="741.18" x2="1488.44" y2="609.1"/><line class="cls-3" x1="1269.22" y1="748.89" x2="1498.16" y2="616.7"/><line class="cls-3" x1="1278.75" y1="756.61" x2="1507.67" y2="624.43"/><line class="cls-3" x1="1288.28" y1="764.32" x2="1517.18" y2="632.15"/><line class="cls-3" x1="1298" y1="771.92" x2="1526.58" y2="639.94"/><line class="cls-3" x1="1307.33" y1="779.75" x2="1536.2" y2="647.6"/><line class="cls-3" x1="1316.86" y1="787.46" x2="1545.71" y2="655.32"/><line class="cls-3" x1="1326.44" y1="795.21" x2="1555.22" y2="663.04"/><line class="cls-3" x1="1335.92" y1="802.89" x2="1564.73" y2="670.77"/><line class="cls-3" x1="1345.44" y1="810.6" x2="1574.24" y2="678.49"/><polyline class="cls-2" points="959.81 910.66 959.93 947.2 965.66 950.5 971.38 947.2 971.38 919.58"/><line class="cls-2" x1="965.66" y1="950.5" x2="965.66" y2="915.17"/><polyline class="cls-2" points="1108.62 986.85 1108.62 1006.67 1114.34 1009.97 1120.06 1006.67 1120.06 980.24"/><line class="cls-2" x1="1114.34" y1="1009.97" x2="1114.34" y2="983.55"/><polyline class="cls-2" points="1302.98 874.52 1302.98 894.41 1308.7 897.72 1314.43 894.41 1314.43 867.91"/><line class="cls-2" x1="1308.71" y1="897.72" x2="1308.71" y2="871.22"/><polyline class="cls-2" points="1211.61 927.38 1211.61 947.35 1217.33 950.65 1223.05 947.35 1223.05 920.77"/><line class="cls-2" x1="1217.33" y1="950.65" x2="1217.33" y2="924.18"/><polygon class="cls-2" points="1080.06 990.24 942.69 884.42 942.69 884.42 1194.44 739.07 1331.6 844.88 1331.6 844.88 1080.06 990.24"/><polygon class="cls-2" points="942.69 884.42 942.83 897.56 1080.01 1003.37 1080.01 1003.36 1080.06 990.24 942.69 884.42 942.69 884.42"/><polygon class="cls-2" points="1080.01 1003.36 1080.06 990.24 1331.6 844.88 1331.6 844.88 1331.77 858 1080.02 1003.37 1080.01 1003.36"/><polygon class="cls-2" points="954.13 884.53 1080.01 983.54 1320.32 844.78 1194.43 745.67 954.13 884.53"/><polygon class="cls-2" points="965.74 884.53 1080.06 977.08 1308.7 844.88 1194.59 752.19 965.74 884.53"/><line class="cls-3" x1="1183.2" y1="758.77" x2="1297.44" y2="851.39"/><line class="cls-3" x1="977.33" y1="877.82" x2="1091.45" y2="970.49"/><line class="cls-3" x1="988.76" y1="871.22" x2="1102.9" y2="963.72"/><line class="cls-3" x1="1000.18" y1="864.61" x2="1114.34" y2="957.26"/><line class="cls-3" x1="1011.61" y1="858" x2="1126.02" y2="950.5"/><line class="cls-3" x1="1023.08" y1="851.42" x2="1137.23" y2="944.03"/><line class="cls-3" x1="1034.39" y1="844.88" x2="1148.87" y2="937.29"/><line class="cls-3" x1="1045.89" y1="838.18" x2="1160.11" y2="930.79"/><line class="cls-3" x1="1057.12" y1="831.68" x2="1171.56" y2="924.18"/><line class="cls-3" x1="1069.89" y1="824.96" x2="1183" y2="917.56"/><line class="cls-3" x1="1080.78" y1="818" x2="1194.59" y2="910.86"/><line class="cls-3" x1="1091.63" y1="811.85" x2="1205.89" y2="904.33"/><line class="cls-3" x1="1103.02" y1="805.14" x2="1217.44" y2="897.71"/><line class="cls-3" x1="1114.44" y1="798.53" x2="1228.85" y2="891.08"/><line class="cls-3" x1="1126.02" y1="791.93" x2="1240.38" y2="884.53"/><line class="cls-3" x1="1137.68" y1="785.63" x2="1251.54" y2="877.93"/><line class="cls-3" x1="1148.87" y1="778.83" x2="1263.1" y2="871.26"/><line class="cls-3" x1="1160.23" y1="772.34" x2="1274.55" y2="864.63"/><line class="cls-3" x1="1171.56" y1="765.51" x2="1285.84" y2="858.09"/><line class="cls-3" x1="975.13" y1="892.13" x2="1204.1" y2="759.92"/><line class="cls-3" x1="984.66" y1="899.84" x2="1213.4" y2="767.76"/><line class="cls-3" x1="994.19" y1="907.56" x2="1223.12" y2="775.37"/><line class="cls-3" x1="1003.71" y1="915.27" x2="1232.63" y2="783.09"/><line class="cls-3" x1="1013.24" y1="922.98" x2="1242.14" y2="790.81"/><line class="cls-3" x1="1022.96" y1="930.58" x2="1251.54" y2="798.6"/><line class="cls-3" x1="1032.3" y1="938.41" x2="1261.16" y2="806.26"/><line class="cls-3" x1="1041.82" y1="946.12" x2="1270.67" y2="813.99"/><line class="cls-3" x1="1051.4" y1="953.87" x2="1280.18" y2="821.71"/><line class="cls-3" x1="1060.88" y1="961.55" x2="1289.69" y2="829.43"/><line class="cls-3" x1="1070.41" y1="969.26" x2="1299.2" y2="837.16"/><polyline class="cls-2" points="685.17 1069.24 685.29 1105.78 691.01 1109.08 696.73 1105.78 696.73 1078.16"/><line class="cls-2" x1="691.01" y1="1109.08" x2="691.01" y2="1073.75"/><polyline class="cls-2" points="833.97 1145.43 833.97 1165.25 839.7 1168.55 845.42 1165.25 845.42 1138.82"/><line class="cls-2" x1="839.69" y1="1168.55" x2="839.69" y2="1142.13"/><polyline class="cls-2" points="1028.34 1033.1 1028.34 1052.99 1034.06 1056.3 1039.78 1052.99 1039.78 1026.49"/><line class="cls-2" x1="1034.06" y1="1056.3" x2="1034.06" y2="1029.79"/><polyline class="cls-2" points="936.97 1085.96 936.97 1105.92 942.69 1109.23 948.41 1105.92 948.41 1079.35"/><line class="cls-2" x1="942.69" y1="1109.23" x2="942.69" y2="1082.76"/><polygon class="cls-2" points="805.42 1148.82 668.04 1043 668.04 1043 919.8 897.64 1056.95 1003.45 1056.95 1003.46 805.42 1148.82"/><polygon class="cls-2" points="668.04 1043 668.18 1056.14 805.37 1161.94 805.37 1161.94 805.42 1148.82 668.05 1043 668.04 1043"/><polygon class="cls-2" points="805.37 1161.94 805.42 1148.82 1056.95 1003.46 1056.95 1003.46 1057.12 1016.58 805.37 1161.94 805.37 1161.94"/><polygon class="cls-2" points="679.49 1043.11 805.36 1142.12 1045.68 1003.37 919.79 904.25 679.49 1043.11"/><polygon class="cls-2" points="691.1 1043.11 805.42 1135.66 1034.06 1003.46 919.94 910.77 691.1 1043.11"/><line class="cls-3" x1="908.56" y1="917.35" x2="1022.79" y2="1009.97"/><line class="cls-3" x1="702.69" y1="1036.4" x2="816.81" y2="1129.07"/><line class="cls-3" x1="714.11" y1="1029.79" x2="828.25" y2="1122.3"/><line class="cls-3" x1="725.54" y1="1023.19" x2="839.69" y2="1115.84"/><line class="cls-3" x1="736.97" y1="1016.58" x2="851.37" y2="1109.08"/><line class="cls-3" x1="748.43" y1="1010" x2="862.58" y2="1102.6"/><line class="cls-3" x1="759.75" y1="1003.46" x2="874.23" y2="1095.87"/><line class="cls-3" x1="771.24" y1="996.76" x2="885.47" y2="1089.37"/><line class="cls-3" x1="782.48" y1="990.26" x2="896.91" y2="1082.75"/><line class="cls-3" x1="795.25" y1="983.54" x2="908.36" y2="1076.14"/><line class="cls-3" x1="806.14" y1="976.58" x2="919.94" y2="1069.44"/><line class="cls-3" x1="816.99" y1="970.43" x2="931.24" y2="1062.91"/><line class="cls-3" x1="828.37" y1="963.72" x2="942.8" y2="1056.29"/><line class="cls-3" x1="839.8" y1="957.11" x2="954.21" y2="1049.66"/><line class="cls-3" x1="851.37" y1="950.5" x2="965.74" y2="1043.11"/><line class="cls-3" x1="863.04" y1="944.21" x2="976.9" y2="1036.51"/><line class="cls-3" x1="874.23" y1="937.41" x2="988.46" y2="1029.84"/><line class="cls-3" x1="885.59" y1="930.92" x2="999.9" y2="1023.21"/><line class="cls-3" x1="896.91" y1="924.09" x2="1011.19" y2="1016.67"/><line class="cls-3" x1="700.49" y1="1050.71" x2="929.46" y2="918.5"/><line class="cls-3" x1="710.01" y1="1058.42" x2="938.76" y2="926.34"/><line class="cls-3" x1="719.54" y1="1066.14" x2="948.48" y2="933.95"/><line class="cls-3" x1="729.07" y1="1073.85" x2="957.99" y2="941.67"/><line class="cls-3" x1="738.6" y1="1081.56" x2="967.5" y2="949.39"/><line class="cls-3" x1="748.32" y1="1089.16" x2="976.9" y2="957.18"/><line class="cls-3" x1="757.65" y1="1096.99" x2="986.52" y2="964.84"/><line class="cls-3" x1="767.18" y1="1104.7" x2="996.03" y2="972.57"/><line class="cls-3" x1="776.76" y1="1112.45" x2="1005.54" y2="980.29"/><line class="cls-3" x1="786.24" y1="1120.13" x2="1015.05" y2="988.01"/><line class="cls-3" x1="795.76" y1="1127.84" x2="1024.56" y2="995.74"/><polyline class="cls-2" points="410.52 1227.84 410.65 1264.38 416.37 1267.68 422.09 1264.38 422.09 1236.76"/><line class="cls-2" x1="416.37" y1="1267.68" x2="416.37" y2="1232.35"/><polyline class="cls-2" points="559.33 1304.02 559.33 1323.85 565.05 1327.15 570.77 1323.85 570.77 1297.42"/><line class="cls-2" x1="565.05" y1="1327.15" x2="565.05" y2="1300.72"/><polyline class="cls-2" points="753.7 1191.69 753.7 1211.59 759.42 1214.89 765.14 1211.59 765.14 1185.09"/><line class="cls-2" x1="759.42" y1="1214.89" x2="759.42" y2="1188.39"/><polyline class="cls-2" points="662.32 1244.56 662.32 1264.52 668.04 1267.83 673.76 1264.52 673.76 1237.95"/><line class="cls-2" x1="668.04" y1="1267.83" x2="668.04" y2="1241.36"/><polygon class="cls-2" points="530.77 1307.42 393.4 1201.6 393.4 1201.59 645.15 1056.24 782.31 1162.05 782.31 1162.06 530.77 1307.42"/><polygon class="cls-2" points="393.4 1201.6 393.54 1214.74 530.72 1320.54 530.72 1320.54 530.77 1307.42 393.4 1201.6 393.4 1201.6"/><polygon class="cls-2" points="530.72 1320.54 530.77 1307.42 782.31 1162.06 782.31 1162.06 782.48 1175.18 530.73 1320.54 530.72 1320.54"/><polygon class="cls-2" points="404.84 1201.7 530.72 1300.72 771.03 1161.96 645.15 1062.85 404.84 1201.7"/><polygon class="cls-2" points="416.45 1201.7 530.77 1294.25 759.42 1162.05 645.3 1069.37 416.45 1201.7"/><line class="cls-3" x1="633.91" y1="1075.95" x2="748.15" y2="1168.57"/><line class="cls-3" x1="428.04" y1="1195" x2="542.16" y2="1287.67"/><line class="cls-3" x1="439.47" y1="1188.39" x2="553.61" y2="1280.9"/><line class="cls-3" x1="450.9" y1="1181.78" x2="565.05" y2="1274.43"/><line class="cls-3" x1="462.32" y1="1175.18" x2="576.73" y2="1267.68"/><line class="cls-3" x1="473.79" y1="1168.6" x2="587.94" y2="1261.2"/><line class="cls-3" x1="485.1" y1="1162.05" x2="599.59" y2="1254.47"/><line class="cls-3" x1="496.6" y1="1155.35" x2="610.82" y2="1247.97"/><line class="cls-3" x1="507.83" y1="1148.86" x2="622.27" y2="1241.35"/><line class="cls-3" x1="520.6" y1="1142.14" x2="633.71" y2="1234.74"/><line class="cls-3" x1="531.49" y1="1135.18" x2="645.3" y2="1228.04"/><line class="cls-3" x1="542.35" y1="1129.03" x2="656.6" y2="1221.5"/><line class="cls-3" x1="553.73" y1="1122.32" x2="668.15" y2="1214.89"/><line class="cls-3" x1="565.16" y1="1115.71" x2="679.56" y2="1208.26"/><line class="cls-3" x1="576.73" y1="1109.1" x2="691.1" y2="1201.7"/><line class="cls-3" x1="588.4" y1="1102.81" x2="702.25" y2="1195.11"/><line class="cls-3" x1="599.59" y1="1096.01" x2="713.82" y2="1188.44"/><line class="cls-3" x1="610.94" y1="1089.51" x2="725.26" y2="1181.8"/><line class="cls-3" x1="622.27" y1="1082.68" x2="736.55" y2="1175.27"/><line class="cls-3" x1="425.84" y1="1209.3" x2="654.81" y2="1077.1"/><line class="cls-3" x1="435.37" y1="1217.02" x2="664.12" y2="1084.94"/><line class="cls-3" x1="444.9" y1="1224.73" x2="673.83" y2="1092.54"/><line class="cls-3" x1="454.42" y1="1232.44" x2="683.34" y2="1100.27"/><line class="cls-3" x1="463.95" y1="1240.16" x2="692.85" y2="1107.99"/><line class="cls-3" x1="473.67" y1="1247.76" x2="702.25" y2="1115.78"/><line class="cls-3" x1="483.01" y1="1255.59" x2="711.87" y2="1123.44"/><line class="cls-3" x1="492.54" y1="1263.3" x2="721.38" y2="1131.16"/><line class="cls-3" x1="502.11" y1="1271.05" x2="730.89" y2="1138.88"/><line class="cls-3" x1="511.59" y1="1278.73" x2="740.4" y2="1146.61"/><line class="cls-3" x1="521.12" y1="1286.44" x2="749.91" y2="1154.33"/><polyline class="cls-2" points="1486.41 897.35 1486.53 933.88 1492.25 937.19 1497.98 933.88 1497.98 906.27"/><line class="cls-2" x1="1492.25" y1="937.19" x2="1492.25" y2="901.85"/><polyline class="cls-2" points="1635.21 973.53 1635.21 993.35 1640.94 996.66 1646.66 993.35 1646.66 966.93"/><line class="cls-2" x1="1640.94" y1="996.66" x2="1640.94" y2="970.23"/><polyline class="cls-2" points="1829.58 861.2 1829.58 881.1 1835.3 884.4 1841.02 881.1 1841.02 854.6"/><line class="cls-2" x1="1835.3" y1="884.4" x2="1835.3" y2="857.9"/><polyline class="cls-2" points="1738.21 914.06 1738.21 934.03 1743.93 937.33 1749.65 934.03 1749.65 907.46"/><line class="cls-2" x1="1743.93" y1="937.33" x2="1743.93" y2="910.87"/><polygon class="cls-2" points="1606.66 976.93 1469.29 871.1 1469.29 871.1 1721.04 725.75 1858.19 831.56 1858.19 831.56 1606.66 976.93"/><polygon class="cls-2" points="1469.28 871.11 1469.42 884.25 1606.61 990.05 1606.61 990.05 1606.66 976.93 1469.29 871.1 1469.28 871.11"/><polygon class="cls-2" points="1606.61 990.05 1606.66 976.93 1858.19 831.56 1858.19 831.56 1858.36 844.68 1606.61 990.05 1606.61 990.05"/><polygon class="cls-2" points="1480.73 871.21 1606.61 970.23 1846.92 831.47 1721.03 732.36 1480.73 871.21"/><polygon class="cls-2" points="1492.34 871.21 1606.66 963.76 1835.3 831.56 1721.18 738.87 1492.34 871.21"/><line class="cls-3" x1="1709.8" y1="745.46" x2="1824.03" y2="838.08"/><line class="cls-3" x1="1503.93" y1="864.51" x2="1618.05" y2="957.18"/><line class="cls-3" x1="1515.36" y1="857.9" x2="1629.49" y2="950.4"/><line class="cls-3" x1="1526.78" y1="851.29" x2="1640.94" y2="943.94"/><line class="cls-3" x1="1538.21" y1="844.68" x2="1652.62" y2="937.19"/><line class="cls-3" x1="1549.67" y1="838.11" x2="1663.82" y2="930.71"/><line class="cls-3" x1="1560.99" y1="831.56" x2="1675.47" y2="923.97"/><line class="cls-3" x1="1572.49" y1="824.86" x2="1686.71" y2="917.48"/><line class="cls-3" x1="1583.72" y1="818.37" x2="1698.15" y2="910.86"/><line class="cls-3" x1="1596.49" y1="811.65" x2="1709.6" y2="904.24"/><line class="cls-3" x1="1607.38" y1="804.68" x2="1721.18" y2="897.54"/><line class="cls-3" x1="1618.23" y1="798.54" x2="1732.48" y2="891.01"/><line class="cls-3" x1="1629.62" y1="791.82" x2="1744.04" y2="884.39"/><line class="cls-3" x1="1641.04" y1="785.22" x2="1755.45" y2="877.77"/><line class="cls-3" x1="1652.62" y1="778.61" x2="1766.98" y2="871.21"/><line class="cls-3" x1="1664.28" y1="772.32" x2="1778.14" y2="864.61"/><line class="cls-3" x1="1675.47" y1="765.51" x2="1789.7" y2="857.94"/><line class="cls-3" x1="1686.83" y1="759.02" x2="1801.15" y2="851.31"/><line class="cls-3" x1="1698.15" y1="752.19" x2="1812.43" y2="844.77"/><line class="cls-3" x1="1501.73" y1="878.81" x2="1730.7" y2="746.6"/><line class="cls-3" x1="1511.25" y1="886.52" x2="1740" y2="754.45"/><line class="cls-3" x1="1520.78" y1="894.24" x2="1749.72" y2="762.05"/><line class="cls-3" x1="1530.31" y1="901.95" x2="1759.23" y2="769.77"/><line class="cls-3" x1="1539.84" y1="909.67" x2="1768.74" y2="777.5"/><line class="cls-3" x1="1549.56" y1="917.27" x2="1778.14" y2="785.29"/><line class="cls-3" x1="1558.89" y1="925.09" x2="1787.76" y2="792.95"/><line class="cls-3" x1="1568.42" y1="932.81" x2="1797.27" y2="800.67"/><line class="cls-3" x1="1578" y1="940.56" x2="1806.78" y2="808.39"/><line class="cls-3" x1="1587.48" y1="948.23" x2="1816.29" y2="816.12"/><line class="cls-3" x1="1597.01" y1="955.95" x2="1825.8" y2="823.84"/><polyline class="cls-2" points="1211.37 1056.01 1211.5 1092.55 1217.22 1095.85 1222.94 1092.55 1222.94 1064.93"/><line class="cls-2" x1="1217.22" y1="1095.85" x2="1217.22" y2="1060.52"/><polyline class="cls-2" points="1360.18 1132.19 1360.18 1152.02 1365.9 1155.32 1371.62 1152.02 1371.62 1125.59"/><line class="cls-2" x1="1365.9" y1="1155.32" x2="1365.9" y2="1128.89"/><polyline class="cls-2" points="1554.55 1019.87 1554.55 1039.76 1560.27 1043.07 1565.99 1039.76 1565.99 1013.26"/><line class="cls-2" x1="1560.27" y1="1043.06" x2="1560.27" y2="1016.56"/><polyline class="cls-2" points="1463.17 1072.73 1463.17 1092.69 1468.89 1096 1474.61 1092.69 1474.61 1066.12"/><line class="cls-2" x1="1468.89" y1="1096" x2="1468.89" y2="1069.53"/><polygon class="cls-2" points="1331.62 1135.59 1194.25 1029.77 1194.25 1029.76 1446.01 884.41 1583.16 990.22 1583.16 990.23 1331.62 1135.59"/><polygon class="cls-2" points="1194.25 1029.77 1194.39 1042.91 1331.57 1148.71 1331.57 1148.71 1331.62 1135.59 1194.25 1029.77 1194.25 1029.77"/><polygon class="cls-2" points="1331.57 1148.71 1331.62 1135.59 1583.16 990.23 1583.16 990.23 1583.33 1003.35 1331.58 1148.71 1331.57 1148.71"/><polygon class="cls-2" points="1205.69 1029.87 1331.57 1128.89 1571.88 990.13 1446 891.02 1205.69 1029.87"/><polygon class="cls-2" points="1217.3 1029.87 1331.62 1122.42 1560.27 990.22 1446.15 897.53 1217.3 1029.87"/><line class="cls-3" x1="1434.76" y1="904.12" x2="1549" y2="996.74"/><line class="cls-3" x1="1228.89" y1="1023.17" x2="1343.01" y2="1115.84"/><line class="cls-3" x1="1240.32" y1="1016.56" x2="1354.46" y2="1109.07"/><line class="cls-3" x1="1251.75" y1="1009.95" x2="1365.9" y2="1102.61"/><line class="cls-3" x1="1263.17" y1="1003.35" x2="1377.58" y2="1095.85"/><line class="cls-3" x1="1274.64" y1="996.77" x2="1388.79" y2="1089.37"/><line class="cls-3" x1="1285.95" y1="990.22" x2="1400.44" y2="1082.64"/><line class="cls-3" x1="1297.45" y1="983.52" x2="1411.67" y2="1076.14"/><line class="cls-3" x1="1308.68" y1="977.03" x2="1423.12" y2="1069.52"/><line class="cls-3" x1="1321.45" y1="970.31" x2="1434.56" y2="1062.91"/><line class="cls-3" x1="1332.34" y1="963.35" x2="1446.15" y2="1056.21"/><line class="cls-3" x1="1343.19" y1="957.2" x2="1457.45" y2="1049.67"/><line class="cls-3" x1="1354.58" y1="950.49" x2="1469" y2="1043.06"/><line class="cls-3" x1="1366.01" y1="943.88" x2="1480.41" y2="1036.43"/><line class="cls-3" x1="1377.58" y1="937.27" x2="1491.95" y2="1029.87"/><line class="cls-3" x1="1389.25" y1="930.98" x2="1503.1" y2="1023.28"/><line class="cls-3" x1="1400.44" y1="924.18" x2="1514.67" y2="1016.61"/><line class="cls-3" x1="1411.79" y1="917.68" x2="1526.11" y2="1009.97"/><line class="cls-3" x1="1423.12" y1="910.85" x2="1537.4" y2="1003.44"/><line class="cls-3" x1="1226.69" y1="1037.47" x2="1455.66" y2="905.27"/><line class="cls-3" x1="1236.22" y1="1045.19" x2="1464.97" y2="913.11"/><line class="cls-3" x1="1245.75" y1="1052.9" x2="1474.68" y2="920.71"/><line class="cls-3" x1="1255.27" y1="1060.62" x2="1484.19" y2="928.44"/><line class="cls-3" x1="1264.8" y1="1068.33" x2="1493.7" y2="936.16"/><line class="cls-3" x1="1274.52" y1="1075.93" x2="1503.1" y2="943.95"/><line class="cls-3" x1="1283.86" y1="1083.76" x2="1512.72" y2="951.61"/><line class="cls-3" x1="1293.39" y1="1091.47" x2="1522.23" y2="959.33"/><line class="cls-3" x1="1302.96" y1="1099.22" x2="1531.74" y2="967.05"/><line class="cls-3" x1="1312.44" y1="1106.9" x2="1541.25" y2="974.78"/><line class="cls-3" x1="1321.97" y1="1114.61" x2="1550.76" y2="982.5"/><polyline class="cls-2" points="936.73 1214.59 936.85 1251.13 942.57 1254.43 948.3 1251.13 948.3 1223.51"/><line class="cls-2" x1="942.57" y1="1254.43" x2="942.57" y2="1219.1"/><polyline class="cls-2" points="1085.53 1290.77 1085.53 1310.6 1091.26 1313.9 1096.98 1310.6 1096.98 1284.17"/><line class="cls-2" x1="1091.26" y1="1313.9" x2="1091.26" y2="1287.47"/><polyline class="cls-2" points="1279.9 1178.44 1279.9 1198.34 1285.62 1201.64 1291.34 1198.34 1291.34 1171.84"/><line class="cls-2" x1="1285.62" y1="1201.64" x2="1285.62" y2="1175.14"/><polyline class="cls-2" points="1188.53 1231.31 1188.53 1251.27 1194.25 1254.58 1199.97 1251.27 1199.97 1224.7"/><line class="cls-2" x1="1194.25" y1="1254.58" x2="1194.25" y2="1228.11"/><polygon class="cls-2" points="1056.98 1294.17 919.61 1188.35 919.61 1188.34 1171.36 1042.99 1308.51 1148.8 1308.51 1148.8 1056.98 1294.17"/><polygon class="cls-2" points="919.6 1188.35 919.74 1201.49 1056.93 1307.29 1056.93 1307.29 1056.98 1294.17 919.61 1188.35 919.6 1188.35"/><polygon class="cls-2" points="1056.93 1307.29 1056.98 1294.17 1308.51 1148.8 1308.52 1148.81 1308.68 1161.93 1056.93 1307.29 1056.93 1307.29"/><polygon class="cls-2" points="931.05 1188.45 1056.92 1287.47 1297.24 1148.71 1171.35 1049.6 931.05 1188.45"/><polygon class="cls-2" points="942.66 1188.45 1056.98 1281 1285.62 1148.8 1171.5 1056.12 942.66 1188.45"/><line class="cls-3" x1="1160.12" y1="1062.7" x2="1274.35" y2="1155.32"/><line class="cls-3" x1="954.25" y1="1181.75" x2="1068.37" y2="1274.42"/><line class="cls-3" x1="965.68" y1="1175.14" x2="1079.81" y2="1267.65"/><line class="cls-3" x1="977.1" y1="1168.53" x2="1091.26" y2="1261.18"/><line class="cls-3" x1="988.53" y1="1161.93" x2="1102.94" y2="1254.43"/><line class="cls-3" x1="999.99" y1="1155.35" x2="1114.14" y2="1247.95"/><line class="cls-3" x1="1011.31" y1="1148.8" x2="1125.79" y2="1241.22"/><line class="cls-3" x1="1022.81" y1="1142.1" x2="1137.03" y2="1234.72"/><line class="cls-3" x1="1034.04" y1="1135.61" x2="1148.47" y2="1228.1"/><line class="cls-3" x1="1046.81" y1="1128.89" x2="1159.92" y2="1221.49"/><line class="cls-3" x1="1057.7" y1="1121.93" x2="1171.5" y2="1214.79"/><line class="cls-3" x1="1068.55" y1="1115.78" x2="1182.8" y2="1208.25"/><line class="cls-3" x1="1079.94" y1="1109.07" x2="1194.36" y2="1201.64"/><line class="cls-3" x1="1091.36" y1="1102.46" x2="1205.77" y2="1195.01"/><line class="cls-3" x1="1102.94" y1="1095.85" x2="1217.3" y2="1188.45"/><line class="cls-3" x1="1114.6" y1="1089.56" x2="1228.46" y2="1181.85"/><line class="cls-3" x1="1125.79" y1="1082.76" x2="1240.02" y2="1175.19"/><line class="cls-3" x1="1137.15" y1="1076.26" x2="1251.47" y2="1168.55"/><line class="cls-3" x1="1148.47" y1="1069.43" x2="1262.75" y2="1162.02"/><line class="cls-3" x1="952.05" y1="1196.05" x2="1181.02" y2="1063.84"/><line class="cls-3" x1="961.57" y1="1203.77" x2="1190.32" y2="1071.69"/><line class="cls-3" x1="971.1" y1="1211.48" x2="1200.04" y2="1079.29"/><line class="cls-3" x1="980.63" y1="1219.19" x2="1209.55" y2="1087.02"/><line class="cls-3" x1="990.16" y1="1226.91" x2="1219.06" y2="1094.74"/><line class="cls-3" x1="999.88" y1="1234.51" x2="1228.46" y2="1102.53"/><line class="cls-3" x1="1009.21" y1="1242.34" x2="1238.08" y2="1110.19"/><line class="cls-3" x1="1018.74" y1="1250.05" x2="1247.59" y2="1117.91"/><line class="cls-3" x1="1028.32" y1="1257.8" x2="1257.1" y2="1125.63"/><line class="cls-3" x1="1037.8" y1="1265.48" x2="1266.61" y2="1133.36"/><line class="cls-3" x1="1047.33" y1="1273.19" x2="1276.12" y2="1141.08"/><polyline class="cls-2" points="662.09 1373.19 662.21 1409.72 667.93 1413.03 673.65 1409.72 673.65 1382.11"/><line class="cls-2" x1="667.93" y1="1413.03" x2="667.93" y2="1377.69"/><polyline class="cls-2" points="810.89 1449.37 810.89 1469.19 816.61 1472.5 822.33 1469.19 822.33 1442.77"/><line class="cls-2" x1="816.61" y1="1472.5" x2="816.61" y2="1446.07"/><polyline class="cls-2" points="1005.26 1337.04 1005.26 1356.94 1010.98 1360.24 1016.7 1356.94 1016.7 1330.43"/><line class="cls-2" x1="1010.98" y1="1360.24" x2="1010.98" y2="1333.74"/><polyline class="cls-2" points="913.88 1389.9 913.88 1409.87 919.6 1413.17 925.33 1409.87 925.33 1383.3"/><line class="cls-2" x1="919.6" y1="1413.17" x2="919.6" y2="1386.71"/><polygon class="cls-2" points="782.33 1452.77 644.96 1346.94 644.96 1346.94 896.72 1201.59 1033.87 1307.4 1033.87 1307.4 782.33 1452.77"/><polygon class="cls-2" points="644.96 1346.95 645.1 1360.09 782.28 1465.89 782.28 1465.89 782.33 1452.77 644.96 1346.94 644.96 1346.95"/><polygon class="cls-2" points="782.28 1465.89 782.33 1452.77 1033.87 1307.4 1033.87 1307.4 1034.04 1320.52 782.29 1465.89 782.28 1465.89"/><polygon class="cls-2" points="656.4 1347.05 782.28 1446.07 1022.6 1307.31 896.71 1208.2 656.4 1347.05"/><polygon class="cls-2" points="668.01 1347.05 782.33 1439.6 1010.98 1307.4 896.86 1214.71 668.01 1347.05"/><line class="cls-3" x1="885.47" y1="1221.3" x2="999.71" y2="1313.92"/><line class="cls-3" x1="679.61" y1="1340.35" x2="793.72" y2="1433.01"/><line class="cls-3" x1="691.03" y1="1333.74" x2="805.17" y2="1426.24"/><line class="cls-3" x1="702.46" y1="1327.13" x2="816.61" y2="1419.78"/><line class="cls-3" x1="713.88" y1="1320.52" x2="828.29" y2="1413.03"/><line class="cls-3" x1="725.35" y1="1313.95" x2="839.5" y2="1406.55"/><line class="cls-3" x1="736.67" y1="1307.4" x2="851.15" y2="1399.81"/><line class="cls-3" x1="748.16" y1="1300.7" x2="862.39" y2="1393.32"/><line class="cls-3" x1="759.39" y1="1294.21" x2="873.83" y2="1386.7"/><line class="cls-3" x1="772.16" y1="1287.49" x2="885.27" y2="1380.08"/><line class="cls-3" x1="783.06" y1="1280.52" x2="896.86" y2="1373.38"/><line class="cls-3" x1="793.91" y1="1274.38" x2="908.16" y2="1366.85"/><line class="cls-3" x1="805.29" y1="1267.66" x2="919.71" y2="1360.23"/><line class="cls-3" x1="816.72" y1="1261.06" x2="931.13" y2="1353.61"/><line class="cls-3" x1="828.29" y1="1254.45" x2="942.66" y2="1347.05"/><line class="cls-3" x1="839.96" y1="1248.16" x2="953.81" y2="1340.45"/><line class="cls-3" x1="851.15" y1="1241.35" x2="965.38" y2="1333.78"/><line class="cls-3" x1="862.5" y1="1234.86" x2="976.82" y2="1327.15"/><line class="cls-3" x1="873.83" y1="1228.03" x2="988.11" y2="1320.61"/><line class="cls-3" x1="677.4" y1="1354.65" x2="906.38" y2="1222.44"/><line class="cls-3" x1="686.93" y1="1362.36" x2="915.68" y2="1230.29"/><line class="cls-3" x1="696.46" y1="1370.08" x2="925.4" y2="1237.89"/><line class="cls-3" x1="705.99" y1="1377.79" x2="934.91" y2="1245.61"/><line class="cls-3" x1="715.51" y1="1385.51" x2="944.42" y2="1253.34"/><line class="cls-3" x1="725.23" y1="1393.11" x2="953.81" y2="1261.13"/><line class="cls-3" x1="734.57" y1="1400.93" x2="963.44" y2="1268.79"/><line class="cls-3" x1="744.1" y1="1408.65" x2="972.94" y2="1276.51"/><line class="cls-3" x1="753.67" y1="1416.4" x2="982.45" y2="1284.23"/><line class="cls-3" x1="763.15" y1="1424.07" x2="991.96" y2="1291.96"/><line class="cls-3" x1="772.68" y1="1431.79" x2="1001.47" y2="1299.68"/><polyline class="cls-2" points="983.09 606.6 983.21 643.13 988.93 646.44 994.65 643.13 994.65 615.52"/><line class="cls-2" x1="988.93" y1="646.44" x2="988.93" y2="611.11"/><polyline class="cls-2" points="1131.89 682.78 1131.89 702.6 1137.61 705.91 1143.34 702.6 1143.34 676.18"/><line class="cls-2" x1="1137.61" y1="705.91" x2="1137.61" y2="679.48"/><polyline class="cls-2" points="1326.26 570.45 1326.26 590.35 1331.98 593.65 1337.7 590.35 1337.7 563.85"/><line class="cls-2" x1="1331.98" y1="593.65" x2="1331.98" y2="567.15"/><polyline class="cls-2" points="1234.88 623.31 1234.88 643.28 1240.61 646.58 1246.33 643.28 1246.33 616.71"/><line class="cls-2" x1="1240.61" y1="646.58" x2="1240.61" y2="620.12"/><polygon class="cls-2" points="1103.34 686.18 965.96 580.35 965.96 580.35 1217.72 435 1354.87 540.81 1354.87 540.81 1103.34 686.18"/><polygon class="cls-2" points="965.96 580.36 966.1 593.5 1103.28 699.3 1103.29 699.3 1103.34 686.18 965.97 580.35 965.96 580.36"/><polygon class="cls-2" points="1103.29 699.3 1103.34 686.18 1354.87 540.81 1354.87 540.81 1355.04 553.93 1103.29 699.3 1103.29 699.3"/><polygon class="cls-2" points="977.4 580.46 1103.28 679.48 1343.6 540.72 1217.71 441.61 977.4 580.46"/><polygon class="cls-2" points="989.01 580.46 1103.34 673.01 1331.98 540.81 1217.86 448.12 989.01 580.46"/><line class="cls-3" x1="1206.48" y1="454.71" x2="1320.71" y2="547.33"/><line class="cls-3" x1="1000.61" y1="573.76" x2="1114.73" y2="666.43"/><line class="cls-3" x1="1012.03" y1="567.15" x2="1126.17" y2="659.65"/><line class="cls-3" x1="1023.46" y1="560.54" x2="1137.61" y2="653.19"/><line class="cls-3" x1="1034.89" y1="553.93" x2="1149.29" y2="646.44"/><line class="cls-3" x1="1046.35" y1="547.36" x2="1160.5" y2="639.96"/><line class="cls-3" x1="1057.67" y1="540.81" x2="1172.15" y2="633.22"/><line class="cls-3" x1="1069.16" y1="534.11" x2="1183.39" y2="626.73"/><line class="cls-3" x1="1080.4" y1="527.62" x2="1194.83" y2="620.11"/><line class="cls-3" x1="1093.17" y1="520.9" x2="1206.28" y2="613.49"/><line class="cls-3" x1="1104.06" y1="513.93" x2="1217.86" y2="606.79"/><line class="cls-3" x1="1114.91" y1="507.79" x2="1229.16" y2="600.26"/><line class="cls-3" x1="1126.29" y1="501.07" x2="1240.72" y2="593.64"/><line class="cls-3" x1="1137.72" y1="494.47" x2="1252.13" y2="587.02"/><line class="cls-3" x1="1149.29" y1="487.86" x2="1263.66" y2="580.46"/><line class="cls-3" x1="1160.96" y1="481.57" x2="1274.82" y2="573.86"/><line class="cls-3" x1="1172.15" y1="474.76" x2="1286.38" y2="567.19"/><line class="cls-3" x1="1183.5" y1="468.27" x2="1297.82" y2="560.56"/><line class="cls-3" x1="1194.83" y1="461.44" x2="1309.11" y2="554.02"/><line class="cls-3" x1="998.4" y1="588.06" x2="1227.38" y2="455.85"/><line class="cls-3" x1="1007.93" y1="595.78" x2="1236.68" y2="463.7"/><line class="cls-3" x1="1017.46" y1="603.49" x2="1246.4" y2="471.3"/><line class="cls-3" x1="1026.99" y1="611.2" x2="1255.91" y2="479.02"/><line class="cls-3" x1="1036.52" y1="618.92" x2="1265.42" y2="486.75"/><line class="cls-3" x1="1046.24" y1="626.52" x2="1274.82" y2="494.54"/><line class="cls-3" x1="1055.57" y1="634.34" x2="1284.44" y2="502.2"/><line class="cls-3" x1="1065.1" y1="642.06" x2="1293.95" y2="509.92"/><line class="cls-3" x1="1074.67" y1="649.81" x2="1303.45" y2="517.64"/><line class="cls-3" x1="1084.16" y1="657.48" x2="1312.97" y2="525.37"/><line class="cls-3" x1="1093.68" y1="665.2" x2="1322.48" y2="533.09"/><polyline class="cls-2" points="708.05 765.26 708.17 801.8 713.9 805.1 719.62 801.8 719.62 774.18"/><line class="cls-2" x1="713.9" y1="805.1" x2="713.9" y2="769.77"/><polyline class="cls-2" points="856.86 841.44 856.86 861.27 862.58 864.57 868.3 861.27 868.3 834.84"/><line class="cls-2" x1="862.58" y1="864.57" x2="862.58" y2="838.14"/><polyline class="cls-2" points="1051.22 729.12 1051.22 749.01 1056.94 752.32 1062.67 749.01 1062.67 722.51"/><line class="cls-2" x1="1056.94" y1="752.31" x2="1056.94" y2="725.81"/><polyline class="cls-2" points="959.85 781.98 959.85 801.94 965.57 805.25 971.29 801.94 971.29 775.37"/><line class="cls-2" x1="965.57" y1="805.25" x2="965.57" y2="778.78"/><polygon class="cls-2" points="828.3 844.84 690.93 739.02 690.93 739.01 942.68 593.66 1079.83 699.47 1079.83 699.48 828.3 844.84"/><polygon class="cls-2" points="690.92 739.02 691.07 752.16 828.25 857.96 828.25 857.96 828.3 844.84 690.93 739.02 690.92 739.02"/><polygon class="cls-2" points="828.25 857.96 828.3 844.84 1079.83 699.48 1079.84 699.48 1080 712.6 828.25 857.96 828.25 857.96"/><polygon class="cls-2" points="702.37 739.12 828.25 838.14 1068.56 699.38 942.67 600.27 702.37 739.12"/><polygon class="cls-2" points="713.98 739.12 828.3 831.67 1056.94 699.47 942.82 606.78 713.98 739.12"/><line class="cls-3" x1="931.44" y1="613.37" x2="1045.67" y2="705.99"/><line class="cls-3" x1="725.57" y1="732.42" x2="839.69" y2="825.09"/><line class="cls-3" x1="737" y1="725.81" x2="851.13" y2="818.32"/><line class="cls-3" x1="748.42" y1="719.2" x2="862.58" y2="811.86"/><line class="cls-3" x1="759.85" y1="712.6" x2="874.26" y2="805.1"/><line class="cls-3" x1="771.31" y1="706.02" x2="885.46" y2="798.62"/><line class="cls-3" x1="782.63" y1="699.47" x2="897.11" y2="791.89"/><line class="cls-3" x1="794.13" y1="692.77" x2="908.35" y2="785.39"/><line class="cls-3" x1="805.36" y1="686.28" x2="919.8" y2="778.77"/><line class="cls-3" x1="818.13" y1="679.56" x2="931.24" y2="772.16"/><line class="cls-3" x1="829.02" y1="672.6" x2="942.82" y2="765.46"/><line class="cls-3" x1="839.87" y1="666.45" x2="954.13" y2="758.92"/><line class="cls-3" x1="851.26" y1="659.74" x2="965.68" y2="752.31"/><line class="cls-3" x1="862.68" y1="653.13" x2="977.09" y2="745.68"/><line class="cls-3" x1="874.26" y1="646.52" x2="988.62" y2="739.12"/><line class="cls-3" x1="885.92" y1="640.23" x2="999.78" y2="732.53"/><line class="cls-3" x1="897.11" y1="633.43" x2="1011.34" y2="725.86"/><line class="cls-3" x1="908.47" y1="626.93" x2="1022.79" y2="719.22"/><line class="cls-3" x1="919.8" y1="620.1" x2="1034.08" y2="712.69"/><line class="cls-3" x1="723.37" y1="746.72" x2="952.34" y2="614.52"/><line class="cls-3" x1="732.9" y1="754.44" x2="961.64" y2="622.36"/><line class="cls-3" x1="742.43" y1="762.15" x2="971.36" y2="629.96"/><line class="cls-3" x1="751.95" y1="769.87" x2="980.87" y2="637.69"/><line class="cls-3" x1="761.48" y1="777.58" x2="990.38" y2="645.41"/><line class="cls-3" x1="771.2" y1="785.18" x2="999.78" y2="653.2"/><line class="cls-3" x1="780.54" y1="793.01" x2="1009.4" y2="660.86"/><line class="cls-3" x1="790.06" y1="800.72" x2="1018.91" y2="668.58"/><line class="cls-3" x1="799.64" y1="808.47" x2="1028.42" y2="676.3"/><line class="cls-3" x1="809.12" y1="816.15" x2="1037.93" y2="684.03"/><line class="cls-3" x1="818.65" y1="823.86" x2="1047.44" y2="691.75"/><polyline class="cls-2" points="433.41 923.84 433.53 960.38 439.25 963.68 444.97 960.38 444.97 932.76"/><line class="cls-2" x1="439.25" y1="963.68" x2="439.25" y2="928.35"/><polyline class="cls-2" points="582.21 1000.02 582.21 1019.85 587.93 1023.15 593.66 1019.85 593.66 993.42"/><line class="cls-2" x1="587.93" y1="1023.15" x2="587.93" y2="996.72"/><polyline class="cls-2" points="776.58 887.7 776.58 907.59 782.3 910.89 788.02 907.59 788.02 881.09"/><line class="cls-2" x1="782.3" y1="910.89" x2="782.3" y2="884.39"/><polyline class="cls-2" points="685.2 940.56 685.2 960.52 690.92 963.83 696.65 960.52 696.65 933.95"/><line class="cls-2" x1="690.93" y1="963.83" x2="690.93" y2="937.36"/><polygon class="cls-2" points="553.66 1003.42 416.28 897.6 416.28 897.59 668.04 752.24 805.19 858.05 805.19 858.05 553.66 1003.42"/><polygon class="cls-2" points="416.28 897.6 416.42 910.74 553.6 1016.54 553.61 1016.54 553.66 1003.42 416.29 897.6 416.28 897.6"/><polygon class="cls-2" points="553.61 1016.54 553.66 1003.42 805.19 858.05 805.19 858.06 805.36 871.18 553.61 1016.54 553.61 1016.54"/><polygon class="cls-2" points="427.73 897.7 553.6 996.72 793.92 857.96 668.03 758.85 427.73 897.7"/><polygon class="cls-2" points="439.33 897.7 553.66 990.25 782.3 858.05 668.18 765.37 439.33 897.7"/><line class="cls-3" x1="656.8" y1="771.95" x2="771.03" y2="864.57"/><line class="cls-3" x1="450.93" y1="891" x2="565.05" y2="983.67"/><line class="cls-3" x1="462.35" y1="884.39" x2="576.49" y2="976.9"/><line class="cls-3" x1="473.78" y1="877.78" x2="587.93" y2="970.43"/><line class="cls-3" x1="485.21" y1="871.18" x2="599.61" y2="963.68"/><line class="cls-3" x1="496.67" y1="864.6" x2="610.82" y2="957.2"/><line class="cls-3" x1="507.99" y1="858.05" x2="622.47" y2="950.47"/><line class="cls-3" x1="519.48" y1="851.35" x2="633.71" y2="943.97"/><line class="cls-3" x1="530.72" y1="844.86" x2="645.15" y2="937.35"/><line class="cls-3" x1="543.49" y1="838.14" x2="656.59" y2="930.74"/><line class="cls-3" x1="554.38" y1="831.18" x2="668.18" y2="924.04"/><line class="cls-3" x1="565.23" y1="825.03" x2="679.48" y2="917.5"/><line class="cls-3" x1="576.61" y1="818.32" x2="691.04" y2="910.89"/><line class="cls-3" x1="588.04" y1="811.71" x2="702.45" y2="904.26"/><line class="cls-3" x1="599.61" y1="805.1" x2="713.98" y2="897.7"/><line class="cls-3" x1="611.28" y1="798.81" x2="725.14" y2="891.11"/><line class="cls-3" x1="622.47" y1="792.01" x2="736.7" y2="884.44"/><line class="cls-3" x1="633.82" y1="785.51" x2="748.14" y2="877.8"/><line class="cls-3" x1="645.15" y1="778.68" x2="759.43" y2="871.27"/><line class="cls-3" x1="448.72" y1="905.3" x2="677.7" y2="773.09"/><line class="cls-3" x1="458.25" y1="913.02" x2="687" y2="780.94"/><line class="cls-3" x1="467.78" y1="920.73" x2="696.72" y2="788.54"/><line class="cls-3" x1="477.31" y1="928.44" x2="706.23" y2="796.27"/><line class="cls-3" x1="486.84" y1="936.16" x2="715.74" y2="803.99"/><line class="cls-3" x1="496.56" y1="943.76" x2="725.14" y2="811.78"/><line class="cls-3" x1="505.89" y1="951.59" x2="734.76" y2="819.44"/><line class="cls-3" x1="515.42" y1="959.3" x2="744.27" y2="827.16"/><line class="cls-3" x1="524.99" y1="967.05" x2="753.77" y2="834.88"/><line class="cls-3" x1="534.48" y1="974.73" x2="763.29" y2="842.61"/><line class="cls-3" x1="544" y1="982.44" x2="772.8" y2="850.33"/><polyline class="cls-2" points="158.76 1082.44 158.89 1118.97 164.61 1122.28 170.33 1118.97 170.33 1091.36"/><line class="cls-2" x1="164.61" y1="1122.28" x2="164.61" y2="1086.95"/><polyline class="cls-2" points="307.57 1158.62 307.57 1178.44 313.29 1181.75 319.01 1178.44 319.01 1152.02"/><line class="cls-2" x1="313.29" y1="1181.75" x2="313.29" y2="1155.32"/><polyline class="cls-2" points="501.93 1046.29 501.93 1066.19 507.66 1069.49 513.38 1066.19 513.38 1039.68"/><line class="cls-2" x1="507.66" y1="1069.49" x2="507.66" y2="1042.99"/><polyline class="cls-2" points="410.56 1099.15 410.56 1119.12 416.28 1122.42 422 1119.12 422 1092.55"/><line class="cls-2" x1="416.28" y1="1122.42" x2="416.28" y2="1095.96"/><polygon class="cls-2" points="279.01 1162.02 141.64 1056.19 141.64 1056.19 393.39 910.84 530.55 1016.65 530.55 1016.65 279.01 1162.02"/><polygon class="cls-2" points="141.64 1056.2 141.78 1069.34 278.96 1175.14 278.96 1175.14 279.01 1162.02 141.64 1056.19 141.64 1056.2"/><polygon class="cls-2" points="278.96 1175.14 279.01 1162.02 530.55 1016.65 530.55 1016.65 530.72 1029.77 278.97 1175.14 278.96 1175.14"/><polygon class="cls-2" points="153.08 1056.3 278.96 1155.32 519.27 1016.56 393.39 917.45 153.08 1056.3"/><polygon class="cls-2" points="164.69 1056.3 279.01 1148.85 507.66 1016.65 393.54 923.96 164.69 1056.3"/><line class="cls-3" x1="382.15" y1="930.55" x2="496.39" y2="1023.17"/><line class="cls-3" x1="176.28" y1="1049.6" x2="290.4" y2="1142.27"/><line class="cls-3" x1="187.71" y1="1042.99" x2="301.85" y2="1135.49"/><line class="cls-3" x1="199.14" y1="1036.38" x2="313.29" y2="1129.03"/><line class="cls-3" x1="210.56" y1="1029.77" x2="324.97" y2="1122.28"/><line class="cls-3" x1="222.03" y1="1023.2" x2="336.18" y2="1115.8"/><line class="cls-3" x1="233.34" y1="1016.65" x2="347.83" y2="1109.06"/><line class="cls-3" x1="244.84" y1="1009.95" x2="359.06" y2="1102.57"/><line class="cls-3" x1="256.07" y1="1003.46" x2="370.51" y2="1095.95"/><line class="cls-3" x1="268.84" y1="996.74" x2="381.95" y2="1089.33"/><line class="cls-3" x1="279.73" y1="989.77" x2="393.54" y2="1082.63"/><line class="cls-3" x1="290.58" y1="983.63" x2="404.84" y2="1076.1"/><line class="cls-3" x1="301.97" y1="976.91" x2="416.39" y2="1069.48"/><line class="cls-3" x1="313.39" y1="970.31" x2="427.8" y2="1062.86"/><line class="cls-3" x1="324.97" y1="963.7" x2="439.33" y2="1056.3"/><line class="cls-3" x1="336.63" y1="957.41" x2="450.49" y2="1049.7"/><line class="cls-3" x1="347.83" y1="950.6" x2="462.06" y2="1043.03"/><line class="cls-3" x1="359.18" y1="944.11" x2="473.5" y2="1036.4"/><line class="cls-3" x1="370.51" y1="937.28" x2="484.79" y2="1029.86"/><line class="cls-3" x1="174.08" y1="1063.9" x2="403.05" y2="931.69"/><line class="cls-3" x1="183.61" y1="1071.61" x2="412.36" y2="939.54"/><line class="cls-3" x1="193.14" y1="1079.33" x2="422.07" y2="947.14"/><line class="cls-3" x1="202.66" y1="1087.04" x2="431.58" y2="954.86"/><line class="cls-3" x1="212.19" y1="1094.76" x2="441.09" y2="962.59"/><line class="cls-3" x1="221.91" y1="1102.36" x2="450.49" y2="970.38"/><line class="cls-3" x1="231.25" y1="1110.18" x2="460.11" y2="978.04"/><line class="cls-3" x1="240.78" y1="1117.9" x2="469.62" y2="985.76"/><line class="cls-3" x1="250.35" y1="1125.65" x2="479.13" y2="993.48"/><line class="cls-3" x1="259.83" y1="1133.32" x2="488.64" y2="1001.21"/><line class="cls-3" x1="269.36" y1="1141.04" x2="498.15" y2="1008.93"/><polyline class="cls-2" points="1537.75 1268.88 1691.61 1180.04 1794.18 1239.26 1794.18 1357.71 1640.32 1446.55"/><line class="cls-2" x1="1640.32" y1="1328.1" x2="1794.18" y2="1239.26"/><polygon class="cls-2" points="1537.75 1268.88 1537.75 1387.33 1640.32 1446.55 1640.32 1328.1 1537.75 1268.88"/><polygon class="cls-2" points="1653.14 1409.54 1653.14 1350.31 1678.79 1335.5 1678.79 1394.73 1653.14 1409.54"/><line class="cls-2" x1="1653.14" y1="1379.92" x2="1678.79" y2="1365.12"/><line class="cls-2" x1="1653.14" y1="1365.12" x2="1678.79" y2="1350.31"/><line class="cls-2" x1="1653.14" y1="1394.73" x2="1678.79" y2="1379.92"/><line class="cls-2" x1="1653.14" y1="1357.71" x2="1678.79" y2="1342.91"/><line class="cls-2" x1="1653.14" y1="1372.52" x2="1678.79" y2="1357.71"/><line class="cls-2" x1="1653.14" y1="1387.33" x2="1678.79" y2="1372.52"/><line class="cls-2" x1="1653.14" y1="1402.13" x2="1678.79" y2="1387.33"/><polygon class="cls-2" points="1704.43 1379.92 1704.43 1320.7 1730.07 1305.89 1730.07 1365.12 1704.43 1379.92"/><line class="cls-2" x1="1704.43" y1="1350.31" x2="1730.07" y2="1335.5"/><line class="cls-2" x1="1704.43" y1="1335.5" x2="1730.07" y2="1320.7"/><line class="cls-2" x1="1704.43" y1="1365.12" x2="1730.07" y2="1350.31"/><line class="cls-2" x1="1704.43" y1="1328.1" x2="1730.07" y2="1313.29"/><line class="cls-2" x1="1704.43" y1="1342.91" x2="1730.07" y2="1328.1"/><line class="cls-2" x1="1704.43" y1="1357.71" x2="1730.07" y2="1342.91"/><line class="cls-2" x1="1704.43" y1="1372.52" x2="1730.07" y2="1357.71"/><polygon class="cls-2" points="1755.71 1350.31 1755.71 1291.09 1781.36 1276.28 1781.36 1335.5 1755.71 1350.31"/><line class="cls-2" x1="1755.71" y1="1320.7" x2="1781.36" y2="1305.89"/><line class="cls-2" x1="1755.71" y1="1305.89" x2="1781.36" y2="1291.08"/><line class="cls-2" x1="1755.71" y1="1335.5" x2="1781.36" y2="1320.7"/><line class="cls-2" x1="1755.71" y1="1298.49" x2="1781.36" y2="1283.68"/><line class="cls-2" x1="1755.71" y1="1313.29" x2="1781.36" y2="1298.49"/><line class="cls-2" x1="1755.71" y1="1328.1" x2="1781.36" y2="1313.29"/><line class="cls-2" x1="1755.71" y1="1342.91" x2="1781.36" y2="1328.1"/><polyline class="cls-4" points="1589.04 1239.26 1691.61 1298.49 1691.61 1416.94"/><polyline class="cls-4" points="1640.32 1209.65 1742.89 1268.88 1742.89 1387.33"/><polygon class="cls-2" points="1594.65 1333.01 1585.91 1350.54 1602.02 1361.7 1580.86 1382.41 1589.22 1364.98 1573.5 1353.73 1594.65 1333.01"/><polyline class="cls-2" points="1331.88 1387.33 1485.73 1298.49 1588.31 1357.71 1588.31 1476.16 1434.45 1565"/><line class="cls-2" x1="1434.45" y1="1446.55" x2="1588.31" y2="1357.71"/><polygon class="cls-2" points="1331.88 1387.33 1331.88 1505.78 1434.45 1565 1434.45 1446.55 1331.88 1387.33"/><polygon class="cls-2" points="1447.27 1527.98 1447.27 1468.76 1472.91 1453.95 1472.91 1513.18 1447.27 1527.98"/><line class="cls-2" x1="1447.27" y1="1498.37" x2="1472.91" y2="1483.57"/><line class="cls-2" x1="1447.27" y1="1483.57" x2="1472.91" y2="1468.76"/><line class="cls-2" x1="1447.27" y1="1513.18" x2="1472.91" y2="1498.37"/><line class="cls-2" x1="1447.27" y1="1476.16" x2="1472.91" y2="1461.36"/><line class="cls-2" x1="1447.27" y1="1490.97" x2="1472.91" y2="1476.16"/><line class="cls-2" x1="1447.27" y1="1505.78" x2="1472.91" y2="1490.97"/><line class="cls-2" x1="1447.27" y1="1520.58" x2="1472.91" y2="1505.78"/><polygon class="cls-2" points="1498.56 1498.37 1498.56 1439.15 1524.2 1424.34 1524.2 1483.57 1498.56 1498.37"/><line class="cls-2" x1="1498.56" y1="1468.76" x2="1524.2" y2="1453.95"/><line class="cls-2" x1="1498.56" y1="1453.95" x2="1524.2" y2="1439.15"/><line class="cls-2" x1="1498.56" y1="1483.57" x2="1524.2" y2="1468.76"/><line class="cls-2" x1="1498.56" y1="1446.55" x2="1524.2" y2="1431.74"/><line class="cls-2" x1="1498.56" y1="1461.36" x2="1524.2" y2="1446.55"/><line class="cls-2" x1="1498.56" y1="1476.16" x2="1524.2" y2="1461.36"/><line class="cls-2" x1="1498.56" y1="1490.97" x2="1524.2" y2="1476.16"/><polygon class="cls-2" points="1549.84 1468.76 1549.84 1409.54 1575.48 1394.73 1575.48 1453.95 1549.84 1468.76"/><line class="cls-2" x1="1549.84" y1="1439.15" x2="1575.48" y2="1424.34"/><line class="cls-2" x1="1549.84" y1="1424.34" x2="1575.48" y2="1409.53"/><line class="cls-2" x1="1549.84" y1="1453.95" x2="1575.48" y2="1439.15"/><line class="cls-2" x1="1549.84" y1="1416.94" x2="1575.48" y2="1402.13"/><line class="cls-2" x1="1549.84" y1="1431.74" x2="1575.48" y2="1416.94"/><line class="cls-2" x1="1549.84" y1="1446.55" x2="1575.48" y2="1431.74"/><line class="cls-2" x1="1549.84" y1="1461.36" x2="1575.48" y2="1446.55"/><polyline class="cls-4" points="1383.16 1357.71 1485.73 1416.94 1485.73 1535.39"/><polyline class="cls-4" points="1434.45 1328.1 1537.02 1387.33 1537.02 1505.78"/><polygon class="cls-2" points="1388.78 1451.46 1380.04 1468.99 1396.14 1480.15 1374.98 1500.86 1383.35 1483.43 1367.62 1472.18 1388.78 1451.46"/></svg>