<svg id="Final_Illustrations_copy" data-name="Final Illustrations copy" xmlns="http://www.w3.org/2000/svg" viewBox="0 0 2000 2000"><defs><style>.cls-1{fill:#181d28;}.cls-1,.cls-2{stroke:#057adc;stroke-miterlimit:10;stroke-width:2px;}.cls-2{fill:none;}</style></defs><g id="_Group_Homepage" data-name="&lt;Group&gt; Homepage"><polyline class="cls-1" points="1103.5 1432.13 1103.5 1435.99 1310.15 1555.32 1387.65 1510.57 1387.65 1506.7"/><polyline class="cls-1" points="1180.99 1387.45 1387.64 1506.7 1387.64 1506.71 1310.15 1551.45 1103.51 1432.13 1103.51 1432.12 1180.99 1387.45"/><line class="cls-1" x1="1310.15" y1="1555.32" x2="1310.15" y2="1551.45"/><polyline class="cls-1" points="1310.15 1137.76 1310.15 1495.72 1284.32 1510.64 1180.99 1450.98 1180.99 1093.01"/><line class="cls-1" x1="1284.32" y1="1152.67" x2="1284.32" y2="1510.64"/><polygon class="cls-1" points="1258.49 1167.59 1206.83 1137.76 1206.83 1227.25 1258.49 1257.08 1258.49 1167.59"/><polyline class="cls-1" points="1232.66 1152.67 1232.66 1212.34 1258.49 1227.25"/><line class="cls-1" x1="1232.66" y1="1212.34" x2="1206.83" y2="1227.25"/><polygon class="cls-1" points="1303.69 1171.32 1290.78 1178.78 1290.78 1208.61 1303.69 1201.15 1303.69 1171.32"/><polygon class="cls-1" points="1258.49 1286.91 1258.49 1316.74 1206.83 1286.91 1206.83 1257.08 1258.49 1286.91"/><polyline class="cls-1" points="1258.49 1311.49 1213.01 1285.23 1223.48 1266.69"/><polygon class="cls-1" points="1258.49 1346.57 1258.49 1406.23 1206.83 1376.4 1206.83 1316.74 1258.49 1346.57"/><line class="cls-1" x1="1258.49" y1="1376.4" x2="1206.83" y2="1346.57"/><line class="cls-1" x1="1232.66" y1="1331.66" x2="1232.66" y2="1391.32"/><line class="cls-1" x1="1237.03" y1="1334.19" x2="1237.03" y2="1364.02"/><polygon class="cls-1" points="1254.12 1378.93 1237.03 1369.06 1237.03 1388.79 1254.12 1398.66 1254.12 1378.93"/><polygon class="cls-1" points="1228.17 1364.08 1211.31 1354.34 1211.31 1373.82 1228.17 1383.55 1228.17 1364.08"/><line class="cls-1" x1="1228.17" y1="1329.26" x2="1228.17" y2="1359.1"/><line class="cls-1" x1="1219.74" y1="1264.54" x2="1206.83" y2="1286.91"/><line class="cls-1" x1="1237.03" y1="1334.19" x2="1237.03" y2="1364.02"/><polygon class="cls-1" points="1310.15 1137.76 1284.32 1152.67 1181 1093.02 1181 1093.01 1206.83 1078.1 1310.15 1137.76 1310.15 1137.76"/><ellipse class="cls-1" cx="1219.35" cy="1368.95" rx="4.17" ry="7.25" transform="translate(-544.23 868.31) rotate(-32.46)"/><polyline class="cls-1" points="1223.22 1375.05 1210.53 1383.16 1202.75 1370.92 1215.21 1362.99"/><ellipse class="cls-1" cx="1206.64" cy="1377.04" rx="4.17" ry="7.25" transform="translate(-550.55 862.76) rotate(-32.46)"/><ellipse class="cls-1" cx="1245.31" cy="1384.06" rx="4.17" ry="7.25" transform="translate(-548.28 884.61) rotate(-32.46)"/><polyline class="cls-1" points="1249.19 1390.15 1236.49 1398.26 1228.71 1386.03 1241.17 1378.1"/><ellipse class="cls-1" cx="1232.6" cy="1392.14" rx="4.17" ry="7.25" transform="translate(-554.6 879.05) rotate(-32.46)"/><polygon class="cls-1" points="1299.85 1182.4 1294.62 1185.43 1294.62 1197.52 1299.85 1194.5 1299.85 1182.4"/><path class="cls-2" d="M1297.49,1190h0a59.1,59.1,0,0,1,27.82,65.37l-26.78,108.29c-7.16,29-37.38,44.45-63.38,29.85l-2.55-1.33"/><path class="cls-2" d="M1180.89,1301.79l-5.63,15.32a45.49,45.49,0,0,0,32.18,59.93h0"/><polyline class="cls-1" points="741.86 1223.34 741.86 1227.25 896.85 1316.74 974.34 1272 974.34 1268.08"/><polygon class="cls-1" points="974.33 1268.09 896.85 1312.83 741.86 1223.34 741.86 1223.33 819.35 1178.59 974.33 1268.08 974.33 1268.09"/><line class="cls-1" x1="896.84" y1="1316.74" x2="896.84" y2="1312.83"/><polyline class="cls-1" points="922.68 675.39 922.68 1272 896.85 1286.91 793.52 1227.25 793.52 660.47"/><line class="cls-1" x1="896.84" y1="1286.91" x2="896.84" y2="690.37"/><polyline class="cls-1" points="328.55 984.74 328.55 988.61 535.2 1107.93 612.7 1063.18 612.7 1059.32"/><polyline class="cls-1" points="406.04 940.07 612.69 1059.31 612.69 1059.32 535.2 1104.06 328.55 984.75 328.55 984.74 406.04 940.07"/><line class="cls-1" x1="535.2" y1="1107.93" x2="535.2" y2="1104.06"/><polyline class="cls-1" points="535.2 690.37 535.2 1048.34 509.37 1063.25 406.04 1003.59 406.04 645.63"/><line class="cls-1" x1="509.37" y1="705.29" x2="509.37" y2="1063.25"/><polygon class="cls-1" points="483.54 720.2 431.87 690.37 431.87 779.87 483.54 809.7 483.54 720.2"/><polyline class="cls-1" points="457.71 705.29 457.71 764.95 483.54 779.87"/><line class="cls-1" x1="457.71" y1="764.95" x2="431.87" y2="779.86"/><polygon class="cls-1" points="528.74 723.93 515.83 731.39 515.83 761.22 528.74 753.76 528.74 723.93"/><polygon class="cls-1" points="483.54 839.53 483.54 869.36 431.87 839.53 431.87 809.7 483.54 839.53"/><polyline class="cls-1" points="483.54 864.1 438.06 837.85 448.52 819.31"/><polygon class="cls-1" points="483.54 899.19 483.54 958.85 431.87 929.02 431.87 869.36 483.54 899.19"/><line class="cls-1" x1="483.54" y1="929.02" x2="431.87" y2="899.19"/><line class="cls-1" x1="457.71" y1="884.27" x2="457.71" y2="943.93"/><line class="cls-1" x1="462.08" y1="886.8" x2="462.08" y2="916.63"/><polygon class="cls-1" points="479.16 931.54 462.08 921.68 462.08 941.41 479.16 951.27 479.16 931.54"/><polygon class="cls-1" points="453.22 916.69 436.36 906.95 436.36 926.43 453.22 936.17 453.22 916.69"/><line class="cls-1" x1="453.22" y1="881.88" x2="453.22" y2="911.71"/><line class="cls-1" x1="444.79" y1="817.15" x2="431.87" y2="839.53"/><line class="cls-1" x1="462.08" y1="886.8" x2="462.08" y2="916.63"/><polygon class="cls-1" points="535.19 690.38 509.37 705.29 406.05 645.63 406.05 645.62 431.87 630.71 535.19 690.37 535.19 690.38"/><ellipse class="cls-1" cx="444.4" cy="921.57" rx="4.17" ry="7.25" transform="translate(-425.19 382.49) rotate(-32.46)"/><polyline class="cls-1" points="448.27 927.66 435.58 935.77 427.8 923.53 440.26 915.61"/><ellipse class="cls-1" cx="431.69" cy="929.65" rx="4.17" ry="7.25" transform="translate(-431.51 376.93) rotate(-32.46)"/><ellipse class="cls-1" cx="470.36" cy="936.67" rx="4.17" ry="7.25" transform="translate(-429.24 398.79) rotate(-32.46)"/><polyline class="cls-1" points="474.24 942.76 461.54 950.87 453.76 938.64 466.22 930.71"/><ellipse class="cls-1" cx="457.65" cy="944.76" rx="4.17" ry="7.25" transform="translate(-435.56 393.23) rotate(-32.46)"/><polygon class="cls-1" points="524.9 735.02 519.67 738.04 519.67 750.13 524.9 747.11 524.9 735.02"/><path class="cls-2" d="M522.54,742.58h0a59.08,59.08,0,0,1,27.82,65.36L523.58,916.23c-7.16,28.95-37.38,44.45-63.39,29.85l-2.54-1.32"/><path class="cls-2" d="M405.93,854.4l-5.62,15.33a45.48,45.48,0,0,0,32.18,59.92h0"/><polygon class="cls-1" points="1981.42 869.38 1981.42 899.21 1671.45 1137.84 1671.44 1137.84 1671.44 1108.02 1981.42 869.38 1981.42 869.38"/><polygon class="cls-1" points="1981.42 869.37 715.67 138.53 405.69 377.17 1671.44 1108.02 1981.42 869.38 1981.42 869.37"/><polygon class="cls-1" points="1413.13 1167.68 1671.63 1137.85 1671.63 1137.84 1671.63 1108.02 1413.12 1137.85 147.25 406.93 147.25 406.94 147.25 436.76 1413.13 1167.68"/><path class="cls-1" d="M405.69,377.17,147.26,406.93h0l1265.86,730.9L1671.61,1108h0Z"/><polygon class="cls-1" points="1593.95 1093.1 405.77 407.05 222.95 420.86 1413.12 1108.02 1593.95 1093.1"/><polygon class="cls-1" points="1929.77 869.38 1671.63 1078.3 457.35 377.17 715.67 168.36 1929.77 869.38"/><line class="cls-1" x1="1908.26" y1="886.79" x2="694.14" y2="185.76"/><line class="cls-1" x1="1886.74" y1="904.2" x2="672.62" y2="203.16"/><line class="cls-1" x1="1865.18" y1="921.65" x2="651.09" y2="220.56"/><line class="cls-1" x1="629.56" y1="237.96" x2="1843.72" y2="939.02"/><line class="cls-1" x1="1822.21" y1="956.43" x2="608.04" y2="255.36"/><line class="cls-1" x1="586.51" y1="272.77" x2="1800.77" y2="973.78"/><line class="cls-1" x1="1779.19" y1="991.25" x2="564.98" y2="290.17"/><line class="cls-1" x1="543.46" y1="307.57" x2="1757.68" y2="1008.66"/><line class="cls-1" x1="1736.27" y1="1025.98" x2="521.93" y2="324.97"/><line class="cls-1" x1="500.4" y1="342.37" x2="1714.66" y2="1043.48"/><line class="cls-1" x1="1693.15" y1="1060.89" x2="478.88" y2="359.77"/><line class="cls-1" x1="1903.93" y1="854.46" x2="1645.61" y2="1063.27"/><line class="cls-1" x1="1878.1" y1="839.54" x2="1619.78" y2="1048.36"/><line class="cls-1" x1="1852.26" y1="824.63" x2="1593.95" y2="1033.44"/><line class="cls-1" x1="1826.43" y1="809.71" x2="1568.31" y2="1018.42"/><line class="cls-1" x1="1800.6" y1="794.8" x2="1542.28" y2="1003.61"/><line class="cls-1" x1="1774.77" y1="779.88" x2="1516.45" y2="988.7"/><line class="cls-1" x1="1748.94" y1="764.97" x2="1490.62" y2="973.78"/><line class="cls-1" x1="1723.11" y1="750.05" x2="1464.79" y2="958.87"/><line class="cls-1" x1="1697.27" y1="735.14" x2="1438.96" y2="943.95"/><line class="cls-1" x1="1671.44" y1="720.22" x2="1413.13" y2="929.04"/><line class="cls-1" x1="1645.61" y1="705.31" x2="1387.29" y2="914.12"/><line class="cls-1" x1="1619.78" y1="690.39" x2="1361.46" y2="899.21"/><line class="cls-1" x1="1593.95" y1="675.48" x2="1335.63" y2="884.29"/><line class="cls-1" x1="1568.12" y1="660.56" x2="1309.79" y2="869.38"/><line class="cls-1" x1="1542.28" y1="645.65" x2="1283.97" y2="854.46"/><line class="cls-1" x1="1516.45" y1="630.73" x2="1258.13" y2="839.54"/><line class="cls-1" x1="1490.62" y1="615.82" x2="1232.3" y2="824.63"/><line class="cls-1" x1="1464.79" y1="600.9" x2="1206.47" y2="809.71"/><line class="cls-1" x1="1438.95" y1="585.99" x2="1180.64" y2="794.8"/><line class="cls-1" x1="1413.06" y1="571.11" x2="1154.81" y2="779.88"/><line class="cls-1" x1="1387.29" y1="556.16" x2="1129.1" y2="764.9"/><line class="cls-1" x1="1361.46" y1="541.24" x2="1103.14" y2="750.05"/><line class="cls-1" x1="1335.63" y1="526.32" x2="1077.31" y2="735.14"/><line class="cls-1" x1="1309.79" y1="511.4" x2="1051.48" y2="720.22"/><line class="cls-1" x1="1283.97" y1="496.49" x2="1025.65" y2="705.31"/><line class="cls-1" x1="1258.2" y1="481.62" x2="999.82" y2="690.39"/><line class="cls-1" x1="1232.3" y1="466.66" x2="974.02" y2="675.5"/><line class="cls-1" x1="1206.47" y1="451.75" x2="948.09" y2="660.53"/><line class="cls-1" x1="1180.64" y1="436.84" x2="922.32" y2="645.65"/><line class="cls-1" x1="1154.81" y1="421.92" x2="896.49" y2="630.73"/><line class="cls-1" x1="1129.1" y1="406.93" x2="870.66" y2="615.81"/><line class="cls-1" x1="1103.14" y1="392.09" x2="844.83" y2="600.9"/><line class="cls-1" x1="1077.28" y1="377.19" x2="819" y2="585.99"/><line class="cls-1" x1="1051.48" y1="362.26" x2="793.58" y2="571.07"/><line class="cls-1" x1="1025.64" y1="347.34" x2="767.36" y2="556.14"/><line class="cls-1" x1="999.82" y1="332.43" x2="741.5" y2="541.24"/><line class="cls-1" x1="973.99" y1="317.51" x2="715.67" y2="526.32"/><line class="cls-1" x1="948.09" y1="302.63" x2="689.77" y2="511.37"/><line class="cls-1" x1="922.32" y1="287.68" x2="664.01" y2="496.49"/><line class="cls-1" x1="896.5" y1="272.77" x2="638.17" y2="481.58"/><line class="cls-1" x1="870.66" y1="257.85" x2="612.34" y2="466.66"/><line class="cls-1" x1="844.83" y1="242.94" x2="586.53" y2="451.74"/><line class="cls-1" x1="818.93" y1="228.06" x2="560.68" y2="436.83"/><line class="cls-1" x1="793.16" y1="213.1" x2="534.85" y2="421.92"/><line class="cls-1" x1="767.33" y1="198.19" x2="509.14" y2="406.93"/><line class="cls-1" x1="741.5" y1="183.27" x2="483.18" y2="392.09"/><line class="cls-1" x1="360.08" y1="410.5" x2="1548.74" y2="1096.83"/><line class="cls-1" x1="1503.54" y1="1100.56" x2="314.4" y2="413.95"/><line class="cls-1" x1="268.71" y1="417.4" x2="1458.33" y2="1104.29"/><line class="cls-1" x1="1567.92" y1="1078.3" x2="1387.29" y2="1093.1"/><line class="cls-1" x1="1542.28" y1="1063.27" x2="1361.27" y2="1078.3"/><line class="cls-1" x1="1516.45" y1="1048.36" x2="1335.62" y2="1063.27"/><line class="cls-1" x1="1490.62" y1="1033.44" x2="1309.79" y2="1048.36"/><line class="cls-1" x1="1464.6" y1="1018.42" x2="1283.96" y2="1033.44"/><line class="cls-1" x1="1438.96" y1="1003.61" x2="1257.94" y2="1018.42"/><line class="cls-1" x1="1413.12" y1="988.7" x2="1232.3" y2="1003.62"/><line class="cls-1" x1="1387.29" y1="973.78" x2="1206.47" y2="988.71"/><line class="cls-1" x1="1361.46" y1="958.87" x2="1180.62" y2="973.78"/><line class="cls-1" x1="1335.63" y1="943.95" x2="1154.79" y2="958.87"/><line class="cls-1" x1="1309.8" y1="929.04" x2="1128.96" y2="943.95"/><line class="cls-1" x1="1283.96" y1="914.13" x2="1103.12" y2="929.04"/><line class="cls-1" x1="1258.13" y1="899.21" x2="1077.29" y2="914.12"/><line class="cls-1" x1="1232.3" y1="884.29" x2="1051.48" y2="899.21"/><line class="cls-1" x1="1206.47" y1="869.37" x2="1025.65" y2="884.29"/><line class="cls-1" x1="1180.64" y1="854.46" x2="999.82" y2="869.37"/><line class="cls-1" x1="1154.81" y1="839.54" x2="973.96" y2="854.46"/><line class="cls-1" x1="1129.1" y1="824.7" x2="948.15" y2="839.56"/><line class="cls-1" x1="1103.12" y1="809.7" x2="922.2" y2="824.7"/><line class="cls-1" x1="1077.31" y1="794.8" x2="896.51" y2="809.7"/><line class="cls-1" x1="1051.48" y1="779.88" x2="870.66" y2="794.8"/><line class="cls-1" x1="1025.65" y1="764.97" x2="844.83" y2="779.88"/><line class="cls-1" x1="999.82" y1="750.05" x2="818.83" y2="764.9"/><line class="cls-1" x1="974.02" y1="735.16" x2="793.16" y2="750.05"/><line class="cls-1" x1="948.15" y1="720.22" x2="767.33" y2="735.14"/><line class="cls-1" x1="922.32" y1="705.31" x2="741.5" y2="720.25"/><line class="cls-1" x1="896.49" y1="690.39" x2="715.62" y2="705.31"/><line class="cls-1" x1="870.66" y1="675.48" x2="689.84" y2="690.42"/><line class="cls-1" x1="844.83" y1="660.56" x2="663.95" y2="675.48"/><line class="cls-1" x1="819" y1="645.65" x2="638.17" y2="660.56"/><line class="cls-1" x1="793.16" y1="630.73" x2="612.34" y2="645.65"/><line class="cls-1" x1="767.36" y1="615.83" x2="586.51" y2="630.76"/><line class="cls-1" x1="741.5" y1="600.9" x2="560.71" y2="615.83"/><line class="cls-1" x1="715.67" y1="585.99" x2="534.85" y2="600.9"/><line class="cls-1" x1="689.9" y1="571.11" x2="509.02" y2="586.02"/><line class="cls-1" x1="664.04" y1="556.14" x2="483.12" y2="571.07"/><line class="cls-1" x1="638.17" y1="541.24" x2="457.38" y2="556.14"/><line class="cls-1" x1="612.34" y1="526.33" x2="431.52" y2="541.28"/><line class="cls-1" x1="586.53" y1="511.42" x2="405.62" y2="526.32"/><line class="cls-1" x1="560.71" y1="496.51" x2="379.86" y2="511.45"/><line class="cls-1" x1="534.85" y1="481.58" x2="354.06" y2="496.51"/><line class="cls-1" x1="509.01" y1="466.66" x2="328.2" y2="481.58"/><line class="cls-1" x1="483.12" y1="451.78" x2="302.36" y2="466.66"/><line class="cls-1" x1="457.38" y1="436.82" x2="276.53" y2="451.75"/><line class="cls-1" x1="431.52" y1="421.92" x2="250.7" y2="436.88"/><path class="cls-1" d="M103.37,1227.54v54.51l33-19a28.44,28.44,0,0,0,14.22-24.63v-38.1"/><ellipse class="cls-1" cx="92.97" cy="1242.58" rx="30.68" ry="41.47" transform="translate(-189.08 28.87) rotate(-8.8)"/><ellipse class="cls-1" cx="92.97" cy="1242.58" rx="17.05" ry="23.04" transform="translate(-189.08 28.87) rotate(-8.8)"/><path class="cls-1" d="M292.12,1336.51V1391l33-19a28.44,28.44,0,0,0,14.22-24.63v-38.1"/><ellipse class="cls-1" cx="281.72" cy="1351.56" rx="30.68" ry="41.47" transform="translate(-203.53 59.04) rotate(-8.8)"/><ellipse class="cls-1" cx="281.72" cy="1351.56" rx="17.05" ry="23.04" transform="translate(-203.53 59.04) rotate(-8.8)"/><path class="cls-1" d="M65.78,1031.22h0A94.43,94.43,0,0,0,18.58,1113v54.52l47.2,27.25h0A45,45,0,0,1,130.83,1219l5.76,16.64,118,68.14h0a45,45,0,0,1,65,24.25l5.77,16.63,94.41,54.52,141.62-81.77,23.6-40.89"/><path class="cls-1" d="M18.58,1113,443.43,1358.3l141.62-81.77h0a94.44,94.44,0,0,0-47.21-81.77l-47.2-27.26"/><path class="cls-1" d="M419.83,1399.19l23.6-40.89h0a94.44,94.44,0,0,0-47.21-81.77L349,1249.28"/><path class="cls-1" d="M65.78,1140.25h0c0-36.34,39.34-59.06,70.82-40.88l94.4,54.5a141.65,141.65,0,0,1,70.81,122.66h0"/><path class="cls-1" d="M396.22,1311.1h0l13.52,9.07a43.83,43.83,0,0,0,43.79,2.95h0A43.77,43.77,0,0,0,478,1283.84h0l-47.21,27.26-17.27-10A11.53,11.53,0,0,0,396.22,1311.1Z"/><path class="cls-1" d="M361.66,1038.52,254.8,976.82a94.82,94.82,0,0,0-94.8,0l-94.22,54.4,154.27,89.07A352.4,352.4,0,0,1,349,1249.21a.09.09,0,0,0,.11,0l141.55-81.74h0A352.47,352.47,0,0,0,361.66,1038.52Z"/><line class="cls-1" x1="183.8" y1="1126.62" x2="183.8" y2="1262.9"/><line class="cls-1" x1="290.65" y1="1173.95" x2="432.27" y2="1092.18"/><line class="cls-1" x1="431.51" y1="1379" x2="573.13" y2="1297.23"/><line class="cls-1" x1="18.58" y1="1112.99" x2="443.43" y2="1358.3"/><line class="cls-1" x1="572.4" y1="1229.32" x2="430.78" y2="1311.1"/><path class="cls-1" d="M572.4,1229.32l-46.57,27.23h0a43.75,43.75,0,0,0,46.23-1.91h0a43.5,43.5,0,0,0,8.33-7.39A101.51,101.51,0,0,0,572.4,1229.32Z"/><path class="cls-1" d="M904.15,1689.82v54.52l33-19a28.45,28.45,0,0,0,14.21-24.63v-38.09"/><ellipse class="cls-1" cx="893.75" cy="1704.87" rx="30.68" ry="41.47" transform="translate(-250.4 156.87) rotate(-8.8)"/><ellipse class="cls-1" cx="893.75" cy="1704.87" rx="17.05" ry="23.04" transform="translate(-250.4 156.87) rotate(-8.8)"/><path class="cls-1" d="M1092.9,1798.8v54.51l33-19a28.44,28.44,0,0,0,14.22-24.63v-38.09"/><ellipse class="cls-1" cx="1082.5" cy="1813.84" rx="30.68" ry="41.47" transform="translate(-264.85 187.04) rotate(-8.8)"/><ellipse class="cls-1" cx="1082.5" cy="1813.84" rx="17.05" ry="23.04" transform="translate(-264.85 187.04) rotate(-8.8)"/><path class="cls-1" d="M866.57,1493.51h0a94.41,94.41,0,0,0-47.21,81.76v54.52l47.21,27.26h0a45,45,0,0,1,65,24.25l5.77,16.63,118,68.14h0a45,45,0,0,1,65,24.25l5.76,16.64,94.41,54.51,141.62-81.77,23.6-40.88"/><path class="cls-1" d="M819.36,1575.28l424.85,245.31,141.62-81.77h0a94.42,94.42,0,0,0-47.21-81.78l-47.2-27.25"/><path class="cls-1" d="M1220.61,1861.47l23.6-40.88h0a94.42,94.42,0,0,0-47.21-81.78l-47.2-27.25"/><path class="cls-1" d="M866.57,1602.53h0c0-36.34,39.34-59,70.81-40.88l94.4,54.51a141.64,141.64,0,0,1,70.82,122.66h0"/><path class="cls-1" d="M1197,1773.38h0l13.52,9.08a43.86,43.86,0,0,0,43.78,3h0a43.76,43.76,0,0,0,24.46-39.28h0l-47.2,27.25-17.28-10A11.51,11.51,0,0,0,1197,1773.38Z"/><path class="cls-1" d="M1162.45,1500.81l-106.86-61.7a94.79,94.79,0,0,0-94.81,0l-94.21,54.4,154.26,89.07a352.29,352.29,0,0,1,128.93,128.91.08.08,0,0,0,.11,0l141.55-81.73h0A352.44,352.44,0,0,0,1162.45,1500.81Z"/><line class="cls-1" x1="984.58" y1="1588.9" x2="984.58" y2="1725.19"/><line class="cls-1" x1="1091.44" y1="1636.23" x2="1233.06" y2="1554.46"/><line class="cls-1" x1="1232.29" y1="1841.29" x2="1373.91" y2="1759.52"/><line class="cls-1" x1="819.36" y1="1575.28" x2="1244.21" y2="1820.59"/><line class="cls-1" x1="1373.18" y1="1691.61" x2="1231.57" y2="1773.38"/><path class="cls-1" d="M1373.18,1691.61l-46.57,27.22h0a43.77,43.77,0,0,0,46.24-1.91h0a43.46,43.46,0,0,0,8.33-7.39A102,102,0,0,0,1373.18,1691.61Z"/></g></svg>