<svg id="Final_Illustrations_copy" data-name="Final Illustrations copy" xmlns="http://www.w3.org/2000/svg" viewBox="0 0 2000 2000"><defs><style>.cls-1{fill:#181d28;}.cls-1,.cls-2{stroke:#057adc;stroke-miterlimit:10;stroke-width:2px;}.cls-2{fill:none;}</style></defs><polygon class="cls-1" points="1148.16 915.29 1155.94 910.79 1467.01 1090.39 1459.22 1094.89 1148.16 915.29"/><polygon class="cls-1" points="1381.38 780.61 1389.15 776.12 1700.23 955.72 1692.44 960.22 1381.38 780.61"/><polygon class="cls-1" points="914.51 1050.15 922.28 1045.65 1233.36 1225.26 1225.57 1229.75 914.51 1050.15"/><polygon class="cls-1" points="681.47 1184.79 689.25 1180.3 1000.32 1359.9 992.53 1364.4 681.47 1184.79"/><polygon class="cls-1" points="448.26 1319.48 456.04 1314.99 767.11 1494.59 759.32 1499.09 448.26 1319.48"/><polyline class="cls-1" points="1089.75 928.78 1089.75 931.11 965.32 1002.96 918.66 976.01 918.66 973.69"/><polyline class="cls-1" points="1043.09 901.89 918.67 973.68 918.67 973.69 965.32 1000.63 1089.74 928.79 1089.74 928.78 1043.09 901.89"/><line class="cls-1" x1="965.32" y1="1002.95" x2="965.32" y2="1000.63"/><polyline class="cls-1" points="965.32 751.55 965.32 967.08 980.88 976.06 1043.09 940.13 1043.09 724.61"/><line class="cls-1" x1="980.88" y1="760.53" x2="980.88" y2="976.06"/><polygon class="cls-1" points="996.43 769.51 1027.54 751.55 1027.54 805.43 996.43 823.39 996.43 769.51"/><polyline class="cls-1" points="1011.98 760.53 1011.98 796.45 996.43 805.43"/><line class="cls-1" x1="1011.98" y1="796.45" x2="1027.54" y2="805.43"/><polygon class="cls-1" points="969.21 771.75 976.99 776.24 976.99 794.2 969.21 789.71 969.21 771.75"/><polygon class="cls-1" points="996.43 841.35 996.43 859.31 1027.54 841.35 1027.54 823.39 996.43 841.35"/><polyline class="cls-1" points="996.43 856.15 1023.81 840.34 1017.51 829.18"/><polygon class="cls-1" points="996.43 877.27 996.43 913.19 1027.54 895.23 1027.54 859.31 996.43 877.27"/><line class="cls-1" x1="996.43" y1="895.23" x2="1027.54" y2="877.27"/><line class="cls-1" x1="1011.98" y1="868.29" x2="1011.98" y2="904.21"/><line class="cls-1" x1="1009.35" y1="869.81" x2="1009.35" y2="887.77"/><polygon class="cls-1" points="999.06 896.75 1009.35 890.81 1009.35 902.69 999.06 908.63 999.06 896.75"/><polygon class="cls-1" points="1014.68 887.81 1024.84 881.95 1024.84 893.67 1014.68 899.54 1014.68 887.81"/><line class="cls-1" x1="1014.68" y1="866.85" x2="1014.68" y2="884.81"/><line class="cls-1" x1="1019.76" y1="827.88" x2="1027.54" y2="841.35"/><line class="cls-1" x1="1009.35" y1="869.81" x2="1009.35" y2="887.77"/><polygon class="cls-1" points="965.33 751.55 980.88 760.53 1043.08 724.61 1043.08 724.6 1027.54 715.63 965.33 751.54 965.33 751.55"/><ellipse class="cls-1" cx="1020" cy="890.75" rx="4.37" ry="2.51" transform="translate(-279.03 1273.31) rotate(-57.54)"/><polyline class="cls-1" points="1017.66 894.42 1025.31 899.3 1029.99 891.93 1022.49 887.16"/><ellipse class="cls-1" cx="1027.65" cy="895.62" rx="4.37" ry="2.51" transform="matrix(0.54, -0.84, 0.84, 0.54, -279.59, 1282.02)"/><polygon class="cls-1" points="971.52 778.43 974.67 780.25 974.67 787.53 971.52 785.71 971.52 778.43"/><path class="cls-1" d="M1077.71,1056.39v32.26l19.52-11.27a16.84,16.84,0,0,0,8.42-14.58v-22.55"/><ellipse class="cls-1" cx="1071.55" cy="1065.29" rx="18.16" ry="24.55" transform="translate(-150.42 176.55) rotate(-8.8)"/><ellipse class="cls-1" cx="1071.55" cy="1065.29" rx="10.09" ry="13.64" transform="translate(-150.42 176.55) rotate(-8.8)"/><path class="cls-1" d="M1189.43,1120.89v32.27l19.53-11.28a16.83,16.83,0,0,0,8.42-14.58v-22.55"/><ellipse class="cls-1" cx="1183.28" cy="1129.79" rx="18.16" ry="24.55" transform="translate(-158.97 194.41) rotate(-8.8)"/><ellipse class="cls-1" cx="1183.28" cy="1129.79" rx="10.09" ry="13.64" transform="translate(-158.97 194.41) rotate(-8.8)"/><path class="cls-1" d="M1055.46,940.18h0a55.88,55.88,0,0,0-27.94,48.4v32.27l27.94,16.13h0a26.65,26.65,0,0,1,38.51,14.36l3.41,9.84,69.85,40.34h0a26.64,26.64,0,0,1,38.5,14.35l3.41,9.85L1265,1158l83.83-48.4,14-24.2"/><path class="cls-1" d="M1027.52,988.58,1279,1133.79l83.83-48.4h0a55.9,55.9,0,0,0-27.95-48.41l-27.94-16.13"/><path class="cls-1" d="M1265,1158l14-24.2h0a55.91,55.91,0,0,0-27.94-48.41l-27.94-16.13"/><path class="cls-1" d="M1055.46,1004.72h0a27.94,27.94,0,0,1,41.92-24.2l55.88,32.26a83.83,83.83,0,0,1,41.91,72.61h0"/><path class="cls-1" d="M1251.06,1105.85h0l8,5.37A26,26,0,0,0,1285,1113h0a25.9,25.9,0,0,0,14.48-23.25h0l-27.94,16.14-10.23-5.91A6.82,6.82,0,0,0,1251.06,1105.85Z"/><path class="cls-1" d="M1230.6,944.5,1167.35,908a56.1,56.1,0,0,0-56.12,0l-55.77,32.2,91.31,52.72a208.51,208.51,0,0,1,76.32,76.31.06.06,0,0,0,.07,0l83.78-48.38h0A208.52,208.52,0,0,0,1230.6,944.5Z"/><line class="cls-1" x1="1125.32" y1="996.65" x2="1125.32" y2="1077.32"/><line class="cls-1" x1="1188.57" y1="1024.66" x2="1272.4" y2="976.26"/><line class="cls-1" x1="1271.94" y1="1146.04" x2="1355.77" y2="1097.64"/><line class="cls-1" x1="1027.52" y1="988.58" x2="1279" y2="1133.79"/><line class="cls-1" x1="1355.34" y1="1057.44" x2="1271.52" y2="1105.85"/><path class="cls-1" d="M1355.34,1057.44l-27.57,16.12h0a25.92,25.92,0,0,0,27.37-1.13h0a25.83,25.83,0,0,0,4.93-4.38A60.4,60.4,0,0,0,1355.34,1057.44Z"/><polygon class="cls-1" points="1034.31 992.54 1048.28 1000.61 1048.28 1016.74 1034.31 1008.67 1034.31 992.54"/><ellipse class="cls-1" cx="1040.82" cy="1004.55" rx="2.51" ry="4.37" transform="translate(-376.54 715.56) rotate(-32.46)"/><polyline class="cls-1" points="1043.15 1008.22 1035.51 1013.1 1030.82 1005.74 1038.32 1000.96"/><ellipse class="cls-1" cx="1033.16" cy="1009.42" rx="2.51" ry="4.37" transform="translate(-380.35 712.21) rotate(-32.46)"/><path class="cls-2" d="M972.94,783h0a46.35,46.35,0,0,0-23.17,40.14l0,69.25a101.7,101.7,0,0,0,36.67,78.19l46.7,38.86"/><path class="cls-2" d="M1043.15,850.31l3.39,9.22a27.39,27.39,0,0,1-19.38,36.09h0"/><polyline class="cls-1" points="1323.06 794.03 1323.06 796.36 1198.63 868.21 1151.97 841.26 1151.97 838.94"/><polyline class="cls-1" points="1276.4 767.14 1151.98 838.93 1151.98 838.94 1198.63 865.88 1323.06 794.04 1323.06 794.03 1276.4 767.14"/><line class="cls-1" x1="1198.63" y1="868.21" x2="1198.63" y2="865.88"/><polyline class="cls-1" points="1198.63 616.8 1198.63 832.33 1214.19 841.31 1276.4 805.39 1276.4 589.86"/><line class="cls-1" x1="1214.19" y1="625.78" x2="1214.19" y2="841.31"/><polygon class="cls-1" points="1229.74 634.76 1260.85 616.8 1260.85 670.68 1229.74 688.64 1229.74 634.76"/><polyline class="cls-1" points="1245.29 625.78 1245.29 661.7 1229.74 670.68"/><line class="cls-1" x1="1245.29" y1="661.7" x2="1260.85" y2="670.68"/><polygon class="cls-1" points="1202.52 637 1210.3 641.49 1210.3 659.46 1202.52 654.97 1202.52 637"/><polygon class="cls-1" points="1229.74 706.6 1229.74 724.56 1260.85 706.6 1260.85 688.64 1229.74 706.6"/><polyline class="cls-1" points="1229.74 721.4 1257.12 705.59 1250.82 694.43"/><polygon class="cls-1" points="1229.74 742.52 1229.74 778.44 1260.85 760.48 1260.85 724.56 1229.74 742.52"/><line class="cls-1" x1="1229.74" y1="760.48" x2="1260.85" y2="742.52"/><line class="cls-1" x1="1245.29" y1="733.54" x2="1245.29" y2="769.46"/><line class="cls-1" x1="1242.66" y1="735.06" x2="1242.66" y2="753.03"/><polygon class="cls-1" points="1232.37 762 1242.66 756.07 1242.66 767.94 1232.37 773.88 1232.37 762"/><polygon class="cls-1" points="1247.99 753.06 1258.15 747.2 1258.15 758.93 1247.99 764.79 1247.99 753.06"/><line class="cls-1" x1="1247.99" y1="732.1" x2="1247.99" y2="750.06"/><line class="cls-1" x1="1253.07" y1="693.13" x2="1260.85" y2="706.6"/><line class="cls-1" x1="1242.66" y1="735.06" x2="1242.66" y2="753.03"/><polygon class="cls-1" points="1198.64 616.8 1214.19 625.78 1276.39 589.86 1276.39 589.86 1260.85 580.88 1198.64 616.8 1198.64 616.8"/><ellipse class="cls-1" cx="1253.31" cy="756" rx="4.37" ry="2.51" transform="translate(-57.24 1407.74) rotate(-57.54)"/><polyline class="cls-1" points="1250.97 759.67 1258.62 764.55 1263.3 757.18 1255.8 752.41"/><ellipse class="cls-1" cx="1260.96" cy="760.87" rx="4.37" ry="2.51" transform="translate(-57.8 1416.46) rotate(-57.54)"/><polygon class="cls-1" points="1204.83 643.68 1207.99 645.5 1207.99 652.78 1204.83 650.96 1204.83 643.68"/><path class="cls-1" d="M1317.79,925.57v31.56l19.1-11a16.46,16.46,0,0,0,8.23-14.25V909.79"/><ellipse class="cls-1" cx="1311.77" cy="934.28" rx="17.76" ry="24.01" transform="translate(-127.54 211.77) rotate(-8.8)"/><ellipse class="cls-1" cx="1311.77" cy="934.28" rx="9.87" ry="13.34" transform="translate(-127.54 211.77) rotate(-8.8)"/><path class="cls-1" d="M1426,987.57v31.56l19.1-11a16.46,16.46,0,0,0,8.23-14.26V971.79"/><ellipse class="cls-1" cx="1420.02" cy="996.28" rx="17.76" ry="24.01" transform="translate(-135.75 229.07) rotate(-8.8)"/><ellipse class="cls-1" cx="1420.02" cy="996.28" rx="9.87" ry="13.34" transform="translate(-135.75 229.07) rotate(-8.8)"/><path class="cls-1" d="M1377.61,795.36l-22.23-12.84a34.61,34.61,0,0,0-34.77.1l-44.77,26.21a40,40,0,0,0-19.79,33.66l-.87,40,40.45,23.36h0a26.26,26.26,0,0,1,37.88,14l3.53,10,67.9,39.2h0a26.19,26.19,0,0,1,37.79,14l3.45,9.82,54.82,31.64,81.36-47.69,13.88-23.55"/><path class="cls-1" d="M1541.59,890l27.32,15.77a54.66,54.66,0,0,1,27.33,47.34h0l-82,47.34L1255.86,851.3"/><path class="cls-1" d="M1501,1024.39l13.26-23.9h0a54.67,54.67,0,0,0-27.33-47.34l-27.33-15.78"/><path class="cls-1" d="M1323,890V886a25,25,0,0,1,37.47-21.64l30.85,17.81a82,82,0,0,1,41,71h0"/><line class="cls-1" x1="1377.61" y1="874.26" x2="1377.61" y2="953.15"/><path class="cls-1" d="M1486.93,973.17h0l7.83,5.25a25.38,25.38,0,0,0,25.34,1.71h0a25.34,25.34,0,0,0,14.17-22.74h0l-27.33,15.78-10-5.78A6.67,6.67,0,0,0,1486.93,973.17Z"/><path class="cls-1" d="M1588.92,925.82l-27,15.76h0a25.33,25.33,0,0,0,26.77-1.1h0a25.31,25.31,0,0,0,4.82-4.28A58.8,58.8,0,0,0,1588.92,925.82Z"/><path class="cls-1" d="M1295.63,874.26V861.8a33.07,33.07,0,0,1,16.54-28.65l70.22-40.55a45.1,45.1,0,0,1,45.11,0l39.42,22.77A204,204,0,0,1,1541.59,890h0l-82,47.33h0a204,204,0,0,0-74.66-74.67l-62-35.78"/><line class="cls-1" x1="1506.93" y1="973.16" x2="1588.92" y2="925.82"/><line class="cls-1" x1="1425.71" y1="893.83" x2="1507.8" y2="846.43"/><line class="cls-1" x1="1295.63" y1="874.26" x2="1514.26" y2="1000.49"/><line class="cls-1" x1="1261.58" y1="823.04" x2="1300.06" y2="845.26"/><line class="cls-1" x1="1507.26" y1="1012.85" x2="1588.8" y2="965.77"/><polygon class="cls-1" points="1267.61 858.22 1281.27 866.11 1281.27 881.89 1267.61 874 1267.61 858.22"/><ellipse class="cls-1" cx="1274.3" cy="869.9" rx="2.51" ry="4.37" transform="translate(-267.8 819.84) rotate(-32.46)"/><polyline class="cls-1" points="1276.64 873.57 1268.99 878.45 1264.31 871.08 1271.81 866.31"/><ellipse class="cls-1" cx="1266.65" cy="874.77" rx="2.51" ry="4.37" transform="translate(-271.6 816.49) rotate(-32.46)"/><path class="cls-2" d="M1206.25,648.23h0a46.34,46.34,0,0,0-23.16,40.14v69.25a101.7,101.7,0,0,0,36.67,78.19l46.7,38.86"/><path class="cls-2" d="M1276.46,715.56l3.39,9.23a27.38,27.38,0,0,1-19.38,36.08h0"/><polyline class="cls-1" points="1556.42 659.37 1556.42 661.7 1432 733.54 1385.34 706.6 1385.34 704.27"/><polyline class="cls-1" points="1509.77 632.47 1385.34 704.27 1385.34 704.27 1432 731.21 1556.42 659.37 1556.42 659.37 1509.77 632.47"/><line class="cls-1" x1="1432" y1="733.54" x2="1432" y2="731.21"/><polyline class="cls-1" points="1432 482.13 1432 697.66 1447.55 706.64 1509.77 670.72 1509.77 455.19"/><line class="cls-1" x1="1447.55" y1="491.11" x2="1447.55" y2="706.64"/><polygon class="cls-1" points="1463.11 500.09 1494.21 482.13 1494.21 536.01 1463.11 553.98 1463.11 500.09"/><polyline class="cls-1" points="1478.66 491.11 1478.66 527.03 1463.11 536.01"/><line class="cls-1" x1="1478.66" y1="527.03" x2="1494.21" y2="536.01"/><polygon class="cls-1" points="1435.89 502.34 1443.66 506.83 1443.66 524.79 1435.89 520.3 1435.89 502.34"/><polygon class="cls-1" points="1463.11 571.93 1463.11 589.9 1494.21 571.93 1494.21 553.98 1463.11 571.93"/><polyline class="cls-1" points="1463.11 586.73 1490.49 570.92 1484.19 559.76"/><polygon class="cls-1" points="1463.11 607.86 1463.11 643.78 1494.21 625.82 1494.21 589.9 1463.11 607.86"/><line class="cls-1" x1="1463.11" y1="625.82" x2="1494.21" y2="607.86"/><line class="cls-1" x1="1478.66" y1="598.88" x2="1478.66" y2="634.8"/><line class="cls-1" x1="1476.03" y1="600.4" x2="1476.03" y2="618.36"/><polygon class="cls-1" points="1465.74 627.34 1476.03 621.4 1476.03 633.28 1465.74 639.22 1465.74 627.34"/><polygon class="cls-1" points="1481.36 618.39 1491.51 612.53 1491.51 624.26 1481.36 630.12 1481.36 618.39"/><line class="cls-1" x1="1481.36" y1="597.44" x2="1481.36" y2="615.4"/><line class="cls-1" x1="1486.44" y1="558.46" x2="1494.21" y2="571.94"/><line class="cls-1" x1="1476.03" y1="600.4" x2="1476.03" y2="618.36"/><polygon class="cls-1" points="1432 482.13 1447.55 491.11 1509.76 455.19 1509.76 455.19 1494.21 446.21 1432 482.13 1432 482.13"/><ellipse class="cls-1" cx="1486.67" cy="621.33" rx="4.37" ry="2.51" transform="translate(164.5 1542.26) rotate(-57.54)"/><polyline class="cls-1" points="1484.34 625 1491.98 629.88 1496.67 622.52 1489.16 617.74"/><ellipse class="cls-1" cx="1494.32" cy="626.2" rx="4.37" ry="2.51" transform="translate(163.94 1550.97) rotate(-57.54)"/><polygon class="cls-1" points="1438.2 509.01 1441.35 510.83 1441.35 518.11 1438.2 516.29 1438.2 509.01"/><path class="cls-1" d="M1656.31,852.89v32.29l19.54-11.28a16.85,16.85,0,0,0,8.42-14.59V836.75"/><ellipse class="cls-1" cx="1650.15" cy="861.8" rx="18.17" ry="24.56" transform="matrix(0.99, -0.15, 0.15, 0.99, -112.46, 262.71)"/><ellipse class="cls-1" cx="1650.15" cy="861.8" rx="10.09" ry="13.64" transform="translate(-112.46 262.71) rotate(-8.8)"/><path class="cls-1" d="M1543.79,788.33v32.29l19.53-11.28a16.83,16.83,0,0,0,8.42-14.59V772.19"/><ellipse class="cls-1" cx="1537.63" cy="797.24" rx="18.17" ry="24.56" transform="translate(-103.9 244.72) rotate(-8.8)"/><ellipse class="cls-1" cx="1537.63" cy="797.24" rx="10.09" ry="13.64" transform="translate(-103.9 244.72) rotate(-8.8)"/><path class="cls-1" d="M1773.31,750.7l28,16.14a55.92,55.92,0,0,1,28,48.42h0l-83.87,48.43-251.6-145.27"/><path class="cls-1" d="M1829.22,815.26l-14,24.22-83.87,48.42-55.91-32.28-3.41-9.85a26.65,26.65,0,0,0-38.52-14.36h0l-69.89-40.36-3.41-9.85a26.66,26.66,0,0,0-38.52-14.36h0l-28-16.14V681.64A48.13,48.13,0,0,1,1517.82,640l36.71-21.2a46.18,46.18,0,0,1,46.18,0l96.22,55.56a208.71,208.71,0,0,1,76.38,76.38h0l-83.87,48.42h0a208.64,208.64,0,0,0-76.38-76.38L1500.2,657.58"/><line class="cls-1" x1="1654.88" y1="754.52" x2="1738.74" y2="706.09"/><path class="cls-1" d="M1689.44,799.12l28,16.14a55.93,55.93,0,0,1,28,48.43h0l-14,24.21"/><line class="cls-1" x1="1737.86" y1="835.73" x2="1821.73" y2="787.31"/><path class="cls-1" d="M1521.71,734.56v-24a14.07,14.07,0,0,1,21.11-12.18l62.75,36.23a83.87,83.87,0,0,1,41.94,72.63h0"/><path class="cls-1" d="M1717.4,835.76h0l8,5.37a26,26,0,0,0,25.93,1.75h0a25.92,25.92,0,0,0,14.49-23.26h0l-28,16.14-10.23-5.91A6.82,6.82,0,0,0,1717.4,835.76Z"/><path class="cls-1" d="M1821.73,787.33l-27.58,16.12h0a25.9,25.9,0,0,0,27.38-1.13h0a26.06,26.06,0,0,0,4.93-4.37A60.31,60.31,0,0,0,1821.73,787.33Z"/><line class="cls-1" x1="1577.62" y1="718.42" x2="1577.62" y2="799.12"/><line class="cls-1" x1="1493.75" y1="718.42" x2="1745.35" y2="863.69"/><line class="cls-1" x1="1745.35" y1="863.69" x2="1829.22" y2="815.26"/><polygon class="cls-1" points="1500.7 722.67 1514.68 730.75 1514.68 746.89 1500.7 738.82 1500.7 722.67"/><ellipse class="cls-1" cx="1507.77" cy="734.97" rx="2.51" ry="4.37" transform="translate(-158.9 924.06) rotate(-32.46)"/><polyline class="cls-1" points="1510.1 738.63 1502.46 743.52 1497.77 736.15 1505.28 731.38"/><ellipse class="cls-1" cx="1500.12" cy="739.83" rx="2.51" ry="4.37" transform="translate(-162.71 920.72) rotate(-32.46)"/><path class="cls-2" d="M1439.62,513.56h0a46.35,46.35,0,0,0-23.17,40.14V623a101.76,101.76,0,0,0,36.67,78.18L1499.84,740"/><path class="cls-2" d="M1509.83,580.89l3.39,9.23a27.39,27.39,0,0,1-19.38,36.08h0"/><polyline class="cls-1" points="856.5 1063.42 856.5 1065.75 732.08 1137.6 685.42 1110.65 685.42 1108.33"/><polyline class="cls-1" points="809.85 1036.53 685.42 1108.32 685.42 1108.33 732.08 1135.27 856.5 1063.43 856.5 1063.42 809.85 1036.53"/><line class="cls-1" x1="732.08" y1="1137.6" x2="732.08" y2="1135.27"/><polyline class="cls-1" points="732.08 886.19 732.08 1101.72 747.63 1110.7 809.85 1074.78 809.85 859.25"/><line class="cls-1" x1="747.63" y1="895.17" x2="747.63" y2="1110.7"/><polygon class="cls-1" points="763.19 904.15 794.29 886.19 794.29 940.07 763.19 958.03 763.19 904.15"/><polyline class="cls-1" points="778.74 895.17 778.74 931.09 763.19 940.07"/><line class="cls-1" x1="778.74" y1="931.09" x2="794.29" y2="940.07"/><polygon class="cls-1" points="735.97 906.39 743.75 910.88 743.75 928.85 735.97 924.35 735.97 906.39"/><polygon class="cls-1" points="763.19 975.99 763.19 993.95 794.29 975.99 794.29 958.03 763.19 975.99"/><polyline class="cls-1" points="763.19 990.79 790.57 974.98 784.27 963.82"/><polygon class="cls-1" points="763.19 1011.91 763.19 1047.83 794.29 1029.87 794.29 993.95 763.19 1011.91"/><line class="cls-1" x1="763.19" y1="1029.87" x2="794.29" y2="1011.91"/><line class="cls-1" x1="778.74" y1="1002.93" x2="778.74" y2="1038.85"/><line class="cls-1" x1="776.11" y1="1004.45" x2="776.11" y2="1022.42"/><polygon class="cls-1" points="765.82 1031.39 776.11 1025.45 776.11 1037.33 765.82 1043.27 765.82 1031.39"/><polygon class="cls-1" points="781.44 1022.45 791.59 1016.59 791.59 1028.32 781.44 1034.18 781.44 1022.45"/><line class="cls-1" x1="781.44" y1="1001.49" x2="781.44" y2="1019.45"/><line class="cls-1" x1="786.52" y1="962.52" x2="794.29" y2="975.99"/><line class="cls-1" x1="776.11" y1="1004.45" x2="776.11" y2="1022.42"/><polygon class="cls-1" points="732.08 886.19 747.63 895.17 809.84 859.25 809.84 859.25 794.29 850.27 732.08 886.19 732.08 886.19"/><ellipse class="cls-1" cx="786.75" cy="1025.39" rx="4.37" ry="2.51" transform="translate(-500.69 1138.89) rotate(-57.54)"/><polyline class="cls-1" points="784.42 1029.06 792.06 1033.94 796.75 1026.57 789.24 1021.8"/><ellipse class="cls-1" cx="794.4" cy="1030.26" rx="4.37" ry="2.51" transform="matrix(0.54, -0.84, 0.84, 0.54, -501.26, 1147.6)"/><polygon class="cls-1" points="738.28 913.07 741.43 914.89 741.43 922.17 738.28 920.35 738.28 913.07"/><path class="cls-1" d="M844.47,1191v32.26L864,1212a16.83,16.83,0,0,0,8.42-14.58v-22.55"/><ellipse class="cls-1" cx="838.31" cy="1199.93" rx="18.16" ry="24.55" transform="translate(-173.77 142.44) rotate(-8.8)"/><ellipse class="cls-1" cx="838.31" cy="1199.93" rx="10.09" ry="13.64" transform="translate(-173.77 142.44) rotate(-8.8)"/><path class="cls-1" d="M956.19,1255.53v32.27l19.53-11.28a16.81,16.81,0,0,0,8.41-14.58v-22.55"/><ellipse class="cls-1" cx="950.04" cy="1264.43" rx="18.16" ry="24.55" transform="matrix(0.99, -0.15, 0.15, 0.99, -182.33, 160.3)"/><ellipse class="cls-1" cx="950.04" cy="1264.43" rx="10.09" ry="13.64" transform="matrix(0.99, -0.15, 0.15, 0.99, -182.33, 160.3)"/><path class="cls-1" d="M822.22,1074.82h0a55.88,55.88,0,0,0-27.94,48.4v32.27l27.94,16.13h0a26.65,26.65,0,0,1,38.5,14.36l3.41,9.85L934,1236.16h0a26.65,26.65,0,0,1,38.5,14.35l3.41,9.85,55.89,32.27,83.82-48.4,14-24.2"/><path class="cls-1" d="M794.28,1123.22l251.48,145.21,83.82-48.4h0a55.91,55.91,0,0,0-27.94-48.41l-27.94-16.13"/><path class="cls-1" d="M1031.79,1292.63l14-24.2h0a55.9,55.9,0,0,0-28-48.41l-27.94-16.13"/><path class="cls-1" d="M822.22,1139.36h0a28,28,0,0,1,41.92-24.2L920,1147.42A83.85,83.85,0,0,1,961.93,1220h0"/><path class="cls-1" d="M1017.82,1240.49h0l8,5.37a26,26,0,0,0,25.92,1.74h0a25.89,25.89,0,0,0,14.47-23.25h0l-27.94,16.14-10.23-5.91A6.82,6.82,0,0,0,1017.82,1240.49Z"/><path class="cls-1" d="M997.36,1079.14l-63.26-36.52a56.12,56.12,0,0,0-56.11,0l-55.77,32.2,91.31,52.72a208.51,208.51,0,0,1,76.32,76.31,0,0,0,0,0,.06,0l83.79-48.38h0A208.6,208.6,0,0,0,997.36,1079.14Z"/><line class="cls-1" x1="892.08" y1="1131.29" x2="892.08" y2="1211.96"/><line class="cls-1" x1="955.33" y1="1159.3" x2="1039.15" y2="1110.9"/><line class="cls-1" x1="1038.7" y1="1280.68" x2="1122.53" y2="1232.28"/><line class="cls-1" x1="794.28" y1="1123.22" x2="1045.76" y2="1268.43"/><line class="cls-1" x1="1122.1" y1="1192.08" x2="1038.27" y2="1240.49"/><path class="cls-1" d="M1122.1,1192.08l-27.57,16.12h0a25.92,25.92,0,0,0,27.37-1.13h0a25.83,25.83,0,0,0,4.93-4.38A60.4,60.4,0,0,0,1122.1,1192.08Z"/><polygon class="cls-1" points="801.07 1127.18 815.04 1135.25 815.04 1151.38 801.07 1143.32 801.07 1127.18"/><ellipse class="cls-1" cx="807.57" cy="1139.19" rx="2.51" ry="4.37" transform="translate(-485.25 611.41) rotate(-32.46)"/><polyline class="cls-1" points="809.91 1142.86 802.26 1147.74 797.58 1140.38 805.08 1135.6"/><ellipse class="cls-1" cx="799.92" cy="1144.06" rx="2.51" ry="4.37" transform="translate(-489.05 608.07) rotate(-32.46)"/><path class="cls-2" d="M739.7,917.62h0a46.35,46.35,0,0,0-23.17,40.14l0,69.25a101.72,101.72,0,0,0,36.66,78.19l46.71,38.86"/><path class="cls-2" d="M809.91,985l3.39,9.23a27.4,27.4,0,0,1-19.38,36.08h0"/><polyline class="cls-1" points="623.19 1198.13 623.19 1200.46 498.76 1272.3 452.1 1245.36 452.1 1243.03"/><polyline class="cls-1" points="576.53 1171.23 452.11 1243.03 452.11 1243.03 498.76 1269.97 623.18 1198.13 623.18 1198.13 576.53 1171.23"/><line class="cls-1" x1="498.76" y1="1272.3" x2="498.76" y2="1269.97"/><polyline class="cls-1" points="498.76 1020.89 498.76 1236.42 514.32 1245.4 576.53 1209.48 576.53 993.95"/><line class="cls-1" x1="514.31" y1="1029.87" x2="514.31" y2="1245.4"/><polygon class="cls-1" points="529.87 1038.85 560.97 1020.89 560.97 1074.78 529.87 1092.74 529.87 1038.85"/><polyline class="cls-1" points="545.42 1029.87 545.42 1065.8 529.87 1074.78"/><line class="cls-1" x1="545.42" y1="1065.79" x2="560.97" y2="1074.78"/><polygon class="cls-1" points="502.65 1041.1 510.43 1045.59 510.43 1063.55 502.65 1059.06 502.65 1041.1"/><polygon class="cls-1" points="529.87 1110.7 529.87 1128.66 560.97 1110.7 560.97 1092.74 529.87 1110.7"/><polyline class="cls-1" points="529.87 1125.49 557.25 1109.68 550.95 1098.52"/><polygon class="cls-1" points="529.87 1146.62 529.87 1182.54 560.97 1164.58 560.97 1128.66 529.87 1146.62"/><line class="cls-1" x1="529.87" y1="1164.58" x2="560.97" y2="1146.62"/><line class="cls-1" x1="545.42" y1="1137.64" x2="545.42" y2="1173.56"/><line class="cls-1" x1="542.79" y1="1139.16" x2="542.79" y2="1157.12"/><polygon class="cls-1" points="532.5 1166.1 542.79 1160.16 542.79 1172.04 532.5 1177.98 532.5 1166.1"/><polygon class="cls-1" points="548.12 1157.16 558.27 1151.29 558.27 1163.02 548.12 1168.88 548.12 1157.16"/><line class="cls-1" x1="548.12" y1="1136.2" x2="548.12" y2="1154.16"/><line class="cls-1" x1="553.2" y1="1097.23" x2="560.97" y2="1110.7"/><line class="cls-1" x1="542.79" y1="1139.16" x2="542.79" y2="1157.12"/><polygon class="cls-1" points="498.77 1020.89 514.32 1029.87 576.52 993.95 576.52 993.95 560.97 984.97 498.77 1020.89 498.77 1020.89"/><ellipse class="cls-1" cx="553.43" cy="1160.09" rx="4.37" ry="2.51" transform="translate(-722.45 1004.43) rotate(-57.54)"/><polyline class="cls-1" points="551.1 1163.76 558.74 1168.64 563.43 1161.28 555.92 1156.5"/><ellipse class="cls-1" cx="561.09" cy="1164.96" rx="4.37" ry="2.51" transform="translate(-723.01 1013.14) rotate(-57.54)"/><polygon class="cls-1" points="504.96 1047.77 508.12 1049.59 508.12 1056.88 504.96 1055.06 504.96 1047.77"/><path class="cls-1" d="M603.37,1320.32v30.3L621.71,1340a15.8,15.8,0,0,0,7.9-13.69v-21.17"/><ellipse class="cls-1" cx="597.6" cy="1328.68" rx="17.05" ry="23.05" transform="translate(-196.31 107.11) rotate(-8.8)"/><ellipse class="cls-1" cx="597.6" cy="1328.68" rx="9.47" ry="12.81" transform="translate(-196.31 107.11) rotate(-8.8)"/><path class="cls-1" d="M734.86,1395.75v30.3l18.34-10.58a15.82,15.82,0,0,0,7.9-13.69V1380.6"/><ellipse class="cls-1" cx="729.08" cy="1404.12" rx="17.05" ry="23.05" transform="translate(-206.31 128.13) rotate(-8.8)"/><ellipse class="cls-1" cx="729.08" cy="1404.12" rx="9.47" ry="12.81" transform="translate(-206.31 128.13) rotate(-8.8)"/><path class="cls-1" d="M634.58,1331.91l-12.21-7.05-3.63-9.94a25.44,25.44,0,0,0-36.63-13.3h0l-26.23-15.15v-30.63a51.93,51.93,0,0,1,26-45l26.78-15.46a52,52,0,0,1,51.95,0l52.73,30.45"/><path class="cls-1" d="M844.47,1301.41l26.24,15.15A52.47,52.47,0,0,1,897,1362h0l-78.71,45.66L555.88,1255.84"/><path class="cls-1" d="M897,1362l-13.59,23-77.46,45.81-51.45-29.7-4.07-10.63a25.87,25.87,0,0,0-37.09-13.14h0l-78.71-45.45v-30.13a52.78,52.78,0,0,1,26.39-45.7L713.16,1226a52.75,52.75,0,0,1,52.74,0L773,1230a195.94,195.94,0,0,1,71.52,71.39h0l-78.71,45.44h0a195.84,195.84,0,0,0-71.52-71.38l-33.42-19.3"/><path class="cls-1" d="M765.76,1346.85,792,1362.13a52.66,52.66,0,0,1,26.2,45.53h0l-12.34,23.17"/><line class="cls-1" x1="811.24" y1="1381.42" x2="889.92" y2="1335.78"/><line class="cls-1" x1="733.37" y1="1305.17" x2="812.08" y2="1259.73"/><line class="cls-1" x1="811.64" y1="1419.38" x2="889.92" y2="1374.18"/><path class="cls-1" d="M661.16,1316.76v-14.63a17.73,17.73,0,0,1,26.64-15.33h0a77.61,77.61,0,0,1,38.61,67.1v.62Z"/><line class="cls-1" x1="687.06" y1="1286.39" x2="687.06" y2="1362.21"/><line class="cls-1" x1="562.83" y1="1229.89" x2="641.65" y2="1275.4"/><line class="cls-1" x1="634.58" y1="1301.78" x2="818.24" y2="1407.66"/><line class="cls-1" x1="818.24" y1="1407.66" x2="896.95" y2="1362"/><path class="cls-1" d="M792,1381.37h0l7.51,5a24.39,24.39,0,0,0,24.34,1.64h0a24.33,24.33,0,0,0,13.59-21.83h0l-26.23,15.15-9.6-5.55A6.41,6.41,0,0,0,792,1381.37Z"/><path class="cls-1" d="M889.91,1335.92,864,1351.05h0a24.35,24.35,0,0,0,25.7-1.06h0a24.34,24.34,0,0,0,4.63-4.11A56.07,56.07,0,0,0,889.91,1335.92Z"/><polygon class="cls-1" points="567.87 1262.8 580.99 1270.37 580.99 1285.52 567.87 1277.94 567.87 1262.8"/><ellipse class="cls-1" cx="574.28" cy="1273.7" rx="2.51" ry="4.37" transform="translate(-593.89 507.22) rotate(-32.46)"/><polyline class="cls-1" points="576.61 1277.37 568.97 1282.25 564.28 1274.89 571.78 1270.11"/><ellipse class="cls-1" cx="566.62" cy="1278.57" rx="2.51" ry="4.37" transform="translate(-597.7 503.87) rotate(-32.46)"/><path class="cls-2" d="M506.38,1052.32h0a46.36,46.36,0,0,0-23.17,40.14l0,69.26a101.73,101.73,0,0,0,36.67,78.19l46.7,38.85"/><path class="cls-2" d="M576.59,1119.65l3.39,9.23A27.39,27.39,0,0,1,560.6,1165h0"/><polyline class="cls-1" points="389.88 1332.87 389.88 1335.2 265.45 1407.04 218.79 1380.1 218.79 1377.77"/><polyline class="cls-1" points="343.22 1305.97 218.8 1377.77 218.8 1377.77 265.45 1404.71 389.87 1332.87 389.87 1332.87 343.22 1305.97"/><line class="cls-1" x1="265.45" y1="1407.04" x2="265.45" y2="1404.71"/><polyline class="cls-1" points="265.45 1155.63 265.45 1371.16 281 1380.14 343.22 1344.22 343.22 1128.69"/><line class="cls-1" x1="281" y1="1164.61" x2="281" y2="1380.14"/><polygon class="cls-1" points="296.56 1173.59 327.66 1155.63 327.66 1209.51 296.56 1227.47 296.56 1173.59"/><polyline class="cls-1" points="312.11 1164.61 312.11 1200.53 296.56 1209.51"/><line class="cls-1" x1="312.11" y1="1200.53" x2="327.66" y2="1209.51"/><polygon class="cls-1" points="269.34 1175.84 277.12 1180.33 277.12 1198.29 269.34 1193.8 269.34 1175.84"/><polygon class="cls-1" points="296.56 1245.43 296.56 1263.4 327.66 1245.43 327.66 1227.47 296.56 1245.43"/><polyline class="cls-1" points="296.56 1260.23 323.94 1244.42 317.64 1233.26"/><polygon class="cls-1" points="296.56 1281.36 296.56 1317.28 327.66 1299.32 327.66 1263.4 296.56 1281.36"/><line class="cls-1" x1="296.56" y1="1299.32" x2="327.66" y2="1281.36"/><line class="cls-1" x1="312.11" y1="1272.38" x2="312.11" y2="1308.3"/><line class="cls-1" x1="309.48" y1="1273.9" x2="309.48" y2="1291.86"/><polygon class="cls-1" points="299.19 1300.84 309.48 1294.9 309.48 1306.78 299.19 1312.72 299.19 1300.84"/><polygon class="cls-1" points="314.81 1291.89 324.96 1286.03 324.96 1297.76 314.81 1303.62 314.81 1291.89"/><line class="cls-1" x1="314.81" y1="1270.94" x2="314.81" y2="1288.9"/><line class="cls-1" x1="319.89" y1="1231.96" x2="327.66" y2="1245.43"/><line class="cls-1" x1="309.48" y1="1273.9" x2="309.48" y2="1291.86"/><polygon class="cls-1" points="265.46 1155.63 281 1164.61 343.21 1128.69 343.21 1128.69 327.66 1119.71 265.46 1155.63 265.46 1155.63"/><ellipse class="cls-1" cx="320.12" cy="1294.83" rx="4.37" ry="2.51" transform="translate(-944.23 869.99) rotate(-57.54)"/><polyline class="cls-1" points="317.79 1298.5 325.43 1303.38 330.12 1296.02 322.62 1291.24"/><ellipse class="cls-1" cx="327.78" cy="1299.7" rx="4.37" ry="2.51" transform="translate(-944.79 878.7) rotate(-57.54)"/><polygon class="cls-1" points="271.65 1182.51 274.8 1184.33 274.8 1191.61 271.65 1189.79 271.65 1182.51"/><path class="cls-1" d="M377.84,1460.47v32.27l19.52-11.28a16.82,16.82,0,0,0,8.42-14.58v-22.54"/><ellipse class="cls-1" cx="371.68" cy="1469.37" rx="18.16" ry="24.55" transform="translate(-220.51 74.2) rotate(-8.8)"/><ellipse class="cls-1" cx="371.68" cy="1469.37" rx="10.09" ry="13.64" transform="translate(-220.51 74.2) rotate(-8.8)"/><path class="cls-1" d="M489.56,1525v32.27L509.09,1546a16.84,16.84,0,0,0,8.42-14.58v-22.55"/><ellipse class="cls-1" cx="483.41" cy="1533.88" rx="18.16" ry="24.55" transform="matrix(0.99, -0.15, 0.15, 0.99, -229.06, 92.06)"/><ellipse class="cls-1" cx="483.41" cy="1533.88" rx="10.09" ry="13.64" transform="translate(-229.06 92.06) rotate(-8.8)"/><path class="cls-1" d="M355.59,1344.26h0a55.9,55.9,0,0,0-27.94,48.4v32.27l27.94,16.14h0a26.64,26.64,0,0,1,38.5,14.35l3.41,9.85,69.86,40.33h0a26.64,26.64,0,0,1,38.5,14.36l3.41,9.84,55.89,32.27,83.82-48.4,14-24.2"/><path class="cls-1" d="M327.65,1392.67l251.48,145.2,83.83-48.4h0a55.89,55.89,0,0,0-28-48.4l-27.94-16.14"/><path class="cls-1" d="M565.16,1562.07l14-24.2h0a55.88,55.88,0,0,0-27.94-48.4l-28-16.13"/><path class="cls-1" d="M355.59,1408.8h0a28,28,0,0,1,41.92-24.2l55.88,32.27a83.84,83.84,0,0,1,41.91,72.6h0"/><path class="cls-1" d="M551.19,1509.93h0l8,5.37a26,26,0,0,0,25.92,1.75h0a25.92,25.92,0,0,0,14.48-23.25h0l-28,16.13L561.42,1504A6.82,6.82,0,0,0,551.19,1509.93Z"/><path class="cls-1" d="M530.73,1348.59l-63.25-36.53a56.14,56.14,0,0,0-56.12,0l-55.77,32.2L446.9,1397a208.49,208.49,0,0,1,76.32,76.3s0,0,.07,0l83.78-48.38h0A208.5,208.5,0,0,0,530.73,1348.59Z"/><line class="cls-1" x1="425.45" y1="1400.73" x2="425.45" y2="1481.4"/><line class="cls-1" x1="488.7" y1="1428.75" x2="572.52" y2="1380.35"/><line class="cls-1" x1="572.07" y1="1550.13" x2="655.9" y2="1501.72"/><line class="cls-1" x1="327.65" y1="1392.67" x2="579.13" y2="1537.87"/><line class="cls-1" x1="655.47" y1="1461.52" x2="571.64" y2="1509.93"/><path class="cls-1" d="M655.47,1461.52l-27.57,16.12h0a25.92,25.92,0,0,0,27.37-1.13h0a26.1,26.1,0,0,0,4.93-4.37A60.31,60.31,0,0,0,655.47,1461.52Z"/><polygon class="cls-1" points="334.44 1396.63 348.41 1404.69 348.41 1420.83 334.44 1412.76 334.44 1396.63"/><ellipse class="cls-1" cx="340.94" cy="1408.63" rx="2.51" ry="4.37" transform="translate(-702.76 403.06) rotate(-32.46)"/><polyline class="cls-1" points="343.28 1412.3 335.63 1417.18 330.95 1409.82 338.45 1405.05"/><ellipse class="cls-1" cx="333.29" cy="1413.5" rx="2.51" ry="4.37" transform="translate(-706.57 399.72) rotate(-32.46)"/><path class="cls-2" d="M273.07,1187.06h0a46.35,46.35,0,0,0-23.17,40.14l0,69.26a101.69,101.69,0,0,0,36.67,78.18l46.7,38.86"/><path class="cls-2" d="M343.28,1254.39l3.39,9.23a27.39,27.39,0,0,1-19.38,36.08h0"/></svg>