<svg id="Final_Illustrations_copy" data-name="Final Illustrations copy" xmlns="http://www.w3.org/2000/svg" viewBox="0 0 2000 2000"><defs><style>.cls-1,.cls-2,.cls-3{fill:none;}.cls-1,.cls-2,.cls-3,.cls-4{stroke:#057adc;stroke-miterlimit:10;}.cls-1,.cls-2,.cls-4{stroke-width:2px;}.cls-1{stroke-dasharray:24;}.cls-3{stroke-width:4px;}.cls-4,.cls-5{fill:#181d28;}</style></defs><line class="cls-1" x1="420.68" y1="1210.31" x2="1364.2" y2="665.52"/><line class="cls-1" x1="628.78" y1="1330.5" x2="1572.33" y2="785.7"/><line class="cls-1" x1="836.94" y1="1450.66" x2="1780.46" y2="905.87"/><line class="cls-1" x1="212.55" y1="1090.14" x2="1156.07" y2="545.15"/><polygon class="cls-2" points="1058.94 489.27 1052.14 485.26 108.54 1030.05 115.42 1034.06 1058.94 489.27"/><polygon class="cls-2" points="1267.07 609.44 1260.27 605.43 316.67 1150.22 323.55 1154.23 1267.07 609.44"/><polygon class="cls-2" points="1475.25 729.61 1468.46 725.61 524.85 1270.4 531.73 1274.4 1475.25 729.61"/><polygon class="cls-2" points="1683.33 849.79 1676.53 845.78 732.93 1390.57 739.81 1394.58 1683.33 849.79"/><polygon class="cls-2" points="1891.46 969.95 1884.66 965.95 941.06 1510.73 947.94 1514.74 1891.46 969.95"/><line class="cls-3" x1="892.44" y1="921.89" x2="961.81" y2="881.83"/><line class="cls-3" x1="850.81" y1="929.9" x2="948.61" y2="873.82"/><line class="cls-3" x1="920.19" y1="937.92" x2="989.56" y2="897.86"/><line class="cls-3" x1="878.56" y1="945.93" x2="975.69" y2="889.85"/><line class="cls-3" x1="476.18" y1="921.89" x2="545.55" y2="881.83"/><line class="cls-3" x1="434.55" y1="929.9" x2="532.35" y2="873.82"/><line class="cls-3" x1="503.93" y1="937.92" x2="573.3" y2="897.86"/><line class="cls-3" x1="462.3" y1="945.93" x2="559.43" y2="889.85"/><line class="cls-3" x1="614.93" y1="1322.47" x2="684.31" y2="1282.42"/><line class="cls-3" x1="573.3" y1="1330.48" x2="671.1" y2="1274.4"/><line class="cls-3" x1="642.68" y1="1338.5" x2="712.06" y2="1298.44"/><line class="cls-3" x1="601.06" y1="1346.51" x2="698.18" y2="1290.43"/><line class="cls-3" x1="1169.94" y1="1242.49" x2="1239.32" y2="1202.43"/><line class="cls-3" x1="1128.32" y1="1250.5" x2="1226.11" y2="1194.42"/><line class="cls-3" x1="1197.69" y1="1258.52" x2="1267.07" y2="1218.46"/><line class="cls-3" x1="1156.07" y1="1266.53" x2="1253.19" y2="1210.45"/><path class="cls-4" d="M923,1198.9v29.28L905.3,1218a15.27,15.27,0,0,1-7.64-13.23v-20.46"/><ellipse class="cls-4" cx="928.6" cy="1206.98" rx="22.28" ry="16.48" transform="translate(-406.28 1939.91) rotate(-81.2)"/><ellipse class="cls-4" cx="928.6" cy="1206.98" rx="12.38" ry="9.16" transform="translate(-406.28 1939.91) rotate(-81.2)"/><path class="cls-4" d="M821.63,1257.43v29.28l-17.72-10.23a15.29,15.29,0,0,1-7.64-13.23v-20.46"/><ellipse class="cls-4" cx="827.22" cy="1265.51" rx="22.28" ry="16.48" transform="translate(-549.99 1889.3) rotate(-81.2)"/><ellipse class="cls-4" cx="827.22" cy="1265.51" rx="12.38" ry="9.16" transform="translate(-549.99 1889.3) rotate(-81.2)"/><path class="cls-4" d="M973.68,1114.74,909,1076.28a36.9,36.9,0,0,0-37.32-.24l-14.42,8.33L841,1092.92"/><polyline class="cls-4" points="677.86 1217.22 753.93 1261.14 982.14 1129.38"/><path class="cls-4" d="M753.93,1290.43l50.71-29.28h0a24.19,24.19,0,0,1,28.76-23.75l9.28,1.78,63.39-36.6h0a24.17,24.17,0,0,1,28.75-23.74l9.28,1.78,24.47-14.12,13.57-37.12h0a16.91,16.91,0,0,0-25.36-14.64l-25.36,14.64h0a50.7,50.7,0,0,0-50.71,0l-79.84,46.1a93.06,93.06,0,0,0-34,34h0a96.32,96.32,0,0,0-12.89,48.13v32.76h0l-76.06-43.92v-40.63a67,67,0,0,1,9-33.46h0a122.38,122.38,0,0,1,44.79-44.78l73-42.17a50.7,50.7,0,0,1,50.71,0h0"/><line class="cls-4" x1="679.98" y1="1189.17" x2="756.98" y2="1233.62"/><path class="cls-4" d="M792,1239.18h0a75.36,75.36,0,0,1,38.09-65.49l32.25-18.36A44.38,44.38,0,0,1,918.74,1166h0"/><line class="cls-4" x1="707.09" y1="1146.26" x2="782.23" y2="1189.64"/><line class="cls-4" x1="931.42" y1="1129.38" x2="855.35" y2="1085.46"/><path class="cls-4" d="M753.93,1261.15l-25.36-14.65h0a23.51,23.51,0,0,0,13.14,21.1h0a23.52,23.52,0,0,0,12.21,2.35Z"/><path class="cls-4" d="M677.88,1217.22l25.34,14.67h0c-7.84,6.35-19.08,4.37-25.36-1.21Z"/><polyline class="cls-2" points="982.14 1129.38 753.93 1261.14 677.88 1217.22"/><line class="cls-4" x1="855.35" y1="1159.29" x2="855.35" y2="1231.86"/><path class="cls-4" d="M970.32,1113.53l-9.32,5.3a6.19,6.19,0,0,0-.07,10.72h0l7.88-3.8a23.51,23.51,0,0,0,9-7.65l-1-.84a21.81,21.81,0,0,0-6.13-3.58Z"/><path class="cls-4" d="M1206.38,795.79V823.9l-17-9.82a14.66,14.66,0,0,1-7.33-12.7V781.74"/><ellipse class="cls-4" cx="1211.74" cy="803.55" rx="21.39" ry="15.82" transform="translate(232.2 1878.03) rotate(-81.2)"/><ellipse class="cls-4" cx="1211.74" cy="803.55" rx="11.88" ry="8.79" transform="translate(232.2 1878.03) rotate(-81.2)"/><path class="cls-4" d="M1109.05,852v28.11l-17-9.82a14.67,14.67,0,0,1-7.34-12.7V837.93"/><ellipse class="cls-4" cx="1114.41" cy="859.74" rx="21.39" ry="15.82" transform="translate(94.24 1829.44) rotate(-81.2)"/><ellipse class="cls-4" cx="1114.41" cy="859.74" rx="11.88" ry="8.79" transform="translate(94.24 1829.44) rotate(-81.2)"/><polygon class="cls-5" points="1073.2 819.6 1077.75 850.12 1031.19 887.9 1031.19 854.75 1073.2 819.6"/><path class="cls-4" d="M1140.75,686.08l13-7.54a40.74,40.74,0,0,1,41.21.29l59.33,35.36"/><path class="cls-4" d="M1213.78,728.24l-73-42.16a48.66,48.66,0,0,0-48.68,0L1046.3,712.5a117.5,117.5,0,0,0-43,43l-8.61,14.91L969,785.26A21.58,21.58,0,0,0,958.19,804v43.2l73,42.72h0V846.12A21.59,21.59,0,0,1,1042,827.43l28.55-16.49"/><path class="cls-4" d="M1067.73,840.68V829.79a64.19,64.19,0,0,1,8.6-32.12h0a117.45,117.45,0,0,1,43-43l45.77-26.43a48.71,48.71,0,0,1,48.68,0h0l24.34-14A16.23,16.23,0,0,1,1262.46,728v.27l-12.17,35.14L1226,777.52l-8.83-1.72a23.24,23.24,0,0,0-27.68,22.81h0l-60.86,35-8.84-1.7a23.27,23.27,0,0,0-27.67,22.85h0l-60.86,35.14"/><line class="cls-4" x1="1022.76" y1="730.39" x2="1097.62" y2="770.8"/><polyline class="cls-2" points="1262.46 727.97 1031.21 861.77 958.19 819.6"/><path class="cls-4" d="M1104.09,819.6h0a73.39,73.39,0,0,1,36.56-63.32l16.66-9.66a44.32,44.32,0,0,1,56.1,9.73h0"/><line class="cls-4" x1="994.7" y1="770.41" x2="1070.55" y2="810.94"/><line class="cls-4" x1="1153.74" y1="748.68" x2="1153.74" y2="819.13"/><path class="cls-4" d="M1031.21,861.74l-24.34-14h0a22.55,22.55,0,0,0,12.62,20.25h0a22.56,22.56,0,0,0,11.72,2.25Z"/><path class="cls-4" d="M958.21,819.6l24.32,14.09h0c-7.53,6.09-18.32,4.19-24.34-1.17Z"/><path class="cls-4" d="M1250.65,712l-9,5.09a6,6,0,0,0-.07,10.29h0l7.57-3.65a21.05,21.05,0,0,0,8.37-7.1l-3.23-2.43Z"/><line class="cls-4" x1="1104.09" y1="819.6" x2="1213.41" y2="756.35"/><path class="cls-4" d="M794.32,792.63v27L778,810.22A14.1,14.1,0,0,1,770.91,798V779.12"/><ellipse class="cls-4" cx="799.47" cy="800.09" rx="20.56" ry="15.21" transform="translate(-113.55 1467.7) rotate(-81.2)"/><ellipse class="cls-4" cx="799.47" cy="800.09" rx="11.42" ry="8.45" transform="translate(-113.55 1467.7) rotate(-81.2)"/><path class="cls-4" d="M655.29,873.55v27l-16.35-9.44a14.12,14.12,0,0,1-7.05-12.22V860"/><ellipse class="cls-4" cx="660.45" cy="881.01" rx="20.56" ry="15.21" transform="translate(-311.26 1398.84) rotate(-81.2)"/><ellipse class="cls-4" cx="660.45" cy="881.01" rx="11.42" ry="8.45" transform="translate(-311.26 1398.84) rotate(-81.2)"/><path class="cls-4" d="M732,687.19,744.58,680a39.17,39.17,0,0,1,39.63.27l57,34"/><path class="cls-4" d="M685.23,795.31l-59.84,34.55a20.74,20.74,0,0,0-10.38,18V889.9h0l-70.21-40.54V807.29a20.76,20.76,0,0,1,10.38-18L615,754.77l8.27-14.34a113,113,0,0,1,41.35-41.34l20.6-11.9a46.82,46.82,0,0,1,46.81,0l70.22,40.55"/><path class="cls-4" d="M615,889.91l23.4-13.51h0a21.68,21.68,0,0,1,26.38-21.17l7.42,1.65,106.63-61.56h0a22.33,22.33,0,0,1,26.55-21.93L814,775l23.39-13.52,11.71-33.78h0a15.61,15.61,0,0,0-23.41-13.52l-23.4,13.52h0a46.79,46.79,0,0,0-46.82,0l-20.6,11.89A113,113,0,0,0,693.5,781l-8.27,14.33-51.64,29.81-8.2,4.74a20.74,20.74,0,0,0-10.38,18V889.9Z"/><polyline class="cls-2" points="849.07 727.74 615.01 862.88 544.79 822.34"/><path class="cls-4" d="M720.34,802.07v-8.73a55.09,55.09,0,0,1,27.55-47.72h0a43.29,43.29,0,0,1,54.37,9.15h0"/><line class="cls-4" x1="641.99" y1="716.29" x2="712.21" y2="756.83"/><line class="cls-4" x1="615.01" y1="754.77" x2="685.23" y2="795.31"/><line class="cls-4" x1="755.44" y1="742.18" x2="755.46" y2="808.82"/><line class="cls-4" x1="685.23" y1="795.31" x2="685.23" y2="849.37"/><path class="cls-4" d="M615,862.88,591.6,849.37h0a21.71,21.71,0,0,0,12.13,19.47h0A21.8,21.8,0,0,0,615,871Z"/><path class="cls-4" d="M544.81,822.34l23.39,13.54h0c-7.24,5.86-17.61,4-23.41-1.12Z"/><path class="cls-4" d="M837.15,712.11l-8.6,4.89a5.71,5.71,0,0,0-.07,9.89h0l7.28-3.5a21.71,21.71,0,0,0,8.33-7.07l-2.71-1.9a15.23,15.23,0,0,0-1.83-1.09Z"/><line class="cls-4" x1="720.34" y1="802.07" x2="802.26" y2="754.77"/><path class="cls-4" d="M1370.84,1181.7v27l-16.35-9.45a14.1,14.1,0,0,1-7-12.21v-18.89"/><ellipse class="cls-4" cx="1376" cy="1189.16" rx="20.56" ry="15.21" transform="matrix(0.15, -0.99, 0.99, 0.15, -9.74, 2366.95)"/><ellipse class="cls-4" cx="1376" cy="1189.16" rx="11.42" ry="8.45" transform="translate(-9.74 2366.95) rotate(-81.2)"/><path class="cls-4" d="M1500.07,1106.31v27l-16.36-9.44a14.11,14.11,0,0,1-7-12.21V1092.8"/><ellipse class="cls-4" cx="1505.22" cy="1113.77" rx="20.56" ry="15.21" transform="translate(174.2 2430.8) rotate(-81.2)"/><ellipse class="cls-4" cx="1505.22" cy="1113.77" rx="11.42" ry="8.45" transform="translate(174.2 2430.8) rotate(-81.2)"/><polygon class="cls-5" points="1350.83 1139.22 1355.38 1169.74 1308.82 1207.52 1308.82 1174.38 1350.83 1139.22"/><path class="cls-4" d="M1425.85,1007.63l12.55-7.25a39.15,39.15,0,0,1,39.62.28l57,34"/><path class="cls-4" d="M1496.07,1048.17l-70.22-40.54a46.82,46.82,0,0,0-46.81,0l-90.82,52.44a112.89,112.89,0,0,0-41.34,41.34h0a61.68,61.68,0,0,0-8.27,30.89v37.51l70.21,40.53h0v-37.5a61.71,61.71,0,0,1,8.28-30.89h0a112.89,112.89,0,0,1,41.34-41.34l90.82-52.44a46.82,46.82,0,0,1,46.81,0h0l23.4-13.51a15.61,15.61,0,0,1,23.41,13.51h0l-11.7,33.79-11.71,6.75-8.56-1.64a22.33,22.33,0,0,0-26.55,21.92h0l-93.62,54-8.57-1.64a22.32,22.32,0,0,0-26.54,21.92h0l-46.8,27h0v-27"/><polyline class="cls-2" points="1238.61 1142.78 1308.82 1183.32 1542.88 1048.17"/><path class="cls-4" d="M1343.93,1163v-16.75a40.88,40.88,0,0,1,20.38-35.37l61.5-35.64a70.19,70.19,0,0,1,70.26-.08h0"/><path class="cls-4" d="M1308.82,1183.32l-23.4-13.52h0a21.7,21.7,0,0,0,12.12,19.48h0a21.7,21.7,0,0,0,11.28,2.16Z"/><path class="cls-4" d="M1238.62,1142.77l23.39,13.55h0c-7.24,5.85-17.61,4-23.41-1.13Z"/><path class="cls-4" d="M1531,1032.54l-8.6,4.89a5.72,5.72,0,0,0-.06,9.9h0l7.27-3.51a21.71,21.71,0,0,0,8.33-7.07l-2.71-1.89a14.67,14.67,0,0,0-1.82-1.1Z"/><line class="cls-4" x1="1265.59" y1="1077.27" x2="1335.8" y2="1117.81"/><line class="cls-4" x1="1240.56" y1="1116.87" x2="1310.78" y2="1157.42"/><line class="cls-4" x1="1414.28" y1="1081.96" x2="1414.15" y2="1149.53"/><line class="cls-4" x1="1343.93" y1="1163.04" x2="1496.07" y2="1075.2"/></svg>