<svg id="Final_Illustrations_copy" data-name="Final Illustrations copy" xmlns="http://www.w3.org/2000/svg" viewBox="0 0 2000 1570.24"><defs><style>.cls-1{fill:none;}.cls-1,.cls-2,.cls-3{stroke:#057adc;stroke-miterlimit:10;}.cls-1,.cls-2{stroke-width:2px;}.cls-2,.cls-3{fill:#181d28;}</style></defs><polygon class="cls-1" points="885.69 289.43 910.77 274.95 935.84 289.43 910.77 303.91 885.69 289.43"/><polyline class="cls-1" points="986 665.96 935.84 492.21 935.84 289.43 910.77 260.47 885.69 289.43 885.69 492.21 835.54 665.96"/><line class="cls-1" x1="910.77" y1="260.47" x2="910.77" y2="709.39"/><polygon class="cls-1" points="885.69 318.47 910.77 303.99 935.84 318.47 910.77 332.95 885.69 318.47"/><polygon class="cls-1" points="885.69 492.21 910.77 477.73 935.84 492.21 910.77 506.69 885.69 492.21"/><polygon class="cls-1" points="885.69 347.43 910.77 332.95 935.84 347.43 910.77 361.9 885.69 347.43"/><polygon class="cls-1" points="885.69 376.55 910.77 362.07 935.84 376.55 910.77 391.03 885.69 376.55"/><polygon class="cls-1" points="885.69 405.34 910.77 390.86 935.84 405.34 910.77 419.82 885.69 405.34"/><polygon class="cls-1" points="885.69 434.3 910.77 419.82 935.84 434.3 910.77 448.78 885.69 434.3"/><polygon class="cls-1" points="885.69 463.26 910.77 448.78 935.84 463.26 910.77 477.73 885.69 463.26"/><polygon class="cls-1" points="910.77 506.69 875.25 528.41 910.77 550.13 946.29 528.41 910.77 506.69"/><polygon class="cls-1" points="935.84 318.47 923.31 296.67 910.77 332.95 898.09 296.67 885.69 318.47 898.23 282.27 910.77 303.99 923.31 282.19 935.84 318.47"/><polygon class="cls-1" points="935.84 347.43 923.31 325.62 910.77 361.9 898.09 325.62 885.69 347.43 898.23 311.23 910.77 332.95 923.31 311.15 935.84 347.43"/><polygon class="cls-1" points="935.84 376.43 923.31 354.62 910.77 390.9 898.09 354.62 885.69 376.43 898.23 340.23 910.77 361.95 923.31 340.14 935.84 376.43"/><polygon class="cls-1" points="935.84 405.38 923.31 383.58 910.77 419.86 898.09 383.58 885.69 405.38 898.23 369.19 910.77 390.9 923.31 369.1 935.84 405.38"/><polygon class="cls-1" points="935.84 434.34 923.31 412.54 910.77 448.82 898.09 412.54 885.69 434.34 898.23 398.14 910.77 419.86 923.31 398.06 935.84 434.34"/><polygon class="cls-1" points="935.84 463.3 923.31 441.5 910.77 477.78 898.09 441.5 885.69 463.3 898.23 427.1 910.77 448.82 923.31 427.02 935.84 463.3"/><polygon class="cls-1" points="935.84 492.25 923.31 470.45 910.77 506.73 898.09 470.45 885.69 492.25 898.23 456.06 910.77 477.78 923.31 455.97 935.84 492.25"/><polygon class="cls-1" points="910.77 550.13 860.62 579.09 910.77 608.04 960.92 579.09 910.77 550.13"/><polygon class="cls-1" points="946.29 528.41 923.31 499.45 910.77 550.13 898.23 499.45 875.25 528.41 898.3 484.93 910.77 506.73 923.38 484.93 946.29 528.41"/><polygon class="cls-1" points="960.92 579.09 929.58 539.27 910.77 608.04 891.96 539.27 860.62 579.09 893.04 517.53 910.77 550.13 928.5 517.53 960.92 579.09"/><polygon class="cls-1" points="982.41 653.55 935.84 593.56 910.77 694.91 885.69 593.56 839.12 653.55 885.69 564.61 910.77 608.04 935.84 564.61 982.41 653.55"/><polyline class="cls-1" points="823 665.36 823 667.26 835.54 674.5 848.08 667.26 848.08 665.36"/><polygon class="cls-1" points="835.54 658.12 823.01 665.36 823.01 665.36 835.54 672.6 848.08 665.36 848.08 665.36 835.54 658.12"/><line class="cls-1" x1="835.54" y1="674.5" x2="835.54" y2="672.6"/><polyline class="cls-1" points="973.46 665.01 973.46 666.91 986 674.15 998.53 666.91 998.53 665.01"/><polygon class="cls-1" points="986 657.77 973.46 665 973.46 665.01 986 672.25 998.53 665.01 998.53 665 986 657.77"/><line class="cls-1" x1="986" y1="674.15" x2="986" y2="672.25"/><polyline class="cls-1" points="898.23 708.44 898.23 710.34 910.77 717.58 923.31 710.34 923.31 708.44"/><polygon class="cls-1" points="910.77 701.2 898.23 708.44 898.23 708.44 910.77 715.68 923.3 708.44 923.3 708.44 910.77 701.2"/><line class="cls-1" x1="910.77" y1="717.58" x2="910.77" y2="715.68"/><polyline class="cls-1" points="898.23 622.11 898.23 624.01 910.77 631.25 923.31 624.01 923.31 622.11"/><polygon class="cls-1" points="910.77 614.88 898.23 622.11 898.23 622.12 910.77 629.35 923.3 622.12 923.3 622.11 910.77 614.88"/><line class="cls-1" x1="910.77" y1="631.25" x2="910.77" y2="629.35"/><polyline class="cls-1" points="860.62 347.43 910.77 332.95 935.84 318.47 961.06 289.44 961.05 289.43 860.63 347.42 860.63 347.42 885.69 318.47 910.77 303.99 961.07 289.43"/><line class="cls-1" x1="961.07" y1="289.43" x2="961.07" y2="303.91"/><line class="cls-1" x1="860.62" y1="362.07" x2="860.63" y2="347.42"/><polyline class="cls-1" points="860.54 463.13 910.7 448.65 935.77 434.17 960.98 405.14 960.98 405.14 860.55 463.12 860.55 463.12 885.62 434.17 910.7 419.69 960.99 405.13"/><line class="cls-1" x1="960.99" y1="419.61" x2="960.99" y2="405.13"/><line class="cls-1" x1="860.54" y1="477.78" x2="860.56" y2="463.12"/><polyline class="cls-1" points="986 332.95 910.77 361.9 885.69 376.43 835.54 419.74 986 332.95 935.84 376.43 910.77 390.9 835.54 419.74"/><line class="cls-1" x1="835.54" y1="434.3" x2="835.54" y2="419.53"/><line class="cls-1" x1="986" y1="347.43" x2="986" y2="332.71"/><polygon class="cls-1" points="1387.2 579 1412.28 564.52 1437.36 579 1412.28 593.48 1387.2 579"/><polyline class="cls-1" points="1487.51 955.53 1437.36 781.78 1437.36 579 1412.28 550.04 1387.2 579 1387.2 781.78 1337.05 955.53"/><line class="cls-1" x1="1412.28" y1="550.04" x2="1412.28" y2="998.96"/><polygon class="cls-1" points="1387.2 608.04 1412.28 593.56 1437.36 608.04 1412.28 622.52 1387.2 608.04"/><polygon class="cls-1" points="1387.2 781.78 1412.28 767.31 1437.36 781.78 1412.28 796.26 1387.2 781.78"/><polygon class="cls-1" points="1387.2 637 1412.28 622.52 1437.36 637 1412.28 651.48 1387.2 637"/><polygon class="cls-1" points="1387.2 666.13 1412.28 651.65 1437.36 666.13 1412.28 680.6 1387.2 666.13"/><polygon class="cls-1" points="1387.2 694.91 1412.28 680.43 1437.36 694.91 1412.28 709.39 1387.2 694.91"/><polygon class="cls-1" points="1387.2 723.87 1412.28 709.39 1437.36 723.87 1412.28 738.35 1387.2 723.87"/><polygon class="cls-1" points="1387.2 752.83 1412.28 738.35 1437.36 752.83 1412.28 767.31 1387.2 752.83"/><polygon class="cls-1" points="1412.28 796.26 1376.76 817.98 1412.28 839.7 1447.8 817.98 1412.28 796.26"/><polygon class="cls-1" points="1437.36 608.04 1424.82 586.24 1412.28 622.52 1399.6 586.24 1387.2 608.04 1399.74 571.85 1412.28 593.56 1424.82 571.76 1437.36 608.04"/><polygon class="cls-1" points="1437.36 637 1424.82 615.2 1412.28 651.48 1399.6 615.2 1387.2 637 1399.74 600.8 1412.28 622.52 1424.82 600.72 1437.36 637"/><polygon class="cls-1" points="1437.36 666 1424.82 644.2 1412.28 680.48 1399.6 644.2 1387.2 666 1399.74 629.8 1412.28 651.52 1424.82 629.72 1437.36 666"/><polygon class="cls-1" points="1437.36 694.96 1424.82 673.15 1412.28 709.43 1399.6 673.15 1387.2 694.96 1399.74 658.76 1412.28 680.48 1424.82 658.67 1437.36 694.96"/><polygon class="cls-1" points="1437.36 723.91 1424.82 702.11 1412.28 738.39 1399.6 702.11 1387.2 723.91 1399.74 687.72 1412.28 709.43 1424.82 687.63 1437.36 723.91"/><polygon class="cls-1" points="1437.36 752.87 1424.82 731.07 1412.28 767.35 1399.6 731.07 1387.2 752.87 1399.74 716.67 1412.28 738.39 1424.82 716.59 1437.36 752.87"/><polygon class="cls-1" points="1437.36 781.83 1424.82 760.02 1412.28 796.31 1399.6 760.02 1387.2 781.83 1399.74 745.63 1412.28 767.35 1424.82 745.55 1437.36 781.83"/><polygon class="cls-1" points="1412.28 839.7 1362.13 868.66 1412.28 897.61 1462.43 868.66 1412.28 839.7"/><polygon class="cls-1" points="1447.8 817.98 1424.82 789.02 1412.28 839.7 1399.74 789.02 1376.76 817.98 1399.82 774.5 1412.28 796.31 1424.89 774.5 1447.8 817.98"/><polygon class="cls-1" points="1462.43 868.66 1431.09 828.84 1412.28 897.61 1393.47 828.84 1362.13 868.66 1394.55 807.1 1412.28 839.7 1430.01 807.1 1462.43 868.66"/><polygon class="cls-1" points="1483.92 943.12 1437.36 883.14 1412.28 984.49 1387.2 883.14 1340.63 943.12 1387.2 854.18 1412.28 897.61 1437.36 854.18 1483.92 943.12"/><polyline class="cls-1" points="1324.52 954.93 1324.52 956.83 1337.05 964.07 1349.59 956.83 1349.59 954.93"/><polygon class="cls-1" points="1337.05 947.69 1324.52 954.93 1324.52 954.93 1337.05 962.17 1349.59 954.93 1349.59 954.93 1337.05 947.69"/><line class="cls-1" x1="1337.05" y1="964.07" x2="1337.05" y2="962.17"/><polyline class="cls-1" points="1474.97 954.58 1474.97 956.48 1487.51 963.72 1500.04 956.48 1500.04 954.58"/><polygon class="cls-1" points="1487.51 947.34 1474.97 954.58 1474.97 954.58 1487.51 961.82 1500.04 954.58 1500.04 954.58 1487.51 947.34"/><line class="cls-1" x1="1487.51" y1="963.72" x2="1487.51" y2="961.82"/><polyline class="cls-1" points="1399.74 998.01 1399.74 999.91 1412.28 1007.15 1424.82 999.91 1424.82 998.01"/><polygon class="cls-1" points="1412.28 990.77 1399.74 998.01 1399.74 998.02 1412.28 1005.25 1424.81 998.02 1424.81 998.01 1412.28 990.77"/><line class="cls-1" x1="1412.28" y1="1007.15" x2="1412.28" y2="1005.25"/><polyline class="cls-1" points="1399.74 911.69 1399.74 913.59 1412.28 920.83 1424.82 913.59 1424.82 911.69"/><polygon class="cls-1" points="1412.28 904.45 1399.74 911.68 1399.74 911.69 1412.28 918.93 1424.81 911.69 1424.81 911.68 1412.28 904.45"/><line class="cls-1" x1="1412.28" y1="920.83" x2="1412.28" y2="918.93"/><polyline class="cls-1" points="1362.13 637 1412.28 622.52 1437.36 608.04 1462.57 579.01 1462.57 579.01 1362.14 636.99 1362.14 636.99 1387.2 608.04 1412.28 593.56 1462.58 579"/><line class="cls-1" x1="1462.58" y1="593.48" x2="1462.58" y2="579"/><line class="cls-1" x1="1362.13" y1="651.65" x2="1362.14" y2="636.99"/><polyline class="cls-1" points="1362.06 752.7 1412.21 738.22 1437.28 723.75 1462.49 694.71 1462.49 694.71 1362.07 752.7 1362.06 752.69 1387.13 723.75 1412.21 709.27 1462.5 694.7"/><line class="cls-1" x1="1462.5" y1="709.18" x2="1462.5" y2="694.7"/><line class="cls-1" x1="1362.06" y1="767.35" x2="1362.07" y2="752.7"/><polyline class="cls-1" points="1487.51 622.52 1412.28 651.48 1387.2 666 1337.05 709.32 1487.51 622.52 1437.36 666 1412.28 680.48 1337.05 709.32"/><line class="cls-1" x1="1337.05" y1="723.87" x2="1337.05" y2="709.11"/><line class="cls-1" x1="1487.51" y1="637" x2="1487.51" y2="622.28"/><path class="cls-1" d="M960.92,303.65l112.32,86.57a1097.14,1097.14,0,0,0,246,143l143.18,60"/><path class="cls-1" d="M860.49,361.79l112.32,86.57a1097.17,1097.17,0,0,0,246,143l143.17,60"/><path class="cls-1" d="M835.38,434,947.7,520.59a1096.88,1096.88,0,0,0,246,143l143.18,60"/><path class="cls-1" d="M860.49,477.56l112.32,86.57a1097.58,1097.58,0,0,0,246,143l143.17,60"/><path class="cls-1" d="M960.92,419.38,1073.24,506a1097.52,1097.52,0,0,0,246,143l143.18,60"/><path class="cls-1" d="M986,347.19l112.31,86.57a1097.2,1097.2,0,0,0,246,143l143.17,60"/><path class="cls-1" d="M459.44,14.11l112.31,86.57a1097.17,1097.17,0,0,0,246,143l143.17,60"/><path class="cls-1" d="M484.51,57.65l112.32,86.57a1097.26,1097.26,0,0,0,246,143l143.18,60"/><path class="cls-1" d="M459.51,129.84l112.32,86.57a1097.26,1097.26,0,0,0,246,143l143.17,60"/><path class="cls-1" d="M359.07,188l112.32,86.57a1097.26,1097.26,0,0,0,246,143l143.18,60"/><path class="cls-1" d="M333.89,144.47,446.21,231a1097.14,1097.14,0,0,0,246,143l143.18,60"/><path class="cls-1" d="M359,72.24l112.32,86.57a1096.92,1096.92,0,0,0,246,143l143.17,60"/><path class="cls-1" d="M1462.41,593.2l112.32,86.57a1096.88,1096.88,0,0,0,246,143l143.17,60"/><path class="cls-1" d="M1487.48,636.74l112.32,86.57a1097.48,1097.48,0,0,0,246,143l143.18,60"/><path class="cls-1" d="M1462.48,708.93,1574.8,795.5a1097.26,1097.26,0,0,0,246,143l143.18,60"/><path class="cls-1" d="M1362,767.11l112.32,86.57a1097.48,1097.48,0,0,0,246,143l143.18,60"/><path class="cls-1" d="M1336.87,723.56l112.32,86.57a1096.92,1096.92,0,0,0,246,143l143.17,60"/><path class="cls-1" d="M1362,651.33,1474.3,737.9a1096.92,1096.92,0,0,0,246,143l143.18,60"/><polyline class="cls-2" points="317.31 874.55 317.37 894.55 320.51 896.36 323.64 894.55 323.64 879.43"/><line class="cls-2" x1="320.51" y1="896.36" x2="320.51" y2="877.02"/><polyline class="cls-2" points="398.76 916.25 398.76 927.11 401.9 928.91 405.03 927.11 405.03 912.64"/><line class="cls-2" x1="401.9" y1="928.91" x2="401.9" y2="914.45"/><polyline class="cls-2" points="505.16 854.76 505.16 865.66 508.3 867.47 511.43 865.66 511.43 851.15"/><line class="cls-2" x1="508.3" y1="867.46" x2="508.3" y2="852.96"/><polyline class="cls-2" points="455.14 883.7 455.14 894.63 458.28 896.44 461.41 894.63 461.41 880.09"/><line class="cls-2" x1="458.28" y1="896.44" x2="458.28" y2="881.95"/><polygon class="cls-2" points="383.13 918.12 307.93 860.18 307.93 860.18 445.75 780.62 520.83 838.54 520.83 838.54 383.13 918.12"/><polygon class="cls-2" points="307.93 860.19 308.01 867.38 383.1 925.3 383.11 925.3 383.13 918.12 307.93 860.19 307.93 860.19"/><polygon class="cls-2" points="383.11 925.3 383.13 918.12 520.83 838.54 520.83 838.54 520.92 845.72 383.11 925.3 383.11 925.3"/><polygon class="cls-2" points="314.2 860.24 383.1 914.45 514.65 838.49 445.74 784.23 314.2 860.24"/><polygon class="cls-2" points="320.55 860.24 383.13 910.91 508.3 838.54 445.82 787.8 320.55 860.24"/><line class="cls-3" x1="439.59" y1="791.4" x2="502.13" y2="842.11"/><line class="cls-3" x1="326.9" y1="856.57" x2="389.37" y2="907.3"/><line class="cls-3" x1="333.15" y1="852.96" x2="395.63" y2="903.6"/><line class="cls-3" x1="339.41" y1="849.34" x2="401.9" y2="900.06"/><line class="cls-3" x1="345.66" y1="845.72" x2="408.29" y2="896.36"/><line class="cls-3" x1="351.94" y1="842.12" x2="414.43" y2="892.81"/><line class="cls-3" x1="358.13" y1="838.54" x2="420.8" y2="889.13"/><line class="cls-3" x1="364.43" y1="834.87" x2="426.95" y2="885.57"/><line class="cls-3" x1="370.58" y1="831.32" x2="433.22" y2="881.95"/><line class="cls-3" x1="377.57" y1="827.64" x2="439.48" y2="878.33"/><line class="cls-3" x1="383.53" y1="823.83" x2="445.82" y2="874.66"/><line class="cls-3" x1="389.47" y1="820.46" x2="452.01" y2="871.08"/><line class="cls-3" x1="395.7" y1="816.79" x2="458.34" y2="867.46"/><line class="cls-3" x1="401.95" y1="813.17" x2="464.58" y2="863.83"/><line class="cls-3" x1="408.29" y1="809.55" x2="470.9" y2="860.24"/><line class="cls-3" x1="414.68" y1="806.11" x2="477" y2="856.63"/><line class="cls-3" x1="420.8" y1="802.38" x2="483.33" y2="852.98"/><line class="cls-3" x1="427.02" y1="798.83" x2="489.6" y2="849.35"/><line class="cls-3" x1="433.22" y1="795.09" x2="495.78" y2="845.77"/><line class="cls-3" x1="325.69" y1="864.4" x2="451.03" y2="792.03"/><line class="cls-3" x1="330.91" y1="868.63" x2="456.13" y2="796.33"/><line class="cls-3" x1="336.12" y1="872.85" x2="461.45" y2="800.49"/><line class="cls-3" x1="341.34" y1="877.07" x2="466.65" y2="804.72"/><line class="cls-3" x1="346.55" y1="881.29" x2="471.86" y2="808.94"/><line class="cls-3" x1="351.88" y1="885.46" x2="477" y2="813.21"/><line class="cls-3" x1="356.99" y1="889.74" x2="482.27" y2="817.4"/><line class="cls-3" x1="362.2" y1="893.96" x2="487.48" y2="821.63"/><line class="cls-3" x1="367.44" y1="898.21" x2="492.68" y2="825.86"/><line class="cls-3" x1="372.63" y1="902.41" x2="497.89" y2="830.09"/><line class="cls-3" x1="377.85" y1="906.63" x2="503.09" y2="834.31"/><polyline class="cls-2" points="166.96 961.36 167.03 981.36 170.16 983.17 173.29 981.36 173.29 966.24"/><line class="cls-2" x1="170.16" y1="983.17" x2="170.16" y2="963.83"/><polyline class="cls-2" points="248.42 1003.06 248.42 1013.91 251.55 1015.72 254.69 1013.91 254.69 999.45"/><line class="cls-2" x1="251.55" y1="1015.72" x2="251.55" y2="1001.26"/><polyline class="cls-2" points="354.82 941.57 354.82 952.47 357.95 954.27 361.08 952.47 361.08 937.96"/><line class="cls-2" x1="357.95" y1="954.27" x2="357.95" y2="939.77"/><polyline class="cls-2" points="304.8 970.51 304.8 981.44 307.93 983.25 311.06 981.44 311.06 966.89"/><line class="cls-2" x1="307.93" y1="983.25" x2="307.93" y2="968.76"/><polygon class="cls-2" points="232.79 1004.92 157.59 946.99 157.59 946.99 295.4 867.42 370.48 925.35 370.48 925.35 232.79 1004.92"/><polygon class="cls-2" points="157.59 947 157.66 954.19 232.76 1012.11 232.76 1012.11 232.79 1004.92 157.59 946.99 157.59 947"/><polygon class="cls-2" points="232.76 1012.11 232.79 1004.92 370.48 925.35 370.48 925.35 370.57 932.53 232.76 1012.11 232.76 1012.11"/><polygon class="cls-2" points="163.85 947.05 232.76 1001.25 364.31 925.3 295.4 871.04 163.85 947.05"/><polygon class="cls-2" points="170.21 947.05 232.79 997.72 357.95 925.35 295.48 874.61 170.21 947.05"/><line class="cls-3" x1="289.25" y1="878.21" x2="351.78" y2="928.91"/><line class="cls-3" x1="176.55" y1="943.38" x2="239.02" y2="994.11"/><line class="cls-3" x1="182.81" y1="939.77" x2="245.29" y2="990.4"/><line class="cls-3" x1="189.06" y1="936.15" x2="251.55" y2="986.87"/><line class="cls-3" x1="195.32" y1="932.53" x2="257.95" y2="983.17"/><line class="cls-3" x1="201.59" y1="928.93" x2="264.08" y2="979.62"/><line class="cls-3" x1="207.79" y1="925.35" x2="270.46" y2="975.94"/><line class="cls-3" x1="214.08" y1="921.68" x2="276.61" y2="972.38"/><line class="cls-3" x1="220.23" y1="918.12" x2="282.87" y2="968.76"/><line class="cls-3" x1="227.22" y1="914.45" x2="289.14" y2="965.13"/><line class="cls-3" x1="233.18" y1="910.63" x2="295.48" y2="961.47"/><line class="cls-3" x1="239.12" y1="907.27" x2="301.67" y2="957.89"/><line class="cls-3" x1="245.36" y1="903.6" x2="307.99" y2="954.27"/><line class="cls-3" x1="251.61" y1="899.98" x2="314.24" y2="950.64"/><line class="cls-3" x1="257.95" y1="896.36" x2="320.55" y2="947.05"/><line class="cls-3" x1="264.33" y1="892.92" x2="326.66" y2="943.44"/><line class="cls-3" x1="270.46" y1="889.19" x2="332.99" y2="939.79"/><line class="cls-3" x1="276.67" y1="885.64" x2="339.25" y2="936.16"/><line class="cls-3" x1="282.87" y1="881.9" x2="345.43" y2="932.58"/><line class="cls-3" x1="175.35" y1="951.21" x2="300.69" y2="878.84"/><line class="cls-3" x1="180.56" y1="955.44" x2="305.78" y2="883.13"/><line class="cls-3" x1="185.78" y1="959.66" x2="311.1" y2="887.3"/><line class="cls-3" x1="190.99" y1="963.88" x2="316.31" y2="891.52"/><line class="cls-3" x1="196.21" y1="968.1" x2="321.51" y2="895.75"/><line class="cls-3" x1="201.53" y1="972.27" x2="326.66" y2="900.02"/><line class="cls-3" x1="206.64" y1="976.55" x2="331.93" y2="904.21"/><line class="cls-3" x1="211.86" y1="980.77" x2="337.13" y2="908.44"/><line class="cls-3" x1="217.1" y1="985.01" x2="342.34" y2="912.66"/><line class="cls-3" x1="222.29" y1="989.22" x2="347.54" y2="916.89"/><line class="cls-3" x1="227.5" y1="993.44" x2="352.75" y2="921.12"/><polyline class="cls-2" points="16.62 1048.18 16.69 1068.18 19.82 1069.99 22.95 1068.18 22.95 1053.06"/><line class="cls-2" x1="19.82" y1="1069.99" x2="19.82" y2="1050.65"/><polyline class="cls-2" points="98.08 1089.88 98.08 1100.73 101.21 1102.54 104.34 1100.73 104.34 1086.27"/><line class="cls-2" x1="101.21" y1="1102.54" x2="101.21" y2="1088.08"/><polyline class="cls-2" points="204.48 1028.39 204.48 1039.28 207.61 1041.09 210.74 1039.28 210.74 1024.78"/><line class="cls-2" x1="207.61" y1="1041.09" x2="207.61" y2="1026.58"/><polyline class="cls-2" points="154.46 1057.33 154.46 1068.26 157.59 1070.07 160.72 1068.26 160.72 1053.71"/><line class="cls-2" x1="157.59" y1="1070.07" x2="157.59" y2="1055.58"/><polygon class="cls-2" points="82.44 1091.74 7.25 1033.81 7.25 1033.81 145.06 954.24 220.14 1012.16 220.14 1012.17 82.44 1091.74"/><polygon class="cls-2" points="7.24 1033.81 7.32 1041.01 82.42 1098.92 82.42 1098.92 82.44 1091.74 7.25 1033.81 7.24 1033.81"/><polygon class="cls-2" points="82.42 1098.92 82.44 1091.74 220.14 1012.17 220.14 1012.17 220.23 1019.35 82.42 1098.92 82.42 1098.92"/><polygon class="cls-2" points="13.51 1033.87 82.42 1088.07 213.97 1012.12 145.06 957.86 13.51 1033.87"/><polygon class="cls-2" points="19.86 1033.87 82.44 1084.53 207.61 1012.17 145.14 961.43 19.86 1033.87"/><line class="cls-3" x1="138.91" y1="965.03" x2="201.44" y2="1015.73"/><line class="cls-3" x1="26.21" y1="1030.2" x2="88.68" y2="1080.93"/><line class="cls-3" x1="32.46" y1="1026.58" x2="94.94" y2="1077.22"/><line class="cls-3" x1="38.72" y1="1022.97" x2="101.21" y2="1073.68"/><line class="cls-3" x1="44.97" y1="1019.35" x2="107.6" y2="1069.99"/><line class="cls-3" x1="51.25" y1="1015.75" x2="113.74" y2="1066.44"/><line class="cls-3" x1="57.44" y1="1012.17" x2="120.11" y2="1062.75"/><line class="cls-3" x1="63.74" y1="1008.5" x2="126.27" y2="1059.2"/><line class="cls-3" x1="69.89" y1="1004.94" x2="132.53" y2="1055.57"/><line class="cls-3" x1="76.88" y1="1001.26" x2="138.79" y2="1051.95"/><line class="cls-3" x1="82.84" y1="997.45" x2="145.14" y2="1048.29"/><line class="cls-3" x1="88.78" y1="994.09" x2="151.32" y2="1044.71"/><line class="cls-3" x1="95.01" y1="990.41" x2="157.65" y2="1041.09"/><line class="cls-3" x1="101.27" y1="986.8" x2="163.9" y2="1037.46"/><line class="cls-3" x1="107.6" y1="983.18" x2="170.21" y2="1033.87"/><line class="cls-3" x1="113.99" y1="979.73" x2="176.32" y2="1030.26"/><line class="cls-3" x1="120.11" y1="976.01" x2="182.65" y2="1026.61"/><line class="cls-3" x1="126.33" y1="972.46" x2="188.91" y2="1022.98"/><line class="cls-3" x1="132.53" y1="968.72" x2="195.09" y2="1019.4"/><line class="cls-3" x1="25" y1="1038.03" x2="150.35" y2="965.66"/><line class="cls-3" x1="30.22" y1="1042.25" x2="155.44" y2="969.95"/><line class="cls-3" x1="35.44" y1="1046.48" x2="160.76" y2="974.11"/><line class="cls-3" x1="40.65" y1="1050.7" x2="165.96" y2="978.34"/><line class="cls-3" x1="45.87" y1="1054.92" x2="171.17" y2="982.57"/><line class="cls-3" x1="51.19" y1="1059.08" x2="176.32" y2="986.83"/><line class="cls-3" x1="56.3" y1="1063.37" x2="181.58" y2="991.03"/><line class="cls-3" x1="61.51" y1="1067.59" x2="186.79" y2="995.26"/><line class="cls-3" x1="66.76" y1="1071.83" x2="191.99" y2="999.48"/><line class="cls-3" x1="71.94" y1="1076.03" x2="197.2" y2="1003.71"/><line class="cls-3" x1="77.16" y1="1080.26" x2="202.41" y2="1007.94"/><polyline class="cls-2" points="455.01 954.12 455.08 974.12 458.21 975.93 461.35 974.12 461.35 959"/><line class="cls-2" x1="458.21" y1="975.93" x2="458.21" y2="956.58"/><polyline class="cls-2" points="536.47 995.82 536.47 1006.67 539.61 1008.48 542.74 1006.67 542.74 992.21"/><line class="cls-2" x1="539.6" y1="1008.48" x2="539.6" y2="994.01"/><polyline class="cls-2" points="642.87 934.33 642.87 945.22 646 947.03 649.14 945.22 649.14 930.71"/><line class="cls-2" x1="646" y1="947.03" x2="646" y2="932.52"/><polyline class="cls-2" points="592.85 963.27 592.85 974.2 595.98 976 599.12 974.2 599.12 959.65"/><line class="cls-2" x1="595.98" y1="976" x2="595.98" y2="961.52"/><polygon class="cls-2" points="520.84 997.68 445.64 939.75 445.64 939.75 583.46 860.18 658.53 918.1 658.53 918.1 520.84 997.68"/><polygon class="cls-2" points="445.64 939.75 445.72 946.95 520.81 1004.86 520.81 1004.86 520.84 997.68 445.64 939.75 445.64 939.75"/><polygon class="cls-2" points="520.81 1004.86 520.84 997.68 658.53 918.1 658.53 918.11 658.63 925.29 520.82 1004.86 520.81 1004.86"/><polygon class="cls-2" points="451.9 939.81 520.81 994.01 652.36 918.05 583.45 863.8 451.9 939.81"/><polygon class="cls-2" points="458.26 939.81 520.84 990.47 646 918.1 583.53 867.37 458.26 939.81"/><line class="cls-3" x1="577.3" y1="870.97" x2="639.83" y2="921.67"/><line class="cls-3" x1="464.61" y1="936.14" x2="527.08" y2="986.87"/><line class="cls-3" x1="470.86" y1="932.52" x2="533.34" y2="983.16"/><line class="cls-3" x1="477.12" y1="928.9" x2="539.6" y2="979.62"/><line class="cls-3" x1="483.37" y1="925.29" x2="546" y2="975.93"/><line class="cls-3" x1="489.65" y1="921.69" x2="552.13" y2="972.38"/><line class="cls-3" x1="495.84" y1="918.1" x2="558.51" y2="968.69"/><line class="cls-3" x1="502.13" y1="914.44" x2="564.66" y2="965.13"/><line class="cls-3" x1="508.28" y1="910.88" x2="570.93" y2="961.51"/><line class="cls-3" x1="515.27" y1="907.2" x2="577.19" y2="957.89"/><line class="cls-3" x1="521.24" y1="903.39" x2="583.53" y2="954.22"/><line class="cls-3" x1="527.18" y1="900.03" x2="589.72" y2="950.65"/><line class="cls-3" x1="533.41" y1="896.35" x2="596.04" y2="947.02"/><line class="cls-3" x1="539.66" y1="892.73" x2="602.29" y2="943.4"/><line class="cls-3" x1="546" y1="889.12" x2="608.6" y2="939.81"/><line class="cls-3" x1="552.38" y1="885.67" x2="614.71" y2="936.2"/><line class="cls-3" x1="558.51" y1="881.95" x2="621.04" y2="932.55"/><line class="cls-3" x1="564.73" y1="878.39" x2="627.31" y2="928.91"/><line class="cls-3" x1="570.93" y1="874.65" x2="633.49" y2="925.34"/><line class="cls-3" x1="463.4" y1="943.97" x2="588.74" y2="871.6"/><line class="cls-3" x1="468.62" y1="948.19" x2="593.83" y2="875.89"/><line class="cls-3" x1="473.83" y1="952.42" x2="599.15" y2="880.05"/><line class="cls-3" x1="479.05" y1="956.64" x2="604.36" y2="884.28"/><line class="cls-3" x1="484.26" y1="960.86" x2="609.57" y2="888.51"/><line class="cls-3" x1="489.58" y1="965.02" x2="614.71" y2="892.77"/><line class="cls-3" x1="494.69" y1="969.3" x2="619.98" y2="896.97"/><line class="cls-3" x1="499.91" y1="973.53" x2="625.18" y2="901.19"/><line class="cls-3" x1="505.15" y1="977.77" x2="630.39" y2="905.42"/><line class="cls-3" x1="510.34" y1="981.97" x2="635.6" y2="909.65"/><line class="cls-3" x1="515.56" y1="986.19" x2="640.8" y2="913.88"/><polyline class="cls-2" points="304.67 1040.92 304.74 1060.93 307.87 1062.73 311 1060.93 311 1045.81"/><line class="cls-2" x1="307.87" y1="1062.73" x2="307.87" y2="1043.39"/><polyline class="cls-2" points="386.13 1082.63 386.13 1093.48 389.26 1095.29 392.39 1093.48 392.39 1079.01"/><line class="cls-2" x1="389.26" y1="1095.29" x2="389.26" y2="1080.82"/><polyline class="cls-2" points="492.53 1021.14 492.53 1032.03 495.66 1033.84 498.79 1032.03 498.79 1017.52"/><line class="cls-2" x1="495.66" y1="1033.84" x2="495.66" y2="1019.33"/><polyline class="cls-2" points="442.51 1050.08 442.51 1061.01 445.64 1062.81 448.77 1061.01 448.77 1046.46"/><line class="cls-2" x1="445.64" y1="1062.81" x2="445.64" y2="1048.33"/><polygon class="cls-2" points="370.5 1084.49 295.3 1026.56 295.3 1026.56 433.11 946.99 508.19 1004.91 508.19 1004.91 370.5 1084.49"/><polygon class="cls-2" points="295.3 1026.56 295.37 1033.75 370.47 1091.67 370.47 1091.67 370.5 1084.49 295.3 1026.56 295.3 1026.56"/><polygon class="cls-2" points="370.47 1091.67 370.5 1084.49 508.19 1004.91 508.19 1004.91 508.28 1012.1 370.47 1091.67 370.47 1091.67"/><polygon class="cls-2" points="301.56 1026.62 370.47 1080.82 502.02 1004.86 433.11 950.61 301.56 1026.62"/><polygon class="cls-2" points="307.92 1026.62 370.5 1077.28 495.66 1004.91 433.19 954.17 307.92 1026.62"/><line class="cls-3" x1="426.96" y1="957.78" x2="489.49" y2="1008.48"/><line class="cls-3" x1="314.26" y1="1022.95" x2="376.73" y2="1073.68"/><line class="cls-3" x1="320.52" y1="1019.33" x2="383" y2="1069.97"/><line class="cls-3" x1="326.77" y1="1015.71" x2="389.26" y2="1066.43"/><line class="cls-3" x1="333.03" y1="1012.1" x2="395.65" y2="1062.73"/><line class="cls-3" x1="339.3" y1="1008.5" x2="401.79" y2="1059.19"/><line class="cls-3" x1="345.5" y1="1004.91" x2="408.17" y2="1055.5"/><line class="cls-3" x1="351.79" y1="1001.25" x2="414.32" y2="1051.94"/><line class="cls-3" x1="357.94" y1="997.69" x2="420.58" y2="1048.32"/><line class="cls-3" x1="364.93" y1="994.01" x2="426.85" y2="1044.7"/><line class="cls-3" x1="370.89" y1="990.2" x2="433.19" y2="1041.03"/><line class="cls-3" x1="376.83" y1="986.83" x2="439.38" y2="1037.46"/><line class="cls-3" x1="383.06" y1="983.16" x2="445.7" y2="1033.83"/><line class="cls-3" x1="389.32" y1="979.54" x2="451.95" y2="1030.21"/><line class="cls-3" x1="395.65" y1="975.93" x2="458.26" y2="1026.62"/><line class="cls-3" x1="402.04" y1="972.48" x2="464.37" y2="1023.01"/><line class="cls-3" x1="408.17" y1="968.76" x2="470.7" y2="1019.36"/><line class="cls-3" x1="414.38" y1="965.2" x2="476.96" y2="1015.72"/><line class="cls-3" x1="420.58" y1="961.46" x2="483.14" y2="1012.14"/><line class="cls-3" x1="313.06" y1="1030.78" x2="438.4" y2="958.4"/><line class="cls-3" x1="318.27" y1="1035" x2="443.49" y2="962.7"/><line class="cls-3" x1="323.49" y1="1039.22" x2="448.81" y2="966.86"/><line class="cls-3" x1="328.7" y1="1043.45" x2="454.02" y2="971.09"/><line class="cls-3" x1="333.92" y1="1047.67" x2="459.22" y2="975.32"/><line class="cls-3" x1="339.24" y1="1051.83" x2="464.37" y2="979.58"/><line class="cls-3" x1="344.35" y1="1056.11" x2="469.63" y2="983.77"/><line class="cls-3" x1="349.57" y1="1060.34" x2="474.84" y2="988"/><line class="cls-3" x1="354.81" y1="1064.58" x2="480.04" y2="992.23"/><line class="cls-3" x1="360" y1="1068.78" x2="485.25" y2="996.46"/><line class="cls-3" x1="365.21" y1="1073" x2="490.46" y2="1000.69"/><polyline class="cls-2" points="154.33 1127.74 154.39 1147.74 157.53 1149.55 160.66 1147.74 160.66 1132.63"/><line class="cls-2" x1="157.53" y1="1149.55" x2="157.53" y2="1130.21"/><polyline class="cls-2" points="235.78 1169.45 235.78 1180.3 238.92 1182.11 242.05 1180.3 242.05 1165.83"/><line class="cls-2" x1="238.92" y1="1182.11" x2="238.92" y2="1167.64"/><polyline class="cls-2" points="342.18 1107.96 342.18 1118.85 345.32 1120.66 348.45 1118.85 348.45 1104.34"/><line class="cls-2" x1="345.32" y1="1120.66" x2="345.32" y2="1106.15"/><polyline class="cls-2" points="292.16 1136.89 292.16 1147.82 295.3 1149.63 298.43 1147.82 298.43 1133.28"/><line class="cls-2" x1="295.3" y1="1149.63" x2="295.3" y2="1135.14"/><polygon class="cls-2" points="220.15 1171.31 144.95 1113.38 144.95 1113.38 282.77 1033.81 357.85 1091.73 357.85 1091.73 220.15 1171.31"/><polygon class="cls-2" points="144.95 1113.38 145.03 1120.57 220.12 1178.49 220.13 1178.49 220.15 1171.31 144.95 1113.38 144.95 1113.38"/><polygon class="cls-2" points="220.13 1178.49 220.15 1171.31 357.85 1091.73 357.85 1091.73 357.94 1098.91 220.13 1178.49 220.13 1178.49"/><polygon class="cls-2" points="151.22 1113.43 220.12 1167.64 351.68 1091.68 282.76 1037.42 151.22 1113.43"/><polygon class="cls-2" points="157.57 1113.43 220.15 1164.1 345.32 1091.73 282.85 1040.99 157.57 1113.43"/><line class="cls-3" x1="276.61" y1="1044.6" x2="339.15" y2="1095.3"/><line class="cls-3" x1="163.92" y1="1109.77" x2="226.39" y2="1160.49"/><line class="cls-3" x1="170.17" y1="1106.15" x2="232.65" y2="1156.79"/><line class="cls-3" x1="176.43" y1="1102.53" x2="238.92" y2="1153.25"/><line class="cls-3" x1="182.68" y1="1098.91" x2="245.31" y2="1149.55"/><line class="cls-3" x1="188.96" y1="1095.32" x2="251.45" y2="1146.01"/><line class="cls-3" x1="195.15" y1="1091.73" x2="257.82" y2="1142.32"/><line class="cls-3" x1="201.45" y1="1088.06" x2="263.97" y2="1138.76"/><line class="cls-3" x1="207.6" y1="1084.51" x2="270.24" y2="1135.14"/><line class="cls-3" x1="214.59" y1="1080.83" x2="276.5" y2="1131.52"/><line class="cls-3" x1="220.55" y1="1077.02" x2="282.84" y2="1127.85"/><line class="cls-3" x1="226.49" y1="1073.65" x2="289.03" y2="1124.27"/><line class="cls-3" x1="232.72" y1="1069.98" x2="295.36" y2="1120.65"/><line class="cls-3" x1="238.97" y1="1066.36" x2="301.6" y2="1117.02"/><line class="cls-3" x1="245.31" y1="1062.74" x2="307.92" y2="1113.44"/><line class="cls-3" x1="251.7" y1="1059.3" x2="314.02" y2="1109.82"/><line class="cls-3" x1="257.82" y1="1055.58" x2="320.35" y2="1106.17"/><line class="cls-3" x1="264.04" y1="1052.02" x2="326.62" y2="1102.54"/><line class="cls-3" x1="270.24" y1="1048.28" x2="332.8" y2="1098.96"/><line class="cls-3" x1="162.71" y1="1117.6" x2="288.05" y2="1045.22"/><line class="cls-3" x1="167.93" y1="1121.82" x2="293.15" y2="1049.52"/><line class="cls-3" x1="173.14" y1="1126.04" x2="298.47" y2="1053.68"/><line class="cls-3" x1="178.36" y1="1130.26" x2="303.67" y2="1057.91"/><line class="cls-3" x1="183.57" y1="1134.49" x2="308.88" y2="1062.14"/><line class="cls-3" x1="188.9" y1="1138.65" x2="314.02" y2="1066.4"/><line class="cls-3" x1="194.01" y1="1142.93" x2="319.29" y2="1070.59"/><line class="cls-3" x1="199.22" y1="1147.15" x2="324.5" y2="1074.82"/><line class="cls-3" x1="204.46" y1="1151.4" x2="329.7" y2="1079.05"/><line class="cls-3" x1="209.65" y1="1155.6" x2="334.91" y2="1083.28"/><line class="cls-3" x1="214.87" y1="1159.82" x2="340.11" y2="1087.51"/><polygon class="cls-2" points="1059.24 1314.16 1066.96 1309.7 1375.7 1487.95 1367.97 1492.42 1059.24 1314.16"/><polyline class="cls-2" points="1001.36 1327.48 1001.36 1329.79 877.87 1401.09 831.56 1374.35 831.56 1372.04"/><polyline class="cls-2" points="955.05 1300.78 831.56 1372.04 831.56 1372.05 877.87 1398.78 1001.36 1327.48 1001.36 1327.48 955.05 1300.78"/><line class="cls-2" x1="877.87" y1="1401.09" x2="877.87" y2="1398.78"/><polyline class="cls-2" points="877.87 1151.57 877.87 1365.48 893.3 1374.4 955.05 1338.74 955.05 1124.83"/><line class="cls-2" x1="893.3" y1="1160.48" x2="893.3" y2="1374.4"/><polygon class="cls-2" points="908.74 1169.39 939.61 1151.57 939.61 1205.05 908.74 1222.87 908.74 1169.39"/><polyline class="cls-2" points="924.18 1160.48 924.18 1196.13 908.74 1205.05"/><line class="cls-2" x1="924.18" y1="1196.13" x2="939.61" y2="1205.05"/><polygon class="cls-2" points="881.73 1171.62 889.44 1176.08 889.44 1193.91 881.73 1189.45 881.73 1171.62"/><polygon class="cls-2" points="908.74 1240.7 908.74 1258.53 939.61 1240.7 939.61 1222.87 908.74 1240.7"/><polyline class="cls-2" points="908.74 1255.39 935.91 1239.7 929.66 1228.62"/><polygon class="cls-2" points="908.74 1276.35 908.74 1312.01 939.61 1294.18 939.61 1258.53 908.74 1276.35"/><line class="cls-2" x1="908.74" y1="1294.18" x2="939.61" y2="1276.35"/><line class="cls-2" x1="924.18" y1="1267.44" x2="924.18" y2="1303.09"/><line class="cls-2" x1="921.56" y1="1268.95" x2="921.56" y2="1286.78"/><polygon class="cls-2" points="911.35 1295.69 921.56 1289.79 921.56 1301.58 911.35 1307.48 911.35 1295.69"/><polygon class="cls-2" points="926.86 1286.81 936.93 1280.99 936.93 1292.63 926.86 1298.45 926.86 1286.81"/><line class="cls-2" x1="926.85" y1="1266.01" x2="926.85" y2="1283.84"/><line class="cls-2" x1="931.89" y1="1227.33" x2="939.61" y2="1240.7"/><line class="cls-2" x1="921.56" y1="1268.95" x2="921.56" y2="1286.78"/><polygon class="cls-2" points="877.87 1151.57 893.3 1160.48 955.04 1124.83 955.04 1124.83 939.61 1115.92 877.87 1151.57 877.87 1151.57"/><ellipse class="cls-2" cx="932.13" cy="1289.73" rx="4.33" ry="2.49" transform="translate(-656.38 1384.02) rotate(-57.54)"/><polyline class="cls-2" points="929.81 1293.37 937.4 1298.21 942.05 1290.9 934.6 1286.16"/><ellipse class="cls-2" cx="939.72" cy="1294.56" rx="4.33" ry="2.49" transform="translate(-656.94 1392.66) rotate(-57.54)"/><polygon class="cls-2" points="884.02 1178.25 887.15 1180.06 887.15 1187.28 884.02 1185.47 884.02 1178.25"/><path class="cls-2" d="M996.13,1458v31.32l19-10.94a16.35,16.35,0,0,0,8.17-14.15v-21.89"/><ellipse class="cls-2" cx="990.16" cy="1466.67" rx="17.63" ry="23.83" transform="translate(-212.81 168.82) rotate(-8.8)"/><ellipse class="cls-2" cx="990.16" cy="1466.67" rx="9.79" ry="13.24" transform="translate(-212.81 168.82) rotate(-8.8)"/><path class="cls-2" d="M1103.57,1519.56v31.33l19-11a16.33,16.33,0,0,0,8.17-14.15V1503.9"/><ellipse class="cls-2" cx="1097.6" cy="1528.21" rx="17.63" ry="23.83" transform="translate(-220.96 185.99) rotate(-8.8)"/><ellipse class="cls-2" cx="1097.6" cy="1528.21" rx="9.79" ry="13.24" transform="translate(-220.96 185.99) rotate(-8.8)"/><path class="cls-2" d="M1055.51,1328.79l-22.07-12.74a34.34,34.34,0,0,0-34.51.1l-44.43,26a39.72,39.72,0,0,0-19.65,33.41l-.87,39.67,40.15,23.18h0a26.07,26.07,0,0,1,37.6,13.86l3.51,9.88,67.39,38.91h0a26,26,0,0,1,37.51,13.89l3.42,9.74,54.4,31.41,80.76-47.34,13.78-23.36"/><path class="cls-2" d="M1218.25,1422.76l27.12,15.66a54.25,54.25,0,0,1,27.13,47h0l-81.37,47L934.66,1384.31"/><path class="cls-2" d="M1178,1556.11l13.17-23.72h0a54.27,54.27,0,0,0-27.13-47l-27.12-15.66"/><path class="cls-2" d="M1001.26,1422.76v-4a24.79,24.79,0,0,1,37.19-21.47l30.62,17.68a81.39,81.39,0,0,1,40.68,70.48h0"/><line class="cls-2" x1="1055.51" y1="1407.1" x2="1055.51" y2="1485.41"/><path class="cls-2" d="M1164,1505.27h0l7.77,5.21a25.21,25.21,0,0,0,25.16,1.7h0a25.16,25.16,0,0,0,14-22.57h0l-27.12,15.66-9.93-5.74A6.62,6.62,0,0,0,1164,1505.27Z"/><path class="cls-2" d="M1265.23,1458.28l-26.76,15.64h0a25.15,25.15,0,0,0,26.57-1.09h0a25.32,25.32,0,0,0,4.78-4.25A58.32,58.32,0,0,0,1265.23,1458.28Z"/><path class="cls-2" d="M974.13,1407.1v-12.37a32.82,32.82,0,0,1,16.42-28.43l69.7-40.24a44.74,44.74,0,0,1,44.76,0l39.13,22.59a202.46,202.46,0,0,1,74.11,74.11h0l-81.37,47h0a202.46,202.46,0,0,0-74.11-74.11l-61.51-35.51"/><line class="cls-2" x1="1183.86" y1="1505.26" x2="1265.23" y2="1458.28"/><line class="cls-2" x1="1103.24" y1="1426.52" x2="1184.71" y2="1379.48"/><line class="cls-2" x1="974.13" y1="1407.1" x2="1191.13" y2="1532.39"/><line class="cls-2" x1="940.35" y1="1356.27" x2="978.53" y2="1378.32"/><line class="cls-2" x1="1184.18" y1="1544.66" x2="1265.11" y2="1497.93"/><polygon class="cls-2" points="946.32 1391.18 959.88 1399.02 959.88 1414.68 946.32 1406.85 946.32 1391.18"/><ellipse class="cls-2" cx="952.97" cy="1402.77" rx="2.49" ry="4.33" transform="translate(-604 730.63) rotate(-32.46)"/><polyline class="cls-2" points="955.28 1406.41 947.7 1411.26 943.05 1403.95 950.5 1399.21"/><ellipse class="cls-2" cx="945.37" cy="1407.6" rx="2.49" ry="4.33" transform="translate(-607.78 727.31) rotate(-32.46)"/><path class="cls-1" d="M885.43,1182.77h0a46,46,0,0,0-23,39.83l0,68.74a101,101,0,0,0,36.39,77.6l46.36,38.57"/><path class="cls-1" d="M955.11,1249.59l3.37,9.16a27.18,27.18,0,0,1-19.24,35.81h0"/><polyline class="cls-2" points="1232.98 1193.82 1232.98 1196.13 1109.48 1267.44 1063.17 1240.7 1063.17 1238.39"/><polyline class="cls-2" points="1186.67 1167.12 1063.18 1238.38 1063.18 1238.39 1109.48 1265.13 1232.97 1193.82 1232.97 1193.82 1186.67 1167.12"/><line class="cls-2" x1="1109.48" y1="1267.44" x2="1109.48" y2="1265.13"/><polyline class="cls-2" points="1109.48 1017.91 1109.48 1231.83 1124.92 1240.74 1186.67 1205.09 1186.67 991.17"/><line class="cls-2" x1="1124.92" y1="1026.82" x2="1124.92" y2="1240.74"/><polygon class="cls-2" points="1140.36 1035.74 1171.23 1017.91 1171.23 1071.39 1140.36 1089.22 1140.36 1035.74"/><polyline class="cls-2" points="1155.79 1026.83 1155.79 1062.48 1140.36 1071.39"/><line class="cls-2" x1="1155.79" y1="1062.48" x2="1171.23" y2="1071.39"/><polygon class="cls-2" points="1113.34 1037.97 1121.06 1042.42 1121.06 1060.25 1113.34 1055.79 1113.34 1037.97"/><polygon class="cls-2" points="1140.36 1107.04 1140.36 1124.87 1171.23 1107.04 1171.23 1089.22 1140.36 1107.04"/><polyline class="cls-2" points="1140.36 1121.73 1167.53 1106.04 1161.28 1094.96"/><polygon class="cls-2" points="1140.36 1142.69 1140.36 1178.35 1171.23 1160.52 1171.23 1124.87 1140.36 1142.69"/><line class="cls-2" x1="1140.36" y1="1160.52" x2="1171.23" y2="1142.69"/><line class="cls-2" x1="1155.79" y1="1133.78" x2="1155.79" y2="1169.43"/><line class="cls-2" x1="1153.18" y1="1135.29" x2="1153.18" y2="1153.12"/><polygon class="cls-2" points="1142.97 1162.03 1153.18 1156.13 1153.18 1167.92 1142.97 1173.82 1142.97 1162.03"/><polygon class="cls-2" points="1158.47 1153.15 1168.55 1147.34 1168.55 1158.97 1158.47 1164.79 1158.47 1153.15"/><line class="cls-2" x1="1158.47" y1="1132.35" x2="1158.47" y2="1150.18"/><line class="cls-2" x1="1163.51" y1="1093.67" x2="1171.23" y2="1107.04"/><line class="cls-2" x1="1153.18" y1="1135.29" x2="1153.18" y2="1153.12"/><polygon class="cls-2" points="1109.49 1017.91 1124.92 1026.83 1186.66 991.17 1186.66 991.17 1171.23 982.26 1109.49 1017.91 1109.49 1017.91"/><ellipse class="cls-2" cx="1163.75" cy="1156.07" rx="4.33" ry="2.49" transform="translate(-436.3 1517.53) rotate(-57.54)"/><polyline class="cls-2" points="1161.43 1159.71 1169.02 1164.56 1173.67 1157.24 1166.22 1152.51"/><ellipse class="cls-2" cx="1171.34" cy="1160.9" rx="4.33" ry="2.49" transform="translate(-436.86 1526.17) rotate(-57.54)"/><polygon class="cls-2" points="1115.64 1044.59 1118.77 1046.4 1118.77 1053.62 1115.64 1051.82 1115.64 1044.59"/><path class="cls-2" d="M1332.11,1385.9v32l19.39-11.2a16.71,16.71,0,0,0,8.36-14.47v-22.39"/><ellipse class="cls-2" cx="1326" cy="1394.74" rx="18.03" ry="24.38" transform="translate(-197.84 219.37) rotate(-8.8)"/><ellipse class="cls-2" cx="1326" cy="1394.74" rx="10.02" ry="13.54" transform="translate(-197.84 219.37) rotate(-8.8)"/><path class="cls-2" d="M1220.44,1321.82v32l19.38-11.19a16.71,16.71,0,0,0,8.36-14.48V1305.8"/><ellipse class="cls-2" cx="1214.33" cy="1330.66" rx="18.03" ry="24.38" transform="translate(-189.35 201.53) rotate(-8.8)"/><ellipse class="cls-2" cx="1214.33" cy="1330.66" rx="10.02" ry="13.54" transform="translate(-189.35 201.53) rotate(-8.8)"/><path class="cls-2" d="M1448.23,1284.47l27.75,16a55.48,55.48,0,0,1,27.74,48.06h0l-83.23,48.06-249.71-144.18"/><path class="cls-2" d="M1503.72,1348.55l-13.87,24-83.24,48.06-55.49-32-3.38-9.78a26.47,26.47,0,0,0-38.24-14.25h0l-69.36-40-3.39-9.78a26.46,26.46,0,0,0-38.23-14.25h0l-27.74-16v-68.54a47.79,47.79,0,0,1,23.88-41.38l36.43-21a45.83,45.83,0,0,1,45.84,0l95.5,55.14a207.05,207.05,0,0,1,75.8,75.81h0L1365,1332.53h0a207.08,207.08,0,0,0-75.81-75.81l-112-64.68"/><line class="cls-2" x1="1330.69" y1="1288.25" x2="1413.93" y2="1240.19"/><path class="cls-2" d="M1365,1332.53l27.74,16a55.49,55.49,0,0,1,27.75,48.06h0l-13.88,24"/><line class="cls-2" x1="1413.05" y1="1368.86" x2="1496.29" y2="1320.8"/><path class="cls-2" d="M1198.52,1268.45v-23.87a14,14,0,0,1,21-12.09l62.28,36a83.25,83.25,0,0,1,41.62,72.09h0"/><path class="cls-2" d="M1392.74,1368.89h0l8,5.33a25.77,25.77,0,0,0,25.73,1.74h0a25.74,25.74,0,0,0,14.38-23.09h0l-27.75,16L1402.9,1363A6.77,6.77,0,0,0,1392.74,1368.89Z"/><path class="cls-2" d="M1496.29,1320.83l-27.37,16h0a25.72,25.72,0,0,0,27.17-1.13h0a25.42,25.42,0,0,0,4.9-4.34A59.44,59.44,0,0,0,1496.29,1320.83Z"/><line class="cls-2" x1="1254.01" y1="1252.43" x2="1254.01" y2="1332.53"/><line class="cls-2" x1="1170.78" y1="1252.43" x2="1420.49" y2="1396.61"/><line class="cls-2" x1="1420.49" y1="1396.61" x2="1503.72" y2="1348.55"/><polygon class="cls-2" points="1177.67 1256.65 1191.55 1264.66 1191.55 1280.68 1177.67 1272.67 1177.67 1256.65"/><ellipse class="cls-2" cx="1184.68" cy="1268.85" rx="2.49" ry="4.33" transform="translate(-495.92 834.07) rotate(-32.46)"/><polyline class="cls-2" points="1187 1272.49 1179.42 1277.34 1174.77 1270.03 1182.21 1265.29"/><ellipse class="cls-2" cx="1177.09" cy="1273.68" rx="2.49" ry="4.33" transform="translate(-499.7 830.75) rotate(-32.46)"/><path class="cls-1" d="M1117.05,1049.11h0a46,46,0,0,0-23,39.84v68.73a101,101,0,0,0,36.4,77.6l46.36,38.57"/><path class="cls-1" d="M1186.73,1115.93l3.36,9.16a27.18,27.18,0,0,1-19.23,35.81h0"/><path class="cls-1" d="M770,695.58l-2.35-4.38c-82,16.51-157.14,42.28-220.91,75.06l-6.68-7.56-11.76,26,40.34-13.42-15.07-2.44C616.05,736.85,689.39,711.73,770,695.58Z"/><path class="cls-1" d="M809.94,1464.18l-40-13.76,4.45,9c-213.33-28.9-385.85-118.94-459.08-236.36l-7.7,1.42c73.79,119.29,248.23,210.07,464.64,239.44l-7.4,7.06Z"/><path class="cls-1" d="M1529.87,1044.59l-23.69-23.18-12,26,13.18-5.18a220.42,220.42,0,0,1,5.81,50.2c0,51.31-18,100.2-50.49,144.68l7.25,2.08c33-45.11,51.31-94.7,51.31-146.76a223.27,223.27,0,0,0-5.73-50.2Z"/></svg>