<svg id="Final_Illustrations_copy" data-name="Final Illustrations copy" xmlns="http://www.w3.org/2000/svg" viewBox="0 0 2000 2000"><defs><style>.cls-1,.cls-2,.cls-3{fill:none;}.cls-1,.cls-2,.cls-3,.cls-4,.cls-5{stroke:#057adc;stroke-miterlimit:10;}.cls-2{stroke-dasharray:8;}.cls-3{stroke-width:3px;}.cls-4,.cls-5{fill:#181d28;}.cls-5{stroke-width:0.75px;}</style></defs><polyline class="cls-1" points="1406.96 434.44 1106.94 607.65 1318.72 729.94 1071.65 872.6 1548.15 1147.73 1724.72 1045.89 1512.85 923.55 1724.63 801.27"/><polyline class="cls-1" points="965.76 1219.06 1354.02 1443.24 1001.06 1647.04 612.8 1422.86 965.76 1219.06"/><polygon class="cls-1" points="683.4 1300.57 365.73 1117.08 577.45 994.85 895.16 1178.3 683.4 1300.57"/><polyline class="cls-1" points="1636.39 1524.96 1336.37 1351.51 1795.22 1086.58 1865.84 1127.35"/><polyline class="cls-1" points="1936.27 1086.52 1654.03 923.56 1795.22 842.04"/><polyline class="cls-1" points="401.03 1545.14 542.21 1463.62 771.64 1596.09 630.45 1677.61"/><polyline class="cls-1" points="1565.76 1565.52 1424.61 1484.07 1001.06 1728.57 842.23 1636.86 701.04 1718.37"/><polyline class="cls-1" points="153.96 1157.97 506.91 954.18 295.14 831.87 683.42 607.66 542.22 526.14"/><polyline class="cls-1" points="330.44 1504.38 612.8 1341.15 295.14 1157.85 224.55 1198.64"/><polyline class="cls-1" points="1335.5 394.19 1036.35 566.9 895.17 485.38 754.01 566.9 612.8 485.38"/><polygon class="cls-1" points="895.17 566.9 1177.54 729.94 718.75 994.85 436.37 831.84 895.17 566.9"/><polygon class="cls-1" points="1001.06 913.77 789.96 1035.66 1265.78 1310.34 1477.56 1188.55 1001.06 913.77"/><line class="cls-2" x1="524.56" y1="984.69" x2="189.25" y2="1178.3"/><line class="cls-2" x1="1759.92" y1="1066.21" x2="1301.07" y2="1331.15"/><polyline class="cls-2" points="1601.09 1545.14 365.73 831.85 895.14 526.14 1248.13 729.94 753.99 1015.26"/><polyline class="cls-2" points="1371.66 1473.81 1001.06 1687.8 577.51 1443.24"/><line class="cls-2" x1="1371.66" y1="414.06" x2="1071.65" y2="587.29"/><line class="cls-2" x1="1512.85" y1="1168.11" x2="1036.36" y2="892.98"/><polyline class="cls-2" points="1901.11 1106.97 1583.44 923.55 1760.09 821.56"/><line class="cls-2" x1="718.69" y1="587.28" x2="577.51" y2="505.76"/><line class="cls-2" x1="930.54" y1="1198.68" x2="365.73" y2="1524.76"/><line class="cls-2" x1="648.1" y1="1320.96" x2="330.44" y2="1137.54"/><line class="cls-2" x1="806.97" y1="1616.47" x2="665.75" y2="1698"/><polyline class="cls-3" points="674.57 1703.08 842.23 1606.28 1001.06 1697.99 1442.26 1443.24 965.76 1168.11 683.4 1331.11 312.79 1117.16 577.51 964.31 718.69 1045.83 1265.78 729.94 1054 607.66 1380.36 419.23"/><polyline class="cls-3" points="1362.84 408.96 1018.71 607.66 1230.48 729.94 718.69 1025.45 577.51 943.93 277.49 1117.16 683.4 1351.53 965.76 1188.49 1406.96 1443.24 1001.06 1677.61 842.23 1585.9 656.92 1692.89"/><polygon class="cls-1" points="310.01 807.27 320.44 801.25 330.88 807.27 320.44 813.3 310.01 807.27"/><polyline class="cls-1" points="351.75 963.96 330.88 891.66 330.88 807.27 320.44 795.22 310.01 807.27 310.01 891.66 289.14 963.96"/><line class="cls-1" x1="320.44" y1="795.22" x2="320.44" y2="982.04"/><polygon class="cls-1" points="310.01 819.36 320.44 813.33 330.88 819.36 320.44 825.38 310.01 819.36"/><polygon class="cls-1" points="310.01 891.66 320.44 885.63 330.88 891.66 320.44 897.69 310.01 891.66"/><polygon class="cls-1" points="310.01 831.41 320.44 825.38 330.88 831.41 320.44 837.43 310.01 831.41"/><polygon class="cls-1" points="310.01 843.53 320.44 837.5 330.88 843.53 320.44 849.55 310.01 843.53"/><polygon class="cls-1" points="310.01 855.51 320.44 849.48 330.88 855.51 320.44 861.53 310.01 855.51"/><polygon class="cls-1" points="310.01 867.56 320.44 861.53 330.88 867.56 320.44 873.59 310.01 867.56"/><polygon class="cls-1" points="310.01 879.61 320.44 873.59 330.88 879.61 320.44 885.63 310.01 879.61"/><polygon class="cls-1" points="320.44 897.69 305.66 906.72 320.44 915.76 335.22 906.72 320.44 897.69"/><polygon class="cls-1" points="330.88 819.36 325.66 810.28 320.44 825.38 315.16 810.28 310.01 819.36 315.22 804.29 320.44 813.33 325.66 804.26 330.88 819.36"/><polygon class="cls-1" points="330.88 831.41 325.66 822.34 320.44 837.43 315.16 822.34 310.01 831.41 315.22 816.35 320.44 825.38 325.66 816.31 330.88 831.41"/><polygon class="cls-1" points="330.88 843.48 325.66 834.4 320.44 849.5 315.16 834.4 310.01 843.48 315.22 828.41 320.44 837.45 325.66 828.38 330.88 843.48"/><polygon class="cls-1" points="330.88 855.53 325.66 846.45 320.44 861.55 315.16 846.45 310.01 855.53 315.22 840.46 320.44 849.5 325.66 840.43 330.88 855.53"/><polygon class="cls-1" points="330.88 867.58 325.66 858.5 320.44 873.6 315.16 858.5 310.01 867.58 315.22 852.51 320.44 861.55 325.66 852.48 330.88 867.58"/><polygon class="cls-1" points="330.88 879.63 325.66 870.55 320.44 885.65 315.16 870.55 310.01 879.63 315.22 864.57 320.44 873.6 325.66 864.53 330.88 879.63"/><polygon class="cls-1" points="330.88 891.68 325.66 882.61 320.44 897.7 315.16 882.61 310.01 891.68 315.22 876.62 320.44 885.65 325.66 876.58 330.88 891.68"/><polygon class="cls-1" points="320.44 915.76 299.57 927.81 320.44 939.86 341.31 927.81 320.44 915.76"/><polygon class="cls-1" points="335.22 906.72 325.66 894.67 320.44 915.76 315.22 894.67 305.66 906.72 315.25 888.63 320.44 897.7 325.69 888.63 335.22 906.72"/><polygon class="cls-1" points="341.31 927.81 328.27 911.24 320.44 939.86 312.62 911.24 299.57 927.81 313.06 902.2 320.44 915.76 327.82 902.2 341.31 927.81"/><polygon class="cls-1" points="350.26 958.8 330.88 933.84 320.44 976.01 310.01 933.84 290.63 958.8 310.01 921.79 320.44 939.86 330.88 921.79 350.26 958.8"/><polyline class="cls-1" points="283.92 963.71 283.92 964.5 289.14 967.52 294.35 964.5 294.35 963.71"/><polygon class="cls-1" points="289.14 960.7 283.92 963.71 283.92 963.72 289.14 966.73 294.35 963.72 294.35 963.71 289.14 960.7"/><line class="cls-1" x1="289.14" y1="967.52" x2="289.14" y2="966.73"/><polyline class="cls-1" points="346.53 963.57 346.53 964.36 351.75 967.37 356.96 964.36 356.96 963.57"/><polygon class="cls-1" points="351.75 960.55 346.53 963.57 346.53 963.57 351.75 966.58 356.96 963.57 356.96 963.57 351.75 960.55"/><line class="cls-1" x1="351.75" y1="967.37" x2="351.75" y2="966.58"/><polyline class="cls-1" points="315.22 981.64 315.22 982.43 320.44 985.45 325.66 982.43 325.66 981.64"/><polygon class="cls-1" points="320.44 978.63 315.23 981.64 315.23 981.64 320.44 984.66 325.66 981.64 325.66 981.64 320.44 978.63"/><line class="cls-1" x1="320.44" y1="985.45" x2="320.44" y2="984.66"/><polyline class="cls-1" points="315.22 945.72 315.22 946.51 320.44 949.52 325.66 946.51 325.66 945.72"/><polygon class="cls-1" points="320.44 942.71 315.23 945.72 315.23 945.72 320.44 948.73 325.66 945.72 325.66 945.72 320.44 942.71"/><line class="cls-1" x1="320.44" y1="949.52" x2="320.44" y2="948.73"/><polyline class="cls-1" points="299.57 831.41 320.44 825.38 330.88 819.36 341.37 807.28 341.37 807.27 299.58 831.41 299.57 831.4 310.01 819.36 320.44 813.33 341.37 807.27"/><line class="cls-1" x1="341.37" y1="807.27" x2="341.37" y2="813.3"/><line class="cls-1" x1="299.57" y1="837.5" x2="299.58" y2="831.41"/><polyline class="cls-1" points="299.54 879.56 320.41 873.53 330.85 867.51 341.34 855.43 341.34 855.42 299.55 879.55 299.54 879.55 309.98 867.51 320.41 861.48 341.34 855.42"/><line class="cls-1" x1="341.34" y1="861.45" x2="341.34" y2="855.42"/><line class="cls-1" x1="299.54" y1="885.65" x2="299.55" y2="879.56"/><polyline class="cls-1" points="351.75 825.38 320.44 837.43 310.01 843.48 289.14 861.5 351.75 825.38 330.88 843.48 320.44 849.5 289.14 861.5"/><line class="cls-1" x1="289.14" y1="867.56" x2="289.14" y2="861.42"/><line class="cls-1" x1="351.75" y1="831.41" x2="351.75" y2="825.28"/><polygon class="cls-1" points="518.71 927.78 529.14 921.75 539.58 927.78 529.14 933.8 518.71 927.78"/><polyline class="cls-1" points="560.45 1084.47 539.58 1012.16 539.58 927.78 529.14 915.73 518.71 927.78 518.71 1012.16 497.84 1084.47"/><line class="cls-1" x1="529.14" y1="915.73" x2="529.14" y2="1102.54"/><polygon class="cls-1" points="518.71 939.86 529.14 933.84 539.58 939.86 529.14 945.89 518.71 939.86"/><polygon class="cls-1" points="518.71 1012.16 529.14 1006.14 539.58 1012.16 529.14 1018.19 518.71 1012.16"/><polygon class="cls-1" points="518.71 951.91 529.14 945.89 539.58 951.91 529.14 957.94 518.71 951.91"/><polygon class="cls-1" points="518.71 964.03 529.14 958.01 539.58 964.03 529.14 970.06 518.71 964.03"/><polygon class="cls-1" points="518.71 976.01 529.14 969.99 539.58 976.01 529.14 982.04 518.71 976.01"/><polygon class="cls-1" points="518.71 988.06 529.14 982.04 539.58 988.06 529.14 994.09 518.71 988.06"/><polygon class="cls-1" points="518.71 1000.12 529.14 994.09 539.58 1000.12 529.14 1006.14 518.71 1000.12"/><polygon class="cls-1" points="529.14 1018.19 514.36 1027.23 529.14 1036.27 543.93 1027.23 529.14 1018.19"/><polygon class="cls-1" points="539.58 939.86 534.36 930.79 529.14 945.89 523.87 930.79 518.71 939.86 523.93 924.8 529.14 933.84 534.36 924.76 539.58 939.86"/><polygon class="cls-1" points="539.58 951.91 534.36 942.84 529.14 957.94 523.87 942.84 518.71 951.91 523.93 936.85 529.14 945.89 534.36 936.82 539.58 951.91"/><polygon class="cls-1" points="539.58 963.98 534.36 954.91 529.14 970.01 523.87 954.91 518.71 963.98 523.93 948.92 529.14 957.96 534.36 948.88 539.58 963.98"/><polygon class="cls-1" points="539.58 976.03 534.36 966.96 529.14 982.06 523.87 966.96 518.71 976.03 523.93 960.97 529.14 970.01 534.36 960.93 539.58 976.03"/><polygon class="cls-1" points="539.58 988.08 534.36 979.01 529.14 994.11 523.87 979.01 518.71 988.08 523.93 973.02 529.14 982.06 534.36 972.98 539.58 988.08"/><polygon class="cls-1" points="539.58 1000.13 534.36 991.06 529.14 1006.16 523.87 991.06 518.71 1000.13 523.93 985.07 529.14 994.11 534.36 985.03 539.58 1000.13"/><polygon class="cls-1" points="539.58 1012.18 534.36 1003.11 529.14 1018.21 523.87 1003.11 518.71 1012.18 523.93 997.12 529.14 1006.16 534.36 997.09 539.58 1012.18"/><polygon class="cls-1" points="529.14 1036.27 508.27 1048.32 529.14 1060.37 550.01 1048.32 529.14 1036.27"/><polygon class="cls-1" points="543.93 1027.23 534.36 1015.18 529.14 1036.27 523.93 1015.18 514.36 1027.23 523.96 1009.13 529.14 1018.21 534.39 1009.13 543.93 1027.23"/><polygon class="cls-1" points="550.01 1048.32 536.97 1031.75 529.14 1060.37 521.32 1031.75 508.27 1048.32 521.77 1022.7 529.14 1036.27 536.52 1022.7 550.01 1048.32"/><polygon class="cls-1" points="558.96 1079.3 539.58 1054.34 529.14 1096.52 518.71 1054.34 499.33 1079.3 518.71 1042.29 529.14 1060.37 539.58 1042.29 558.96 1079.3"/><polyline class="cls-1" points="492.62 1084.22 492.62 1085.01 497.84 1088.02 503.06 1085.01 503.06 1084.22"/><polygon class="cls-1" points="497.84 1081.21 492.62 1084.22 492.62 1084.22 497.84 1087.23 503.06 1084.22 503.06 1084.22 497.84 1081.21"/><line class="cls-1" x1="497.84" y1="1088.02" x2="497.84" y2="1087.23"/><polyline class="cls-1" points="555.23 1084.07 555.23 1084.86 560.45 1087.88 565.67 1084.86 565.67 1084.07"/><polygon class="cls-1" points="560.45 1081.06 555.23 1084.07 555.23 1084.07 560.45 1087.09 565.66 1084.07 565.66 1084.07 560.45 1081.06"/><line class="cls-1" x1="560.45" y1="1087.88" x2="560.45" y2="1087.09"/><polyline class="cls-1" points="523.93 1102.15 523.93 1102.94 529.14 1105.95 534.36 1102.94 534.36 1102.15"/><polygon class="cls-1" points="529.14 1099.14 523.93 1102.15 523.93 1102.15 529.14 1105.16 534.36 1102.15 534.36 1102.15 529.14 1099.14"/><line class="cls-1" x1="529.14" y1="1105.95" x2="529.14" y2="1105.16"/><polyline class="cls-1" points="523.93 1066.22 523.93 1067.01 529.14 1070.03 534.36 1067.01 534.36 1066.22"/><polygon class="cls-1" points="529.14 1063.21 523.93 1066.22 523.93 1066.22 529.14 1069.24 534.36 1066.22 534.36 1066.22 529.14 1063.21"/><line class="cls-1" x1="529.14" y1="1070.03" x2="529.14" y2="1069.24"/><polyline class="cls-1" points="508.27 951.91 529.14 945.89 539.58 939.86 550.07 927.78 550.07 927.78 508.28 951.91 508.28 951.91 518.71 939.86 529.14 933.84 550.08 927.78"/><line class="cls-1" x1="550.07" y1="933.8" x2="550.07" y2="927.78"/><line class="cls-1" x1="508.27" y1="958.01" x2="508.28" y2="951.91"/><polyline class="cls-1" points="508.24 1000.06 529.11 994.04 539.55 988.01 550.04 975.93 550.04 975.93 508.25 1000.06 508.25 1000.06 518.68 988.01 529.11 981.99 550.04 975.93"/><line class="cls-1" x1="550.04" y1="981.95" x2="550.04" y2="975.93"/><line class="cls-1" x1="508.24" y1="1006.16" x2="508.25" y2="1000.06"/><polyline class="cls-1" points="560.45 945.89 529.14 957.94 518.71 963.98 497.84 982.01 560.45 945.89 539.58 963.98 529.14 970.01 497.84 982.01"/><line class="cls-1" x1="497.84" y1="988.06" x2="497.84" y2="981.92"/><line class="cls-1" x1="560.45" y1="951.91" x2="560.45" y2="945.79"/><path class="cls-1" d="M341.31,813.19l46.74,36a456.61,456.61,0,0,0,102.37,59.51l59.58,25"/><path class="cls-1" d="M299.52,837.39l46.74,36a456.65,456.65,0,0,0,102.37,59.52l59.58,25"/><path class="cls-1" d="M289.07,867.44l46.74,36A456.61,456.61,0,0,0,438.18,963l59.58,25"/><path class="cls-1" d="M299.52,885.56l46.74,36A456.61,456.61,0,0,0,448.63,981.1l59.58,25"/><path class="cls-1" d="M341.31,861.35l46.74,36a456.61,456.61,0,0,0,102.37,59.51l59.58,25"/><path class="cls-1" d="M351.75,831.31l46.74,36a456.77,456.77,0,0,0,102.37,59.51l59.58,24.95"/><path class="cls-1" d="M132.62,692.7l46.74,36a457,457,0,0,0,102.37,59.51l59.58,25"/><path class="cls-1" d="M143.05,710.82l46.75,36a456.36,456.36,0,0,0,102.36,59.52l59.59,24.95"/><path class="cls-1" d="M132.65,740.86l46.74,36A456.65,456.65,0,0,0,281.76,836.4l59.58,25"/><path class="cls-1" d="M90.85,765.07l46.74,36A457,457,0,0,0,240,860.61l59.59,24.95"/><path class="cls-1" d="M80.38,747l46.74,36a456.77,456.77,0,0,0,102.37,59.51l59.58,25"/><path class="cls-1" d="M90.83,716.89l46.74,36a456.39,456.39,0,0,0,102.37,59.51l59.58,25"/><path class="cls-1" d="M550,933.69l46.75,36a456.36,456.36,0,0,0,102.36,59.52l59.59,25"/><path class="cls-1" d="M560.44,951.8l46.74,36a456.81,456.81,0,0,0,102.37,59.52l59.58,25"/><path class="cls-1" d="M550,981.85l46.75,36a456.36,456.36,0,0,0,102.36,59.52l59.59,24.95"/><path class="cls-1" d="M508.24,1006.06l46.74,36a456.43,456.43,0,0,0,102.37,59.52l59.58,25"/><path class="cls-1" d="M497.76,987.94l46.74,36a456.65,456.65,0,0,0,102.37,59.52l59.58,25"/><path class="cls-1" d="M508.21,957.88l46.74,36a456.65,456.65,0,0,0,102.37,59.52l59.58,24.95"/><polygon class="cls-1" points="727.35 1054.16 737.79 1048.13 748.22 1054.16 737.79 1060.18 727.35 1054.16"/><polyline class="cls-1" points="769.09 1210.85 748.22 1138.55 748.22 1054.16 737.79 1042.11 727.35 1054.16 727.35 1138.55 706.48 1210.85"/><line class="cls-1" x1="737.79" y1="1042.11" x2="737.79" y2="1228.92"/><polygon class="cls-1" points="727.35 1066.24 737.79 1060.22 748.22 1066.24 737.79 1072.27 727.35 1066.24"/><polygon class="cls-1" points="727.35 1138.55 737.79 1132.52 748.22 1138.55 737.79 1144.57 727.35 1138.55"/><polygon class="cls-1" points="727.35 1078.29 737.79 1072.27 748.22 1078.29 737.79 1084.32 727.35 1078.29"/><polygon class="cls-1" points="727.35 1090.41 737.79 1084.39 748.22 1090.41 737.79 1096.44 727.35 1090.41"/><polygon class="cls-1" points="727.35 1102.39 737.79 1096.37 748.22 1102.39 737.79 1108.42 727.35 1102.39"/><polygon class="cls-1" points="727.35 1114.44 737.79 1108.42 748.22 1114.44 737.79 1120.47 727.35 1114.44"/><polygon class="cls-1" points="727.35 1126.49 737.79 1120.47 748.22 1126.49 737.79 1132.52 727.35 1126.49"/><polygon class="cls-1" points="737.79 1144.57 723 1153.61 737.79 1162.65 752.57 1153.61 737.79 1144.57"/><polygon class="cls-1" points="748.22 1066.24 743 1057.17 737.79 1072.27 732.51 1057.17 727.35 1066.24 732.57 1051.18 737.79 1060.22 743 1051.14 748.22 1066.24"/><polygon class="cls-1" points="748.22 1078.29 743 1069.22 737.79 1084.32 732.51 1069.22 727.35 1078.29 732.57 1063.23 737.79 1072.27 743 1063.2 748.22 1078.29"/><polygon class="cls-1" points="748.22 1090.36 743 1081.29 737.79 1096.39 732.51 1081.29 727.35 1090.36 732.57 1075.3 737.79 1084.34 743 1075.26 748.22 1090.36"/><polygon class="cls-1" points="748.22 1102.41 743 1093.34 737.79 1108.44 732.51 1093.34 727.35 1102.41 732.57 1087.35 737.79 1096.39 743 1087.31 748.22 1102.41"/><polygon class="cls-1" points="748.22 1114.46 743 1105.39 737.79 1120.49 732.51 1105.39 727.35 1114.46 732.57 1099.4 737.79 1108.44 743 1099.36 748.22 1114.46"/><polygon class="cls-1" points="748.22 1126.51 743 1117.44 737.79 1132.54 732.51 1117.44 727.35 1126.51 732.57 1111.45 737.79 1120.49 743 1111.41 748.22 1126.51"/><polygon class="cls-1" points="748.22 1138.56 743 1129.49 737.79 1144.59 732.51 1129.49 727.35 1138.56 732.57 1123.5 737.79 1132.54 743 1123.46 748.22 1138.56"/><polygon class="cls-1" points="737.79 1162.65 716.92 1174.7 737.79 1186.75 758.66 1174.7 737.79 1162.65"/><polygon class="cls-1" points="752.57 1153.61 743 1141.56 737.79 1162.65 732.57 1141.56 723 1153.61 732.6 1135.52 737.79 1144.59 743.03 1135.52 752.57 1153.61"/><polygon class="cls-1" points="758.66 1174.7 745.61 1158.13 737.79 1186.75 729.96 1158.13 716.92 1174.7 730.41 1149.08 737.79 1162.65 745.16 1149.08 758.66 1174.7"/><polygon class="cls-1" points="767.6 1205.68 748.22 1180.72 737.79 1222.9 727.35 1180.72 707.97 1205.68 727.35 1168.67 737.79 1186.75 748.22 1168.67 767.6 1205.68"/><polyline class="cls-1" points="701.26 1210.6 701.26 1211.39 706.48 1214.4 711.7 1211.39 711.7 1210.6"/><polygon class="cls-1" points="706.48 1207.59 701.26 1210.6 701.26 1210.6 706.48 1213.61 711.7 1210.6 711.7 1210.6 706.48 1207.59"/><line class="cls-1" x1="706.48" y1="1214.4" x2="706.48" y2="1213.61"/><polyline class="cls-1" points="763.87 1210.45 763.87 1211.24 769.09 1214.26 774.31 1211.24 774.31 1210.45"/><polygon class="cls-1" points="769.09 1207.44 763.88 1210.45 763.88 1210.45 769.09 1213.47 774.31 1210.45 774.31 1210.45 769.09 1207.44"/><line class="cls-1" x1="769.09" y1="1214.26" x2="769.09" y2="1213.47"/><polyline class="cls-1" points="732.57 1228.53 732.57 1229.32 737.79 1232.33 743 1229.32 743 1228.53"/><polygon class="cls-1" points="737.79 1225.52 732.57 1228.53 732.57 1228.53 737.79 1231.54 743 1228.53 743 1228.53 737.79 1225.52"/><line class="cls-1" x1="737.79" y1="1232.33" x2="737.79" y2="1231.54"/><polyline class="cls-1" points="732.57 1192.6 732.57 1193.39 737.79 1196.41 743 1193.39 743 1192.6"/><polygon class="cls-1" points="737.79 1189.59 732.57 1192.6 732.57 1192.61 737.79 1195.62 743 1192.61 743 1192.6 737.79 1189.59"/><line class="cls-1" x1="737.79" y1="1196.41" x2="737.79" y2="1195.62"/><polyline class="cls-1" points="716.92 1078.29 737.79 1072.27 748.22 1066.24 758.71 1054.16 758.71 1054.16 716.92 1078.29 716.92 1078.29 727.35 1066.24 737.79 1060.22 758.72 1054.16"/><line class="cls-1" x1="758.72" y1="1054.16" x2="758.72" y2="1060.18"/><line class="cls-1" x1="716.92" y1="1084.39" x2="716.92" y2="1078.29"/><polyline class="cls-1" points="716.89 1126.44 737.76 1120.42 748.19 1114.39 758.68 1102.31 758.68 1102.31 716.89 1126.44 716.89 1126.44 727.32 1114.39 737.76 1108.37 758.69 1102.31"/><line class="cls-1" x1="758.69" y1="1108.33" x2="758.69" y2="1102.31"/><line class="cls-1" x1="716.89" y1="1132.54" x2="716.89" y2="1126.44"/><polyline class="cls-1" points="769.09 1072.27 737.79 1084.32 727.35 1090.36 706.48 1108.39 769.09 1072.27 748.22 1090.36 737.79 1096.39 706.48 1108.39"/><line class="cls-1" x1="706.48" y1="1114.45" x2="706.48" y2="1108.3"/><line class="cls-1" x1="769.09" y1="1078.29" x2="769.09" y2="1072.17"/><polygon class="cls-1" points="936.05 1174.66 946.49 1168.64 956.92 1174.66 946.49 1180.69 936.05 1174.66"/><polyline class="cls-1" points="977.79 1331.35 956.92 1259.05 956.92 1174.66 946.49 1162.61 936.05 1174.66 936.05 1259.05 915.18 1331.35"/><line class="cls-1" x1="946.49" y1="1162.61" x2="946.49" y2="1349.43"/><polygon class="cls-1" points="936.05 1186.75 946.49 1180.72 956.92 1186.75 946.49 1192.77 936.05 1186.75"/><polygon class="cls-1" points="936.05 1259.05 946.49 1253.03 956.92 1259.05 946.49 1265.08 936.05 1259.05"/><polygon class="cls-1" points="936.05 1198.8 946.49 1192.77 956.92 1198.8 946.49 1204.82 936.05 1198.8"/><polygon class="cls-1" points="936.05 1210.92 946.49 1204.89 956.92 1210.92 946.49 1216.94 936.05 1210.92"/><polygon class="cls-1" points="936.05 1222.9 946.49 1216.87 956.92 1222.9 946.49 1228.92 936.05 1222.9"/><polygon class="cls-1" points="936.05 1234.95 946.49 1228.92 956.92 1234.95 946.49 1240.97 936.05 1234.95"/><polygon class="cls-1" points="936.05 1247 946.49 1240.97 956.92 1247 946.49 1253.03 936.05 1247"/><polygon class="cls-1" points="946.49 1265.08 931.71 1274.11 946.49 1283.15 961.27 1274.11 946.49 1265.08"/><polygon class="cls-1" points="956.92 1186.75 951.71 1177.67 946.49 1192.77 941.21 1177.67 936.05 1186.75 941.27 1171.68 946.49 1180.72 951.71 1171.65 956.92 1186.75"/><polygon class="cls-1" points="956.92 1198.8 951.71 1189.72 946.49 1204.82 941.21 1189.72 936.05 1198.8 941.27 1183.73 946.49 1192.77 951.71 1183.7 956.92 1198.8"/><polygon class="cls-1" points="956.92 1210.87 951.71 1201.79 946.49 1216.89 941.21 1201.79 936.05 1210.87 941.27 1195.8 946.49 1204.84 951.71 1195.77 956.92 1210.87"/><polygon class="cls-1" points="956.92 1222.92 951.71 1213.84 946.49 1228.94 941.21 1213.84 936.05 1222.92 941.27 1207.85 946.49 1216.89 951.71 1207.82 956.92 1222.92"/><polygon class="cls-1" points="956.92 1234.97 951.71 1225.89 946.49 1240.99 941.21 1225.89 936.05 1234.97 941.27 1219.9 946.49 1228.94 951.71 1219.87 956.92 1234.97"/><polygon class="cls-1" points="956.92 1247.02 951.71 1237.94 946.49 1253.04 941.21 1237.94 936.05 1247.02 941.27 1231.95 946.49 1240.99 951.71 1231.92 956.92 1247.02"/><polygon class="cls-1" points="956.92 1259.07 951.71 1249.99 946.49 1265.09 941.21 1249.99 936.05 1259.07 941.27 1244.01 946.49 1253.04 951.71 1243.97 956.92 1259.07"/><polygon class="cls-1" points="946.49 1283.15 925.62 1295.2 946.49 1307.25 967.36 1295.2 946.49 1283.15"/><polygon class="cls-1" points="961.27 1274.11 951.71 1262.06 946.49 1283.15 941.27 1262.06 931.71 1274.11 941.3 1256.02 946.49 1265.09 951.74 1256.02 961.27 1274.11"/><polygon class="cls-1" points="967.36 1295.2 954.32 1278.63 946.49 1307.25 938.66 1278.63 925.62 1295.2 939.11 1269.59 946.49 1283.15 953.87 1269.59 967.36 1295.2"/><polygon class="cls-1" points="976.3 1326.19 956.92 1301.23 946.49 1343.4 936.05 1301.23 916.67 1326.19 936.05 1289.18 946.49 1307.25 956.92 1289.18 976.3 1326.19"/><polyline class="cls-1" points="909.97 1331.1 909.97 1331.89 915.18 1334.91 920.4 1331.89 920.4 1331.1"/><polygon class="cls-1" points="915.18 1328.09 909.97 1331.1 909.97 1331.11 915.18 1334.12 920.4 1331.11 920.4 1331.1 915.18 1328.09"/><line class="cls-1" x1="915.18" y1="1334.91" x2="915.18" y2="1334.12"/><polyline class="cls-1" points="972.58 1330.96 972.58 1331.75 977.79 1334.76 983.01 1331.75 983.01 1330.96"/><polygon class="cls-1" points="977.79 1327.94 972.58 1330.96 972.58 1330.96 977.79 1333.97 983.01 1330.96 983.01 1330.96 977.79 1327.94"/><line class="cls-1" x1="977.79" y1="1334.76" x2="977.79" y2="1333.97"/><polyline class="cls-1" points="941.27 1349.03 941.27 1349.83 946.49 1352.84 951.71 1349.83 951.71 1349.03"/><polygon class="cls-1" points="946.49 1346.02 941.27 1349.03 941.27 1349.03 946.49 1352.05 951.71 1349.03 951.71 1349.03 946.49 1346.02"/><line class="cls-1" x1="946.49" y1="1352.84" x2="946.49" y2="1352.05"/><polyline class="cls-1" points="941.27 1313.11 941.27 1313.9 946.49 1316.91 951.71 1313.9 951.71 1313.11"/><polygon class="cls-1" points="946.49 1310.1 941.27 1313.11 941.27 1313.11 946.49 1316.12 951.71 1313.11 951.71 1313.11 946.49 1310.1"/><line class="cls-1" x1="946.49" y1="1316.91" x2="946.49" y2="1316.12"/><polyline class="cls-1" points="925.62 1198.8 946.49 1192.77 956.92 1186.75 967.42 1174.67 967.41 1174.66 925.62 1198.8 925.62 1198.79 936.05 1186.75 946.49 1180.72 967.42 1174.66"/><line class="cls-1" x1="967.42" y1="1180.69" x2="967.42" y2="1174.66"/><line class="cls-1" x1="925.62" y1="1204.89" x2="925.62" y2="1198.8"/><polyline class="cls-1" points="925.59 1246.95 946.46 1240.92 956.89 1234.9 967.39 1222.82 967.38 1222.81 925.59 1246.94 925.59 1246.94 936.02 1234.9 946.46 1228.87 967.39 1222.81"/><line class="cls-1" x1="967.39" y1="1228.84" x2="967.39" y2="1222.81"/><line class="cls-1" x1="925.59" y1="1253.04" x2="925.59" y2="1246.94"/><polyline class="cls-1" points="977.79 1192.77 946.49 1204.82 936.05 1210.87 915.18 1228.89 977.79 1192.77 956.92 1210.87 946.49 1216.89 915.18 1228.89"/><line class="cls-1" x1="915.18" y1="1234.95" x2="915.18" y2="1228.81"/><line class="cls-1" x1="977.79" y1="1198.8" x2="977.79" y2="1192.67"/><path class="cls-1" d="M758.66,1060.08l46.74,36a456.43,456.43,0,0,0,102.37,59.52l59.58,25"/><path class="cls-1" d="M716.87,1084.27l46.74,36A456.7,456.7,0,0,0,866,1179.81l59.59,25"/><path class="cls-1" d="M706.41,1114.33l46.75,36a456.36,456.36,0,0,0,102.36,59.52l59.59,25"/><path class="cls-1" d="M716.87,1132.45l46.74,36A456.36,456.36,0,0,0,866,1228l59.59,25"/><path class="cls-1" d="M758.66,1108.24l46.74,36a456.43,456.43,0,0,0,102.37,59.52l59.58,25"/><path class="cls-1" d="M769.09,1078.2l46.74,36a456.65,456.65,0,0,0,102.37,59.52l59.58,25"/><path class="cls-1" d="M967.35,1180.57l46.74,36a457,457,0,0,0,102.37,59.51l59.58,25"/><path class="cls-1" d="M977.78,1198.69l46.74,36a457,457,0,0,0,102.37,59.51l59.59,25"/><path class="cls-1" d="M967.38,1228.73l46.74,36a457,457,0,0,0,102.37,59.51l59.58,25"/><path class="cls-1" d="M925.58,1252.94l46.74,36a456.61,456.61,0,0,0,102.37,59.51l59.58,25"/><path class="cls-1" d="M915.11,1234.82l46.74,36a456.17,456.17,0,0,0,102.37,59.51l59.58,25"/><path class="cls-1" d="M925.56,1204.76l46.74,36a456.81,456.81,0,0,0,102.37,59.52l59.58,25"/><polygon class="cls-1" points="1144.69 1301.2 1155.13 1295.18 1165.56 1301.2 1155.13 1307.23 1144.69 1301.2"/><polyline class="cls-1" points="1186.43 1457.89 1165.56 1385.59 1165.56 1301.2 1155.13 1289.15 1144.69 1301.2 1144.69 1385.59 1123.82 1457.89"/><line class="cls-1" x1="1155.13" y1="1289.15" x2="1155.13" y2="1475.97"/><polygon class="cls-1" points="1144.69 1313.29 1155.13 1307.26 1165.56 1313.29 1155.13 1319.31 1144.69 1313.29"/><polygon class="cls-1" points="1144.69 1385.59 1155.13 1379.57 1165.56 1385.59 1155.13 1391.62 1144.69 1385.59"/><polygon class="cls-1" points="1144.69 1325.34 1155.13 1319.31 1165.56 1325.34 1155.13 1331.36 1144.69 1325.34"/><polygon class="cls-1" points="1144.69 1337.46 1155.13 1331.43 1165.56 1337.46 1155.13 1343.48 1144.69 1337.46"/><polygon class="cls-1" points="1144.69 1349.44 1155.13 1343.41 1165.56 1349.44 1155.13 1355.46 1144.69 1349.44"/><polygon class="cls-1" points="1144.69 1361.49 1155.13 1355.46 1165.56 1361.49 1155.13 1367.52 1144.69 1361.49"/><polygon class="cls-1" points="1144.69 1373.54 1155.13 1367.52 1165.56 1373.54 1155.13 1379.57 1144.69 1373.54"/><polygon class="cls-1" points="1155.13 1391.62 1140.34 1400.65 1155.13 1409.69 1169.91 1400.65 1155.13 1391.62"/><polygon class="cls-1" points="1165.56 1313.29 1160.35 1304.22 1155.13 1319.31 1149.85 1304.22 1144.69 1313.29 1149.91 1298.23 1155.13 1307.26 1160.35 1298.19 1165.56 1313.29"/><polygon class="cls-1" points="1165.56 1325.34 1160.35 1316.27 1155.13 1331.36 1149.85 1316.27 1144.69 1325.34 1149.91 1310.28 1155.13 1319.31 1160.35 1310.24 1165.56 1325.34"/><polygon class="cls-1" points="1165.56 1337.41 1160.35 1328.33 1155.13 1343.43 1149.85 1328.33 1144.69 1337.41 1149.91 1322.34 1155.13 1331.38 1160.35 1322.31 1165.56 1337.41"/><polygon class="cls-1" points="1165.56 1349.46 1160.35 1340.38 1155.13 1355.48 1149.85 1340.38 1144.69 1349.46 1149.91 1334.39 1155.13 1343.43 1160.35 1334.36 1165.56 1349.46"/><polygon class="cls-1" points="1165.56 1361.51 1160.35 1352.43 1155.13 1367.53 1149.85 1352.43 1144.69 1361.51 1149.91 1346.44 1155.13 1355.48 1160.35 1346.41 1165.56 1361.51"/><polygon class="cls-1" points="1165.56 1373.56 1160.35 1364.49 1155.13 1379.58 1149.85 1364.49 1144.69 1373.56 1149.91 1358.5 1155.13 1367.53 1160.35 1358.46 1165.56 1373.56"/><polygon class="cls-1" points="1165.56 1385.61 1160.35 1376.54 1155.13 1391.63 1149.85 1376.54 1144.69 1385.61 1149.91 1370.55 1155.13 1379.58 1160.35 1370.51 1165.56 1385.61"/><polygon class="cls-1" points="1155.13 1409.69 1134.26 1421.74 1155.13 1433.79 1176 1421.74 1155.13 1409.69"/><polygon class="cls-1" points="1169.91 1400.65 1160.35 1388.6 1155.13 1409.69 1149.91 1388.6 1140.34 1400.65 1149.94 1382.56 1155.13 1391.63 1160.38 1382.56 1169.91 1400.65"/><polygon class="cls-1" points="1176 1421.74 1162.95 1405.17 1155.13 1433.79 1147.3 1405.17 1134.26 1421.74 1147.75 1396.13 1155.13 1409.69 1162.51 1396.13 1176 1421.74"/><polygon class="cls-1" points="1184.94 1452.73 1165.56 1427.77 1155.13 1469.94 1144.69 1427.77 1125.31 1452.73 1144.69 1415.72 1155.13 1433.79 1165.56 1415.72 1184.94 1452.73"/><polyline class="cls-1" points="1118.61 1457.64 1118.61 1458.44 1123.82 1461.45 1129.04 1458.44 1129.04 1457.64"/><polygon class="cls-1" points="1123.82 1454.63 1118.61 1457.64 1118.61 1457.65 1123.82 1460.66 1129.04 1457.65 1129.04 1457.64 1123.82 1454.63"/><line class="cls-1" x1="1123.82" y1="1461.45" x2="1123.82" y2="1460.66"/><polyline class="cls-1" points="1181.21 1457.5 1181.21 1458.29 1186.43 1461.3 1191.65 1458.29 1191.65 1457.5"/><polygon class="cls-1" points="1186.43 1454.49 1181.22 1457.5 1181.22 1457.5 1186.43 1460.51 1191.65 1457.5 1191.65 1457.5 1186.43 1454.49"/><line class="cls-1" x1="1186.43" y1="1461.3" x2="1186.43" y2="1460.51"/><polyline class="cls-1" points="1149.91 1475.58 1149.91 1476.37 1155.13 1479.38 1160.35 1476.37 1160.35 1475.58"/><polygon class="cls-1" points="1155.13 1472.56 1149.91 1475.57 1149.91 1475.58 1155.13 1478.59 1160.34 1475.58 1160.34 1475.57 1155.13 1472.56"/><line class="cls-1" x1="1155.13" y1="1479.38" x2="1155.13" y2="1478.59"/><polyline class="cls-1" points="1149.91 1439.65 1149.91 1440.44 1155.13 1443.45 1160.35 1440.44 1160.35 1439.65"/><polygon class="cls-1" points="1155.13 1436.64 1149.91 1439.65 1149.91 1439.65 1155.13 1442.66 1160.34 1439.65 1160.34 1439.65 1155.13 1436.64"/><line class="cls-1" x1="1155.13" y1="1443.45" x2="1155.13" y2="1442.66"/><polyline class="cls-1" points="1134.26 1325.34 1155.13 1319.31 1165.56 1313.29 1176.06 1301.21 1176.05 1301.21 1134.26 1325.34 1134.26 1325.34 1144.69 1313.29 1155.13 1307.26 1176.06 1301.2"/><line class="cls-1" x1="1176.06" y1="1301.2" x2="1176.06" y2="1307.23"/><line class="cls-1" x1="1134.26" y1="1331.43" x2="1134.26" y2="1325.34"/><polyline class="cls-1" points="1134.23 1373.49 1155.1 1367.46 1165.53 1361.44 1176.03 1349.36 1176.02 1349.36 1134.23 1373.49 1134.23 1373.48 1144.66 1361.44 1155.1 1355.41 1176.03 1349.35"/><line class="cls-1" x1="1176.03" y1="1355.38" x2="1176.03" y2="1349.35"/><line class="cls-1" x1="1134.23" y1="1379.58" x2="1134.23" y2="1373.49"/><polyline class="cls-1" points="1186.43 1319.31 1155.13 1331.36 1144.69 1337.41 1123.82 1355.43 1186.43 1319.31 1165.56 1337.41 1155.13 1343.43 1123.82 1355.43"/><line class="cls-1" x1="1123.82" y1="1361.49" x2="1123.82" y2="1355.35"/><line class="cls-1" x1="1186.43" y1="1325.34" x2="1186.43" y2="1319.21"/><polygon class="cls-1" points="1353.39 1421.71 1363.83 1415.68 1374.27 1421.71 1363.83 1427.73 1353.39 1421.71"/><polyline class="cls-1" points="1395.13 1578.4 1374.27 1506.1 1374.27 1421.71 1363.83 1409.66 1353.39 1421.71 1353.39 1506.1 1332.52 1578.4"/><line class="cls-1" x1="1363.83" y1="1409.66" x2="1363.83" y2="1596.47"/><polygon class="cls-1" points="1353.39 1433.79 1363.83 1427.77 1374.27 1433.79 1363.83 1439.82 1353.39 1433.79"/><polygon class="cls-1" points="1353.39 1506.1 1363.83 1500.07 1374.27 1506.1 1363.83 1512.12 1353.39 1506.1"/><polygon class="cls-1" points="1353.39 1445.84 1363.83 1439.82 1374.27 1445.84 1363.83 1451.87 1353.39 1445.84"/><polygon class="cls-1" points="1353.39 1457.96 1363.83 1451.94 1374.27 1457.96 1363.83 1463.99 1353.39 1457.96"/><polygon class="cls-1" points="1353.39 1469.94 1363.83 1463.92 1374.27 1469.94 1363.83 1475.97 1353.39 1469.94"/><polygon class="cls-1" points="1353.39 1481.99 1363.83 1475.97 1374.27 1481.99 1363.83 1488.02 1353.39 1481.99"/><polygon class="cls-1" points="1353.39 1494.05 1363.83 1488.02 1374.27 1494.05 1363.83 1500.07 1353.39 1494.05"/><polygon class="cls-1" points="1363.83 1512.12 1349.05 1521.16 1363.83 1530.2 1378.61 1521.16 1363.83 1512.12"/><polygon class="cls-1" points="1374.27 1433.79 1369.05 1424.72 1363.83 1439.82 1358.55 1424.72 1353.39 1433.79 1358.61 1418.73 1363.83 1427.77 1369.05 1418.69 1374.27 1433.79"/><polygon class="cls-1" points="1374.27 1445.84 1369.05 1436.77 1363.83 1451.87 1358.55 1436.77 1353.39 1445.84 1358.61 1430.78 1363.83 1439.82 1369.05 1430.75 1374.27 1445.84"/><polygon class="cls-1" points="1374.27 1457.91 1369.05 1448.84 1363.83 1463.94 1358.55 1448.84 1353.39 1457.91 1358.61 1442.85 1363.83 1451.89 1369.05 1442.81 1374.27 1457.91"/><polygon class="cls-1" points="1374.27 1469.96 1369.05 1460.89 1363.83 1475.99 1358.55 1460.89 1353.39 1469.96 1358.61 1454.9 1363.83 1463.94 1369.05 1454.86 1374.27 1469.96"/><polygon class="cls-1" points="1374.27 1482.01 1369.05 1472.94 1363.83 1488.04 1358.55 1472.94 1353.39 1482.01 1358.61 1466.95 1363.83 1475.99 1369.05 1466.91 1374.27 1482.01"/><polygon class="cls-1" points="1374.27 1494.06 1369.05 1484.99 1363.83 1500.09 1358.55 1484.99 1353.39 1494.06 1358.61 1479 1363.83 1488.04 1369.05 1478.96 1374.27 1494.06"/><polygon class="cls-1" points="1374.27 1506.11 1369.05 1497.04 1363.83 1512.14 1358.55 1497.04 1353.39 1506.11 1358.61 1491.05 1363.83 1500.09 1369.05 1491.02 1374.27 1506.11"/><polygon class="cls-1" points="1363.83 1530.2 1342.96 1542.25 1363.83 1554.3 1384.7 1542.25 1363.83 1530.2"/><polygon class="cls-1" points="1378.61 1521.16 1369.05 1509.11 1363.83 1530.2 1358.61 1509.11 1349.05 1521.16 1358.64 1503.07 1363.83 1512.14 1369.08 1503.07 1378.61 1521.16"/><polygon class="cls-1" points="1384.7 1542.25 1371.66 1525.68 1363.83 1554.3 1356 1525.68 1342.96 1542.25 1356.45 1516.63 1363.83 1530.2 1371.21 1516.63 1384.7 1542.25"/><polygon class="cls-1" points="1393.64 1573.23 1374.27 1548.27 1363.83 1590.45 1353.39 1548.27 1334.02 1573.23 1353.39 1536.22 1363.83 1554.3 1374.27 1536.22 1393.64 1573.23"/><polyline class="cls-1" points="1327.31 1578.15 1327.31 1578.94 1332.52 1581.95 1337.74 1578.94 1337.74 1578.15"/><polygon class="cls-1" points="1332.52 1575.14 1327.31 1578.15 1327.31 1578.15 1332.52 1581.16 1337.74 1578.15 1337.74 1578.15 1332.52 1575.14"/><line class="cls-1" x1="1332.52" y1="1581.95" x2="1332.52" y2="1581.16"/><polyline class="cls-1" points="1389.92 1578 1389.92 1578.79 1395.13 1581.81 1400.35 1578.79 1400.35 1578"/><polygon class="cls-1" points="1395.13 1574.99 1389.92 1578 1389.92 1578 1395.13 1581.02 1400.35 1578 1400.35 1578 1395.13 1574.99"/><line class="cls-1" x1="1395.14" y1="1581.81" x2="1395.14" y2="1581.02"/><polyline class="cls-1" points="1358.61 1596.08 1358.61 1596.87 1363.83 1599.88 1369.05 1596.87 1369.05 1596.08"/><polygon class="cls-1" points="1363.83 1593.07 1358.61 1596.08 1358.61 1596.08 1363.83 1599.09 1369.05 1596.08 1369.05 1596.08 1363.83 1593.07"/><line class="cls-1" x1="1363.83" y1="1599.88" x2="1363.83" y2="1599.09"/><polyline class="cls-1" points="1358.61 1560.15 1358.61 1560.94 1363.83 1563.96 1369.05 1560.94 1369.05 1560.15"/><polygon class="cls-1" points="1363.83 1557.14 1358.61 1560.15 1358.61 1560.15 1363.83 1563.17 1369.05 1560.15 1369.05 1560.15 1363.83 1557.14"/><line class="cls-1" x1="1363.83" y1="1563.96" x2="1363.83" y2="1563.17"/><polyline class="cls-1" points="1342.96 1445.84 1363.83 1439.82 1374.27 1433.79 1384.76 1421.71 1384.76 1421.71 1342.96 1445.84 1342.96 1445.84 1353.39 1433.79 1363.83 1427.77 1384.76 1421.71"/><line class="cls-1" x1="1384.76" y1="1427.73" x2="1384.76" y2="1421.71"/><line class="cls-1" x1="1342.96" y1="1451.94" x2="1342.96" y2="1445.84"/><polyline class="cls-1" points="1342.93 1493.99 1363.8 1487.97 1374.23 1481.94 1384.73 1469.86 1384.73 1469.86 1342.93 1493.99 1342.93 1493.99 1353.36 1481.94 1363.8 1475.92 1384.73 1469.86"/><line class="cls-1" x1="1384.73" y1="1475.88" x2="1384.73" y2="1469.86"/><line class="cls-1" x1="1342.93" y1="1500.09" x2="1342.93" y2="1493.99"/><polyline class="cls-1" points="1395.13 1439.82 1363.83 1451.87 1353.39 1457.91 1332.52 1475.94 1395.13 1439.82 1374.27 1457.91 1363.83 1463.94 1332.52 1475.94"/><line class="cls-1" x1="1332.52" y1="1482" x2="1332.52" y2="1475.85"/><line class="cls-1" x1="1395.14" y1="1445.84" x2="1395.14" y2="1439.72"/><path class="cls-1" d="M1176,1307.12l46.74,36a456.39,456.39,0,0,0,102.37,59.51l59.58,25"/><path class="cls-1" d="M1134.21,1331.32l46.74,36a456.21,456.21,0,0,0,102.37,59.52l59.58,25"/><path class="cls-1" d="M1123.75,1361.37l46.75,36a456.74,456.74,0,0,0,102.36,59.52l59.59,24.95"/><path class="cls-1" d="M1134.21,1379.49l46.74,36A456.59,456.59,0,0,0,1283.32,1475l59.58,25"/><path class="cls-1" d="M1176,1355.28l46.74,36a456.39,456.39,0,0,0,102.37,59.51l59.58,25"/><path class="cls-1" d="M1186.43,1325.24l46.74,36a456.61,456.61,0,0,0,102.37,59.51l59.58,25"/><path class="cls-1" d="M1384.69,1427.62l46.74,36a456.65,456.65,0,0,0,102.37,59.52l59.58,24.95"/><path class="cls-1" d="M1395.12,1445.73l46.75,36a456.74,456.74,0,0,0,102.36,59.52l59.59,25"/><path class="cls-1" d="M1384.72,1475.78l46.74,36a456.65,456.65,0,0,0,102.37,59.52l59.58,25"/><path class="cls-1" d="M1342.92,1500l46.74,36A456.65,456.65,0,0,0,1492,1595.53l59.59,25"/><path class="cls-1" d="M1332.45,1481.87l46.74,36a456.43,456.43,0,0,0,102.37,59.52l59.58,24.95"/><path class="cls-1" d="M1342.9,1451.81l46.74,36A456.77,456.77,0,0,0,1492,1547.35l59.58,25"/><polyline class="cls-4" points="1310.05 367.84 1310.05 368.32 1284.18 383.26 1274.48 377.66 1274.48 377.18"/><polyline class="cls-4" points="1300.35 362.25 1274.48 377.18 1274.48 377.18 1284.18 382.78 1310.05 367.84 1310.05 367.84 1300.35 362.25"/><line class="cls-4" x1="1284.18" y1="383.26" x2="1284.18" y2="382.78"/><polyline class="cls-4" points="1284.18 330.99 1284.18 375.8 1287.41 377.67 1300.35 370.2 1300.35 325.38"/><line class="cls-4" x1="1287.41" y1="332.85" x2="1287.41" y2="377.67"/><polygon class="cls-4" points="1290.65 334.72 1297.12 330.99 1297.12 342.19 1290.65 345.93 1290.65 334.72"/><polyline class="cls-4" points="1293.88 332.85 1293.88 340.32 1290.65 342.19"/><line class="cls-4" x1="1293.88" y1="340.32" x2="1297.12" y2="342.19"/><polygon class="cls-4" points="1284.99 335.19 1286.6 336.12 1286.6 339.86 1284.99 338.92 1284.99 335.19"/><polygon class="cls-4" points="1290.65 349.66 1290.65 353.39 1297.12 349.66 1297.12 345.93 1290.65 349.66"/><polyline class="cls-4" points="1290.65 352.74 1296.34 349.45 1295.03 347.13"/><polygon class="cls-4" points="1290.65 357.13 1290.65 364.6 1297.12 360.86 1297.12 353.39 1290.65 357.13"/><line class="cls-4" x1="1290.65" y1="360.86" x2="1297.12" y2="357.13"/><line class="cls-4" x1="1293.88" y1="355.26" x2="1293.88" y2="362.73"/><line class="cls-4" x1="1293.33" y1="355.58" x2="1293.33" y2="359.31"/><polygon class="cls-4" points="1291.19 361.18 1293.33 359.94 1293.33 362.42 1291.19 363.65 1291.19 361.18"/><polygon class="cls-4" points="1294.44 359.32 1296.55 358.1 1296.55 360.54 1294.44 361.76 1294.44 359.32"/><line class="cls-4" x1="1294.44" y1="354.96" x2="1294.44" y2="358.7"/><line class="cls-4" x1="1295.5" y1="346.86" x2="1297.12" y2="349.66"/><line class="cls-4" x1="1293.33" y1="355.58" x2="1293.33" y2="359.31"/><polygon class="cls-4" points="1284.18 330.99 1287.41 332.85 1300.35 325.38 1300.35 325.38 1297.12 323.52 1284.18 330.99 1284.18 330.99"/><ellipse class="cls-4" cx="1295.55" cy="359.93" rx="0.91" ry="0.52" transform="translate(296.52 1259.89) rotate(-57.54)"/><polyline class="cls-4" points="1295.06 360.69 1296.65 361.71 1297.63 360.18 1296.07 359.19"/><ellipse class="cls-4" cx="1297.14" cy="360.94" rx="0.91" ry="0.52" transform="translate(296.4 1261.7) rotate(-57.54)"/><ellipse class="cls-4" cx="1292.3" cy="361.82" rx="0.91" ry="0.52" transform="translate(293.41 1258.03) rotate(-57.54)"/><polyline class="cls-4" points="1291.81 362.58 1293.4 363.6 1294.38 362.07 1292.82 361.08"/><ellipse class="cls-4" cx="1293.89" cy="362.83" rx="0.91" ry="0.52" transform="translate(293.3 1259.84) rotate(-57.54)"/><polygon class="cls-4" points="1285.47 336.58 1286.12 336.95 1286.12 338.47 1285.47 338.09 1285.47 336.58"/><path class="cls-1" d="M1285.76,337.52h0a7.41,7.41,0,0,0-3.48,8.19l3.35,13.55c.9,3.63,4.68,5.57,7.94,3.74l.32-.17"/><path class="cls-1" d="M1300.36,351.52l.71,1.92a5.7,5.7,0,0,1-4,7.5h0"/><polyline class="cls-4" points="1355.33 341.7 1355.33 342.19 1335.92 353.39 1326.22 347.79 1326.22 347.3"/><polygon class="cls-4" points="1326.22 347.3 1335.92 352.9 1355.33 341.7 1355.33 341.7 1345.63 336.1 1326.22 347.3 1326.22 347.3"/><line class="cls-4" x1="1335.92" y1="353.39" x2="1335.92" y2="352.9"/><polyline class="cls-4" points="1332.69 273.1 1332.69 347.79 1335.92 349.66 1348.86 342.19 1348.86 271.23"/><line class="cls-4" x1="1335.92" y1="349.66" x2="1335.92" y2="274.97"/><polyline class="cls-4" points="1407.08 311.83 1407.08 312.31 1381.2 327.25 1371.5 321.65 1371.5 321.17"/><polyline class="cls-4" points="1397.37 306.24 1371.5 321.17 1371.5 321.17 1381.2 326.77 1407.08 311.83 1407.08 311.83 1397.37 306.24"/><line class="cls-4" x1="1381.2" y1="327.25" x2="1381.2" y2="326.77"/><polyline class="cls-4" points="1381.2 274.97 1381.2 319.79 1384.44 321.66 1397.37 314.19 1397.37 269.37"/><line class="cls-4" x1="1384.44" y1="276.84" x2="1384.44" y2="321.66"/><polygon class="cls-4" points="1387.67 278.71 1394.14 274.97 1394.14 286.18 1387.67 289.91 1387.67 278.71"/><polyline class="cls-4" points="1390.9 276.84 1390.9 284.31 1387.67 286.18"/><line class="cls-4" x1="1390.9" y1="284.31" x2="1394.14" y2="286.18"/><polygon class="cls-4" points="1382.01 279.18 1383.63 280.11 1383.63 283.84 1382.01 282.91 1382.01 279.18"/><polygon class="cls-4" points="1387.67 293.65 1387.67 297.38 1394.14 293.65 1394.14 289.91 1387.67 293.65"/><polyline class="cls-4" points="1387.67 296.72 1393.36 293.44 1392.05 291.12"/><polygon class="cls-4" points="1387.67 301.12 1387.67 308.59 1394.14 304.85 1394.14 297.38 1387.67 301.12"/><line class="cls-4" x1="1387.67" y1="304.85" x2="1394.14" y2="301.12"/><line class="cls-4" x1="1390.9" y1="299.25" x2="1390.9" y2="306.72"/><line class="cls-4" x1="1390.36" y1="299.57" x2="1390.36" y2="303.3"/><polygon class="cls-4" points="1388.22 305.17 1390.36 303.93 1390.36 306.4 1388.22 307.64 1388.22 305.17"/><polygon class="cls-4" points="1391.47 303.31 1393.58 302.09 1393.58 304.53 1391.47 305.75 1391.47 303.31"/><line class="cls-4" x1="1391.47" y1="298.95" x2="1391.47" y2="302.68"/><line class="cls-4" x1="1392.52" y1="290.85" x2="1394.14" y2="293.65"/><line class="cls-4" x1="1390.36" y1="299.57" x2="1390.36" y2="303.3"/><polygon class="cls-4" points="1381.2 274.97 1384.44 276.84 1397.37 269.37 1397.37 269.37 1394.14 267.5 1381.2 274.97 1381.2 274.97"/><ellipse class="cls-4" cx="1392.57" cy="303.92" rx="0.91" ry="0.52" transform="translate(388.73 1315.81) rotate(-57.54)"/><polyline class="cls-4" points="1392.09 304.68 1393.67 305.7 1394.65 304.17 1393.09 303.17"/><ellipse class="cls-4" cx="1394.16" cy="304.93" rx="0.91" ry="0.52" transform="translate(388.61 1317.62) rotate(-57.54)"/><ellipse class="cls-4" cx="1389.32" cy="305.81" rx="0.91" ry="0.52" transform="translate(385.63 1313.94) rotate(-57.54)"/><polyline class="cls-4" points="1388.84 306.57 1390.42 307.59 1391.4 306.06 1389.84 305.06"/><ellipse class="cls-4" cx="1390.91" cy="306.82" rx="0.91" ry="0.52" transform="translate(385.51 1315.75) rotate(-57.54)"/><polygon class="cls-4" points="1382.49 280.56 1383.15 280.94 1383.15 282.45 1382.49 282.08 1382.49 280.56"/><path class="cls-1" d="M1382.79,281.51h0a7.39,7.39,0,0,0-3.49,8.18l3.36,13.56c.89,3.62,4.68,5.57,7.93,3.74l.32-.17"/><path class="cls-1" d="M1397.39,295.51l.7,1.92a5.69,5.69,0,0,1-4,7.5h0"/><polygon class="cls-4" points="1200.14 297.38 1200.14 301.12 1238.94 331 1238.94 331 1238.94 327.26 1200.14 297.38 1200.14 297.38"/><polygon class="cls-4" points="1200.14 297.38 1358.61 205.88 1397.42 235.76 1238.94 327.26 1200.14 297.38 1200.14 297.38"/><polygon class="cls-4" points="1271.29 334.73 1238.92 331 1238.92 331 1238.92 327.26 1271.29 331 1429.77 239.49 1429.77 243.22 1271.29 334.73"/><polygon class="cls-4" points="1397.42 235.76 1429.77 239.49 1271.29 331 1238.92 327.26 1238.92 327.26 1397.42 235.76"/><polygon class="cls-4" points="1248.65 325.39 1397.41 239.5 1420.3 241.23 1271.29 327.26 1248.65 325.39"/><polygon class="cls-4" points="1206.6 297.38 1238.92 323.54 1390.95 235.76 1358.61 209.62 1206.6 297.38"/><line class="cls-4" x1="1209.3" y1="299.56" x2="1361.3" y2="211.8"/><line class="cls-4" x1="1211.99" y1="301.74" x2="1364" y2="213.97"/><line class="cls-4" x1="1214.69" y1="303.93" x2="1366.69" y2="216.15"/><line class="cls-4" x1="1369.39" y1="218.33" x2="1217.38" y2="306.1"/><line class="cls-4" x1="1220.07" y1="308.28" x2="1372.08" y2="220.51"/><line class="cls-4" x1="1374.78" y1="222.69" x2="1222.75" y2="310.46"/><line class="cls-4" x1="1225.46" y1="312.64" x2="1377.47" y2="224.87"/><line class="cls-4" x1="1380.17" y1="227.05" x2="1228.15" y2="314.82"/><line class="cls-4" x1="1230.83" y1="316.99" x2="1382.86" y2="229.22"/><line class="cls-4" x1="1385.56" y1="231.4" x2="1233.53" y2="319.18"/><line class="cls-4" x1="1236.23" y1="321.36" x2="1388.25" y2="233.58"/><line class="cls-4" x1="1209.84" y1="295.52" x2="1242.18" y2="321.66"/><line class="cls-4" x1="1213.07" y1="293.65" x2="1245.41" y2="319.79"/><line class="cls-4" x1="1216.31" y1="291.78" x2="1248.65" y2="317.93"/><line class="cls-4" x1="1219.54" y1="289.91" x2="1251.86" y2="316.04"/><line class="cls-4" x1="1222.77" y1="288.05" x2="1255.12" y2="314.19"/><line class="cls-4" x1="1226.01" y1="286.18" x2="1258.35" y2="312.32"/><line class="cls-4" x1="1229.24" y1="284.31" x2="1261.58" y2="310.46"/><line class="cls-4" x1="1232.48" y1="282.45" x2="1264.82" y2="308.59"/><line class="cls-4" x1="1235.71" y1="280.58" x2="1268.05" y2="306.72"/><line class="cls-4" x1="1238.95" y1="278.71" x2="1271.29" y2="304.85"/><line class="cls-4" x1="1242.18" y1="276.84" x2="1274.52" y2="302.99"/><line class="cls-4" x1="1245.41" y1="274.98" x2="1277.75" y2="301.12"/><line class="cls-4" x1="1248.65" y1="273.11" x2="1280.99" y2="299.25"/><line class="cls-4" x1="1251.88" y1="271.24" x2="1284.22" y2="297.38"/><line class="cls-4" x1="1255.12" y1="269.37" x2="1287.46" y2="295.52"/><line class="cls-4" x1="1258.35" y1="267.51" x2="1290.69" y2="293.65"/><line class="cls-4" x1="1261.58" y1="265.64" x2="1293.93" y2="291.78"/><line class="cls-4" x1="1264.82" y1="263.77" x2="1297.16" y2="289.91"/><line class="cls-4" x1="1268.05" y1="261.9" x2="1300.39" y2="288.05"/><line class="cls-4" x1="1271.29" y1="260.04" x2="1303.63" y2="286.18"/><line class="cls-4" x1="1274.52" y1="258.17" x2="1306.85" y2="284.3"/><line class="cls-4" x1="1277.75" y1="256.3" x2="1310.1" y2="282.45"/><line class="cls-4" x1="1280.99" y1="254.43" x2="1313.33" y2="280.58"/><line class="cls-4" x1="1284.22" y1="252.57" x2="1316.56" y2="278.71"/><line class="cls-4" x1="1287.46" y1="250.7" x2="1319.8" y2="276.84"/><line class="cls-4" x1="1290.68" y1="248.84" x2="1323.03" y2="274.98"/><line class="cls-4" x1="1293.93" y1="246.96" x2="1326.26" y2="273.11"/><line class="cls-4" x1="1297.16" y1="245.1" x2="1329.51" y2="271.24"/><line class="cls-4" x1="1300.39" y1="243.23" x2="1332.73" y2="269.37"/><line class="cls-4" x1="1303.63" y1="241.36" x2="1335.97" y2="267.51"/><line class="cls-4" x1="1306.85" y1="239.49" x2="1339.2" y2="265.64"/><line class="cls-4" x1="1310.1" y1="237.63" x2="1342.44" y2="263.77"/><line class="cls-4" x1="1313.33" y1="235.76" x2="1345.67" y2="261.9"/><line class="cls-4" x1="1316.56" y1="233.89" x2="1348.85" y2="260.04"/><line class="cls-4" x1="1319.8" y1="232.03" x2="1352.14" y2="258.17"/><line class="cls-4" x1="1323.03" y1="230.16" x2="1355.37" y2="256.3"/><line class="cls-4" x1="1326.27" y1="228.29" x2="1358.61" y2="254.43"/><line class="cls-4" x1="1329.51" y1="226.43" x2="1361.85" y2="252.56"/><line class="cls-4" x1="1332.73" y1="224.56" x2="1365.08" y2="250.7"/><line class="cls-4" x1="1335.97" y1="222.69" x2="1368.31" y2="248.83"/><line class="cls-4" x1="1339.2" y1="220.82" x2="1371.54" y2="246.96"/><line class="cls-4" x1="1342.44" y1="218.95" x2="1374.78" y2="245.1"/><line class="cls-4" x1="1345.68" y1="217.09" x2="1378.01" y2="243.23"/><line class="cls-4" x1="1348.91" y1="215.22" x2="1381.25" y2="241.36"/><line class="cls-4" x1="1352.14" y1="213.35" x2="1384.47" y2="239.49"/><line class="cls-4" x1="1355.37" y1="211.48" x2="1387.72" y2="237.63"/><line class="cls-4" x1="1403.13" y1="239.93" x2="1254.31" y2="325.86"/><line class="cls-4" x1="1259.97" y1="326.33" x2="1408.85" y2="240.37"/><line class="cls-4" x1="1414.57" y1="240.8" x2="1265.63" y2="326.8"/><line class="cls-4" x1="1251.91" y1="323.54" x2="1274.52" y2="325.39"/><line class="cls-4" x1="1255.12" y1="321.66" x2="1277.78" y2="323.54"/><line class="cls-4" x1="1258.35" y1="319.79" x2="1280.99" y2="321.66"/><line class="cls-4" x1="1261.58" y1="317.93" x2="1284.22" y2="319.79"/><line class="cls-4" x1="1264.84" y1="316.04" x2="1287.46" y2="317.93"/><line class="cls-4" x1="1268.05" y1="314.19" x2="1290.72" y2="316.04"/><line class="cls-4" x1="1271.29" y1="312.32" x2="1293.93" y2="314.19"/><line class="cls-4" x1="1274.52" y1="310.46" x2="1297.16" y2="312.32"/><line class="cls-4" x1="1277.75" y1="308.59" x2="1300.4" y2="310.46"/><line class="cls-4" x1="1280.99" y1="306.72" x2="1303.63" y2="308.59"/><line class="cls-4" x1="1284.22" y1="304.85" x2="1306.86" y2="306.72"/><line class="cls-4" x1="1287.46" y1="302.99" x2="1310.1" y2="304.85"/><line class="cls-4" x1="1290.69" y1="301.12" x2="1313.33" y2="302.99"/><line class="cls-4" x1="1293.93" y1="299.25" x2="1316.56" y2="301.12"/><line class="cls-4" x1="1297.16" y1="297.38" x2="1319.8" y2="299.25"/><line class="cls-4" x1="1300.39" y1="295.52" x2="1323.03" y2="297.38"/><line class="cls-4" x1="1303.63" y1="293.65" x2="1326.27" y2="295.52"/><line class="cls-4" x1="1306.85" y1="291.79" x2="1329.5" y2="293.65"/><line class="cls-4" x1="1310.1" y1="289.91" x2="1332.75" y2="291.79"/><line class="cls-4" x1="1313.33" y1="288.05" x2="1335.97" y2="289.91"/><line class="cls-4" x1="1316.56" y1="286.18" x2="1339.2" y2="288.05"/><line class="cls-4" x1="1319.8" y1="284.31" x2="1342.44" y2="286.18"/><line class="cls-4" x1="1323.03" y1="282.45" x2="1345.69" y2="284.3"/><line class="cls-4" x1="1326.26" y1="280.58" x2="1348.91" y2="282.45"/><line class="cls-4" x1="1329.5" y1="278.71" x2="1352.14" y2="280.58"/><line class="cls-4" x1="1332.73" y1="276.84" x2="1355.37" y2="278.71"/><line class="cls-4" x1="1335.97" y1="274.98" x2="1358.61" y2="276.84"/><line class="cls-4" x1="1339.2" y1="273.11" x2="1361.84" y2="274.98"/><line class="cls-4" x1="1342.44" y1="271.24" x2="1365.08" y2="273.11"/><line class="cls-4" x1="1345.67" y1="269.37" x2="1368.31" y2="271.24"/><line class="cls-4" x1="1348.91" y1="267.51" x2="1371.54" y2="269.37"/><line class="cls-4" x1="1352.14" y1="265.64" x2="1374.78" y2="267.51"/><line class="cls-4" x1="1355.37" y1="263.77" x2="1378.01" y2="265.64"/><line class="cls-4" x1="1358.61" y1="261.9" x2="1381.25" y2="263.77"/><line class="cls-4" x1="1361.83" y1="260.04" x2="1384.48" y2="261.91"/><line class="cls-4" x1="1365.07" y1="258.17" x2="1387.72" y2="260.04"/><line class="cls-4" x1="1368.31" y1="256.3" x2="1390.95" y2="258.17"/><line class="cls-4" x1="1371.54" y1="254.43" x2="1394.18" y2="256.31"/><line class="cls-4" x1="1374.78" y1="252.57" x2="1397.43" y2="254.43"/><line class="cls-4" x1="1378.01" y1="250.7" x2="1400.65" y2="252.57"/><line class="cls-4" x1="1381.25" y1="248.83" x2="1403.88" y2="250.7"/><line class="cls-4" x1="1384.48" y1="246.96" x2="1407.12" y2="248.83"/><line class="cls-4" x1="1387.72" y1="245.1" x2="1410.35" y2="246.96"/><line class="cls-4" x1="1390.95" y1="243.23" x2="1413.59" y2="245.1"/><line class="cls-4" x1="1394.18" y1="241.36" x2="1416.82" y2="243.24"/><polyline class="cls-4" points="1459.83 454.52 1459.83 455 1433.95 469.94 1424.25 464.34 1424.25 463.85"/><polyline class="cls-4" points="1450.13 448.92 1424.25 463.85 1424.25 463.86 1433.95 469.46 1459.83 454.52 1459.83 454.52 1450.13 448.92"/><line class="cls-4" x1="1433.95" y1="469.94" x2="1433.95" y2="469.46"/><polyline class="cls-4" points="1433.95 417.66 1433.95 462.48 1437.19 464.35 1450.13 456.88 1450.13 412.06"/><line class="cls-4" x1="1437.19" y1="419.53" x2="1437.19" y2="464.35"/><polygon class="cls-4" points="1440.42 421.4 1446.89 417.66 1446.89 428.87 1440.42 432.6 1440.42 421.4"/><polyline class="cls-4" points="1443.66 419.53 1443.66 427 1440.42 428.87"/><line class="cls-4" x1="1443.66" y1="427" x2="1446.89" y2="428.87"/><polygon class="cls-4" points="1434.76 421.86 1436.38 422.8 1436.38 426.53 1434.76 425.6 1434.76 421.86"/><polygon class="cls-4" points="1440.42 436.34 1440.42 440.07 1446.89 436.34 1446.89 432.6 1440.42 436.34"/><polyline class="cls-4" points="1440.42 439.41 1446.12 436.13 1444.81 433.81"/><polygon class="cls-4" points="1440.42 443.81 1440.42 451.27 1446.89 447.54 1446.89 440.07 1440.42 443.81"/><line class="cls-4" x1="1440.42" y1="447.54" x2="1446.89" y2="443.81"/><line class="cls-4" x1="1443.66" y1="441.94" x2="1443.66" y2="449.41"/><line class="cls-4" x1="1443.11" y1="442.26" x2="1443.11" y2="445.99"/><polygon class="cls-4" points="1440.97 447.86 1443.11 446.62 1443.11 449.09 1440.97 450.33 1440.97 447.86"/><polygon class="cls-4" points="1444.22 446 1446.33 444.78 1446.33 447.22 1444.22 448.44 1444.22 446"/><line class="cls-4" x1="1444.22" y1="441.64" x2="1444.22" y2="445.37"/><line class="cls-4" x1="1445.27" y1="433.54" x2="1446.89" y2="436.34"/><line class="cls-4" x1="1443.11" y1="442.26" x2="1443.11" y2="445.99"/><polygon class="cls-4" points="1433.96 417.66 1437.19 419.53 1450.13 412.06 1450.13 412.06 1446.89 410.19 1433.96 417.66 1433.96 417.66"/><ellipse class="cls-4" cx="1445.32" cy="446.61" rx="0.91" ry="0.52" transform="translate(292.77 1426.42) rotate(-57.54)"/><polyline class="cls-4" points="1444.84 447.37 1446.43 448.39 1447.4 446.85 1445.84 445.86"/><ellipse class="cls-4" cx="1446.91" cy="447.62" rx="0.91" ry="0.52" transform="translate(292.65 1428.24) rotate(-57.54)"/><ellipse class="cls-4" cx="1442.07" cy="448.5" rx="0.91" ry="0.52" transform="translate(289.67 1424.56) rotate(-57.54)"/><polyline class="cls-4" points="1441.59 449.26 1443.18 450.28 1444.15 448.75 1442.59 447.75"/><ellipse class="cls-4" cx="1443.66" cy="449.51" rx="0.91" ry="0.52" transform="translate(289.55 1426.37) rotate(-57.54)"/><polygon class="cls-4" points="1435.24 423.25 1435.9 423.63 1435.9 425.14 1435.24 424.77 1435.24 423.25"/><path class="cls-1" d="M1435.54,424.2h0a7.4,7.4,0,0,0-3.48,8.18l3.35,13.56c.9,3.62,4.68,5.57,7.94,3.74l.31-.17"/><path class="cls-1" d="M1450.14,438.2l.7,1.92a5.69,5.69,0,0,1-4,7.5h0"/><polyline class="cls-4" points="1505.11 428.38 1505.11 428.87 1485.7 440.07 1476 434.47 1476 433.98"/><polygon class="cls-4" points="1476 433.98 1485.7 439.58 1505.11 428.38 1505.11 428.38 1495.4 422.77 1476 433.98 1476 433.98"/><line class="cls-4" x1="1485.7" y1="440.07" x2="1485.7" y2="439.58"/><polyline class="cls-4" points="1482.47 359.77 1482.47 434.47 1485.7 436.34 1498.64 428.87 1498.64 357.91"/><line class="cls-4" x1="1485.7" y1="436.34" x2="1485.7" y2="361.65"/><polyline class="cls-4" points="1556.85 398.5 1556.85 398.99 1530.98 413.93 1521.28 408.33 1521.28 407.84"/><polyline class="cls-4" points="1547.15 392.91 1521.28 407.84 1521.28 407.84 1530.98 413.44 1556.85 398.5 1556.85 398.5 1547.15 392.91"/><line class="cls-4" x1="1530.98" y1="413.93" x2="1530.98" y2="413.44"/><polyline class="cls-4" points="1530.98 361.65 1530.98 406.47 1534.21 408.33 1547.15 400.87 1547.15 356.05"/><line class="cls-4" x1="1534.21" y1="363.52" x2="1534.21" y2="408.33"/><polygon class="cls-4" points="1537.45 365.38 1543.91 361.65 1543.91 372.85 1537.45 376.59 1537.45 365.38"/><polyline class="cls-4" points="1540.68 363.52 1540.68 370.99 1537.45 372.85"/><line class="cls-4" x1="1540.68" y1="370.99" x2="1543.92" y2="372.85"/><polygon class="cls-4" points="1531.79 365.85 1533.4 366.79 1533.4 370.52 1531.79 369.59 1531.79 365.85"/><polygon class="cls-4" points="1537.45 380.32 1537.45 384.06 1543.91 380.32 1543.91 376.59 1537.45 380.32"/><polyline class="cls-4" points="1537.45 383.4 1543.14 380.11 1541.83 377.79"/><polygon class="cls-4" points="1537.45 387.79 1537.45 395.26 1543.91 391.53 1543.91 384.06 1537.45 387.79"/><line class="cls-4" x1="1537.45" y1="391.53" x2="1543.92" y2="387.79"/><line class="cls-4" x1="1540.68" y1="385.93" x2="1540.68" y2="393.4"/><line class="cls-4" x1="1540.13" y1="386.24" x2="1540.13" y2="389.98"/><polygon class="cls-4" points="1537.99 391.84 1540.13 390.61 1540.13 393.08 1537.99 394.31 1537.99 391.84"/><polygon class="cls-4" points="1541.24 389.99 1543.35 388.76 1543.35 391.2 1541.24 392.42 1541.24 389.99"/><line class="cls-4" x1="1541.24" y1="385.63" x2="1541.24" y2="389.36"/><line class="cls-4" x1="1542.3" y1="377.52" x2="1543.92" y2="380.32"/><line class="cls-4" x1="1540.13" y1="386.24" x2="1540.13" y2="389.98"/><polygon class="cls-4" points="1530.98 361.65 1534.21 363.52 1547.15 356.05 1547.15 356.05 1543.91 354.18 1530.98 361.65 1530.98 361.65"/><ellipse class="cls-4" cx="1542.35" cy="390.6" rx="0.91" ry="0.52" transform="translate(384.98 1482.34) rotate(-57.54)"/><polyline class="cls-4" points="1541.86 391.36 1543.45 392.37 1544.43 390.84 1542.87 389.85"/><ellipse class="cls-4" cx="1543.94" cy="391.61" rx="0.91" ry="0.52" transform="matrix(0.54, -0.84, 0.84, 0.54, 384.87, 1484.15)"/><ellipse class="cls-4" cx="1539.1" cy="392.49" rx="0.91" ry="0.52" transform="translate(381.88 1480.47) rotate(-57.54)"/><polyline class="cls-4" points="1538.61 393.25 1540.2 394.26 1541.17 392.73 1539.62 391.74"/><ellipse class="cls-4" cx="1540.69" cy="393.5" rx="0.91" ry="0.52" transform="translate(381.76 1482.28) rotate(-57.54)"/><polygon class="cls-4" points="1532.27 367.24 1532.92 367.62 1532.92 369.13 1532.27 368.75 1532.27 367.24"/><path class="cls-1" d="M1532.56,368.19h0a7.39,7.39,0,0,0-3.48,8.18l3.35,13.56c.9,3.62,4.68,5.56,7.94,3.73l.32-.16"/><path class="cls-1" d="M1547.16,382.19l.71,1.91a5.7,5.7,0,0,1-4,7.51h0"/><polygon class="cls-4" points="1349.91 384.06 1349.91 387.8 1388.72 417.67 1388.72 417.67 1388.72 413.94 1349.91 384.06 1349.91 384.06"/><polygon class="cls-4" points="1349.91 384.06 1508.38 292.56 1547.19 322.44 1388.72 413.94 1349.91 384.06 1349.91 384.06"/><polygon class="cls-4" points="1421.06 421.41 1388.7 417.67 1388.7 417.67 1388.7 413.94 1421.06 417.67 1579.55 326.16 1579.55 329.9 1421.06 421.41"/><polygon class="cls-4" points="1547.19 322.44 1579.55 326.16 1421.06 417.67 1388.7 413.94 1388.7 413.94 1547.19 322.44"/><polygon class="cls-4" points="1398.42 412.07 1547.18 326.18 1570.07 327.91 1421.06 413.94 1398.42 412.07"/><polygon class="cls-4" points="1356.38 384.06 1388.7 410.22 1540.72 322.44 1508.38 296.29 1356.38 384.06"/><line class="cls-4" x1="1359.07" y1="386.24" x2="1511.08" y2="298.47"/><line class="cls-4" x1="1361.77" y1="388.42" x2="1513.77" y2="300.65"/><line class="cls-4" x1="1364.47" y1="390.61" x2="1516.47" y2="302.83"/><line class="cls-4" x1="1519.16" y1="305.01" x2="1367.15" y2="392.78"/><line class="cls-4" x1="1369.84" y1="394.96" x2="1521.86" y2="307.19"/><line class="cls-4" x1="1524.55" y1="309.37" x2="1372.53" y2="397.13"/><line class="cls-4" x1="1375.23" y1="399.32" x2="1527.25" y2="311.54"/><line class="cls-4" x1="1529.95" y1="313.72" x2="1377.92" y2="401.5"/><line class="cls-4" x1="1380.6" y1="403.67" x2="1532.64" y2="315.9"/><line class="cls-4" x1="1535.34" y1="318.08" x2="1383.31" y2="405.86"/><line class="cls-4" x1="1386" y1="408.04" x2="1538.03" y2="320.26"/><line class="cls-4" x1="1359.61" y1="382.19" x2="1391.96" y2="408.34"/><line class="cls-4" x1="1362.85" y1="380.33" x2="1395.19" y2="406.47"/><line class="cls-4" x1="1366.08" y1="378.46" x2="1398.42" y2="404.6"/><line class="cls-4" x1="1369.32" y1="376.59" x2="1401.63" y2="402.72"/><line class="cls-4" x1="1372.55" y1="374.72" x2="1404.89" y2="400.87"/><line class="cls-4" x1="1375.78" y1="372.86" x2="1408.13" y2="399"/><line class="cls-4" x1="1379.02" y1="370.99" x2="1411.36" y2="397.13"/><line class="cls-4" x1="1382.25" y1="369.12" x2="1414.59" y2="395.27"/><line class="cls-4" x1="1385.49" y1="367.25" x2="1417.83" y2="393.4"/><line class="cls-4" x1="1388.72" y1="365.39" x2="1421.06" y2="391.53"/><line class="cls-4" x1="1391.96" y1="363.52" x2="1424.3" y2="389.66"/><line class="cls-4" x1="1395.19" y1="361.65" x2="1427.53" y2="387.8"/><line class="cls-4" x1="1398.42" y1="359.78" x2="1430.77" y2="385.93"/><line class="cls-4" x1="1401.66" y1="357.92" x2="1434" y2="384.06"/><line class="cls-4" x1="1404.89" y1="356.05" x2="1437.23" y2="382.19"/><line class="cls-4" x1="1408.13" y1="354.18" x2="1440.47" y2="380.33"/><line class="cls-4" x1="1411.36" y1="352.32" x2="1443.7" y2="378.46"/><line class="cls-4" x1="1414.59" y1="350.45" x2="1446.94" y2="376.59"/><line class="cls-4" x1="1417.83" y1="348.58" x2="1450.17" y2="374.72"/><line class="cls-4" x1="1421.07" y1="346.72" x2="1453.4" y2="372.86"/><line class="cls-4" x1="1424.3" y1="344.85" x2="1456.62" y2="370.98"/><line class="cls-4" x1="1427.53" y1="342.98" x2="1459.87" y2="369.12"/><line class="cls-4" x1="1430.77" y1="341.11" x2="1463.11" y2="367.25"/><line class="cls-4" x1="1434" y1="339.24" x2="1466.34" y2="365.39"/><line class="cls-4" x1="1437.23" y1="337.38" x2="1469.57" y2="363.52"/><line class="cls-4" x1="1440.46" y1="335.51" x2="1472.81" y2="361.65"/><line class="cls-4" x1="1443.7" y1="333.64" x2="1476.04" y2="359.79"/><line class="cls-4" x1="1446.94" y1="331.77" x2="1479.28" y2="357.91"/><line class="cls-4" x1="1450.17" y1="329.91" x2="1482.51" y2="356.05"/><line class="cls-4" x1="1453.4" y1="328.04" x2="1485.75" y2="354.18"/><line class="cls-4" x1="1456.62" y1="326.16" x2="1488.98" y2="352.31"/><line class="cls-4" x1="1459.87" y1="324.3" x2="1492.21" y2="350.45"/><line class="cls-4" x1="1463.11" y1="322.44" x2="1495.45" y2="348.58"/><line class="cls-4" x1="1466.34" y1="320.57" x2="1498.63" y2="346.71"/><line class="cls-4" x1="1469.58" y1="318.7" x2="1501.91" y2="344.84"/><line class="cls-4" x1="1472.81" y1="316.83" x2="1505.15" y2="342.98"/><line class="cls-4" x1="1476.04" y1="314.97" x2="1508.38" y2="341.11"/><line class="cls-4" x1="1479.28" y1="313.1" x2="1511.63" y2="339.24"/><line class="cls-4" x1="1482.51" y1="311.23" x2="1514.85" y2="337.38"/><line class="cls-4" x1="1485.74" y1="309.37" x2="1518.09" y2="335.51"/><line class="cls-4" x1="1488.98" y1="307.5" x2="1521.32" y2="333.64"/><line class="cls-4" x1="1492.21" y1="305.63" x2="1524.55" y2="331.77"/><line class="cls-4" x1="1495.46" y1="303.77" x2="1527.79" y2="329.91"/><line class="cls-4" x1="1498.68" y1="301.9" x2="1531.02" y2="328.04"/><line class="cls-4" x1="1501.92" y1="300.03" x2="1534.24" y2="326.16"/><line class="cls-4" x1="1505.15" y1="298.16" x2="1537.49" y2="324.3"/><line class="cls-4" x1="1552.9" y1="326.61" x2="1404.08" y2="412.54"/><line class="cls-4" x1="1409.74" y1="413.01" x2="1558.62" y2="327.04"/><line class="cls-4" x1="1564.34" y1="327.47" x2="1415.4" y2="413.47"/><line class="cls-4" x1="1401.68" y1="410.22" x2="1424.3" y2="412.07"/><line class="cls-4" x1="1404.89" y1="408.34" x2="1427.55" y2="410.22"/><line class="cls-4" x1="1408.13" y1="406.47" x2="1430.77" y2="408.34"/><line class="cls-4" x1="1411.36" y1="404.6" x2="1434" y2="406.47"/><line class="cls-4" x1="1414.62" y1="402.72" x2="1437.23" y2="404.6"/><line class="cls-4" x1="1417.83" y1="400.87" x2="1440.49" y2="402.72"/><line class="cls-4" x1="1421.06" y1="399" x2="1443.7" y2="400.87"/><line class="cls-4" x1="1424.3" y1="397.13" x2="1446.94" y2="399"/><line class="cls-4" x1="1427.53" y1="395.27" x2="1450.17" y2="397.13"/><line class="cls-4" x1="1430.77" y1="393.4" x2="1453.41" y2="395.27"/><line class="cls-4" x1="1434" y1="391.53" x2="1456.64" y2="393.4"/><line class="cls-4" x1="1437.23" y1="389.66" x2="1459.87" y2="391.53"/><line class="cls-4" x1="1440.47" y1="387.8" x2="1463.11" y2="389.66"/><line class="cls-4" x1="1443.7" y1="385.93" x2="1466.34" y2="387.8"/><line class="cls-4" x1="1446.94" y1="384.06" x2="1469.57" y2="385.93"/><line class="cls-4" x1="1450.17" y1="382.19" x2="1472.81" y2="384.06"/><line class="cls-4" x1="1453.4" y1="380.33" x2="1476.05" y2="382.19"/><line class="cls-4" x1="1456.62" y1="378.47" x2="1479.28" y2="380.33"/><line class="cls-4" x1="1459.87" y1="376.59" x2="1482.53" y2="378.47"/><line class="cls-4" x1="1463.11" y1="374.72" x2="1485.74" y2="376.59"/><line class="cls-4" x1="1466.34" y1="372.86" x2="1488.98" y2="374.72"/><line class="cls-4" x1="1469.57" y1="370.99" x2="1492.21" y2="372.86"/><line class="cls-4" x1="1472.81" y1="369.12" x2="1495.47" y2="370.98"/><line class="cls-4" x1="1476.04" y1="367.26" x2="1498.68" y2="369.12"/><line class="cls-4" x1="1479.28" y1="365.39" x2="1501.92" y2="367.25"/><line class="cls-4" x1="1482.51" y1="363.52" x2="1505.15" y2="365.39"/><line class="cls-4" x1="1485.74" y1="361.65" x2="1508.39" y2="363.52"/><line class="cls-4" x1="1488.98" y1="359.78" x2="1511.62" y2="361.66"/><line class="cls-4" x1="1492.21" y1="357.92" x2="1514.86" y2="359.78"/><line class="cls-4" x1="1495.45" y1="356.05" x2="1518.09" y2="357.92"/><line class="cls-4" x1="1498.68" y1="354.18" x2="1521.32" y2="356.05"/><line class="cls-4" x1="1501.91" y1="352.32" x2="1524.55" y2="354.19"/><line class="cls-4" x1="1505.15" y1="350.45" x2="1527.79" y2="352.32"/><line class="cls-4" x1="1508.38" y1="348.58" x2="1531.02" y2="350.45"/><line class="cls-4" x1="1511.61" y1="346.72" x2="1534.26" y2="348.58"/><line class="cls-4" x1="1514.85" y1="344.84" x2="1537.5" y2="346.71"/><line class="cls-4" x1="1518.09" y1="342.98" x2="1540.72" y2="344.84"/><line class="cls-4" x1="1521.32" y1="341.11" x2="1543.96" y2="342.98"/><line class="cls-4" x1="1524.55" y1="339.24" x2="1547.2" y2="341.11"/><line class="cls-4" x1="1527.79" y1="337.38" x2="1550.43" y2="339.25"/><line class="cls-4" x1="1531.02" y1="335.51" x2="1553.66" y2="337.38"/><line class="cls-4" x1="1534.26" y1="333.64" x2="1556.9" y2="335.51"/><line class="cls-4" x1="1537.5" y1="331.78" x2="1560.13" y2="333.64"/><line class="cls-4" x1="1540.72" y1="329.9" x2="1563.36" y2="331.77"/><line class="cls-4" x1="1543.96" y1="328.04" x2="1566.6" y2="329.91"/><path class="cls-4" d="M647.55,1732.25v8.19l-4.95-2.86a4.27,4.27,0,0,1-2.14-3.7v-5.72"/><ellipse class="cls-4" cx="649.11" cy="1734.51" rx="6.23" ry="4.61" transform="matrix(0.15, -0.99, 0.99, 0.15, -1164.31, 2110.51)"/><ellipse class="cls-4" cx="649.11" cy="1734.51" rx="3.46" ry="2.56" transform="translate(-1164.31 2110.51) rotate(-81.2)"/><path class="cls-4" d="M619.21,1748.61v8.19l-5-2.86a4.25,4.25,0,0,1-2.14-3.7v-5.72"/><ellipse class="cls-4" cx="620.77" cy="1750.87" rx="6.23" ry="4.61" transform="matrix(0.15, -0.99, 0.99, 0.15, -1204.48, 2096.36)"/><ellipse class="cls-4" cx="620.77" cy="1750.87" rx="3.46" ry="2.56" transform="matrix(0.15, -0.99, 0.99, 0.15, -1204.48, 2096.36)"/><path class="cls-4" d="M628.44,1700.31l3.8-2.2a11.87,11.87,0,0,1,12,.08l17.28,10.3"/><path class="cls-4" d="M649.71,1712.58l-21.27-12.27a14.13,14.13,0,0,0-14.17,0L600.94,1708a34.17,34.17,0,0,0-12.52,12.52l-2.51,4.34-7.49,4.33a6.28,6.28,0,0,0-3.14,5.44v12.58l21.26,12.44h0v-12.74a6.29,6.29,0,0,1,3.14-5.45l8.31-4.8"/><path class="cls-4" d="M607.18,1745.32v-3.17a18.71,18.71,0,0,1,2.5-9.35h0a34.17,34.17,0,0,1,12.52-12.52l13.33-7.7a14.19,14.19,0,0,1,14.18,0h0l7.08-4.09a4.73,4.73,0,0,1,7.09,4v.08l-3.54,10.24-7.09,4.11-2.57-.5a6.77,6.77,0,0,0-8.06,6.64h0l-17.72,10.19-2.58-.5a6.77,6.77,0,0,0-8.05,6.66h0l-17.72,10.23"/><line class="cls-4" x1="594.08" y1="1713.21" x2="615.88" y2="1724.98"/><polyline class="cls-1" points="663.88 1712.51 596.54 1751.46 575.28 1739.19"/><path class="cls-4" d="M617.77,1739.19h0a21.35,21.35,0,0,1,10.64-18.44l4.85-2.82a12.91,12.91,0,0,1,16.34,2.84h0"/><line class="cls-4" x1="585.91" y1="1724.86" x2="608" y2="1736.66"/><line class="cls-4" x1="632.22" y1="1718.53" x2="632.22" y2="1739.05"/><path class="cls-4" d="M596.55,1751.46l-7.09-4.1h0a6.56,6.56,0,0,0,3.67,5.9h0a6.58,6.58,0,0,0,3.41.66Z"/><path class="cls-4" d="M575.29,1739.19l7.08,4.1h0a5.64,5.64,0,0,1-7.09-.34Z"/><path class="cls-4" d="M660.44,1707.85l-2.6,1.48a1.73,1.73,0,0,0,0,3h0l2.2-1.06a6.23,6.23,0,0,0,2.44-2.07l-.94-.71Z"/><line class="cls-4" x1="617.77" y1="1739.19" x2="649.6" y2="1720.77"/><polyline class="cls-4" points="877.57 1450.75 877.57 1677.61 824.62 1708.18 789.33 1687.8 789.33 1460.94"/><polyline class="cls-4" points="789.33 1463.6 824.62 1483.98 877.57 1453.41"/><polygon class="cls-4" points="842.27 1430.37 789.33 1460.94 789.33 1460.94 824.62 1481.32 877.56 1450.75 877.56 1450.75 842.27 1430.37"/><polygon class="cls-4" points="842.27 1433.03 793.94 1460.94 824.62 1478.66 872.98 1450.74 842.27 1433.03"/><polyline class="cls-4" points="870.76 1452.12 842.27 1435.67 796.23 1462.26"/><line class="cls-4" x1="842.27" y1="1433.03" x2="842.27" y2="1435.67"/><line class="cls-4" x1="824.62" y1="1481.32" x2="824.62" y2="1708.18"/><polyline class="cls-4" points="1336.37 982.06 1336.37 1249.63 1265.78 1290.39 1195.19 1249.63 1195.19 982.06"/><polyline class="cls-4" points="1195.19 984.69 1265.78 1025.45 1336.37 984.69"/><polygon class="cls-4" points="1265.78 941.3 1195.19 982.06 1195.19 982.07 1265.78 1022.82 1336.37 982.07 1336.37 982.06 1265.78 941.3"/><polygon class="cls-4" points="1265.78 943.93 1199.8 982.06 1265.78 1020.16 1331.79 982.05 1265.78 943.93"/><polyline class="cls-4" points="1329.48 983.38 1265.78 946.6 1202.08 983.38"/><line class="cls-4" x1="1265.78" y1="943.93" x2="1265.78" y2="946.6"/><line class="cls-4" x1="1265.78" y1="1022.82" x2="1265.78" y2="1290.39"/><polygon class="cls-4" points="1283.43 974.5 1265.78 984.69 1248.13 974.5 1248.13 933.74 1265.78 923.55 1283.43 943.93 1283.43 974.5"/><polyline class="cls-4" points="1248.13 933.74 1265.78 954.12 1283.43 943.93"/><line class="cls-4" x1="1265.78" y1="954.12" x2="1265.78" y2="984.69"/><polyline class="cls-4" points="948.11 268.44 948.11 495.34 1036.35 546.29 1106.93 505.53 1106.93 278.63"/><polyline class="cls-4" points="948.1 271.18 1036.34 322.13 1106.93 281.37"/><polygon class="cls-4" points="1106.93 278.63 1018.7 227.68 948.11 268.44 948.11 268.44 1036.34 319.39 1106.93 278.63 1106.93 278.63"/><polygon class="cls-4" points="1018.7 230.42 1102.23 278.66 1036.34 316.7 952.8 268.47 1018.7 230.42"/><polyline class="cls-4" points="1099.93 280 1018.7 233.1 955.12 269.81"/><line class="cls-4" x1="1018.7" y1="230.42" x2="1018.7" y2="233.1"/><line class="cls-4" x1="1036.34" y1="319.39" x2="1036.35" y2="546.29"/><polyline class="cls-5" points="1071.64 271.63 1071.64 281.37 1036.35 301.75 1018.7 291.56 1018.7 282.05"/><polyline class="cls-5" points="1071.64 273.4 1036.34 293.78 1018.7 283.59"/><polyline class="cls-5" points="1023.3 282.7 1053.99 264.98 1067.04 272.51"/><polygon class="cls-5" points="1018.7 281.8 1053.99 261.42 1071.64 271.61 1071.64 271.62 1036.34 291.99 1018.7 281.81 1018.7 281.8"/><polygon class="cls-5" points="1053.99 263.21 1021.76 281.81 1036.34 290.23 1068.57 271.62 1053.99 263.21"/><line class="cls-5" x1="1053.99" y1="263.21" x2="1053.99" y2="264.97"/><line class="cls-5" x1="1036.35" y1="301.75" x2="1036.34" y2="291.99"/><polyline class="cls-4" points="1142.25 401.13 1142.25 607.66 1195.19 638.23 1265.78 597.47 1265.78 390.93"/><polyline class="cls-4" points="1265.78 393.68 1195.19 434.44 1142.24 403.87"/><polygon class="cls-4" points="1212.84 360.36 1265.78 390.93 1265.78 390.94 1195.19 431.69 1142.25 401.13 1142.25 401.12 1212.84 360.36"/><polygon class="cls-4" points="1212.84 363.11 1146.94 401.15 1195.19 429.01 1261.09 390.96 1212.84 363.11"/><polyline class="cls-4" points="1149.24 402.49 1212.84 365.77 1258.78 392.3"/><line class="cls-4" x1="1195.19" y1="431.69" x2="1195.19" y2="638.23"/><line class="cls-4" x1="1212.84" y1="363.11" x2="1212.84" y2="365.77"/><polyline class="cls-5" points="1177.54 381.73 1177.54 403.87 1195.19 414.06 1212.84 403.87 1212.84 381.73"/><line class="cls-5" x1="1195.19" y1="391.91" x2="1195.19" y2="414.06"/><polyline class="cls-5" points="1208.26 382.61 1195.19 375.06 1182.27 382.69"/><polyline class="cls-5" points="1177.54 383.49 1195.19 393.68 1212.84 383.49"/><polygon class="cls-5" points="1195.19 371.54 1177.55 381.72 1177.55 381.73 1195.19 391.92 1212.83 381.73 1212.83 381.72 1195.19 371.54"/><polygon class="cls-5" points="1195.19 373.3 1180.59 381.72 1195.19 390.15 1209.79 381.72 1195.19 373.3"/><line class="cls-5" x1="1195.19" y1="373.3" x2="1195.19" y2="375.06"/><polyline class="cls-4" points="1512.85 1185.86 1512.85 1351.54 1442.24 1392.29 1371.67 1351.54 1371.67 1185.86"/><polyline class="cls-4" points="1371.67 1188.49 1442.26 1229.25 1512.85 1188.49"/><polygon class="cls-4" points="1442.26 1145.1 1371.67 1185.86 1371.67 1185.87 1442.26 1226.62 1512.85 1185.87 1512.85 1185.86 1442.26 1145.1"/><polygon class="cls-4" points="1442.26 1147.73 1376.28 1185.86 1442.26 1223.96 1508.27 1185.85 1442.26 1147.73"/><polyline class="cls-4" points="1505.96 1187.18 1442.26 1150.4 1378.56 1187.18"/><line class="cls-4" x1="1442.26" y1="1147.73" x2="1442.26" y2="1150.4"/><line class="cls-4" x1="1442.26" y1="1226.62" x2="1442.24" y2="1392.29"/><polyline class="cls-5" points="1406.98 1186.71 1406.98 1188.49 1442.27 1208.87 1477.57 1188.49 1477.57 1186.71"/><polygon class="cls-5" points="1442.27 1166.33 1406.98 1186.71 1406.98 1186.72 1442.27 1207.09 1477.57 1186.72 1477.57 1186.71 1442.27 1166.33"/><line class="cls-5" x1="1442.27" y1="1208.87" x2="1442.27" y2="1207.09"/><polyline class="cls-5" points="1424.63 1169.12 1424.63 1187.6 1442.27 1197.79 1459.92 1187.6 1459.92 1169.12"/><line class="cls-5" x1="1442.27" y1="1197.79" x2="1442.27" y2="1177.41"/><polyline class="cls-5" points="1421.13 1164.97 1421.13 1167.1 1442.27 1179.31 1463.42 1167.1 1463.42 1164.97"/><polygon class="cls-5" points="1442.27 1152.76 1421.13 1164.97 1421.13 1164.97 1442.27 1177.18 1463.42 1164.97 1463.42 1164.97 1442.27 1152.76"/><line class="cls-5" x1="1442.27" y1="1179.31" x2="1442.27" y2="1177.18"/><polyline class="cls-4" points="665.75 757.84 665.75 943.9 718.69 974.47 842.22 903.14 842.22 717.08"/><polyline class="cls-4" points="665.75 760.48 718.69 791.05 842.23 719.72"/><polygon class="cls-4" points="842.22 717.08 789.28 686.51 665.75 757.84 665.75 757.84 718.69 788.41 842.22 717.09 842.22 717.08"/><polygon class="cls-4" points="789.28 689.15 837.64 717.08 718.69 785.76 670.33 757.84 789.28 689.15"/><polyline class="cls-4" points="835.35 718.4 789.28 691.81 672.63 759.16"/><line class="cls-4" x1="789.28" y1="689.15" x2="789.28" y2="691.81"/><line class="cls-4" x1="718.69" y1="974.47" x2="718.69" y2="788.41"/><polygon class="cls-4" points="701.04 760.48 718.69 770.67 736.34 760.48 736.34 719.72 718.69 709.53 701.04 729.91 701.04 760.48"/><polyline class="cls-4" points="736.34 719.72 718.69 740.1 701.04 729.91"/><line class="cls-4" x1="718.69" y1="740.1" x2="718.69" y2="770.67"/><polyline class="cls-5" points="806.94 717.95 806.94 719.72 771.64 740.1 753.99 729.91 753.99 728.13"/><polygon class="cls-5" points="789.29 707.75 754 728.13 754 728.14 771.64 738.33 806.93 717.95 806.93 717.94 789.29 707.75"/><line class="cls-5" x1="771.64" y1="740.1" x2="771.64" y2="738.33"/><polyline class="cls-4" points="648.08 441.97 648.12 607.68 577.5 648.42 542.2 628.04 542.2 462.35"/><polyline class="cls-4" points="542.2 465.02 577.49 485.4 648.09 444.64"/><polygon class="cls-4" points="542.2 462.36 577.49 482.73 648.08 441.98 648.08 441.97 612.79 421.59 542.2 462.35 542.2 462.36"/><polygon class="cls-4" points="612.79 424.26 546.79 462.37 577.49 480.1 643.49 441.99 612.79 424.26"/><polyline class="cls-4" points="641.19 443.32 612.79 426.92 549.09 463.7"/><line class="cls-4" x1="612.79" y1="424.26" x2="612.79" y2="426.92"/><line class="cls-4" x1="577.49" y1="482.73" x2="577.5" y2="648.42"/><polyline class="cls-4" points="701.04 350.71 701.04 516.37 753.98 546.94 806.94 516.36 806.92 350.71"/><polyline class="cls-4" points="701.04 353.35 753.98 383.92 806.92 353.35"/><polygon class="cls-4" points="753.98 320.14 701.04 350.71 701.04 350.71 753.98 381.28 806.92 350.71 806.92 350.71 753.98 320.14"/><polygon class="cls-4" points="753.98 322.78 705.59 350.72 753.98 378.66 802.37 350.72 753.98 322.78"/><polyline class="cls-4" points="800.06 352.05 753.98 325.44 707.9 352.05"/><line class="cls-4" x1="753.98" y1="322.78" x2="753.98" y2="325.45"/><line class="cls-4" x1="753.98" y1="381.28" x2="753.98" y2="546.94"/><polyline class="cls-5" points="736.33 351.55 736.33 353.33 753.98 363.52 771.63 353.33 771.63 351.55"/><polygon class="cls-5" points="753.98 341.36 736.34 351.55 736.34 351.56 753.98 361.74 771.62 351.56 771.62 351.55 753.98 341.36"/><line class="cls-5" x1="753.98" y1="363.52" x2="753.98" y2="361.74"/><polyline class="cls-4" points="577.95 1236.56 577.97 1341.2 472.07 1402.35 401.48 1361.58 401.48 1256.94"/><polyline class="cls-4" points="401.48 1259.68 472.07 1300.44 577.96 1239.3"/><polygon class="cls-4" points="577.95 1236.56 507.37 1195.8 401.48 1256.94 401.48 1256.94 472.07 1297.7 577.95 1236.56 577.95 1236.56"/><polygon class="cls-4" points="507.37 1198.54 573.2 1236.56 472.07 1294.95 406.23 1256.93 507.37 1198.54"/><polyline class="cls-4" points="570.91 1237.88 507.37 1201.18 408.34 1258.15"/><line class="cls-4" x1="507.37" y1="1198.54" x2="507.37" y2="1201.38"/><line class="cls-4" x1="472.07" y1="1297.7" x2="472.07" y2="1402.35"/><polyline class="cls-5" points="542.67 1220.82 542.67 1239.3 525.02 1249.49 507.38 1239.3 507.38 1220.82"/><line class="cls-5" x1="525.02" y1="1249.49" x2="525.02" y2="1229.11"/><polyline class="cls-5" points="546.17 1216.67 546.17 1218.8 525.02 1231.01 503.88 1218.8 503.88 1216.67"/><polygon class="cls-5" points="525.02 1204.46 546.17 1216.66 546.17 1216.67 525.02 1228.88 503.88 1216.67 503.88 1216.66 525.02 1204.46"/><line class="cls-5" x1="525.02" y1="1231.01" x2="525.02" y2="1228.88"/><polyline class="cls-4" points="824.59 931 824.57 1035.63 930.48 1096.78 1001.07 1056.02 1001.06 951.38"/><polyline class="cls-4" points="1001.07 954.12 930.48 994.88 824.59 933.74"/><polygon class="cls-4" points="824.59 930.99 895.18 890.24 1001.06 951.37 1001.06 951.38 930.48 992.13 824.59 931 824.59 930.99"/><polygon class="cls-4" points="895.18 892.98 829.34 930.99 930.48 989.38 996.31 951.37 895.18 892.98"/><polyline class="cls-4" points="831.63 932.31 895.18 895.62 994.2 952.59"/><line class="cls-4" x1="895.18" y1="892.98" x2="895.18" y2="895.81"/><line class="cls-4" x1="930.48" y1="992.13" x2="930.48" y2="1096.78"/><polyline class="cls-5" points="859.87 915.26 859.87 933.74 877.52 943.93 895.17 933.74 895.17 915.26"/><line class="cls-5" x1="877.52" y1="943.93" x2="877.52" y2="923.55"/><polyline class="cls-5" points="856.37 911.1 856.37 913.23 877.52 925.45 898.67 913.23 898.67 911.1"/><polygon class="cls-5" points="877.52 898.89 856.38 911.1 856.38 911.11 877.52 923.32 898.67 911.11 898.67 911.1 877.52 898.89"/><line class="cls-5" x1="877.52" y1="925.45" x2="877.52" y2="923.32"/><polyline class="cls-4" points="101.01 941.31 101.01 1106.97 153.95 1137.54 206.91 1106.96 206.89 941.31"/><polyline class="cls-4" points="101.01 943.95 153.95 974.52 206.89 943.95"/><polygon class="cls-4" points="153.95 910.74 101.01 941.31 101.01 941.31 153.95 971.88 206.89 941.31 206.89 941.31 153.95 910.74"/><polygon class="cls-4" points="153.95 913.38 105.56 941.32 153.95 969.26 202.34 941.32 153.95 913.38"/><polyline class="cls-4" points="200.03 942.65 153.95 916.05 107.87 942.65"/><line class="cls-4" x1="153.95" y1="913.38" x2="153.95" y2="916.05"/><line class="cls-4" x1="153.95" y1="971.88" x2="153.95" y2="1137.54"/><polyline class="cls-5" points="136.3 942.15 136.3 943.93 153.95 954.12 171.6 943.93 171.6 942.15"/><polygon class="cls-5" points="153.95 931.97 136.31 942.15 136.31 942.16 153.95 952.35 171.59 942.16 171.59 942.15 153.95 931.97"/><line class="cls-5" x1="153.95" y1="954.12" x2="153.95" y2="952.35"/><polyline class="cls-4" points="1389.32 951.75 1389.32 1035.7 1477.56 1086.65 1565.79 1035.7 1565.79 951.75"/><polyline class="cls-4" points="1389.32 954.4 1477.56 1005.36 1565.8 954.4"/><polygon class="cls-4" points="1477.56 900.8 1389.32 951.75 1389.32 951.75 1477.56 1002.7 1565.79 951.75 1565.79 951.75 1477.56 900.8"/><polygon class="cls-4" points="1477.56 903.46 1393.93 951.74 1477.56 1000.02 1561.18 951.74 1477.56 903.46"/><polyline class="cls-4" points="1558.86 953.08 1477.56 906.13 1396.25 953.08"/><line class="cls-4" x1="1477.56" y1="903.46" x2="1477.56" y2="906.13"/><line class="cls-4" x1="1477.56" y1="1002.7" x2="1477.56" y2="1086.65"/><polyline class="cls-4" points="1512.86 920.93 1512.94 1106.97 1548.15 1127.41 1636.38 1076.46 1636.38 890.36"/><polyline class="cls-4" points="1636.39 893.04 1548.15 943.99 1512.85 923.61"/><polygon class="cls-4" points="1512.86 920.93 1601.09 869.98 1636.38 890.36 1636.38 890.36 1548.15 941.31 1512.86 920.93 1512.86 920.93"/><polygon class="cls-4" points="1601.09 872.66 1517.47 920.95 1548.15 938.66 1631.76 890.37 1601.09 872.66"/><polyline class="cls-4" points="1519.85 922.32 1601.09 875.41 1629.39 891.75"/><line class="cls-4" x1="1601.09" y1="872.66" x2="1601.09" y2="875.41"/><line class="cls-4" x1="1548.15" y1="941.31" x2="1548.15" y2="1127.41"/><polyline class="cls-4" points="506.92 1460.81 507.04 1504.38 524.69 1514.57 559.86 1494.19 559.86 1450.62"/><polyline class="cls-4" points="506.92 1463.55 524.56 1473.74 559.86 1453.36"/><polygon class="cls-4" points="542.21 1440.43 506.92 1460.81 506.92 1460.81 524.56 1471 559.86 1450.62 559.86 1450.62 542.21 1440.43"/><polygon class="cls-4" points="542.21 1443.17 511.6 1460.85 524.57 1468.33 555.17 1450.66 542.21 1443.17"/><polyline class="cls-4" points="552.83 1452.01 542.21 1445.88 513.95 1462.2"/><line class="cls-4" x1="524.56" y1="1471" x2="524.69" y2="1514.57"/><line class="cls-4" x1="542.21" y1="1443.17" x2="542.21" y2="1445.88"/><polyline class="cls-4" points="471.63 788.38 471.63 831.85 506.92 852.22 542.21 831.85 542.21 788.38"/><polyline class="cls-4" points="471.62 791.12 506.92 811.5 542.21 791.12"/><polygon class="cls-4" points="506.92 768 471.63 788.38 471.63 788.38 506.92 808.76 542.21 788.38 542.21 788.38 506.92 768"/><polygon class="cls-4" points="506.92 770.74 476.31 788.41 506.92 806.09 537.53 788.41 506.92 770.74"/><polyline class="cls-4" points="535.18 789.77 506.92 773.45 478.65 789.77"/><line class="cls-4" x1="506.92" y1="808.76" x2="506.92" y2="852.22"/><line class="cls-4" x1="506.92" y1="770.74" x2="506.92" y2="773.45"/><polyline class="cls-4" points="524.69 798.59 524.69 862.36 542.34 872.58 559.98 862.36 559.98 798.59"/><polyline class="cls-4" points="524.69 801.33 542.34 811.52 559.98 801.33"/><polygon class="cls-4" points="542.34 788.4 524.69 798.59 524.69 798.59 542.34 808.78 559.98 798.59 559.98 798.59 542.34 788.4"/><polygon class="cls-4" points="542.34 791.14 529.36 798.63 542.34 806.13 555.31 798.63 542.34 791.14"/><polyline class="cls-4" points="553.01 799.96 542.34 793.8 531.66 799.96"/><line class="cls-4" x1="542.34" y1="808.78" x2="542.34" y2="872.58"/><line class="cls-4" x1="542.34" y1="791.14" x2="542.34" y2="793.8"/><polyline class="cls-4" points="1142.23 564.25 1142.26 729.96 1071.64 770.7 1036.35 750.32 1036.35 584.63"/><polyline class="cls-4" points="1036.34 587.3 1071.64 607.68 1142.23 566.92"/><polygon class="cls-4" points="1036.35 584.63 1071.64 605.01 1142.23 564.25 1142.23 564.25 1106.94 543.87 1036.35 584.63 1036.35 584.63"/><polygon class="cls-4" points="1106.94 546.54 1040.93 584.65 1071.64 602.38 1137.64 564.27 1106.94 546.54"/><polyline class="cls-4" points="1135.34 565.6 1106.94 549.2 1043.24 585.98"/><line class="cls-4" x1="1106.94" y1="546.54" x2="1106.94" y2="549.2"/><line class="cls-4" x1="1071.64" y1="605.01" x2="1071.65" y2="770.7"/><polyline class="cls-4" points="1601.09 1073.72 1601.09 1422.86 1548.15 1453.43 1459.91 1402.48 1459.91 1053.34"/><polyline class="cls-4" points="1601.09 1076.4 1548.15 1106.96 1459.91 1056.02"/><polygon class="cls-4" points="1601.09 1073.72 1548.15 1104.29 1459.91 1053.34 1459.91 1053.34 1512.85 1022.77 1601.09 1073.72 1601.09 1073.72"/><polygon class="cls-4" points="1512.85 1025.45 1596.46 1073.72 1548.15 1101.62 1464.54 1053.34 1512.85 1025.45"/><polyline class="cls-4" points="1466.85 1054.68 1512.85 1028.12 1594.15 1075.06"/><line class="cls-4" x1="1512.85" y1="1025.45" x2="1512.85" y2="1028.12"/><line class="cls-4" x1="1548.15" y1="1104.29" x2="1548.15" y2="1453.43"/><polyline class="cls-5" points="1495.2 1046.29 1495.2 1056.02 1530.5 1076.4 1548.15 1066.21 1548.15 1056.7"/><polyline class="cls-5" points="1495.21 1048.05 1530.5 1068.42 1548.15 1058.23"/><polyline class="cls-5" points="1543.55 1057.35 1512.85 1039.62 1499.81 1047.16"/><polygon class="cls-5" points="1548.14 1056.45 1512.85 1036.07 1495.21 1046.26 1495.21 1046.27 1530.5 1066.64 1548.14 1056.45 1548.14 1056.45"/><polygon class="cls-5" points="1512.85 1037.86 1545.09 1056.46 1530.5 1064.88 1498.27 1046.27 1512.85 1037.86"/><line class="cls-5" x1="1512.85" y1="1037.86" x2="1512.85" y2="1039.62"/><line class="cls-5" x1="1530.5" y1="1076.4" x2="1530.5" y2="1066.64"/><polyline class="cls-4" points="648.13 1216.3 648.13 1259.77 683.42 1280.14 718.71 1259.77 718.71 1216.3"/><polyline class="cls-4" points="648.12 1219.04 683.42 1239.42 718.72 1219.04"/><polygon class="cls-4" points="683.42 1195.92 648.13 1216.3 648.13 1216.3 683.42 1236.68 718.71 1216.3 718.71 1216.3 683.42 1195.92"/><polygon class="cls-4" points="683.42 1198.66 652.81 1216.34 683.42 1234.01 714.03 1216.34 683.42 1198.66"/><polyline class="cls-4" points="711.68 1217.69 683.42 1201.37 655.15 1217.69"/><line class="cls-4" x1="683.42" y1="1236.68" x2="683.42" y2="1280.15"/><line class="cls-4" x1="683.42" y1="1198.66" x2="683.42" y2="1201.37"/><polyline class="cls-4" points="1106.95 706.89 1106.95 872.59 1142.25 892.98 1195.19 862.4 1195.18 696.7"/><polyline class="cls-4" points="1106.95 709.55 1142.24 729.93 1195.19 699.36"/><polygon class="cls-4" points="1159.89 676.32 1106.95 706.89 1106.95 706.89 1142.24 727.27 1195.18 696.7 1195.18 696.7 1159.89 676.32"/><polygon class="cls-4" points="1159.89 678.98 1111.56 706.89 1142.24 724.61 1190.6 696.69 1159.89 678.98"/><polyline class="cls-4" points="1188.38 698.07 1159.89 681.62 1113.84 708.21"/><line class="cls-4" x1="1159.89" y1="678.98" x2="1159.89" y2="681.62"/><line class="cls-4" x1="1142.24" y1="727.27" x2="1142.25" y2="892.98"/><polyline class="cls-4" points="948.11 1450.72 948.1 1596.09 1001.05 1626.66 1071.67 1585.91 1071.63 1440.53"/><polyline class="cls-4" points="1071.64 1443.27 1001.04 1484.03 948.1 1453.46"/><polygon class="cls-4" points="1018.69 1409.96 1071.63 1440.52 1071.63 1440.53 1001.04 1481.29 948.11 1450.72 948.11 1450.71 1018.69 1409.96"/><polygon class="cls-4" points="1018.69 1412.7 952.8 1450.75 1001.04 1478.61 1066.94 1440.56 1018.69 1412.7"/><polyline class="cls-4" points="955.1 1452.09 1018.69 1415.37 1064.63 1441.89"/><line class="cls-4" x1="1001.05" y1="1481.29" x2="1001.05" y2="1626.66"/><line class="cls-4" x1="1018.69" y1="1412.7" x2="1018.69" y2="1415.37"/></svg>