<svg id="Final_Illustrations_copy" data-name="Final Illustrations copy" xmlns="http://www.w3.org/2000/svg" viewBox="0 0 2000 1304.25"><defs><style>.cls-1,.cls-5{fill:none;}.cls-1,.cls-2,.cls-3,.cls-4,.cls-5{stroke:#057adc;stroke-miterlimit:10;}.cls-1{stroke-width:2px;stroke-dasharray:24;}.cls-2,.cls-3,.cls-4{fill:#181d28;}.cls-2{stroke-width:3px;}.cls-3{stroke-width:1.5px;}.cls-4,.cls-5{stroke-width:4px;}</style></defs><polyline class="cls-1" points="290.9 792.03 1038.56 1223.59 1966.92 687.62 1219.04 256.1"/><line class="cls-1" x1="600.48" y1="613.37" x2="1417.12" y2="1084.9"/><line class="cls-1" x1="909.86" y1="434.74" x2="1720.61" y2="902.86"/><line class="cls-1" x1="342.58" y1="821.59" x2="1270.54" y2="285.78"/><line class="cls-1" x1="626.24" y1="985.3" x2="1554.2" y2="449.5"/><polyline class="cls-2" points="1264.55 374.76 1264.69 415.92 1271.13 419.64 1277.58 415.92 1277.58 384.81"/><line class="cls-2" x1="1271.13" y1="419.64" x2="1271.13" y2="379.83"/><polyline class="cls-2" points="1432.18 460.57 1432.18 482.9 1438.62 486.62 1445.07 482.9 1445.07 453.13"/><line class="cls-2" x1="1438.62" y1="486.62" x2="1438.62" y2="456.86"/><polyline class="cls-2" points="1651.12 334.04 1651.12 356.45 1657.57 360.17 1664.02 356.45 1664.02 326.6"/><line class="cls-2" x1="1657.57" y1="360.17" x2="1657.57" y2="330.32"/><polyline class="cls-2" points="1548.19 393.58 1548.19 416.08 1554.64 419.8 1561.08 416.08 1561.08 386.14"/><line class="cls-2" x1="1554.64" y1="419.8" x2="1554.64" y2="389.98"/><polygon class="cls-2" points="1400.01 464.4 1245.26 345.19 1245.26 345.19 1528.86 181.46 1683.36 300.65 1683.36 300.65 1400.01 464.4"/><polygon class="cls-2" points="1245.26 345.19 1245.42 360 1399.95 479.18 1399.95 479.18 1400.01 464.4 1245.26 345.19 1245.26 345.19"/><polygon class="cls-2" points="1399.95 479.18 1400.01 464.4 1683.35 300.65 1683.36 300.65 1683.55 315.43 1399.96 479.18 1399.95 479.18"/><polygon class="cls-2" points="1258.15 345.31 1399.95 456.85 1670.66 300.55 1528.85 188.9 1258.15 345.31"/><polygon class="cls-2" points="1271.23 345.31 1400.01 449.57 1657.57 300.65 1529.02 196.24 1271.23 345.31"/><line class="cls-3" x1="1516.19" y1="203.65" x2="1644.87" y2="307.99"/><line class="cls-3" x1="1284.29" y1="337.76" x2="1412.84" y2="442.15"/><line class="cls-3" x1="1297.16" y1="330.32" x2="1425.73" y2="434.52"/><line class="cls-3" x1="1310.03" y1="322.88" x2="1438.62" y2="427.24"/><line class="cls-3" x1="1322.9" y1="315.43" x2="1451.78" y2="419.64"/><line class="cls-3" x1="1335.82" y1="308.02" x2="1464.4" y2="412.34"/><line class="cls-3" x1="1348.56" y1="300.65" x2="1477.52" y2="404.75"/><line class="cls-3" x1="1361.51" y1="293.1" x2="1490.18" y2="397.43"/><line class="cls-3" x1="1374.17" y1="285.78" x2="1503.08" y2="389.98"/><line class="cls-3" x1="1388.55" y1="278.22" x2="1515.97" y2="382.52"/><line class="cls-3" x1="1400.82" y1="270.37" x2="1529.02" y2="374.98"/><line class="cls-3" x1="1413.04" y1="263.45" x2="1541.75" y2="367.62"/><line class="cls-3" x1="1425.87" y1="255.89" x2="1554.76" y2="360.16"/><line class="cls-3" x1="1438.74" y1="248.44" x2="1567.62" y2="352.7"/><line class="cls-3" x1="1451.78" y1="241" x2="1580.61" y2="345.31"/><line class="cls-3" x1="1464.92" y1="233.91" x2="1593.18" y2="337.88"/><line class="cls-3" x1="1477.52" y1="226.25" x2="1606.2" y2="330.37"/><line class="cls-3" x1="1490.32" y1="218.93" x2="1619.09" y2="322.9"/><line class="cls-3" x1="1503.08" y1="211.24" x2="1631.81" y2="315.53"/><line class="cls-3" x1="1281.8" y1="353.88" x2="1539.74" y2="204.95"/><line class="cls-3" x1="1292.54" y1="362.56" x2="1550.22" y2="213.78"/><line class="cls-3" x1="1303.27" y1="371.26" x2="1561.16" y2="222.35"/><line class="cls-3" x1="1314" y1="379.94" x2="1571.88" y2="231.05"/><line class="cls-3" x1="1324.74" y1="388.63" x2="1582.59" y2="239.75"/><line class="cls-3" x1="1335.69" y1="397.2" x2="1593.18" y2="248.52"/><line class="cls-3" x1="1346.2" y1="406.01" x2="1604.01" y2="257.15"/><line class="cls-3" x1="1356.94" y1="414.7" x2="1614.73" y2="265.85"/><line class="cls-3" x1="1367.72" y1="423.43" x2="1625.44" y2="274.55"/><line class="cls-3" x1="1378.4" y1="432.08" x2="1636.15" y2="283.25"/><line class="cls-3" x1="1389.13" y1="440.77" x2="1646.86" y2="291.95"/><polyline class="cls-2" points="954.73 553.49 954.87 594.64 961.31 598.37 967.76 594.64 967.76 563.53"/><line class="cls-2" x1="961.31" y1="598.37" x2="961.31" y2="558.56"/><polyline class="cls-2" points="1122.36 639.3 1122.36 661.63 1128.8 665.36 1135.24 661.63 1135.24 631.86"/><line class="cls-2" x1="1128.8" y1="665.35" x2="1128.8" y2="635.59"/><polyline class="cls-2" points="1341.3 512.77 1341.3 535.18 1347.75 538.9 1354.19 535.18 1354.19 505.33"/><line class="cls-2" x1="1347.75" y1="538.9" x2="1347.75" y2="509.05"/><polyline class="cls-2" points="1238.37 572.32 1238.37 594.81 1244.82 598.53 1251.26 594.81 1251.26 564.87"/><line class="cls-2" x1="1244.82" y1="598.53" x2="1244.82" y2="568.71"/><polygon class="cls-2" points="1090.19 643.13 935.44 523.92 935.44 523.92 1219.04 360.19 1373.53 479.38 1373.53 479.38 1090.19 643.13"/><polygon class="cls-2" points="935.44 523.93 935.6 538.73 1090.13 657.91 1090.13 657.91 1090.19 643.13 935.44 523.92 935.44 523.93"/><polygon class="cls-2" points="1090.13 657.91 1090.19 643.13 1373.53 479.38 1373.54 479.38 1373.72 494.16 1090.13 657.91 1090.13 657.91"/><polygon class="cls-2" points="948.33 524.04 1090.13 635.58 1360.84 479.28 1219.03 367.63 948.33 524.04"/><polygon class="cls-2" points="961.41 524.04 1090.19 628.3 1347.75 479.38 1219.19 374.97 961.41 524.04"/><line class="cls-3" x1="1206.37" y1="382.38" x2="1335.05" y2="486.72"/><line class="cls-3" x1="974.47" y1="516.49" x2="1103.02" y2="620.88"/><line class="cls-3" x1="987.34" y1="509.05" x2="1115.91" y2="613.25"/><line class="cls-3" x1="1000.21" y1="501.61" x2="1128.8" y2="605.97"/><line class="cls-3" x1="1013.08" y1="494.16" x2="1141.96" y2="598.37"/><line class="cls-3" x1="1025.99" y1="486.75" x2="1154.58" y2="591.07"/><line class="cls-3" x1="1038.74" y1="479.38" x2="1167.7" y2="583.48"/><line class="cls-3" x1="1051.69" y1="471.83" x2="1180.36" y2="576.16"/><line class="cls-3" x1="1064.35" y1="464.51" x2="1193.25" y2="568.71"/><line class="cls-3" x1="1078.73" y1="456.95" x2="1206.14" y2="561.25"/><line class="cls-3" x1="1091" y1="449.1" x2="1219.2" y2="553.71"/><line class="cls-3" x1="1103.22" y1="442.18" x2="1231.93" y2="546.35"/><line class="cls-3" x1="1116.05" y1="434.62" x2="1244.94" y2="538.89"/><line class="cls-3" x1="1128.92" y1="427.17" x2="1257.8" y2="531.43"/><line class="cls-3" x1="1141.96" y1="419.73" x2="1270.79" y2="524.04"/><line class="cls-3" x1="1155.1" y1="412.64" x2="1283.35" y2="516.61"/><line class="cls-3" x1="1167.7" y1="404.98" x2="1296.38" y2="509.1"/><line class="cls-3" x1="1180.49" y1="397.66" x2="1309.27" y2="501.63"/><line class="cls-3" x1="1193.25" y1="389.97" x2="1321.99" y2="494.26"/><line class="cls-3" x1="971.98" y1="532.61" x2="1229.92" y2="383.68"/><line class="cls-3" x1="982.72" y1="541.29" x2="1240.39" y2="392.51"/><line class="cls-3" x1="993.45" y1="549.99" x2="1251.34" y2="401.08"/><line class="cls-3" x1="1004.18" y1="558.67" x2="1262.05" y2="409.78"/><line class="cls-3" x1="1014.92" y1="567.36" x2="1272.77" y2="418.48"/><line class="cls-3" x1="1025.86" y1="575.93" x2="1283.35" y2="427.25"/><line class="cls-3" x1="1036.38" y1="584.74" x2="1294.19" y2="435.88"/><line class="cls-3" x1="1047.11" y1="593.43" x2="1304.91" y2="444.58"/><line class="cls-3" x1="1057.9" y1="602.16" x2="1315.62" y2="453.28"/><line class="cls-3" x1="1068.58" y1="610.81" x2="1326.33" y2="461.98"/><line class="cls-3" x1="1079.31" y1="619.5" x2="1337.04" y2="470.68"/><polyline class="cls-2" points="645.35 732.12 645.49 773.28 651.93 777 658.38 773.28 658.38 742.17"/><line class="cls-2" x1="651.93" y1="777" x2="651.93" y2="737.2"/><polyline class="cls-2" points="812.98 817.94 812.98 840.27 819.42 843.99 825.87 840.27 825.87 810.5"/><line class="cls-2" x1="819.42" y1="843.99" x2="819.42" y2="814.22"/><polyline class="cls-2" points="1031.92 691.4 1031.92 713.82 1038.37 717.54 1044.82 713.82 1044.82 683.96"/><line class="cls-2" x1="1038.37" y1="717.54" x2="1038.37" y2="687.68"/><polyline class="cls-2" points="928.99 750.95 928.99 773.44 935.44 777.16 941.88 773.44 941.88 743.51"/><line class="cls-2" x1="935.44" y1="777.16" x2="935.44" y2="747.35"/><polygon class="cls-2" points="780.81 821.77 626.06 702.56 626.06 702.55 909.66 538.82 1064.15 658.01 1064.15 658.02 780.81 821.77"/><polygon class="cls-2" points="626.06 702.56 626.22 717.37 780.75 836.55 780.75 836.54 780.81 821.77 626.06 702.56 626.06 702.56"/><polygon class="cls-2" points="780.75 836.55 780.81 821.77 1064.15 658.02 1064.16 658.02 1064.35 672.8 780.76 836.55 780.75 836.55"/><polygon class="cls-2" points="638.95 702.68 780.75 814.22 1051.45 657.91 909.65 546.26 638.95 702.68"/><polygon class="cls-2" points="652.03 702.68 780.81 806.93 1038.37 658.01 909.82 553.6 652.03 702.68"/><line class="cls-3" x1="896.99" y1="561.02" x2="1025.67" y2="665.35"/><line class="cls-3" x1="665.09" y1="695.13" x2="793.64" y2="799.52"/><line class="cls-3" x1="677.96" y1="687.68" x2="806.53" y2="791.89"/><line class="cls-3" x1="690.83" y1="680.24" x2="819.42" y2="784.61"/><line class="cls-3" x1="703.7" y1="672.8" x2="832.58" y2="777"/><line class="cls-3" x1="716.61" y1="665.39" x2="845.2" y2="769.7"/><line class="cls-3" x1="729.36" y1="658.01" x2="858.32" y2="762.12"/><line class="cls-3" x1="742.31" y1="650.47" x2="870.98" y2="754.8"/><line class="cls-3" x1="754.97" y1="643.15" x2="883.87" y2="747.34"/><line class="cls-3" x1="769.35" y1="635.58" x2="896.77" y2="739.89"/><line class="cls-3" x1="781.62" y1="627.74" x2="909.82" y2="732.34"/><line class="cls-3" x1="793.84" y1="620.81" x2="922.55" y2="724.98"/><line class="cls-3" x1="806.67" y1="613.25" x2="935.56" y2="717.53"/><line class="cls-3" x1="819.54" y1="605.81" x2="948.42" y2="710.06"/><line class="cls-3" x1="832.58" y1="598.37" x2="961.41" y2="702.68"/><line class="cls-3" x1="845.72" y1="591.28" x2="973.98" y2="695.25"/><line class="cls-3" x1="858.32" y1="583.61" x2="987" y2="687.74"/><line class="cls-3" x1="871.12" y1="576.3" x2="999.89" y2="680.26"/><line class="cls-3" x1="883.87" y1="568.6" x2="1012.61" y2="672.9"/><line class="cls-3" x1="662.6" y1="711.24" x2="920.54" y2="562.31"/><line class="cls-3" x1="673.34" y1="719.93" x2="931.02" y2="571.15"/><line class="cls-3" x1="684.07" y1="728.62" x2="941.96" y2="579.71"/><line class="cls-3" x1="694.8" y1="737.31" x2="952.68" y2="588.41"/><line class="cls-3" x1="705.54" y1="746" x2="963.39" y2="597.11"/><line class="cls-3" x1="716.49" y1="754.56" x2="973.98" y2="605.89"/><line class="cls-3" x1="727" y1="763.38" x2="984.81" y2="614.52"/><line class="cls-3" x1="737.73" y1="772.07" x2="995.53" y2="623.22"/><line class="cls-3" x1="748.52" y1="780.8" x2="1006.24" y2="631.92"/><line class="cls-3" x1="759.2" y1="789.44" x2="1016.95" y2="640.62"/><line class="cls-3" x1="769.93" y1="798.13" x2="1027.66" y2="649.32"/><polyline class="cls-2" points="335.97 910.78 336.11 951.94 342.55 955.66 349 951.94 349 920.83"/><line class="cls-2" x1="342.55" y1="955.66" x2="342.55" y2="915.86"/><polyline class="cls-2" points="503.6 996.6 503.6 1018.92 510.04 1022.65 516.49 1018.92 516.49 989.16"/><line class="cls-2" x1="510.04" y1="1022.65" x2="510.04" y2="992.88"/><polyline class="cls-2" points="722.54 870.06 722.54 892.47 728.99 896.19 735.43 892.47 735.43 862.62"/><line class="cls-2" x1="728.99" y1="896.19" x2="728.99" y2="866.34"/><polyline class="cls-2" points="619.61 929.61 619.61 952.1 626.06 955.82 632.5 952.1 632.5 922.16"/><line class="cls-2" x1="626.06" y1="955.82" x2="626.06" y2="926.01"/><polygon class="cls-2" points="471.43 1000.42 316.68 881.21 316.68 881.21 600.28 717.48 754.77 836.67 754.77 836.67 471.43 1000.42"/><polygon class="cls-2" points="316.68 881.22 316.84 896.02 471.37 1015.2 471.37 1015.2 471.43 1000.42 316.68 881.22 316.68 881.22"/><polygon class="cls-2" points="471.37 1015.2 471.43 1000.42 754.77 836.67 754.78 836.67 754.97 851.45 471.38 1015.2 471.37 1015.2"/><polygon class="cls-2" points="329.57 881.33 471.37 992.87 742.08 836.57 600.27 724.92 329.57 881.33"/><polygon class="cls-2" points="342.65 881.33 471.43 985.59 728.99 836.67 600.44 732.26 342.65 881.33"/><line class="cls-3" x1="587.61" y1="739.67" x2="716.29" y2="844.01"/><line class="cls-3" x1="355.71" y1="873.78" x2="484.26" y2="978.17"/><line class="cls-3" x1="368.58" y1="866.34" x2="497.15" y2="970.54"/><line class="cls-3" x1="381.45" y1="858.9" x2="510.04" y2="963.26"/><line class="cls-3" x1="394.32" y1="851.45" x2="523.2" y2="955.66"/><line class="cls-3" x1="407.24" y1="844.05" x2="535.82" y2="948.36"/><line class="cls-3" x1="419.98" y1="836.67" x2="548.94" y2="940.77"/><line class="cls-3" x1="432.93" y1="829.12" x2="561.6" y2="933.45"/><line class="cls-3" x1="445.59" y1="821.81" x2="574.5" y2="926"/><line class="cls-3" x1="459.97" y1="814.24" x2="587.39" y2="918.54"/><line class="cls-3" x1="472.24" y1="806.39" x2="600.44" y2="911"/><line class="cls-3" x1="484.46" y1="799.47" x2="613.17" y2="903.64"/><line class="cls-3" x1="497.29" y1="791.91" x2="626.18" y2="896.18"/><line class="cls-3" x1="510.16" y1="784.46" x2="639.04" y2="888.72"/><line class="cls-3" x1="523.2" y1="777.02" x2="652.03" y2="881.33"/><line class="cls-3" x1="536.34" y1="769.93" x2="664.6" y2="873.9"/><line class="cls-3" x1="548.94" y1="762.27" x2="677.62" y2="866.39"/><line class="cls-3" x1="561.74" y1="754.95" x2="690.51" y2="858.92"/><line class="cls-3" x1="574.5" y1="747.26" x2="703.23" y2="851.55"/><line class="cls-3" x1="353.22" y1="889.9" x2="611.16" y2="740.97"/><line class="cls-3" x1="363.96" y1="898.59" x2="621.64" y2="749.8"/><line class="cls-3" x1="374.69" y1="907.28" x2="632.58" y2="758.37"/><line class="cls-3" x1="385.42" y1="915.96" x2="643.3" y2="767.07"/><line class="cls-3" x1="396.16" y1="924.65" x2="654.01" y2="775.77"/><line class="cls-3" x1="407.11" y1="933.22" x2="664.6" y2="784.54"/><line class="cls-3" x1="417.62" y1="942.03" x2="675.43" y2="793.17"/><line class="cls-3" x1="428.36" y1="950.72" x2="686.15" y2="801.87"/><line class="cls-3" x1="439.14" y1="959.45" x2="696.86" y2="810.57"/><line class="cls-3" x1="449.82" y1="968.1" x2="707.57" y2="819.27"/><line class="cls-3" x1="460.55" y1="976.79" x2="718.28" y2="827.97"/><polyline class="cls-2" points="1547.93 538.49 1548.07 579.64 1554.51 583.37 1560.96 579.64 1560.96 548.53"/><line class="cls-2" x1="1554.51" y1="583.37" x2="1554.51" y2="543.56"/><polyline class="cls-2" points="1715.55 624.3 1715.55 646.63 1722 650.35 1728.44 646.63 1728.44 616.86"/><line class="cls-2" x1="1722" y1="650.35" x2="1722" y2="620.59"/><polyline class="cls-2" points="1934.5 497.77 1934.5 520.18 1940.95 523.9 1947.39 520.18 1947.39 490.33"/><line class="cls-2" x1="1940.95" y1="523.9" x2="1940.95" y2="494.05"/><polyline class="cls-2" points="1831.57 557.32 1831.57 579.81 1838.02 583.53 1844.46 579.81 1844.46 549.87"/><line class="cls-2" x1="1838.02" y1="583.53" x2="1838.02" y2="553.71"/><polygon class="cls-2" points="1683.38 628.13 1528.64 508.92 1528.64 508.92 1812.23 345.19 1966.73 464.38 1966.73 464.38 1683.38 628.13"/><polygon class="cls-2" points="1528.64 508.93 1528.79 523.73 1683.33 642.91 1683.33 642.91 1683.38 628.13 1528.64 508.92 1528.64 508.93"/><polygon class="cls-2" points="1683.33 642.91 1683.38 628.13 1966.73 464.38 1966.73 464.38 1966.92 479.16 1683.33 642.91 1683.33 642.91"/><polygon class="cls-2" points="1541.53 509.04 1683.33 620.58 1954.03 464.27 1812.22 352.63 1541.53 509.04"/><polygon class="cls-2" points="1554.61 509.04 1683.38 613.3 1940.95 464.38 1812.39 359.97 1554.61 509.04"/><line class="cls-3" x1="1799.57" y1="367.38" x2="1928.25" y2="471.72"/><line class="cls-3" x1="1567.66" y1="501.49" x2="1696.22" y2="605.88"/><line class="cls-3" x1="1580.53" y1="494.05" x2="1709.11" y2="598.25"/><line class="cls-3" x1="1593.41" y1="486.6" x2="1722" y2="590.97"/><line class="cls-3" x1="1606.28" y1="479.16" x2="1735.16" y2="583.37"/><line class="cls-3" x1="1619.19" y1="471.75" x2="1747.78" y2="576.07"/><line class="cls-3" x1="1631.94" y1="464.38" x2="1760.9" y2="568.48"/><line class="cls-3" x1="1644.89" y1="456.83" x2="1773.56" y2="561.16"/><line class="cls-3" x1="1657.54" y1="449.51" x2="1786.45" y2="553.71"/><line class="cls-3" x1="1671.93" y1="441.95" x2="1799.34" y2="546.25"/><line class="cls-3" x1="1684.2" y1="434.1" x2="1812.39" y2="538.71"/><line class="cls-3" x1="1696.42" y1="427.18" x2="1825.12" y2="531.35"/><line class="cls-3" x1="1709.25" y1="419.62" x2="1838.14" y2="523.89"/><line class="cls-3" x1="1722.12" y1="412.17" x2="1851" y2="516.43"/><line class="cls-3" x1="1735.16" y1="404.73" x2="1863.98" y2="509.04"/><line class="cls-3" x1="1748.3" y1="397.64" x2="1876.55" y2="501.61"/><line class="cls-3" x1="1760.9" y1="389.98" x2="1889.58" y2="494.1"/><line class="cls-3" x1="1773.69" y1="382.66" x2="1902.47" y2="486.63"/><line class="cls-3" x1="1786.45" y1="374.97" x2="1915.19" y2="479.26"/><line class="cls-3" x1="1565.18" y1="517.6" x2="1823.11" y2="368.67"/><line class="cls-3" x1="1575.91" y1="526.29" x2="1833.59" y2="377.51"/><line class="cls-3" x1="1586.65" y1="534.99" x2="1844.54" y2="386.08"/><line class="cls-3" x1="1597.38" y1="543.67" x2="1855.25" y2="394.78"/><line class="cls-3" x1="1608.11" y1="552.36" x2="1865.97" y2="403.48"/><line class="cls-3" x1="1619.06" y1="560.93" x2="1876.55" y2="412.25"/><line class="cls-3" x1="1629.58" y1="569.74" x2="1887.39" y2="420.88"/><line class="cls-3" x1="1640.31" y1="578.43" x2="1898.1" y2="429.58"/><line class="cls-3" x1="1651.1" y1="587.16" x2="1908.81" y2="438.28"/><line class="cls-3" x1="1661.78" y1="595.81" x2="1919.53" y2="446.98"/><line class="cls-3" x1="1672.51" y1="604.5" x2="1930.24" y2="455.68"/><polyline class="cls-2" points="1238.11 717.22 1238.24 758.37 1244.69 762.1 1251.14 758.37 1251.14 727.26"/><line class="cls-2" x1="1244.69" y1="762.1" x2="1244.69" y2="722.29"/><polyline class="cls-2" points="1405.73 803.03 1405.73 825.36 1412.18 829.08 1418.62 825.36 1418.62 795.59"/><line class="cls-2" x1="1412.18" y1="829.08" x2="1412.18" y2="799.32"/><polyline class="cls-2" points="1624.68 676.5 1624.68 698.91 1631.13 702.63 1637.57 698.91 1637.57 669.06"/><line class="cls-2" x1="1631.13" y1="702.63" x2="1631.13" y2="672.78"/><polyline class="cls-2" points="1521.75 736.04 1521.75 758.54 1528.19 762.26 1534.64 758.54 1534.64 728.6"/><line class="cls-2" x1="1528.19" y1="762.26" x2="1528.19" y2="732.44"/><polygon class="cls-2" points="1373.56 806.86 1218.82 687.65 1218.82 687.65 1502.41 523.91 1656.91 643.11 1656.91 643.11 1373.56 806.86"/><polygon class="cls-2" points="1218.82 687.65 1218.97 702.46 1373.51 821.64 1373.51 821.64 1373.56 806.86 1218.82 687.65 1218.82 687.65"/><polygon class="cls-2" points="1373.51 821.64 1373.56 806.86 1656.91 643.11 1656.91 643.11 1657.1 657.89 1373.51 821.64 1373.51 821.64"/><polygon class="cls-2" points="1231.71 687.77 1373.51 799.31 1644.21 643 1502.4 531.36 1231.71 687.77"/><polygon class="cls-2" points="1244.78 687.77 1373.56 792.03 1631.13 643.11 1502.57 538.7 1244.78 687.77"/><line class="cls-3" x1="1489.75" y1="546.11" x2="1618.43" y2="650.45"/><line class="cls-3" x1="1257.84" y1="680.22" x2="1386.4" y2="784.61"/><line class="cls-3" x1="1270.71" y1="672.78" x2="1399.29" y2="776.98"/><line class="cls-3" x1="1283.58" y1="665.33" x2="1412.18" y2="769.7"/><line class="cls-3" x1="1296.46" y1="657.89" x2="1425.33" y2="762.1"/><line class="cls-3" x1="1309.37" y1="650.48" x2="1437.96" y2="754.8"/><line class="cls-3" x1="1322.12" y1="643.11" x2="1451.08" y2="747.21"/><line class="cls-3" x1="1335.07" y1="635.56" x2="1463.74" y2="739.89"/><line class="cls-3" x1="1347.72" y1="628.24" x2="1476.63" y2="732.44"/><line class="cls-3" x1="1362.11" y1="620.68" x2="1489.52" y2="724.98"/><line class="cls-3" x1="1374.38" y1="612.83" x2="1502.57" y2="717.44"/><line class="cls-3" x1="1386.6" y1="605.91" x2="1515.3" y2="710.08"/><line class="cls-3" x1="1399.42" y1="598.35" x2="1528.32" y2="702.62"/><line class="cls-3" x1="1412.3" y1="590.9" x2="1541.17" y2="695.16"/><line class="cls-3" x1="1425.33" y1="583.46" x2="1554.16" y2="687.77"/><line class="cls-3" x1="1438.47" y1="576.37" x2="1566.73" y2="680.34"/><line class="cls-3" x1="1451.08" y1="568.71" x2="1579.76" y2="672.83"/><line class="cls-3" x1="1463.87" y1="561.39" x2="1592.65" y2="665.36"/><line class="cls-3" x1="1476.63" y1="553.7" x2="1605.37" y2="657.99"/><line class="cls-3" x1="1255.36" y1="696.34" x2="1513.29" y2="547.4"/><line class="cls-3" x1="1266.09" y1="705.02" x2="1523.77" y2="556.24"/><line class="cls-3" x1="1276.83" y1="713.72" x2="1534.72" y2="564.81"/><line class="cls-3" x1="1287.56" y1="722.4" x2="1545.43" y2="573.51"/><line class="cls-3" x1="1298.29" y1="731.09" x2="1556.14" y2="582.21"/><line class="cls-3" x1="1309.24" y1="739.66" x2="1566.73" y2="590.98"/><line class="cls-3" x1="1319.76" y1="748.47" x2="1577.57" y2="599.61"/><line class="cls-3" x1="1330.49" y1="757.16" x2="1588.28" y2="608.31"/><line class="cls-3" x1="1341.28" y1="765.89" x2="1598.99" y2="617.01"/><line class="cls-3" x1="1351.96" y1="774.54" x2="1609.71" y2="625.71"/><line class="cls-3" x1="1362.69" y1="783.23" x2="1620.42" y2="634.41"/><polyline class="cls-2" points="928.73 895.85 928.87 937.01 935.31 940.73 941.76 937.01 941.76 905.9"/><line class="cls-2" x1="935.31" y1="940.73" x2="935.31" y2="900.93"/><polyline class="cls-2" points="1096.35 981.67 1096.35 1004 1102.8 1007.72 1109.24 1004 1109.24 974.23"/><line class="cls-2" x1="1102.8" y1="1007.72" x2="1102.8" y2="977.95"/><polyline class="cls-2" points="1315.3 855.13 1315.3 877.55 1321.75 881.27 1328.19 877.55 1328.19 847.69"/><line class="cls-2" x1="1321.75" y1="881.27" x2="1321.75" y2="851.41"/><polyline class="cls-2" points="1212.37 914.68 1212.37 937.17 1218.82 940.89 1225.26 937.17 1225.26 907.24"/><line class="cls-2" x1="1218.81" y1="940.89" x2="1218.81" y2="911.08"/><polygon class="cls-2" points="1064.18 985.5 909.44 866.29 909.44 866.28 1193.03 702.55 1347.53 821.74 1347.53 821.75 1064.18 985.5"/><polygon class="cls-2" points="909.43 866.29 909.59 881.1 1064.13 1000.28 1064.13 1000.27 1064.18 985.5 909.44 866.29 909.43 866.29"/><polygon class="cls-2" points="1064.13 1000.27 1064.18 985.5 1347.53 821.75 1347.53 821.75 1347.72 836.53 1064.13 1000.28 1064.13 1000.27"/><polygon class="cls-2" points="922.33 866.41 1064.13 977.95 1334.83 821.64 1193.02 709.99 922.33 866.41"/><polygon class="cls-2" points="935.4 866.41 1064.18 970.66 1321.75 821.74 1193.19 717.33 935.4 866.41"/><line class="cls-3" x1="1180.37" y1="724.75" x2="1309.05" y2="829.08"/><line class="cls-3" x1="948.46" y1="858.86" x2="1077.02" y2="963.25"/><line class="cls-3" x1="961.33" y1="851.41" x2="1089.91" y2="955.62"/><line class="cls-3" x1="974.21" y1="843.97" x2="1102.8" y2="948.34"/><line class="cls-3" x1="987.08" y1="836.53" x2="1115.95" y2="940.73"/><line class="cls-3" x1="999.99" y1="829.12" x2="1128.58" y2="933.43"/><line class="cls-3" x1="1012.74" y1="821.74" x2="1141.7" y2="925.84"/><line class="cls-3" x1="1025.69" y1="814.2" x2="1154.36" y2="918.53"/><line class="cls-3" x1="1038.34" y1="806.88" x2="1167.25" y2="911.07"/><line class="cls-3" x1="1052.73" y1="799.31" x2="1180.14" y2="903.62"/><line class="cls-3" x1="1065" y1="791.47" x2="1193.19" y2="896.07"/><line class="cls-3" x1="1077.22" y1="784.54" x2="1205.92" y2="888.71"/><line class="cls-3" x1="1090.04" y1="776.98" x2="1218.94" y2="881.26"/><line class="cls-3" x1="1102.92" y1="769.54" x2="1231.79" y2="873.79"/><line class="cls-3" x1="1115.95" y1="762.1" x2="1244.78" y2="866.41"/><line class="cls-3" x1="1129.1" y1="755.01" x2="1257.35" y2="858.98"/><line class="cls-3" x1="1141.7" y1="747.34" x2="1270.38" y2="851.46"/><line class="cls-3" x1="1154.49" y1="740.03" x2="1283.27" y2="843.99"/><line class="cls-3" x1="1167.25" y1="732.33" x2="1295.99" y2="836.63"/><line class="cls-3" x1="945.98" y1="874.97" x2="1203.91" y2="726.04"/><line class="cls-3" x1="956.71" y1="883.66" x2="1214.39" y2="734.88"/><line class="cls-3" x1="967.45" y1="892.35" x2="1225.34" y2="743.44"/><line class="cls-3" x1="978.18" y1="901.04" x2="1236.05" y2="752.14"/><line class="cls-3" x1="988.91" y1="909.73" x2="1246.76" y2="760.84"/><line class="cls-3" x1="999.86" y1="918.29" x2="1257.35" y2="769.62"/><line class="cls-3" x1="1010.38" y1="927.11" x2="1268.19" y2="778.25"/><line class="cls-3" x1="1021.11" y1="935.79" x2="1278.9" y2="786.95"/><line class="cls-3" x1="1031.9" y1="944.53" x2="1289.61" y2="795.64"/><line class="cls-3" x1="1042.58" y1="953.17" x2="1300.33" y2="804.35"/><line class="cls-3" x1="1053.31" y1="961.86" x2="1311.04" y2="813.05"/><polyline class="cls-2" points="619.35 1074.51 619.49 1115.66 625.93 1119.39 632.38 1115.66 632.38 1084.56"/><line class="cls-2" x1="625.93" y1="1119.39" x2="625.93" y2="1079.58"/><polyline class="cls-2" points="786.97 1160.32 786.97 1182.65 793.42 1186.38 799.86 1182.65 799.86 1152.88"/><line class="cls-2" x1="793.42" y1="1186.38" x2="793.42" y2="1156.61"/><polyline class="cls-2" points="1005.92 1033.79 1005.92 1056.2 1012.37 1059.92 1018.81 1056.2 1018.81 1026.35"/><line class="cls-2" x1="1012.37" y1="1059.92" x2="1012.37" y2="1030.07"/><polyline class="cls-2" points="902.99 1093.34 902.99 1115.83 909.43 1119.55 915.88 1115.83 915.88 1085.89"/><line class="cls-2" x1="909.44" y1="1119.55" x2="909.44" y2="1089.74"/><polygon class="cls-2" points="754.8 1164.15 600.06 1044.94 600.06 1044.94 883.65 881.21 1038.15 1000.4 1038.15 1000.4 754.8 1164.15"/><polygon class="cls-2" points="600.06 1044.95 600.21 1059.75 754.75 1178.93 754.75 1178.93 754.8 1164.15 600.06 1044.94 600.06 1044.95"/><polygon class="cls-2" points="754.75 1178.93 754.8 1164.15 1038.15 1000.4 1038.15 1000.4 1038.34 1015.18 754.75 1178.93 754.75 1178.93"/><polygon class="cls-2" points="612.95 1045.06 754.75 1156.6 1025.45 1000.3 883.64 888.65 612.95 1045.06"/><polygon class="cls-2" points="626.02 1045.06 754.8 1149.32 1012.37 1000.4 883.81 895.99 626.02 1045.06"/><line class="cls-3" x1="870.99" y1="903.4" x2="999.67" y2="1007.74"/><line class="cls-3" x1="639.08" y1="1037.51" x2="767.64" y2="1141.9"/><line class="cls-3" x1="651.95" y1="1030.07" x2="780.53" y2="1134.27"/><line class="cls-3" x1="664.83" y1="1022.63" x2="793.42" y2="1126.99"/><line class="cls-3" x1="677.7" y1="1015.18" x2="806.58" y2="1119.39"/><line class="cls-3" x1="690.61" y1="1007.78" x2="819.2" y2="1112.09"/><line class="cls-3" x1="703.36" y1="1000.4" x2="832.32" y2="1104.5"/><line class="cls-3" x1="716.31" y1="992.85" x2="844.98" y2="1097.18"/><line class="cls-3" x1="728.96" y1="985.54" x2="857.87" y2="1089.73"/><line class="cls-3" x1="743.35" y1="977.97" x2="870.76" y2="1082.27"/><line class="cls-3" x1="755.62" y1="970.12" x2="883.81" y2="1074.73"/><line class="cls-3" x1="767.84" y1="963.2" x2="896.54" y2="1067.37"/><line class="cls-3" x1="780.67" y1="955.64" x2="909.56" y2="1059.91"/><line class="cls-3" x1="793.54" y1="948.19" x2="922.41" y2="1052.45"/><line class="cls-3" x1="806.58" y1="940.75" x2="935.4" y2="1045.06"/><line class="cls-3" x1="819.72" y1="933.66" x2="947.97" y2="1037.63"/><line class="cls-3" x1="832.32" y1="926" x2="961" y2="1030.12"/><line class="cls-3" x1="845.11" y1="918.68" x2="973.89" y2="1022.65"/><line class="cls-3" x1="857.87" y1="910.99" x2="986.61" y2="1015.28"/><line class="cls-3" x1="636.6" y1="1053.63" x2="894.53" y2="904.7"/><line class="cls-3" x1="647.33" y1="1062.32" x2="905.01" y2="913.53"/><line class="cls-3" x1="658.07" y1="1071.01" x2="915.96" y2="922.1"/><line class="cls-3" x1="668.8" y1="1079.69" x2="926.67" y2="930.8"/><line class="cls-3" x1="679.53" y1="1088.38" x2="937.39" y2="939.5"/><line class="cls-3" x1="690.48" y1="1096.95" x2="947.97" y2="948.27"/><line class="cls-3" x1="701" y1="1105.76" x2="958.81" y2="956.9"/><line class="cls-3" x1="711.73" y1="1114.45" x2="969.52" y2="965.6"/><line class="cls-3" x1="722.52" y1="1123.18" x2="980.23" y2="974.3"/><line class="cls-3" x1="733.2" y1="1131.83" x2="990.95" y2="983"/><line class="cls-3" x1="743.93" y1="1140.52" x2="1001.66" y2="991.7"/><polyline class="cls-2" points="980.95 210.96 981.09 252.12 987.53 255.84 993.98 252.12 993.98 221.01"/><line class="cls-2" x1="987.53" y1="255.84" x2="987.53" y2="216.04"/><polyline class="cls-2" points="1148.57 296.78 1148.57 319.11 1155.02 322.83 1161.46 319.11 1161.46 289.34"/><line class="cls-2" x1="1155.02" y1="322.83" x2="1155.02" y2="293.06"/><polyline class="cls-2" points="1367.52 170.25 1367.52 192.66 1373.97 196.38 1380.41 192.66 1380.41 162.8"/><line class="cls-2" x1="1373.97" y1="196.38" x2="1373.97" y2="166.53"/><polyline class="cls-2" points="1264.59 229.79 1264.59 252.28 1271.04 256.01 1277.48 252.28 1277.48 222.35"/><line class="cls-2" x1="1271.04" y1="256.01" x2="1271.04" y2="226.19"/><polygon class="cls-2" points="1116.4 300.61 961.66 181.4 961.66 181.4 1245.25 17.66 1399.75 136.85 1399.75 136.86 1116.4 300.61"/><polygon class="cls-2" points="961.66 181.4 961.82 196.21 1116.35 315.39 1116.35 315.39 1116.4 300.61 961.66 181.4 961.66 181.4"/><polygon class="cls-2" points="1116.35 315.39 1116.4 300.61 1399.75 136.86 1399.76 136.86 1399.94 151.64 1116.35 315.39 1116.35 315.39"/><polygon class="cls-2" points="974.55 181.52 1116.35 293.06 1387.05 136.75 1245.24 25.11 974.55 181.52"/><polygon class="cls-2" points="987.63 181.52 1116.4 285.78 1373.97 136.86 1245.41 32.45 987.63 181.52"/><line class="cls-3" x1="1232.59" y1="39.86" x2="1361.27" y2="144.2"/><line class="cls-3" x1="1000.68" y1="173.97" x2="1129.24" y2="278.36"/><line class="cls-3" x1="1013.56" y1="166.53" x2="1142.13" y2="270.73"/><line class="cls-3" x1="1026.43" y1="159.08" x2="1155.02" y2="263.45"/><line class="cls-3" x1="1039.3" y1="151.64" x2="1168.18" y2="255.84"/><line class="cls-3" x1="1052.21" y1="144.23" x2="1180.8" y2="248.54"/><line class="cls-3" x1="1064.96" y1="136.86" x2="1193.92" y2="240.96"/><line class="cls-3" x1="1077.91" y1="129.31" x2="1206.58" y2="233.64"/><line class="cls-3" x1="1090.56" y1="121.99" x2="1219.47" y2="226.18"/><line class="cls-3" x1="1104.95" y1="114.42" x2="1232.36" y2="218.73"/><line class="cls-3" x1="1117.22" y1="106.58" x2="1245.41" y2="211.18"/><line class="cls-3" x1="1129.44" y1="99.66" x2="1258.15" y2="203.82"/><line class="cls-3" x1="1142.27" y1="92.09" x2="1271.16" y2="196.37"/><line class="cls-3" x1="1155.14" y1="84.65" x2="1284.02" y2="188.91"/><line class="cls-3" x1="1168.18" y1="77.21" x2="1297.01" y2="181.52"/><line class="cls-3" x1="1181.32" y1="70.12" x2="1309.57" y2="174.09"/><line class="cls-3" x1="1193.92" y1="62.45" x2="1322.6" y2="166.58"/><line class="cls-3" x1="1206.71" y1="55.14" x2="1335.49" y2="159.1"/><line class="cls-3" x1="1219.47" y1="47.45" x2="1348.21" y2="151.74"/><line class="cls-3" x1="998.2" y1="190.08" x2="1256.14" y2="41.15"/><line class="cls-3" x1="1008.94" y1="198.77" x2="1266.61" y2="49.99"/><line class="cls-3" x1="1019.67" y1="207.46" x2="1277.56" y2="58.55"/><line class="cls-3" x1="1030.4" y1="216.15" x2="1288.27" y2="67.25"/><line class="cls-3" x1="1041.13" y1="224.84" x2="1298.99" y2="75.96"/><line class="cls-3" x1="1052.08" y1="233.4" x2="1309.57" y2="84.73"/><line class="cls-3" x1="1062.6" y1="242.22" x2="1320.41" y2="93.36"/><line class="cls-3" x1="1073.33" y1="250.91" x2="1331.12" y2="102.06"/><line class="cls-3" x1="1084.12" y1="259.64" x2="1341.83" y2="110.76"/><line class="cls-3" x1="1094.8" y1="268.28" x2="1352.55" y2="119.46"/><line class="cls-3" x1="1105.53" y1="276.97" x2="1363.26" y2="128.16"/><polyline class="cls-2" points="671.13 389.69 671.26 430.85 677.71 434.57 684.16 430.85 684.16 399.74"/><line class="cls-2" x1="677.71" y1="434.57" x2="677.71" y2="394.77"/><polyline class="cls-2" points="838.75 475.51 838.75 497.84 845.2 501.56 851.64 497.84 851.64 468.07"/><line class="cls-2" x1="845.2" y1="501.56" x2="845.2" y2="471.79"/><polyline class="cls-2" points="1057.7 348.98 1057.7 371.39 1064.15 375.11 1070.59 371.39 1070.59 341.53"/><line class="cls-2" x1="1064.15" y1="375.11" x2="1064.15" y2="345.26"/><polyline class="cls-2" points="954.77 408.52 954.77 431.01 961.22 434.74 967.66 431.01 967.66 401.08"/><line class="cls-2" x1="961.21" y1="434.74" x2="961.21" y2="404.92"/><polygon class="cls-2" points="806.58 479.34 651.84 360.13 651.84 360.13 935.43 196.39 1089.93 315.58 1089.93 315.59 806.58 479.34"/><polygon class="cls-2" points="651.84 360.13 651.99 374.94 806.53 494.12 806.53 494.12 806.58 479.34 651.84 360.13 651.84 360.13"/><polygon class="cls-2" points="806.53 494.12 806.58 479.34 1089.93 315.59 1089.93 315.59 1090.12 330.37 806.53 494.12 806.53 494.12"/><polygon class="cls-2" points="664.73 360.25 806.52 471.79 1077.23 315.48 935.42 203.84 664.73 360.25"/><polygon class="cls-2" points="677.8 360.25 806.58 464.51 1064.15 315.59 935.59 211.18 677.8 360.25"/><line class="cls-3" x1="922.77" y1="218.59" x2="1051.45" y2="322.93"/><line class="cls-3" x1="690.86" y1="352.7" x2="819.42" y2="457.09"/><line class="cls-3" x1="703.73" y1="345.26" x2="832.31" y2="449.46"/><line class="cls-3" x1="716.61" y1="337.81" x2="845.2" y2="442.18"/><line class="cls-3" x1="729.48" y1="330.37" x2="858.35" y2="434.57"/><line class="cls-3" x1="742.39" y1="322.96" x2="870.98" y2="427.27"/><line class="cls-3" x1="755.14" y1="315.59" x2="884.1" y2="419.69"/><line class="cls-3" x1="768.09" y1="308.04" x2="896.76" y2="412.37"/><line class="cls-3" x1="780.74" y1="300.72" x2="909.65" y2="404.91"/><line class="cls-3" x1="795.13" y1="293.15" x2="922.54" y2="397.46"/><line class="cls-3" x1="807.4" y1="285.31" x2="935.59" y2="389.91"/><line class="cls-3" x1="819.62" y1="278.39" x2="948.32" y2="382.55"/><line class="cls-3" x1="832.44" y1="270.82" x2="961.34" y2="375.1"/><line class="cls-3" x1="845.32" y1="263.38" x2="974.19" y2="367.64"/><line class="cls-3" x1="858.35" y1="255.94" x2="987.18" y2="360.25"/><line class="cls-3" x1="871.5" y1="248.85" x2="999.75" y2="352.82"/><line class="cls-3" x1="884.1" y1="241.18" x2="1012.78" y2="345.31"/><line class="cls-3" x1="896.89" y1="233.87" x2="1025.67" y2="337.83"/><line class="cls-3" x1="909.65" y1="226.18" x2="1038.39" y2="330.47"/><line class="cls-3" x1="688.38" y1="368.81" x2="946.31" y2="219.88"/><line class="cls-3" x1="699.11" y1="377.5" x2="956.79" y2="228.72"/><line class="cls-3" x1="709.85" y1="386.19" x2="967.74" y2="237.28"/><line class="cls-3" x1="720.58" y1="394.88" x2="978.45" y2="245.98"/><line class="cls-3" x1="731.31" y1="403.57" x2="989.16" y2="254.69"/><line class="cls-3" x1="742.26" y1="412.13" x2="999.75" y2="263.46"/><line class="cls-3" x1="752.78" y1="420.95" x2="1010.59" y2="272.09"/><line class="cls-3" x1="763.51" y1="429.64" x2="1021.3" y2="280.79"/><line class="cls-3" x1="774.3" y1="438.37" x2="1032.01" y2="289.49"/><line class="cls-3" x1="784.98" y1="447.01" x2="1042.73" y2="298.19"/><line class="cls-3" x1="795.71" y1="455.7" x2="1053.44" y2="306.89"/><polyline class="cls-2" points="361.75 568.33 361.89 609.49 368.33 613.21 374.78 609.49 374.78 578.38"/><line class="cls-2" x1="368.33" y1="613.21" x2="368.33" y2="573.41"/><polyline class="cls-2" points="529.37 654.15 529.37 676.48 535.82 680.2 542.26 676.48 542.26 646.71"/><line class="cls-2" x1="535.82" y1="680.2" x2="535.82" y2="650.43"/><polyline class="cls-2" points="748.32 527.61 748.32 550.02 754.77 553.75 761.21 550.02 761.21 520.17"/><line class="cls-2" x1="754.77" y1="553.75" x2="754.77" y2="523.89"/><polyline class="cls-2" points="645.39 587.16 645.39 609.65 651.84 613.37 658.28 609.65 658.28 579.72"/><line class="cls-2" x1="651.84" y1="613.37" x2="651.84" y2="583.56"/><polygon class="cls-2" points="497.2 657.97 342.46 538.77 342.46 538.76 626.05 375.03 780.55 494.22 780.55 494.22 497.2 657.97"/><polygon class="cls-2" points="342.46 538.77 342.61 553.57 497.15 672.75 497.15 672.75 497.2 657.97 342.46 538.77 342.46 538.77"/><polygon class="cls-2" points="497.15 672.75 497.2 657.97 780.55 494.22 780.55 494.23 780.74 509 497.15 672.75 497.15 672.75"/><polygon class="cls-2" points="355.35 538.89 497.15 650.42 767.85 494.12 626.04 382.47 355.35 538.89"/><polygon class="cls-2" points="368.43 538.89 497.2 643.14 754.77 494.22 626.21 389.81 368.43 538.89"/><line class="cls-3" x1="613.39" y1="397.23" x2="742.07" y2="501.56"/><line class="cls-3" x1="381.48" y1="531.33" x2="510.04" y2="635.72"/><line class="cls-3" x1="394.35" y1="523.89" x2="522.93" y2="628.1"/><line class="cls-3" x1="407.23" y1="516.45" x2="535.82" y2="620.82"/><line class="cls-3" x1="420.1" y1="509.01" x2="548.98" y2="613.21"/><line class="cls-3" x1="433.01" y1="501.6" x2="561.6" y2="605.91"/><line class="cls-3" x1="445.76" y1="494.22" x2="574.72" y2="598.32"/><line class="cls-3" x1="458.71" y1="486.68" x2="587.38" y2="591"/><line class="cls-3" x1="471.36" y1="479.36" x2="600.27" y2="583.55"/><line class="cls-3" x1="485.75" y1="471.79" x2="613.16" y2="576.1"/><line class="cls-3" x1="498.02" y1="463.94" x2="626.21" y2="568.55"/><line class="cls-3" x1="510.24" y1="457.02" x2="638.94" y2="561.19"/><line class="cls-3" x1="523.07" y1="449.46" x2="651.96" y2="553.74"/><line class="cls-3" x1="535.94" y1="442.02" x2="664.82" y2="546.27"/><line class="cls-3" x1="548.98" y1="434.57" x2="677.8" y2="538.89"/><line class="cls-3" x1="562.12" y1="427.48" x2="690.37" y2="531.45"/><line class="cls-3" x1="574.72" y1="419.82" x2="703.4" y2="523.94"/><line class="cls-3" x1="587.51" y1="412.51" x2="716.29" y2="516.47"/><line class="cls-3" x1="600.27" y1="404.81" x2="729.01" y2="509.11"/><line class="cls-3" x1="379" y1="547.45" x2="636.93" y2="398.52"/><line class="cls-3" x1="389.73" y1="556.14" x2="647.41" y2="407.35"/><line class="cls-3" x1="400.47" y1="564.83" x2="658.36" y2="415.92"/><line class="cls-3" x1="411.2" y1="573.52" x2="669.07" y2="424.62"/><line class="cls-3" x1="421.93" y1="582.21" x2="679.79" y2="433.32"/><line class="cls-3" x1="432.88" y1="590.77" x2="690.37" y2="442.09"/><line class="cls-3" x1="443.4" y1="599.58" x2="701.21" y2="450.72"/><line class="cls-3" x1="454.13" y1="608.27" x2="711.92" y2="459.42"/><line class="cls-3" x1="464.92" y1="617" x2="722.63" y2="468.12"/><line class="cls-3" x1="475.6" y1="625.65" x2="733.35" y2="476.83"/><line class="cls-3" x1="486.33" y1="634.34" x2="744.06" y2="485.53"/><polyline class="cls-2" points="52.37 746.99 52.51 788.14 58.95 791.87 65.4 788.14 65.4 757.03"/><line class="cls-2" x1="58.95" y1="791.86" x2="58.95" y2="752.06"/><polyline class="cls-2" points="219.99 832.8 219.99 855.13 226.44 858.85 232.88 855.13 232.88 825.36"/><line class="cls-2" x1="226.44" y1="858.85" x2="226.44" y2="829.08"/><polyline class="cls-2" points="438.94 706.27 438.94 728.68 445.39 732.4 451.83 728.68 451.83 698.83"/><line class="cls-2" x1="445.39" y1="732.4" x2="445.39" y2="702.55"/><polyline class="cls-2" points="336.01 765.81 336.01 788.3 342.46 792.03 348.9 788.3 348.9 758.37"/><line class="cls-2" x1="342.46" y1="792.03" x2="342.46" y2="762.21"/><polygon class="cls-2" points="187.82 836.63 33.08 717.42 33.08 717.42 316.67 553.68 471.17 672.88 471.17 672.88 187.82 836.63"/><polygon class="cls-2" points="33.08 717.42 33.23 732.23 187.77 851.41 187.77 851.41 187.82 836.63 33.08 717.42 33.08 717.42"/><polygon class="cls-2" points="187.77 851.41 187.82 836.63 471.17 672.88 471.18 672.88 471.36 687.66 187.77 851.41 187.77 851.41"/><polygon class="cls-2" points="45.97 717.54 187.77 829.08 458.47 672.77 316.67 561.13 45.97 717.54"/><polygon class="cls-2" points="59.05 717.54 187.82 821.8 445.39 672.88 316.83 568.47 59.05 717.54"/><line class="cls-3" x1="304.01" y1="575.88" x2="432.69" y2="680.22"/><line class="cls-3" x1="72.1" y1="709.99" x2="200.66" y2="814.38"/><line class="cls-3" x1="84.98" y1="702.55" x2="213.55" y2="806.75"/><line class="cls-3" x1="97.85" y1="695.1" x2="226.44" y2="799.47"/><line class="cls-3" x1="110.72" y1="687.66" x2="239.6" y2="791.86"/><line class="cls-3" x1="123.63" y1="680.25" x2="252.22" y2="784.57"/><line class="cls-3" x1="136.38" y1="672.88" x2="265.34" y2="776.98"/><line class="cls-3" x1="149.33" y1="665.33" x2="278" y2="769.66"/><line class="cls-3" x1="161.98" y1="658.01" x2="290.89" y2="762.21"/><line class="cls-3" x1="176.37" y1="650.44" x2="303.78" y2="754.75"/><line class="cls-3" x1="188.64" y1="642.6" x2="316.83" y2="747.21"/><line class="cls-3" x1="200.86" y1="635.68" x2="329.57" y2="739.84"/><line class="cls-3" x1="213.69" y1="628.12" x2="342.58" y2="732.39"/><line class="cls-3" x1="226.56" y1="620.67" x2="355.44" y2="724.93"/><line class="cls-3" x1="239.6" y1="613.23" x2="368.43" y2="717.54"/><line class="cls-3" x1="252.74" y1="606.14" x2="380.99" y2="710.11"/><line class="cls-3" x1="265.34" y1="598.48" x2="394.02" y2="702.6"/><line class="cls-3" x1="278.13" y1="591.16" x2="406.91" y2="695.12"/><line class="cls-3" x1="290.89" y1="583.47" x2="419.63" y2="687.76"/><line class="cls-3" x1="69.62" y1="726.1" x2="327.56" y2="577.17"/><line class="cls-3" x1="80.36" y1="734.79" x2="338.03" y2="586.01"/><line class="cls-3" x1="91.09" y1="743.48" x2="348.98" y2="594.58"/><line class="cls-3" x1="101.82" y1="752.17" x2="359.69" y2="603.28"/><line class="cls-3" x1="112.55" y1="760.86" x2="370.41" y2="611.98"/><line class="cls-3" x1="123.5" y1="769.42" x2="380.99" y2="620.75"/><line class="cls-3" x1="134.02" y1="778.24" x2="391.83" y2="629.38"/><line class="cls-3" x1="144.75" y1="786.93" x2="402.54" y2="638.08"/><line class="cls-3" x1="155.54" y1="795.66" x2="413.25" y2="646.78"/><line class="cls-3" x1="166.22" y1="804.31" x2="423.97" y2="655.48"/><line class="cls-3" x1="176.95" y1="813" x2="434.68" y2="664.18"/><polyline class="cls-4" points="1605.76 957 1779.08 856.93 1894.62 923.64 1894.62 1057.08 1721.31 1157.15"/><line class="cls-4" x1="1721.3" y1="1023.72" x2="1894.62" y2="923.64"/><polygon class="cls-4" points="1605.76 957.01 1605.76 1090.43 1721.3 1157.15 1721.31 1157.14 1721.31 1023.72 1605.77 957 1605.76 957.01"/><polygon class="cls-2" points="1735.75 1115.45 1735.75 1048.74 1764.63 1032.06 1764.63 1098.77 1735.75 1115.45"/><line class="cls-2" x1="1735.75" y1="1082.09" x2="1764.63" y2="1065.41"/><line class="cls-2" x1="1735.75" y1="1065.41" x2="1764.63" y2="1048.74"/><line class="cls-2" x1="1735.75" y1="1098.77" x2="1764.63" y2="1082.09"/><line class="cls-2" x1="1735.75" y1="1057.08" x2="1764.63" y2="1040.4"/><line class="cls-2" x1="1735.75" y1="1073.75" x2="1764.63" y2="1057.08"/><line class="cls-2" x1="1735.75" y1="1090.43" x2="1764.63" y2="1073.75"/><line class="cls-2" x1="1735.75" y1="1107.11" x2="1764.63" y2="1090.43"/><polygon class="cls-2" points="1793.52 1082.09 1793.52 1015.38 1822.41 998.7 1822.41 1065.41 1793.52 1082.09"/><line class="cls-2" x1="1793.52" y1="1048.74" x2="1822.41" y2="1032.06"/><line class="cls-2" x1="1793.52" y1="1032.06" x2="1822.41" y2="1015.38"/><line class="cls-2" x1="1793.52" y1="1065.41" x2="1822.41" y2="1048.74"/><line class="cls-2" x1="1793.52" y1="1023.72" x2="1822.41" y2="1007.04"/><line class="cls-2" x1="1793.52" y1="1040.4" x2="1822.41" y2="1023.72"/><line class="cls-2" x1="1793.52" y1="1057.08" x2="1822.41" y2="1040.4"/><line class="cls-2" x1="1793.52" y1="1073.75" x2="1822.41" y2="1057.08"/><polygon class="cls-2" points="1851.29 1048.74 1851.29 982.02 1880.18 965.34 1880.18 1032.06 1851.29 1048.74"/><line class="cls-2" x1="1851.29" y1="1015.38" x2="1880.18" y2="998.7"/><line class="cls-2" x1="1851.29" y1="998.7" x2="1880.18" y2="982.02"/><line class="cls-2" x1="1851.29" y1="1032.06" x2="1880.18" y2="1015.38"/><line class="cls-2" x1="1851.29" y1="990.36" x2="1880.18" y2="973.68"/><line class="cls-2" x1="1851.29" y1="1007.04" x2="1880.18" y2="990.36"/><line class="cls-2" x1="1851.29" y1="1023.72" x2="1880.18" y2="1007.04"/><line class="cls-2" x1="1851.29" y1="1040.4" x2="1880.18" y2="1023.72"/><polyline class="cls-5" points="1663.53 923.64 1779.08 990.36 1779.08 1123.79"/><polyline class="cls-5" points="1721.31 890.29 1836.85 957 1836.85 1090.43"/><polygon class="cls-4" points="1669.86 1029.25 1660.02 1049 1678.15 1061.56 1654.32 1084.9 1663.74 1065.26 1646.03 1052.59 1669.86 1029.25"/><polyline class="cls-4" points="1373.85 1090.43 1547.17 990.36 1662.71 1057.08 1662.71 1190.51 1489.39 1290.58"/><line class="cls-4" x1="1489.39" y1="1157.15" x2="1662.71" y2="1057.08"/><polygon class="cls-4" points="1373.85 1090.44 1373.85 1223.86 1489.39 1290.58 1489.39 1290.57 1489.39 1157.15 1373.86 1090.44 1373.85 1090.44"/><polygon class="cls-2" points="1503.84 1248.88 1503.84 1182.17 1532.72 1165.49 1532.72 1232.2 1503.84 1248.88"/><line class="cls-2" x1="1503.84" y1="1215.52" x2="1532.72" y2="1198.85"/><line class="cls-2" x1="1503.84" y1="1198.85" x2="1532.72" y2="1182.17"/><line class="cls-2" x1="1503.84" y1="1232.2" x2="1532.72" y2="1215.52"/><line class="cls-2" x1="1503.84" y1="1190.51" x2="1532.72" y2="1173.83"/><line class="cls-2" x1="1503.84" y1="1207.19" x2="1532.72" y2="1190.51"/><line class="cls-2" x1="1503.84" y1="1223.86" x2="1532.72" y2="1207.19"/><line class="cls-2" x1="1503.84" y1="1240.54" x2="1532.72" y2="1223.86"/><polygon class="cls-2" points="1561.61 1215.53 1561.61 1148.81 1590.5 1132.13 1590.5 1198.85 1561.61 1215.53"/><line class="cls-2" x1="1561.61" y1="1182.17" x2="1590.5" y2="1165.49"/><line class="cls-2" x1="1561.61" y1="1165.49" x2="1590.5" y2="1148.81"/><line class="cls-2" x1="1561.61" y1="1198.85" x2="1590.5" y2="1182.17"/><line class="cls-2" x1="1561.61" y1="1157.15" x2="1590.5" y2="1140.47"/><line class="cls-2" x1="1561.61" y1="1173.83" x2="1590.5" y2="1157.15"/><line class="cls-2" x1="1561.61" y1="1190.51" x2="1590.5" y2="1173.83"/><line class="cls-2" x1="1561.61" y1="1207.19" x2="1590.5" y2="1190.51"/><polygon class="cls-2" points="1619.38 1182.17 1619.38 1115.45 1648.27 1098.77 1648.27 1165.49 1619.38 1182.17"/><line class="cls-2" x1="1619.38" y1="1148.81" x2="1648.27" y2="1132.13"/><line class="cls-2" x1="1619.38" y1="1132.13" x2="1648.27" y2="1115.45"/><line class="cls-2" x1="1619.38" y1="1165.49" x2="1648.27" y2="1148.81"/><line class="cls-2" x1="1619.38" y1="1123.79" x2="1648.27" y2="1107.11"/><line class="cls-2" x1="1619.38" y1="1140.47" x2="1648.27" y2="1123.79"/><line class="cls-2" x1="1619.38" y1="1157.15" x2="1648.27" y2="1140.47"/><line class="cls-2" x1="1619.38" y1="1173.83" x2="1648.27" y2="1157.15"/><polyline class="cls-5" points="1431.62 1057.08 1547.17 1123.79 1547.17 1257.22"/><polyline class="cls-5" points="1489.39 1023.72 1604.94 1090.43 1604.94 1223.86"/><polygon class="cls-4" points="1437.95 1162.68 1428.11 1182.43 1446.24 1194.99 1422.41 1218.33 1431.84 1198.69 1414.12 1186.02 1437.95 1162.68"/></svg>