<svg id="Final_Illustrations_copy" data-name="Final Illustrations copy" xmlns="http://www.w3.org/2000/svg" viewBox="0 0 2000 2000"><defs><style>.cls-1{fill:#181d28;}.cls-1,.cls-2{stroke:#057adc;stroke-miterlimit:10;stroke-width:3px;}.cls-2{fill:none;}</style></defs><g id="_Group_Homepage" data-name="&lt;Group&gt; Homepage"><polyline class="cls-1" points="1247.27 1188.53 1247.27 1191.34 1397.18 1277.89 1453.4 1245.43 1453.4 1242.63"/><polyline class="cls-1" points="1303.49 1156.12 1453.39 1242.63 1453.39 1242.63 1397.18 1275.09 1247.28 1188.53 1247.28 1188.53 1303.49 1156.12"/><line class="cls-1" x1="1397.18" y1="1277.89" x2="1397.18" y2="1275.09"/><polyline class="cls-1" points="1397.18 974.99 1397.18 1234.67 1378.44 1245.49 1303.49 1202.21 1303.49 942.53"/><line class="cls-1" x1="1378.44" y1="985.81" x2="1378.44" y2="1245.49"/><polygon class="cls-1" points="1359.71 996.63 1322.23 974.99 1322.23 1039.91 1359.71 1061.55 1359.71 996.63"/><polyline class="cls-1" points="1340.97 985.81 1340.97 1029.09 1359.71 1039.91"/><line class="cls-1" x1="1340.97" y1="1029.09" x2="1322.23" y2="1039.91"/><polygon class="cls-1" points="1392.5 999.34 1383.13 1004.75 1383.13 1026.38 1392.5 1020.97 1392.5 999.34"/><polygon class="cls-1" points="1359.71 1083.19 1359.71 1104.83 1322.23 1083.19 1322.23 1061.55 1359.71 1083.19"/><polyline class="cls-1" points="1359.71 1101.02 1326.72 1081.97 1334.31 1068.52"/><polygon class="cls-1" points="1359.71 1126.47 1359.71 1169.75 1322.23 1148.11 1322.23 1104.83 1359.71 1126.47"/><line class="cls-1" x1="1359.71" y1="1148.11" x2="1322.23" y2="1126.47"/><line class="cls-1" x1="1340.97" y1="1115.65" x2="1340.97" y2="1158.93"/><line class="cls-1" x1="1344.14" y1="1117.48" x2="1344.14" y2="1139.12"/><polygon class="cls-1" points="1356.53 1149.94 1344.14 1142.78 1344.14 1157.1 1356.53 1164.25 1356.53 1149.94"/><polygon class="cls-1" points="1337.71 1139.16 1325.48 1132.1 1325.48 1146.23 1337.71 1153.3 1337.71 1139.16"/><line class="cls-1" x1="1337.72" y1="1113.91" x2="1337.72" y2="1135.55"/><line class="cls-1" x1="1331.6" y1="1066.96" x2="1322.23" y2="1083.19"/><line class="cls-1" x1="1344.14" y1="1117.48" x2="1344.14" y2="1139.12"/><polygon class="cls-1" points="1397.18 974.99 1378.44 985.81 1303.49 942.53 1303.49 942.53 1322.23 931.71 1397.18 974.99 1397.18 974.99"/><ellipse class="cls-1" cx="1331.31" cy="1142.7" rx="3.03" ry="5.26" transform="translate(-405.31 893.06) rotate(-32.46)"/><polyline class="cls-1" points="1334.12 1147.12 1324.91 1153.01 1319.27 1144.13 1328.31 1138.38"/><ellipse class="cls-1" cx="1322.09" cy="1148.57" rx="3.03" ry="5.26" transform="translate(-409.89 889.03) rotate(-32.46)"/><ellipse class="cls-1" cx="1350.15" cy="1153.66" rx="3.03" ry="5.26" transform="translate(-408.24 904.88) rotate(-32.46)"/><polyline class="cls-1" points="1352.96 1158.08 1343.75 1163.96 1338.1 1155.09 1347.14 1149.34"/><ellipse class="cls-1" cx="1340.93" cy="1159.52" rx="3.03" ry="5.26" transform="translate(-412.83 900.85) rotate(-32.46)"/><polygon class="cls-1" points="1389.71 1007.38 1385.91 1009.57 1385.91 1018.34 1389.71 1016.15 1389.71 1007.38"/><path class="cls-2" d="M1388,1012.86h0a42.86,42.86,0,0,1,20.18,47.42l-19.43,78.55c-5.19,21-27.12,32.25-46,21.66l-1.84-1"/><path class="cls-2" d="M1303.41,1094l-4.08,11.12a33,33,0,0,0,23.35,43.47h0"/><polyline class="cls-1" points="984.93 1037.07 984.93 1039.91 1097.36 1104.83 1153.58 1072.37 1153.58 1069.53"/><polygon class="cls-1" points="1153.57 1069.53 1097.36 1101.99 984.93 1037.07 984.93 1037.07 1041.14 1004.61 1153.57 1069.53 1153.57 1069.53"/><line class="cls-1" x1="1097.36" y1="1104.83" x2="1097.36" y2="1101.99"/><polyline class="cls-1" points="1116.1 639.58 1116.1 1072.37 1097.36 1083.19 1022.41 1039.91 1022.41 628.75"/><line class="cls-1" x1="1097.36" y1="1083.19" x2="1097.36" y2="650.45"/><polyline class="cls-1" points="685.11 863.99 685.11 866.79 835.02 953.35 891.23 920.89 891.23 918.09"/><polyline class="cls-1" points="741.32 831.58 891.23 918.08 891.23 918.09 835.02 950.55 685.11 863.99 685.11 863.98 741.32 831.58"/><line class="cls-1" x1="835.02" y1="953.35" x2="835.02" y2="950.55"/><polyline class="cls-1" points="835.02 650.45 835.02 910.12 816.28 920.94 741.32 877.66 741.32 617.99"/><line class="cls-1" x1="816.28" y1="661.27" x2="816.28" y2="920.94"/><polygon class="cls-1" points="797.54 672.09 760.06 650.45 760.06 715.37 797.54 737 797.54 672.09"/><polyline class="cls-1" points="778.8 661.27 778.8 704.54 797.54 715.37"/><line class="cls-1" x1="778.8" y1="704.55" x2="760.06" y2="715.37"/><polygon class="cls-1" points="830.33 674.79 820.96 680.2 820.96 701.84 830.33 696.43 830.33 674.79"/><polygon class="cls-1" points="797.54 758.64 797.54 780.28 760.06 758.64 760.06 737 797.54 758.64"/><polyline class="cls-1" points="797.54 776.47 764.55 757.43 772.14 743.98"/><polygon class="cls-1" points="797.54 801.92 797.54 845.2 760.06 823.56 760.06 780.28 797.54 801.92"/><line class="cls-1" x1="797.54" y1="823.56" x2="760.06" y2="801.92"/><line class="cls-1" x1="778.8" y1="791.1" x2="778.8" y2="834.38"/><line class="cls-1" x1="781.97" y1="792.94" x2="781.97" y2="814.58"/><polygon class="cls-1" points="794.37 825.39 781.97 818.24 781.97 832.55 794.37 839.71 794.37 825.39"/><polygon class="cls-1" points="775.55 814.62 763.31 807.56 763.31 821.69 775.55 828.75 775.55 814.62"/><line class="cls-1" x1="775.55" y1="789.37" x2="775.55" y2="811.01"/><line class="cls-1" x1="769.43" y1="742.41" x2="760.06" y2="758.64"/><line class="cls-1" x1="781.97" y1="792.94" x2="781.97" y2="814.58"/><polygon class="cls-1" points="835.01 650.45 816.28 661.27 741.33 617.99 741.33 617.98 760.06 607.17 835.01 650.44 835.01 650.45"/><ellipse class="cls-1" cx="769.14" cy="818.16" rx="3.03" ry="5.26" transform="translate(-318.95 540.63) rotate(-32.46)"/><polyline class="cls-1" points="771.96 822.58 762.75 828.46 757.1 819.59 766.14 813.84"/><ellipse class="cls-1" cx="759.93" cy="824.02" rx="3.03" ry="5.26" transform="translate(-323.54 536.6) rotate(-32.46)"/><ellipse class="cls-1" cx="787.98" cy="829.12" rx="3.03" ry="5.26" transform="translate(-321.89 552.45) rotate(-32.46)"/><polyline class="cls-1" points="790.79 833.54 781.58 839.42 775.94 830.54 784.98 824.79"/><ellipse class="cls-1" cx="778.76" cy="834.98" rx="3.03" ry="5.26" transform="translate(-326.47 548.42) rotate(-32.46)"/><polygon class="cls-1" points="827.55 682.83 823.75 685.03 823.75 693.8 827.55 691.61 827.55 682.83"/><path class="cls-2" d="M825.83,688.32h0A42.85,42.85,0,0,1,846,735.73l-19.43,78.56c-5.19,21-27.11,32.24-46,21.65l-1.84-1"/><path class="cls-2" d="M741.24,769.44l-4.08,11.11A33,33,0,0,0,760.51,824h0"/><polygon class="cls-1" points="1884.14 780.3 1884.14 801.94 1659.28 975.05 1659.27 975.05 1659.27 953.41 1884.13 780.3 1884.14 780.3"/><polygon class="cls-1" points="1884.13 780.29 965.93 250.13 741.07 423.24 1659.27 953.41 1884.13 780.3 1884.13 780.29"/><polygon class="cls-1" points="1471.88 996.7 1659.41 975.05 1659.41 975.05 1659.41 953.41 1471.88 975.05 553.59 444.83 553.59 466.47 1471.88 996.7"/><polygon class="cls-1" points="741.07 423.24 553.59 444.83 1471.88 975.05 1659.4 953.41 1659.4 953.41 741.07 423.24"/><polygon class="cls-1" points="1603.05 942.6 741.12 444.92 608.5 454.94 1471.88 953.41 1603.05 942.6"/><polygon class="cls-1" points="1846.67 780.3 1659.41 931.86 778.54 423.24 965.93 271.76 1846.67 780.3"/><line class="cls-1" x1="1831.06" y1="792.93" x2="950.32" y2="284.39"/><line class="cls-1" x1="1815.46" y1="805.56" x2="934.7" y2="297.01"/><line class="cls-1" x1="1799.81" y1="818.22" x2="919.08" y2="309.63"/><line class="cls-1" x1="903.47" y1="322.26" x2="1784.25" y2="830.82"/><line class="cls-1" x1="1768.64" y1="843.45" x2="887.85" y2="334.88"/><line class="cls-1" x1="872.24" y1="347.5" x2="1753.09" y2="856.04"/><line class="cls-1" x1="1737.43" y1="868.71" x2="856.62" y2="360.13"/><line class="cls-1" x1="841.01" y1="372.75" x2="1721.83" y2="881.34"/><line class="cls-1" x1="1706.3" y1="893.91" x2="825.39" y2="385.37"/><line class="cls-1" x1="809.77" y1="398" x2="1690.62" y2="906.6"/><line class="cls-1" x1="1675.01" y1="919.23" x2="794.16" y2="410.62"/><line class="cls-1" x1="1827.92" y1="769.48" x2="1640.53" y2="920.96"/><line class="cls-1" x1="1809.18" y1="758.66" x2="1621.79" y2="910.14"/><line class="cls-1" x1="1790.44" y1="747.84" x2="1603.05" y2="899.32"/><line class="cls-1" x1="1771.7" y1="737.02" x2="1584.45" y2="888.42"/><line class="cls-1" x1="1752.97" y1="726.2" x2="1565.58" y2="877.68"/><line class="cls-1" x1="1734.23" y1="715.38" x2="1546.84" y2="866.86"/><line class="cls-1" x1="1715.49" y1="704.56" x2="1528.1" y2="856.04"/><line class="cls-1" x1="1696.75" y1="693.74" x2="1509.36" y2="845.22"/><line class="cls-1" x1="1678.01" y1="682.92" x2="1490.62" y2="834.4"/><line class="cls-1" x1="1659.27" y1="672.1" x2="1471.88" y2="823.58"/><line class="cls-1" x1="1640.53" y1="661.28" x2="1453.14" y2="812.76"/><line class="cls-1" x1="1621.79" y1="650.46" x2="1434.4" y2="801.94"/><line class="cls-1" x1="1603.05" y1="639.64" x2="1415.67" y2="791.12"/><line class="cls-1" x1="1584.32" y1="628.82" x2="1396.92" y2="780.3"/><line class="cls-1" x1="1565.58" y1="618" x2="1378.19" y2="769.48"/><line class="cls-1" x1="1546.84" y1="607.18" x2="1359.45" y2="758.66"/><line class="cls-1" x1="1528.1" y1="596.36" x2="1340.71" y2="747.84"/><line class="cls-1" x1="1509.36" y1="585.54" x2="1321.97" y2="737.02"/><line class="cls-1" x1="1490.62" y1="574.72" x2="1303.23" y2="726.2"/><line class="cls-1" x1="1471.84" y1="563.93" x2="1284.49" y2="715.38"/><line class="cls-1" x1="1453.14" y1="553.08" x2="1265.84" y2="704.51"/><line class="cls-1" x1="1434.4" y1="542.26" x2="1247.02" y2="693.74"/><line class="cls-1" x1="1415.67" y1="531.44" x2="1228.28" y2="682.92"/><line class="cls-1" x1="1396.92" y1="520.62" x2="1209.54" y2="672.1"/><line class="cls-1" x1="1378.19" y1="509.8" x2="1190.8" y2="661.28"/><line class="cls-1" x1="1359.49" y1="499.01" x2="1172.06" y2="650.46"/><line class="cls-1" x1="1340.71" y1="488.16" x2="1153.34" y2="639.65"/><line class="cls-1" x1="1321.97" y1="477.34" x2="1134.54" y2="628.79"/><line class="cls-1" x1="1303.23" y1="466.52" x2="1115.84" y2="618"/><line class="cls-1" x1="1284.49" y1="455.7" x2="1097.1" y2="607.18"/><line class="cls-1" x1="1265.84" y1="444.83" x2="1078.37" y2="596.36"/><line class="cls-1" x1="1247.02" y1="434.06" x2="1059.63" y2="585.54"/><line class="cls-1" x1="1228.25" y1="423.26" x2="1040.89" y2="574.72"/><line class="cls-1" x1="1209.54" y1="412.42" x2="1022.45" y2="563.9"/><line class="cls-1" x1="1190.8" y1="401.6" x2="1003.43" y2="553.07"/><line class="cls-1" x1="1172.06" y1="390.78" x2="984.67" y2="542.26"/><line class="cls-1" x1="1153.32" y1="379.96" x2="965.93" y2="531.44"/><line class="cls-1" x1="1134.54" y1="369.17" x2="947.15" y2="520.59"/><line class="cls-1" x1="1115.84" y1="358.32" x2="928.45" y2="509.8"/><line class="cls-1" x1="1097.11" y1="347.51" x2="909.72" y2="498.98"/><line class="cls-1" x1="1078.37" y1="336.68" x2="890.98" y2="488.16"/><line class="cls-1" x1="1059.63" y1="325.86" x2="872.25" y2="477.33"/><line class="cls-1" x1="1040.84" y1="315.07" x2="853.5" y2="466.52"/><line class="cls-1" x1="1022.15" y1="304.22" x2="834.76" y2="455.7"/><line class="cls-1" x1="1003.41" y1="293.4" x2="816.11" y2="444.83"/><line class="cls-1" x1="984.67" y1="282.59" x2="797.28" y2="434.06"/><line class="cls-1" x1="707.98" y1="447.42" x2="1570.26" y2="945.3"/><line class="cls-1" x1="1537.47" y1="948.01" x2="674.84" y2="449.92"/><line class="cls-1" x1="641.7" y1="452.43" x2="1504.68" y2="950.71"/><line class="cls-1" x1="1584.18" y1="931.86" x2="1453.14" y2="942.6"/><line class="cls-1" x1="1565.58" y1="920.96" x2="1434.27" y2="931.86"/><line class="cls-1" x1="1546.84" y1="910.14" x2="1415.66" y2="920.96"/><line class="cls-1" x1="1528.1" y1="899.32" x2="1396.92" y2="910.14"/><line class="cls-1" x1="1509.22" y1="888.42" x2="1378.18" y2="899.32"/><line class="cls-1" x1="1490.62" y1="877.68" x2="1359.31" y2="888.42"/><line class="cls-1" x1="1471.88" y1="866.86" x2="1340.71" y2="877.68"/><line class="cls-1" x1="1453.14" y1="856.04" x2="1321.97" y2="866.86"/><line class="cls-1" x1="1434.4" y1="845.22" x2="1303.22" y2="856.04"/><line class="cls-1" x1="1415.67" y1="834.4" x2="1284.48" y2="845.22"/><line class="cls-1" x1="1396.93" y1="823.58" x2="1265.74" y2="834.4"/><line class="cls-1" x1="1378.18" y1="812.76" x2="1247" y2="823.58"/><line class="cls-1" x1="1359.45" y1="801.94" x2="1228.26" y2="812.76"/><line class="cls-1" x1="1340.71" y1="791.12" x2="1209.54" y2="801.94"/><line class="cls-1" x1="1321.97" y1="780.3" x2="1190.8" y2="791.12"/><line class="cls-1" x1="1303.23" y1="769.48" x2="1172.06" y2="780.3"/><line class="cls-1" x1="1284.49" y1="758.66" x2="1153.3" y2="769.48"/><line class="cls-1" x1="1265.84" y1="747.89" x2="1134.58" y2="758.67"/><line class="cls-1" x1="1247" y1="737.01" x2="1115.75" y2="747.89"/><line class="cls-1" x1="1228.28" y1="726.2" x2="1097.12" y2="737.01"/><line class="cls-1" x1="1209.54" y1="715.38" x2="1078.37" y2="726.2"/><line class="cls-1" x1="1190.8" y1="704.56" x2="1059.63" y2="715.38"/><line class="cls-1" x1="1172.06" y1="693.74" x2="1040.77" y2="704.51"/><line class="cls-1" x1="1153.34" y1="682.93" x2="1022.15" y2="693.74"/><line class="cls-1" x1="1134.58" y1="672.1" x2="1003.41" y2="682.92"/><line class="cls-1" x1="1115.84" y1="661.28" x2="984.67" y2="672.12"/><line class="cls-1" x1="1097.11" y1="650.46" x2="965.9" y2="661.28"/><line class="cls-1" x1="1078.37" y1="639.64" x2="947.19" y2="650.48"/><line class="cls-1" x1="1059.63" y1="628.82" x2="928.42" y2="639.64"/><line class="cls-1" x1="1040.89" y1="618" x2="909.72" y2="628.82"/><line class="cls-1" x1="1022.15" y1="607.18" x2="890.98" y2="618"/><line class="cls-1" x1="1003.43" y1="596.37" x2="872.24" y2="607.2"/><line class="cls-1" x1="984.67" y1="585.54" x2="853.52" y2="596.37"/><line class="cls-1" x1="965.93" y1="574.72" x2="834.76" y2="585.54"/><line class="cls-1" x1="947.24" y1="563.93" x2="816.02" y2="574.75"/><line class="cls-1" x1="928.48" y1="553.07" x2="797.24" y2="563.9"/><line class="cls-1" x1="909.71" y1="542.26" x2="778.57" y2="553.07"/><line class="cls-1" x1="890.98" y1="531.44" x2="759.8" y2="542.29"/><line class="cls-1" x1="872.25" y1="520.63" x2="741.02" y2="531.44"/><line class="cls-1" x1="853.52" y1="509.81" x2="722.33" y2="520.65"/><line class="cls-1" x1="834.76" y1="498.98" x2="703.61" y2="509.81"/><line class="cls-1" x1="816.02" y1="488.16" x2="684.85" y2="498.98"/><line class="cls-1" x1="797.24" y1="477.37" x2="666.11" y2="488.16"/><line class="cls-1" x1="778.57" y1="466.51" x2="647.37" y2="477.34"/><line class="cls-1" x1="759.8" y1="455.7" x2="628.63" y2="466.56"/><path class="cls-1" d="M521.75,1040.12v39.54l23.93-13.81A20.63,20.63,0,0,0,556,1048v-27.63"/><ellipse class="cls-1" cx="514.21" cy="1051.03" rx="22.26" ry="30.09" transform="translate(-154.8 91.08) rotate(-8.8)"/><ellipse class="cls-1" cx="514.21" cy="1051.03" rx="12.37" ry="16.71" transform="translate(-154.8 91.08) rotate(-8.8)"/><path class="cls-1" d="M658.68,1119.17v39.54l23.93-13.81A20.64,20.64,0,0,0,692.92,1127V1099.4"/><ellipse class="cls-1" cx="651.14" cy="1130.08" rx="22.26" ry="30.09" transform="translate(-165.29 112.97) rotate(-8.8)"/><ellipse class="cls-1" cx="651.14" cy="1130.08" rx="12.37" ry="16.71" transform="translate(-165.29 112.97) rotate(-8.8)"/><path class="cls-1" d="M494.49,897.7h0A68.5,68.5,0,0,0,460.25,957v39.55l34.24,19.77h0a32.66,32.66,0,0,1,47.19,17.59l4.18,12.07,85.61,49.43h0A32.65,32.65,0,0,1,678.65,1113l4.18,12.07,68.49,39.55,102.73-59.32,17.13-29.66"/><path class="cls-1" d="M460.25,957l308.19,178,102.74-59.32h0a68.51,68.51,0,0,0-34.25-59.32l-34.24-19.77"/><path class="cls-1" d="M751.32,1164.64,768.44,1135h0a68.49,68.49,0,0,0-34.24-59.32L700,1055.89"/><path class="cls-1" d="M494.49,976.8h0c0-26.37,28.54-42.84,51.37-29.66l68.48,39.54a102.73,102.73,0,0,1,51.37,89h0"/><path class="cls-1" d="M734.2,1100.73h0l9.81,6.59a31.82,31.82,0,0,0,31.76,2.14h0a31.75,31.75,0,0,0,17.74-28.5h0l-34.24,19.77-12.53-7.23A8.36,8.36,0,0,0,734.2,1100.73Z"/><path class="cls-1" d="M709.13,903l-77.52-44.76a68.79,68.79,0,0,0-68.77,0L494.49,897.7,606.4,962.32a255.7,255.7,0,0,1,93.53,93.52.07.07,0,0,0,.08,0l102.68-59.29h0A255.69,255.69,0,0,0,709.13,903Z"/><line class="cls-1" x1="580.1" y1="966.91" x2="580.1" y2="1065.77"/><line class="cls-1" x1="657.62" y1="1001.24" x2="760.35" y2="941.92"/><line class="cls-1" x1="759.8" y1="1149.99" x2="862.53" y2="1090.68"/><line class="cls-1" x1="460.25" y1="957.02" x2="768.44" y2="1134.98"/><line class="cls-1" x1="862" y1="1041.41" x2="759.27" y2="1100.73"/><path class="cls-1" d="M862,1041.41l-33.78,19.75h0a31.76,31.76,0,0,0,33.54-1.38h0a32.23,32.23,0,0,0,6-5.36A73.48,73.48,0,0,0,862,1041.41Z"/><path class="cls-1" d="M1102.66,1375.47V1415l23.93-13.81a20.64,20.64,0,0,0,10.31-17.87V1355.7"/><ellipse class="cls-1" cx="1095.12" cy="1386.38" rx="22.26" ry="30.09" transform="translate(-199.28 183.94) rotate(-8.8)"/><ellipse class="cls-1" cx="1095.12" cy="1386.38" rx="12.37" ry="16.71" transform="translate(-199.28 183.94) rotate(-8.8)"/><path class="cls-1" d="M1239.58,1454.52v39.55l23.93-13.82a20.63,20.63,0,0,0,10.32-17.87v-27.63"/><ellipse class="cls-1" cx="1232.04" cy="1465.43" rx="22.26" ry="30.09" transform="translate(-209.77 205.83) rotate(-8.8)"/><ellipse class="cls-1" cx="1232.04" cy="1465.43" rx="12.37" ry="16.71" transform="translate(-209.77 205.83) rotate(-8.8)"/><path class="cls-1" d="M1075.4,1233.06h0a68.48,68.48,0,0,0-34.25,59.31v39.55l34.25,19.77h0a32.65,32.65,0,0,1,47.18,17.59l4.18,12.07,85.61,49.43h0a32.66,32.66,0,0,1,47.19,17.59l4.18,12.07,68.49,39.55L1435,1440.67l17.12-29.66"/><path class="cls-1" d="M1041.15,1292.37l308.2,178L1452.08,1411h0a68.5,68.5,0,0,0-34.24-59.32l-34.25-19.77"/><path class="cls-1" d="M1332.23,1500l17.12-29.66h0A68.48,68.48,0,0,0,1315.1,1411l-34.24-19.77"/><path class="cls-1" d="M1075.4,1312.15h0c0-26.37,28.54-42.84,51.37-29.66l68.48,39.54a102.75,102.75,0,0,1,51.37,89h0"/><path class="cls-1" d="M1315.11,1436.08h0l9.8,6.59a31.84,31.84,0,0,0,31.77,2.14h0a31.75,31.75,0,0,0,17.74-28.5h0l-34.24,19.77-12.54-7.23A8.35,8.35,0,0,0,1315.11,1436.08Z"/><path class="cls-1" d="M1290,1238.35l-77.51-44.76a68.81,68.81,0,0,0-68.78,0l-68.34,39.47,111.9,64.61a255.62,255.62,0,0,1,93.53,93.52.08.08,0,0,0,.08,0l102.68-59.29h0A255.61,255.61,0,0,0,1290,1238.35Z"/><line class="cls-1" x1="1161.01" y1="1302.26" x2="1161.01" y2="1401.12"/><line class="cls-1" x1="1238.52" y1="1336.59" x2="1341.26" y2="1277.28"/><line class="cls-1" x1="1340.7" y1="1485.35" x2="1443.43" y2="1426.03"/><line class="cls-1" x1="1041.15" y1="1292.37" x2="1349.35" y2="1470.33"/><line class="cls-1" x1="1442.91" y1="1376.76" x2="1340.18" y2="1436.08"/><path class="cls-1" d="M1442.91,1376.76l-33.79,19.75h0a31.76,31.76,0,0,0,33.54-1.38h0a32,32,0,0,0,6-5.36A74.38,74.38,0,0,0,1442.91,1376.76Z"/></g></svg>