<svg id="Final_Illustrations_copy" data-name="Final Illustrations copy" xmlns="http://www.w3.org/2000/svg" viewBox="0 0 2000 2000"><defs><style>.cls-1,.cls-2,.cls-3{fill:none;}.cls-1,.cls-2,.cls-3,.cls-4{stroke:#057adc;stroke-miterlimit:10;}.cls-1,.cls-2,.cls-4{stroke-width:2px;}.cls-1{stroke-dasharray:24;}.cls-3{stroke-width:4px;}.cls-4{fill:#181d28;}</style></defs><line class="cls-1" x1="1788.39" y1="1195.26" x2="852.61" y2="654.94"/><line class="cls-1" x1="1489.61" y1="1368.1" x2="553.92" y2="827.52"/><line class="cls-1" x1="1189.88" y1="1539.74" x2="255.06" y2="999.97"/><polygon class="cls-2" points="992.14 574.49 1002 568.79 1938.25 1109.33 1927.82 1114.75 992.14 574.49"/><polygon class="cls-2" points="693.79 746.76 703.16 741.31 1629.04 1287.6 1619.08 1293.35 693.79 746.76"/><polygon class="cls-2" points="394.49 919.46 404.45 913.82 1340.7 1454.36 1330.85 1460.12 394.49 919.46"/><polygon class="cls-2" points="95.93 1092.09 105.67 1086.31 1041.45 1626.58 1032.09 1632.62 95.93 1092.09"/><line class="cls-3" x1="796.54" y1="990.61" x2="896.13" y2="1048.12"/><line class="cls-3" x1="736.79" y1="979.11" x2="877.18" y2="1059.62"/><line class="cls-3" x1="836.38" y1="967.61" x2="935.97" y2="1025.12"/><line class="cls-3" x1="776.62" y1="956.11" x2="916.05" y2="1036.62"/><path class="cls-4" d="M987.89,1157.5v38.8l23.48-13.55a20.25,20.25,0,0,0,10.12-17.53V1138.1"/><ellipse class="cls-4" cx="980.49" cy="1168.21" rx="21.84" ry="29.52" transform="matrix(0.99, -0.15, 0.15, 0.99, -167.24, 163.83)"/><ellipse class="cls-4" cx="980.49" cy="1168.21" rx="12.13" ry="16.4" transform="translate(-167.24 163.83) rotate(-8.8)"/><path class="cls-4" d="M1156.28,1254.11v38.8l23.48-13.56a20.22,20.22,0,0,0,10.12-17.53v-27.11"/><ellipse class="cls-4" cx="1148.89" cy="1264.82" rx="21.84" ry="29.52" transform="translate(-180.04 190.74) rotate(-8.8)"/><ellipse class="cls-4" cx="1148.89" cy="1264.82" rx="12.13" ry="16.4" transform="translate(-180.04 190.74) rotate(-8.8)"/><path class="cls-4" d="M1027.86,1172.35l-15.65-9-4.64-12.72a32.59,32.59,0,0,0-46.91-17h0l-33.6-19.4v-39.22a66.5,66.5,0,0,1,33.24-57.58l34.3-19.8a66.48,66.48,0,0,1,66.52,0l67.54,39"/><path class="cls-4" d="M1296.66,1133.28l33.6,19.4a67.21,67.21,0,0,1,33.6,58.2h0l-100.8,58.47-336-194.42"/><path class="cls-4" d="M1363.86,1210.88l-17.39,29.49-99.2,58.66-65.89-38-5.22-13.61a33.14,33.14,0,0,0-47.5-16.83h0l-100.8-58.2v-38.59a67.57,67.57,0,0,1,33.79-58.52l66.84-38.6a67.56,67.56,0,0,1,67.54,0l9,5.22a250.89,250.89,0,0,1,91.6,91.42h0l-100.8,58.2h0a250.89,250.89,0,0,0-91.6-91.42l-42.8-24.71"/><path class="cls-4" d="M1195.86,1191.48l33.66,19.57a67.44,67.44,0,0,1,33.54,58.3h0L1247.27,1299"/><line class="cls-4" x1="1254.09" y1="1235.75" x2="1354.87" y2="1177.3"/><line class="cls-4" x1="1154.37" y1="1138.1" x2="1255.17" y2="1079.9"/><line class="cls-4" x1="1254.62" y1="1284.37" x2="1354.87" y2="1226.48"/><path class="cls-4" d="M1061.89,1153v-18.74a22.71,22.71,0,0,1,34.12-19.64h0a99.38,99.38,0,0,1,49.45,85.93v.8Z"/><line class="cls-4" x1="1095.06" y1="1114.05" x2="1095.06" y2="1211.15"/><line class="cls-4" x1="935.97" y1="1041.69" x2="1036.92" y2="1099.97"/><line class="cls-4" x1="1027.86" y1="1133.76" x2="1263.06" y2="1269.35"/><line class="cls-4" x1="1263.06" y1="1269.35" x2="1363.86" y2="1210.88"/><path class="cls-4" d="M1229.46,1235.68h0l9.62,6.46a31.18,31.18,0,0,0,31.17,2.1h0a31.15,31.15,0,0,0,17.41-28h0l-33.6,19.4-12.3-7.1A8.2,8.2,0,0,0,1229.46,1235.68Z"/><path class="cls-4" d="M1354.86,1177.48l-33.15,19.38h0a31.17,31.17,0,0,0,32.91-1.36h0a31.75,31.75,0,0,0,5.93-5.26A72.1,72.1,0,0,0,1354.86,1177.48Z"/><path class="cls-4" d="M685.37,856.34h51.09S725.6,879.67,761.4,897c-12.47,0-41.84-4.43-41.84-4.43S691.4,884.9,685.37,856.34Z"/><path class="cls-4" d="M579.37,1026.62l46.4-19.8s11.8,61.19,72.17,69.51c-15.17,1-44.23-1.45-44.23-1.45S604.47,1071.94,579.37,1026.62Z"/><path class="cls-4" d="M675.27,967.84c-3.51,10-8,21.43-12.23,27.87,7.1,5.88,59.39,39.06,59.39,39.06s11-25.44,10.26-40.29C727,985.42,698,951.67,670.85,935l.24.36A36.45,36.45,0,0,1,675.27,967.84Z"/><path class="cls-4" d="M812.3,896.48l32.18-33.8s16.89,55.12,76.83,41.44a242,242,0,0,0-14.48,22.93S850.91,948,812.3,896.48Z"/><path class="cls-4" d="M747.9,808.13l20.51-51.49s46.68,15.67,53.91,53.5C817.49,814.57,770,860,770,860S788.53,840.31,747.9,808.13Z"/><path class="cls-4" d="M532.52,883.89l18.91,83.68s28.16,6,49.48-6.84c-5.63-16.09-29.77-84.08-29.77-84.08S549.42,888.72,532.52,883.89Z"/><path class="cls-4" d="M667.3,879.42s18.11,33,27,48.27c-33.39-20.92-58.34-3.22-58.34-3.22l-20.51-52.7S651.31,850.53,667.3,879.42Z"/><path class="cls-4" d="M774.25,770s79.25,59.84,96.14-25.34c-4.7,7.32-17.29,41-50.28,4.42C814.48,752.3,774.25,770,774.25,770Z"/><path class="cls-4" d="M613.82,816.47l1.34-57.39s37.55-9.92,72.68,11.53c-1.34,3.43-13.68,47.74-13.68,47.74S631.52,808.7,613.82,816.47Z"/><path class="cls-4" d="M550.85,906l-.74-46.66s-49.79,29-84.57-21.64a242.91,242.91,0,0,1-4.9,26.67S487.55,917.69,550.85,906Z"/><path class="cls-4" d="M690.9,997.24l-33-39s-10.78,23.37-47.12,7.23c8.06,9.51,30.42,29.06,30.42,29.06S665.21,1011.09,690.9,997.24Z"/></svg>