<svg id="Final_Illustrations_copy" data-name="Final Illustrations copy" xmlns="http://www.w3.org/2000/svg" viewBox="0 0 2000 1167.85"><defs><style>.cls-1,.cls-2,.cls-3{fill:none;}.cls-1,.cls-2,.cls-3,.cls-4{stroke:#057adc;stroke-miterlimit:10;}.cls-1,.cls-2,.cls-4{stroke-width:2px;}.cls-1{stroke-dasharray:24;}.cls-3{stroke-width:4px;}.cls-4,.cls-5{fill:#181d28;}</style></defs><line class="cls-1" x1="988.56" y1="457.52" x2="1399.2" y2="220.42"/><line class="cls-1" x1="364.99" y1="817.57" x2="954.71" y2="477.07"/><line class="cls-1" x1="593.1" y1="949.31" x2="1627.34" y2="352.14"/><line class="cls-1" x1="1291.11" y1="809.72" x2="1855.47" y2="483.87"/><line class="cls-1" x1="821.26" y1="1081.02" x2="1259.37" y2="828.06"/><line class="cls-1" x1="530.05" y1="458.73" x2="1171.07" y2="88.48"/><line class="cls-1" x1="136.86" y1="685.84" x2="506.54" y2="472.32"/><polygon class="cls-2" points="1064.61 27.22 1057.16 22.83 22.86 619.98 30.4 624.37 1064.61 27.22"/><polygon class="cls-2" points="1292.74 158.94 1285.29 154.55 250.99 751.71 258.53 756.1 1292.74 158.94"/><polygon class="cls-2" points="1520.93 290.67 1513.48 286.28 479.19 883.43 486.73 887.82 1520.93 290.67"/><polygon class="cls-2" points="1749.01 422.39 1741.56 418 707.26 1015.15 714.8 1019.54 1749.01 422.39"/><polygon class="cls-2" points="1977.14 554.11 1969.69 549.72 935.39 1146.87 942.93 1151.26 1977.14 554.11"/><line class="cls-3" x1="882.1" y1="501.43" x2="958.14" y2="457.52"/><line class="cls-3" x1="836.47" y1="510.21" x2="943.67" y2="448.74"/><line class="cls-3" x1="912.52" y1="518.99" x2="988.56" y2="475.08"/><line class="cls-3" x1="866.89" y1="527.77" x2="973.35" y2="466.3"/><line class="cls-3" x1="425.83" y1="501.43" x2="501.88" y2="457.52"/><line class="cls-3" x1="380.2" y1="510.21" x2="487.4" y2="448.74"/><line class="cls-3" x1="456.25" y1="518.99" x2="532.29" y2="475.08"/><line class="cls-3" x1="410.62" y1="527.77" x2="517.08" y2="466.3"/><line class="cls-3" x1="577.92" y1="940.51" x2="653.96" y2="896.6"/><line class="cls-3" x1="532.29" y1="949.29" x2="639.49" y2="887.82"/><line class="cls-3" x1="608.34" y1="958.07" x2="684.38" y2="914.17"/><line class="cls-3" x1="562.71" y1="966.86" x2="669.17" y2="905.38"/><line class="cls-3" x1="1186.28" y1="852.84" x2="1262.32" y2="808.93"/><line class="cls-3" x1="1140.65" y1="861.62" x2="1247.85" y2="800.15"/><line class="cls-3" x1="1216.69" y1="870.41" x2="1292.74" y2="826.5"/><line class="cls-3" x1="1171.07" y1="879.19" x2="1277.53" y2="817.72"/><path class="cls-4" d="M915.62,805.06v32.09L896.2,825.94a16.74,16.74,0,0,1-8.37-14.5V789"/><ellipse class="cls-4" cx="921.74" cy="813.92" rx="24.42" ry="18.06" transform="matrix(0.15, -0.99, 0.99, 0.15, -23.66, 1600.23)"/><ellipse class="cls-4" cx="921.74" cy="813.92" rx="13.57" ry="10.04" transform="translate(-23.66 1600.23) rotate(-81.2)"/><path class="cls-4" d="M804.49,869.22v32.09L785.07,890.1a16.75,16.75,0,0,1-8.38-14.5V853.17"/><ellipse class="cls-4" cx="810.61" cy="878.08" rx="24.42" ry="18.06" transform="translate(-181.19 1544.75) rotate(-81.2)"/><ellipse class="cls-4" cx="810.61" cy="878.08" rx="13.57" ry="10.04" transform="translate(-181.19 1544.75) rotate(-81.2)"/><path class="cls-4" d="M971.15,712.81l-70.92-42.16a40.45,40.45,0,0,0-40.91-.25l-15.8,9.12-17.79,9.37"/><polyline class="cls-4" points="646.9 825.14 730.28 873.29 980.42 728.86"/><path class="cls-4" d="M730.28,905.38l55.59-32.09h0a26.5,26.5,0,0,1,31.51-26l10.18,2L897,809.1h0a26.51,26.51,0,0,1,31.52-26l10.17,2,26.81-15.49,14.88-40.68h0a18.53,18.53,0,0,0-27.8-16.05l-27.79,16.05h0a55.57,55.57,0,0,0-55.58,0l-87.52,50.53a102,102,0,0,0-37.32,37.32h0a105.49,105.49,0,0,0-14.13,52.75v35.92h0L646.9,857.24V812.7A73.42,73.42,0,0,1,656.72,776h0a134.15,134.15,0,0,1,49.09-49.09l80.06-46.23a55.57,55.57,0,0,1,55.58,0h0"/><line class="cls-4" x1="649.22" y1="794.39" x2="733.62" y2="843.12"/><path class="cls-4" d="M772,849.22h0a82.59,82.59,0,0,1,41.74-71.79l35.36-20.12A48.65,48.65,0,0,1,910.94,769h0"/><line class="cls-4" x1="678.94" y1="747.36" x2="761.3" y2="794.91"/><line class="cls-4" x1="924.83" y1="728.86" x2="841.45" y2="680.71"/><path class="cls-4" d="M730.28,873.29l-27.8-16h0a25.79,25.79,0,0,0,14.41,23.13h0a25.87,25.87,0,0,0,13.38,2.57Z"/><path class="cls-4" d="M646.92,825.14l27.77,16.09h0c-8.59,6.95-20.91,4.78-27.79-1.34Z"/><polyline class="cls-2" points="980.42 728.86 730.28 873.29 646.92 825.14"/><line class="cls-4" x1="841.45" y1="761.64" x2="841.45" y2="841.19"/><path class="cls-4" d="M967.47,711.49l-10.21,5.8a6.78,6.78,0,0,0-.08,11.75h0l8.63-4.16a25.83,25.83,0,0,0,9.9-8.39l-1.11-.92a24.06,24.06,0,0,0-6.71-3.92Z"/><path class="cls-4" d="M1226.21,363.21V394l-18.64-10.77a16.06,16.06,0,0,1-8-13.92V347.8"/><ellipse class="cls-4" cx="1232.09" cy="371.71" rx="23.44" ry="17.34" transform="translate(676.19 1532.39) rotate(-81.2)"/><ellipse class="cls-4" cx="1232.09" cy="371.71" rx="13.02" ry="9.63" transform="translate(676.19 1532.39) rotate(-81.2)"/><path class="cls-4" d="M1119.53,424.8v30.81l-18.65-10.76a16.09,16.09,0,0,1-8-13.92V409.39"/><ellipse class="cls-4" cx="1125.4" cy="433.3" rx="23.44" ry="17.34" transform="translate(524.96 1479.13) rotate(-81.2)"/><ellipse class="cls-4" cx="1125.4" cy="433.3" rx="13.02" ry="9.63" transform="translate(524.96 1479.13) rotate(-81.2)"/><polygon class="cls-5" points="1080.23 389.31 1085.22 422.76 1034.19 464.17 1034.19 427.84 1080.23 389.31"/><path class="cls-4" d="M1154.28,243l14.3-8.26a44.66,44.66,0,0,1,45.17.31l65,38.76"/><path class="cls-4" d="M1234.33,289.17l-80-46.22a53.37,53.37,0,0,0-53.36,0l-50.17,29a128.73,128.73,0,0,0-47.13,47.13l-9.43,16.33L966,351.66a23.67,23.67,0,0,0-11.83,20.49V419.5l80,46.83h0v-48A23.67,23.67,0,0,1,1046,397.88l31.3-18.07"/><path class="cls-4" d="M1074.24,412.41V400.47a70.44,70.44,0,0,1,9.43-35.21h0a128.81,128.81,0,0,1,47.13-47.13l50.16-29a53.34,53.34,0,0,1,53.37,0h0L1261,273.76a17.79,17.79,0,0,1,26.68,15.11v.3l-13.34,38.51-26.68,15.5-9.68-1.89a25.48,25.48,0,0,0-30.35,25h0l-66.7,38.34-9.69-1.86a25.5,25.5,0,0,0-30.33,25h0l-66.71,38.52"/><line class="cls-4" x1="1024.95" y1="291.52" x2="1107" y2="335.81"/><polyline class="cls-2" points="1287.68 288.87 1034.21 435.52 954.17 389.31"/><path class="cls-4" d="M1114.1,389.31h0a80.47,80.47,0,0,1,40.07-69.42l18.25-10.59a48.59,48.59,0,0,1,61.5,10.68h0"/><line class="cls-4" x1="994.19" y1="335.38" x2="1077.34" y2="379.81"/><line class="cls-4" x1="1168.52" y1="311.57" x2="1168.52" y2="388.79"/><path class="cls-4" d="M1034.21,435.5l-26.68-15.41h0a24.73,24.73,0,0,0,13.83,22.2h0a24.66,24.66,0,0,0,12.85,2.47Z"/><path class="cls-4" d="M954.19,389.31l26.66,15.43h0c-8.25,6.68-20.08,4.6-26.68-1.28Z"/><path class="cls-4" d="M1274.74,271.35l-9.81,5.58a6.51,6.51,0,0,0-.07,11.28h0l8.29-4a23.2,23.2,0,0,0,9.18-7.78l-3.55-2.67Z"/><line class="cls-4" x1="1114.1" y1="389.31" x2="1233.92" y2="319.98"/><path class="cls-4" d="M774.55,359.75v29.62L756.62,379a15.45,15.45,0,0,1-7.72-13.38V344.93"/><ellipse class="cls-4" cx="780.2" cy="367.92" rx="22.54" ry="16.68" transform="translate(297.2 1082.62) rotate(-81.2)"/><ellipse class="cls-4" cx="780.2" cy="367.92" rx="12.52" ry="9.26" transform="translate(297.2 1082.62) rotate(-81.2)"/><path class="cls-4" d="M622.16,448.44v29.63l-17.93-10.35a15.47,15.47,0,0,1-7.72-13.39v-20.7"/><ellipse class="cls-4" cx="627.81" cy="456.62" rx="22.54" ry="16.68" transform="translate(80.49 1007.15) rotate(-81.2)"/><ellipse class="cls-4" cx="627.81" cy="456.62" rx="12.52" ry="9.26" transform="translate(80.49 1007.15) rotate(-81.2)"/><path class="cls-4" d="M706.28,244.17,720,236.23a42.92,42.92,0,0,1,43.43.3L826,273.8"/><path class="cls-4" d="M655,362.68l-65.59,37.87A22.76,22.76,0,0,0,578,420.25v46.12h0l-77-44.44V375.81a22.77,22.77,0,0,1,11.37-19.7L578,318.24l9.07-15.71a123.79,123.79,0,0,1,45.31-45.32l22.58-13a51.29,51.29,0,0,1,51.31,0l77,44.44"/><path class="cls-4" d="M578,466.37l25.65-14.81h0a23.77,23.77,0,0,1,28.92-23.2l8.14,1.81,116.87-67.48h0a24.48,24.48,0,0,1,29.11-24l9.39,1.81,25.64-14.81,12.83-37h0A17.1,17.1,0,0,0,808.9,273.8l-25.65,14.81h0a51.34,51.34,0,0,0-51.31,0l-22.58,13A123.9,123.9,0,0,0,664,347L655,362.68l-56.59,32.68-9,5.19A22.76,22.76,0,0,0,578,420.25v46.12Z"/><polyline class="cls-2" points="834.56 288.61 578.01 436.75 501.04 392.31"/><path class="cls-4" d="M693.46,370.09v-9.57a60.41,60.41,0,0,1,30.19-52.31h0a47.43,47.43,0,0,1,59.59,10h0"/><line class="cls-4" x1="607.59" y1="276.06" x2="684.55" y2="320.5"/><line class="cls-4" x1="578.01" y1="318.24" x2="654.97" y2="362.68"/><line class="cls-4" x1="731.94" y1="304.44" x2="731.95" y2="377.49"/><line class="cls-4" x1="654.97" y1="362.68" x2="654.97" y2="421.93"/><path class="cls-4" d="M578,436.75l-25.66-14.82h0a23.79,23.79,0,0,0,13.3,21.35h0A23.68,23.68,0,0,0,578,445.65Z"/><path class="cls-4" d="M501.06,392.31l25.64,14.84h0c-7.94,6.42-19.31,4.42-25.66-1.23Z"/><path class="cls-4" d="M821.5,271.48l-9.43,5.36a6.26,6.26,0,0,0-.07,10.84h0l8-3.84a23.83,23.83,0,0,0,9.14-7.74l-3-2.08a15.69,15.69,0,0,0-2-1.2Z"/><line class="cls-4" x1="693.46" y1="370.09" x2="783.25" y2="318.24"/><path class="cls-4" d="M1406.49,786.21v29.62l-17.93-10.35a15.45,15.45,0,0,1-7.73-13.38V771.39"/><ellipse class="cls-4" cx="1412.14" cy="794.38" rx="22.54" ry="16.68" transform="translate(410.99 2068.3) rotate(-81.2)"/><ellipse class="cls-4" cx="1412.14" cy="794.38" rx="12.52" ry="9.26" transform="translate(410.99 2068.3) rotate(-81.2)"/><path class="cls-4" d="M1548.13,703.57V733.2l-17.93-10.35a15.46,15.46,0,0,1-7.73-13.39v-20.7"/><ellipse class="cls-4" cx="1553.78" cy="711.75" rx="22.54" ry="16.68" transform="translate(612.61 2138.29) rotate(-81.2)"/><ellipse class="cls-4" cx="1553.78" cy="711.75" rx="12.52" ry="9.26" transform="translate(612.61 2138.29) rotate(-81.2)"/><polygon class="cls-5" points="1384.55 739.65 1389.54 773.1 1338.5 814.51 1338.5 778.18 1384.55 739.65"/><path class="cls-4" d="M1466.78,595.4l13.75-7.94a42.94,42.94,0,0,1,43.43.3L1586.49,625"/><path class="cls-4" d="M1543.75,639.84l-77-44.44a51.34,51.34,0,0,0-51.31,0l-99.55,57.49a123.69,123.69,0,0,0-45.31,45.31h0a67.73,67.73,0,0,0-9.07,33.86v41.11l77,44.43h0V776.49a67.73,67.73,0,0,1,9.07-33.85h0a123.9,123.9,0,0,1,45.32-45.32l99.55-57.48a51.34,51.34,0,0,1,51.31,0h0L1569.4,625a17.11,17.11,0,0,1,25.66,14.81h0l-12.83,37-12.83,7.41-9.39-1.81a24.46,24.46,0,0,0-29.09,24h0L1428.3,765.76l-9.39-1.81a24.48,24.48,0,0,0-29.1,24h0l-51.3,29.62h0V788"/><polyline class="cls-2" points="1261.54 743.54 1338.5 787.98 1595.06 639.85"/><path class="cls-4" d="M1377,765.76V747.39a44.8,44.8,0,0,1,22.34-38.77l67.4-39.07a77,77,0,0,1,77-.08h0"/><path class="cls-4" d="M1338.5,788l-25.65-14.81h0a23.78,23.78,0,0,0,13.29,21.34h0a23.85,23.85,0,0,0,12.36,2.38Z"/><path class="cls-4" d="M1261.56,743.54l25.63,14.84h0c-7.93,6.42-19.3,4.42-25.65-1.23Z"/><path class="cls-4" d="M1582,622.71l-9.43,5.36a6.27,6.27,0,0,0-.07,10.85h0l8-3.85a23.72,23.72,0,0,0,9.13-7.74l-3-2.08a16.8,16.8,0,0,0-2-1.2Z"/><line class="cls-4" x1="1291.11" y1="671.74" x2="1368.08" y2="716.18"/><line class="cls-4" x1="1263.68" y1="715.15" x2="1340.65" y2="759.59"/><line class="cls-4" x1="1454.1" y1="676.88" x2="1453.95" y2="750.95"/><line class="cls-4" x1="1376.99" y1="765.76" x2="1543.75" y2="669.47"/></svg>